G04 Layer_Color=128*
%FSLAX43Y43*%
%MOMM*%
G71*
G01*
G75*
%ADD10R,1.000X0.640*%
%ADD11R,0.640X1.000*%
%ADD12R,1.000X0.640*%
%ADD13C,0.100*%
G36*
X57396Y-11837D02*
Y-12181D01*
X57571D01*
Y-12365D01*
X57396D01*
Y-13170D01*
Y-13209D01*
Y-13242D01*
X57394Y-13272D01*
X57391Y-13303D01*
Y-13328D01*
X57388Y-13350D01*
X57383Y-13386D01*
X57377Y-13414D01*
X57374Y-13433D01*
X57369Y-13445D01*
Y-13447D01*
X57358Y-13472D01*
X57341Y-13492D01*
X57324Y-13511D01*
X57310Y-13525D01*
X57294Y-13539D01*
X57283Y-13547D01*
X57274Y-13553D01*
X57272Y-13556D01*
X57241Y-13569D01*
X57210Y-13578D01*
X57177Y-13586D01*
X57144Y-13589D01*
X57116Y-13592D01*
X57094Y-13594D01*
X57072D01*
X57011Y-13592D01*
X56980Y-13589D01*
X56952Y-13583D01*
X56927Y-13581D01*
X56908Y-13578D01*
X56897Y-13575D01*
X56891D01*
X56922Y-13367D01*
X56944Y-13370D01*
X56966Y-13372D01*
X56986D01*
X56999Y-13375D01*
X57027D01*
X57063Y-13372D01*
X57088Y-13367D01*
X57102Y-13361D01*
X57108Y-13358D01*
X57127Y-13345D01*
X57138Y-13331D01*
X57147Y-13320D01*
X57149Y-13314D01*
X57152Y-13300D01*
X57155Y-13281D01*
X57158Y-13236D01*
X57160Y-13217D01*
Y-13200D01*
Y-13189D01*
Y-13184D01*
Y-12365D01*
X56922D01*
Y-12181D01*
X57160D01*
Y-11696D01*
X57396Y-11837D01*
D02*
G37*
G36*
X56172Y-12154D02*
X56222Y-12159D01*
X56269Y-12167D01*
X56314Y-12181D01*
X56355Y-12195D01*
X56394Y-12212D01*
X56430Y-12229D01*
X56461Y-12248D01*
X56491Y-12265D01*
X56516Y-12284D01*
X56539Y-12301D01*
X56555Y-12315D01*
X56569Y-12328D01*
X56580Y-12337D01*
X56586Y-12342D01*
X56589Y-12345D01*
X56619Y-12384D01*
X56647Y-12426D01*
X56672Y-12467D01*
X56694Y-12512D01*
X56711Y-12559D01*
X56725Y-12603D01*
X56747Y-12692D01*
X56755Y-12731D01*
X56761Y-12770D01*
X56763Y-12803D01*
X56766Y-12834D01*
X56769Y-12859D01*
Y-12875D01*
Y-12889D01*
Y-12892D01*
X56766Y-12953D01*
X56761Y-13011D01*
X56752Y-13067D01*
X56741Y-13117D01*
X56727Y-13164D01*
X56714Y-13209D01*
X56697Y-13247D01*
X56680Y-13283D01*
X56664Y-13314D01*
X56647Y-13342D01*
X56633Y-13364D01*
X56619Y-13383D01*
X56608Y-13400D01*
X56600Y-13411D01*
X56594Y-13417D01*
X56591Y-13420D01*
X56555Y-13453D01*
X56519Y-13481D01*
X56480Y-13506D01*
X56439Y-13528D01*
X56400Y-13544D01*
X56358Y-13561D01*
X56280Y-13583D01*
X56244Y-13589D01*
X56211Y-13594D01*
X56180Y-13600D01*
X56155Y-13603D01*
X56136Y-13606D01*
X56106D01*
X56019Y-13600D01*
X55942Y-13586D01*
X55872Y-13569D01*
X55845Y-13558D01*
X55817Y-13547D01*
X55792Y-13536D01*
X55770Y-13525D01*
X55753Y-13517D01*
X55736Y-13508D01*
X55725Y-13500D01*
X55717Y-13494D01*
X55711Y-13489D01*
X55709D01*
X55653Y-13439D01*
X55609Y-13386D01*
X55570Y-13331D01*
X55542Y-13278D01*
X55520Y-13231D01*
X55511Y-13209D01*
X55503Y-13192D01*
X55498Y-13175D01*
X55495Y-13164D01*
X55492Y-13159D01*
Y-13156D01*
X55736Y-13125D01*
X55758Y-13178D01*
X55783Y-13222D01*
X55808Y-13261D01*
X55831Y-13292D01*
X55850Y-13314D01*
X55867Y-13331D01*
X55881Y-13342D01*
X55883Y-13345D01*
X55920Y-13367D01*
X55956Y-13383D01*
X55994Y-13395D01*
X56028Y-13403D01*
X56058Y-13408D01*
X56083Y-13411D01*
X56106D01*
X56139Y-13408D01*
X56169Y-13406D01*
X56225Y-13392D01*
X56275Y-13372D01*
X56319Y-13350D01*
X56353Y-13331D01*
X56378Y-13311D01*
X56394Y-13297D01*
X56397Y-13292D01*
X56400D01*
X56439Y-13242D01*
X56469Y-13186D01*
X56491Y-13125D01*
X56508Y-13070D01*
X56516Y-13020D01*
X56522Y-12998D01*
X56525Y-12978D01*
Y-12961D01*
X56528Y-12950D01*
Y-12942D01*
Y-12939D01*
X55486D01*
X55484Y-12911D01*
Y-12892D01*
Y-12881D01*
Y-12878D01*
X55486Y-12814D01*
X55492Y-12756D01*
X55500Y-12700D01*
X55511Y-12648D01*
X55525Y-12601D01*
X55539Y-12556D01*
X55556Y-12517D01*
X55572Y-12481D01*
X55589Y-12448D01*
X55606Y-12420D01*
X55620Y-12398D01*
X55634Y-12378D01*
X55645Y-12362D01*
X55653Y-12351D01*
X55659Y-12345D01*
X55661Y-12342D01*
X55695Y-12309D01*
X55731Y-12279D01*
X55770Y-12254D01*
X55808Y-12231D01*
X55847Y-12212D01*
X55883Y-12198D01*
X55922Y-12184D01*
X55956Y-12176D01*
X55992Y-12167D01*
X56022Y-12162D01*
X56050Y-12156D01*
X56072Y-12154D01*
X56092Y-12151D01*
X56119D01*
X56172Y-12154D01*
D02*
G37*
G36*
X67996Y-11837D02*
Y-12181D01*
X68171D01*
Y-12365D01*
X67996D01*
Y-13170D01*
Y-13209D01*
Y-13242D01*
X67993Y-13272D01*
X67991Y-13303D01*
Y-13328D01*
X67988Y-13350D01*
X67982Y-13386D01*
X67977Y-13414D01*
X67974Y-13433D01*
X67968Y-13445D01*
Y-13447D01*
X67957Y-13472D01*
X67941Y-13492D01*
X67924Y-13511D01*
X67910Y-13525D01*
X67893Y-13539D01*
X67882Y-13547D01*
X67874Y-13553D01*
X67871Y-13556D01*
X67841Y-13569D01*
X67810Y-13578D01*
X67777Y-13586D01*
X67743Y-13589D01*
X67716Y-13592D01*
X67693Y-13594D01*
X67671D01*
X67610Y-13592D01*
X67580Y-13589D01*
X67552Y-13583D01*
X67527Y-13581D01*
X67507Y-13578D01*
X67496Y-13575D01*
X67491D01*
X67521Y-13367D01*
X67544Y-13370D01*
X67566Y-13372D01*
X67585D01*
X67599Y-13375D01*
X67627D01*
X67663Y-13372D01*
X67688Y-13367D01*
X67702Y-13361D01*
X67707Y-13358D01*
X67727Y-13345D01*
X67738Y-13331D01*
X67746Y-13320D01*
X67749Y-13314D01*
X67752Y-13300D01*
X67755Y-13281D01*
X67757Y-13236D01*
X67760Y-13217D01*
Y-13200D01*
Y-13189D01*
Y-13184D01*
Y-12365D01*
X67521D01*
Y-12181D01*
X67760D01*
Y-11696D01*
X67996Y-11837D01*
D02*
G37*
G36*
X67249D02*
Y-12181D01*
X67424D01*
Y-12365D01*
X67249D01*
Y-13170D01*
Y-13209D01*
Y-13242D01*
X67246Y-13272D01*
X67244Y-13303D01*
Y-13328D01*
X67241Y-13350D01*
X67235Y-13386D01*
X67230Y-13414D01*
X67227Y-13433D01*
X67222Y-13445D01*
Y-13447D01*
X67210Y-13472D01*
X67194Y-13492D01*
X67177Y-13511D01*
X67163Y-13525D01*
X67147Y-13539D01*
X67135Y-13547D01*
X67127Y-13553D01*
X67124Y-13556D01*
X67094Y-13569D01*
X67063Y-13578D01*
X67030Y-13586D01*
X66997Y-13589D01*
X66969Y-13592D01*
X66947Y-13594D01*
X66924D01*
X66863Y-13592D01*
X66833Y-13589D01*
X66805Y-13583D01*
X66780Y-13581D01*
X66761Y-13578D01*
X66750Y-13575D01*
X66744D01*
X66775Y-13367D01*
X66797Y-13370D01*
X66819Y-13372D01*
X66838D01*
X66852Y-13375D01*
X66880D01*
X66916Y-13372D01*
X66941Y-13367D01*
X66955Y-13361D01*
X66961Y-13358D01*
X66980Y-13345D01*
X66991Y-13331D01*
X66999Y-13320D01*
X67002Y-13314D01*
X67005Y-13300D01*
X67008Y-13281D01*
X67011Y-13236D01*
X67013Y-13217D01*
Y-13200D01*
Y-13189D01*
Y-13184D01*
Y-12365D01*
X66775D01*
Y-12181D01*
X67013D01*
Y-11696D01*
X67249Y-11837D01*
D02*
G37*
G36*
X71300Y-13575D02*
X70567D01*
X70500Y-13572D01*
X70442Y-13569D01*
X70389Y-13564D01*
X70345Y-13558D01*
X70309Y-13553D01*
X70281Y-13550D01*
X70264Y-13544D01*
X70259D01*
X70212Y-13531D01*
X70173Y-13517D01*
X70137Y-13500D01*
X70106Y-13483D01*
X70081Y-13472D01*
X70062Y-13461D01*
X70050Y-13453D01*
X70048Y-13450D01*
X70017Y-13425D01*
X69989Y-13395D01*
X69967Y-13364D01*
X69945Y-13336D01*
X69928Y-13308D01*
X69917Y-13289D01*
X69909Y-13275D01*
X69906Y-13270D01*
X69887Y-13225D01*
X69873Y-13181D01*
X69862Y-13139D01*
X69856Y-13100D01*
X69851Y-13067D01*
X69848Y-13039D01*
Y-13023D01*
Y-13020D01*
Y-13017D01*
X69851Y-12956D01*
X69862Y-12900D01*
X69878Y-12853D01*
X69895Y-12809D01*
X69912Y-12775D01*
X69928Y-12750D01*
X69939Y-12734D01*
X69942Y-12728D01*
X69981Y-12684D01*
X70023Y-12648D01*
X70070Y-12617D01*
X70112Y-12592D01*
X70150Y-12573D01*
X70184Y-12562D01*
X70195Y-12556D01*
X70203Y-12553D01*
X70209Y-12551D01*
X70212D01*
X70164Y-12523D01*
X70123Y-12495D01*
X70089Y-12465D01*
X70062Y-12437D01*
X70039Y-12415D01*
X70023Y-12392D01*
X70014Y-12381D01*
X70012Y-12376D01*
X69989Y-12334D01*
X69973Y-12295D01*
X69959Y-12256D01*
X69951Y-12220D01*
X69945Y-12190D01*
X69942Y-12165D01*
Y-12151D01*
Y-12145D01*
X69945Y-12098D01*
X69953Y-12051D01*
X69967Y-12009D01*
X69981Y-11970D01*
X69995Y-11937D01*
X70009Y-11915D01*
X70017Y-11898D01*
X70020Y-11893D01*
X70050Y-11851D01*
X70084Y-11812D01*
X70120Y-11782D01*
X70153Y-11757D01*
X70181Y-11737D01*
X70206Y-11723D01*
X70223Y-11715D01*
X70225Y-11712D01*
X70228D01*
X70281Y-11693D01*
X70339Y-11679D01*
X70398Y-11668D01*
X70453Y-11662D01*
X70503Y-11657D01*
X70525D01*
X70545Y-11654D01*
X71300D01*
Y-13575D01*
D02*
G37*
G36*
X66025Y-12154D02*
X66069Y-12156D01*
X66155Y-12176D01*
X66230Y-12201D01*
X66264Y-12215D01*
X66294Y-12229D01*
X66322Y-12242D01*
X66344Y-12256D01*
X66366Y-12270D01*
X66383Y-12281D01*
X66397Y-12292D01*
X66408Y-12301D01*
X66414Y-12304D01*
X66416Y-12306D01*
X66455Y-12342D01*
X66486Y-12384D01*
X66516Y-12428D01*
X66539Y-12473D01*
X66561Y-12520D01*
X66577Y-12570D01*
X66591Y-12617D01*
X66602Y-12662D01*
X66614Y-12706D01*
X66619Y-12745D01*
X66625Y-12784D01*
X66627Y-12814D01*
Y-12842D01*
X66630Y-12862D01*
Y-12873D01*
Y-12878D01*
X66627Y-12942D01*
X66622Y-13003D01*
X66614Y-13059D01*
X66602Y-13111D01*
X66589Y-13159D01*
X66575Y-13203D01*
X66558Y-13245D01*
X66541Y-13281D01*
X66525Y-13314D01*
X66508Y-13342D01*
X66494Y-13364D01*
X66480Y-13383D01*
X66469Y-13400D01*
X66461Y-13411D01*
X66455Y-13417D01*
X66452Y-13420D01*
X66416Y-13453D01*
X66380Y-13481D01*
X66341Y-13506D01*
X66303Y-13528D01*
X66264Y-13544D01*
X66222Y-13561D01*
X66147Y-13583D01*
X66114Y-13589D01*
X66080Y-13594D01*
X66053Y-13600D01*
X66028Y-13603D01*
X66006Y-13606D01*
X65978D01*
X65911Y-13603D01*
X65850Y-13592D01*
X65792Y-13578D01*
X65745Y-13564D01*
X65703Y-13547D01*
X65686Y-13542D01*
X65672Y-13536D01*
X65659Y-13531D01*
X65650Y-13525D01*
X65647Y-13522D01*
X65645D01*
X65589Y-13486D01*
X65542Y-13447D01*
X65500Y-13408D01*
X65467Y-13370D01*
X65442Y-13336D01*
X65423Y-13308D01*
X65417Y-13297D01*
X65411Y-13289D01*
X65409Y-13286D01*
Y-13283D01*
X65381Y-13220D01*
X65361Y-13150D01*
X65345Y-13081D01*
X65336Y-13011D01*
X65331Y-12981D01*
Y-12953D01*
X65328Y-12925D01*
X65325Y-12903D01*
Y-12884D01*
Y-12870D01*
Y-12862D01*
Y-12859D01*
X65328Y-12798D01*
X65334Y-12742D01*
X65342Y-12689D01*
X65353Y-12639D01*
X65367Y-12592D01*
X65384Y-12551D01*
X65400Y-12509D01*
X65417Y-12476D01*
X65434Y-12445D01*
X65450Y-12417D01*
X65467Y-12392D01*
X65481Y-12373D01*
X65492Y-12359D01*
X65500Y-12348D01*
X65506Y-12342D01*
X65509Y-12340D01*
X65545Y-12306D01*
X65581Y-12279D01*
X65620Y-12251D01*
X65659Y-12231D01*
X65697Y-12212D01*
X65736Y-12198D01*
X65811Y-12173D01*
X65847Y-12167D01*
X65878Y-12162D01*
X65906Y-12156D01*
X65931Y-12154D01*
X65950Y-12151D01*
X65978D01*
X66025Y-12154D01*
D02*
G37*
G36*
X58401Y-12156D02*
X58435Y-12159D01*
X58465Y-12165D01*
X58490Y-12170D01*
X58510Y-12176D01*
X58521Y-12179D01*
X58526Y-12181D01*
X58560Y-12192D01*
X58590Y-12204D01*
X58615Y-12215D01*
X58637Y-12226D01*
X58654Y-12234D01*
X58665Y-12242D01*
X58674Y-12245D01*
X58676Y-12248D01*
X58704Y-12267D01*
X58726Y-12290D01*
X58746Y-12315D01*
X58762Y-12334D01*
X58776Y-12353D01*
X58785Y-12367D01*
X58790Y-12378D01*
X58793Y-12381D01*
X58807Y-12412D01*
X58818Y-12440D01*
X58823Y-12470D01*
X58829Y-12495D01*
X58832Y-12520D01*
X58835Y-12537D01*
Y-12548D01*
Y-12553D01*
X58832Y-12592D01*
X58826Y-12626D01*
X58818Y-12659D01*
X58810Y-12687D01*
X58801Y-12709D01*
X58793Y-12728D01*
X58787Y-12739D01*
X58785Y-12742D01*
X58762Y-12773D01*
X58737Y-12798D01*
X58712Y-12820D01*
X58687Y-12839D01*
X58665Y-12853D01*
X58649Y-12864D01*
X58637Y-12870D01*
X58632Y-12873D01*
X58612Y-12881D01*
X58587Y-12892D01*
X58532Y-12911D01*
X58474Y-12928D01*
X58413Y-12948D01*
X58360Y-12961D01*
X58335Y-12970D01*
X58313Y-12975D01*
X58296Y-12981D01*
X58282Y-12984D01*
X58274Y-12986D01*
X58271D01*
X58235Y-12995D01*
X58204Y-13003D01*
X58177Y-13011D01*
X58152Y-13020D01*
X58129Y-13025D01*
X58110Y-13034D01*
X58077Y-13045D01*
X58054Y-13053D01*
X58041Y-13061D01*
X58032Y-13064D01*
X58029Y-13067D01*
X58004Y-13084D01*
X57988Y-13106D01*
X57974Y-13125D01*
X57966Y-13145D01*
X57960Y-13164D01*
X57957Y-13178D01*
Y-13189D01*
Y-13192D01*
X57960Y-13225D01*
X57968Y-13253D01*
X57982Y-13281D01*
X57996Y-13303D01*
X58013Y-13322D01*
X58024Y-13336D01*
X58035Y-13345D01*
X58038Y-13347D01*
X58071Y-13370D01*
X58107Y-13383D01*
X58149Y-13395D01*
X58188Y-13403D01*
X58224Y-13408D01*
X58252Y-13411D01*
X58279D01*
X58338Y-13408D01*
X58388Y-13400D01*
X58429Y-13389D01*
X58465Y-13375D01*
X58493Y-13361D01*
X58515Y-13350D01*
X58526Y-13342D01*
X58532Y-13339D01*
X58562Y-13308D01*
X58587Y-13272D01*
X58604Y-13236D01*
X58618Y-13203D01*
X58629Y-13172D01*
X58635Y-13145D01*
X58640Y-13128D01*
Y-13125D01*
Y-13122D01*
X58873Y-13159D01*
X58854Y-13236D01*
X58829Y-13306D01*
X58798Y-13361D01*
X58768Y-13408D01*
X58740Y-13447D01*
X58715Y-13472D01*
X58699Y-13489D01*
X58696Y-13492D01*
X58693Y-13494D01*
X58665Y-13514D01*
X58635Y-13531D01*
X58568Y-13558D01*
X58499Y-13578D01*
X58432Y-13592D01*
X58401Y-13597D01*
X58374Y-13600D01*
X58346Y-13603D01*
X58324D01*
X58304Y-13606D01*
X58279D01*
X58218Y-13603D01*
X58165Y-13597D01*
X58116Y-13589D01*
X58071Y-13578D01*
X58035Y-13567D01*
X58007Y-13558D01*
X57991Y-13553D01*
X57988Y-13550D01*
X57985D01*
X57938Y-13525D01*
X57899Y-13500D01*
X57866Y-13472D01*
X57835Y-13447D01*
X57813Y-13425D01*
X57799Y-13406D01*
X57788Y-13395D01*
X57785Y-13389D01*
X57763Y-13350D01*
X57746Y-13308D01*
X57732Y-13272D01*
X57724Y-13239D01*
X57719Y-13209D01*
X57716Y-13186D01*
Y-13172D01*
Y-13167D01*
X57719Y-13122D01*
X57724Y-13084D01*
X57735Y-13050D01*
X57743Y-13020D01*
X57755Y-12995D01*
X57766Y-12978D01*
X57771Y-12967D01*
X57774Y-12964D01*
X57796Y-12936D01*
X57821Y-12911D01*
X57846Y-12889D01*
X57871Y-12873D01*
X57896Y-12859D01*
X57913Y-12850D01*
X57924Y-12845D01*
X57930Y-12842D01*
X57949Y-12834D01*
X57971Y-12825D01*
X58024Y-12806D01*
X58082Y-12787D01*
X58140Y-12770D01*
X58193Y-12753D01*
X58218Y-12748D01*
X58238Y-12742D01*
X58254Y-12737D01*
X58268Y-12734D01*
X58277Y-12731D01*
X58279D01*
X58310Y-12723D01*
X58338Y-12714D01*
X58363Y-12709D01*
X58385Y-12700D01*
X58421Y-12692D01*
X58449Y-12684D01*
X58468Y-12676D01*
X58479Y-12673D01*
X58485Y-12670D01*
X58488D01*
X58510Y-12659D01*
X58529Y-12651D01*
X58546Y-12639D01*
X58557Y-12631D01*
X58568Y-12623D01*
X58574Y-12614D01*
X58576Y-12612D01*
X58579Y-12609D01*
X58596Y-12581D01*
X58604Y-12553D01*
Y-12542D01*
X58607Y-12534D01*
Y-12528D01*
Y-12526D01*
X58604Y-12501D01*
X58596Y-12476D01*
X58585Y-12453D01*
X58571Y-12437D01*
X58560Y-12420D01*
X58549Y-12409D01*
X58540Y-12403D01*
X58537Y-12401D01*
X58507Y-12381D01*
X58471Y-12367D01*
X58432Y-12359D01*
X58396Y-12351D01*
X58360Y-12348D01*
X58332Y-12345D01*
X58304D01*
X58257Y-12348D01*
X58213Y-12353D01*
X58177Y-12365D01*
X58149Y-12376D01*
X58124Y-12387D01*
X58107Y-12398D01*
X58096Y-12403D01*
X58093Y-12406D01*
X58066Y-12431D01*
X58046Y-12459D01*
X58029Y-12487D01*
X58016Y-12512D01*
X58007Y-12537D01*
X58002Y-12556D01*
X57999Y-12567D01*
Y-12573D01*
X57768Y-12542D01*
X57780Y-12495D01*
X57791Y-12453D01*
X57805Y-12417D01*
X57818Y-12384D01*
X57832Y-12362D01*
X57843Y-12342D01*
X57849Y-12331D01*
X57852Y-12328D01*
X57877Y-12301D01*
X57905Y-12276D01*
X57935Y-12254D01*
X57966Y-12234D01*
X57993Y-12220D01*
X58016Y-12209D01*
X58029Y-12204D01*
X58032Y-12201D01*
X58035D01*
X58082Y-12184D01*
X58132Y-12173D01*
X58179Y-12162D01*
X58224Y-12156D01*
X58265Y-12154D01*
X58296Y-12151D01*
X58363D01*
X58401Y-12156D01*
D02*
G37*
G36*
X62033Y-13575D02*
X61777D01*
Y-12795D01*
X61286D01*
X61214Y-12792D01*
X61144Y-12787D01*
X61083Y-12778D01*
X61028Y-12767D01*
X60975Y-12756D01*
X60931Y-12742D01*
X60889Y-12725D01*
X60853Y-12709D01*
X60822Y-12695D01*
X60795Y-12678D01*
X60772Y-12664D01*
X60756Y-12651D01*
X60742Y-12642D01*
X60733Y-12634D01*
X60728Y-12628D01*
X60725Y-12626D01*
X60697Y-12592D01*
X60672Y-12559D01*
X60653Y-12526D01*
X60634Y-12490D01*
X60617Y-12453D01*
X60606Y-12420D01*
X60586Y-12356D01*
X60581Y-12326D01*
X60575Y-12298D01*
X60572Y-12273D01*
X60570Y-12254D01*
X60567Y-12234D01*
Y-12223D01*
Y-12215D01*
Y-12212D01*
X60570Y-12159D01*
X60575Y-12109D01*
X60586Y-12065D01*
X60595Y-12026D01*
X60606Y-11993D01*
X60617Y-11968D01*
X60622Y-11954D01*
X60625Y-11948D01*
X60647Y-11906D01*
X60675Y-11870D01*
X60700Y-11837D01*
X60725Y-11812D01*
X60747Y-11793D01*
X60764Y-11776D01*
X60775Y-11768D01*
X60781Y-11765D01*
X60817Y-11743D01*
X60858Y-11723D01*
X60897Y-11707D01*
X60933Y-11693D01*
X60967Y-11684D01*
X60992Y-11679D01*
X61011Y-11673D01*
X61017D01*
X61058Y-11668D01*
X61105Y-11662D01*
X61155Y-11659D01*
X61203Y-11657D01*
X61244Y-11654D01*
X62033D01*
Y-13575D01*
D02*
G37*
G36*
X69012Y-12154D02*
X69057Y-12156D01*
X69143Y-12176D01*
X69218Y-12201D01*
X69251Y-12215D01*
X69281Y-12229D01*
X69309Y-12242D01*
X69331Y-12256D01*
X69354Y-12270D01*
X69370Y-12281D01*
X69384Y-12292D01*
X69395Y-12301D01*
X69401Y-12304D01*
X69404Y-12306D01*
X69442Y-12342D01*
X69473Y-12384D01*
X69504Y-12428D01*
X69526Y-12473D01*
X69548Y-12520D01*
X69565Y-12570D01*
X69579Y-12617D01*
X69590Y-12662D01*
X69601Y-12706D01*
X69606Y-12745D01*
X69612Y-12784D01*
X69615Y-12814D01*
Y-12842D01*
X69617Y-12862D01*
Y-12873D01*
Y-12878D01*
X69615Y-12942D01*
X69609Y-13003D01*
X69601Y-13059D01*
X69590Y-13111D01*
X69576Y-13159D01*
X69562Y-13203D01*
X69545Y-13245D01*
X69529Y-13281D01*
X69512Y-13314D01*
X69495Y-13342D01*
X69481Y-13364D01*
X69467Y-13383D01*
X69456Y-13400D01*
X69448Y-13411D01*
X69442Y-13417D01*
X69440Y-13420D01*
X69404Y-13453D01*
X69368Y-13481D01*
X69329Y-13506D01*
X69290Y-13528D01*
X69251Y-13544D01*
X69209Y-13561D01*
X69134Y-13583D01*
X69101Y-13589D01*
X69068Y-13594D01*
X69040Y-13600D01*
X69015Y-13603D01*
X68993Y-13606D01*
X68965D01*
X68898Y-13603D01*
X68837Y-13592D01*
X68779Y-13578D01*
X68732Y-13564D01*
X68690Y-13547D01*
X68673Y-13542D01*
X68660Y-13536D01*
X68646Y-13531D01*
X68637Y-13525D01*
X68635Y-13522D01*
X68632D01*
X68576Y-13486D01*
X68529Y-13447D01*
X68487Y-13408D01*
X68454Y-13370D01*
X68429Y-13336D01*
X68410Y-13308D01*
X68404Y-13297D01*
X68399Y-13289D01*
X68396Y-13286D01*
Y-13283D01*
X68368Y-13220D01*
X68349Y-13150D01*
X68332Y-13081D01*
X68324Y-13011D01*
X68318Y-12981D01*
Y-12953D01*
X68315Y-12925D01*
X68313Y-12903D01*
Y-12884D01*
Y-12870D01*
Y-12862D01*
Y-12859D01*
X68315Y-12798D01*
X68321Y-12742D01*
X68329Y-12689D01*
X68340Y-12639D01*
X68354Y-12592D01*
X68371Y-12551D01*
X68388Y-12509D01*
X68404Y-12476D01*
X68421Y-12445D01*
X68438Y-12417D01*
X68454Y-12392D01*
X68468Y-12373D01*
X68479Y-12359D01*
X68487Y-12348D01*
X68493Y-12342D01*
X68496Y-12340D01*
X68532Y-12306D01*
X68568Y-12279D01*
X68607Y-12251D01*
X68646Y-12231D01*
X68685Y-12212D01*
X68723Y-12198D01*
X68798Y-12173D01*
X68835Y-12167D01*
X68865Y-12162D01*
X68893Y-12156D01*
X68918Y-12154D01*
X68937Y-12151D01*
X68965D01*
X69012Y-12154D01*
D02*
G37*
G36*
X26951Y-11882D02*
X26318D01*
Y-13575D01*
X26063D01*
Y-11882D01*
X25430D01*
Y-11654D01*
X26951D01*
Y-11882D01*
D02*
G37*
G36*
X25166Y-13575D02*
X24910D01*
Y-12795D01*
X24419D01*
X24347Y-12792D01*
X24277Y-12787D01*
X24216Y-12778D01*
X24161Y-12767D01*
X24108Y-12756D01*
X24064Y-12742D01*
X24022Y-12725D01*
X23986Y-12709D01*
X23955Y-12695D01*
X23928Y-12678D01*
X23905Y-12664D01*
X23889Y-12651D01*
X23875Y-12642D01*
X23867Y-12634D01*
X23861Y-12628D01*
X23858Y-12626D01*
X23830Y-12592D01*
X23805Y-12559D01*
X23786Y-12526D01*
X23767Y-12490D01*
X23750Y-12453D01*
X23739Y-12420D01*
X23719Y-12356D01*
X23714Y-12326D01*
X23708Y-12298D01*
X23706Y-12273D01*
X23703Y-12254D01*
X23700Y-12234D01*
Y-12223D01*
Y-12215D01*
Y-12212D01*
X23703Y-12159D01*
X23708Y-12109D01*
X23719Y-12065D01*
X23728Y-12026D01*
X23739Y-11993D01*
X23750Y-11968D01*
X23756Y-11954D01*
X23758Y-11948D01*
X23780Y-11906D01*
X23808Y-11870D01*
X23833Y-11837D01*
X23858Y-11812D01*
X23880Y-11793D01*
X23897Y-11776D01*
X23908Y-11768D01*
X23914Y-11765D01*
X23950Y-11743D01*
X23991Y-11723D01*
X24030Y-11707D01*
X24066Y-11693D01*
X24100Y-11684D01*
X24125Y-11679D01*
X24144Y-11673D01*
X24150D01*
X24191Y-11668D01*
X24239Y-11662D01*
X24289Y-11659D01*
X24336Y-11657D01*
X24377Y-11654D01*
X25166D01*
Y-13575D01*
D02*
G37*
G36*
X64467Y-12154D02*
X64515Y-12162D01*
X64556Y-12170D01*
X64592Y-12181D01*
X64623Y-12195D01*
X64645Y-12204D01*
X64659Y-12212D01*
X64665Y-12215D01*
X64703Y-12240D01*
X64737Y-12267D01*
X64767Y-12295D01*
X64792Y-12323D01*
X64812Y-12345D01*
X64828Y-12365D01*
X64837Y-12376D01*
X64840Y-12381D01*
Y-12181D01*
X65051D01*
Y-13575D01*
X64815D01*
Y-12853D01*
X64812Y-12787D01*
X64809Y-12728D01*
X64803Y-12678D01*
X64795Y-12637D01*
X64787Y-12606D01*
X64781Y-12584D01*
X64778Y-12570D01*
X64776Y-12564D01*
X64759Y-12528D01*
X64740Y-12498D01*
X64720Y-12470D01*
X64701Y-12448D01*
X64681Y-12431D01*
X64667Y-12420D01*
X64656Y-12412D01*
X64654Y-12409D01*
X64620Y-12392D01*
X64590Y-12378D01*
X64556Y-12370D01*
X64529Y-12362D01*
X64506Y-12359D01*
X64487Y-12356D01*
X64470D01*
X64423Y-12359D01*
X64384Y-12367D01*
X64351Y-12381D01*
X64326Y-12395D01*
X64306Y-12412D01*
X64293Y-12423D01*
X64284Y-12434D01*
X64282Y-12437D01*
X64262Y-12470D01*
X64248Y-12506D01*
X64237Y-12545D01*
X64232Y-12584D01*
X64226Y-12617D01*
X64223Y-12648D01*
Y-12659D01*
Y-12664D01*
Y-12670D01*
Y-12673D01*
Y-13575D01*
X63987D01*
Y-12767D01*
X63982Y-12692D01*
X63971Y-12628D01*
X63957Y-12576D01*
X63937Y-12531D01*
X63921Y-12498D01*
X63904Y-12476D01*
X63893Y-12462D01*
X63890Y-12456D01*
X63851Y-12423D01*
X63810Y-12398D01*
X63768Y-12381D01*
X63729Y-12367D01*
X63696Y-12362D01*
X63668Y-12359D01*
X63657Y-12356D01*
X63643D01*
X63612Y-12359D01*
X63587Y-12362D01*
X63562Y-12367D01*
X63543Y-12376D01*
X63524Y-12384D01*
X63512Y-12390D01*
X63504Y-12392D01*
X63501Y-12395D01*
X63479Y-12412D01*
X63463Y-12428D01*
X63449Y-12445D01*
X63438Y-12462D01*
X63429Y-12476D01*
X63424Y-12487D01*
X63418Y-12495D01*
Y-12498D01*
X63410Y-12523D01*
X63404Y-12556D01*
X63401Y-12589D01*
X63399Y-12623D01*
X63396Y-12653D01*
Y-12678D01*
Y-12695D01*
Y-12698D01*
Y-12700D01*
Y-13575D01*
X63160D01*
Y-12620D01*
Y-12576D01*
X63165Y-12537D01*
X63171Y-12498D01*
X63177Y-12465D01*
X63185Y-12431D01*
X63196Y-12403D01*
X63204Y-12378D01*
X63215Y-12353D01*
X63227Y-12334D01*
X63235Y-12315D01*
X63254Y-12290D01*
X63265Y-12273D01*
X63271Y-12267D01*
X63315Y-12229D01*
X63368Y-12201D01*
X63421Y-12179D01*
X63471Y-12165D01*
X63518Y-12156D01*
X63537Y-12154D01*
X63557D01*
X63571Y-12151D01*
X63590D01*
X63640Y-12154D01*
X63685Y-12162D01*
X63729Y-12173D01*
X63771Y-12190D01*
X63810Y-12209D01*
X63846Y-12229D01*
X63876Y-12251D01*
X63907Y-12273D01*
X63934Y-12298D01*
X63957Y-12320D01*
X63976Y-12340D01*
X63993Y-12359D01*
X64007Y-12376D01*
X64015Y-12387D01*
X64021Y-12395D01*
X64023Y-12398D01*
X64040Y-12356D01*
X64062Y-12320D01*
X64087Y-12290D01*
X64109Y-12265D01*
X64132Y-12242D01*
X64148Y-12229D01*
X64159Y-12220D01*
X64165Y-12217D01*
X64204Y-12195D01*
X64245Y-12179D01*
X64287Y-12167D01*
X64329Y-12159D01*
X64362Y-12154D01*
X64393Y-12151D01*
X64418D01*
X64467Y-12154D01*
D02*
G37*
G36*
X29605Y-13575D02*
X29336D01*
Y-13306D01*
X29605D01*
Y-13575D01*
D02*
G37*
G36*
X28103Y-11626D02*
X28200Y-11640D01*
X28245Y-11648D01*
X28286Y-11659D01*
X28325Y-11668D01*
X28361Y-11679D01*
X28395Y-11690D01*
X28422Y-11701D01*
X28447Y-11712D01*
X28470Y-11720D01*
X28486Y-11729D01*
X28497Y-11734D01*
X28506Y-11737D01*
X28508Y-11740D01*
X28547Y-11765D01*
X28586Y-11790D01*
X28653Y-11848D01*
X28711Y-11906D01*
X28758Y-11968D01*
X28797Y-12020D01*
X28811Y-12043D01*
X28822Y-12065D01*
X28833Y-12081D01*
X28839Y-12092D01*
X28842Y-12101D01*
X28844Y-12104D01*
X28883Y-12195D01*
X28911Y-12287D01*
X28933Y-12376D01*
X28939Y-12417D01*
X28947Y-12456D01*
X28950Y-12492D01*
X28955Y-12523D01*
X28958Y-12553D01*
Y-12578D01*
X28961Y-12598D01*
Y-12612D01*
Y-12623D01*
Y-12626D01*
X28955Y-12728D01*
X28941Y-12825D01*
X28933Y-12870D01*
X28925Y-12911D01*
X28914Y-12953D01*
X28903Y-12989D01*
X28892Y-13023D01*
X28880Y-13050D01*
X28872Y-13078D01*
X28864Y-13097D01*
X28855Y-13117D01*
X28850Y-13128D01*
X28844Y-13136D01*
Y-13139D01*
X28794Y-13220D01*
X28739Y-13289D01*
X28681Y-13350D01*
X28625Y-13400D01*
X28572Y-13439D01*
X28553Y-13453D01*
X28533Y-13467D01*
X28517Y-13475D01*
X28506Y-13483D01*
X28497Y-13486D01*
X28495Y-13489D01*
X28450Y-13511D01*
X28406Y-13528D01*
X28317Y-13558D01*
X28231Y-13578D01*
X28150Y-13594D01*
X28114Y-13597D01*
X28081Y-13603D01*
X28050Y-13606D01*
X28025D01*
X28006Y-13608D01*
X27978D01*
X27900Y-13606D01*
X27825Y-13597D01*
X27756Y-13583D01*
X27695Y-13569D01*
X27670Y-13564D01*
X27645Y-13558D01*
X27623Y-13550D01*
X27603Y-13544D01*
X27589Y-13539D01*
X27578Y-13536D01*
X27573Y-13533D01*
X27570D01*
X27495Y-13503D01*
X27426Y-13467D01*
X27359Y-13428D01*
X27301Y-13392D01*
X27276Y-13375D01*
X27251Y-13358D01*
X27231Y-13345D01*
X27215Y-13333D01*
X27201Y-13322D01*
X27190Y-13314D01*
X27184Y-13311D01*
X27181Y-13308D01*
Y-12595D01*
X27998D01*
Y-12823D01*
X27431D01*
Y-13184D01*
X27465Y-13211D01*
X27503Y-13236D01*
X27545Y-13259D01*
X27584Y-13278D01*
X27617Y-13295D01*
X27648Y-13308D01*
X27659Y-13314D01*
X27664Y-13317D01*
X27670Y-13320D01*
X27673D01*
X27731Y-13339D01*
X27789Y-13356D01*
X27842Y-13367D01*
X27892Y-13372D01*
X27934Y-13378D01*
X27950D01*
X27967Y-13381D01*
X27995D01*
X28064Y-13378D01*
X28131Y-13367D01*
X28192Y-13353D01*
X28247Y-13339D01*
X28292Y-13322D01*
X28311Y-13317D01*
X28325Y-13311D01*
X28339Y-13306D01*
X28347Y-13300D01*
X28353Y-13297D01*
X28356D01*
X28414Y-13261D01*
X28467Y-13222D01*
X28511Y-13181D01*
X28547Y-13139D01*
X28578Y-13100D01*
X28597Y-13070D01*
X28606Y-13059D01*
X28608Y-13050D01*
X28614Y-13045D01*
Y-13042D01*
X28642Y-12973D01*
X28664Y-12900D01*
X28678Y-12828D01*
X28689Y-12759D01*
X28692Y-12728D01*
X28694Y-12700D01*
X28697Y-12673D01*
Y-12651D01*
X28700Y-12634D01*
Y-12620D01*
Y-12612D01*
Y-12609D01*
X28697Y-12531D01*
X28689Y-12462D01*
X28678Y-12395D01*
X28664Y-12337D01*
X28658Y-12312D01*
X28650Y-12290D01*
X28644Y-12270D01*
X28639Y-12254D01*
X28633Y-12240D01*
X28631Y-12231D01*
X28628Y-12226D01*
Y-12223D01*
X28608Y-12184D01*
X28589Y-12148D01*
X28569Y-12115D01*
X28550Y-12087D01*
X28533Y-12065D01*
X28520Y-12045D01*
X28508Y-12034D01*
X28506Y-12031D01*
X28475Y-12001D01*
X28442Y-11973D01*
X28406Y-11951D01*
X28372Y-11929D01*
X28345Y-11915D01*
X28322Y-11901D01*
X28306Y-11895D01*
X28300Y-11893D01*
X28250Y-11873D01*
X28200Y-11859D01*
X28147Y-11851D01*
X28100Y-11843D01*
X28059Y-11840D01*
X28042D01*
X28028Y-11837D01*
X27998D01*
X27945Y-11840D01*
X27895Y-11845D01*
X27850Y-11854D01*
X27812Y-11862D01*
X27778Y-11873D01*
X27753Y-11882D01*
X27739Y-11887D01*
X27734Y-11890D01*
X27692Y-11909D01*
X27656Y-11931D01*
X27623Y-11954D01*
X27598Y-11976D01*
X27578Y-11995D01*
X27562Y-12009D01*
X27553Y-12020D01*
X27551Y-12023D01*
X27526Y-12056D01*
X27506Y-12095D01*
X27487Y-12131D01*
X27470Y-12170D01*
X27459Y-12204D01*
X27451Y-12229D01*
X27448Y-12240D01*
X27445Y-12248D01*
X27442Y-12251D01*
Y-12254D01*
X27212Y-12192D01*
X27231Y-12123D01*
X27256Y-12062D01*
X27281Y-12006D01*
X27304Y-11962D01*
X27326Y-11926D01*
X27342Y-11901D01*
X27353Y-11884D01*
X27359Y-11879D01*
X27398Y-11834D01*
X27440Y-11798D01*
X27484Y-11765D01*
X27526Y-11737D01*
X27564Y-11718D01*
X27595Y-11701D01*
X27606Y-11696D01*
X27614Y-11693D01*
X27620Y-11690D01*
X27623D01*
X27687Y-11668D01*
X27753Y-11651D01*
X27814Y-11637D01*
X27873Y-11629D01*
X27925Y-11623D01*
X27948D01*
X27964Y-11621D01*
X28053D01*
X28103Y-11626D01*
D02*
G37*
G36*
X59751Y-12154D02*
X59809Y-12159D01*
X59865Y-12167D01*
X59909Y-12176D01*
X59948Y-12184D01*
X59976Y-12192D01*
X59987Y-12195D01*
X59995Y-12198D01*
X59998Y-12201D01*
X60001D01*
X60048Y-12220D01*
X60089Y-12245D01*
X60125Y-12267D01*
X60156Y-12290D01*
X60178Y-12312D01*
X60195Y-12328D01*
X60206Y-12340D01*
X60209Y-12342D01*
X60234Y-12378D01*
X60256Y-12417D01*
X60273Y-12456D01*
X60287Y-12492D01*
X60298Y-12528D01*
X60306Y-12553D01*
X60309Y-12564D01*
Y-12573D01*
X60312Y-12576D01*
Y-12578D01*
X60081Y-12609D01*
X60064Y-12559D01*
X60048Y-12514D01*
X60028Y-12478D01*
X60012Y-12451D01*
X59995Y-12428D01*
X59981Y-12415D01*
X59970Y-12406D01*
X59967Y-12403D01*
X59934Y-12384D01*
X59895Y-12370D01*
X59853Y-12359D01*
X59815Y-12353D01*
X59776Y-12348D01*
X59748Y-12345D01*
X59720D01*
X59656Y-12348D01*
X59601Y-12356D01*
X59556Y-12370D01*
X59518Y-12384D01*
X59490Y-12401D01*
X59468Y-12412D01*
X59454Y-12423D01*
X59451Y-12426D01*
X59429Y-12451D01*
X59412Y-12481D01*
X59398Y-12514D01*
X59390Y-12548D01*
X59384Y-12578D01*
X59381Y-12606D01*
Y-12623D01*
Y-12626D01*
Y-12628D01*
Y-12634D01*
Y-12645D01*
Y-12664D01*
X59384Y-12681D01*
Y-12687D01*
Y-12689D01*
X59412Y-12698D01*
X59443Y-12706D01*
X59506Y-12723D01*
X59579Y-12737D01*
X59645Y-12750D01*
X59679Y-12756D01*
X59709Y-12759D01*
X59737Y-12764D01*
X59759Y-12767D01*
X59778Y-12770D01*
X59792D01*
X59803Y-12773D01*
X59806D01*
X59856Y-12778D01*
X59898Y-12787D01*
X59934Y-12792D01*
X59962Y-12798D01*
X59984Y-12800D01*
X60001Y-12806D01*
X60012Y-12809D01*
X60014D01*
X60051Y-12820D01*
X60081Y-12831D01*
X60112Y-12845D01*
X60137Y-12856D01*
X60159Y-12867D01*
X60173Y-12878D01*
X60184Y-12884D01*
X60187Y-12887D01*
X60214Y-12906D01*
X60237Y-12928D01*
X60259Y-12950D01*
X60275Y-12973D01*
X60289Y-12992D01*
X60300Y-13009D01*
X60306Y-13020D01*
X60309Y-13023D01*
X60323Y-13053D01*
X60334Y-13086D01*
X60342Y-13117D01*
X60348Y-13147D01*
X60350Y-13172D01*
X60353Y-13192D01*
Y-13203D01*
Y-13209D01*
X60350Y-13242D01*
X60348Y-13270D01*
X60334Y-13328D01*
X60314Y-13375D01*
X60292Y-13417D01*
X60270Y-13450D01*
X60250Y-13475D01*
X60237Y-13489D01*
X60231Y-13494D01*
X60181Y-13531D01*
X60125Y-13558D01*
X60064Y-13578D01*
X60009Y-13592D01*
X59959Y-13600D01*
X59937Y-13603D01*
X59917D01*
X59901Y-13606D01*
X59878D01*
X59828Y-13603D01*
X59778Y-13597D01*
X59734Y-13592D01*
X59695Y-13583D01*
X59665Y-13575D01*
X59640Y-13567D01*
X59623Y-13564D01*
X59617Y-13561D01*
X59570Y-13542D01*
X59526Y-13517D01*
X59484Y-13489D01*
X59443Y-13464D01*
X59409Y-13439D01*
X59384Y-13420D01*
X59368Y-13406D01*
X59365Y-13400D01*
X59362D01*
X59356Y-13436D01*
X59351Y-13470D01*
X59345Y-13500D01*
X59337Y-13525D01*
X59329Y-13547D01*
X59323Y-13561D01*
X59320Y-13572D01*
X59318Y-13575D01*
X59071D01*
X59084Y-13544D01*
X59098Y-13514D01*
X59109Y-13486D01*
X59115Y-13461D01*
X59123Y-13439D01*
X59126Y-13422D01*
X59129Y-13411D01*
Y-13408D01*
X59132Y-13389D01*
X59134Y-13364D01*
Y-13336D01*
X59137Y-13306D01*
X59140Y-13236D01*
Y-13167D01*
X59143Y-13100D01*
Y-13070D01*
Y-13045D01*
Y-13023D01*
Y-13006D01*
Y-12995D01*
Y-12992D01*
Y-12676D01*
Y-12623D01*
X59145Y-12576D01*
X59148Y-12539D01*
Y-12509D01*
X59151Y-12487D01*
X59154Y-12470D01*
X59157Y-12462D01*
Y-12459D01*
X59165Y-12423D01*
X59176Y-12392D01*
X59187Y-12367D01*
X59201Y-12342D01*
X59212Y-12326D01*
X59220Y-12312D01*
X59226Y-12304D01*
X59229Y-12301D01*
X59251Y-12279D01*
X59276Y-12256D01*
X59304Y-12240D01*
X59332Y-12223D01*
X59356Y-12212D01*
X59376Y-12204D01*
X59390Y-12198D01*
X59395Y-12195D01*
X59440Y-12181D01*
X59487Y-12170D01*
X59534Y-12162D01*
X59581Y-12156D01*
X59623Y-12154D01*
X59654Y-12151D01*
X59684D01*
X59751Y-12154D01*
D02*
G37*
%LPC*%
G36*
X56133Y-12345D02*
X56117D01*
X56083Y-12348D01*
X56053Y-12351D01*
X55994Y-12367D01*
X55945Y-12390D01*
X55903Y-12415D01*
X55870Y-12440D01*
X55845Y-12462D01*
X55831Y-12478D01*
X55825Y-12481D01*
Y-12484D01*
X55800Y-12520D01*
X55778Y-12562D01*
X55764Y-12603D01*
X55750Y-12648D01*
X55742Y-12684D01*
X55736Y-12717D01*
Y-12728D01*
X55734Y-12737D01*
Y-12742D01*
Y-12745D01*
X56514D01*
X56505Y-12681D01*
X56489Y-12623D01*
X56469Y-12573D01*
X56447Y-12534D01*
X56428Y-12501D01*
X56408Y-12476D01*
X56397Y-12462D01*
X56391Y-12456D01*
X56347Y-12420D01*
X56303Y-12392D01*
X56255Y-12373D01*
X56211Y-12359D01*
X56175Y-12351D01*
X56144Y-12348D01*
X56133Y-12345D01*
D02*
G37*
G36*
X71044Y-12687D02*
X70539D01*
X70481Y-12692D01*
X70434Y-12698D01*
X70395Y-12703D01*
X70364Y-12709D01*
X70339Y-12714D01*
X70328Y-12717D01*
X70323Y-12720D01*
X70286Y-12734D01*
X70256Y-12750D01*
X70228Y-12770D01*
X70206Y-12789D01*
X70189Y-12806D01*
X70178Y-12820D01*
X70170Y-12831D01*
X70167Y-12834D01*
X70148Y-12864D01*
X70134Y-12895D01*
X70123Y-12925D01*
X70117Y-12953D01*
X70112Y-12978D01*
X70109Y-13000D01*
Y-13011D01*
Y-13017D01*
X70112Y-13050D01*
X70114Y-13084D01*
X70120Y-13111D01*
X70128Y-13134D01*
X70137Y-13153D01*
X70142Y-13170D01*
X70145Y-13178D01*
X70148Y-13181D01*
X70164Y-13206D01*
X70178Y-13228D01*
X70198Y-13245D01*
X70212Y-13261D01*
X70225Y-13272D01*
X70236Y-13281D01*
X70245Y-13286D01*
X70248Y-13289D01*
X70295Y-13311D01*
X70342Y-13328D01*
X70361Y-13333D01*
X70378Y-13336D01*
X70389Y-13339D01*
X70392D01*
X70414Y-13342D01*
X70439Y-13345D01*
X70497Y-13347D01*
X71044D01*
Y-12687D01*
D02*
G37*
G36*
Y-11882D02*
X70589D01*
X70528Y-11887D01*
X70481Y-11890D01*
X70439Y-11895D01*
X70409Y-11901D01*
X70389Y-11904D01*
X70375Y-11909D01*
X70373D01*
X70342Y-11920D01*
X70314Y-11937D01*
X70292Y-11954D01*
X70273Y-11970D01*
X70259Y-11984D01*
X70248Y-11998D01*
X70242Y-12006D01*
X70239Y-12009D01*
X70223Y-12037D01*
X70212Y-12065D01*
X70203Y-12092D01*
X70198Y-12120D01*
X70195Y-12142D01*
X70192Y-12159D01*
Y-12170D01*
Y-12176D01*
X70195Y-12212D01*
X70200Y-12245D01*
X70209Y-12273D01*
X70217Y-12295D01*
X70225Y-12315D01*
X70234Y-12331D01*
X70239Y-12340D01*
X70242Y-12342D01*
X70261Y-12365D01*
X70286Y-12387D01*
X70311Y-12403D01*
X70334Y-12415D01*
X70356Y-12426D01*
X70373Y-12434D01*
X70384Y-12437D01*
X70389Y-12440D01*
X70420Y-12445D01*
X70459Y-12451D01*
X70497Y-12453D01*
X70536Y-12456D01*
X70572Y-12459D01*
X71044D01*
Y-11882D01*
D02*
G37*
G36*
X65994Y-12345D02*
X65978D01*
X65944Y-12348D01*
X65914Y-12351D01*
X65858Y-12365D01*
X65808Y-12387D01*
X65767Y-12412D01*
X65733Y-12437D01*
X65708Y-12456D01*
X65692Y-12473D01*
X65686Y-12476D01*
Y-12478D01*
X65664Y-12503D01*
X65647Y-12534D01*
X65617Y-12595D01*
X65595Y-12662D01*
X65581Y-12723D01*
X65572Y-12781D01*
X65570Y-12806D01*
Y-12828D01*
X65567Y-12845D01*
Y-12859D01*
Y-12867D01*
Y-12870D01*
Y-12920D01*
X65572Y-12967D01*
X65578Y-13009D01*
X65586Y-13050D01*
X65595Y-13086D01*
X65606Y-13120D01*
X65614Y-13150D01*
X65625Y-13178D01*
X65636Y-13200D01*
X65647Y-13222D01*
X65659Y-13239D01*
X65667Y-13253D01*
X65675Y-13264D01*
X65681Y-13272D01*
X65683Y-13275D01*
X65686Y-13278D01*
X65708Y-13300D01*
X65733Y-13322D01*
X65781Y-13356D01*
X65831Y-13378D01*
X65875Y-13395D01*
X65917Y-13403D01*
X65947Y-13408D01*
X65961Y-13411D01*
X65978D01*
X66011Y-13408D01*
X66042Y-13406D01*
X66100Y-13392D01*
X66150Y-13370D01*
X66192Y-13345D01*
X66225Y-13322D01*
X66250Y-13300D01*
X66266Y-13286D01*
X66269Y-13281D01*
X66272D01*
X66291Y-13253D01*
X66311Y-13225D01*
X66339Y-13161D01*
X66361Y-13095D01*
X66375Y-13028D01*
X66383Y-12970D01*
X66386Y-12945D01*
Y-12923D01*
X66389Y-12903D01*
Y-12889D01*
Y-12881D01*
Y-12878D01*
X66386Y-12831D01*
X66383Y-12784D01*
X66378Y-12742D01*
X66369Y-12703D01*
X66361Y-12667D01*
X66353Y-12634D01*
X66341Y-12606D01*
X66330Y-12578D01*
X66319Y-12556D01*
X66308Y-12534D01*
X66300Y-12517D01*
X66291Y-12503D01*
X66283Y-12492D01*
X66278Y-12484D01*
X66272Y-12481D01*
Y-12478D01*
X66250Y-12456D01*
X66225Y-12434D01*
X66178Y-12401D01*
X66128Y-12378D01*
X66080Y-12362D01*
X66039Y-12351D01*
X66008Y-12348D01*
X65994Y-12345D01*
D02*
G37*
G36*
X61777Y-11882D02*
X61228D01*
X61178Y-11884D01*
X61136Y-11887D01*
X61103Y-11890D01*
X61081Y-11895D01*
X61064Y-11898D01*
X61053Y-11901D01*
X61050D01*
X61014Y-11915D01*
X60983Y-11931D01*
X60956Y-11948D01*
X60931Y-11968D01*
X60914Y-11987D01*
X60900Y-12001D01*
X60892Y-12012D01*
X60889Y-12015D01*
X60870Y-12048D01*
X60853Y-12081D01*
X60842Y-12117D01*
X60836Y-12148D01*
X60831Y-12176D01*
X60828Y-12201D01*
Y-12215D01*
Y-12217D01*
Y-12220D01*
X60833Y-12279D01*
X60845Y-12328D01*
X60861Y-12373D01*
X60881Y-12409D01*
X60900Y-12437D01*
X60917Y-12459D01*
X60928Y-12470D01*
X60933Y-12476D01*
X60953Y-12492D01*
X60978Y-12506D01*
X61031Y-12528D01*
X61089Y-12545D01*
X61147Y-12556D01*
X61200Y-12562D01*
X61222Y-12564D01*
X61242D01*
X61261Y-12567D01*
X61777D01*
Y-11882D01*
D02*
G37*
G36*
X68982Y-12345D02*
X68965D01*
X68932Y-12348D01*
X68901Y-12351D01*
X68846Y-12365D01*
X68796Y-12387D01*
X68754Y-12412D01*
X68721Y-12437D01*
X68696Y-12456D01*
X68679Y-12473D01*
X68673Y-12476D01*
Y-12478D01*
X68651Y-12503D01*
X68635Y-12534D01*
X68604Y-12595D01*
X68582Y-12662D01*
X68568Y-12723D01*
X68560Y-12781D01*
X68557Y-12806D01*
Y-12828D01*
X68554Y-12845D01*
Y-12859D01*
Y-12867D01*
Y-12870D01*
Y-12920D01*
X68560Y-12967D01*
X68565Y-13009D01*
X68574Y-13050D01*
X68582Y-13086D01*
X68593Y-13120D01*
X68601Y-13150D01*
X68612Y-13178D01*
X68624Y-13200D01*
X68635Y-13222D01*
X68646Y-13239D01*
X68654Y-13253D01*
X68662Y-13264D01*
X68668Y-13272D01*
X68671Y-13275D01*
X68673Y-13278D01*
X68696Y-13300D01*
X68721Y-13322D01*
X68768Y-13356D01*
X68818Y-13378D01*
X68862Y-13395D01*
X68904Y-13403D01*
X68934Y-13408D01*
X68948Y-13411D01*
X68965D01*
X68998Y-13408D01*
X69029Y-13406D01*
X69087Y-13392D01*
X69137Y-13370D01*
X69179Y-13345D01*
X69212Y-13322D01*
X69237Y-13300D01*
X69254Y-13286D01*
X69256Y-13281D01*
X69259D01*
X69279Y-13253D01*
X69298Y-13225D01*
X69326Y-13161D01*
X69348Y-13095D01*
X69362Y-13028D01*
X69370Y-12970D01*
X69373Y-12945D01*
Y-12923D01*
X69376Y-12903D01*
Y-12889D01*
Y-12881D01*
Y-12878D01*
X69373Y-12831D01*
X69370Y-12784D01*
X69365Y-12742D01*
X69356Y-12703D01*
X69348Y-12667D01*
X69340Y-12634D01*
X69329Y-12606D01*
X69318Y-12578D01*
X69306Y-12556D01*
X69295Y-12534D01*
X69287Y-12517D01*
X69279Y-12503D01*
X69270Y-12492D01*
X69265Y-12484D01*
X69259Y-12481D01*
Y-12478D01*
X69237Y-12456D01*
X69212Y-12434D01*
X69165Y-12401D01*
X69115Y-12378D01*
X69068Y-12362D01*
X69026Y-12351D01*
X68996Y-12348D01*
X68982Y-12345D01*
D02*
G37*
G36*
X24910Y-11882D02*
X24361D01*
X24311Y-11884D01*
X24269Y-11887D01*
X24236Y-11890D01*
X24214Y-11895D01*
X24197Y-11898D01*
X24186Y-11901D01*
X24183D01*
X24147Y-11915D01*
X24116Y-11931D01*
X24089Y-11948D01*
X24064Y-11968D01*
X24047Y-11987D01*
X24033Y-12001D01*
X24025Y-12012D01*
X24022Y-12015D01*
X24003Y-12048D01*
X23986Y-12081D01*
X23975Y-12117D01*
X23969Y-12148D01*
X23964Y-12176D01*
X23961Y-12201D01*
Y-12215D01*
Y-12217D01*
Y-12220D01*
X23966Y-12279D01*
X23978Y-12328D01*
X23994Y-12373D01*
X24014Y-12409D01*
X24033Y-12437D01*
X24050Y-12459D01*
X24061Y-12470D01*
X24066Y-12476D01*
X24086Y-12492D01*
X24111Y-12506D01*
X24164Y-12528D01*
X24222Y-12545D01*
X24280Y-12556D01*
X24333Y-12562D01*
X24355Y-12564D01*
X24375D01*
X24394Y-12567D01*
X24910D01*
Y-11882D01*
D02*
G37*
G36*
X59384Y-12875D02*
X59381D01*
X59384Y-12964D01*
X59387Y-13020D01*
X59390Y-13067D01*
X59395Y-13106D01*
X59404Y-13139D01*
X59412Y-13164D01*
X59418Y-13184D01*
X59420Y-13195D01*
X59423Y-13197D01*
X59445Y-13234D01*
X59468Y-13267D01*
X59495Y-13295D01*
X59520Y-13317D01*
X59542Y-13336D01*
X59562Y-13350D01*
X59573Y-13358D01*
X59579Y-13361D01*
X59620Y-13381D01*
X59662Y-13395D01*
X59701Y-13406D01*
X59740Y-13411D01*
X59770Y-13417D01*
X59798Y-13420D01*
X59820D01*
X59870Y-13417D01*
X59912Y-13411D01*
X59948Y-13400D01*
X59978Y-13389D01*
X60001Y-13378D01*
X60017Y-13367D01*
X60028Y-13361D01*
X60031Y-13358D01*
X60053Y-13333D01*
X60070Y-13306D01*
X60084Y-13281D01*
X60092Y-13256D01*
X60098Y-13234D01*
X60101Y-13217D01*
Y-13203D01*
Y-13200D01*
X60098Y-13178D01*
X60095Y-13156D01*
X60089Y-13139D01*
X60084Y-13122D01*
X60078Y-13109D01*
X60076Y-13097D01*
X60070Y-13092D01*
Y-13089D01*
X60042Y-13056D01*
X60009Y-13034D01*
X59998Y-13025D01*
X59987Y-13020D01*
X59978Y-13014D01*
X59976D01*
X59948Y-13003D01*
X59917Y-12995D01*
X59884Y-12986D01*
X59851Y-12981D01*
X59820Y-12975D01*
X59792Y-12970D01*
X59776Y-12967D01*
X59770D01*
X59723Y-12959D01*
X59679Y-12953D01*
X59640Y-12945D01*
X59601Y-12936D01*
X59565Y-12928D01*
X59534Y-12920D01*
X59504Y-12914D01*
X59479Y-12906D01*
X59456Y-12900D01*
X59437Y-12895D01*
X59420Y-12889D01*
X59406Y-12884D01*
X59395Y-12881D01*
X59387Y-12878D01*
X59384Y-12875D01*
D02*
G37*
%LPD*%
D10*
X32420Y18465D02*
D03*
X32420Y17065D02*
D03*
X15525Y6225D02*
D03*
X15525Y4825D02*
D03*
X15525Y3275D02*
D03*
X15525Y1875D02*
D03*
X28370Y18465D02*
D03*
X28370Y17065D02*
D03*
X22225Y28425D02*
D03*
X22225Y27025D02*
D03*
X33770Y18465D02*
D03*
X33770Y17065D02*
D03*
X53900Y15825D02*
D03*
X53900Y14425D02*
D03*
X15275Y44500D02*
D03*
X15275Y43100D02*
D03*
X23350Y22675D02*
D03*
X23350Y21275D02*
D03*
X35120Y18465D02*
D03*
X35120Y17065D02*
D03*
X25670Y18465D02*
D03*
X25670Y17065D02*
D03*
X29720Y18465D02*
D03*
X29720Y17065D02*
D03*
X31070Y18465D02*
D03*
X31070Y17065D02*
D03*
X36470Y18465D02*
D03*
X36470Y17065D02*
D03*
X33870Y22240D02*
D03*
X33870Y20840D02*
D03*
X39195Y18465D02*
D03*
X39195Y17065D02*
D03*
X27020Y18465D02*
D03*
X27020Y17065D02*
D03*
X37845Y21215D02*
D03*
X37845Y19815D02*
D03*
X35220Y24990D02*
D03*
X35220Y23590D02*
D03*
X15325Y37100D02*
D03*
X15325Y38500D02*
D03*
D11*
X42945Y27065D02*
D03*
X44345D02*
D03*
X52725Y39575D02*
D03*
X54125D02*
D03*
X52875Y49750D02*
D03*
X54275D02*
D03*
X25445Y24340D02*
D03*
X26845D02*
D03*
X42945Y28565D02*
D03*
X44345D02*
D03*
D12*
X22575Y18450D02*
D03*
X22575Y17050D02*
D03*
X21250Y3850D02*
D03*
X21250Y5250D02*
D03*
X38360Y25640D02*
D03*
X38360Y27040D02*
D03*
X23795Y27015D02*
D03*
X23795Y28415D02*
D03*
X47995Y52965D02*
D03*
X47995Y54365D02*
D03*
X52225Y44525D02*
D03*
X52225Y45925D02*
D03*
X37845Y17065D02*
D03*
X37845Y18465D02*
D03*
X35220Y20840D02*
D03*
X35220Y22240D02*
D03*
X21250Y7500D02*
D03*
X21250Y8900D02*
D03*
X37970Y41140D02*
D03*
X37970Y42540D02*
D03*
X33870Y23590D02*
D03*
X33870Y24990D02*
D03*
X39195Y19815D02*
D03*
X39195Y21215D02*
D03*
X20300Y17050D02*
D03*
X20300Y18450D02*
D03*
X48595Y23490D02*
D03*
X48595Y24890D02*
D03*
X17675Y35825D02*
D03*
X17675Y37225D02*
D03*
X23175Y35825D02*
D03*
X23175Y37225D02*
D03*
D13*
X0Y4000D02*
G03*
X2000Y2000I2000J0D01*
G01*
X2000Y82500D02*
G03*
X0Y80500I0J-2000D01*
G01*
X70000D02*
G03*
X68000Y82500I-2000J0D01*
G01*
X68000Y2000D02*
G03*
X70000Y4000I0J2000D01*
G01*
X11500Y2000D02*
X13500Y0D01*
X46500D01*
X48500Y2000D01*
Y2000D01*
X68000D01*
X2000Y82500D02*
X68000D01*
X2000Y2000D02*
X11500D01*
X0Y4000D02*
Y58000D01*
Y80500D01*
X70000Y4000D02*
Y58000D01*
Y80500D01*
X70000Y80500D02*
X70000Y80500D01*
M02*
