*
*
G04 PADS VX.0 Build Number: 635560 generated Gerber (RS-274-X) file*
G04 PC Version=2.1*
*
%IN "DC2596a-3.pcb"*%
*
%MOIN*%
*
%FSLAX35Y35*%
*
*
*
*
G04 PC Standard Apertures*
*
*
G04 Thermal Relief Aperture macro.*
%AMTER*
1,1,$1,0,0*
1,0,$1-$2,0,0*
21,0,$3,$4,0,0,45*
21,0,$3,$4,0,0,135*
%
*
*
G04 Annular Aperture macro.*
%AMANN*
1,1,$1,0,0*
1,0,$2,0,0*
%
*
*
G04 Odd Aperture macro.*
%AMODD*
1,1,$1,0,0*
1,0,$1-0.005,0,0*
%
*
*
G04 PC Custom Aperture Macros*
*
*
*
*
*
*
G04 PC Aperture Table*
*
%ADD010C,0.005*%
%ADD011C,0.01*%
%ADD081C,0.001*%
%ADD337R,0.03X0.038*%
*
*
*
*
G04 PC Circuitry*
G04 Layer Name DC2596a-3.pcb - circuitry*
%LPD*%
*
*
G04 PC Custom Flashes*
G04 Layer Name DC2596a-3.pcb - flashes*
%LPD*%
*
*
G04 PC Circuitry*
G04 Layer Name DC2596a-3.pcb - circuitry*
%LPD*%
*
G54D10*
G01X100000Y100000D02*
X525000D01*
Y440000*
X100000*
Y100000*
G54D11*
X208500Y59063D02*
Y52500D01*
Y59063D02*
X210091D01*
X210091D02*
X210773Y58750D01*
X211227Y58125*
X211455Y57500*
X211682Y56563*
X211682D02*
Y55000D01*
X211455Y54063*
X211455D02*
X211227Y53438D01*
X211227D02*
X210773Y52813D01*
X210773D02*
X210091Y52500D01*
X208500*
X217136Y57500D02*
X216909Y58125D01*
X216455Y58750*
X216000Y59063*
X216000D02*
X215091D01*
X215091D02*
X214636Y58750D01*
X214182Y58125*
X213955Y57500*
X213727Y56563*
X213727D02*
Y55000D01*
X213955Y54063*
X213955D02*
X214182Y53438D01*
X214182D02*
X214636Y52813D01*
X214636D02*
X215091Y52500D01*
X216000*
X216455Y52813*
X216455D02*
X216909Y53438D01*
X216909D02*
X217136Y54063D01*
X219409Y57500D02*
Y57813D01*
X219409D02*
X219636Y58438D01*
X219636D02*
X219864Y58750D01*
X220318Y59063*
X220318D02*
X221227D01*
X221227D02*
X221682Y58750D01*
X221909Y58438*
X221909D02*
X222136Y57813D01*
X222136D02*
Y57188D01*
X222136D02*
X221909Y56563D01*
X221909D02*
X221455Y55625D01*
X219182Y52500*
X222364*
X227364Y59063D02*
X225091D01*
X225091D02*
X224864Y56250D01*
X225091Y56563*
X225091D02*
X225773Y56875D01*
X226455*
X227136Y56563*
X227136D02*
X227591Y55938D01*
X227591D02*
X227818Y55000D01*
X227591Y54375*
X227364Y53438*
X227364D02*
X226909Y52813D01*
X226909D02*
X226227Y52500D01*
X225545*
X224864Y52813*
X224864D02*
X224636Y53125D01*
X224409Y53750*
X232818Y56875D02*
X232591Y55938D01*
X232591D02*
X232136Y55313D01*
X232136D02*
X231455Y55000D01*
X231227*
X230545Y55313*
X230545D02*
X230091Y55938D01*
X230091D02*
X229864Y56875D01*
Y57188*
X229864D02*
X230091Y58125D01*
X230545Y58750*
X231227Y59063*
X231227D02*
X231455D01*
X231455D02*
X232136Y58750D01*
X232591Y58125*
X232818Y56875*
Y55313*
X232818D02*
X232591Y53750D01*
X232136Y52813*
X232136D02*
X231455Y52500D01*
X231000*
X230318Y52813*
X230318D02*
X230091Y53438D01*
X237591Y58125D02*
X237364Y58750D01*
X236682Y59063*
X236682D02*
X236227D01*
X236227D02*
X235545Y58750D01*
X235091Y57813*
X235091D02*
X234864Y56250D01*
Y54688*
X234864D02*
X235091Y53438D01*
X235091D02*
X235545Y52813D01*
X235545D02*
X236227Y52500D01*
X236455*
X237136Y52813*
X237136D02*
X237591Y53438D01*
X237591D02*
X237818Y54375D01*
Y54688*
X237818D02*
X237591Y55625D01*
X237136Y56250*
X236455Y56563*
X236455D02*
X236227D01*
X236227D02*
X235545Y56250D01*
X235091Y55625*
X234864Y54688*
X241682Y59063D02*
X239864Y52500D01*
X241682Y59063D02*
X243500Y52500D01*
X240545Y54688D02*
X242818D01*
X245545Y55313D02*
X249636D01*
X252136Y59063D02*
X254636D01*
X254636D02*
X253273Y56563D01*
X253273D02*
X253955D01*
X253955D02*
X254409Y56250D01*
X254636Y55938*
X254636D02*
X254864Y55000D01*
Y54375*
X254636Y53438*
X254636D02*
X254182Y52813D01*
X254182D02*
X253500Y52500D01*
X252818*
X252136Y52813*
X252136D02*
X251909Y53125D01*
X251682Y53750*
X257364Y52813D02*
X257136Y52500D01*
X256909Y52813*
X256909D02*
X257136Y53125D01*
X257364Y52813*
X257364D02*
Y52187D01*
X257364D02*
X257136Y51562D01*
X257136D02*
X256909Y51250D01*
X264636Y59063D02*
Y52500D01*
X267364*
X271000Y59063D02*
Y52500D01*
X269409Y59063D02*
X272591D01*
X275773D02*
X275091Y58750D01*
X274864Y58125*
Y57500*
X275091Y56875*
X275545Y56563*
X275545D02*
X276455Y56250D01*
X277136Y55938*
X277136D02*
X277591Y55313D01*
X277591D02*
X277818Y54688D01*
X277818D02*
Y53750D01*
X277591Y53125*
X277364Y52813*
X277364D02*
X276682Y52500D01*
X275773*
X275091Y52813*
X275091D02*
X274864Y53125D01*
X274636Y53750*
Y54688*
X274636D02*
X274864Y55313D01*
X274864D02*
X275318Y55938D01*
X275318D02*
X276000Y56250D01*
X276909Y56563*
X276909D02*
X277364Y56875D01*
X277591Y57500*
Y58125*
X277364Y58750*
X276682Y59063*
X276682D02*
X275773D01*
X283045D02*
X280773Y52500D01*
X279864Y59063D02*
X283045D01*
X286455D02*
X285773Y58750D01*
X285318Y57813*
X285318D02*
X285091Y56250D01*
Y55313*
X285091D02*
X285318Y53750D01*
X285773Y52813*
X285773D02*
X286455Y52500D01*
X286909*
X287591Y52813*
X287591D02*
X288045Y53750D01*
X288273Y55313*
X288273D02*
Y56250D01*
X288045Y57813*
X288045D02*
X287591Y58750D01*
X286909Y59063*
X286909D02*
X286455D01*
X291455D02*
X290773Y58750D01*
X290545Y58125*
Y57500*
X290773Y56875*
X291227Y56563*
X291227D02*
X292136Y56250D01*
X292818Y55938*
X292818D02*
X293273Y55313D01*
X293273D02*
X293500Y54688D01*
X293500D02*
Y53750D01*
X293273Y53125*
X293045Y52813*
X293045D02*
X292364Y52500D01*
X291455*
X290773Y52813*
X290773D02*
X290545Y53125D01*
X290318Y53750*
Y54688*
X290318D02*
X290545Y55313D01*
X290545D02*
X291000Y55938D01*
X291000D02*
X291682Y56250D01*
X292591Y56563*
X292591D02*
X293045Y56875D01*
X293273Y57500*
Y58125*
X293045Y58750*
X292364Y59063*
X292364D02*
X291455D01*
X295545D02*
Y52500D01*
Y59063D02*
X298500D01*
X295545Y55938D02*
X297364D01*
X295545Y52500D02*
X298500D01*
X300545Y59063D02*
Y54375D01*
X300773Y53438*
X300773D02*
X301227Y52813D01*
X301227D02*
X301909Y52500D01*
X302364*
X303045Y52813*
X303045D02*
X303500Y53438D01*
X303500D02*
X303727Y54375D01*
Y59063*
X305773D02*
Y52500D01*
X308955Y59063D02*
Y52500D01*
X305773Y55938D02*
X308955D01*
X314409Y57500D02*
X314182Y58125D01*
X313727Y58750*
X313273Y59063*
X313273D02*
X312364D01*
X312364D02*
X311909Y58750D01*
X311455Y58125*
X311227Y57500*
X311000Y56563*
X311000D02*
Y55000D01*
X311227Y54063*
X311227D02*
X311455Y53438D01*
X311455D02*
X311909Y52813D01*
X311909D02*
X312364Y52500D01*
X313273*
X313727Y52813*
X313727D02*
X314182Y53438D01*
X314182D02*
X314409Y54063D01*
X314409D02*
Y55000D01*
X313273D02*
X314409D01*
X208500Y84063D02*
Y77500D01*
Y84063D02*
X210545D01*
X210545D02*
X211227Y83750D01*
X211455Y83438*
X211455D02*
X211682Y82813D01*
X211682D02*
Y82188D01*
X211682D02*
X211455Y81563D01*
X211455D02*
X211227Y81250D01*
X210545Y80938*
X208500D02*
X210545D01*
X210545D02*
X211227Y80625D01*
X211455Y80313*
X211455D02*
X211682Y79688D01*
X211682D02*
Y78750D01*
X211455Y78125*
X211227Y77813*
X211227D02*
X210545Y77500D01*
X208500*
X215091Y84063D02*
X214636Y83750D01*
X214182Y83125*
X213955Y82500*
X213727Y81563*
X213727D02*
Y80000D01*
X213955Y79063*
X213955D02*
X214182Y78438D01*
X214182D02*
X214636Y77813D01*
X214636D02*
X215091Y77500D01*
X216000*
X216455Y77813*
X216455D02*
X216909Y78438D01*
X216909D02*
X217136Y79063D01*
X217136D02*
X217364Y80000D01*
Y81563*
X217364D02*
X217136Y82500D01*
X216909Y83125*
X216455Y83750*
X216000Y84063*
X216000D02*
X215091D01*
X221000D02*
Y77500D01*
X219409Y84063D02*
X222591D01*
X226227D02*
Y77500D01*
X224636Y84063D02*
X227818D01*
X231227D02*
X230773Y83750D01*
X230318Y83125*
X230091Y82500*
X229864Y81563*
X229864D02*
Y80000D01*
X230091Y79063*
X230091D02*
X230318Y78438D01*
X230318D02*
X230773Y77813D01*
X230773D02*
X231227Y77500D01*
X232136*
X232591Y77813*
X232591D02*
X233045Y78438D01*
X233045D02*
X233273Y79063D01*
X233273D02*
X233500Y80000D01*
Y81563*
X233500D02*
X233273Y82500D01*
X233045Y83125*
X232591Y83750*
X232136Y84063*
X232136D02*
X231227D01*
X235545D02*
Y77500D01*
Y84063D02*
X237364Y77500D01*
X239182Y84063D02*
X237364Y77500D01*
X239182Y84063D02*
Y77500D01*
X249636Y83125D02*
X249182Y83750D01*
X248500Y84063*
X248500D02*
X247591D01*
X247591D02*
X246909Y83750D01*
X246455Y83125*
Y82500*
X246682Y81875*
X246909Y81563*
X246909D02*
X247364Y81250D01*
X248727Y80625*
X249182Y80313*
X249182D02*
X249409Y80000D01*
X249636Y79375*
Y78438*
X249636D02*
X249182Y77813D01*
X249182D02*
X248500Y77500D01*
X247591*
X246909Y77813*
X246909D02*
X246455Y78438D01*
X253045Y84063D02*
X252591Y83750D01*
X252136Y83125*
X251909Y82500*
X251682Y81563*
X251682D02*
Y80000D01*
X251909Y79063*
X251909D02*
X252136Y78438D01*
X252136D02*
X252591Y77813D01*
X252591D02*
X253045Y77500D01*
X253955*
X254409Y77813*
X254409D02*
X254864Y78438D01*
X254864D02*
X255091Y79063D01*
X255091D02*
X255318Y80000D01*
Y81563*
X255318D02*
X255091Y82500D01*
X254864Y83125*
X254409Y83750*
X253955Y84063*
X253955D02*
X253045D01*
X257364D02*
Y77500D01*
X260091*
X262136Y84063D02*
Y77500D01*
Y84063D02*
X263727D01*
X263727D02*
X264409Y83750D01*
X264864Y83125*
X265091Y82500*
X265318Y81563*
X265318D02*
Y80000D01*
X265091Y79063*
X265091D02*
X264864Y78438D01*
X264864D02*
X264409Y77813D01*
X264409D02*
X263727Y77500D01*
X262136*
X267364Y84063D02*
Y77500D01*
Y84063D02*
X270318D01*
X267364Y80938D02*
X269182D01*
X267364Y77500D02*
X270318D01*
X272364Y84063D02*
Y77500D01*
Y84063D02*
X274409D01*
X274409D02*
X275091Y83750D01*
X275318Y83438*
X275318D02*
X275545Y82813D01*
X275545D02*
Y82188D01*
X275545D02*
X275318Y81563D01*
X275318D02*
X275091Y81250D01*
X274409Y80938*
X274409D02*
X272364D01*
X273955D02*
X275545Y77500D01*
X282818Y84063D02*
Y77500D01*
Y84063D02*
X284864D01*
X284864D02*
X285545Y83750D01*
X285773Y83438*
X285773D02*
X286000Y82813D01*
X286000D02*
Y81875D01*
X285773Y81250*
X285545Y80938*
X285545D02*
X284864Y80625D01*
X282818*
X289864Y84063D02*
X288045Y77500D01*
X289864Y84063D02*
X291682Y77500D01*
X288727Y79688D02*
X291000D01*
X296909Y83125D02*
X296455Y83750D01*
X295773Y84063*
X295773D02*
X294864D01*
X294864D02*
X294182Y83750D01*
X293727Y83125*
Y82500*
X293955Y81875*
X294182Y81563*
X294182D02*
X294636Y81250D01*
X296000Y80625*
X296455Y80313*
X296455D02*
X296682Y80000D01*
X296909Y79375*
Y78438*
X296909D02*
X296455Y77813D01*
X296455D02*
X295773Y77500D01*
X294864*
X294182Y77813*
X294182D02*
X293727Y78438D01*
X300545Y84063D02*
Y77500D01*
X298955Y84063D02*
X302136D01*
X304182D02*
Y77500D01*
Y84063D02*
X307136D01*
X304182Y80938D02*
X306000D01*
X304182Y77500D02*
X307136D01*
X323500Y71563D02*
Y65000D01*
Y71563D02*
X325091D01*
X325091D02*
X325773Y71250D01*
X326227Y70625*
X326455Y70000*
X326682Y69063*
X326682D02*
Y67500D01*
X326455Y66563*
X326455D02*
X326227Y65938D01*
X326227D02*
X325773Y65313D01*
X325773D02*
X325091Y65000D01*
X323500*
X330545Y71563D02*
X328727Y65000D01*
X330545Y71563D02*
X332364Y65000D01*
X329409Y67188D02*
X331682D01*
X336000Y71563D02*
Y65000D01*
X334409Y71563D02*
X337591D01*
X339636D02*
Y65000D01*
Y71563D02*
X342591D01*
X339636Y68438D02*
X341455D01*
X339636Y65000D02*
X342591D01*
X344864Y69375D02*
X344636Y69063D01*
X344636D02*
X344864Y68750D01*
X345091Y69063*
X345091D02*
X344864Y69375D01*
Y65625D02*
X344636Y65313D01*
X344636D02*
X344864Y65000D01*
X345091Y65313*
X345091D02*
X344864Y65625D01*
X208500Y71563D02*
Y65000D01*
X211227*
X213273Y71563D02*
Y65000D01*
X215318Y71563D02*
Y65000D01*
Y71563D02*
X218500Y65000D01*
Y71563D02*
Y65000D01*
X220545Y71563D02*
Y65000D01*
Y71563D02*
X223500D01*
X220545Y68438D02*
X222364D01*
X220545Y65000D02*
X223500D01*
X227364Y71563D02*
X225545Y65000D01*
X227364Y71563D02*
X229182Y65000D01*
X226227Y67188D02*
X228500D01*
X231227Y71563D02*
Y65000D01*
Y71563D02*
X233273D01*
X233273D02*
X233955Y71250D01*
X234182Y70938*
X234182D02*
X234409Y70313D01*
X234409D02*
Y69688D01*
X234409D02*
X234182Y69063D01*
X234182D02*
X233955Y68750D01*
X233273Y68438*
X233273D02*
X231227D01*
X232818D02*
X234409Y65000D01*
X243273Y71563D02*
Y65000D01*
X241682Y71563D02*
X244864D01*
X246909D02*
Y65000D01*
Y71563D02*
X249864D01*
X246909Y68438D02*
X248727D01*
X246909Y65000D02*
X249864D01*
X255318Y70000D02*
X255091Y70625D01*
X254636Y71250*
X254182Y71563*
X254182D02*
X253273D01*
X253273D02*
X252818Y71250D01*
X252364Y70625*
X252136Y70000*
X251909Y69063*
X251909D02*
Y67500D01*
X252136Y66563*
X252136D02*
X252364Y65938D01*
X252364D02*
X252818Y65313D01*
X252818D02*
X253273Y65000D01*
X254182*
X254636Y65313*
X254636D02*
X255091Y65938D01*
X255091D02*
X255318Y66563D01*
X257364Y71563D02*
Y65000D01*
X260545Y71563D02*
Y65000D01*
X257364Y68438D02*
X260545D01*
X262591Y71563D02*
Y65000D01*
Y71563D02*
X265773Y65000D01*
Y71563D02*
Y65000D01*
X269182Y71563D02*
X268727Y71250D01*
X268273Y70625*
X268045Y70000*
X267818Y69063*
X267818D02*
Y67500D01*
X268045Y66563*
X268045D02*
X268273Y65938D01*
X268273D02*
X268727Y65313D01*
X268727D02*
X269182Y65000D01*
X270091*
X270545Y65313*
X270545D02*
X271000Y65938D01*
X271000D02*
X271227Y66563D01*
X271227D02*
X271455Y67500D01*
Y69063*
X271455D02*
X271227Y70000D01*
X271000Y70625*
X270545Y71250*
X270091Y71563*
X270091D02*
X269182D01*
X273500D02*
Y65000D01*
X276227*
X279636Y71563D02*
X279182Y71250D01*
X278727Y70625*
X278500Y70000*
X278273Y69063*
X278273D02*
Y67500D01*
X278500Y66563*
X278500D02*
X278727Y65938D01*
X278727D02*
X279182Y65313D01*
X279182D02*
X279636Y65000D01*
X280545*
X281000Y65313*
X281000D02*
X281455Y65938D01*
X281455D02*
X281682Y66563D01*
X281682D02*
X281909Y67500D01*
Y69063*
X281909D02*
X281682Y70000D01*
X281455Y70625*
X281000Y71250*
X280545Y71563*
X280545D02*
X279636D01*
X287364Y70000D02*
X287136Y70625D01*
X286682Y71250*
X286227Y71563*
X286227D02*
X285318D01*
X285318D02*
X284864Y71250D01*
X284409Y70625*
X284182Y70000*
X283955Y69063*
X283955D02*
Y67500D01*
X284182Y66563*
X284182D02*
X284409Y65938D01*
X284409D02*
X284864Y65313D01*
X284864D02*
X285318Y65000D01*
X286227*
X286682Y65313*
X286682D02*
X287136Y65938D01*
X287136D02*
X287364Y66563D01*
X287364D02*
Y67500D01*
X286227D02*
X287364D01*
X289409Y71563D02*
X291227Y68438D01*
X291227D02*
Y65000D01*
X293045Y71563D02*
X291227Y68438D01*
X354182Y71563D02*
X351909Y65000D01*
X351000Y71563D02*
X354182D01*
X356227Y67813D02*
X360318D01*
X365091Y70625D02*
X364864Y71250D01*
X364182Y71563*
X364182D02*
X363727D01*
X363727D02*
X363045Y71250D01*
X362591Y70313*
X362591D02*
X362364Y68750D01*
Y67188*
X362364D02*
X362591Y65938D01*
X362591D02*
X363045Y65313D01*
X363045D02*
X363727Y65000D01*
X363955*
X364636Y65313*
X364636D02*
X365091Y65938D01*
X365091D02*
X365318Y66875D01*
Y67188*
X365318D02*
X365091Y68125D01*
X364636Y68750*
X363955Y69063*
X363955D02*
X363727D01*
X363727D02*
X363045Y68750D01*
X362591Y68125*
X362364Y67188*
X367364Y67813D02*
X371455D01*
X373500Y70313D02*
X373955Y70625D01*
X374636Y71563*
X374636D02*
Y65000D01*
X379864Y71563D02*
X377591Y65000D01*
X376682Y71563D02*
X379864D01*
G54D81*
G54D337*
X306500Y281350D03*
Y287650D03*
X0Y0D02*
M02*
