%
T1C.006F0S0
X02725Y0153
X02905Y01755
X02925Y01755
X02945Y01755
X02965Y0172
X02985Y01735
X0306Y01841
X0306Y018
X0308Y0182
X0319Y01595
X03295Y01855
X03295Y01875
X0316Y02105
X03075Y0196
X03075Y02
X03075Y0192
X0306Y0202
X0306Y0198
X0306Y0194
X0303Y02105
X02985Y0212
X02945Y02115
X02885Y02115
X02815Y0197
X0281Y0193
X02805Y0204
X02805Y0199
X0273Y02015
X0279Y02255
X0287Y02255
X02945Y0224
X0302Y02255
T2C.01F095S3
X0153Y0144
X0153Y0151
X0153Y01475
X0164Y0131
X017Y014
X01725Y01275
X01725Y014
X0185Y0163
X0191Y01525
X01945Y0118
X02005Y0127
X0208Y01135
X02105Y0152
X0213Y0141
X0218Y0153
X0223Y01515
X0231Y01475
X0234Y01325
X0234Y01575
X02375Y0158
X0241Y014
X0249Y014
X0249Y0161
X02555Y0158
X02585Y014
X02615Y01485
X0264Y0157
X02695Y0156
X0275Y0141
X0276Y01575
X02775Y01502
X028Y0141
X02865Y014
X0293Y01575
X02935Y01505
X03Y01615
X03025Y01535
X03095Y0157
X0312Y0132
X0313Y01535
X0318Y01535
X03305Y0132
X03345Y0154
X034Y0154
X03415Y016
X0342Y01385
X03455Y0154
X0349Y01445
X03975Y01425
X04285Y0148
X04345Y01625
X04405Y0155
X0443Y01525
X0369Y01665
X03635Y01635
X0346Y018
X0346Y01845
X0334Y018
X03335Y01835
X03305Y018
X03195Y01645
X0315Y0172
X0298Y01825
X0298Y01855
X0295Y01855
X0295Y01825
X0292Y01855
X0292Y01825
X0289Y01655
X0289Y01855
X0289Y01825
X028Y01735
X02665Y0173
X0265Y01805
X02585Y0188
X02565Y01695
X02495Y0171
X02485Y01805
X0243Y01665
X02375Y0172
X0231Y01705
X0225Y0178
X0225Y01705
X02105Y01755
X01895Y0177
X01895Y01735
X01895Y01805
X01865Y01805
X01865Y01735
X01865Y0177
X01835Y01735
X01835Y0177
X01835Y01805
X01805Y01805
X01805Y0177
X01805Y01735
X01775Y01805
X01775Y01735
X01775Y0177
X01665Y0174
X01665Y0206
X0171Y0206
X01755Y0206
X018Y0206
X01845Y0206
X01975Y01895
X0215Y01945
X0215Y01975
X0215Y02005
X0231Y0189
X0234Y01975
X0245Y02065
X02575Y01945
X02645Y0208
X0265Y01945
X02795Y019
X02825Y02125
X0289Y02035
X0289Y01885
X0289Y01945
X0289Y01975
X0289Y01915
X0289Y02005
X0292Y02005
X0292Y02035
X0292Y01975
X0292Y01885
X0292Y01915
X0292Y01945
X0295Y02035
X0295Y01885
X0295Y01915
X0295Y01975
X0295Y01945
X0295Y02005
X0298Y02005
X0298Y01885
X0298Y01945
X0298Y01915
X0298Y01975
X0298Y02035
X031948Y020002
X0321Y0213
X0327Y0213
X0327Y02
X03305Y01935
X0334Y01965
X03435Y02035
X0346Y0189
X0353Y02005
X0353Y02125
X0353Y02065
X0353Y02185
X03435Y02155
X03295Y0221
X0317Y02305
X0313Y0224
X03085Y02235
X0306Y02375
X0302Y02375
X0301Y02205
X0298Y02195
X0297Y02375
X02925Y02375
X0287Y02375
X02835Y02375
X0279Y02375
X0276Y02375
X0275Y02145
X02595Y02245
X0244Y0218
X02135Y022
X02135Y0229
X01635Y0219
X01635Y023
X01575Y0219
X01575Y023
X01515Y023
X01515Y0219
X02355Y0287
X02355Y0284
X02355Y0281
X02355Y0278
X02355Y0275
X02385Y0287
X02385Y0284
X02385Y0281
X02385Y0278
X02385Y0275
X02415Y0284
X02415Y0281
X02415Y0278
X02415Y0287
X02415Y0275
X02445Y0284
X02445Y0281
X02445Y0278
X02445Y0287
X02445Y0275
X02475Y0284
X02475Y0281
X02475Y0278
X02475Y0287
X02475Y0275
X0259Y0275
X0259Y0278
X0259Y0281
X0259Y0284
X0259Y0287
X0262Y0275
X0262Y0278
X0262Y0281
X0262Y0284
X0262Y0287
X0265Y0278
X0265Y0275
X0265Y0281
X0265Y0284
X0265Y0287
X0268Y0284
X0268Y0275
X0268Y0278
X0268Y0281
X0268Y0287
X0271Y0281
X0271Y0278
X0271Y0275
X0271Y0284
X0271Y0287
X03055Y02575
X03075Y02775
X03095Y0257
X03185Y0258
X0271Y03125
X0271Y03095
X0271Y03065
X0271Y03035
X02705Y03
X0268Y03125
X0268Y03095
X0268Y03065
X0268Y03035
X0265Y03125
X0265Y03095
X0265Y03065
X0265Y03035
X0262Y03125
X0262Y03095
X0262Y03065
X0262Y03035
X0259Y03125
X0259Y03095
X0259Y03065
X0259Y03035
X025525Y0294
X02475Y03065
X02475Y03035
X02475Y03095
X02475Y03125
X02445Y03065
X02445Y03035
X02445Y03095
X02445Y03125
X02415Y03065
X02415Y03035
X02415Y03125
X02415Y03095
X02385Y03125
X02385Y03065
X02385Y03035
X02385Y03095
X02355Y03095
X02355Y03065
X02355Y03035
X02355Y03125
X02315Y0293
X02315Y03235
X02355Y03155
X02355Y03585
X02355Y03555
X02355Y03525
X02355Y03495
X02355Y03465
X02385Y03155
X02385Y03585
X02385Y03555
X02385Y03525
X02385Y03495
X02385Y03465
X02415Y03155
X02415Y03585
X02415Y03555
X02415Y03525
X02415Y03495
X02415Y03465
X02445Y03585
X02445Y03555
X02445Y03155
X02445Y03525
X02445Y03495
X02445Y03465
X02475Y03555
X02475Y03525
X02475Y03585
X02475Y03155
X02475Y03495
X02475Y03465
X0251Y03385
X02555Y03235
X0259Y03155
X0259Y03465
X0259Y03495
X0259Y03525
X0259Y03555
X0259Y03585
X0262Y03465
X0262Y03495
X0262Y03525
X0262Y03155
X0262Y03555
X0262Y03585
X0265Y03495
X0265Y03155
X0265Y03525
X0265Y03465
X0265Y03555
X0265Y03585
X0268Y03155
X0268Y03525
X0268Y03495
X0268Y03555
X0268Y03585
X0268Y03465
X0271Y03465
X0271Y03155
X0271Y03555
X0271Y03585
X0271Y03525
X0271Y03495
X027475Y03385
X02985Y03305
X03035Y03305
X0317Y03845
X02745Y0368
X0271Y0387
X0271Y0384
X0271Y0381
X0271Y0378
X0268Y0387
X0268Y0384
X0268Y0381
X0268Y0378
X0265Y0387
X0265Y0384
X0265Y0381
X0265Y0378
X02625Y0365
X0262Y0387
X0262Y0384
X0262Y0381
X0262Y0378
X0259Y0387
X0259Y0384
X0259Y0381
X0259Y0378
X0251Y0369
X02475Y0378
X02475Y0387
X02475Y0381
X02475Y0384
X02445Y0381
X02445Y0378
X02445Y0384
X02445Y0387
X02415Y0384
X02415Y0378
X02415Y0381
X02415Y0387
X02385Y0381
X02385Y0387
X02385Y0384
X02385Y0378
X02355Y0381
X02355Y0387
X02355Y0384
X02355Y0378
X02355Y039
X02385Y039
X02415Y039
X02445Y039
X02475Y039
X0259Y039
X0262Y039
X0265Y039
X0268Y039
X0271Y039
X0295Y0394
X0295Y0399
T3C.015F095S3
X0402Y01895
X0402Y0194
X0402Y01985
X0412Y01895
X0412Y01985
X0412Y0194
X04995Y02345
X04995Y02245
X0494Y02345
X0494Y02245
X0489Y02345
X0489Y02245
X0412Y028
X0412Y02845
X0402Y02845
X0402Y028
X02265Y02775
X02265Y02725
X02265Y02875
X02265Y02825
X0224Y0285
X0224Y0275
X0224Y028
X02215Y02825
X02215Y02775
X02215Y02725
X02215Y02875
X0219Y0285
X0219Y0275
X0219Y028
X02165Y02775
X02165Y02825
X02165Y02725
X02165Y02875
X0214Y0275
X0214Y028
X0214Y0285
X02115Y02775
X02115Y02875
X02115Y02825
X02115Y02725
X02115Y0299
X02115Y0294
X0214Y02965
X02165Y0294
X02165Y0299
X0219Y02965
X02215Y0299
X02215Y0294
X0224Y02965
X02265Y0294
X02265Y0299
X0288Y02975
X0288Y0294
X0293Y0294
X0293Y02975
X0298Y02975
X0298Y0294
X0317Y0294
X0317Y02975
X0322Y02975
X0322Y0294
X0327Y0294
X0327Y02975
X0402Y03125
X0402Y0308
X0402Y0289
X0412Y0289
X0412Y0308
X0412Y03125
X04995Y0328
X04995Y0338
X0494Y0328
X0494Y0338
X0489Y0328
X0489Y0338
X0412Y0317
X0402Y0317
X02265Y03235
X02265Y03285
X02265Y03345
X0224Y0326
X0224Y0337
X02215Y03345
X02215Y03285
X02215Y03235
X0219Y0337
X0219Y0326
X02165Y03285
X02165Y03345
X02165Y03235
X0214Y0326
X0214Y0337
X02115Y03345
X02115Y03285
X02115Y03235
X02115Y03395
X02115Y0376
X02115Y0381
X02115Y0386
X02115Y037
X02115Y0365
X0214Y03675
X0214Y03835
X0214Y03785
X02165Y0376
X02165Y0381
X02165Y0386
X02165Y03395
X02165Y037
X02165Y0365
X0219Y03675
X0219Y03835
X0219Y03785
X02215Y0381
X02215Y0386
X02215Y037
X02215Y0376
X02215Y0365
X02215Y03395
X0224Y03675
X0224Y03835
X0224Y03785
X02265Y037
X02265Y0381
X02265Y0376
X02265Y0386
X02265Y0365
X02265Y03395
X0288Y03665
X0288Y0363
X02925Y03665
X02925Y0363
X02975Y0363
X02975Y03665
X0318Y03485
X0318Y0345
X03225Y03485
X03225Y0345
X03275Y03485
X03275Y0345
X0412Y03975
X0412Y04065
X0412Y0402
X0402Y04065
X0402Y03975
X0402Y0402
X02265Y0391
X0224Y03885
X02215Y0391
X0219Y03885
X02165Y0391
X0214Y03885
X02115Y0391
T4C.035F197S55
X023Y0115
X023Y0125
X024Y0115
X024Y0125
X025Y0115
X025Y0125
X026Y0115
X026Y0125
X027Y0115
X027Y0125
X028Y0115
X028Y0125
X029Y0115
X029Y0125
X03Y0115
X03Y0125
X031Y0115
X031Y0125
X032Y0115
X032Y0125
X033Y0115
X033Y0125
X034Y0115
X034Y0125
X035Y0115
X035Y0125
X03875Y0115
X03875Y0125
X03975Y0115
X03975Y0125
X04075Y0115
X04075Y0125
X04175Y0115
X04175Y0125
X04275Y0115
X04275Y0125
X04375Y0115
X04375Y0125
X04475Y0115
X04475Y0125
X04575Y0115
X04575Y0125
X04175Y01525
X04175Y01625
X04075Y01525
X04075Y01625
X03975Y01525
X03975Y01625
X03875Y01525
X03875Y01625
T5C.05906F107S55
X05127Y020101
X05127Y025809
X05127Y030501
X05127Y036209
T6C.07F081S55
X01595Y043
X05195Y01435
T7C.07087F081S55
X04505Y0214
X04505Y02451
X04505Y0318
X04505Y03491
T8C.126F035S794
X0205Y02575
X0325Y033
X0205Y041
T9C.187F035S1033
X01425Y01175
X05075Y01175
X05075Y04225
X01425Y04225
T10C.195F035S1033
X04845Y01765
X0485Y02815
X04845Y03855
M30
