*
*
G04 PADS VX.0 Build Number: 635560 generated Gerber (RS-274-X) file*
G04 PC Version=2.1*
*
%IN "DC2596a-3.pcb"*%
*
%MOIN*%
*
%FSLAX35Y35*%
*
*
*
*
G04 PC Standard Apertures*
*
*
G04 Thermal Relief Aperture macro.*
%AMTER*
1,1,$1,0,0*
1,0,$1-$2,0,0*
21,0,$3,$4,0,0,45*
21,0,$3,$4,0,0,135*
%
*
*
G04 Annular Aperture macro.*
%AMANN*
1,1,$1,0,0*
1,0,$2,0,0*
%
*
*
G04 Odd Aperture macro.*
%AMODD*
1,1,$1,0,0*
1,0,$1-0.005,0,0*
%
*
*
G04 PC Custom Aperture Macros*
*
*
*
*
*
*
G04 PC Aperture Table*
*
%ADD010C,0.005*%
%ADD011C,0.01*%
%ADD024C,0.02*%
%ADD026C,0.03*%
%ADD046C,0.012*%
%ADD077C,0.022*%
%ADD081C,0.001*%
%ADD105C,0.065*%
%ADD228C,0.11*%
%ADD243C,0.5*%
%ADD336C,0.055*%
*
*
*
*
G04 PC Circuitry*
G04 Layer Name DC2596a-3.pcb - circuitry*
%LPD*%
*
*
G04 PC Custom Flashes*
G04 Layer Name DC2596a-3.pcb - flashes*
%LPD*%
*
*
G04 PC Circuitry*
G04 Layer Name DC2596a-3.pcb - circuitry*
%LPD*%
*
G54D10*
G01X214250Y257500D02*
G75*
G03X214250I-9250J0D01*
G01Y410000D02*
G03X214250I-9250J0D01*
G01X510950Y176500D02*
G03X510950I-26450J0D01*
G01X519076Y201008D02*
G03X519076I-6371J0D01*
G01Y258094D02*
G03X519076I-6371J0D01*
G01Y305008D02*
G03X519076I-6371J0D01*
G01Y362094D02*
G03X519076I-6371J0D01*
G01X510950Y385500D02*
G03X510950I-26450J0D01*
G01X457450Y245102D02*
G03X457450I-6950J0D01*
G01Y349102D02*
G03X457450I-6950J0D01*
G01X334250Y330000D02*
G03X334250I-9250J0D01*
G01X319550Y384500D02*
G03X319550I-2550J0D01*
G01X197050Y118000D02*
G03X197050I-2550J0D01*
G01X213050Y152000D02*
G03X213050I-2550J0D01*
G01X187550Y163000D02*
G03X187550I-2550J0D01*
G01X182550Y206000D02*
G03X182550I-2550J0D01*
G01X462200Y125000D02*
G03X462200I-4700J0D01*
G01X452200Y115000D02*
G03X452200I-4700J0D01*
G01Y125000D02*
G03X452200I-4700J0D01*
G01X442200D02*
G03X442200I-4700J0D01*
G01X432200Y115000D02*
G03X432200I-4700J0D01*
G01Y125000D02*
G03X432200I-4700J0D01*
G01X422200Y115000D02*
G03X422200I-4700J0D01*
G01Y125000D02*
G03X422200I-4700J0D01*
G01X412200Y115000D02*
G03X412200I-4700J0D01*
G01Y125000D02*
G03X412200I-4700J0D01*
G01X402200D02*
G03X402200I-4700J0D01*
G01X392200Y115000D02*
G03X392200I-4700J0D01*
G01Y125000D02*
G03X392200I-4700J0D01*
G01X354200Y115000D02*
G03X354200I-4200J0D01*
G01Y125000D02*
G03X354200I-4200J0D01*
G01X344200Y115000D02*
G03X344200I-4200J0D01*
G01Y125000D02*
G03X344200I-4200J0D01*
G01X324200Y115000D02*
G03X324200I-4200J0D01*
G01Y125000D02*
G03X324200I-4200J0D01*
G01X314200Y115000D02*
G03X314200I-4200J0D01*
G01Y125000D02*
G03X314200I-4200J0D01*
G01X304200Y115000D02*
G03X304200I-4200J0D01*
G01X274200D02*
G03X274200I-4200J0D01*
G01Y125000D02*
G03X274200I-4200J0D01*
G01X264200Y115000D02*
G03X264200I-4200J0D01*
G01X254200D02*
G03X254200I-4200J0D01*
G01Y125000D02*
G03X254200I-4200J0D01*
G01X244200Y115000D02*
G03X244200I-4200J0D01*
G01Y125000D02*
G03X244200I-4200J0D01*
G01X294200Y115000D02*
G03X294200I-4200J0D01*
G01Y125000D02*
G03X294200I-4200J0D01*
G01X284200Y115000D02*
G03X284200I-4200J0D01*
G01X422200Y162500D02*
G03X422200I-4700J0D01*
G01X412200Y152500D02*
G03X412200I-4700J0D01*
G01X392200Y162500D02*
G03X392200I-4700J0D01*
G01X261050Y188000D02*
G03X261050I-2550J0D01*
G01X274250Y341001D02*
Y364785D01*
X273268Y365768*
X272176Y369050D02*
G03X273268Y365768I2324J-1050D01*
G01X272176Y369050D02*
X254515D01*
X253232Y367768*
X249768Y371232D02*
G03X253232Y367768I1232J-2232D01*
G01X249768Y371232D02*
X250585Y372050D01*
X105250*
Y331750*
X273285*
X268985Y336050*
X251707*
Y340950D02*
G03Y336050I-707J-2450D01*
G01Y340950D02*
X270000D01*
X271732Y340232D02*
G03X270000Y340950I-1732J-1732D01*
G01X271732Y340232D02*
X272423Y339542D01*
X274250Y341001D02*
G03X272423Y339542I500J-2501D01*
G01X274250Y325937D02*
Y329750D01*
X105250*
Y291750*
X229277*
X232207Y295450D02*
G03X229277Y291750I-707J-2450D01*
G01X232207Y295450D02*
X234000D01*
X235732Y294732D02*
G03X234000Y295450I-1732J-1732D01*
G01X235732Y294732D02*
X237515Y292950D01*
X252926*
X255957Y296450D02*
G03X252926Y292950I-707J-2450D01*
G01X255957Y296450D02*
X272613D01*
X272550Y297000D02*
G03X272613Y296450I2450J0D01*
G01X272550Y297000D02*
Y316485D01*
X271985Y317050*
X235500*
X233768Y317768D02*
G03X235500Y317050I1732J1732D01*
G01X233768Y317768D02*
X230268Y321268D01*
X233732Y324732D02*
G03X230268Y321268I-2232J-1232D01*
G01X233732Y324732D02*
X236515Y321950D01*
X253475*
X256207Y325950D02*
G03X253475Y321950I-707J-2450D01*
G01X256207Y325950D02*
X274000D01*
X274250Y325937D02*
G03X274000Y325950I-250J-2437D01*
G01X273550Y242750D02*
Y285985D01*
X271485Y288050*
X236500*
X234768Y288768D02*
G03X236500Y288050I1732J1732D01*
G01X234768Y288768D02*
X234285Y289250D01*
X105250*
Y242750*
X273550*
X274250Y373950D02*
Y434750D01*
X162172*
X155797Y426001D02*
G03X162172Y434750I3703J3999D01*
G01X136255D02*
G03X155797Y426001I6245J-12250D01*
G01X136255Y434750D02*
X105250D01*
Y373950*
X274250*
X519750Y148944D02*
Y416255D01*
X501255Y434750D02*
G03X519750Y416255I6245J-12250D01*
G01X501255Y434750D02*
X275950D01*
Y373950*
X277500*
X279232Y373232D02*
G03X277500Y373950I-1732J-1732D01*
G01X279232Y373232D02*
X284732Y367732D01*
X285450Y366000D02*
G03X284732Y367732I-2450J0D01*
G01X285450Y366000D02*
Y362515D01*
X313732Y334232*
X314450Y332500D02*
G03X313732Y334232I-2450J0D01*
G01X314450Y332500D02*
Y287015D01*
X315732Y285732*
X316450Y284000D02*
G03X315732Y285732I-2450J0D01*
G01X316450Y284000D02*
Y259517D01*
Y256483D02*
G03Y259517I2050J1517D01*
G01Y256483D02*
Y245500D01*
X315732Y243768D02*
G03X316450Y245500I-1732J1732D01*
G01X315732Y243768D02*
X308415Y236450D01*
X314500*
X316232Y235732D02*
G03X314500Y236450I-1732J-1732D01*
G01X316232Y235732D02*
X318732Y233232D01*
X319450Y231500D02*
G03X318732Y233232I-2450J0D01*
G01X319450Y231500D02*
X353104D01*
X353280Y231427D02*
G03X353104Y231500I-176J-177D01*
G01X353280Y231427D02*
X381927Y202780D01*
X382000Y202604D02*
G03X381927Y202780I-250J-0D01*
G01X382000Y202604D02*
Y200758D01*
X407258Y175500*
X430104*
X430280Y175427D02*
G03X430104Y175500I-176J-177D01*
G01X430280Y175427D02*
X465427Y140280D01*
X465500Y140104D02*
G03X465427Y140280I-250J-0D01*
G01X465500Y140104D02*
Y105250D01*
X501255*
X519750Y123745D02*
G03X501255Y105250I-12250J-6245D01*
G01X519750Y123745D02*
Y138056D01*
Y148944D02*
G03Y138056I-250J-5444D01*
G01X263192Y162950D02*
X268792Y168550D01*
X268308*
X264879Y165121*
X263500Y164550D02*
G03X264879Y165121I0J1950D01*
G01X263500Y164550D02*
X245430D01*
X244221Y164261*
Y168739D02*
G03Y164261I-1221J-2239D01*
G01Y168739D02*
X245430Y168450D01*
X249485*
Y173550D02*
G03Y168450I15J-2550D01*
G01Y173550D02*
X215500D01*
Y163450*
X241500*
X242784Y162968D02*
G03X241500Y163450I-1284J-1468D01*
G01X242784Y162968D02*
X246233Y159950D01*
X246676*
X250221Y163239D02*
G03X246676Y159950I-1221J-2239D01*
G01X250221Y163239D02*
X251430Y162950D01*
X263192*
X268192Y147450D02*
X271811Y151069D01*
X270503Y152538D02*
G03X271811Y151069I1997J462D01*
G01X270503Y152538D02*
X267732Y149768D01*
X266000Y149050D02*
G03X267732Y149768I0J2450D01*
G01X266000Y149050D02*
X233025D01*
X233541Y147717D02*
G03X233025Y149050I-2541J-217D01*
G01X233541Y147717D02*
X233808Y147450D01*
X268192*
X262692Y168450D02*
X265107Y170864D01*
X264010Y173550D02*
G03X265107Y170864I2490J-550D01*
G01X264010Y173550D02*
X249515D01*
Y168450D02*
G03Y173550I-15J2550D01*
G01Y168450D02*
X254176D01*
X258824D02*
G03X254176I-2324J1050D01*
G01X258824D02*
X262692D01*
X289035Y231500D02*
X289085Y231550D01*
X219015*
X216009Y228544*
X211063Y229750D02*
G03X216009Y228544I2437J-750D01*
G01X211768Y231232D02*
G03X211063Y229750I1732J-1732D01*
G01X211768Y231232D02*
X216268Y235732D01*
X218000Y236450D02*
G03X216268Y235732I0J-2450D01*
G01X218000Y236450D02*
X273676D01*
X273550Y238207D02*
G03X273676Y236450I2450J-707D01*
G01X273550Y238207D02*
Y241050D01*
X105250*
Y105250*
X136255*
X148745D02*
G03X136255I-6245J12250D01*
G01X148745D02*
X213500D01*
Y127242*
X211879Y125621*
X210500Y125050D02*
G03X211879Y125621I0J1950D01*
G01X210500Y125050D02*
X202930D01*
X201721Y124761*
Y129239D02*
G03Y124761I-1221J-2239D01*
G01Y129239D02*
X202930Y128950D01*
X209692*
X213500Y132758*
Y138499*
Y143501D02*
G03Y138499I-500J-2501D01*
G01Y143501D02*
Y145742D01*
X197379Y129621*
X196000Y129050D02*
G03X197379Y129621I0J1950D01*
G01X196000Y129050D02*
X166430D01*
X165221Y128761*
Y133239D02*
G03Y128761I-1221J-2239D01*
G01Y133239D02*
X166430Y132950D01*
X195192*
X213500Y151258*
Y159550*
X210000*
X208621Y160121D02*
G03X210000Y159550I1379J1379D01*
G01X208621Y160121D02*
X196121Y172621D01*
X195550Y174000D02*
G03X196121Y172621I1950J0D01*
G01X195550Y174000D02*
Y187070D01*
X195261Y188279*
X199739D02*
G03X195261I-2239J1221D01*
G01X199739D02*
X199450Y187070D01*
Y174808*
X210808Y163450*
X213500*
Y173550*
X212930*
X211721Y173261*
Y177739D02*
G03Y173261I-1221J-2239D01*
G01Y177739D02*
X212930Y177450D01*
X213500*
Y190104*
X213573Y190280D02*
G03X213500Y190104I177J-176D01*
G01X213573Y190280D02*
X241455Y218162D01*
X243838Y220545D02*
G03X241455Y218162I162J-2545D01*
G01X243838Y220545D02*
X245343Y222050D01*
X220515*
X217232Y218768*
X215500Y218050D02*
G03X217232Y218768I0J2450D01*
G01X215500Y218050D02*
X215143D01*
X212268Y222232D02*
G03X215143Y218050I1232J-2232D01*
G01X214000Y222950D02*
G03X212268Y222232I0J-2450D01*
G01X214000Y222950D02*
X214485D01*
X217768Y226232*
X219500Y226950D02*
G03X217768Y226232I0J-2450D01*
G01X219500Y226950D02*
X250243D01*
X254720Y231427*
X254896Y231500D02*
G03X254720Y231427I0J-250D01*
G01X254896Y231500D02*
X289035D01*
X302550Y219515D02*
Y223113D01*
X300268Y223768D02*
G03X302550Y223113I1732J1732D01*
G01X300268Y223768D02*
X299485Y224550D01*
X296887*
X296950Y224000D02*
G03X296887Y224550I-2450J0D01*
G01X296950Y224000D02*
Y221824D01*
Y217176D02*
G03Y221824I1050J2324D01*
G01Y217176D02*
Y213915D01*
X302550Y219515*
X299550Y290015D02*
Y305485D01*
X275950Y329085*
Y325015*
X279732Y321232*
X280450Y319500D02*
G03X279732Y321232I-2450J0D01*
G01X280450Y319500D02*
Y299515D01*
X288732Y291232*
X289450Y289500D02*
G03X288732Y291232I-2450J0D01*
G01X289450Y289500D02*
Y238207D01*
X289324Y236450D02*
G03X289450Y238207I-2324J1050D01*
G01X289324Y236450D02*
X290176D01*
X290050Y238207D02*
G03X290176Y236450I2450J-707D01*
G01X290050Y238207D02*
Y279500D01*
X290768Y281232D02*
G03X290050Y279500I1732J-1732D01*
G01X290768Y281232D02*
X299550Y290015D01*
X280692Y155450D02*
X284792Y159550D01*
X269308*
X267097Y157339*
X266446Y156280*
X264690Y154545D02*
G03X266446Y156280I-690J2455D01*
G01X264690Y154545D02*
X263761Y154003D01*
X263708Y153950*
X264985*
X266951Y155916*
X271950Y155293D02*
G03X266951Y155916I-2450J707D01*
G01X271950Y155293D02*
Y155000D01*
Y154975D02*
G03Y155000I-2450J25D01*
G01X274431Y153689D02*
G03X271950Y154975I-1931J-689D01*
G01X274431Y153689D02*
X275621Y154879D01*
X277000Y155450D02*
G03X275621Y154879I0J-1950D01*
G01X277000Y155450D02*
X280692D01*
X300692Y149450D02*
X302209Y150967D01*
X299958Y153700D02*
G03X302209Y150967I2542J-200D01*
G01X299958Y153700D02*
X298879Y152621D01*
X297500Y152050D02*
G03X298879Y152621I0J1950D01*
G01X297500Y152050D02*
X288808D01*
X278097Y141339*
X277446Y140280*
X277324Y139950D02*
G03X277446Y140280I-2324J1050D01*
G01X277324Y139950D02*
X279692D01*
X288621Y148879*
X290000Y149450D02*
G03X288621Y148879I0J-1950D01*
G01X290000Y149450D02*
X300692D01*
X464000Y105250D02*
Y139293D01*
X429793Y173500*
X409258*
X411308Y171450*
X417500*
X427500*
X428879Y170879D02*
G03X427500Y171450I-1379J-1379D01*
G01X428879Y170879D02*
X434161Y165597D01*
X435220Y164946*
X432054Y161780D02*
G03X435220Y164946I2446J720D01*
G01X432054Y161780D02*
X431403Y162839D01*
X426692Y167550*
X417500*
X410500*
X409121Y168121D02*
G03X410500Y167550I1379J1379D01*
G01X409121Y168121D02*
X403742Y173500D01*
X380250*
X380000Y173750D02*
G03X380250Y173500I250J0D01*
G01X380000Y173750D02*
Y197242D01*
X355192Y222050*
X331824*
X327176D02*
G03X331824I2324J-1050D01*
G01X327176D02*
X315430D01*
X314221Y221761*
Y226239D02*
G03Y221761I-1221J-2239D01*
G01Y226239D02*
X315430Y225950D01*
X355843*
X352793Y229000*
X319062*
X314938D02*
G03X319062I2062J1500D01*
G01X314938D02*
X306465D01*
X306732Y228732*
X307450Y227000D02*
G03X306732Y228732I-2450J0D01*
G01X307450Y227000D02*
Y218500D01*
X306732Y216768D02*
G03X307450Y218500I-1732J1732D01*
G01X306732Y216768D02*
X300232Y210268D01*
X296673Y210368D02*
G03X300232Y210268I1827J1632D01*
G01X292050Y211500D02*
G03X296673Y210368I2450J0D01*
G01X292050Y211500D02*
Y211585D01*
X290232Y209768*
X287950Y209113D02*
G03X290232Y209768I550J2387D01*
G01X287950Y209113D02*
Y209000D01*
X287232Y207268D02*
G03X287950Y209000I-1732J1732D01*
G01X287232Y207268D02*
X282232Y202268D01*
X278768Y205732D02*
G03X282232Y202268I1732J-1732D01*
G01X278768Y205732D02*
X283044Y210009D01*
X280268Y211268D02*
G03X283044Y210009I2232J1232D01*
G01X280268Y211268D02*
X277506Y214029D01*
X272676Y215550D02*
G03X277506Y214029I2324J-1050D01*
G01X272676Y215550D02*
X244707D01*
X242585Y215878D02*
G03X244707Y215550I1415J2122D01*
G01X242585Y215878D02*
X215500Y188793D01*
Y177450*
X264692*
X265200Y177958*
X262550Y179792D02*
G03X265200Y177958I2450J708D01*
G01X262550Y179792D02*
X261879Y179121D01*
X260500Y178550D02*
G03X261879Y179121I0J1950D01*
G01X260500Y178550D02*
X250930D01*
X249721Y178261*
Y182739D02*
G03Y178261I-1221J-2239D01*
G01Y182739D02*
X250930Y182450D01*
X259692*
X271621Y194379*
X273000Y194950D02*
G03X271621Y194379I0J-1950D01*
G01X273000Y194950D02*
X280368D01*
X280879Y195046D02*
G03X280368Y194950I121J-2046D01*
G01X279451Y197050D02*
G03X280879Y195046I2049J-50D01*
G01X279451Y197050D02*
X265015D01*
X264985D02*
G03X265015I15J-2550D01*
G01X264985D02*
X251308D01*
X241879Y187621*
X240500Y187050D02*
G03X241879Y187621I0J1950D01*
G01X240500Y187050D02*
X233430D01*
X232221Y186761*
Y191239D02*
G03Y186761I-1221J-2239D01*
G01Y191239D02*
X233430Y190950D01*
X239692*
X249121Y200379*
X250500Y200950D02*
G03X249121Y200379I0J-1950D01*
G01X250500Y200950D02*
X279868D01*
X282537Y198768D02*
G03X279868Y200950I-2037J232D01*
G01X281621Y194954D02*
G03X282537Y198768I-121J2046D01*
G01X281795Y191111D02*
G03X281621Y194954I-795J1889D01*
G01X277176Y191050D02*
G03X281795Y191111I2324J-1050D01*
G01X277176Y191050D02*
X273808D01*
X265708Y182950*
X267531Y180192D02*
G03X265708Y182950I-2531J308D01*
G01X268500Y180450D02*
G03X267531Y180192I0J-1950D01*
G01X268500Y180450D02*
X289392D01*
X290121Y181179*
X291500Y181750D02*
G03X290121Y181179I0J-1950D01*
G01X291500Y181750D02*
X300892D01*
X304174Y185032*
X308029Y184392D02*
G03X304174Y185032I-2029J-292D01*
G01X308500Y184450D02*
G03X308029Y184392I0J-1950D01*
G01X308500Y184450D02*
X326973D01*
X327458Y187321D02*
G03X326973Y184450I2042J-1821D01*
G01X327739Y188550D02*
G03X327458Y187321I1761J-1050D01*
G01X327739Y188550D02*
X316500D01*
X315121Y189121D02*
G03X316500Y188550I1379J1379D01*
G01X315121Y189121D02*
X310192Y194050D01*
X308132*
X308050Y194025D02*
G03X308132Y194050I-550J1975D01*
G01X308050Y193975D02*
G03Y194025I-2050J25D01*
G01X305450Y192025D02*
G03X308050Y193975I2050J-25D01*
G01X305368Y192050D02*
G03X305450Y192025I632J1950D01*
G01X305368Y192050D02*
X305000D01*
X303621Y192621D02*
G03X305000Y192050I1379J1379D01*
G01X303621Y192621D02*
X302621Y193621D01*
X302050Y195000D02*
G03X302621Y193621I1950J0D01*
G01X302050Y195000D02*
Y207000D01*
X302621Y208379D02*
G03X302050Y207000I1379J-1379D01*
G01X302621Y208379D02*
X308621Y214379D01*
X310000Y214950D02*
G03X308621Y214379I0J-1950D01*
G01X310000Y214950D02*
X318570D01*
X319779Y215239*
Y210761D02*
G03Y215239I1221J2239D01*
G01Y210761D02*
X318570Y211050D01*
X310808*
X305950Y206192*
Y204049*
X306632Y203950D02*
G03X305950Y204049I-632J-1950D01*
G01X306632Y203950D02*
X308692D01*
X311621Y206879*
X313000Y207450D02*
G03X311621Y206879I0J-1950D01*
G01X313000Y207450D02*
X331692D01*
X341121Y216879*
X341650Y217255D02*
G03X341121Y216879I850J-1755D01*
G01X342804Y213047D02*
G03X341650Y217255I696J2453D01*
G01X342804Y213047D02*
X334708Y204950D01*
X341402*
X342793Y201050D02*
G03X341402Y204950I707J2450D01*
G01X342793Y201050D02*
X321811D01*
X321483Y198450D02*
G03X321811Y201050I-2007J1574D01*
G01X321483Y198450D02*
X331570D01*
X332779Y198739*
Y194261D02*
G03Y198739I1221J2239D01*
G01Y194261D02*
X331570Y194550D01*
X315208*
X317308Y192450*
X332000*
X333379Y191879D02*
G03X332000Y192450I-1379J-1379D01*
G01X333379Y191879D02*
X337879Y187379D01*
X338450Y186000D02*
G03X337879Y187379I-1950J0D01*
G01X338450Y186000D02*
Y181500D01*
X337879Y180121D02*
G03X338450Y181500I-1379J1379D01*
G01X337879Y180121D02*
X336379Y178621D01*
X335850Y178245D02*
G03X336379Y178621I-850J1755D01*
G01X331510Y180550D02*
G03X335850Y178245I2490J-550D01*
G01X331510Y180550D02*
X309449D01*
X308049Y179951D02*
G03X309449Y180550I-49J2049D01*
G01X307975Y179450D02*
G03X308049Y179951I-1975J550D01*
G01X307975Y179450D02*
X321500D01*
X322879Y178879D02*
G03X321500Y179450I-1379J-1379D01*
G01X322879Y178879D02*
X329308Y172450D01*
X389500*
X390879Y171879D02*
G03X389500Y172450I-1379J-1379D01*
G01X390879Y171879D02*
X394001Y168757D01*
X397925Y167181*
X392819Y162075D02*
G03X397925Y167181I4681J425D01*
G01X392819Y162075D02*
X391243Y165999D01*
X388692Y168550*
X370517*
X367779Y164261D02*
G03X370517Y168550I1221J2239D01*
G01X367779Y164261D02*
X366570Y164550D01*
X365824*
X362279Y161261D02*
G03X365824Y164550I1221J2239D01*
G01X362279Y161261D02*
X361070Y161550D01*
X343525*
X343427Y158330D02*
G03X343525Y161550I-1927J1670D01*
G01X343427Y158330D02*
X345223Y156535D01*
X343098Y153144D02*
G03X345223Y156535I2402J856D01*
G01X343098Y153144D02*
X341192Y155050D01*
X320025*
X315975D02*
G03X320025I2025J-1550D01*
G01X315975D02*
X311930D01*
X311360Y154914*
X310879Y154121D02*
G03X311360Y154914I-1379J1379D01*
G01X310879Y154121D02*
X302879Y146121D01*
X301500Y145550D02*
G03X302879Y146121I0J1950D01*
G01X301500Y145550D02*
X290808D01*
X288458Y143200*
X346806*
X351194D02*
G03X346806I-2194J1300D01*
G01X351194D02*
X375442D01*
X381243Y149001*
X382819Y152925*
X387925Y147819D02*
G03X382819Y152925I-425J4681D01*
G01X387925Y147819D02*
X384001Y146243D01*
X377629Y139871*
X376250Y139300D02*
G03X377629Y139871I0J1950D01*
G01X376250Y139300D02*
X344421D01*
X343517Y136450D02*
G03X344421Y139300I-1517J2050D01*
G01X343517Y136450D02*
X378692D01*
X391243Y149001*
X392819Y152925*
X397925Y147819D02*
G03X392819Y152925I-425J4681D01*
G01X397925Y147819D02*
X394001Y146243D01*
X386275Y138517*
X387500Y138950D02*
G03X386275Y138517I0J-1950D01*
G01X387500Y138950D02*
X411192D01*
X428621Y156379*
X430000Y156950D02*
G03X428621Y156379I0J-1950D01*
G01X430000Y156950D02*
X438070D01*
X439279Y157239*
Y152761D02*
G03Y157239I1221J2239D01*
G01Y152761D02*
X438070Y153050D01*
X430808*
X428300Y150542*
X425958Y148200D02*
G03X428300Y150542I2542J-200D01*
G01X425958Y148200D02*
X413379Y135621D01*
X412000Y135050D02*
G03X413379Y135621I0J1950D01*
G01X412000Y135050D02*
X388308D01*
X383879Y130621*
X382500Y130050D02*
G03X383879Y130621I0J1950D01*
G01X382500Y130050D02*
X337808D01*
X335538Y127780*
X334176Y124548*
X329548Y129176D02*
G03X334176Y124548I452J-4176D01*
G01X329548Y129176D02*
X330232Y129464D01*
X328054Y131280D02*
G03X330232Y129464I2446J720D01*
G01X328054Y131280D02*
X327403Y132339D01*
X326692Y133050*
X314324*
X310779Y129761D02*
G03X314324Y133050I1221J2239D01*
G01X310779Y129761D02*
X309570Y130050D01*
X304308*
X302575Y128318*
X298063Y128727D02*
G03X302575Y128318I1937J-3727D01*
G01X298621Y129879D02*
G03X298063Y128727I1379J-1379D01*
G01X298621Y129879D02*
X301792Y133050D01*
X300308*
X298379Y131121*
X297000Y130550D02*
G03X298379Y131121I0J1950D01*
G01X297000Y130550D02*
X284808D01*
X282575Y128318*
X278063Y128727D02*
G03X282575Y128318I1937J-3727D01*
G01X278621Y129879D02*
G03X278063Y128727I1379J-1379D01*
G01X278621Y129879D02*
X282292Y133550D01*
X271308*
X265538Y127780*
X264176Y124548*
X255824D02*
G03X264176I4176J452D01*
G01X255824D02*
X254462Y127780D01*
X251692Y130550*
X236430*
X235221Y130261*
X231950Y130983D02*
G03X235221Y130261I2050J1517D01*
G01X231950Y130983D02*
Y130882D01*
X233272Y127633*
X226728D02*
G03X233272I3272J-2633D01*
G01X226728D02*
X228050Y130882D01*
Y134000*
X228621Y135379D02*
G03X228050Y134000I1379J-1379D01*
G01X228621Y135379D02*
X230621Y137379D01*
X232000Y137950D02*
G03X230621Y137379I0J-1950D01*
G01X232000Y137950D02*
X239483D01*
X242517D02*
G03X239483I-1517J2050D01*
G01X242517D02*
X247483D01*
X250517D02*
G03X247483I-1517J2050D01*
G01X250517D02*
X256983D01*
X260017D02*
G03X256983I-1517J2050D01*
G01X260017D02*
X261692D01*
X263121Y139379*
X264500Y139950D02*
G03X263121Y139379I0J-1950D01*
G01X264500Y139950D02*
X272676D01*
X274280Y143446D02*
G03X272676Y139950I720J-2446D01*
G01X274280Y143446D02*
X275339Y144097D01*
X286621Y155379*
X288000Y155950D02*
G03X286621Y155379I0J-1950D01*
G01X288000Y155950D02*
X296692D01*
X303621Y162879*
X305000Y163450D02*
G03X303621Y162879I0J-1950D01*
G01X305000Y163450D02*
X317176D01*
X320332Y166911D02*
G03X317176Y163450I-832J-2411D01*
G01X320332Y166911D02*
X317192Y170050D01*
X316643*
X313779Y169761D02*
G03X316643Y170050I1221J2239D01*
G01X313779Y169761D02*
X312570Y170050D01*
X300808*
X282879Y152121*
X281500Y151550D02*
G03X282879Y152121I0J1950D01*
G01X281500Y151550D02*
X279663D01*
X275253Y148995D02*
G03X279663Y151550I2247J1205D01*
G01X275253Y148995D02*
X270379Y144121D01*
X269000Y143550D02*
G03X270379Y144121I0J1950D01*
G01X269000Y143550D02*
X233000D01*
X231621Y144121D02*
G03X233000Y143550I1379J1379D01*
G01X231621Y144121D02*
X231081Y144661D01*
X230661Y144403*
X215500Y129242*
Y105250*
X464000*
X214250Y257500D02*
G03X214250I-9250J0D01*
G01Y410000D02*
G03X214250I-9250J0D01*
G01X510950Y176500D02*
G03X510950I-26450J0D01*
G01X519076Y201008D02*
G03X519076I-6371J0D01*
G01Y258094D02*
G03X519076I-6371J0D01*
G01Y305008D02*
G03X519076I-6371J0D01*
G01Y362094D02*
G03X519076I-6371J0D01*
G01X510950Y385500D02*
G03X510950I-26450J0D01*
G01X457450Y245102D02*
G03X457450I-6950J0D01*
G01Y349102D02*
G03X457450I-6950J0D01*
G01X334250Y330000D02*
G03X334250I-9250J0D01*
G01X319550Y384500D02*
G03X319550I-2550J0D01*
G01X295503Y396500D02*
G03X294497I-503J2500D01*
X295503I503J-2500*
G01X197050Y118000D02*
G03X197050I-2550J0D01*
G01X213050Y152000D02*
G03X213050I-2550J0D01*
G01X187550Y163000D02*
G03X187550I-2550J0D01*
G01X182550Y206000D02*
G03X182550I-2550J0D01*
G01X171250Y137777D02*
G03Y142223I1250J2223D01*
Y137777I-1250J-2223*
G01X462200Y125000D02*
G03X462200I-4700J0D01*
G01X452200Y115000D02*
G03X452200I-4700J0D01*
G01Y125000D02*
G03X452200I-4700J0D01*
G01X442200D02*
G03X442200I-4700J0D01*
G01X432200Y115000D02*
G03X432200I-4700J0D01*
G01Y125000D02*
G03X432200I-4700J0D01*
G01X422200Y115000D02*
G03X422200I-4700J0D01*
G01Y125000D02*
G03X422200I-4700J0D01*
G01X412200Y115000D02*
G03X412200I-4700J0D01*
G01Y125000D02*
G03X412200I-4700J0D01*
G01X402200D02*
G03X402200I-4700J0D01*
G01X392200Y115000D02*
G03X392200I-4700J0D01*
G01Y125000D02*
G03X392200I-4700J0D01*
G01X354200Y115000D02*
G03X354200I-4200J0D01*
G01Y125000D02*
G03X354200I-4200J0D01*
G01X344200Y115000D02*
G03X344200I-4200J0D01*
G01Y125000D02*
G03X344200I-4200J0D01*
G01X324200Y115000D02*
G03X324200I-4200J0D01*
G01Y125000D02*
G03X324200I-4200J0D01*
G01X314200Y115000D02*
G03X314200I-4200J0D01*
G01Y125000D02*
G03X314200I-4200J0D01*
G01X304200Y115000D02*
G03X304200I-4200J0D01*
G01X274200D02*
G03X274200I-4200J0D01*
G01Y125000D02*
G03X274200I-4200J0D01*
G01X264200Y115000D02*
G03X264200I-4200J0D01*
G01X254200D02*
G03X254200I-4200J0D01*
G01Y125000D02*
G03X254200I-4200J0D01*
G01X244200Y115000D02*
G03X244200I-4200J0D01*
G01Y125000D02*
G03X244200I-4200J0D01*
G01X294200Y115000D02*
G03X294200I-4200J0D01*
G01Y125000D02*
G03X294200I-4200J0D01*
G01X284200Y115000D02*
G03X284200I-4200J0D01*
G01X417925Y147819D02*
G03X412819Y152925I-425J4681D01*
G01X417925Y147819D02*
X414001Y146243D01*
X408879Y141121*
X407500Y140550D02*
G03X408879Y141121I0J1950D01*
G01X407500Y140550D02*
X399930D01*
X398721Y140261*
Y144739D02*
G03Y140261I-1221J-2239D01*
G01Y144739D02*
X399930Y144450D01*
X406692*
X411243Y149001*
X412819Y152925*
X422200Y162500D02*
G03X422200I-4700J0D01*
G01X412200Y152500D02*
G03X412200I-4700J0D01*
G01X392200Y162500D02*
G03X392200I-4700J0D01*
G01X263279Y205761D02*
G03Y210239I1221J2239D01*
G01Y205761D02*
X262070Y206050D01*
X252808*
X242879Y196121*
X241500Y195550D02*
G03X242879Y196121I0J1950D01*
G01X241500Y195550D02*
X236430D01*
X235221Y195261*
Y199739D02*
G03Y195261I-1221J-2239D01*
G01Y199739D02*
X236430Y199450D01*
X240692*
X250621Y209379*
X252000Y209950D02*
G03X250621Y209379I0J-1950D01*
G01X252000Y209950D02*
X262070D01*
X263279Y210239*
X261050Y188000D02*
G03X261050I-2550J0D01*
G01X105250Y364599D02*
X274250D01*
X105250Y364149D02*
X274250D01*
X105250Y363699D02*
X274250D01*
X105250Y363249D02*
X274250D01*
X105250Y362799D02*
X274250D01*
X105250Y362349D02*
X274250D01*
X105250Y361899D02*
X274250D01*
X105250Y361449D02*
X274250D01*
X105250Y360999D02*
X274250D01*
X105250Y360549D02*
X274250D01*
X105250Y360099D02*
X274250D01*
X105250Y359649D02*
X274250D01*
X105250Y359199D02*
X274250D01*
X105250Y358749D02*
X274250D01*
X105250Y358299D02*
X274250D01*
X105250Y357849D02*
X274250D01*
X105250Y357399D02*
X274250D01*
X105250Y356949D02*
X274250D01*
X105250Y356499D02*
X274250D01*
X105250Y356049D02*
X274250D01*
X105250Y355599D02*
X274250D01*
X105250Y355149D02*
X274250D01*
X105250Y354699D02*
X274250D01*
X105250Y354249D02*
X274250D01*
X105250Y353799D02*
X274250D01*
X105250Y353349D02*
X274250D01*
X105250Y352899D02*
X274250D01*
X105250Y352449D02*
X274250D01*
X105250Y351999D02*
X274250D01*
X105250Y351549D02*
X274250D01*
X105250Y351099D02*
X274250D01*
X105250Y350649D02*
X274250D01*
X105250Y350199D02*
X274250D01*
X105250Y349749D02*
X274250D01*
X105250Y349299D02*
X274250D01*
X105250Y348849D02*
X274250D01*
X105250Y348399D02*
X274250D01*
X105250Y347949D02*
X274250D01*
X105250Y347499D02*
X274250D01*
X105250Y347049D02*
X274250D01*
X105250Y346599D02*
X274250D01*
X105250Y346149D02*
X274250D01*
X105250Y345699D02*
X274250D01*
X105250Y345249D02*
X274250D01*
X105250Y344799D02*
X274250D01*
X105250Y344349D02*
X274250D01*
X105250Y343899D02*
X274250D01*
X105250Y343449D02*
X274250D01*
X105250Y342999D02*
X274250D01*
X105250Y342549D02*
X274250D01*
X105250Y342099D02*
X274250D01*
X105250Y341649D02*
X274250D01*
X105250Y341199D02*
X274250D01*
X105250Y365049D02*
X273986D01*
X270973Y340749D02*
X273547D01*
X105250Y365499D02*
X273536D01*
X105250Y365949D02*
X272985D01*
X271664Y340299D02*
X272942D01*
X105250Y332199D02*
X272836D01*
X272116Y339849D02*
X272586D01*
X105250Y366399D02*
X272515D01*
X105250Y332649D02*
X272386D01*
X252369Y366849D02*
X272225D01*
X252900Y367299D02*
X272048D01*
X254114Y368649D02*
X272034D01*
X253222Y367749D02*
X271962D01*
X253664Y368199D02*
X271958D01*
X105250Y333099D02*
X271936D01*
X105250Y333549D02*
X271486D01*
X105250Y333999D02*
X271036D01*
X105250Y334449D02*
X270586D01*
X105250Y334899D02*
X270136D01*
X105250Y335349D02*
X269686D01*
X105250Y335799D02*
X269236D01*
X105250Y371799D02*
X250334D01*
X105250Y371349D02*
X249884D01*
X105250Y336249D02*
X249802D01*
X105250Y340749D02*
X249797D01*
X105250Y366849D02*
X249631D01*
X105250Y370899D02*
X249298D01*
X105250Y336699D02*
X249195D01*
X105250Y340299D02*
X249192D01*
X105250Y367299D02*
X249100D01*
X105250Y370449D02*
X248901D01*
X105250Y337149D02*
X248837D01*
X105250Y339849D02*
X248836D01*
X105250Y367749D02*
X248778D01*
X105250Y369999D02*
X248654D01*
X105250Y337599D02*
X248615D01*
X105250Y339399D02*
X248614D01*
X105250Y368199D02*
X248579D01*
X105250Y369549D02*
X248510D01*
X105250Y338049D02*
X248490D01*
X105250Y338949D02*
X248490D01*
X105250Y368649D02*
X248474D01*
X105250Y369099D02*
X248452D01*
X105250Y338499D02*
X248450D01*
X105250Y329549D02*
X274250D01*
X105250Y329099D02*
X274250D01*
X105250Y328649D02*
X274250D01*
X105250Y328199D02*
X274250D01*
X105250Y327749D02*
X274250D01*
X105250Y327299D02*
X274250D01*
X105250Y326849D02*
X274250D01*
X105250Y326399D02*
X274250D01*
X274081Y325949D02*
X274250D01*
X105250Y296699D02*
X272569D01*
X105250Y316049D02*
X272550D01*
X105250Y315599D02*
X272550D01*
X105250Y315149D02*
X272550D01*
X105250Y314699D02*
X272550D01*
X105250Y314249D02*
X272550D01*
X105250Y313799D02*
X272550D01*
X105250Y313349D02*
X272550D01*
X105250Y312899D02*
X272550D01*
X105250Y312449D02*
X272550D01*
X105250Y311999D02*
X272550D01*
X105250Y311549D02*
X272550D01*
X105250Y311099D02*
X272550D01*
X105250Y310649D02*
X272550D01*
X105250Y310199D02*
X272550D01*
X105250Y309749D02*
X272550D01*
X105250Y309299D02*
X272550D01*
X105250Y308849D02*
X272550D01*
X105250Y308399D02*
X272550D01*
X105250Y307949D02*
X272550D01*
X105250Y307499D02*
X272550D01*
X105250Y307049D02*
X272550D01*
X105250Y306599D02*
X272550D01*
X105250Y306149D02*
X272550D01*
X105250Y305699D02*
X272550D01*
X105250Y305249D02*
X272550D01*
X105250Y304799D02*
X272550D01*
X105250Y304349D02*
X272550D01*
X105250Y303899D02*
X272550D01*
X105250Y303449D02*
X272550D01*
X105250Y302999D02*
X272550D01*
X105250Y302549D02*
X272550D01*
X105250Y302099D02*
X272550D01*
X105250Y301649D02*
X272550D01*
X105250Y301199D02*
X272550D01*
X105250Y300749D02*
X272550D01*
X105250Y300299D02*
X272550D01*
X105250Y299849D02*
X272550D01*
X105250Y299399D02*
X272550D01*
X105250Y298949D02*
X272550D01*
X105250Y298499D02*
X272550D01*
X105250Y298049D02*
X272550D01*
X105250Y297599D02*
X272550D01*
X105250Y297149D02*
X272550D01*
X105250Y316499D02*
X272536D01*
X105250Y316949D02*
X272086D01*
X232212Y325949D02*
X254788D01*
X105250Y296249D02*
X254047D01*
X233084Y325499D02*
X253916D01*
X233526Y325049D02*
X253474D01*
X105250Y295799D02*
X253442D01*
X236116Y322349D02*
X253225D01*
X233866Y324599D02*
X253199D01*
X234697Y295349D02*
X253086D01*
X235666Y322799D02*
X253048D01*
X234316Y324149D02*
X253034D01*
X235216Y323249D02*
X252962D01*
X234766Y323699D02*
X252958D01*
X237366Y293099D02*
X252865D01*
X235548Y294899D02*
X252864D01*
X236916Y293549D02*
X252740D01*
X236016Y294449D02*
X252740D01*
X236466Y293999D02*
X252700D01*
X105250Y317399D02*
X234240D01*
X105250Y317849D02*
X233686D01*
X105250Y318299D02*
X233236D01*
X105250Y318749D02*
X232786D01*
X105250Y319199D02*
X232336D01*
X105250Y319649D02*
X231886D01*
X105250Y320099D02*
X231436D01*
X105250Y320549D02*
X230986D01*
X105250Y325949D02*
X230788D01*
X105250Y320999D02*
X230536D01*
X105250Y295349D02*
X230507D01*
X105250Y321449D02*
X229985D01*
X105250Y325499D02*
X229916D01*
X105250Y294899D02*
X229798D01*
X105250Y321899D02*
X229515D01*
X105250Y325049D02*
X229474D01*
X105250Y294449D02*
X229401D01*
X105250Y322349D02*
X229225D01*
X105250Y324599D02*
X229199D01*
X105250Y293999D02*
X229154D01*
X105250Y292199D02*
X229079D01*
X105250Y322799D02*
X229048D01*
X105250Y324149D02*
X229034D01*
X105250Y293549D02*
X229010D01*
X105250Y292649D02*
X228974D01*
X105250Y323249D02*
X228962D01*
X105250Y323699D02*
X228958D01*
X105250Y293099D02*
X228952D01*
X105250Y285949D02*
X273550D01*
X105250Y285499D02*
X273550D01*
X105250Y285049D02*
X273550D01*
X105250Y284599D02*
X273550D01*
X105250Y284149D02*
X273550D01*
X105250Y283699D02*
X273550D01*
X105250Y283249D02*
X273550D01*
X105250Y282799D02*
X273550D01*
X105250Y282349D02*
X273550D01*
X105250Y281899D02*
X273550D01*
X105250Y281449D02*
X273550D01*
X105250Y280999D02*
X273550D01*
X105250Y280549D02*
X273550D01*
X105250Y280099D02*
X273550D01*
X105250Y279649D02*
X273550D01*
X105250Y279199D02*
X273550D01*
X105250Y278749D02*
X273550D01*
X105250Y278299D02*
X273550D01*
X105250Y277849D02*
X273550D01*
X105250Y277399D02*
X273550D01*
X105250Y276949D02*
X273550D01*
X105250Y276499D02*
X273550D01*
X105250Y276049D02*
X273550D01*
X105250Y275599D02*
X273550D01*
X105250Y275149D02*
X273550D01*
X105250Y274699D02*
X273550D01*
X105250Y274249D02*
X273550D01*
X105250Y273799D02*
X273550D01*
X105250Y273349D02*
X273550D01*
X105250Y272899D02*
X273550D01*
X105250Y272449D02*
X273550D01*
X105250Y271999D02*
X273550D01*
X105250Y271549D02*
X273550D01*
X105250Y271099D02*
X273550D01*
X105250Y270649D02*
X273550D01*
X105250Y270199D02*
X273550D01*
X105250Y269749D02*
X273550D01*
X105250Y269299D02*
X273550D01*
X105250Y268849D02*
X273550D01*
X105250Y268399D02*
X273550D01*
X105250Y267949D02*
X273550D01*
X105250Y267499D02*
X273550D01*
X105250Y267049D02*
X273550D01*
X206666Y266599D02*
X273550D01*
X208281Y266149D02*
X273550D01*
X209283Y265699D02*
X273550D01*
X210052Y265249D02*
X273550D01*
X210683Y264799D02*
X273550D01*
X211218Y264349D02*
X273550D01*
X211680Y263899D02*
X273550D01*
X212084Y263449D02*
X273550D01*
X212438Y262999D02*
X273550D01*
X212751Y262549D02*
X273550D01*
X213026Y262099D02*
X273550D01*
X213267Y261649D02*
X273550D01*
X213478Y261199D02*
X273550D01*
X213661Y260749D02*
X273550D01*
X213816Y260299D02*
X273550D01*
X213947Y259849D02*
X273550D01*
X214053Y259399D02*
X273550D01*
X214136Y258949D02*
X273550D01*
X214196Y258499D02*
X273550D01*
X214234Y258049D02*
X273550D01*
X214249Y257599D02*
X273550D01*
X214243Y257149D02*
X273550D01*
X214215Y256699D02*
X273550D01*
X214165Y256249D02*
X273550D01*
X214092Y255799D02*
X273550D01*
X213996Y255349D02*
X273550D01*
X213877Y254899D02*
X273550D01*
X213732Y254449D02*
X273550D01*
X213562Y253999D02*
X273550D01*
X213364Y253549D02*
X273550D01*
X213136Y253099D02*
X273550D01*
X212876Y252649D02*
X273550D01*
X212580Y252199D02*
X273550D01*
X212245Y251749D02*
X273550D01*
X211863Y251299D02*
X273550D01*
X211428Y250849D02*
X273550D01*
X210927Y250399D02*
X273550D01*
X210342Y249949D02*
X273550D01*
X209641Y249499D02*
X273550D01*
X208760Y249049D02*
X273550D01*
X207516Y248599D02*
X273550D01*
X105250Y248149D02*
X273550D01*
X105250Y247699D02*
X273550D01*
X105250Y247249D02*
X273550D01*
X105250Y246799D02*
X273550D01*
X105250Y246349D02*
X273550D01*
X105250Y245899D02*
X273550D01*
X105250Y245449D02*
X273550D01*
X105250Y244999D02*
X273550D01*
X105250Y244549D02*
X273550D01*
X105250Y244099D02*
X273550D01*
X105250Y243649D02*
X273550D01*
X105250Y243199D02*
X273550D01*
X105250Y286399D02*
X273136D01*
X105250Y286849D02*
X272686D01*
X105250Y287299D02*
X272236D01*
X105250Y287749D02*
X271786D01*
X105250Y288199D02*
X235659D01*
X105250Y288649D02*
X234895D01*
X105250Y289099D02*
X234436D01*
X105250Y266599D02*
X203334D01*
X105250Y248599D02*
X202484D01*
X105250Y266149D02*
X201719D01*
X105250Y249049D02*
X201240D01*
X105250Y265699D02*
X200717D01*
X105250Y249499D02*
X200359D01*
X105250Y265249D02*
X199948D01*
X105250Y249949D02*
X199658D01*
X105250Y264799D02*
X199317D01*
X105250Y250399D02*
X199073D01*
X105250Y264349D02*
X198782D01*
X105250Y250849D02*
X198572D01*
X105250Y263899D02*
X198320D01*
X105250Y251299D02*
X198137D01*
X105250Y263449D02*
X197916D01*
X105250Y251749D02*
X197755D01*
X105250Y262999D02*
X197562D01*
X105250Y252199D02*
X197420D01*
X105250Y262549D02*
X197249D01*
X105250Y252649D02*
X197124D01*
X105250Y262099D02*
X196974D01*
X105250Y253099D02*
X196864D01*
X105250Y261649D02*
X196733D01*
X105250Y253549D02*
X196636D01*
X105250Y261199D02*
X196522D01*
X105250Y253999D02*
X196438D01*
X105250Y260749D02*
X196339D01*
X105250Y254449D02*
X196268D01*
X105250Y260299D02*
X196184D01*
X105250Y254899D02*
X196123D01*
X105250Y259849D02*
X196053D01*
X105250Y255349D02*
X196004D01*
X105250Y259399D02*
X195947D01*
X105250Y255799D02*
X195908D01*
X105250Y258949D02*
X195864D01*
X105250Y256249D02*
X195835D01*
X105250Y258499D02*
X195804D01*
X105250Y256699D02*
X195785D01*
X105250Y258049D02*
X195766D01*
X105250Y257149D02*
X195757D01*
X105250Y257599D02*
X195751D01*
X162576Y434499D02*
X274250D01*
X163148Y434049D02*
X274250D01*
X163593Y433599D02*
X274250D01*
X163948Y433149D02*
X274250D01*
X164235Y432699D02*
X274250D01*
X164464Y432249D02*
X274250D01*
X164645Y431799D02*
X274250D01*
X164781Y431349D02*
X274250D01*
X164875Y430899D02*
X274250D01*
X164932Y430449D02*
X274250D01*
X164950Y429999D02*
X274250D01*
X164931Y429549D02*
X274250D01*
X164875Y429099D02*
X274250D01*
X164780Y428649D02*
X274250D01*
X164644Y428199D02*
X274250D01*
X164463Y427749D02*
X274250D01*
X164233Y427299D02*
X274250D01*
X163947Y426849D02*
X274250D01*
X163591Y426399D02*
X274250D01*
X163145Y425949D02*
X274250D01*
X162573Y425499D02*
X274250D01*
X161778Y425049D02*
X274250D01*
X160227Y424599D02*
X274250D01*
X156151Y424149D02*
X274250D01*
X156198Y423699D02*
X274250D01*
X156230Y423249D02*
X274250D01*
X156247Y422799D02*
X274250D01*
X156249Y422349D02*
X274250D01*
X156237Y421899D02*
X274250D01*
X156210Y421449D02*
X274250D01*
X156168Y420999D02*
X274250D01*
X156111Y420549D02*
X274250D01*
X156039Y420099D02*
X274250D01*
X155951Y419649D02*
X274250D01*
X205973Y419199D02*
X274250D01*
X208004Y418749D02*
X274250D01*
X209086Y418299D02*
X274250D01*
X209895Y417849D02*
X274250D01*
X210552Y417399D02*
X274250D01*
X211106Y416949D02*
X274250D01*
X211583Y416499D02*
X274250D01*
X211998Y416049D02*
X274250D01*
X212363Y415599D02*
X274250D01*
X212685Y415149D02*
X274250D01*
X212968Y414699D02*
X274250D01*
X213217Y414249D02*
X274250D01*
X213434Y413799D02*
X274250D01*
X213623Y413349D02*
X274250D01*
X213784Y412899D02*
X274250D01*
X213920Y412449D02*
X274250D01*
X214032Y411999D02*
X274250D01*
X214119Y411549D02*
X274250D01*
X214185Y411099D02*
X274250D01*
X214227Y410649D02*
X274250D01*
X214248Y410199D02*
X274250D01*
X214247Y409749D02*
X274250D01*
X214223Y409299D02*
X274250D01*
X214178Y408849D02*
X274250D01*
X214110Y408399D02*
X274250D01*
X214020Y407949D02*
X274250D01*
X213905Y407499D02*
X274250D01*
X213767Y407049D02*
X274250D01*
X213602Y406599D02*
X274250D01*
X213410Y406149D02*
X274250D01*
X213189Y405699D02*
X274250D01*
X212936Y405249D02*
X274250D01*
X212649Y404799D02*
X274250D01*
X212323Y404349D02*
X274250D01*
X211952Y403899D02*
X274250D01*
X211530Y403449D02*
X274250D01*
X211045Y402999D02*
X274250D01*
X210481Y402549D02*
X274250D01*
X209810Y402099D02*
X274250D01*
X208977Y401649D02*
X274250D01*
X207846Y401199D02*
X274250D01*
X105250Y400749D02*
X274250D01*
X105250Y400299D02*
X274250D01*
X105250Y399849D02*
X274250D01*
X105250Y399399D02*
X274250D01*
X105250Y398949D02*
X274250D01*
X105250Y398499D02*
X274250D01*
X105250Y398049D02*
X274250D01*
X105250Y397599D02*
X274250D01*
X105250Y397149D02*
X274250D01*
X105250Y396699D02*
X274250D01*
X105250Y396249D02*
X274250D01*
X105250Y395799D02*
X274250D01*
X105250Y395349D02*
X274250D01*
X105250Y394899D02*
X274250D01*
X105250Y394449D02*
X274250D01*
X105250Y393999D02*
X274250D01*
X105250Y393549D02*
X274250D01*
X105250Y393099D02*
X274250D01*
X105250Y392649D02*
X274250D01*
X105250Y392199D02*
X274250D01*
X105250Y391749D02*
X274250D01*
X105250Y391299D02*
X274250D01*
X105250Y390849D02*
X274250D01*
X105250Y390399D02*
X274250D01*
X105250Y389949D02*
X274250D01*
X105250Y389499D02*
X274250D01*
X105250Y389049D02*
X274250D01*
X105250Y388599D02*
X274250D01*
X105250Y388149D02*
X274250D01*
X105250Y387699D02*
X274250D01*
X105250Y387249D02*
X274250D01*
X105250Y386799D02*
X274250D01*
X105250Y386349D02*
X274250D01*
X105250Y385899D02*
X274250D01*
X105250Y385449D02*
X274250D01*
X105250Y384999D02*
X274250D01*
X105250Y384549D02*
X274250D01*
X105250Y384099D02*
X274250D01*
X105250Y383649D02*
X274250D01*
X105250Y383199D02*
X274250D01*
X105250Y382749D02*
X274250D01*
X105250Y382299D02*
X274250D01*
X105250Y381849D02*
X274250D01*
X105250Y381399D02*
X274250D01*
X105250Y380949D02*
X274250D01*
X105250Y380499D02*
X274250D01*
X105250Y380049D02*
X274250D01*
X105250Y379599D02*
X274250D01*
X105250Y379149D02*
X274250D01*
X105250Y378699D02*
X274250D01*
X105250Y378249D02*
X274250D01*
X105250Y377799D02*
X274250D01*
X105250Y377349D02*
X274250D01*
X105250Y376899D02*
X274250D01*
X105250Y376449D02*
X274250D01*
X105250Y375999D02*
X274250D01*
X105250Y375549D02*
X274250D01*
X105250Y375099D02*
X274250D01*
X105250Y374649D02*
X274250D01*
X105250Y374199D02*
X274250D01*
X155848Y419199D02*
X204027D01*
X105250Y401199D02*
X202154D01*
X155728Y418749D02*
X201996D01*
X105250Y401649D02*
X201023D01*
X155592Y418299D02*
X200914D01*
X105250Y402099D02*
X200190D01*
X155439Y417849D02*
X200105D01*
X105250Y402549D02*
X199519D01*
X155269Y417399D02*
X199448D01*
X105250Y402999D02*
X198955D01*
X155080Y416949D02*
X198894D01*
X105250Y403449D02*
X198470D01*
X154871Y416499D02*
X198417D01*
X105250Y403899D02*
X198048D01*
X154643Y416049D02*
X198002D01*
X105250Y404349D02*
X197677D01*
X154393Y415599D02*
X197637D01*
X105250Y404799D02*
X197351D01*
X154120Y415149D02*
X197315D01*
X105250Y405249D02*
X197064D01*
X153823Y414699D02*
X197032D01*
X105250Y405699D02*
X196811D01*
X153499Y414249D02*
X196783D01*
X105250Y406149D02*
X196590D01*
X153147Y413799D02*
X196566D01*
X105250Y406599D02*
X196398D01*
X152762Y413349D02*
X196377D01*
X105250Y407049D02*
X196233D01*
X152343Y412899D02*
X196216D01*
X105250Y407499D02*
X196095D01*
X151883Y412449D02*
X196080D01*
X105250Y407949D02*
X195980D01*
X151376Y411999D02*
X195968D01*
X105250Y408399D02*
X195890D01*
X150815Y411549D02*
X195881D01*
X144145Y408849D02*
X195822D01*
X150186Y411099D02*
X195815D01*
X146346Y409299D02*
X195777D01*
X149472Y410649D02*
X195773D01*
X147645Y409749D02*
X195753D01*
X148643Y410199D02*
X195752D01*
X156089Y424599D02*
X158773D01*
X156012Y425049D02*
X157222D01*
X155919Y425499D02*
X156427D01*
X155811Y425949D02*
X155855D01*
X105250Y408849D02*
X140855D01*
X105250Y409299D02*
X138654D01*
X105250Y409749D02*
X137355D01*
X105250Y410199D02*
X136357D01*
X105250Y434499D02*
X135785D01*
X105250Y410649D02*
X135528D01*
X105250Y434049D02*
X135037D01*
X105250Y411099D02*
X134814D01*
X105250Y433599D02*
X134383D01*
X105250Y411549D02*
X134185D01*
X105250Y433149D02*
X133801D01*
X105250Y411999D02*
X133624D01*
X105250Y432699D02*
X133278D01*
X105250Y412449D02*
X133117D01*
X105250Y432249D02*
X132803D01*
X105250Y412899D02*
X132657D01*
X105250Y431799D02*
X132371D01*
X105250Y413349D02*
X132238D01*
X105250Y431349D02*
X131976D01*
X105250Y413799D02*
X131853D01*
X105250Y430899D02*
X131613D01*
X105250Y414249D02*
X131501D01*
X105250Y430449D02*
X131280D01*
X105250Y414699D02*
X131177D01*
X105250Y429999D02*
X130975D01*
X105250Y415149D02*
X130880D01*
X105250Y429549D02*
X130694D01*
X105250Y415599D02*
X130607D01*
X105250Y429099D02*
X130437D01*
X105250Y416049D02*
X130357D01*
X105250Y428649D02*
X130201D01*
X105250Y416499D02*
X130129D01*
X105250Y428199D02*
X129986D01*
X105250Y416949D02*
X129920D01*
X105250Y427749D02*
X129791D01*
X105250Y417399D02*
X129731D01*
X105250Y427299D02*
X129615D01*
X105250Y417849D02*
X129561D01*
X105250Y426849D02*
X129456D01*
X105250Y418299D02*
X129408D01*
X105250Y426399D02*
X129314D01*
X105250Y418749D02*
X129272D01*
X105250Y425949D02*
X129189D01*
X105250Y419199D02*
X129152D01*
X105250Y425499D02*
X129081D01*
X105250Y419649D02*
X129049D01*
X105250Y425049D02*
X128988D01*
X105250Y420099D02*
X128961D01*
X105250Y424599D02*
X128911D01*
X105250Y420549D02*
X128889D01*
X105250Y424149D02*
X128849D01*
X105250Y420999D02*
X128832D01*
X105250Y423699D02*
X128802D01*
X105250Y421449D02*
X128790D01*
X105250Y423249D02*
X128770D01*
X105250Y421899D02*
X128763D01*
X105250Y422799D02*
X128753D01*
X105250Y422349D02*
X128751D01*
X416756Y138999D02*
X464000D01*
X416306Y138549D02*
X464000D01*
X415856Y138099D02*
X464000D01*
X415406Y137649D02*
X464000D01*
X414956Y137199D02*
X464000D01*
X414506Y136749D02*
X464000D01*
X414056Y136299D02*
X464000D01*
X413606Y135849D02*
X464000D01*
X413113Y135399D02*
X464000D01*
X388206Y134949D02*
X464000D01*
X387756Y134499D02*
X464000D01*
X387306Y134049D02*
X464000D01*
X386856Y133599D02*
X464000D01*
X386406Y133149D02*
X464000D01*
X385956Y132699D02*
X464000D01*
X385506Y132249D02*
X464000D01*
X385056Y131799D02*
X464000D01*
X384606Y131349D02*
X464000D01*
X384156Y130899D02*
X464000D01*
X383682Y130449D02*
X464000D01*
X337756Y129999D02*
X464000D01*
X458683Y129549D02*
X464000D01*
X459800Y129099D02*
X464000D01*
X460463Y128649D02*
X464000D01*
X460944Y128199D02*
X464000D01*
X461312Y127749D02*
X464000D01*
X461600Y127299D02*
X464000D01*
X461821Y126849D02*
X464000D01*
X461987Y126399D02*
X464000D01*
X462103Y125949D02*
X464000D01*
X462173Y125499D02*
X464000D01*
X462200Y125049D02*
X464000D01*
X462183Y124599D02*
X464000D01*
X462122Y124149D02*
X464000D01*
X462016Y123699D02*
X464000D01*
X461862Y123249D02*
X464000D01*
X461653Y122799D02*
X464000D01*
X461381Y122349D02*
X464000D01*
X461032Y121899D02*
X464000D01*
X460579Y121449D02*
X464000D01*
X459966Y120999D02*
X464000D01*
X459009Y120549D02*
X464000D01*
X215500Y120099D02*
X464000D01*
X448193Y119649D02*
X464000D01*
X449612Y119199D02*
X464000D01*
X450335Y118749D02*
X464000D01*
X450848Y118299D02*
X464000D01*
X451238Y117849D02*
X464000D01*
X451542Y117399D02*
X464000D01*
X451777Y116949D02*
X464000D01*
X451955Y116499D02*
X464000D01*
X452082Y116049D02*
X464000D01*
X452162Y115599D02*
X464000D01*
X452198Y115149D02*
X464000D01*
X452190Y114699D02*
X464000D01*
X452140Y114249D02*
X464000D01*
X452044Y113799D02*
X464000D01*
X451900Y113349D02*
X464000D01*
X451704Y112899D02*
X464000D01*
X451447Y112449D02*
X464000D01*
X451117Y111999D02*
X464000D01*
X450690Y111549D02*
X464000D01*
X450121Y111099D02*
X464000D01*
X449277Y110649D02*
X464000D01*
X215500Y110199D02*
X464000D01*
X215500Y109749D02*
X464000D01*
X215500Y109299D02*
X464000D01*
X215500Y108849D02*
X464000D01*
X215500Y108399D02*
X464000D01*
X215500Y107949D02*
X464000D01*
X215500Y107499D02*
X464000D01*
X215500Y107049D02*
X464000D01*
X215500Y106599D02*
X464000D01*
X215500Y106149D02*
X464000D01*
X215500Y105699D02*
X464000D01*
X417206Y139449D02*
X463844D01*
X417656Y139899D02*
X463394D01*
X418106Y140349D02*
X462944D01*
X418556Y140799D02*
X462494D01*
X419006Y141249D02*
X462044D01*
X419456Y141699D02*
X461594D01*
X419906Y142149D02*
X461144D01*
X420356Y142599D02*
X460694D01*
X420806Y143049D02*
X460244D01*
X421256Y143499D02*
X459794D01*
X421706Y143949D02*
X459344D01*
X422156Y144399D02*
X458894D01*
X422606Y144849D02*
X458444D01*
X423056Y145299D02*
X457994D01*
X429698Y145749D02*
X457544D01*
X430305Y146199D02*
X457094D01*
X430663Y146649D02*
X456644D01*
X448683Y129549D02*
X456317D01*
X430885Y147099D02*
X456194D01*
X449009Y120549D02*
X455991D01*
X431010Y147549D02*
X455744D01*
X431050Y147999D02*
X455294D01*
X449800Y129099D02*
X455200D01*
X449966Y120999D02*
X455034D01*
X431010Y148449D02*
X454844D01*
X450463Y128649D02*
X454537D01*
X450579Y121449D02*
X454421D01*
X430886Y148899D02*
X454394D01*
X450944Y128199D02*
X454056D01*
X451032Y121899D02*
X453968D01*
X430664Y149349D02*
X453944D01*
X451312Y127749D02*
X453688D01*
X451381Y122349D02*
X453619D01*
X430308Y149799D02*
X453494D01*
X451600Y127299D02*
X453400D01*
X451653Y122799D02*
X453347D01*
X451821Y126849D02*
X453179D01*
X451862Y123249D02*
X453138D01*
X429703Y150249D02*
X453044D01*
X451987Y126399D02*
X453013D01*
X452016Y123699D02*
X452984D01*
X452103Y125949D02*
X452897D01*
X452122Y124149D02*
X452878D01*
X452173Y125499D02*
X452827D01*
X452183Y124599D02*
X452817D01*
X452200Y125049D02*
X452800D01*
X428456Y150699D02*
X452594D01*
X428906Y151149D02*
X452144D01*
X429356Y151599D02*
X451694D01*
X429806Y152049D02*
X451244D01*
X440996Y152499D02*
X450794D01*
X442015Y152949D02*
X450344D01*
X442485Y153399D02*
X449894D01*
X442775Y153849D02*
X449444D01*
X442952Y154299D02*
X448994D01*
X443038Y154749D02*
X448544D01*
X443042Y155199D02*
X448094D01*
X442966Y155649D02*
X447644D01*
X442801Y156099D02*
X447194D01*
X428193Y119649D02*
X446807D01*
X442526Y156549D02*
X446744D01*
X438683Y129549D02*
X446317D01*
X442084Y156999D02*
X446294D01*
X439009Y120549D02*
X445991D01*
X441212Y157449D02*
X445844D01*
X429277Y110649D02*
X445723D01*
X418458Y157899D02*
X445394D01*
X429612Y119199D02*
X445388D01*
X439800Y129099D02*
X445200D01*
X439966Y120999D02*
X445034D01*
X419704Y158349D02*
X444944D01*
X430121Y111099D02*
X444879D01*
X430335Y118749D02*
X444665D01*
X440463Y128649D02*
X444537D01*
X420397Y158799D02*
X444494D01*
X440579Y121449D02*
X444421D01*
X430690Y111549D02*
X444310D01*
X430848Y118299D02*
X444152D01*
X440944Y128199D02*
X444056D01*
X420894Y159249D02*
X444044D01*
X441032Y121899D02*
X443968D01*
X431117Y111999D02*
X443883D01*
X431238Y117849D02*
X443762D01*
X441312Y127749D02*
X443688D01*
X441381Y122349D02*
X443619D01*
X421274Y159699D02*
X443594D01*
X431447Y112449D02*
X443553D01*
X431542Y117399D02*
X443458D01*
X441600Y127299D02*
X443400D01*
X441653Y122799D02*
X443347D01*
X431704Y112899D02*
X443296D01*
X431777Y116949D02*
X443223D01*
X441821Y126849D02*
X443179D01*
X435487Y160149D02*
X443144D01*
X441862Y123249D02*
X443138D01*
X431900Y113349D02*
X443100D01*
X431955Y116499D02*
X443045D01*
X441987Y126399D02*
X443013D01*
X442016Y123699D02*
X442984D01*
X432044Y113799D02*
X442956D01*
X432082Y116049D02*
X442918D01*
X442103Y125949D02*
X442897D01*
X442122Y124149D02*
X442878D01*
X432140Y114249D02*
X442860D01*
X432162Y115599D02*
X442838D01*
X442173Y125499D02*
X442827D01*
X442183Y124599D02*
X442817D01*
X432190Y114699D02*
X442810D01*
X432198Y115149D02*
X442802D01*
X442200Y125049D02*
X442800D01*
X436199Y160599D02*
X442694D01*
X436597Y161049D02*
X442244D01*
X436845Y161499D02*
X441794D01*
X436990Y161949D02*
X441344D01*
X437048Y162399D02*
X440894D01*
X437026Y162849D02*
X440444D01*
X430256Y152499D02*
X440004D01*
X436922Y163299D02*
X439994D01*
X344309Y157449D02*
X439788D01*
X436723Y163749D02*
X439544D01*
X436402Y164199D02*
X439094D01*
X435873Y164649D02*
X438644D01*
X430706Y152949D02*
X438494D01*
X418861Y156999D02*
X438274D01*
X434972Y165099D02*
X438194D01*
X434239Y165549D02*
X437744D01*
X433759Y165999D02*
X437294D01*
X433309Y166449D02*
X436844D01*
X432859Y166899D02*
X436394D01*
X428683Y129549D02*
X436317D01*
X429009Y120549D02*
X435991D01*
X432409Y167349D02*
X435944D01*
X431959Y167799D02*
X435494D01*
X429800Y129099D02*
X435200D01*
X431509Y168249D02*
X435044D01*
X429966Y120999D02*
X435034D01*
X431059Y168699D02*
X434594D01*
X430463Y128649D02*
X434537D01*
X430579Y121449D02*
X434421D01*
X430609Y169149D02*
X434144D01*
X430944Y128199D02*
X434056D01*
X431032Y121899D02*
X433968D01*
X430159Y169599D02*
X433694D01*
X431312Y127749D02*
X433688D01*
X431381Y122349D02*
X433619D01*
X421570Y160149D02*
X433513D01*
X431600Y127299D02*
X433400D01*
X431653Y122799D02*
X433347D01*
X429709Y170049D02*
X433244D01*
X431821Y126849D02*
X433179D01*
X431862Y123249D02*
X433138D01*
X431987Y126399D02*
X433013D01*
X432016Y123699D02*
X432984D01*
X432103Y125949D02*
X432897D01*
X432122Y124149D02*
X432878D01*
X432173Y125499D02*
X432827D01*
X432183Y124599D02*
X432817D01*
X421798Y160599D02*
X432801D01*
X432200Y125049D02*
X432800D01*
X429259Y170499D02*
X432794D01*
X421970Y161049D02*
X432403D01*
X428805Y170949D02*
X432344D01*
X422092Y161499D02*
X432155D01*
X422168Y161949D02*
X431950D01*
X427944Y171399D02*
X431894D01*
X422199Y162399D02*
X431674D01*
X410909Y171849D02*
X431444D01*
X422187Y162849D02*
X431394D01*
X410459Y172299D02*
X430994D01*
X422132Y163299D02*
X430944D01*
X410009Y172749D02*
X430544D01*
X422031Y163749D02*
X430494D01*
X409559Y173199D02*
X430094D01*
X421882Y164199D02*
X430044D01*
X421680Y164649D02*
X429594D01*
X421416Y165099D02*
X429144D01*
X419887Y156549D02*
X428815D01*
X421077Y165549D02*
X428694D01*
X420523Y156099D02*
X428341D01*
X420638Y165999D02*
X428244D01*
X420989Y155649D02*
X427891D01*
X420049Y166449D02*
X427794D01*
X421348Y155199D02*
X427441D01*
X419156Y166899D02*
X427344D01*
X423506Y145749D02*
X427302D01*
X421627Y154749D02*
X426991D01*
X397507Y167349D02*
X426894D01*
X418193Y119649D02*
X426807D01*
X423956Y146199D02*
X426695D01*
X421842Y154299D02*
X426541D01*
X424406Y146649D02*
X426337D01*
X418683Y129549D02*
X426317D01*
X424856Y147099D02*
X426115D01*
X422002Y153849D02*
X426091D01*
X419009Y120549D02*
X425991D01*
X425306Y147549D02*
X425990D01*
X425756Y147999D02*
X425950D01*
X419277Y110649D02*
X425723D01*
X422113Y153399D02*
X425641D01*
X419612Y119199D02*
X425388D01*
X419800Y129099D02*
X425200D01*
X422179Y152949D02*
X425191D01*
X419966Y120999D02*
X425034D01*
X420121Y111099D02*
X424879D01*
X422200Y152499D02*
X424741D01*
X420335Y118749D02*
X424665D01*
X420463Y128649D02*
X424537D01*
X420579Y121449D02*
X424421D01*
X420690Y111549D02*
X424310D01*
X422178Y152049D02*
X424291D01*
X420848Y118299D02*
X424152D01*
X420944Y128199D02*
X424056D01*
X421032Y121899D02*
X423968D01*
X421117Y111999D02*
X423883D01*
X422113Y151599D02*
X423841D01*
X421238Y117849D02*
X423762D01*
X421312Y127749D02*
X423688D01*
X421381Y122349D02*
X423619D01*
X421447Y112449D02*
X423553D01*
X421542Y117399D02*
X423458D01*
X421600Y127299D02*
X423400D01*
X422002Y151149D02*
X423391D01*
X421653Y122799D02*
X423347D01*
X421704Y112899D02*
X423296D01*
X421777Y116949D02*
X423223D01*
X421821Y126849D02*
X423179D01*
X421862Y123249D02*
X423138D01*
X421900Y113349D02*
X423100D01*
X421955Y116499D02*
X423045D01*
X421987Y126399D02*
X423013D01*
X422016Y123699D02*
X422984D01*
X422044Y113799D02*
X422956D01*
X421841Y150699D02*
X422941D01*
X422082Y116049D02*
X422918D01*
X422103Y125949D02*
X422897D01*
X422122Y124149D02*
X422878D01*
X422140Y114249D02*
X422860D01*
X422162Y115599D02*
X422838D01*
X422173Y125499D02*
X422827D01*
X422183Y124599D02*
X422817D01*
X422190Y114699D02*
X422810D01*
X422198Y115149D02*
X422802D01*
X422200Y125049D02*
X422800D01*
X421626Y150249D02*
X422491D01*
X421346Y149799D02*
X422041D01*
X420987Y149349D02*
X421591D01*
X420520Y148899D02*
X421141D01*
X419883Y148449D02*
X420691D01*
X418852Y147999D02*
X420241D01*
X417251Y147549D02*
X419791D01*
X416131Y147099D02*
X419341D01*
X415011Y146649D02*
X418891D01*
X413956Y146199D02*
X418441D01*
X413506Y145749D02*
X417991D01*
X413056Y145299D02*
X417541D01*
X412606Y144849D02*
X417091D01*
X408193Y119649D02*
X416807D01*
X412156Y144399D02*
X416641D01*
X398458Y157899D02*
X416542D01*
X408683Y129549D02*
X416317D01*
X411706Y143949D02*
X416191D01*
X408861Y156999D02*
X416139D01*
X409009Y120549D02*
X415991D01*
X399156Y166899D02*
X415844D01*
X411256Y143499D02*
X415741D01*
X409277Y110649D02*
X415723D01*
X409612Y119199D02*
X415388D01*
X399704Y158349D02*
X415296D01*
X410806Y143049D02*
X415291D01*
X409800Y129099D02*
X415200D01*
X409887Y156549D02*
X415113D01*
X409966Y120999D02*
X415034D01*
X400049Y166449D02*
X414951D01*
X410121Y111099D02*
X414879D01*
X410356Y142599D02*
X414841D01*
X410335Y118749D02*
X414665D01*
X400397Y158799D02*
X414603D01*
X410463Y128649D02*
X414537D01*
X410523Y156099D02*
X414477D01*
X410579Y121449D02*
X414421D01*
X409906Y142149D02*
X414391D01*
X400638Y165999D02*
X414362D01*
X410690Y111549D02*
X414310D01*
X410848Y118299D02*
X414152D01*
X400894Y159249D02*
X414106D01*
X410944Y128199D02*
X414056D01*
X410989Y155649D02*
X414011D01*
X411032Y121899D02*
X413968D01*
X409456Y141699D02*
X413941D01*
X401077Y165549D02*
X413923D01*
X411117Y111999D02*
X413883D01*
X411238Y117849D02*
X413762D01*
X401274Y159699D02*
X413726D01*
X411312Y127749D02*
X413688D01*
X411348Y155199D02*
X413652D01*
X411381Y122349D02*
X413619D01*
X401416Y165099D02*
X413584D01*
X411447Y112449D02*
X413553D01*
X409006Y141249D02*
X413491D01*
X411542Y117399D02*
X413458D01*
X401570Y160149D02*
X413430D01*
X411600Y127299D02*
X413400D01*
X411627Y154749D02*
X413373D01*
X411653Y122799D02*
X413347D01*
X401680Y164649D02*
X413320D01*
X411704Y112899D02*
X413296D01*
X411777Y116949D02*
X413223D01*
X401798Y160599D02*
X413202D01*
X411821Y126849D02*
X413179D01*
X411842Y154299D02*
X413158D01*
X411862Y123249D02*
X413138D01*
X401882Y164199D02*
X413118D01*
X411900Y113349D02*
X413100D01*
X411955Y116499D02*
X413045D01*
X408453Y140799D02*
X413041D01*
X401970Y161049D02*
X413030D01*
X411987Y126399D02*
X413013D01*
X412002Y153849D02*
X412998D01*
X412016Y123699D02*
X412984D01*
X402031Y163749D02*
X412969D01*
X412044Y113799D02*
X412956D01*
X412082Y116049D02*
X412918D01*
X402092Y161499D02*
X412908D01*
X412103Y125949D02*
X412897D01*
X412113Y153399D02*
X412887D01*
X412122Y124149D02*
X412878D01*
X402132Y163299D02*
X412868D01*
X412140Y114249D02*
X412860D01*
X412162Y115599D02*
X412838D01*
X402168Y161949D02*
X412832D01*
X412173Y125499D02*
X412827D01*
X412179Y152949D02*
X412821D01*
X412183Y124599D02*
X412817D01*
X402187Y162849D02*
X412813D01*
X412190Y114699D02*
X412810D01*
X412198Y115149D02*
X412802D01*
X402199Y162399D02*
X412801D01*
X412200Y125049D02*
X412800D01*
X412200Y152499D02*
X412648D01*
X399087Y140349D02*
X412591D01*
X412178Y152049D02*
X412467D01*
X412113Y151599D02*
X412287D01*
X387656Y139899D02*
X412141D01*
X412002Y151149D02*
X412106D01*
X411841Y150699D02*
X411925D01*
X411626Y150249D02*
X411744D01*
X387206Y139449D02*
X411691D01*
X411346Y149799D02*
X411563D01*
X410987Y149349D02*
X411383D01*
X386756Y138999D02*
X411241D01*
X410520Y148899D02*
X411141D01*
X409883Y148449D02*
X410691D01*
X408852Y147999D02*
X410241D01*
X397251Y147549D02*
X409791D01*
X396387Y167799D02*
X409547D01*
X396131Y147099D02*
X409341D01*
X395266Y168249D02*
X408994D01*
X395011Y146649D02*
X408891D01*
X394146Y168699D02*
X408544D01*
X393956Y146199D02*
X408441D01*
X393609Y169149D02*
X408094D01*
X393506Y145749D02*
X407991D01*
X393159Y169599D02*
X407644D01*
X393056Y145299D02*
X407541D01*
X392709Y170049D02*
X407194D01*
X398493Y144849D02*
X407091D01*
X388193Y119649D02*
X406807D01*
X392259Y170499D02*
X406744D01*
X398683Y129549D02*
X406317D01*
X391809Y170949D02*
X406294D01*
X398852Y147999D02*
X406148D01*
X398861Y156999D02*
X406139D01*
X399009Y120549D02*
X405991D01*
X391359Y171399D02*
X405844D01*
X389277Y110649D02*
X405723D01*
X390909Y171849D02*
X405394D01*
X389612Y119199D02*
X405388D01*
X399800Y129099D02*
X405200D01*
X399883Y148449D02*
X405117D01*
X399887Y156549D02*
X405113D01*
X399966Y120999D02*
X405034D01*
X390253Y172299D02*
X404944D01*
X390121Y111099D02*
X404879D01*
X390335Y118749D02*
X404665D01*
X400463Y128649D02*
X404537D01*
X329009Y172749D02*
X404494D01*
X400520Y148899D02*
X404480D01*
X400523Y156099D02*
X404477D01*
X400579Y121449D02*
X404421D01*
X390690Y111549D02*
X404310D01*
X390848Y118299D02*
X404152D01*
X400944Y128199D02*
X404056D01*
X328559Y173199D02*
X404044D01*
X400987Y149349D02*
X404013D01*
X400989Y155649D02*
X404011D01*
X401032Y121899D02*
X403968D01*
X391117Y111999D02*
X403883D01*
X391238Y117849D02*
X403762D01*
X401312Y127749D02*
X403688D01*
X401346Y149799D02*
X403654D01*
X401348Y155199D02*
X403652D01*
X401381Y122349D02*
X403619D01*
X391447Y112449D02*
X403553D01*
X391542Y117399D02*
X403458D01*
X401600Y127299D02*
X403400D01*
X401626Y150249D02*
X403374D01*
X401627Y154749D02*
X403373D01*
X401653Y122799D02*
X403347D01*
X391704Y112899D02*
X403296D01*
X391777Y116949D02*
X403223D01*
X401821Y126849D02*
X403179D01*
X401841Y150699D02*
X403159D01*
X401842Y154299D02*
X403158D01*
X401862Y123249D02*
X403138D01*
X391900Y113349D02*
X403100D01*
X391955Y116499D02*
X403045D01*
X401987Y126399D02*
X403013D01*
X402002Y151149D02*
X402998D01*
X402002Y153849D02*
X402998D01*
X402016Y123699D02*
X402984D01*
X392044Y113799D02*
X402956D01*
X392082Y116049D02*
X402918D01*
X402103Y125949D02*
X402897D01*
X402113Y151599D02*
X402887D01*
X402113Y153399D02*
X402887D01*
X402122Y124149D02*
X402878D01*
X392140Y114249D02*
X402860D01*
X392162Y115599D02*
X402838D01*
X402173Y125499D02*
X402827D01*
X402178Y152049D02*
X402822D01*
X402179Y152949D02*
X402821D01*
X402183Y124599D02*
X402817D01*
X392190Y114699D02*
X402810D01*
X392198Y115149D02*
X402802D01*
X402200Y125049D02*
X402800D01*
X402200Y152499D02*
X402800D01*
X388458Y157899D02*
X396542D01*
X392606Y144849D02*
X396507D01*
X388683Y129549D02*
X396317D01*
X388861Y156999D02*
X396139D01*
X388106Y140349D02*
X396131D01*
X389009Y120549D02*
X395991D01*
X392156Y144399D02*
X395798D01*
X388556Y140799D02*
X395600D01*
X391706Y143949D02*
X395401D01*
X389704Y158349D02*
X395296D01*
X389006Y141249D02*
X395278D01*
X389800Y129099D02*
X395200D01*
X391256Y143499D02*
X395154D01*
X389887Y156549D02*
X395113D01*
X389456Y141699D02*
X395079D01*
X389966Y120999D02*
X395034D01*
X390806Y143049D02*
X395010D01*
X389906Y142149D02*
X394974D01*
X390356Y142599D02*
X394952D01*
X390397Y158799D02*
X394603D01*
X390463Y128649D02*
X394537D01*
X390523Y156099D02*
X394477D01*
X390579Y121449D02*
X394421D01*
X390894Y159249D02*
X394106D01*
X390944Y128199D02*
X394056D01*
X390989Y155649D02*
X394011D01*
X391032Y121899D02*
X393968D01*
X391274Y159699D02*
X393726D01*
X391312Y127749D02*
X393688D01*
X391348Y155199D02*
X393652D01*
X391381Y122349D02*
X393619D01*
X391570Y160149D02*
X393430D01*
X391600Y127299D02*
X393400D01*
X391627Y154749D02*
X393373D01*
X391653Y122799D02*
X393347D01*
X391798Y160599D02*
X393202D01*
X391821Y126849D02*
X393179D01*
X391842Y154299D02*
X393158D01*
X391862Y123249D02*
X393138D01*
X391970Y161049D02*
X393030D01*
X391987Y126399D02*
X393013D01*
X392002Y153849D02*
X392998D01*
X392016Y123699D02*
X392984D01*
X392092Y161499D02*
X392908D01*
X392103Y125949D02*
X392897D01*
X392113Y153399D02*
X392887D01*
X392122Y124149D02*
X392878D01*
X392168Y161949D02*
X392832D01*
X392173Y125499D02*
X392827D01*
X392179Y152949D02*
X392821D01*
X392183Y124599D02*
X392817D01*
X392200Y125049D02*
X392800D01*
X392199Y162399D02*
X392689D01*
X392200Y152499D02*
X392648D01*
X392187Y162849D02*
X392508D01*
X392178Y152049D02*
X392467D01*
X392132Y163299D02*
X392328D01*
X392113Y151599D02*
X392287D01*
X392031Y163749D02*
X392147D01*
X392002Y151149D02*
X392106D01*
X391882Y164199D02*
X391966D01*
X391841Y150699D02*
X391925D01*
X391680Y164649D02*
X391785D01*
X391626Y150249D02*
X391744D01*
X391416Y165099D02*
X391605D01*
X391346Y149799D02*
X391563D01*
X391077Y165549D02*
X391424D01*
X390987Y149349D02*
X391383D01*
X390638Y165999D02*
X391243D01*
X390520Y148899D02*
X391141D01*
X390049Y166449D02*
X390794D01*
X389883Y148449D02*
X390691D01*
X389156Y166899D02*
X390344D01*
X388852Y147999D02*
X390241D01*
X371405Y167349D02*
X389894D01*
X387251Y147549D02*
X389791D01*
X371195Y167799D02*
X389444D01*
X386131Y147099D02*
X389341D01*
X370856Y168249D02*
X388994D01*
X385011Y146649D02*
X388891D01*
X383956Y146199D02*
X388441D01*
X383506Y145749D02*
X387991D01*
X383056Y145299D02*
X387541D01*
X382606Y144849D02*
X387091D01*
X215500Y119649D02*
X386807D01*
X382156Y144399D02*
X386641D01*
X343859Y157899D02*
X386542D01*
X337306Y129549D02*
X386317D01*
X386306Y138549D02*
X386315D01*
X381706Y143949D02*
X386191D01*
X344759Y156999D02*
X386139D01*
X215500Y120549D02*
X385991D01*
X371519Y166899D02*
X385844D01*
X381256Y143499D02*
X385741D01*
X215500Y110649D02*
X385723D01*
X350106Y119199D02*
X385388D01*
X343443Y158349D02*
X385296D01*
X380806Y143049D02*
X385291D01*
X350917Y129099D02*
X385200D01*
X345582Y156549D02*
X385113D01*
X351277Y120999D02*
X385034D01*
X371550Y166449D02*
X384951D01*
X351556Y111099D02*
X384879D01*
X380356Y142599D02*
X384841D01*
X351894Y118749D02*
X384665D01*
X343749Y158799D02*
X384603D01*
X352080Y128649D02*
X384537D01*
X346948Y156099D02*
X384477D01*
X352242Y121449D02*
X384421D01*
X379906Y142149D02*
X384391D01*
X371500Y165999D02*
X384362D01*
X352393Y111549D02*
X384310D01*
X352600Y118299D02*
X384152D01*
X343937Y159249D02*
X384106D01*
X352722Y128199D02*
X384056D01*
X347445Y155649D02*
X384011D01*
X352832Y121899D02*
X383968D01*
X379456Y141699D02*
X383941D01*
X371366Y165549D02*
X383923D01*
X352938Y111999D02*
X383883D01*
X353086Y117849D02*
X383762D01*
X344032Y159699D02*
X383726D01*
X353176Y127749D02*
X383688D01*
X347751Y155199D02*
X383652D01*
X353257Y122349D02*
X383619D01*
X371130Y165099D02*
X383584D01*
X353336Y112449D02*
X383553D01*
X379006Y141249D02*
X383491D01*
X353448Y117399D02*
X383458D01*
X344046Y160149D02*
X383430D01*
X353515Y127299D02*
X383400D01*
X347938Y154749D02*
X383373D01*
X353577Y122799D02*
X383347D01*
X370754Y164649D02*
X383320D01*
X353637Y112899D02*
X383296D01*
X353721Y116949D02*
X383223D01*
X343979Y160599D02*
X383202D01*
X353771Y126849D02*
X383179D01*
X348032Y154299D02*
X383158D01*
X353817Y123249D02*
X383138D01*
X370098Y164199D02*
X383118D01*
X353862Y113349D02*
X383100D01*
X353924Y116499D02*
X383045D01*
X378556Y140799D02*
X383041D01*
X364203Y161049D02*
X383030D01*
X353960Y126399D02*
X383013D01*
X348046Y153849D02*
X382998D01*
X353993Y123699D02*
X382984D01*
X366038Y163749D02*
X382969D01*
X354025Y113799D02*
X382956D01*
X354067Y116049D02*
X382918D01*
X365080Y161499D02*
X382908D01*
X354091Y125949D02*
X382897D01*
X347978Y153399D02*
X382887D01*
X354113Y124149D02*
X382878D01*
X366042Y163299D02*
X382868D01*
X354132Y114249D02*
X382860D01*
X354157Y115599D02*
X382838D01*
X365524Y161949D02*
X382832D01*
X354170Y125499D02*
X382827D01*
X347823Y152949D02*
X382821D01*
X354181Y124599D02*
X382817D01*
X365965Y162849D02*
X382813D01*
X354189Y114699D02*
X382810D01*
X354197Y115149D02*
X382802D01*
X365800Y162399D02*
X382801D01*
X354200Y125049D02*
X382800D01*
X347561Y152499D02*
X382648D01*
X378106Y140349D02*
X382591D01*
X347142Y152049D02*
X382467D01*
X346358Y151599D02*
X382287D01*
X377656Y139899D02*
X382141D01*
X318987Y151149D02*
X382106D01*
X307456Y150699D02*
X381925D01*
X307006Y150249D02*
X381744D01*
X376997Y139449D02*
X381691D01*
X306556Y149799D02*
X381563D01*
X306106Y149349D02*
X381383D01*
X344501Y138999D02*
X381241D01*
X305656Y148899D02*
X381141D01*
X344550Y138549D02*
X380791D01*
X305206Y148449D02*
X380691D01*
X344518Y138099D02*
X380341D01*
X304756Y147999D02*
X380241D01*
X328109Y173649D02*
X380021D01*
X336490Y197049D02*
X380000D01*
X336548Y196599D02*
X380000D01*
X336526Y196149D02*
X380000D01*
X336421Y195699D02*
X380000D01*
X336222Y195249D02*
X380000D01*
X335900Y194799D02*
X380000D01*
X335369Y194349D02*
X380000D01*
X315859Y193899D02*
X380000D01*
X316309Y193449D02*
X380000D01*
X316759Y192999D02*
X380000D01*
X317209Y192549D02*
X380000D01*
X333117Y192099D02*
X380000D01*
X333609Y191649D02*
X380000D01*
X334059Y191199D02*
X380000D01*
X334509Y190749D02*
X380000D01*
X334959Y190299D02*
X380000D01*
X335409Y189849D02*
X380000D01*
X335859Y189399D02*
X380000D01*
X336309Y188949D02*
X380000D01*
X336759Y188499D02*
X380000D01*
X337209Y188049D02*
X380000D01*
X337659Y187599D02*
X380000D01*
X338076Y187149D02*
X380000D01*
X338321Y186699D02*
X380000D01*
X338434Y186249D02*
X380000D01*
X338450Y185799D02*
X380000D01*
X338450Y185349D02*
X380000D01*
X338450Y184899D02*
X380000D01*
X338450Y184449D02*
X380000D01*
X338450Y183999D02*
X380000D01*
X338450Y183549D02*
X380000D01*
X338450Y183099D02*
X380000D01*
X338450Y182649D02*
X380000D01*
X338450Y182199D02*
X380000D01*
X338450Y181749D02*
X380000D01*
X338440Y181299D02*
X380000D01*
X338338Y180849D02*
X380000D01*
X338109Y180399D02*
X380000D01*
X337706Y179949D02*
X380000D01*
X337256Y179499D02*
X380000D01*
X336806Y179049D02*
X380000D01*
X336356Y178599D02*
X380000D01*
X335754Y178149D02*
X380000D01*
X335098Y177699D02*
X380000D01*
X324509Y177249D02*
X380000D01*
X324959Y176799D02*
X380000D01*
X325409Y176349D02*
X380000D01*
X325859Y175899D02*
X380000D01*
X326309Y175449D02*
X380000D01*
X326759Y174999D02*
X380000D01*
X327209Y174549D02*
X380000D01*
X327659Y174099D02*
X380000D01*
X344404Y137649D02*
X379891D01*
X304306Y147549D02*
X379791D01*
X336346Y197499D02*
X379744D01*
X344193Y137199D02*
X379441D01*
X303856Y147099D02*
X379341D01*
X336099Y197949D02*
X379294D01*
X343854Y136749D02*
X378991D01*
X350373Y146649D02*
X378891D01*
X335702Y198399D02*
X378844D01*
X350902Y146199D02*
X378441D01*
X334993Y198849D02*
X378394D01*
X351223Y145749D02*
X377991D01*
X321921Y199299D02*
X377944D01*
X351422Y145299D02*
X377541D01*
X322012Y199749D02*
X377494D01*
X351526Y144849D02*
X377091D01*
X322020Y200199D02*
X377044D01*
X351548Y144399D02*
X376641D01*
X321949Y200649D02*
X376594D01*
X351490Y143949D02*
X376191D01*
X344358Y201099D02*
X376144D01*
X351345Y143499D02*
X375741D01*
X345142Y201549D02*
X375694D01*
X345561Y201999D02*
X375244D01*
X345823Y202449D02*
X374794D01*
X345978Y202899D02*
X374344D01*
X346046Y203349D02*
X373894D01*
X346032Y203799D02*
X373444D01*
X345938Y204249D02*
X372994D01*
X345751Y204699D02*
X372544D01*
X345445Y205149D02*
X372094D01*
X344948Y205599D02*
X371644D01*
X343582Y206049D02*
X371194D01*
X336256Y206499D02*
X370744D01*
X336706Y206949D02*
X370294D01*
X337156Y207399D02*
X369844D01*
X337606Y207849D02*
X369394D01*
X338056Y208299D02*
X368944D01*
X338506Y208749D02*
X368494D01*
X338956Y209199D02*
X368044D01*
X365952Y164199D02*
X367902D01*
X339406Y209649D02*
X367594D01*
X339856Y210099D02*
X367144D01*
X340306Y210549D02*
X366694D01*
X340756Y210999D02*
X366244D01*
X341206Y211449D02*
X365794D01*
X341656Y211899D02*
X365344D01*
X342106Y212349D02*
X364894D01*
X342556Y212799D02*
X364444D01*
X344698Y213249D02*
X363994D01*
X345305Y213699D02*
X363544D01*
X345663Y214149D02*
X363094D01*
X343824Y161049D02*
X362797D01*
X345885Y214599D02*
X362644D01*
X346010Y215049D02*
X362194D01*
X346050Y215499D02*
X361744D01*
X346010Y215949D02*
X361294D01*
X343563Y161499D02*
X361285D01*
X345886Y216399D02*
X360844D01*
X345664Y216849D02*
X360394D01*
X345308Y217299D02*
X359944D01*
X344703Y217749D02*
X359494D01*
X307431Y218199D02*
X359044D01*
X330487Y218649D02*
X358594D01*
X331199Y219099D02*
X358144D01*
X331597Y219549D02*
X357694D01*
X331845Y219999D02*
X357244D01*
X331990Y220449D02*
X356794D01*
X332048Y220899D02*
X356344D01*
X332026Y221349D02*
X355894D01*
X314104Y226299D02*
X355494D01*
X331922Y221799D02*
X355444D01*
X307450Y226749D02*
X355044D01*
X307442Y227199D02*
X354594D01*
X307363Y227649D02*
X354144D01*
X317858Y228099D02*
X353694D01*
X318642Y228549D02*
X353244D01*
X319061Y228999D02*
X352794D01*
X340106Y119199D02*
X349894D01*
X340917Y129099D02*
X349083D01*
X341277Y120999D02*
X348723D01*
X341556Y111099D02*
X348444D01*
X341894Y118749D02*
X348106D01*
X342080Y128649D02*
X347920D01*
X342242Y121449D02*
X347758D01*
X303406Y146649D02*
X347627D01*
X342393Y111549D02*
X347607D01*
X342600Y118299D02*
X347400D01*
X342722Y128199D02*
X347278D01*
X342832Y121899D02*
X347168D01*
X302956Y146199D02*
X347098D01*
X342938Y111999D02*
X347062D01*
X343086Y117849D02*
X346914D01*
X343176Y127749D02*
X346824D01*
X302358Y145749D02*
X346777D01*
X343257Y122349D02*
X346743D01*
X343336Y112449D02*
X346664D01*
X288756Y143499D02*
X346655D01*
X290556Y145299D02*
X346578D01*
X343448Y117399D02*
X346552D01*
X289206Y143949D02*
X346510D01*
X343515Y127299D02*
X346485D01*
X290106Y144849D02*
X346474D01*
X289656Y144399D02*
X346452D01*
X343577Y122799D02*
X346423D01*
X343637Y112899D02*
X346363D01*
X343721Y116949D02*
X346279D01*
X343771Y126849D02*
X346229D01*
X343817Y123249D02*
X346183D01*
X343862Y113349D02*
X346138D01*
X343924Y116499D02*
X346076D01*
X343960Y126399D02*
X346040D01*
X343993Y123699D02*
X346007D01*
X344025Y113799D02*
X345975D01*
X344067Y116049D02*
X345933D01*
X344091Y125949D02*
X345909D01*
X344113Y124149D02*
X345887D01*
X344132Y114249D02*
X345868D01*
X344157Y115599D02*
X345843D01*
X344170Y125499D02*
X345830D01*
X344181Y124599D02*
X345819D01*
X344189Y114699D02*
X345811D01*
X344197Y115149D02*
X345803D01*
X344200Y125049D02*
X345800D01*
X345209Y156549D02*
X345418D01*
X319699Y151599D02*
X344642D01*
X320097Y152049D02*
X343858D01*
X320345Y152499D02*
X343439D01*
X335806Y206049D02*
X343418D01*
X320490Y152949D02*
X343177D01*
X320548Y153399D02*
X342844D01*
X320526Y153849D02*
X342394D01*
X307332Y217749D02*
X342297D01*
X335356Y205599D02*
X342052D01*
X320422Y154299D02*
X341944D01*
X307135Y217299D02*
X341692D01*
X334906Y205149D02*
X341555D01*
X320223Y154749D02*
X341494D01*
X306810Y216849D02*
X341091D01*
X306364Y216399D02*
X340641D01*
X305914Y215949D02*
X340191D01*
X320106Y119199D02*
X339894D01*
X321509Y215499D02*
X339741D01*
X322518Y215049D02*
X339291D01*
X336856Y129099D02*
X339083D01*
X322987Y214599D02*
X338841D01*
X331277Y120999D02*
X338723D01*
X321556Y111099D02*
X338444D01*
X323277Y214149D02*
X338391D01*
X321894Y118749D02*
X338106D01*
X323452Y213699D02*
X337941D01*
X336406Y128649D02*
X337920D01*
X332242Y121449D02*
X337758D01*
X322393Y111549D02*
X337607D01*
X323538Y213249D02*
X337491D01*
X322600Y118299D02*
X337400D01*
X335956Y128199D02*
X337278D01*
X332832Y121899D02*
X337168D01*
X322938Y111999D02*
X337062D01*
X323542Y212799D02*
X337041D01*
X323086Y117849D02*
X336914D01*
X335525Y127749D02*
X336824D01*
X333257Y122349D02*
X336743D01*
X323336Y112449D02*
X336664D01*
X323465Y212349D02*
X336591D01*
X323448Y117399D02*
X336552D01*
X335335Y127299D02*
X336485D01*
X333577Y122799D02*
X336423D01*
X323637Y112899D02*
X336363D01*
X323721Y116949D02*
X336279D01*
X335145Y126849D02*
X336229D01*
X333817Y123249D02*
X336183D01*
X323300Y211899D02*
X336141D01*
X323862Y113349D02*
X336138D01*
X323924Y116499D02*
X336076D01*
X334956Y126399D02*
X336040D01*
X333993Y123699D02*
X336007D01*
X324025Y113799D02*
X335975D01*
X324067Y116049D02*
X335933D01*
X334766Y125949D02*
X335909D01*
X334113Y124149D02*
X335887D01*
X324132Y114249D02*
X335868D01*
X324157Y115599D02*
X335843D01*
X334576Y125499D02*
X335830D01*
X334197Y124599D02*
X335819D01*
X324189Y114699D02*
X335811D01*
X324197Y115149D02*
X335803D01*
X334387Y125049D02*
X335800D01*
X323024Y211449D02*
X335691D01*
X322580Y210999D02*
X335241D01*
X321703Y210549D02*
X334791D01*
X309856Y210099D02*
X334341D01*
X309406Y209649D02*
X333891D01*
X308956Y209199D02*
X333441D01*
X321740Y198849D02*
X333007D01*
X308506Y208749D02*
X332991D01*
X324059Y177699D02*
X332902D01*
X308056Y208299D02*
X332541D01*
X315409Y194349D02*
X332413D01*
X323609Y178149D02*
X332246D01*
X307606Y207849D02*
X332091D01*
X323159Y178599D02*
X331870D01*
X322685Y179049D02*
X331634D01*
X307988Y179499D02*
X331500D01*
X309280Y180399D02*
X331481D01*
X308049Y179949D02*
X331450D01*
X312703Y129549D02*
X329797D01*
X320917Y129099D02*
X329083D01*
X313580Y129999D02*
X328920D01*
X321277Y120999D02*
X328723D01*
X307450Y218649D02*
X328513D01*
X314024Y130449D02*
X328476D01*
X314300Y130899D02*
X328200D01*
X314465Y131349D02*
X328012D01*
X322080Y128649D02*
X327920D01*
X307450Y219099D02*
X327801D01*
X322242Y121449D02*
X327758D01*
X314542Y131799D02*
X327735D01*
X281561Y188499D02*
X327710D01*
X281142Y188049D02*
X327525D01*
X314538Y132249D02*
X327459D01*
X280358Y187599D02*
X327452D01*
X307450Y219549D02*
X327403D01*
X269906Y187149D02*
X327316D01*
X322722Y128199D02*
X327278D01*
X322832Y121899D02*
X327168D01*
X307450Y219999D02*
X327155D01*
X314378Y221799D02*
X327078D01*
X314452Y132699D02*
X327044D01*
X269456Y186699D02*
X327040D01*
X307450Y220449D02*
X327010D01*
X307450Y221349D02*
X326974D01*
X307450Y220899D02*
X326952D01*
X269006Y186249D02*
X326868D01*
X307888Y184899D02*
X326831D01*
X323176Y127749D02*
X326824D01*
X307148Y185799D02*
X326780D01*
X307626Y185349D02*
X326768D01*
X323257Y122349D02*
X326743D01*
X323515Y127299D02*
X326485D01*
X323577Y122799D02*
X326423D01*
X323771Y126849D02*
X326229D01*
X323817Y123249D02*
X326183D01*
X323960Y126399D02*
X326040D01*
X323993Y123699D02*
X326007D01*
X324091Y125949D02*
X325909D01*
X324113Y124149D02*
X325887D01*
X324170Y125499D02*
X325830D01*
X324181Y124599D02*
X325819D01*
X324200Y125049D02*
X325800D01*
X305464Y215499D02*
X320491D01*
X310306Y210549D02*
X320297D01*
X310106Y119199D02*
X319894D01*
X298106Y167349D02*
X319894D01*
X298556Y167799D02*
X319444D01*
X310917Y129099D02*
X319083D01*
X299006Y168249D02*
X318994D01*
X305014Y215049D02*
X318983D01*
X310756Y210999D02*
X318785D01*
X311277Y120999D02*
X318723D01*
X297656Y166899D02*
X318635D01*
X299456Y168699D02*
X318544D01*
X311556Y111099D02*
X318444D01*
X311894Y118749D02*
X318106D01*
X299906Y169149D02*
X318094D01*
X312080Y128649D02*
X317920D01*
X297206Y166449D02*
X317855D01*
X312242Y121449D02*
X317758D01*
X315858Y169599D02*
X317644D01*
X312393Y111549D02*
X317607D01*
X296756Y165999D02*
X317437D01*
X312600Y118299D02*
X317400D01*
X312722Y128199D02*
X317278D01*
X316642Y170049D02*
X317194D01*
X296306Y165549D02*
X317176D01*
X312832Y121899D02*
X317168D01*
X294506Y163749D02*
X317063D01*
X312938Y111999D02*
X317062D01*
X295856Y165099D02*
X317021D01*
X307906Y151149D02*
X317013D01*
X294956Y164199D02*
X316968D01*
X295406Y164649D02*
X316954D01*
X313086Y117849D02*
X316914D01*
X313176Y127749D02*
X316824D01*
X313257Y122349D02*
X316743D01*
X313336Y112449D02*
X316664D01*
X313448Y117399D02*
X316552D01*
X313515Y127299D02*
X316485D01*
X313577Y122799D02*
X316423D01*
X313637Y112899D02*
X316363D01*
X308356Y151599D02*
X316301D01*
X313721Y116949D02*
X316279D01*
X313771Y126849D02*
X316229D01*
X313817Y123249D02*
X316183D01*
X307190Y228099D02*
X316142D01*
X313862Y113349D02*
X316138D01*
X313924Y116499D02*
X316076D01*
X313960Y126399D02*
X316040D01*
X313993Y123699D02*
X316007D01*
X314025Y113799D02*
X315975D01*
X314067Y116049D02*
X315933D01*
X314091Y125949D02*
X315909D01*
X308806Y152049D02*
X315903D01*
X314113Y124149D02*
X315887D01*
X314132Y114249D02*
X315868D01*
X314157Y115599D02*
X315843D01*
X314170Y125499D02*
X315830D01*
X314181Y124599D02*
X315819D01*
X314189Y114699D02*
X315811D01*
X314197Y115149D02*
X315803D01*
X314200Y125049D02*
X315800D01*
X311299Y154749D02*
X315777D01*
X309256Y152499D02*
X315655D01*
X311036Y154299D02*
X315578D01*
X309706Y152949D02*
X315510D01*
X310606Y153849D02*
X315474D01*
X310156Y153399D02*
X315452D01*
X306898Y228549D02*
X315358D01*
X281823Y188949D02*
X315318D01*
X306466Y228999D02*
X314939D01*
X281978Y189399D02*
X314844D01*
X282046Y189849D02*
X314394D01*
X300356Y169599D02*
X314142D01*
X308644Y190299D02*
X313944D01*
X309124Y190749D02*
X313494D01*
X309387Y191199D02*
X313044D01*
X309520Y191649D02*
X312594D01*
X300806Y170049D02*
X312576D01*
X307156Y207399D02*
X312556D01*
X309548Y192099D02*
X312144D01*
X307450Y226299D02*
X311896D01*
X307450Y221799D02*
X311713D01*
X306706Y206949D02*
X311695D01*
X309475Y192549D02*
X311694D01*
X303806Y129549D02*
X311297D01*
X307450Y225849D02*
X311244D01*
X309290Y192999D02*
X311244D01*
X306256Y206499D02*
X311241D01*
X307450Y222249D02*
X311146D01*
X307450Y225399D02*
X310868D01*
X307450Y222699D02*
X310807D01*
X308950Y193449D02*
X310794D01*
X305950Y206049D02*
X310791D01*
X307450Y224949D02*
X310633D01*
X307450Y223149D02*
X310596D01*
X307450Y224499D02*
X310499D01*
X307450Y223599D02*
X310482D01*
X307450Y224049D02*
X310450D01*
X308273Y193899D02*
X310344D01*
X305950Y205599D02*
X310341D01*
X300106Y119199D02*
X309894D01*
X305950Y205149D02*
X309891D01*
X304256Y129999D02*
X309785D01*
X305950Y204699D02*
X309441D01*
X303356Y129099D02*
X309083D01*
X305950Y204249D02*
X308991D01*
X304564Y214599D02*
X308883D01*
X301277Y120999D02*
X308723D01*
X301556Y111099D02*
X308444D01*
X308020Y184449D02*
X308428D01*
X304114Y214149D02*
X308391D01*
X301894Y118749D02*
X308106D01*
X303664Y213699D02*
X307941D01*
X302906Y128649D02*
X307920D01*
X302242Y121449D02*
X307758D01*
X302393Y111549D02*
X307607D01*
X303214Y213249D02*
X307491D01*
X302600Y118299D02*
X307400D01*
X302722Y128199D02*
X307278D01*
X302832Y121899D02*
X307168D01*
X302938Y111999D02*
X307062D01*
X302764Y212799D02*
X307041D01*
X303086Y117849D02*
X306914D01*
X303176Y127749D02*
X306824D01*
X303257Y122349D02*
X306743D01*
X303336Y112449D02*
X306664D01*
X302314Y212349D02*
X306591D01*
X303448Y117399D02*
X306552D01*
X303515Y127299D02*
X306485D01*
X303577Y122799D02*
X306423D01*
X303637Y112899D02*
X306363D01*
X282032Y190299D02*
X306356D01*
X303721Y116949D02*
X306279D01*
X303771Y126849D02*
X306229D01*
X303817Y123249D02*
X306183D01*
X301864Y211899D02*
X306141D01*
X303862Y113349D02*
X306138D01*
X303924Y116499D02*
X306076D01*
X303960Y126399D02*
X306040D01*
X303993Y123699D02*
X306007D01*
X304025Y113799D02*
X305975D01*
X304067Y116049D02*
X305933D01*
X304091Y125949D02*
X305909D01*
X304113Y124149D02*
X305887D01*
X281938Y190749D02*
X305876D01*
X304132Y114249D02*
X305868D01*
X304157Y115599D02*
X305843D01*
X304170Y125499D02*
X305830D01*
X304181Y124599D02*
X305819D01*
X304189Y114699D02*
X305811D01*
X304197Y115149D02*
X305803D01*
X304200Y125049D02*
X305800D01*
X301414Y211449D02*
X305691D01*
X281979Y191199D02*
X305613D01*
X282542Y191649D02*
X305480D01*
X300964Y210999D02*
X305241D01*
X268556Y185799D02*
X304852D01*
X300514Y210549D02*
X304791D01*
X282841Y192099D02*
X304567D01*
X268106Y185349D02*
X304374D01*
X300045Y210099D02*
X304341D01*
X294056Y163299D02*
X304247D01*
X267656Y184899D02*
X304041D01*
X299188Y209649D02*
X303891D01*
X283000Y192549D02*
X303698D01*
X267206Y184449D02*
X303591D01*
X293606Y162849D02*
X303591D01*
X295341Y209199D02*
X303441D01*
X283050Y192999D02*
X303244D01*
X266756Y183999D02*
X303141D01*
X293156Y162399D02*
X303141D01*
X287937Y208749D02*
X302991D01*
X283000Y193449D02*
X302794D01*
X266306Y183549D02*
X302691D01*
X292706Y161949D02*
X302691D01*
X287848Y208299D02*
X302545D01*
X282843Y193899D02*
X302391D01*
X287663Y207849D02*
X302244D01*
X265856Y183099D02*
X302241D01*
X292256Y161499D02*
X302241D01*
X282544Y194349D02*
X302162D01*
X287354Y207399D02*
X302091D01*
X281984Y194799D02*
X302060D01*
X286914Y206949D02*
X302050D01*
X286464Y206499D02*
X302050D01*
X286014Y206049D02*
X302050D01*
X285564Y205599D02*
X302050D01*
X285114Y205149D02*
X302050D01*
X284664Y204699D02*
X302050D01*
X284214Y204249D02*
X302050D01*
X283764Y203799D02*
X302050D01*
X283314Y203349D02*
X302050D01*
X282864Y202899D02*
X302050D01*
X282414Y202449D02*
X302050D01*
X281913Y201999D02*
X302050D01*
X248306Y201549D02*
X302050D01*
X247856Y201099D02*
X302050D01*
X281718Y200649D02*
X302050D01*
X282163Y200199D02*
X302050D01*
X282408Y199749D02*
X302050D01*
X282528Y199299D02*
X302050D01*
X282544Y198849D02*
X302050D01*
X282999Y198399D02*
X302050D01*
X283317Y197949D02*
X302050D01*
X283488Y197499D02*
X302050D01*
X283549Y197049D02*
X302050D01*
X283510Y196599D02*
X302050D01*
X283365Y196149D02*
X302050D01*
X283084Y195699D02*
X302050D01*
X282566Y195249D02*
X302050D01*
X266373Y182649D02*
X301791D01*
X291806Y161049D02*
X301791D01*
X299956Y132699D02*
X301441D01*
X266902Y182199D02*
X301341D01*
X291356Y160599D02*
X301341D01*
X299506Y132249D02*
X300991D01*
X290906Y160149D02*
X300891D01*
X299056Y131799D02*
X300541D01*
X290456Y159699D02*
X300441D01*
X298606Y131349D02*
X300091D01*
X290006Y159249D02*
X299991D01*
X290106Y119199D02*
X299894D01*
X298113Y130899D02*
X299641D01*
X289556Y158799D02*
X299541D01*
X284706Y130449D02*
X299191D01*
X289106Y158349D02*
X299091D01*
X284256Y129999D02*
X298741D01*
X291277Y120999D02*
X298723D01*
X288656Y157899D02*
X298641D01*
X291556Y111099D02*
X298444D01*
X283806Y129549D02*
X298356D01*
X288206Y157449D02*
X298191D01*
X290917Y129099D02*
X298144D01*
X291894Y118749D02*
X298106D01*
X292080Y128649D02*
X297920D01*
X296105Y209649D02*
X297812D01*
X292242Y121449D02*
X297758D01*
X287756Y156999D02*
X297741D01*
X292393Y111549D02*
X297607D01*
X292600Y118299D02*
X297400D01*
X287306Y156549D02*
X297291D01*
X292722Y128199D02*
X297278D01*
X292832Y121899D02*
X297168D01*
X292938Y111999D02*
X297062D01*
X296510Y210099D02*
X296955D01*
X293086Y117849D02*
X296914D01*
X286856Y156099D02*
X296841D01*
X293176Y127749D02*
X296824D01*
X293257Y122349D02*
X296743D01*
X293336Y112449D02*
X296664D01*
X293448Y117399D02*
X296552D01*
X293515Y127299D02*
X296485D01*
X293577Y122799D02*
X296423D01*
X293637Y112899D02*
X296363D01*
X293721Y116949D02*
X296279D01*
X293771Y126849D02*
X296229D01*
X293817Y123249D02*
X296183D01*
X293862Y113349D02*
X296138D01*
X293924Y116499D02*
X296076D01*
X293960Y126399D02*
X296040D01*
X293993Y123699D02*
X296007D01*
X294025Y113799D02*
X295975D01*
X294067Y116049D02*
X295933D01*
X294091Y125949D02*
X295909D01*
X294113Y124149D02*
X295887D01*
X294132Y114249D02*
X295868D01*
X294157Y115599D02*
X295843D01*
X294170Y125499D02*
X295830D01*
X294181Y124599D02*
X295819D01*
X294189Y114699D02*
X295811D01*
X294197Y115149D02*
X295803D01*
X294200Y125049D02*
X295800D01*
X289341Y209199D02*
X293659D01*
X290105Y209649D02*
X292895D01*
X290564Y210099D02*
X292490D01*
X291014Y210549D02*
X292242D01*
X291464Y210999D02*
X292102D01*
X291914Y211449D02*
X292051D01*
X267223Y181749D02*
X291428D01*
X267422Y181299D02*
X290252D01*
X280106Y119199D02*
X289894D01*
X267526Y180849D02*
X289791D01*
X283356Y129099D02*
X289083D01*
X281277Y120999D02*
X288723D01*
X281556Y111099D02*
X288444D01*
X281894Y118749D02*
X288106D01*
X282906Y128649D02*
X287920D01*
X282242Y121449D02*
X287758D01*
X282393Y111549D02*
X287607D01*
X282600Y118299D02*
X287400D01*
X282722Y128199D02*
X287278D01*
X282832Y121899D02*
X287168D01*
X282938Y111999D02*
X287062D01*
X286406Y155649D02*
X286959D01*
X283086Y117849D02*
X286914D01*
X283176Y127749D02*
X286824D01*
X283257Y122349D02*
X286743D01*
X283336Y112449D02*
X286664D01*
X283448Y117399D02*
X286552D01*
X283515Y127299D02*
X286485D01*
X285956Y155199D02*
X286441D01*
X283577Y122799D02*
X286423D01*
X283637Y112899D02*
X286363D01*
X283721Y116949D02*
X286279D01*
X283771Y126849D02*
X286229D01*
X283817Y123249D02*
X286183D01*
X283862Y113349D02*
X286138D01*
X283924Y116499D02*
X286076D01*
X283960Y126399D02*
X286040D01*
X283993Y123699D02*
X286007D01*
X285506Y154749D02*
X285991D01*
X284025Y113799D02*
X285975D01*
X284067Y116049D02*
X285933D01*
X284091Y125949D02*
X285909D01*
X284113Y124149D02*
X285887D01*
X284132Y114249D02*
X285868D01*
X284157Y115599D02*
X285843D01*
X284170Y125499D02*
X285830D01*
X284181Y124599D02*
X285819D01*
X284189Y114699D02*
X285811D01*
X284197Y115149D02*
X285803D01*
X284200Y125049D02*
X285800D01*
X285056Y154299D02*
X285541D01*
X284606Y153849D02*
X285091D01*
X284156Y153399D02*
X284641D01*
X283706Y152949D02*
X284191D01*
X283256Y152499D02*
X283741D01*
X282802Y152049D02*
X283291D01*
X281933Y151599D02*
X282841D01*
X266445Y209649D02*
X282684D01*
X279867Y151149D02*
X282391D01*
X266751Y209199D02*
X282234D01*
X280001Y150699D02*
X281941D01*
X270906Y133149D02*
X281891D01*
X266938Y208749D02*
X281784D01*
X265948Y210099D02*
X281642D01*
X280050Y150249D02*
X281491D01*
X270456Y132699D02*
X281441D01*
X267032Y208299D02*
X281334D01*
X280018Y149799D02*
X281041D01*
X270006Y132249D02*
X280991D01*
X267046Y207849D02*
X280884D01*
X264582Y210549D02*
X280858D01*
X279904Y149349D02*
X280591D01*
X269556Y131799D02*
X280541D01*
X237706Y210999D02*
X280439D01*
X267438Y195249D02*
X280434D01*
X266978Y207399D02*
X280434D01*
X279693Y148899D02*
X280141D01*
X269106Y131349D02*
X280091D01*
X238156Y211449D02*
X280086D01*
X266823Y206949D02*
X279984D01*
X267251Y195699D02*
X279916D01*
X270106Y119199D02*
X279894D01*
X279354Y148449D02*
X279691D01*
X268656Y130899D02*
X279641D01*
X238606Y211899D02*
X279636D01*
X266945Y196149D02*
X279635D01*
X266561Y206499D02*
X279534D01*
X266448Y196599D02*
X279490D01*
X265082Y197049D02*
X279451D01*
X278787Y147999D02*
X279241D01*
X268206Y130449D02*
X279191D01*
X276369Y212349D02*
X279186D01*
X248756Y201999D02*
X279087D01*
X266142Y206049D02*
X279084D01*
X273806Y147549D02*
X278791D01*
X267756Y129999D02*
X278741D01*
X276900Y212799D02*
X278736D01*
X271277Y120999D02*
X278723D01*
X265358Y205599D02*
X278643D01*
X270356Y187599D02*
X278642D01*
X249206Y202449D02*
X278604D01*
X271556Y111099D02*
X278444D01*
X267306Y129549D02*
X278356D01*
X273356Y147099D02*
X278341D01*
X251906Y205149D02*
X278336D01*
X249656Y202899D02*
X278311D01*
X277222Y213249D02*
X278286D01*
X251456Y204699D02*
X278152D01*
X270917Y129099D02*
X278144D01*
X250106Y203349D02*
X278138D01*
X271894Y118749D02*
X278106D01*
X251006Y204249D02*
X278063D01*
X250556Y203799D02*
X278058D01*
X272080Y128649D02*
X277920D01*
X272906Y146649D02*
X277891D01*
X270806Y188049D02*
X277858D01*
X277421Y213699D02*
X277836D01*
X272242Y121449D02*
X277758D01*
X272393Y111549D02*
X277607D01*
X272456Y146199D02*
X277441D01*
X271256Y188499D02*
X277439D01*
X272600Y118299D02*
X277400D01*
X272722Y128199D02*
X277278D01*
X271706Y188949D02*
X277177D01*
X272832Y121899D02*
X277168D01*
X273506Y190749D02*
X277062D01*
X272938Y111999D02*
X277062D01*
X272156Y189399D02*
X277022D01*
X272006Y145749D02*
X276991D01*
X273056Y190299D02*
X276968D01*
X272606Y189849D02*
X276954D01*
X273086Y117849D02*
X276914D01*
X273176Y127749D02*
X276824D01*
X273257Y122349D02*
X276743D01*
X273336Y112449D02*
X276664D01*
X273448Y117399D02*
X276552D01*
X271556Y145299D02*
X276541D01*
X273515Y127299D02*
X276485D01*
X273577Y122799D02*
X276423D01*
X273637Y112899D02*
X276363D01*
X273721Y116949D02*
X276279D01*
X273771Y126849D02*
X276229D01*
X274256Y147999D02*
X276213D01*
X273817Y123249D02*
X276183D01*
X273862Y113349D02*
X276138D01*
X271106Y144849D02*
X276091D01*
X273924Y116499D02*
X276076D01*
X273960Y126399D02*
X276040D01*
X273993Y123699D02*
X276007D01*
X274025Y113799D02*
X275975D01*
X274067Y116049D02*
X275933D01*
X274091Y125949D02*
X275909D01*
X274113Y124149D02*
X275887D01*
X274132Y114249D02*
X275868D01*
X274157Y115599D02*
X275843D01*
X274170Y125499D02*
X275830D01*
X274181Y124599D02*
X275819D01*
X274189Y114699D02*
X275811D01*
X274197Y115149D02*
X275803D01*
X274200Y125049D02*
X275800D01*
X274706Y148449D02*
X275646D01*
X270656Y144399D02*
X275641D01*
X275156Y148899D02*
X275307D01*
X270182Y143949D02*
X275098D01*
X229756Y143499D02*
X274365D01*
X239056Y212349D02*
X273631D01*
X229306Y143049D02*
X273482D01*
X239506Y212799D02*
X273100D01*
X228856Y142599D02*
X273013D01*
X239956Y213249D02*
X272778D01*
X259873Y142149D02*
X272723D01*
X244496Y215499D02*
X272654D01*
X240406Y213699D02*
X272579D01*
X260402Y141699D02*
X272548D01*
X261026Y140349D02*
X272535D01*
X241756Y215049D02*
X272510D01*
X240856Y214149D02*
X272474D01*
X260723Y141249D02*
X272462D01*
X260922Y140799D02*
X272458D01*
X241306Y214599D02*
X272452D01*
X267532Y194799D02*
X272247D01*
X267546Y194349D02*
X271591D01*
X267478Y193899D02*
X271141D01*
X267323Y193449D02*
X270691D01*
X267061Y192999D02*
X270241D01*
X260106Y119199D02*
X269894D01*
X266642Y192549D02*
X269791D01*
X265858Y192099D02*
X269341D01*
X266856Y129099D02*
X269083D01*
X245906Y191649D02*
X268891D01*
X261277Y120999D02*
X268723D01*
X261556Y111099D02*
X268444D01*
X245456Y191199D02*
X268441D01*
X261894Y118749D02*
X268106D01*
X267548Y180399D02*
X268056D01*
X245006Y190749D02*
X267991D01*
X266406Y128649D02*
X267920D01*
X262242Y121449D02*
X267758D01*
X262393Y111549D02*
X267607D01*
X259604Y190299D02*
X267541D01*
X262600Y118299D02*
X267400D01*
X265956Y128199D02*
X267278D01*
X262832Y121899D02*
X267168D01*
X260256Y189849D02*
X267091D01*
X262938Y111999D02*
X267062D01*
X263086Y117849D02*
X266914D01*
X265525Y127749D02*
X266824D01*
X263257Y122349D02*
X266743D01*
X263336Y112449D02*
X266664D01*
X260632Y189399D02*
X266641D01*
X263448Y117399D02*
X266552D01*
X265335Y127299D02*
X266485D01*
X263577Y122799D02*
X266423D01*
X263637Y112899D02*
X266363D01*
X263721Y116949D02*
X266279D01*
X265145Y126849D02*
X266229D01*
X260867Y188949D02*
X266191D01*
X263817Y123249D02*
X266183D01*
X263862Y113349D02*
X266138D01*
X263924Y116499D02*
X266076D01*
X264956Y126399D02*
X266040D01*
X263993Y123699D02*
X266007D01*
X264025Y113799D02*
X265975D01*
X264067Y116049D02*
X265933D01*
X264766Y125949D02*
X265909D01*
X264113Y124149D02*
X265887D01*
X264132Y114249D02*
X265868D01*
X264157Y115599D02*
X265843D01*
X264576Y125499D02*
X265830D01*
X264197Y124599D02*
X265819D01*
X264189Y114699D02*
X265811D01*
X264197Y115149D02*
X265803D01*
X264387Y125049D02*
X265800D01*
X261001Y188499D02*
X265741D01*
X261050Y188049D02*
X265291D01*
X215500Y177699D02*
X264941D01*
X251306Y197049D02*
X264918D01*
X261018Y187599D02*
X264841D01*
X237256Y210549D02*
X264418D01*
X260904Y187149D02*
X264391D01*
X246356Y192099D02*
X264142D01*
X261048Y139899D02*
X264056D01*
X249487Y178149D02*
X264013D01*
X260693Y186699D02*
X263941D01*
X252356Y205599D02*
X263642D01*
X250856Y196599D02*
X263552D01*
X260354Y186249D02*
X263491D01*
X246806Y192549D02*
X263358D01*
X260933Y178599D02*
X263301D01*
X260990Y139449D02*
X263195D01*
X250406Y196149D02*
X263055D01*
X259787Y185799D02*
X263041D01*
X247256Y192999D02*
X262939D01*
X261802Y179049D02*
X262903D01*
X249956Y195699D02*
X262749D01*
X260845Y138999D02*
X262741D01*
X236806Y210099D02*
X262693D01*
X247706Y193449D02*
X262677D01*
X262256Y179499D02*
X262655D01*
X215500Y185349D02*
X262591D01*
X249506Y195249D02*
X262562D01*
X248156Y193899D02*
X262522D01*
X249056Y194799D02*
X262468D01*
X248606Y194349D02*
X262454D01*
X260597Y138549D02*
X262291D01*
X215500Y184899D02*
X262141D01*
X252806Y206049D02*
X262076D01*
X260199Y138099D02*
X261841D01*
X215500Y184449D02*
X261691D01*
X215500Y183999D02*
X261241D01*
X215500Y183549D02*
X260791D01*
X215500Y183099D02*
X260341D01*
X250106Y119199D02*
X259894D01*
X250098Y182649D02*
X259891D01*
X251277Y120999D02*
X258723D01*
X251556Y111099D02*
X258444D01*
X251894Y118749D02*
X258106D01*
X252242Y121449D02*
X257758D01*
X252393Y111549D02*
X257607D01*
X252600Y118299D02*
X257400D01*
X244556Y190299D02*
X257396D01*
X215500Y185799D02*
X257213D01*
X252832Y121899D02*
X257168D01*
X250373Y142149D02*
X257127D01*
X252938Y111999D02*
X257062D01*
X253086Y117849D02*
X256914D01*
X250699Y138099D02*
X256801D01*
X244106Y189849D02*
X256744D01*
X253257Y122349D02*
X256743D01*
X253336Y112449D02*
X256664D01*
X215500Y186249D02*
X256646D01*
X250902Y141699D02*
X256598D01*
X253448Y117399D02*
X256552D01*
X253577Y122799D02*
X256423D01*
X251097Y138549D02*
X256403D01*
X243656Y189399D02*
X256368D01*
X253637Y112899D02*
X256363D01*
X232098Y186699D02*
X256307D01*
X253721Y116949D02*
X256279D01*
X251223Y141249D02*
X256277D01*
X253817Y123249D02*
X256183D01*
X251345Y138999D02*
X256155D01*
X253862Y113349D02*
X256138D01*
X243206Y188949D02*
X256133D01*
X241113Y187149D02*
X256096D01*
X251422Y140799D02*
X256078D01*
X253924Y116499D02*
X256076D01*
X251490Y139449D02*
X256010D01*
X253993Y123699D02*
X256007D01*
X242756Y188499D02*
X255999D01*
X241856Y187599D02*
X255982D01*
X254025Y113799D02*
X255975D01*
X251526Y140349D02*
X255974D01*
X251548Y139899D02*
X255952D01*
X242306Y188049D02*
X255950D01*
X254067Y116049D02*
X255933D01*
X254113Y124149D02*
X255887D01*
X254132Y114249D02*
X255868D01*
X254157Y115599D02*
X255843D01*
X254189Y114699D02*
X255811D01*
X254181Y124599D02*
X255803D01*
X254197Y115149D02*
X255803D01*
X254200Y125049D02*
X255613D01*
X254170Y125499D02*
X255424D01*
X254091Y125949D02*
X255234D01*
X253960Y126399D02*
X255044D01*
X253771Y126849D02*
X254855D01*
X253515Y127299D02*
X254665D01*
X253176Y127749D02*
X254475D01*
X252722Y128199D02*
X254044D01*
X252080Y128649D02*
X253594D01*
X250917Y129099D02*
X253144D01*
X232493Y129549D02*
X252694D01*
X234496Y129999D02*
X252244D01*
X236006Y130449D02*
X251794D01*
X236356Y209649D02*
X250959D01*
X235906Y209199D02*
X250441D01*
X235456Y208749D02*
X249991D01*
X240106Y119199D02*
X249894D01*
X235006Y208299D02*
X249541D01*
X247406Y200649D02*
X249459D01*
X234556Y207849D02*
X249091D01*
X240917Y129099D02*
X249083D01*
X246956Y200199D02*
X248941D01*
X241277Y120999D02*
X248723D01*
X234106Y207399D02*
X248641D01*
X246506Y199749D02*
X248491D01*
X241556Y111099D02*
X248444D01*
X233656Y206949D02*
X248191D01*
X241894Y118749D02*
X248106D01*
X246056Y199299D02*
X248041D01*
X242080Y128649D02*
X247920D01*
X242242Y121449D02*
X247758D01*
X233206Y206499D02*
X247741D01*
X242373Y142149D02*
X247627D01*
X242393Y111549D02*
X247607D01*
X245606Y198849D02*
X247591D01*
X215500Y178149D02*
X247513D01*
X242600Y118299D02*
X247400D01*
X242699Y138099D02*
X247301D01*
X232756Y206049D02*
X247291D01*
X242722Y128199D02*
X247278D01*
X242832Y121899D02*
X247168D01*
X245156Y198399D02*
X247141D01*
X215500Y182649D02*
X247127D01*
X242902Y141699D02*
X247098D01*
X242938Y111999D02*
X247062D01*
X243086Y117849D02*
X246914D01*
X243097Y138549D02*
X246903D01*
X232306Y205599D02*
X246841D01*
X243176Y127749D02*
X246824D01*
X215500Y178599D02*
X246801D01*
X243223Y141249D02*
X246777D01*
X243257Y122349D02*
X246743D01*
X244706Y197949D02*
X246691D01*
X243336Y112449D02*
X246664D01*
X243345Y138999D02*
X246655D01*
X215500Y182199D02*
X246598D01*
X243422Y140799D02*
X246578D01*
X243448Y117399D02*
X246552D01*
X243490Y139449D02*
X246510D01*
X243515Y127299D02*
X246485D01*
X243526Y140349D02*
X246474D01*
X243548Y139899D02*
X246452D01*
X243577Y122799D02*
X246423D01*
X215500Y179049D02*
X246403D01*
X231856Y205149D02*
X246391D01*
X243637Y112899D02*
X246363D01*
X243721Y116949D02*
X246279D01*
X215500Y181749D02*
X246277D01*
X244256Y197499D02*
X246241D01*
X243771Y126849D02*
X246229D01*
X243817Y123249D02*
X246183D01*
X215500Y179499D02*
X246155D01*
X243862Y113349D02*
X246138D01*
X215500Y181299D02*
X246078D01*
X243924Y116499D02*
X246076D01*
X243960Y126399D02*
X246040D01*
X215500Y179949D02*
X246010D01*
X243993Y123699D02*
X246007D01*
X244025Y113799D02*
X245975D01*
X215500Y180849D02*
X245974D01*
X215500Y180399D02*
X245952D01*
X231406Y204699D02*
X245941D01*
X244067Y116049D02*
X245933D01*
X244091Y125949D02*
X245909D01*
X244113Y124149D02*
X245887D01*
X244132Y114249D02*
X245868D01*
X244157Y115599D02*
X245843D01*
X244170Y125499D02*
X245830D01*
X244181Y124599D02*
X245819D01*
X244189Y114699D02*
X245811D01*
X244197Y115149D02*
X245803D01*
X244200Y125049D02*
X245800D01*
X243806Y197049D02*
X245791D01*
X230956Y204249D02*
X245491D01*
X243356Y196599D02*
X245341D01*
X230506Y203799D02*
X245041D01*
X242906Y196149D02*
X244891D01*
X230056Y203349D02*
X244591D01*
X242247Y195699D02*
X244441D01*
X229606Y202899D02*
X244141D01*
X235198Y195249D02*
X243991D01*
X229156Y202449D02*
X243691D01*
X221506Y194799D02*
X243541D01*
X242206Y215499D02*
X243504D01*
X228706Y201999D02*
X243241D01*
X221056Y194349D02*
X243091D01*
X228256Y201549D02*
X242791D01*
X220606Y193899D02*
X242641D01*
X227806Y201099D02*
X242341D01*
X220156Y193449D02*
X242191D01*
X227356Y200649D02*
X241891D01*
X219706Y192999D02*
X241741D01*
X226906Y200199D02*
X241441D01*
X219256Y192549D02*
X241291D01*
X235203Y199749D02*
X240991D01*
X218806Y192099D02*
X240841D01*
X218356Y191649D02*
X240391D01*
X232389Y191199D02*
X239941D01*
X215500Y119199D02*
X239894D01*
X228406Y142149D02*
X239627D01*
X224356Y138099D02*
X239301D01*
X227956Y141699D02*
X239098D01*
X232676Y129099D02*
X239083D01*
X224806Y138549D02*
X238903D01*
X227506Y141249D02*
X238777D01*
X231277Y120999D02*
X238723D01*
X225256Y138999D02*
X238655D01*
X227056Y140799D02*
X238578D01*
X225706Y139449D02*
X238510D01*
X226606Y140349D02*
X238474D01*
X226156Y139899D02*
X238452D01*
X215500Y111099D02*
X238444D01*
X215500Y118749D02*
X238106D01*
X232859Y128649D02*
X237920D01*
X232242Y121449D02*
X237758D01*
X215500Y111549D02*
X237607D01*
X215500Y118299D02*
X237400D01*
X233042Y128199D02*
X237278D01*
X232832Y121899D02*
X237168D01*
X215500Y111999D02*
X237062D01*
X215500Y117849D02*
X236914D01*
X233225Y127749D02*
X236824D01*
X233257Y122349D02*
X236743D01*
X215500Y112449D02*
X236664D01*
X215500Y117399D02*
X236552D01*
X233515Y127299D02*
X236485D01*
X233577Y122799D02*
X236423D01*
X215500Y112899D02*
X236363D01*
X215500Y116949D02*
X236279D01*
X233771Y126849D02*
X236229D01*
X233817Y123249D02*
X236183D01*
X215500Y113349D02*
X236138D01*
X215500Y116499D02*
X236076D01*
X233960Y126399D02*
X236040D01*
X233993Y123699D02*
X236007D01*
X215500Y113799D02*
X235975D01*
X215500Y116049D02*
X235933D01*
X234091Y125949D02*
X235909D01*
X234113Y124149D02*
X235887D01*
X215500Y114249D02*
X235868D01*
X215500Y115599D02*
X235843D01*
X234170Y125499D02*
X235830D01*
X234181Y124599D02*
X235819D01*
X215500Y114699D02*
X235811D01*
X215500Y115149D02*
X235803D01*
X234200Y125049D02*
X235800D01*
X232309Y129999D02*
X233504D01*
X221956Y195249D02*
X232802D01*
X226456Y199749D02*
X232797D01*
X232126Y130449D02*
X232485D01*
X222406Y195699D02*
X232195D01*
X226006Y199299D02*
X232192D01*
X231950Y130899D02*
X232015D01*
X222856Y196149D02*
X231837D01*
X225556Y198849D02*
X231836D01*
X230206Y143949D02*
X231818D01*
X223306Y196599D02*
X231615D01*
X225106Y198399D02*
X231614D01*
X223756Y197049D02*
X231490D01*
X224656Y197949D02*
X231490D01*
X224206Y197499D02*
X231450D01*
X230656Y144399D02*
X231344D01*
X223906Y137649D02*
X230959D01*
X223456Y137199D02*
X230441D01*
X223006Y136749D02*
X229991D01*
X215500Y186699D02*
X229902D01*
X217906Y191199D02*
X229708D01*
X222556Y136299D02*
X229541D01*
X215500Y187149D02*
X229246D01*
X217456Y190749D02*
X229144D01*
X222106Y135849D02*
X229091D01*
X215500Y187599D02*
X228870D01*
X217006Y190299D02*
X228805D01*
X215500Y120999D02*
X228723D01*
X221656Y135399D02*
X228641D01*
X215500Y188049D02*
X228634D01*
X216556Y189849D02*
X228595D01*
X215500Y188499D02*
X228500D01*
X216106Y189399D02*
X228481D01*
X215656Y188949D02*
X228450D01*
X221206Y134949D02*
X228296D01*
X220756Y134499D02*
X228115D01*
X220306Y134049D02*
X228051D01*
X219856Y133599D02*
X228050D01*
X219406Y133149D02*
X228050D01*
X218956Y132699D02*
X228050D01*
X218506Y132249D02*
X228050D01*
X218056Y131799D02*
X228050D01*
X217606Y131349D02*
X228050D01*
X217156Y130899D02*
X228050D01*
X216706Y130449D02*
X227874D01*
X215500Y121449D02*
X227758D01*
X216256Y129999D02*
X227691D01*
X215806Y129549D02*
X227507D01*
X215500Y129099D02*
X227324D01*
X215500Y121899D02*
X227168D01*
X215500Y128649D02*
X227141D01*
X215500Y128199D02*
X226958D01*
X215500Y127749D02*
X226775D01*
X215500Y122349D02*
X226743D01*
X215500Y127299D02*
X226485D01*
X215500Y122799D02*
X226423D01*
X215500Y126849D02*
X226229D01*
X215500Y123249D02*
X226183D01*
X215500Y126399D02*
X226040D01*
X215500Y123699D02*
X226007D01*
X215500Y125949D02*
X225909D01*
X215500Y124149D02*
X225887D01*
X215500Y125499D02*
X225830D01*
X215500Y124599D02*
X225819D01*
X215500Y125049D02*
X225800D01*
X287456Y150699D02*
X301941D01*
X287906Y151149D02*
X301513D01*
X287006Y150249D02*
X301491D01*
X286556Y149799D02*
X301041D01*
X288356Y151599D02*
X300801D01*
X288806Y152049D02*
X300403D01*
X298744Y152499D02*
X300155D01*
X299206Y152949D02*
X300010D01*
X299656Y153399D02*
X299952D01*
X286106Y149349D02*
X289380D01*
X285656Y148899D02*
X288641D01*
X285206Y148449D02*
X288191D01*
X284756Y147999D02*
X287741D01*
X284306Y147549D02*
X287291D01*
X283856Y147099D02*
X286841D01*
X283406Y146649D02*
X286391D01*
X282956Y146199D02*
X285941D01*
X282506Y145749D02*
X285491D01*
X282056Y145299D02*
X285041D01*
X281606Y144849D02*
X284591D01*
X281156Y144399D02*
X284141D01*
X280706Y143949D02*
X283691D01*
X280256Y143499D02*
X283241D01*
X279806Y143049D02*
X282791D01*
X279356Y142599D02*
X282341D01*
X278906Y142149D02*
X281891D01*
X278456Y141699D02*
X281441D01*
X278041Y141249D02*
X280991D01*
X277765Y140799D02*
X280541D01*
X277488Y140349D02*
X280091D01*
X269006Y159249D02*
X284491D01*
X268556Y158799D02*
X284041D01*
X270493Y158349D02*
X283591D01*
X271202Y157899D02*
X283141D01*
X271599Y157449D02*
X282691D01*
X271846Y156999D02*
X282241D01*
X271990Y156549D02*
X281791D01*
X272048Y156099D02*
X281341D01*
X272026Y155649D02*
X280891D01*
X271950Y155199D02*
X276042D01*
X273570Y154749D02*
X275491D01*
X274086Y154299D02*
X275041D01*
X274366Y153849D02*
X274591D01*
X268106Y158349D02*
X268507D01*
X267656Y157899D02*
X267798D01*
X267206Y157449D02*
X267401D01*
X266888Y156999D02*
X267154D01*
X266611Y156549D02*
X267010D01*
X266385Y156099D02*
X266952D01*
X266163Y155649D02*
X266684D01*
X265805Y155199D02*
X266234D01*
X265198Y154749D02*
X265784D01*
X264268Y154299D02*
X265334D01*
X280450Y305049D02*
X299550D01*
X280450Y304599D02*
X299550D01*
X280450Y304149D02*
X299550D01*
X280450Y303699D02*
X299550D01*
X280450Y303249D02*
X299550D01*
X280450Y302799D02*
X299550D01*
X280450Y302349D02*
X299550D01*
X280450Y301899D02*
X299550D01*
X280450Y301449D02*
X299550D01*
X280450Y300999D02*
X299550D01*
X280450Y300549D02*
X299550D01*
X280450Y300099D02*
X299550D01*
X280450Y299649D02*
X299550D01*
X280766Y299199D02*
X299550D01*
X281216Y298749D02*
X299550D01*
X281666Y298299D02*
X299550D01*
X282116Y297849D02*
X299550D01*
X282566Y297399D02*
X299550D01*
X283016Y296949D02*
X299550D01*
X283466Y296499D02*
X299550D01*
X283916Y296049D02*
X299550D01*
X284366Y295599D02*
X299550D01*
X284816Y295149D02*
X299550D01*
X285266Y294699D02*
X299550D01*
X285716Y294249D02*
X299550D01*
X286166Y293799D02*
X299550D01*
X286616Y293349D02*
X299550D01*
X287066Y292899D02*
X299550D01*
X287516Y292449D02*
X299550D01*
X287966Y291999D02*
X299550D01*
X288416Y291549D02*
X299550D01*
X288857Y291099D02*
X299550D01*
X289164Y290649D02*
X299550D01*
X289348Y290199D02*
X299550D01*
X280450Y305499D02*
X299536D01*
X289437Y289749D02*
X299284D01*
X280450Y305949D02*
X299086D01*
X289450Y289299D02*
X298834D01*
X280450Y306399D02*
X298636D01*
X289450Y288849D02*
X298384D01*
X280450Y306849D02*
X298186D01*
X289450Y288399D02*
X297934D01*
X280450Y307299D02*
X297736D01*
X289450Y287949D02*
X297484D01*
X280450Y307749D02*
X297286D01*
X289450Y287499D02*
X297034D01*
X280450Y308199D02*
X296836D01*
X289450Y287049D02*
X296584D01*
X280450Y308649D02*
X296386D01*
X289450Y286599D02*
X296134D01*
X280450Y309099D02*
X295936D01*
X289450Y286149D02*
X295684D01*
X280450Y309549D02*
X295486D01*
X289450Y285699D02*
X295234D01*
X280450Y309999D02*
X295036D01*
X289450Y285249D02*
X294784D01*
X280450Y310449D02*
X294586D01*
X289450Y284799D02*
X294334D01*
X280450Y310899D02*
X294136D01*
X289450Y284349D02*
X293884D01*
X280450Y311349D02*
X293686D01*
X289450Y283899D02*
X293434D01*
X280450Y311799D02*
X293236D01*
X289450Y283449D02*
X292984D01*
X280450Y312249D02*
X292786D01*
X289450Y282999D02*
X292534D01*
X280450Y312699D02*
X292336D01*
X289450Y282549D02*
X292084D01*
X280450Y313149D02*
X291886D01*
X289450Y282099D02*
X291634D01*
X280450Y313599D02*
X291436D01*
X289450Y281649D02*
X291184D01*
X280450Y314049D02*
X290986D01*
X289450Y281199D02*
X290734D01*
X280450Y314499D02*
X290536D01*
X289450Y280749D02*
X290392D01*
X289450Y280299D02*
X290184D01*
X289404Y236649D02*
X290096D01*
X280450Y314949D02*
X290086D01*
X289450Y279849D02*
X290075D01*
X289450Y279399D02*
X290050D01*
X289450Y278949D02*
X290050D01*
X289450Y278499D02*
X290050D01*
X289450Y278049D02*
X290050D01*
X289450Y277599D02*
X290050D01*
X289450Y277149D02*
X290050D01*
X289450Y276699D02*
X290050D01*
X289450Y276249D02*
X290050D01*
X289450Y275799D02*
X290050D01*
X289450Y275349D02*
X290050D01*
X289450Y274899D02*
X290050D01*
X289450Y274449D02*
X290050D01*
X289450Y273999D02*
X290050D01*
X289450Y273549D02*
X290050D01*
X289450Y273099D02*
X290050D01*
X289450Y272649D02*
X290050D01*
X289450Y272199D02*
X290050D01*
X289450Y271749D02*
X290050D01*
X289450Y271299D02*
X290050D01*
X289450Y270849D02*
X290050D01*
X289450Y270399D02*
X290050D01*
X289450Y269949D02*
X290050D01*
X289450Y269499D02*
X290050D01*
X289450Y269049D02*
X290050D01*
X289450Y268599D02*
X290050D01*
X289450Y268149D02*
X290050D01*
X289450Y267699D02*
X290050D01*
X289450Y267249D02*
X290050D01*
X289450Y266799D02*
X290050D01*
X289450Y266349D02*
X290050D01*
X289450Y265899D02*
X290050D01*
X289450Y265449D02*
X290050D01*
X289450Y264999D02*
X290050D01*
X289450Y264549D02*
X290050D01*
X289450Y264099D02*
X290050D01*
X289450Y263649D02*
X290050D01*
X289450Y263199D02*
X290050D01*
X289450Y262749D02*
X290050D01*
X289450Y262299D02*
X290050D01*
X289450Y261849D02*
X290050D01*
X289450Y261399D02*
X290050D01*
X289450Y260949D02*
X290050D01*
X289450Y260499D02*
X290050D01*
X289450Y260049D02*
X290050D01*
X289450Y259599D02*
X290050D01*
X289450Y259149D02*
X290050D01*
X289450Y258699D02*
X290050D01*
X289450Y258249D02*
X290050D01*
X289450Y257799D02*
X290050D01*
X289450Y257349D02*
X290050D01*
X289450Y256899D02*
X290050D01*
X289450Y256449D02*
X290050D01*
X289450Y255999D02*
X290050D01*
X289450Y255549D02*
X290050D01*
X289450Y255099D02*
X290050D01*
X289450Y254649D02*
X290050D01*
X289450Y254199D02*
X290050D01*
X289450Y253749D02*
X290050D01*
X289450Y253299D02*
X290050D01*
X289450Y252849D02*
X290050D01*
X289450Y252399D02*
X290050D01*
X289450Y251949D02*
X290050D01*
X289450Y251499D02*
X290050D01*
X289450Y251049D02*
X290050D01*
X289450Y250599D02*
X290050D01*
X289450Y250149D02*
X290050D01*
X289450Y249699D02*
X290050D01*
X289450Y249249D02*
X290050D01*
X289450Y248799D02*
X290050D01*
X289450Y248349D02*
X290050D01*
X289450Y247899D02*
X290050D01*
X289450Y247449D02*
X290050D01*
X289450Y246999D02*
X290050D01*
X289450Y246549D02*
X290050D01*
X289450Y246099D02*
X290050D01*
X289450Y245649D02*
X290050D01*
X289450Y245199D02*
X290050D01*
X289450Y244749D02*
X290050D01*
X289450Y244299D02*
X290050D01*
X289450Y243849D02*
X290050D01*
X289450Y243399D02*
X290050D01*
X289450Y242949D02*
X290050D01*
X289450Y242499D02*
X290050D01*
X289450Y242049D02*
X290050D01*
X289450Y241599D02*
X290050D01*
X289450Y241149D02*
X290050D01*
X289450Y240699D02*
X290050D01*
X289450Y240249D02*
X290050D01*
X289450Y239799D02*
X290050D01*
X289450Y239349D02*
X290050D01*
X289450Y238899D02*
X290050D01*
X289450Y238449D02*
X290050D01*
X289501Y237999D02*
X289999D01*
X289518Y237099D02*
X289982D01*
X289550Y237549D02*
X289950D01*
X280450Y315399D02*
X289636D01*
X280450Y315849D02*
X289186D01*
X280450Y316299D02*
X288736D01*
X280450Y316749D02*
X288286D01*
X280450Y317199D02*
X287836D01*
X280450Y317649D02*
X287386D01*
X280450Y318099D02*
X286936D01*
X280450Y318549D02*
X286486D01*
X280450Y318999D02*
X286036D01*
X280450Y319449D02*
X285586D01*
X280417Y319899D02*
X285136D01*
X280298Y320349D02*
X284686D01*
X280078Y320799D02*
X284236D01*
X279716Y321249D02*
X283786D01*
X279266Y321699D02*
X283336D01*
X278816Y322149D02*
X282886D01*
X278366Y322599D02*
X282436D01*
X277916Y323049D02*
X281986D01*
X277466Y323499D02*
X281536D01*
X277016Y323949D02*
X281086D01*
X276566Y324399D02*
X280636D01*
X276116Y324849D02*
X280186D01*
X275950Y325299D02*
X279736D01*
X275950Y325749D02*
X279286D01*
X275950Y326199D02*
X278836D01*
X275950Y326649D02*
X278386D01*
X275950Y327099D02*
X277936D01*
X275950Y327549D02*
X277486D01*
X275950Y327999D02*
X277036D01*
X275950Y328449D02*
X276586D01*
X275950Y328899D02*
X276136D01*
X296950Y222699D02*
X302550D01*
X296950Y222249D02*
X302550D01*
X299104Y221799D02*
X302550D01*
X299756Y221349D02*
X302550D01*
X300132Y220899D02*
X302550D01*
X300367Y220449D02*
X302550D01*
X300501Y219999D02*
X302550D01*
X300550Y219549D02*
X302550D01*
X300518Y219099D02*
X302134D01*
X300404Y218649D02*
X301684D01*
X296950Y223149D02*
X301312D01*
X300193Y218199D02*
X301234D01*
X299854Y217749D02*
X300784D01*
X296950Y223599D02*
X300455D01*
X299287Y217299D02*
X300334D01*
X296950Y224049D02*
X299986D01*
X296950Y216849D02*
X299884D01*
X296899Y224499D02*
X299536D01*
X296950Y216399D02*
X299434D01*
X296950Y215949D02*
X298984D01*
X296950Y215499D02*
X298534D01*
X296950Y215049D02*
X298084D01*
X296950Y214599D02*
X297634D01*
X296950Y214149D02*
X297184D01*
X105250Y236649D02*
X273596D01*
X105250Y240699D02*
X273550D01*
X105250Y240249D02*
X273550D01*
X105250Y239799D02*
X273550D01*
X105250Y239349D02*
X273550D01*
X105250Y238899D02*
X273550D01*
X105250Y238449D02*
X273550D01*
X105250Y237999D02*
X273499D01*
X105250Y237099D02*
X273482D01*
X105250Y237549D02*
X273450D01*
X218714Y231249D02*
X254542D01*
X218264Y230799D02*
X254092D01*
X217814Y230349D02*
X253642D01*
X217364Y229899D02*
X253192D01*
X216914Y229449D02*
X252742D01*
X216464Y228999D02*
X252292D01*
X216014Y228549D02*
X251842D01*
X215885Y228099D02*
X251392D01*
X215663Y227649D02*
X250942D01*
X215305Y227199D02*
X250492D01*
X220264Y221799D02*
X245092D01*
X219814Y221349D02*
X244642D01*
X219364Y220899D02*
X244192D01*
X218914Y220449D02*
X243288D01*
X218464Y219999D02*
X242416D01*
X218014Y219549D02*
X241974D01*
X217564Y219099D02*
X241699D01*
X217105Y218649D02*
X241534D01*
X216341Y218199D02*
X241458D01*
X214698Y217749D02*
X241042D01*
X105250Y217299D02*
X240592D01*
X105250Y216849D02*
X240142D01*
X105250Y216399D02*
X239692D01*
X105250Y215949D02*
X239242D01*
X105250Y215499D02*
X238792D01*
X105250Y215049D02*
X238342D01*
X105250Y214599D02*
X237892D01*
X105250Y214149D02*
X237442D01*
X105250Y213699D02*
X236992D01*
X105250Y213249D02*
X236542D01*
X105250Y212799D02*
X236092D01*
X105250Y212349D02*
X235642D01*
X105250Y211899D02*
X235192D01*
X105250Y211449D02*
X234742D01*
X105250Y210999D02*
X234292D01*
X105250Y210549D02*
X233842D01*
X105250Y210099D02*
X233392D01*
X105250Y209649D02*
X232942D01*
X105250Y209199D02*
X232492D01*
X105250Y208749D02*
X232042D01*
X181104Y208299D02*
X231592D01*
X181756Y207849D02*
X231142D01*
X182132Y207399D02*
X230692D01*
X182367Y206949D02*
X230242D01*
X182501Y206499D02*
X229792D01*
X182550Y206049D02*
X229342D01*
X182518Y205599D02*
X228892D01*
X182404Y205149D02*
X228442D01*
X182193Y204699D02*
X227992D01*
X181854Y204249D02*
X227542D01*
X181287Y203799D02*
X227092D01*
X105250Y203349D02*
X226642D01*
X105250Y202899D02*
X226192D01*
X105250Y202449D02*
X225742D01*
X105250Y201999D02*
X225292D01*
X105250Y201549D02*
X224842D01*
X105250Y201099D02*
X224392D01*
X105250Y200649D02*
X223942D01*
X105250Y200199D02*
X223492D01*
X105250Y199749D02*
X223042D01*
X105250Y199299D02*
X222592D01*
X105250Y198849D02*
X222142D01*
X105250Y198399D02*
X221692D01*
X105250Y197949D02*
X221242D01*
X105250Y197499D02*
X220792D01*
X105250Y197049D02*
X220342D01*
X105250Y196599D02*
X219892D01*
X105250Y196149D02*
X219442D01*
X105250Y195699D02*
X218992D01*
X105250Y195249D02*
X218542D01*
X214698Y226749D02*
X218527D01*
X105250Y194799D02*
X218092D01*
X105250Y226299D02*
X217836D01*
X105250Y194349D02*
X217642D01*
X105250Y225849D02*
X217384D01*
X105250Y193899D02*
X217192D01*
X105250Y225399D02*
X216934D01*
X105250Y236199D02*
X216919D01*
X105250Y193449D02*
X216742D01*
X105250Y224949D02*
X216484D01*
X105250Y192999D02*
X216292D01*
X105250Y235749D02*
X216284D01*
X105250Y224499D02*
X216034D01*
X105250Y192549D02*
X215842D01*
X105250Y235299D02*
X215834D01*
X105250Y224049D02*
X215584D01*
X105250Y192099D02*
X215392D01*
X105250Y234849D02*
X215384D01*
X105250Y223599D02*
X215134D01*
X198873Y191649D02*
X214942D01*
X105250Y234399D02*
X214934D01*
X105250Y223149D02*
X214684D01*
X199402Y191199D02*
X214492D01*
X105250Y233949D02*
X214484D01*
X199723Y190749D02*
X214042D01*
X105250Y233499D02*
X214034D01*
X199922Y190299D02*
X213592D01*
X105250Y233049D02*
X213584D01*
X200026Y189849D02*
X213500D01*
X200048Y189399D02*
X213500D01*
X199990Y188949D02*
X213500D01*
X199845Y188499D02*
X213500D01*
X199684Y188049D02*
X213500D01*
X199576Y187599D02*
X213500D01*
X199469Y187149D02*
X213500D01*
X199450Y186699D02*
X213500D01*
X199450Y186249D02*
X213500D01*
X199450Y185799D02*
X213500D01*
X199450Y185349D02*
X213500D01*
X199450Y184899D02*
X213500D01*
X199450Y184449D02*
X213500D01*
X199450Y183999D02*
X213500D01*
X199450Y183549D02*
X213500D01*
X199450Y183099D02*
X213500D01*
X199450Y182649D02*
X213500D01*
X199450Y182199D02*
X213500D01*
X199450Y181749D02*
X213500D01*
X199450Y181299D02*
X213500D01*
X199450Y180849D02*
X213500D01*
X199450Y180399D02*
X213500D01*
X199450Y179949D02*
X213500D01*
X199450Y179499D02*
X213500D01*
X199450Y179049D02*
X213500D01*
X199450Y178599D02*
X213500D01*
X199450Y178149D02*
X213500D01*
X211889Y177699D02*
X213500D01*
X211598Y173199D02*
X213500D01*
X201509Y172749D02*
X213500D01*
X201959Y172299D02*
X213500D01*
X202409Y171849D02*
X213500D01*
X202859Y171399D02*
X213500D01*
X203309Y170949D02*
X213500D01*
X203759Y170499D02*
X213500D01*
X204209Y170049D02*
X213500D01*
X204659Y169599D02*
X213500D01*
X205109Y169149D02*
X213500D01*
X205559Y168699D02*
X213500D01*
X206009Y168249D02*
X213500D01*
X206459Y167799D02*
X213500D01*
X206909Y167349D02*
X213500D01*
X207359Y166899D02*
X213500D01*
X207809Y166449D02*
X213500D01*
X208259Y165999D02*
X213500D01*
X208709Y165549D02*
X213500D01*
X209159Y165099D02*
X213500D01*
X209609Y164649D02*
X213500D01*
X210059Y164199D02*
X213500D01*
X210509Y163749D02*
X213500D01*
X105250Y159249D02*
X213500D01*
X105250Y158799D02*
X213500D01*
X105250Y158349D02*
X213500D01*
X105250Y157899D02*
X213500D01*
X105250Y157449D02*
X213500D01*
X105250Y156999D02*
X213500D01*
X105250Y156549D02*
X213500D01*
X105250Y156099D02*
X213500D01*
X105250Y155649D02*
X213500D01*
X105250Y155199D02*
X213500D01*
X105250Y154749D02*
X213500D01*
X211604Y154299D02*
X213500D01*
X212256Y153849D02*
X213500D01*
X212632Y153399D02*
X213500D01*
X212867Y152949D02*
X213500D01*
X213001Y152499D02*
X213500D01*
X213050Y152049D02*
X213500D01*
X213018Y151599D02*
X213500D01*
X213056Y145299D02*
X213500D01*
X212606Y144849D02*
X213500D01*
X212156Y144399D02*
X213500D01*
X211706Y143949D02*
X213500D01*
X205856Y138099D02*
X213500D01*
X205406Y137649D02*
X213500D01*
X204956Y137199D02*
X213500D01*
X204506Y136749D02*
X213500D01*
X204056Y136299D02*
X213500D01*
X203606Y135849D02*
X213500D01*
X203156Y135399D02*
X213500D01*
X202706Y134949D02*
X213500D01*
X202256Y134499D02*
X213500D01*
X201806Y134049D02*
X213500D01*
X201356Y133599D02*
X213500D01*
X200906Y133149D02*
X213500D01*
X213106Y126849D02*
X213500D01*
X212656Y126399D02*
X213500D01*
X212206Y125949D02*
X213500D01*
X211744Y125499D02*
X213500D01*
X202924Y125049D02*
X213500D01*
X201358Y124599D02*
X213500D01*
X154536Y124149D02*
X213500D01*
X154774Y123699D02*
X213500D01*
X154991Y123249D02*
X213500D01*
X155188Y122799D02*
X213500D01*
X155367Y122349D02*
X213500D01*
X155527Y121899D02*
X213500D01*
X155671Y121449D02*
X213500D01*
X155797Y120999D02*
X213500D01*
X194582Y120549D02*
X213500D01*
X195948Y120099D02*
X213500D01*
X196445Y119649D02*
X213500D01*
X196751Y119199D02*
X213500D01*
X196938Y118749D02*
X213500D01*
X197032Y118299D02*
X213500D01*
X197046Y117849D02*
X213500D01*
X196978Y117399D02*
X213500D01*
X196823Y116949D02*
X213500D01*
X196561Y116499D02*
X213500D01*
X196142Y116049D02*
X213500D01*
X195358Y115599D02*
X213500D01*
X156047Y115149D02*
X213500D01*
X155962Y114699D02*
X213500D01*
X155860Y114249D02*
X213500D01*
X155742Y113799D02*
X213500D01*
X155608Y113349D02*
X213500D01*
X155457Y112899D02*
X213500D01*
X155289Y112449D02*
X213500D01*
X155102Y111999D02*
X213500D01*
X154895Y111549D02*
X213500D01*
X154669Y111099D02*
X213500D01*
X154422Y110649D02*
X213500D01*
X154151Y110199D02*
X213500D01*
X153857Y109749D02*
X213500D01*
X153536Y109299D02*
X213500D01*
X153187Y108849D02*
X213500D01*
X152807Y108399D02*
X213500D01*
X152391Y107949D02*
X213500D01*
X151936Y107499D02*
X213500D01*
X151435Y107049D02*
X213500D01*
X150880Y106599D02*
X213500D01*
X150260Y106149D02*
X213500D01*
X149556Y105699D02*
X213500D01*
X200456Y132699D02*
X213441D01*
X212904Y151149D02*
X213391D01*
X105250Y232599D02*
X213134D01*
X200006Y132249D02*
X212991D01*
X212693Y150699D02*
X212941D01*
X105250Y222699D02*
X212919D01*
X105250Y232149D02*
X212684D01*
X199556Y131799D02*
X212541D01*
X212354Y150249D02*
X212491D01*
X211256Y143499D02*
X212491D01*
X105250Y226749D02*
X212302D01*
X105250Y217749D02*
X212302D01*
X206306Y138549D02*
X212297D01*
X105250Y222249D02*
X212284D01*
X105250Y231699D02*
X212234D01*
X199106Y131349D02*
X212091D01*
X211787Y149799D02*
X212041D01*
X105250Y231249D02*
X211784D01*
X105250Y227199D02*
X211695D01*
X105250Y218199D02*
X211695D01*
X105250Y221799D02*
X211692D01*
X198656Y130899D02*
X211641D01*
X105250Y149349D02*
X211591D01*
X210806Y143049D02*
X211482D01*
X105250Y230799D02*
X211422D01*
X206756Y138999D02*
X211420D01*
X105250Y227649D02*
X211337D01*
X105250Y218649D02*
X211337D01*
X105250Y221349D02*
X211336D01*
X105250Y230349D02*
X211202D01*
X198206Y130449D02*
X211191D01*
X105250Y148899D02*
X211141D01*
X105250Y228099D02*
X211115D01*
X105250Y219099D02*
X211115D01*
X105250Y220899D02*
X211114D01*
X105250Y229899D02*
X211083D01*
X210356Y142599D02*
X211013D01*
X105250Y228549D02*
X210990D01*
X105250Y219549D02*
X210990D01*
X105250Y229449D02*
X210990D01*
X105250Y220449D02*
X210990D01*
X207206Y139449D02*
X210976D01*
X105250Y228999D02*
X210950D01*
X105250Y219999D02*
X210950D01*
X197756Y129999D02*
X210741D01*
X209906Y142149D02*
X210723D01*
X207656Y139899D02*
X210700D01*
X105250Y148449D02*
X210691D01*
X209456Y141699D02*
X210548D01*
X208106Y140349D02*
X210535D01*
X209006Y141249D02*
X210462D01*
X208556Y140799D02*
X210458D01*
X200582Y129549D02*
X210291D01*
X105250Y147999D02*
X210241D01*
X202307Y129099D02*
X209841D01*
X105250Y147549D02*
X209791D01*
X201059Y173199D02*
X209402D01*
X105250Y154299D02*
X209396D01*
X105250Y147099D02*
X209341D01*
X105250Y159699D02*
X209253D01*
X105250Y149799D02*
X209213D01*
X199450Y177699D02*
X209208D01*
X105250Y146649D02*
X208891D01*
X200609Y173649D02*
X208746D01*
X105250Y153849D02*
X208744D01*
X105250Y150249D02*
X208646D01*
X199450Y177249D02*
X208644D01*
X105250Y160149D02*
X208594D01*
X105250Y146199D02*
X208441D01*
X200159Y174099D02*
X208370D01*
X105250Y153399D02*
X208368D01*
X105250Y150699D02*
X208307D01*
X199450Y176799D02*
X208305D01*
X185858Y160599D02*
X208144D01*
X199709Y174549D02*
X208134D01*
X105250Y152949D02*
X208133D01*
X105250Y151149D02*
X208096D01*
X199450Y176349D02*
X208095D01*
X199450Y174999D02*
X208000D01*
X105250Y152499D02*
X207999D01*
X105250Y145749D02*
X207991D01*
X105250Y151599D02*
X207982D01*
X199450Y175899D02*
X207981D01*
X199450Y175449D02*
X207950D01*
X105250Y152049D02*
X207950D01*
X186642Y161049D02*
X207694D01*
X105250Y145299D02*
X207541D01*
X187061Y161499D02*
X207244D01*
X105250Y144849D02*
X207091D01*
X187323Y161949D02*
X206794D01*
X105250Y144399D02*
X206641D01*
X187478Y162399D02*
X206344D01*
X105250Y143949D02*
X206191D01*
X187546Y162849D02*
X205894D01*
X105250Y143499D02*
X205741D01*
X187532Y163299D02*
X205444D01*
X105250Y143049D02*
X205291D01*
X187438Y163749D02*
X204994D01*
X105250Y142599D02*
X204841D01*
X187251Y164199D02*
X204544D01*
X173873Y142149D02*
X204391D01*
X186945Y164649D02*
X204094D01*
X174402Y141699D02*
X203941D01*
X186448Y165099D02*
X203644D01*
X174723Y141249D02*
X203491D01*
X185082Y165549D02*
X203194D01*
X174922Y140799D02*
X203041D01*
X105250Y165999D02*
X202744D01*
X175026Y140349D02*
X202591D01*
X105250Y166449D02*
X202294D01*
X175048Y139899D02*
X202141D01*
X105250Y166899D02*
X201844D01*
X174990Y139449D02*
X201691D01*
X105250Y167349D02*
X201394D01*
X174845Y138999D02*
X201241D01*
X105250Y167799D02*
X200944D01*
X174597Y138549D02*
X200791D01*
X105250Y168249D02*
X200494D01*
X197302Y129549D02*
X200418D01*
X174199Y138099D02*
X200341D01*
X105250Y168699D02*
X200044D01*
X173487Y137649D02*
X199891D01*
X154276Y124599D02*
X199642D01*
X105250Y169149D02*
X199594D01*
X105250Y137199D02*
X199441D01*
X105250Y169599D02*
X199144D01*
X196433Y129099D02*
X199052D01*
X105250Y136749D02*
X198991D01*
X153993Y125049D02*
X198858D01*
X105250Y170049D02*
X198694D01*
X164987Y128649D02*
X198555D01*
X105250Y136299D02*
X198541D01*
X153684Y125499D02*
X198439D01*
X151137Y128199D02*
X198249D01*
X105250Y170499D02*
X198244D01*
X153348Y125949D02*
X198177D01*
X105250Y135849D02*
X198091D01*
X151667Y127749D02*
X198062D01*
X152982Y126399D02*
X198022D01*
X152146Y127299D02*
X197968D01*
X152583Y126849D02*
X197954D01*
X105250Y170949D02*
X197794D01*
X105250Y135399D02*
X197641D01*
X105250Y171399D02*
X197344D01*
X105250Y134949D02*
X197191D01*
X105250Y171849D02*
X196894D01*
X105250Y134499D02*
X196741D01*
X105250Y172299D02*
X196444D01*
X105250Y134049D02*
X196291D01*
X105250Y191649D02*
X196127D01*
X105250Y172749D02*
X196004D01*
X105250Y133599D02*
X195841D01*
X105250Y173199D02*
X195722D01*
X105250Y191199D02*
X195598D01*
X105250Y173649D02*
X195582D01*
X105250Y186699D02*
X195550D01*
X105250Y186249D02*
X195550D01*
X105250Y185799D02*
X195550D01*
X105250Y185349D02*
X195550D01*
X105250Y184899D02*
X195550D01*
X105250Y184449D02*
X195550D01*
X105250Y183999D02*
X195550D01*
X105250Y183549D02*
X195550D01*
X105250Y183099D02*
X195550D01*
X105250Y182649D02*
X195550D01*
X105250Y182199D02*
X195550D01*
X105250Y181749D02*
X195550D01*
X105250Y181299D02*
X195550D01*
X105250Y180849D02*
X195550D01*
X105250Y180399D02*
X195550D01*
X105250Y179949D02*
X195550D01*
X105250Y179499D02*
X195550D01*
X105250Y179049D02*
X195550D01*
X105250Y178599D02*
X195550D01*
X105250Y178149D02*
X195550D01*
X105250Y177699D02*
X195550D01*
X105250Y177249D02*
X195550D01*
X105250Y176799D02*
X195550D01*
X105250Y176349D02*
X195550D01*
X105250Y175899D02*
X195550D01*
X105250Y175449D02*
X195550D01*
X105250Y174999D02*
X195550D01*
X105250Y174549D02*
X195550D01*
X105250Y174099D02*
X195550D01*
X105250Y187149D02*
X195531D01*
X105250Y187599D02*
X195424D01*
X165598Y133149D02*
X195391D01*
X105250Y188049D02*
X195316D01*
X105250Y190749D02*
X195277D01*
X105250Y188499D02*
X195155D01*
X105250Y190299D02*
X195078D01*
X105250Y188949D02*
X195010D01*
X105250Y189849D02*
X194974D01*
X105250Y189399D02*
X194952D01*
X155908Y120549D02*
X194418D01*
X156118Y115599D02*
X193642D01*
X156002Y120099D02*
X193052D01*
X156173Y116049D02*
X192858D01*
X156081Y119649D02*
X192555D01*
X156214Y116499D02*
X192439D01*
X156145Y119199D02*
X192249D01*
X156239Y116949D02*
X192177D01*
X156193Y118749D02*
X192062D01*
X156250Y117399D02*
X192022D01*
X156227Y118299D02*
X191968D01*
X156246Y117849D02*
X191954D01*
X105250Y165549D02*
X184918D01*
X105250Y160599D02*
X184142D01*
X105250Y165099D02*
X183552D01*
X105250Y161049D02*
X183358D01*
X105250Y164649D02*
X183055D01*
X105250Y161499D02*
X182939D01*
X105250Y164199D02*
X182749D01*
X105250Y161949D02*
X182677D01*
X105250Y163749D02*
X182562D01*
X105250Y162399D02*
X182522D01*
X105250Y163299D02*
X182468D01*
X105250Y162849D02*
X182454D01*
X105250Y208299D02*
X178896D01*
X105250Y203799D02*
X178713D01*
X105250Y207849D02*
X178244D01*
X105250Y204249D02*
X178146D01*
X105250Y207399D02*
X177868D01*
X105250Y204699D02*
X177807D01*
X105250Y206949D02*
X177633D01*
X105250Y205149D02*
X177596D01*
X105250Y206499D02*
X177499D01*
X105250Y205599D02*
X177482D01*
X105250Y206049D02*
X177450D01*
X170987Y137649D02*
X171513D01*
X105250D02*
X169013D01*
X105250Y142149D02*
X168627D01*
X105250Y138099D02*
X168301D01*
X105250Y141699D02*
X168098D01*
X105250Y138549D02*
X167903D01*
X105250Y141249D02*
X167777D01*
X105250Y138999D02*
X167655D01*
X105250Y140799D02*
X167578D01*
X105250Y139449D02*
X167510D01*
X105250Y140349D02*
X167474D01*
X105250Y139899D02*
X167452D01*
X150548Y128649D02*
X163013D01*
X105250Y133149D02*
X162627D01*
X149885Y129099D02*
X162301D01*
X105250Y132699D02*
X162098D01*
X149125Y129549D02*
X161903D01*
X105250Y132249D02*
X161777D01*
X148231Y129999D02*
X161655D01*
X105250Y131799D02*
X161578D01*
X147125Y130449D02*
X161510D01*
X105250Y131349D02*
X161474D01*
X145588Y130899D02*
X161452D01*
X105250D02*
X139412D01*
X105250Y130449D02*
X137875D01*
X105250Y129999D02*
X136769D01*
X105250Y129549D02*
X135875D01*
X105250Y105699D02*
X135444D01*
X105250Y129099D02*
X135115D01*
X105250Y106149D02*
X134740D01*
X105250Y128649D02*
X134452D01*
X105250Y106599D02*
X134120D01*
X105250Y128199D02*
X133863D01*
X105250Y107049D02*
X133565D01*
X105250Y127749D02*
X133333D01*
X105250Y107499D02*
X133064D01*
X105250Y127299D02*
X132854D01*
X105250Y107949D02*
X132609D01*
X105250Y126849D02*
X132417D01*
X105250Y108399D02*
X132193D01*
X105250Y126399D02*
X132018D01*
X105250Y108849D02*
X131813D01*
X105250Y125949D02*
X131652D01*
X105250Y109299D02*
X131464D01*
X105250Y125499D02*
X131316D01*
X105250Y109749D02*
X131143D01*
X105250Y125049D02*
X131007D01*
X105250Y110199D02*
X130849D01*
X105250Y124599D02*
X130724D01*
X105250Y110649D02*
X130578D01*
X105250Y124149D02*
X130464D01*
X105250Y111099D02*
X130331D01*
X105250Y123699D02*
X130226D01*
X105250Y111549D02*
X130105D01*
X105250Y123249D02*
X130009D01*
X105250Y111999D02*
X129898D01*
X105250Y122799D02*
X129812D01*
X105250Y112449D02*
X129711D01*
X105250Y122349D02*
X129633D01*
X105250Y112899D02*
X129543D01*
X105250Y121899D02*
X129473D01*
X105250Y113349D02*
X129392D01*
X105250Y121449D02*
X129329D01*
X105250Y113799D02*
X129258D01*
X105250Y120999D02*
X129203D01*
X105250Y114249D02*
X129140D01*
X105250Y120549D02*
X129092D01*
X105250Y114699D02*
X129038D01*
X105250Y120099D02*
X128998D01*
X105250Y115149D02*
X128953D01*
X105250Y119649D02*
X128919D01*
X105250Y115599D02*
X128882D01*
X105250Y119199D02*
X128855D01*
X105250Y116049D02*
X128827D01*
X105250Y118749D02*
X128807D01*
X105250Y116499D02*
X128786D01*
X105250Y118299D02*
X128773D01*
X105250Y116949D02*
X128761D01*
X105250Y117849D02*
X128754D01*
X105250Y117399D02*
X128750D01*
X258599Y170949D02*
X264985D01*
X258846Y170499D02*
X264741D01*
X258202Y171399D02*
X264515D01*
X258990Y170049D02*
X264291D01*
X257493Y171849D02*
X264225D01*
X251695Y172299D02*
X264048D01*
X251356Y172749D02*
X263962D01*
X250792Y173199D02*
X263958D01*
X259048Y169599D02*
X263841D01*
X259026Y169149D02*
X263391D01*
X258921Y168699D02*
X262941D01*
X251905Y171849D02*
X255507D01*
X252019Y171399D02*
X254798D01*
X252050Y170949D02*
X254401D01*
X252000Y170499D02*
X254154D01*
X250598Y168699D02*
X254079D01*
X251866Y170049D02*
X254010D01*
X251254Y169149D02*
X253974D01*
X251630Y169599D02*
X253952D01*
X269114Y151149D02*
X271620D01*
X268664Y150699D02*
X271441D01*
X269564Y151599D02*
X271004D01*
X268214Y150249D02*
X270991D01*
X270014Y152049D02*
X270684D01*
X267764Y149799D02*
X270541D01*
X270464Y152499D02*
X270512D01*
X267172Y149349D02*
X270091D01*
X233132Y148899D02*
X269641D01*
X233367Y148449D02*
X269191D01*
X233501Y147999D02*
X268741D01*
X233709Y147549D02*
X268291D01*
X268006Y168249D02*
X268491D01*
X267556Y167799D02*
X268041D01*
X267106Y167349D02*
X267591D01*
X266656Y166899D02*
X267141D01*
X266206Y166449D02*
X266691D01*
X265756Y165999D02*
X266241D01*
X265306Y165549D02*
X265791D01*
X264856Y165099D02*
X265341D01*
X264113Y164649D02*
X264891D01*
X244098Y164199D02*
X264441D01*
X215500Y163749D02*
X263991D01*
X250104Y163299D02*
X263541D01*
X244389Y168699D02*
X248402D01*
X215500Y173199D02*
X248208D01*
X242253Y163299D02*
X247896D01*
X215500Y169149D02*
X247746D01*
X215500Y172749D02*
X247644D01*
X215500Y169599D02*
X247370D01*
X215500Y172299D02*
X247305D01*
X242920Y162849D02*
X247244D01*
X215500Y170049D02*
X247134D01*
X215500Y171849D02*
X247095D01*
X215500Y170499D02*
X247000D01*
X215500Y171399D02*
X246981D01*
X215500Y170949D02*
X246950D01*
X243434Y162399D02*
X246868D01*
X243949Y161949D02*
X246633D01*
X246006Y160149D02*
X246596D01*
X244463Y161499D02*
X246499D01*
X245491Y160599D02*
X246482D01*
X244977Y161049D02*
X246450D01*
X215500Y164199D02*
X241902D01*
X215500Y168699D02*
X241708D01*
X215500Y164649D02*
X241246D01*
X215500Y168249D02*
X241144D01*
X215500Y165099D02*
X240870D01*
X215500Y167799D02*
X240805D01*
X215500Y165549D02*
X240634D01*
X215500Y167349D02*
X240595D01*
X215500Y165999D02*
X240500D01*
X215500Y166899D02*
X240481D01*
X215500Y166449D02*
X240450D01*
X519721Y416199D02*
X519750D01*
X519478Y415749D02*
X519750D01*
X519213Y415299D02*
X519750D01*
X518925Y414849D02*
X519750D01*
X518610Y414399D02*
X519750D01*
X518267Y413949D02*
X519750D01*
X517894Y413499D02*
X519750D01*
X517487Y413049D02*
X519750D01*
X517041Y412599D02*
X519750D01*
X516551Y412149D02*
X519750D01*
X516009Y411699D02*
X519750D01*
X515404Y411249D02*
X519750D01*
X514721Y410799D02*
X519750D01*
X513935Y410349D02*
X519750D01*
X513002Y409899D02*
X519750D01*
X511827Y409449D02*
X519750D01*
X510103Y408999D02*
X519750D01*
X497475Y408549D02*
X519750D01*
X498244Y408099D02*
X519750D01*
X498958Y407649D02*
X519750D01*
X499625Y407199D02*
X519750D01*
X500251Y406749D02*
X519750D01*
X500841Y406299D02*
X519750D01*
X501398Y405849D02*
X519750D01*
X501925Y405399D02*
X519750D01*
X502426Y404949D02*
X519750D01*
X502903Y404499D02*
X519750D01*
X503356Y404049D02*
X519750D01*
X503788Y403599D02*
X519750D01*
X504201Y403149D02*
X519750D01*
X504595Y402699D02*
X519750D01*
X504972Y402249D02*
X519750D01*
X505332Y401799D02*
X519750D01*
X505676Y401349D02*
X519750D01*
X506005Y400899D02*
X519750D01*
X506321Y400449D02*
X519750D01*
X506622Y399999D02*
X519750D01*
X506911Y399549D02*
X519750D01*
X507187Y399099D02*
X519750D01*
X507450Y398649D02*
X519750D01*
X507702Y398199D02*
X519750D01*
X507943Y397749D02*
X519750D01*
X508173Y397299D02*
X519750D01*
X508392Y396849D02*
X519750D01*
X508600Y396399D02*
X519750D01*
X508799Y395949D02*
X519750D01*
X508987Y395499D02*
X519750D01*
X509166Y395049D02*
X519750D01*
X509336Y394599D02*
X519750D01*
X509496Y394149D02*
X519750D01*
X509647Y393699D02*
X519750D01*
X509790Y393249D02*
X519750D01*
X509923Y392799D02*
X519750D01*
X510048Y392349D02*
X519750D01*
X510164Y391899D02*
X519750D01*
X510272Y391449D02*
X519750D01*
X510372Y390999D02*
X519750D01*
X510464Y390549D02*
X519750D01*
X510547Y390099D02*
X519750D01*
X510623Y389649D02*
X519750D01*
X510690Y389199D02*
X519750D01*
X510750Y388749D02*
X519750D01*
X510802Y388299D02*
X519750D01*
X510846Y387849D02*
X519750D01*
X510882Y387399D02*
X519750D01*
X510910Y386949D02*
X519750D01*
X510931Y386499D02*
X519750D01*
X510944Y386049D02*
X519750D01*
X510950Y385599D02*
X519750D01*
X510948Y385149D02*
X519750D01*
X510938Y384699D02*
X519750D01*
X510920Y384249D02*
X519750D01*
X510895Y383799D02*
X519750D01*
X510862Y383349D02*
X519750D01*
X510822Y382899D02*
X519750D01*
X510773Y382449D02*
X519750D01*
X510717Y381999D02*
X519750D01*
X510653Y381549D02*
X519750D01*
X510581Y381099D02*
X519750D01*
X510501Y380649D02*
X519750D01*
X510413Y380199D02*
X519750D01*
X510317Y379749D02*
X519750D01*
X510213Y379299D02*
X519750D01*
X510100Y378849D02*
X519750D01*
X509979Y378399D02*
X519750D01*
X509849Y377949D02*
X519750D01*
X509711Y377499D02*
X519750D01*
X509563Y377049D02*
X519750D01*
X509407Y376599D02*
X519750D01*
X509242Y376149D02*
X519750D01*
X509067Y375699D02*
X519750D01*
X508883Y375249D02*
X519750D01*
X508689Y374799D02*
X519750D01*
X508484Y374349D02*
X519750D01*
X508270Y373899D02*
X519750D01*
X508045Y373449D02*
X519750D01*
X507809Y372999D02*
X519750D01*
X507562Y372549D02*
X519750D01*
X507304Y372099D02*
X519750D01*
X507033Y371649D02*
X519750D01*
X506750Y371199D02*
X519750D01*
X506455Y370749D02*
X519750D01*
X506145Y370299D02*
X519750D01*
X505822Y369849D02*
X519750D01*
X505485Y369399D02*
X519750D01*
X505131Y368949D02*
X519750D01*
X504762Y368499D02*
X519750D01*
X514972Y368049D02*
X519750D01*
X515914Y367599D02*
X519750D01*
X516584Y367149D02*
X519750D01*
X517109Y366699D02*
X519750D01*
X517535Y366249D02*
X519750D01*
X517889Y365799D02*
X519750D01*
X518182Y365349D02*
X519750D01*
X518426Y364899D02*
X519750D01*
X518625Y364449D02*
X519750D01*
X518785Y363999D02*
X519750D01*
X518908Y363549D02*
X519750D01*
X518996Y363099D02*
X519750D01*
X519052Y362649D02*
X519750D01*
X519075Y362199D02*
X519750D01*
X519067Y361749D02*
X519750D01*
X519026Y361299D02*
X519750D01*
X518953Y360849D02*
X519750D01*
X518846Y360399D02*
X519750D01*
X518704Y359949D02*
X519750D01*
X518523Y359499D02*
X519750D01*
X518301Y359049D02*
X519750D01*
X518031Y358599D02*
X519750D01*
X517707Y358149D02*
X519750D01*
X517317Y357699D02*
X519750D01*
X516841Y357249D02*
X519750D01*
X516247Y356799D02*
X519750D01*
X515458Y356349D02*
X519750D01*
X514190Y355899D02*
X519750D01*
X453333Y355449D02*
X519750D01*
X454179Y354999D02*
X519750D01*
X454817Y354549D02*
X519750D01*
X455331Y354099D02*
X519750D01*
X455757Y353649D02*
X519750D01*
X456115Y353199D02*
X519750D01*
X456417Y352749D02*
X519750D01*
X456671Y352299D02*
X519750D01*
X456884Y351849D02*
X519750D01*
X457060Y351399D02*
X519750D01*
X457200Y350949D02*
X519750D01*
X457308Y350499D02*
X519750D01*
X457385Y350049D02*
X519750D01*
X457432Y349599D02*
X519750D01*
X457450Y349149D02*
X519750D01*
X457438Y348699D02*
X519750D01*
X457397Y348249D02*
X519750D01*
X457327Y347799D02*
X519750D01*
X457225Y347349D02*
X519750D01*
X457091Y346899D02*
X519750D01*
X456923Y346449D02*
X519750D01*
X456719Y345999D02*
X519750D01*
X456473Y345549D02*
X519750D01*
X456181Y345099D02*
X519750D01*
X455836Y344649D02*
X519750D01*
X455425Y344199D02*
X519750D01*
X454932Y343749D02*
X519750D01*
X454324Y343299D02*
X519750D01*
X453532Y342849D02*
X519750D01*
X452334Y342399D02*
X519750D01*
X306016Y341949D02*
X519750D01*
X306466Y341499D02*
X519750D01*
X306916Y341049D02*
X519750D01*
X307366Y340599D02*
X519750D01*
X307816Y340149D02*
X519750D01*
X308266Y339699D02*
X519750D01*
X325157Y339249D02*
X519750D01*
X327854Y338799D02*
X519750D01*
X328983Y338349D02*
X519750D01*
X329814Y337899D02*
X519750D01*
X330485Y337449D02*
X519750D01*
X331048Y336999D02*
X519750D01*
X331533Y336549D02*
X519750D01*
X331955Y336099D02*
X519750D01*
X332325Y335649D02*
X519750D01*
X332651Y335199D02*
X519750D01*
X332938Y334749D02*
X519750D01*
X333190Y334299D02*
X519750D01*
X333411Y333849D02*
X519750D01*
X333603Y333399D02*
X519750D01*
X333767Y332949D02*
X519750D01*
X333906Y332499D02*
X519750D01*
X334020Y332049D02*
X519750D01*
X334111Y331599D02*
X519750D01*
X334178Y331149D02*
X519750D01*
X334224Y330699D02*
X519750D01*
X334247Y330249D02*
X519750D01*
X334248Y329799D02*
X519750D01*
X334227Y329349D02*
X519750D01*
X334184Y328899D02*
X519750D01*
X334119Y328449D02*
X519750D01*
X334031Y327999D02*
X519750D01*
X333919Y327549D02*
X519750D01*
X333783Y327099D02*
X519750D01*
X333622Y326649D02*
X519750D01*
X333433Y326199D02*
X519750D01*
X333215Y325749D02*
X519750D01*
X332966Y325299D02*
X519750D01*
X332683Y324849D02*
X519750D01*
X332361Y324399D02*
X519750D01*
X331996Y323949D02*
X519750D01*
X331580Y323499D02*
X519750D01*
X331103Y323049D02*
X519750D01*
X330548Y322599D02*
X519750D01*
X329891Y322149D02*
X519750D01*
X329081Y321699D02*
X519750D01*
X327996Y321249D02*
X519750D01*
X325948Y320799D02*
X519750D01*
X314450Y320349D02*
X519750D01*
X314450Y319899D02*
X519750D01*
X314450Y319449D02*
X519750D01*
X314450Y318999D02*
X519750D01*
X314450Y318549D02*
X519750D01*
X314450Y318099D02*
X519750D01*
X314450Y317649D02*
X519750D01*
X314450Y317199D02*
X519750D01*
X314450Y316749D02*
X519750D01*
X314450Y316299D02*
X519750D01*
X314450Y315849D02*
X519750D01*
X314450Y315399D02*
X519750D01*
X314450Y314949D02*
X519750D01*
X314450Y314499D02*
X519750D01*
X314450Y314049D02*
X519750D01*
X314450Y313599D02*
X519750D01*
X314450Y313149D02*
X519750D01*
X314450Y312699D02*
X519750D01*
X314450Y312249D02*
X519750D01*
X314450Y311799D02*
X519750D01*
X513327Y311349D02*
X519750D01*
X515132Y310899D02*
X519750D01*
X516020Y310449D02*
X519750D01*
X516665Y309999D02*
X519750D01*
X517174Y309549D02*
X519750D01*
X517589Y309099D02*
X519750D01*
X517933Y308649D02*
X519750D01*
X518219Y308199D02*
X519750D01*
X518456Y307749D02*
X519750D01*
X518650Y307299D02*
X519750D01*
X518804Y306849D02*
X519750D01*
X518922Y306399D02*
X519750D01*
X519006Y305949D02*
X519750D01*
X519057Y305499D02*
X519750D01*
X519076Y305049D02*
X519750D01*
X519063Y304599D02*
X519750D01*
X519018Y304149D02*
X519750D01*
X518940Y303699D02*
X519750D01*
X518828Y303249D02*
X519750D01*
X518681Y302799D02*
X519750D01*
X518495Y302349D02*
X519750D01*
X518266Y301899D02*
X519750D01*
X517989Y301449D02*
X519750D01*
X517656Y300999D02*
X519750D01*
X517255Y300549D02*
X519750D01*
X516766Y300099D02*
X519750D01*
X516150Y299649D02*
X519750D01*
X515321Y299199D02*
X519750D01*
X513895Y298749D02*
X519750D01*
X314450Y298299D02*
X519750D01*
X314450Y297849D02*
X519750D01*
X314450Y297399D02*
X519750D01*
X314450Y296949D02*
X519750D01*
X314450Y296499D02*
X519750D01*
X314450Y296049D02*
X519750D01*
X314450Y295599D02*
X519750D01*
X314450Y295149D02*
X519750D01*
X314450Y294699D02*
X519750D01*
X314450Y294249D02*
X519750D01*
X314450Y293799D02*
X519750D01*
X314450Y293349D02*
X519750D01*
X314450Y292899D02*
X519750D01*
X314450Y292449D02*
X519750D01*
X314450Y291999D02*
X519750D01*
X314450Y291549D02*
X519750D01*
X314450Y291099D02*
X519750D01*
X314450Y290649D02*
X519750D01*
X314450Y290199D02*
X519750D01*
X314450Y289749D02*
X519750D01*
X314450Y289299D02*
X519750D01*
X314450Y288849D02*
X519750D01*
X314450Y288399D02*
X519750D01*
X314450Y287949D02*
X519750D01*
X314450Y287499D02*
X519750D01*
X314450Y287049D02*
X519750D01*
X314866Y286599D02*
X519750D01*
X315316Y286149D02*
X519750D01*
X315766Y285699D02*
X519750D01*
X316108Y285249D02*
X519750D01*
X316316Y284799D02*
X519750D01*
X316425Y284349D02*
X519750D01*
X316450Y283899D02*
X519750D01*
X316450Y283449D02*
X519750D01*
X316450Y282999D02*
X519750D01*
X316450Y282549D02*
X519750D01*
X316450Y282099D02*
X519750D01*
X316450Y281649D02*
X519750D01*
X316450Y281199D02*
X519750D01*
X316450Y280749D02*
X519750D01*
X316450Y280299D02*
X519750D01*
X316450Y279849D02*
X519750D01*
X316450Y279399D02*
X519750D01*
X316450Y278949D02*
X519750D01*
X316450Y278499D02*
X519750D01*
X316450Y278049D02*
X519750D01*
X316450Y277599D02*
X519750D01*
X316450Y277149D02*
X519750D01*
X316450Y276699D02*
X519750D01*
X316450Y276249D02*
X519750D01*
X316450Y275799D02*
X519750D01*
X316450Y275349D02*
X519750D01*
X316450Y274899D02*
X519750D01*
X316450Y274449D02*
X519750D01*
X316450Y273999D02*
X519750D01*
X316450Y273549D02*
X519750D01*
X316450Y273099D02*
X519750D01*
X316450Y272649D02*
X519750D01*
X316450Y272199D02*
X519750D01*
X316450Y271749D02*
X519750D01*
X316450Y271299D02*
X519750D01*
X316450Y270849D02*
X519750D01*
X316450Y270399D02*
X519750D01*
X316450Y269949D02*
X519750D01*
X316450Y269499D02*
X519750D01*
X316450Y269049D02*
X519750D01*
X316450Y268599D02*
X519750D01*
X316450Y268149D02*
X519750D01*
X316450Y267699D02*
X519750D01*
X316450Y267249D02*
X519750D01*
X316450Y266799D02*
X519750D01*
X316450Y266349D02*
X519750D01*
X316450Y265899D02*
X519750D01*
X316450Y265449D02*
X519750D01*
X316450Y264999D02*
X519750D01*
X316450Y264549D02*
X519750D01*
X514836Y264099D02*
X519750D01*
X515826Y263649D02*
X519750D01*
X516518Y263199D02*
X519750D01*
X517056Y262749D02*
X519750D01*
X517492Y262299D02*
X519750D01*
X517852Y261849D02*
X519750D01*
X518152Y261399D02*
X519750D01*
X518401Y260949D02*
X519750D01*
X518605Y260499D02*
X519750D01*
X518769Y260049D02*
X519750D01*
X518896Y259599D02*
X519750D01*
X518988Y259149D02*
X519750D01*
X519047Y258699D02*
X519750D01*
X519074Y258249D02*
X519750D01*
X519069Y257799D02*
X519750D01*
X519032Y257349D02*
X519750D01*
X518963Y256899D02*
X519750D01*
X518860Y256449D02*
X519750D01*
X518721Y255999D02*
X519750D01*
X518545Y255549D02*
X519750D01*
X518328Y255099D02*
X519750D01*
X518064Y254649D02*
X519750D01*
X517746Y254199D02*
X519750D01*
X517364Y253749D02*
X519750D01*
X516899Y253299D02*
X519750D01*
X516321Y252849D02*
X519750D01*
X515560Y252399D02*
X519750D01*
X514385Y251949D02*
X519750D01*
X453218Y251499D02*
X519750D01*
X454098Y251049D02*
X519750D01*
X454754Y250599D02*
X519750D01*
X455279Y250149D02*
X519750D01*
X455713Y249699D02*
X519750D01*
X456078Y249249D02*
X519750D01*
X456386Y248799D02*
X519750D01*
X456645Y248349D02*
X519750D01*
X456863Y247899D02*
X519750D01*
X457042Y247449D02*
X519750D01*
X457186Y246999D02*
X519750D01*
X457298Y246549D02*
X519750D01*
X457378Y246099D02*
X519750D01*
X457429Y245649D02*
X519750D01*
X457449Y245199D02*
X519750D01*
X457441Y244749D02*
X519750D01*
X457403Y244299D02*
X519750D01*
X457336Y243849D02*
X519750D01*
X457238Y243399D02*
X519750D01*
X457108Y242949D02*
X519750D01*
X456944Y242499D02*
X519750D01*
X456743Y242049D02*
X519750D01*
X456502Y241599D02*
X519750D01*
X456216Y241149D02*
X519750D01*
X455877Y240699D02*
X519750D01*
X455474Y240249D02*
X519750D01*
X454992Y239799D02*
X519750D01*
X454398Y239349D02*
X519750D01*
X453633Y238899D02*
X519750D01*
X452508Y238449D02*
X519750D01*
X309964Y237999D02*
X519750D01*
X309514Y237549D02*
X519750D01*
X309064Y237099D02*
X519750D01*
X308614Y236649D02*
X519750D01*
X315581Y236199D02*
X519750D01*
X316216Y235749D02*
X519750D01*
X316666Y235299D02*
X519750D01*
X317116Y234849D02*
X519750D01*
X317566Y234399D02*
X519750D01*
X318016Y233949D02*
X519750D01*
X318466Y233499D02*
X519750D01*
X318898Y233049D02*
X519750D01*
X319190Y232599D02*
X519750D01*
X319363Y232149D02*
X519750D01*
X319442Y231699D02*
X519750D01*
X353458Y231249D02*
X519750D01*
X353908Y230799D02*
X519750D01*
X354358Y230349D02*
X519750D01*
X354808Y229899D02*
X519750D01*
X355258Y229449D02*
X519750D01*
X355708Y228999D02*
X519750D01*
X356158Y228549D02*
X519750D01*
X356608Y228099D02*
X519750D01*
X357058Y227649D02*
X519750D01*
X357508Y227199D02*
X519750D01*
X357958Y226749D02*
X519750D01*
X358408Y226299D02*
X519750D01*
X358858Y225849D02*
X519750D01*
X359308Y225399D02*
X519750D01*
X359758Y224949D02*
X519750D01*
X360208Y224499D02*
X519750D01*
X360658Y224049D02*
X519750D01*
X361108Y223599D02*
X519750D01*
X361558Y223149D02*
X519750D01*
X362008Y222699D02*
X519750D01*
X362458Y222249D02*
X519750D01*
X362908Y221799D02*
X519750D01*
X363358Y221349D02*
X519750D01*
X363808Y220899D02*
X519750D01*
X364258Y220449D02*
X519750D01*
X364708Y219999D02*
X519750D01*
X365158Y219549D02*
X519750D01*
X365608Y219099D02*
X519750D01*
X366058Y218649D02*
X519750D01*
X366508Y218199D02*
X519750D01*
X366958Y217749D02*
X519750D01*
X367408Y217299D02*
X519750D01*
X367858Y216849D02*
X519750D01*
X368308Y216399D02*
X519750D01*
X368758Y215949D02*
X519750D01*
X369208Y215499D02*
X519750D01*
X369658Y215049D02*
X519750D01*
X370108Y214599D02*
X519750D01*
X370558Y214149D02*
X519750D01*
X371008Y213699D02*
X519750D01*
X371458Y213249D02*
X519750D01*
X371908Y212799D02*
X519750D01*
X372358Y212349D02*
X519750D01*
X372808Y211899D02*
X519750D01*
X373258Y211449D02*
X519750D01*
X373708Y210999D02*
X519750D01*
X374158Y210549D02*
X519750D01*
X374608Y210099D02*
X519750D01*
X375058Y209649D02*
X519750D01*
X375508Y209199D02*
X519750D01*
X375958Y208749D02*
X519750D01*
X376408Y208299D02*
X519750D01*
X376858Y207849D02*
X519750D01*
X377308Y207399D02*
X519750D01*
X515007Y206949D02*
X519750D01*
X515936Y206499D02*
X519750D01*
X516601Y206049D02*
X519750D01*
X517123Y205599D02*
X519750D01*
X517547Y205149D02*
X519750D01*
X517898Y204699D02*
X519750D01*
X518190Y204249D02*
X519750D01*
X518432Y203799D02*
X519750D01*
X518630Y203349D02*
X519750D01*
X518789Y202899D02*
X519750D01*
X518911Y202449D02*
X519750D01*
X518998Y201999D02*
X519750D01*
X519053Y201549D02*
X519750D01*
X519075Y201099D02*
X519750D01*
X519066Y200649D02*
X519750D01*
X519024Y200199D02*
X519750D01*
X518950Y199749D02*
X519750D01*
X518842Y199299D02*
X519750D01*
X518699Y198849D02*
X519750D01*
X518517Y198399D02*
X519750D01*
X518294Y197949D02*
X519750D01*
X518023Y197499D02*
X519750D01*
X517697Y197049D02*
X519750D01*
X517304Y196599D02*
X519750D01*
X516826Y196149D02*
X519750D01*
X516227Y195699D02*
X519750D01*
X515430Y195249D02*
X519750D01*
X514133Y194799D02*
X519750D01*
X504020Y194349D02*
X519750D01*
X504422Y193899D02*
X519750D01*
X504806Y193449D02*
X519750D01*
X505174Y192999D02*
X519750D01*
X505525Y192549D02*
X519750D01*
X505861Y192099D02*
X519750D01*
X506182Y191649D02*
X519750D01*
X506490Y191199D02*
X519750D01*
X506784Y190749D02*
X519750D01*
X507065Y190299D02*
X519750D01*
X507335Y189849D02*
X519750D01*
X507592Y189399D02*
X519750D01*
X507837Y188949D02*
X519750D01*
X508072Y188499D02*
X519750D01*
X508296Y188049D02*
X519750D01*
X508509Y187599D02*
X519750D01*
X508712Y187149D02*
X519750D01*
X508905Y186699D02*
X519750D01*
X509088Y186249D02*
X519750D01*
X509262Y185799D02*
X519750D01*
X509426Y185349D02*
X519750D01*
X509581Y184899D02*
X519750D01*
X509727Y184449D02*
X519750D01*
X509865Y183999D02*
X519750D01*
X509994Y183549D02*
X519750D01*
X510114Y183099D02*
X519750D01*
X510225Y182649D02*
X519750D01*
X510329Y182199D02*
X519750D01*
X510424Y181749D02*
X519750D01*
X510511Y181299D02*
X519750D01*
X510590Y180849D02*
X519750D01*
X510661Y180399D02*
X519750D01*
X510724Y179949D02*
X519750D01*
X510779Y179499D02*
X519750D01*
X510827Y179049D02*
X519750D01*
X510867Y178599D02*
X519750D01*
X510899Y178149D02*
X519750D01*
X510923Y177699D02*
X519750D01*
X510939Y177249D02*
X519750D01*
X510948Y176799D02*
X519750D01*
X510950Y176349D02*
X519750D01*
X510943Y175899D02*
X519750D01*
X510929Y175449D02*
X519750D01*
X510907Y174999D02*
X519750D01*
X510878Y174549D02*
X519750D01*
X510841Y174099D02*
X519750D01*
X510796Y173649D02*
X519750D01*
X510743Y173199D02*
X519750D01*
X510683Y172749D02*
X519750D01*
X510614Y172299D02*
X519750D01*
X510538Y171849D02*
X519750D01*
X510453Y171399D02*
X519750D01*
X510361Y170949D02*
X519750D01*
X510260Y170499D02*
X519750D01*
X510151Y170049D02*
X519750D01*
X510034Y169599D02*
X519750D01*
X509908Y169149D02*
X519750D01*
X509773Y168699D02*
X519750D01*
X509630Y168249D02*
X519750D01*
X509478Y167799D02*
X519750D01*
X509316Y167349D02*
X519750D01*
X509146Y166899D02*
X519750D01*
X508966Y166449D02*
X519750D01*
X508776Y165999D02*
X519750D01*
X508576Y165549D02*
X519750D01*
X508367Y165099D02*
X519750D01*
X508146Y164649D02*
X519750D01*
X507915Y164199D02*
X519750D01*
X507673Y163749D02*
X519750D01*
X507420Y163299D02*
X519750D01*
X507155Y162849D02*
X519750D01*
X506878Y162399D02*
X519750D01*
X506588Y161949D02*
X519750D01*
X506284Y161499D02*
X519750D01*
X505968Y161049D02*
X519750D01*
X505637Y160599D02*
X519750D01*
X505290Y160149D02*
X519750D01*
X504928Y159699D02*
X519750D01*
X504550Y159249D02*
X519750D01*
X504154Y158799D02*
X519750D01*
X503739Y158349D02*
X519750D01*
X503304Y157899D02*
X519750D01*
X502848Y157449D02*
X519750D01*
X502369Y156999D02*
X519750D01*
X501865Y156549D02*
X519750D01*
X501334Y156099D02*
X519750D01*
X500773Y155649D02*
X519750D01*
X500180Y155199D02*
X519750D01*
X499549Y154749D02*
X519750D01*
X498877Y154299D02*
X519750D01*
X498157Y153849D02*
X519750D01*
X497381Y153399D02*
X519750D01*
X496539Y152949D02*
X519750D01*
X495615Y152499D02*
X519750D01*
X494586Y152049D02*
X519750D01*
X493418Y151599D02*
X519750D01*
X492044Y151149D02*
X519750D01*
X490322Y150699D02*
X519750D01*
X487736Y150249D02*
X519750D01*
X455908Y149799D02*
X519750D01*
X456358Y149349D02*
X519750D01*
X465500Y137649D02*
X519750D01*
X465500Y137199D02*
X519750D01*
X465500Y136749D02*
X519750D01*
X465500Y136299D02*
X519750D01*
X465500Y135849D02*
X519750D01*
X465500Y135399D02*
X519750D01*
X465500Y134949D02*
X519750D01*
X465500Y134499D02*
X519750D01*
X465500Y134049D02*
X519750D01*
X465500Y133599D02*
X519750D01*
X465500Y133149D02*
X519750D01*
X465500Y132699D02*
X519750D01*
X465500Y132249D02*
X519750D01*
X465500Y131799D02*
X519750D01*
X465500Y131349D02*
X519750D01*
X510588Y130899D02*
X519750D01*
X512125Y130449D02*
X519750D01*
X513231Y129999D02*
X519750D01*
X514125Y129549D02*
X519750D01*
X514885Y129099D02*
X519750D01*
X515548Y128649D02*
X519750D01*
X516137Y128199D02*
X519750D01*
X516667Y127749D02*
X519750D01*
X517146Y127299D02*
X519750D01*
X517583Y126849D02*
X519750D01*
X517982Y126399D02*
X519750D01*
X518348Y125949D02*
X519750D01*
X518684Y125499D02*
X519750D01*
X518993Y125049D02*
X519750D01*
X519276Y124599D02*
X519750D01*
X519536Y124149D02*
X519750D01*
X465500Y138099D02*
X518773D01*
X456808Y148899D02*
X518754D01*
X465500Y138549D02*
X517222D01*
X457258Y148449D02*
X517217D01*
X465500Y138999D02*
X516427D01*
X457708Y147999D02*
X516424D01*
X465500Y139449D02*
X515855D01*
X458158Y147549D02*
X515852D01*
X465500Y139899D02*
X515409D01*
X458608Y147099D02*
X515407D01*
X465358Y140349D02*
X515053D01*
X459058Y146649D02*
X515052D01*
X464908Y140799D02*
X514767D01*
X459508Y146199D02*
X514765D01*
X464458Y141249D02*
X514537D01*
X459958Y145749D02*
X514536D01*
X464008Y141699D02*
X514356D01*
X460408Y145299D02*
X514355D01*
X463558Y142149D02*
X514220D01*
X460858Y144849D02*
X514219D01*
X463108Y142599D02*
X514125D01*
X461308Y144399D02*
X514125D01*
X462658Y143049D02*
X514069D01*
X461758Y143949D02*
X514068D01*
X462208Y143499D02*
X514050D01*
X314450Y311349D02*
X512082D01*
X314450Y298749D02*
X511515D01*
X503599Y194799D02*
X511277D01*
X451954Y355899D02*
X511220D01*
X451696Y251949D02*
X511025D01*
X316450Y264099D02*
X510573D01*
X504376Y368049D02*
X510437D01*
X377758Y206949D02*
X510403D01*
X314450Y310899D02*
X510277D01*
X314450Y299199D02*
X510088D01*
X503157Y195249D02*
X509980D01*
X291616Y356349D02*
X509952D01*
X316450Y252399D02*
X509850D01*
X316450Y263649D02*
X509583D01*
X503972Y367599D02*
X509496D01*
X378208Y206499D02*
X509473D01*
X314450Y310449D02*
X509389D01*
X314450Y299649D02*
X509259D01*
X502694Y195699D02*
X509183D01*
X291166Y356799D02*
X509162D01*
X316450Y252849D02*
X509089D01*
X316450Y263199D02*
X508892D01*
X503548Y367149D02*
X508826D01*
X378658Y206049D02*
X508808D01*
X314450Y309999D02*
X508744D01*
X314450Y300099D02*
X508644D01*
X502207Y196149D02*
X508584D01*
X290716Y357249D02*
X508568D01*
X316450Y253299D02*
X508510D01*
X316450Y262749D02*
X508354D01*
X503104Y366699D02*
X508301D01*
X379108Y205599D02*
X508287D01*
X314450Y309549D02*
X508235D01*
X314450Y300549D02*
X508154D01*
X501694Y196599D02*
X508106D01*
X290266Y357699D02*
X508093D01*
X316450Y253749D02*
X508046D01*
X316450Y262299D02*
X507917D01*
X502638Y366249D02*
X507874D01*
X379558Y205149D02*
X507863D01*
X314450Y309099D02*
X507820D01*
X314450Y300999D02*
X507753D01*
X501154Y197049D02*
X507713D01*
X289816Y358149D02*
X507702D01*
X316450Y254199D02*
X507663D01*
X316450Y261849D02*
X507557D01*
X502148Y365799D02*
X507521D01*
X380008Y204699D02*
X507511D01*
X314450Y308649D02*
X507476D01*
X314450Y301449D02*
X507420D01*
X500583Y197499D02*
X507387D01*
X289366Y358599D02*
X507378D01*
X316450Y254649D02*
X507346D01*
X316450Y261399D02*
X507257D01*
X501633Y365349D02*
X507227D01*
X380458Y204249D02*
X507219D01*
X314450Y308199D02*
X507190D01*
X314450Y301899D02*
X507144D01*
X499978Y197949D02*
X507116D01*
X288916Y359049D02*
X507109D01*
X316450Y255099D02*
X507082D01*
X316450Y260949D02*
X507009D01*
X501089Y364899D02*
X506984D01*
X380908Y203799D02*
X506977D01*
X314450Y307749D02*
X506953D01*
X314450Y302349D02*
X506915D01*
X499334Y198399D02*
X506892D01*
X489351Y359499D02*
X506886D01*
X319203Y255549D02*
X506864D01*
X319009Y260499D02*
X506804D01*
X500514Y364449D02*
X506784D01*
X381358Y203349D02*
X506779D01*
X314450Y307299D02*
X506760D01*
X314450Y302799D02*
X506729D01*
X498647Y198849D02*
X506710D01*
X491336Y359949D02*
X506706D01*
X320080Y255999D02*
X506688D01*
X320018Y260049D02*
X506641D01*
X499904Y363999D02*
X506625D01*
X486147Y202899D02*
X506620D01*
X314450Y306849D02*
X506605D01*
X314450Y303249D02*
X506581D01*
X497910Y199299D02*
X506567D01*
X492838Y360399D02*
X506563D01*
X320524Y256449D02*
X506550D01*
X320487Y259599D02*
X506514D01*
X499256Y363549D02*
X506502D01*
X489625Y202449D02*
X506498D01*
X314450Y306399D02*
X506487D01*
X314450Y303699D02*
X506469D01*
X497114Y199749D02*
X506459D01*
X494087Y360849D02*
X506456D01*
X320800Y256899D02*
X506447D01*
X320777Y259149D02*
X506421D01*
X498564Y363099D02*
X506413D01*
X491530Y201999D02*
X506411D01*
X314450Y305949D02*
X506403D01*
X314450Y304149D02*
X506392D01*
X496246Y200199D02*
X506385D01*
X495172Y361299D02*
X506383D01*
X320965Y257349D02*
X506377D01*
X320952Y258699D02*
X506362D01*
X497820Y362649D02*
X506358D01*
X492995Y201549D02*
X506356D01*
X314450Y305499D02*
X506352D01*
X314450Y304599D02*
X506347D01*
X495291Y200649D02*
X506344D01*
X496140Y361749D02*
X506343D01*
X321042Y257799D02*
X506340D01*
X321038Y258249D02*
X506335D01*
X497016Y362199D02*
X506334D01*
X494222Y201099D02*
X506334D01*
X314450Y305049D02*
X506334D01*
X496641Y408999D02*
X504897D01*
X465500Y130899D02*
X504412D01*
X495728Y409449D02*
X503173D01*
X465500Y130449D02*
X502875D01*
X494713Y409899D02*
X501998D01*
X465500Y129999D02*
X501769D01*
X493563Y410349D02*
X501065D01*
X275950Y434649D02*
X501060D01*
X465500Y129549D02*
X500875D01*
X465500Y105699D02*
X500444D01*
X492219Y410799D02*
X500279D01*
X275950Y434199D02*
X500275D01*
X465500Y129099D02*
X500115D01*
X465500Y106149D02*
X499740D01*
X490551Y411249D02*
X499596D01*
X275950Y433749D02*
X499592D01*
X465500Y128649D02*
X499452D01*
X465500Y106599D02*
X499120D01*
X488138Y411699D02*
X498991D01*
X275950Y433299D02*
X498988D01*
X465500Y128199D02*
X498863D01*
X465500Y107049D02*
X498565D01*
X275950Y412149D02*
X498449D01*
X275950Y432849D02*
X498446D01*
X465500Y127749D02*
X498333D01*
X465500Y107499D02*
X498064D01*
X275950Y412599D02*
X497959D01*
X275950Y432399D02*
X497956D01*
X465500Y127299D02*
X497854D01*
X465500Y107949D02*
X497609D01*
X275950Y413049D02*
X497513D01*
X275950Y431949D02*
X497511D01*
X465500Y126849D02*
X497417D01*
X465500Y108399D02*
X497193D01*
X275950Y413499D02*
X497106D01*
X275950Y431499D02*
X497104D01*
X465500Y126399D02*
X497018D01*
X465500Y108849D02*
X496813D01*
X275950Y413949D02*
X496733D01*
X275950Y431049D02*
X496730D01*
X465500Y125949D02*
X496652D01*
X465500Y109299D02*
X496464D01*
X275950Y414399D02*
X496390D01*
X275950Y430599D02*
X496388D01*
X465500Y125499D02*
X496316D01*
X465500Y109749D02*
X496143D01*
X275950Y414849D02*
X496075D01*
X275950Y430149D02*
X496074D01*
X465500Y125049D02*
X496007D01*
X465500Y110199D02*
X495849D01*
X275950Y415299D02*
X495787D01*
X275950Y429699D02*
X495785D01*
X465500Y124599D02*
X495724D01*
X465500Y110649D02*
X495578D01*
X275950Y415749D02*
X495522D01*
X275950Y429249D02*
X495520D01*
X465500Y124149D02*
X495464D01*
X465500Y111099D02*
X495331D01*
X275950Y416199D02*
X495279D01*
X275950Y428799D02*
X495277D01*
X465500Y123699D02*
X495226D01*
X465500Y111549D02*
X495105D01*
X275950Y416649D02*
X495057D01*
X275950Y428349D02*
X495056D01*
X465500Y123249D02*
X495009D01*
X465500Y111999D02*
X494898D01*
X275950Y417099D02*
X494855D01*
X275950Y427899D02*
X494854D01*
X465500Y122799D02*
X494812D01*
X465500Y112449D02*
X494711D01*
X275950Y417549D02*
X494672D01*
X275950Y427449D02*
X494671D01*
X465500Y122349D02*
X494633D01*
X465500Y112899D02*
X494543D01*
X275950Y417999D02*
X494508D01*
X275950Y426999D02*
X494507D01*
X465500Y121899D02*
X494473D01*
X465500Y113349D02*
X494392D01*
X275950Y418449D02*
X494360D01*
X275950Y426549D02*
X494360D01*
X465500Y121449D02*
X494329D01*
X465500Y113799D02*
X494258D01*
X275950Y418899D02*
X494230D01*
X275950Y426099D02*
X494229D01*
X465500Y120999D02*
X494203D01*
X465500Y114249D02*
X494140D01*
X275950Y419349D02*
X494116D01*
X275950Y425649D02*
X494115D01*
X465500Y120549D02*
X494092D01*
X465500Y114699D02*
X494038D01*
X275950Y419799D02*
X494018D01*
X275950Y425199D02*
X494017D01*
X465500Y120099D02*
X493998D01*
X465500Y115149D02*
X493953D01*
X275950Y420249D02*
X493936D01*
X275950Y424749D02*
X493935D01*
X465500Y119649D02*
X493919D01*
X465500Y115599D02*
X493882D01*
X275950Y420699D02*
X493868D01*
X275950Y424299D02*
X493868D01*
X465500Y119199D02*
X493855D01*
X465500Y116049D02*
X493827D01*
X275950Y421149D02*
X493817D01*
X275950Y423849D02*
X493816D01*
X465500Y118749D02*
X493807D01*
X465500Y116499D02*
X493786D01*
X275950Y421599D02*
X493780D01*
X275950Y423399D02*
X493779D01*
X465500Y118299D02*
X493773D01*
X465500Y116949D02*
X493761D01*
X275950Y422049D02*
X493757D01*
X275950Y422949D02*
X493757D01*
X465500Y117849D02*
X493754D01*
X465500Y117399D02*
X493750D01*
X275950Y422499D02*
X493750D01*
X381808Y202899D02*
X482853D01*
X455458Y150249D02*
X481264D01*
X275950Y411699D02*
X480862D01*
X288466Y359499D02*
X479649D01*
X382000Y202449D02*
X479375D01*
X455008Y150699D02*
X478678D01*
X275950Y411249D02*
X478449D01*
X288016Y359949D02*
X477664D01*
X382000Y201999D02*
X477470D01*
X454558Y151149D02*
X476956D01*
X275950Y410799D02*
X476781D01*
X287566Y360399D02*
X476162D01*
X382000Y201549D02*
X476005D01*
X454108Y151599D02*
X475582D01*
X275950Y410349D02*
X475437D01*
X287116Y360849D02*
X474913D01*
X382000Y201099D02*
X474778D01*
X453658Y152049D02*
X474414D01*
X275950Y409899D02*
X474287D01*
X286666Y361299D02*
X473828D01*
X382109Y200649D02*
X473709D01*
X453208Y152499D02*
X473385D01*
X275950Y409449D02*
X473272D01*
X286216Y361749D02*
X472860D01*
X382559Y200199D02*
X472754D01*
X452758Y152949D02*
X472461D01*
X275950Y408999D02*
X472359D01*
X285766Y362199D02*
X471984D01*
X383009Y199749D02*
X471886D01*
X452308Y153399D02*
X471619D01*
X275950Y408549D02*
X471525D01*
X285450Y362649D02*
X471180D01*
X383459Y199299D02*
X471090D01*
X451858Y153849D02*
X470843D01*
X275950Y408099D02*
X470756D01*
X285450Y363099D02*
X470436D01*
X383909Y198849D02*
X470353D01*
X451408Y154299D02*
X470123D01*
X275950Y407649D02*
X470042D01*
X285450Y363549D02*
X469744D01*
X384359Y198399D02*
X469666D01*
X450958Y154749D02*
X469451D01*
X275950Y407199D02*
X469375D01*
X285450Y363999D02*
X469096D01*
X384809Y197949D02*
X469022D01*
X450508Y155199D02*
X468820D01*
X275950Y406749D02*
X468749D01*
X285450Y364449D02*
X468486D01*
X385259Y197499D02*
X468417D01*
X450058Y155649D02*
X468227D01*
X275950Y406299D02*
X468159D01*
X285450Y364899D02*
X467911D01*
X385709Y197049D02*
X467846D01*
X449608Y156099D02*
X467666D01*
X275950Y405849D02*
X467602D01*
X285450Y365349D02*
X467367D01*
X386159Y196599D02*
X467306D01*
X449158Y156549D02*
X467135D01*
X275950Y405399D02*
X467075D01*
X285450Y365799D02*
X466852D01*
X386609Y196149D02*
X466793D01*
X448708Y156999D02*
X466631D01*
X275950Y404949D02*
X466574D01*
X285437Y366249D02*
X466362D01*
X387059Y195699D02*
X466306D01*
X448258Y157449D02*
X466152D01*
X275950Y404499D02*
X466097D01*
X285348Y366699D02*
X465896D01*
X387509Y195249D02*
X465843D01*
X447808Y157899D02*
X465696D01*
X275950Y404049D02*
X465644D01*
X285164Y367149D02*
X465452D01*
X387959Y194799D02*
X465401D01*
X447358Y158349D02*
X465261D01*
X275950Y403599D02*
X465212D01*
X284857Y367599D02*
X465028D01*
X388409Y194349D02*
X464980D01*
X446908Y158799D02*
X464846D01*
X275950Y403149D02*
X464799D01*
X284416Y368049D02*
X464624D01*
X388859Y193899D02*
X464578D01*
X446458Y159249D02*
X464450D01*
X275950Y402699D02*
X464405D01*
X283966Y368499D02*
X464238D01*
X389309Y193449D02*
X464194D01*
X446008Y159699D02*
X464072D01*
X275950Y402249D02*
X464028D01*
X283516Y368949D02*
X463869D01*
X389759Y192999D02*
X463826D01*
X445558Y160149D02*
X463710D01*
X275950Y401799D02*
X463668D01*
X283066Y369399D02*
X463515D01*
X390209Y192549D02*
X463475D01*
X445108Y160599D02*
X463363D01*
X295993Y401349D02*
X463324D01*
X282616Y369849D02*
X463178D01*
X390659Y192099D02*
X463139D01*
X444658Y161049D02*
X463032D01*
X296702Y400899D02*
X462995D01*
X282166Y370299D02*
X462855D01*
X391109Y191649D02*
X462818D01*
X444208Y161499D02*
X462716D01*
X297099Y400449D02*
X462679D01*
X281716Y370749D02*
X462545D01*
X391559Y191199D02*
X462510D01*
X443758Y161949D02*
X462412D01*
X297346Y399999D02*
X462378D01*
X281266Y371199D02*
X462250D01*
X392009Y190749D02*
X462216D01*
X443308Y162399D02*
X462122D01*
X297490Y399549D02*
X462089D01*
X280816Y371649D02*
X461967D01*
X392459Y190299D02*
X461935D01*
X442858Y162849D02*
X461845D01*
X297548Y399099D02*
X461813D01*
X280366Y372099D02*
X461696D01*
X392909Y189849D02*
X461665D01*
X442408Y163299D02*
X461580D01*
X297526Y398649D02*
X461550D01*
X279916Y372549D02*
X461438D01*
X393359Y189399D02*
X461408D01*
X441958Y163749D02*
X461327D01*
X297421Y398199D02*
X461298D01*
X279466Y372999D02*
X461191D01*
X393809Y188949D02*
X461163D01*
X441508Y164199D02*
X461085D01*
X297222Y397749D02*
X461057D01*
X278985Y373449D02*
X460955D01*
X394259Y188499D02*
X460928D01*
X441058Y164649D02*
X460854D01*
X296900Y397299D02*
X460827D01*
X277999Y373899D02*
X460730D01*
X394709Y188049D02*
X460704D01*
X440608Y165099D02*
X460633D01*
X296369Y396849D02*
X460608D01*
X275950Y374349D02*
X460516D01*
X395159Y187599D02*
X460491D01*
X440158Y165549D02*
X460424D01*
X295865Y396399D02*
X460400D01*
X275950Y374799D02*
X460311D01*
X395609Y187149D02*
X460288D01*
X439708Y165999D02*
X460224D01*
X296645Y395949D02*
X460201D01*
X275950Y375249D02*
X460117D01*
X396059Y186699D02*
X460095D01*
X439258Y166449D02*
X460034D01*
X297063Y395499D02*
X460013D01*
X275950Y375699D02*
X459933D01*
X396509Y186249D02*
X459912D01*
X438808Y166899D02*
X459854D01*
X297324Y395049D02*
X459834D01*
X275950Y376149D02*
X459758D01*
X396959Y185799D02*
X459738D01*
X438358Y167349D02*
X459684D01*
X297479Y394599D02*
X459664D01*
X275950Y376599D02*
X459593D01*
X397409Y185349D02*
X459574D01*
X437908Y167799D02*
X459522D01*
X297546Y394149D02*
X459504D01*
X275950Y377049D02*
X459437D01*
X397859Y184899D02*
X459419D01*
X437458Y168249D02*
X459370D01*
X297532Y393699D02*
X459353D01*
X275950Y377499D02*
X459289D01*
X398309Y184449D02*
X459273D01*
X437008Y168699D02*
X459227D01*
X297437Y393249D02*
X459210D01*
X275950Y377949D02*
X459151D01*
X398759Y183999D02*
X459135D01*
X436558Y169149D02*
X459092D01*
X297249Y392799D02*
X459077D01*
X275950Y378399D02*
X459021D01*
X399209Y183549D02*
X459006D01*
X436108Y169599D02*
X458966D01*
X296943Y392349D02*
X458952D01*
X275950Y378849D02*
X458900D01*
X399659Y183099D02*
X458886D01*
X435658Y170049D02*
X458849D01*
X296445Y391899D02*
X458836D01*
X275950Y379299D02*
X458787D01*
X400109Y182649D02*
X458775D01*
X435208Y170499D02*
X458740D01*
X275950Y391449D02*
X458728D01*
X275950Y379749D02*
X458683D01*
X400559Y182199D02*
X458671D01*
X434758Y170949D02*
X458639D01*
X275950Y390999D02*
X458628D01*
X275950Y380199D02*
X458587D01*
X401009Y181749D02*
X458576D01*
X434308Y171399D02*
X458547D01*
X275950Y390549D02*
X458536D01*
X275950Y380649D02*
X458499D01*
X401459Y181299D02*
X458489D01*
X433858Y171849D02*
X458462D01*
X275950Y390099D02*
X458453D01*
X275950Y381099D02*
X458419D01*
X401909Y180849D02*
X458410D01*
X433408Y172299D02*
X458386D01*
X275950Y389649D02*
X458377D01*
X275950Y381549D02*
X458347D01*
X402359Y180399D02*
X458339D01*
X432958Y172749D02*
X458317D01*
X275950Y389199D02*
X458310D01*
X317496Y381999D02*
X458283D01*
X402809Y179949D02*
X458276D01*
X432508Y173199D02*
X458257D01*
X275950Y388749D02*
X458250D01*
X318515Y382449D02*
X458227D01*
X403259Y179499D02*
X458221D01*
X432058Y173649D02*
X458204D01*
X275950Y388299D02*
X458198D01*
X318985Y382899D02*
X458178D01*
X403709Y179049D02*
X458173D01*
X431608Y174099D02*
X458159D01*
X275950Y387849D02*
X458154D01*
X319275Y383349D02*
X458138D01*
X404159Y178599D02*
X458133D01*
X431158Y174549D02*
X458122D01*
X275950Y387399D02*
X458118D01*
X319452Y383799D02*
X458105D01*
X404609Y178149D02*
X458101D01*
X430708Y174999D02*
X458093D01*
X317712Y386949D02*
X458090D01*
X319538Y384249D02*
X458080D01*
X405059Y177699D02*
X458077D01*
X430255Y175449D02*
X458071D01*
X318584Y386499D02*
X458069D01*
X319542Y384699D02*
X458062D01*
X405509Y177249D02*
X458061D01*
X406859Y175899D02*
X458057D01*
X319026Y386049D02*
X458056D01*
X319466Y385149D02*
X458052D01*
X405959Y176799D02*
X458052D01*
X406409Y176349D02*
X458050D01*
X319301Y385599D02*
X458050D01*
X316450Y251949D02*
X449304D01*
X292066Y355899D02*
X449046D01*
X305566Y342399D02*
X448666D01*
X310414Y238449D02*
X448492D01*
X316450Y251499D02*
X447782D01*
X292516Y355449D02*
X447667D01*
X305116Y342849D02*
X447468D01*
X310864Y238899D02*
X447367D01*
X316450Y251049D02*
X446902D01*
X292966Y354999D02*
X446821D01*
X304666Y343299D02*
X446676D01*
X311314Y239349D02*
X446602D01*
X316450Y250599D02*
X446246D01*
X293416Y354549D02*
X446183D01*
X304216Y343749D02*
X446068D01*
X311764Y239799D02*
X446008D01*
X316450Y250149D02*
X445721D01*
X293866Y354099D02*
X445669D01*
X303766Y344199D02*
X445575D01*
X312214Y240249D02*
X445526D01*
X316450Y249699D02*
X445287D01*
X294316Y353649D02*
X445243D01*
X303316Y344649D02*
X445164D01*
X312664Y240699D02*
X445123D01*
X316450Y249249D02*
X444922D01*
X294766Y353199D02*
X444885D01*
X302866Y345099D02*
X444819D01*
X313114Y241149D02*
X444784D01*
X316450Y248799D02*
X444614D01*
X295216Y352749D02*
X444583D01*
X302416Y345549D02*
X444527D01*
X313564Y241599D02*
X444498D01*
X316450Y248349D02*
X444355D01*
X295666Y352299D02*
X444329D01*
X301966Y345999D02*
X444281D01*
X314014Y242049D02*
X444257D01*
X316450Y247899D02*
X444137D01*
X296116Y351849D02*
X444116D01*
X301516Y346449D02*
X444077D01*
X314464Y242499D02*
X444056D01*
X316450Y247449D02*
X443958D01*
X296566Y351399D02*
X443940D01*
X301066Y346899D02*
X443909D01*
X314914Y242949D02*
X443892D01*
X316450Y246999D02*
X443814D01*
X297016Y350949D02*
X443800D01*
X300616Y347349D02*
X443775D01*
X315364Y243399D02*
X443762D01*
X316450Y246549D02*
X443702D01*
X297466Y350499D02*
X443692D01*
X300166Y347799D02*
X443673D01*
X315810Y243849D02*
X443664D01*
X316450Y246099D02*
X443622D01*
X297916Y350049D02*
X443615D01*
X299716Y348249D02*
X443603D01*
X316135Y244299D02*
X443597D01*
X316450Y245649D02*
X443571D01*
X298366Y349599D02*
X443568D01*
X299266Y348699D02*
X443562D01*
X316332Y244749D02*
X443559D01*
X316431Y245199D02*
X443551D01*
X298816Y349149D02*
X443550D01*
X308716Y339249D02*
X324843D01*
X314450Y320799D02*
X324052D01*
X309166Y338799D02*
X322146D01*
X314450Y321249D02*
X322004D01*
X309616Y338349D02*
X321017D01*
X314450Y321699D02*
X320919D01*
X310066Y337899D02*
X320186D01*
X314450Y322149D02*
X320109D01*
X310516Y337449D02*
X319515D01*
X314450Y322599D02*
X319452D01*
X310966Y336999D02*
X318952D01*
X314450Y323049D02*
X318897D01*
X311416Y336549D02*
X318467D01*
X314450Y323499D02*
X318420D01*
X311866Y336099D02*
X318045D01*
X314450Y323949D02*
X318004D01*
X316450Y260499D02*
X317991D01*
X316450Y255549D02*
X317797D01*
X312316Y335649D02*
X317675D01*
X314450Y324399D02*
X317639D01*
X312766Y335199D02*
X317349D01*
X314450Y324849D02*
X317317D01*
X313216Y334749D02*
X317062D01*
X314450Y325299D02*
X317034D01*
X316450Y260049D02*
X316982D01*
X316450Y255999D02*
X316920D01*
X313666Y334299D02*
X316810D01*
X314450Y325749D02*
X316785D01*
X314045Y333849D02*
X316589D01*
X314450Y326199D02*
X316567D01*
X316450Y259599D02*
X316513D01*
X275950Y381999D02*
X316504D01*
X316450Y256449D02*
X316476D01*
X314279Y333399D02*
X316397D01*
X314450Y326649D02*
X316378D01*
X275950Y386949D02*
X316288D01*
X314409Y332949D02*
X316233D01*
X314450Y327099D02*
X316217D01*
X314450Y332499D02*
X316094D01*
X314450Y327549D02*
X316081D01*
X314450Y332049D02*
X315980D01*
X314450Y327999D02*
X315969D01*
X314450Y331599D02*
X315889D01*
X314450Y328449D02*
X315881D01*
X314450Y331149D02*
X315822D01*
X314450Y328899D02*
X315816D01*
X314450Y330699D02*
X315776D01*
X314450Y329349D02*
X315773D01*
X314450Y330249D02*
X315753D01*
X314450Y329799D02*
X315752D01*
X275950Y382449D02*
X315485D01*
X275950Y386499D02*
X315416D01*
X275950Y382899D02*
X315015D01*
X275950Y386049D02*
X314974D01*
X275950Y383349D02*
X314725D01*
X275950Y385599D02*
X314699D01*
X275950Y383799D02*
X314548D01*
X275950Y385149D02*
X314534D01*
X275950Y384249D02*
X314462D01*
X275950Y384699D02*
X314458D01*
X275950Y396399D02*
X294135D01*
X275950Y401349D02*
X294007D01*
X275950Y396849D02*
X293631D01*
X275950Y391899D02*
X293555D01*
X275950Y395949D02*
X293355D01*
X275950Y400899D02*
X293298D01*
X275950Y397299D02*
X293100D01*
X275950Y392349D02*
X293057D01*
X275950Y395499D02*
X292937D01*
X275950Y400449D02*
X292901D01*
X275950Y397749D02*
X292778D01*
X275950Y392799D02*
X292751D01*
X275950Y395049D02*
X292676D01*
X275950Y399999D02*
X292654D01*
X275950Y398199D02*
X292579D01*
X275950Y393249D02*
X292563D01*
X275950Y394599D02*
X292521D01*
X275950Y399549D02*
X292510D01*
X275950Y398649D02*
X292474D01*
X275950Y393699D02*
X292468D01*
X275950Y394149D02*
X292454D01*
X275950Y399099D02*
X292452D01*
X100000Y100000D02*
X525000D01*
Y440000*
X100000*
Y100000*
G54D11*
X208500Y59063D02*
Y52500D01*
Y59063D02*
X210091D01*
X210091D02*
X210773Y58750D01*
X211227Y58125*
X211455Y57500*
X211682Y56563*
X211682D02*
Y55000D01*
X211455Y54063*
X211455D02*
X211227Y53438D01*
X211227D02*
X210773Y52813D01*
X210773D02*
X210091Y52500D01*
X208500*
X217136Y57500D02*
X216909Y58125D01*
X216455Y58750*
X216000Y59063*
X216000D02*
X215091D01*
X215091D02*
X214636Y58750D01*
X214182Y58125*
X213955Y57500*
X213727Y56563*
X213727D02*
Y55000D01*
X213955Y54063*
X213955D02*
X214182Y53438D01*
X214182D02*
X214636Y52813D01*
X214636D02*
X215091Y52500D01*
X216000*
X216455Y52813*
X216455D02*
X216909Y53438D01*
X216909D02*
X217136Y54063D01*
X219409Y57500D02*
Y57813D01*
X219409D02*
X219636Y58438D01*
X219636D02*
X219864Y58750D01*
X220318Y59063*
X220318D02*
X221227D01*
X221227D02*
X221682Y58750D01*
X221909Y58438*
X221909D02*
X222136Y57813D01*
X222136D02*
Y57188D01*
X222136D02*
X221909Y56563D01*
X221909D02*
X221455Y55625D01*
X219182Y52500*
X222364*
X227364Y59063D02*
X225091D01*
X225091D02*
X224864Y56250D01*
X225091Y56563*
X225091D02*
X225773Y56875D01*
X226455*
X227136Y56563*
X227136D02*
X227591Y55938D01*
X227591D02*
X227818Y55000D01*
X227591Y54375*
X227364Y53438*
X227364D02*
X226909Y52813D01*
X226909D02*
X226227Y52500D01*
X225545*
X224864Y52813*
X224864D02*
X224636Y53125D01*
X224409Y53750*
X232818Y56875D02*
X232591Y55938D01*
X232591D02*
X232136Y55313D01*
X232136D02*
X231455Y55000D01*
X231227*
X230545Y55313*
X230545D02*
X230091Y55938D01*
X230091D02*
X229864Y56875D01*
Y57188*
X229864D02*
X230091Y58125D01*
X230545Y58750*
X231227Y59063*
X231227D02*
X231455D01*
X231455D02*
X232136Y58750D01*
X232591Y58125*
X232818Y56875*
Y55313*
X232818D02*
X232591Y53750D01*
X232136Y52813*
X232136D02*
X231455Y52500D01*
X231000*
X230318Y52813*
X230318D02*
X230091Y53438D01*
X237591Y58125D02*
X237364Y58750D01*
X236682Y59063*
X236682D02*
X236227D01*
X236227D02*
X235545Y58750D01*
X235091Y57813*
X235091D02*
X234864Y56250D01*
Y54688*
X234864D02*
X235091Y53438D01*
X235091D02*
X235545Y52813D01*
X235545D02*
X236227Y52500D01*
X236455*
X237136Y52813*
X237136D02*
X237591Y53438D01*
X237591D02*
X237818Y54375D01*
Y54688*
X237818D02*
X237591Y55625D01*
X237136Y56250*
X236455Y56563*
X236455D02*
X236227D01*
X236227D02*
X235545Y56250D01*
X235091Y55625*
X234864Y54688*
X241682Y59063D02*
X239864Y52500D01*
X241682Y59063D02*
X243500Y52500D01*
X240545Y54688D02*
X242818D01*
X245545Y55313D02*
X249636D01*
X252136Y59063D02*
X254636D01*
X254636D02*
X253273Y56563D01*
X253273D02*
X253955D01*
X253955D02*
X254409Y56250D01*
X254636Y55938*
X254636D02*
X254864Y55000D01*
Y54375*
X254636Y53438*
X254636D02*
X254182Y52813D01*
X254182D02*
X253500Y52500D01*
X252818*
X252136Y52813*
X252136D02*
X251909Y53125D01*
X251682Y53750*
X257364Y52813D02*
X257136Y52500D01*
X256909Y52813*
X256909D02*
X257136Y53125D01*
X257364Y52813*
X257364D02*
Y52187D01*
X257364D02*
X257136Y51562D01*
X257136D02*
X256909Y51250D01*
X264636Y59063D02*
Y52500D01*
X267364*
X271000Y59063D02*
Y52500D01*
X269409Y59063D02*
X272591D01*
X275773D02*
X275091Y58750D01*
X274864Y58125*
Y57500*
X275091Y56875*
X275545Y56563*
X275545D02*
X276455Y56250D01*
X277136Y55938*
X277136D02*
X277591Y55313D01*
X277591D02*
X277818Y54688D01*
X277818D02*
Y53750D01*
X277591Y53125*
X277364Y52813*
X277364D02*
X276682Y52500D01*
X275773*
X275091Y52813*
X275091D02*
X274864Y53125D01*
X274636Y53750*
Y54688*
X274636D02*
X274864Y55313D01*
X274864D02*
X275318Y55938D01*
X275318D02*
X276000Y56250D01*
X276909Y56563*
X276909D02*
X277364Y56875D01*
X277591Y57500*
Y58125*
X277364Y58750*
X276682Y59063*
X276682D02*
X275773D01*
X283045D02*
X280773Y52500D01*
X279864Y59063D02*
X283045D01*
X286455D02*
X285773Y58750D01*
X285318Y57813*
X285318D02*
X285091Y56250D01*
Y55313*
X285091D02*
X285318Y53750D01*
X285773Y52813*
X285773D02*
X286455Y52500D01*
X286909*
X287591Y52813*
X287591D02*
X288045Y53750D01*
X288273Y55313*
X288273D02*
Y56250D01*
X288045Y57813*
X288045D02*
X287591Y58750D01*
X286909Y59063*
X286909D02*
X286455D01*
X291455D02*
X290773Y58750D01*
X290545Y58125*
Y57500*
X290773Y56875*
X291227Y56563*
X291227D02*
X292136Y56250D01*
X292818Y55938*
X292818D02*
X293273Y55313D01*
X293273D02*
X293500Y54688D01*
X293500D02*
Y53750D01*
X293273Y53125*
X293045Y52813*
X293045D02*
X292364Y52500D01*
X291455*
X290773Y52813*
X290773D02*
X290545Y53125D01*
X290318Y53750*
Y54688*
X290318D02*
X290545Y55313D01*
X290545D02*
X291000Y55938D01*
X291000D02*
X291682Y56250D01*
X292591Y56563*
X292591D02*
X293045Y56875D01*
X293273Y57500*
Y58125*
X293045Y58750*
X292364Y59063*
X292364D02*
X291455D01*
X295545D02*
Y52500D01*
Y59063D02*
X298500D01*
X295545Y55938D02*
X297364D01*
X295545Y52500D02*
X298500D01*
X300545Y59063D02*
Y54375D01*
X300773Y53438*
X300773D02*
X301227Y52813D01*
X301227D02*
X301909Y52500D01*
X302364*
X303045Y52813*
X303045D02*
X303500Y53438D01*
X303500D02*
X303727Y54375D01*
Y59063*
X305773D02*
Y52500D01*
X308955Y59063D02*
Y52500D01*
X305773Y55938D02*
X308955D01*
X314409Y57500D02*
X314182Y58125D01*
X313727Y58750*
X313273Y59063*
X313273D02*
X312364D01*
X312364D02*
X311909Y58750D01*
X311455Y58125*
X311227Y57500*
X311000Y56563*
X311000D02*
Y55000D01*
X311227Y54063*
X311227D02*
X311455Y53438D01*
X311455D02*
X311909Y52813D01*
X311909D02*
X312364Y52500D01*
X313273*
X313727Y52813*
X313727D02*
X314182Y53438D01*
X314182D02*
X314409Y54063D01*
X314409D02*
Y55000D01*
X313273D02*
X314409D01*
X323500Y71563D02*
Y65000D01*
Y71563D02*
X325091D01*
X325091D02*
X325773Y71250D01*
X326227Y70625*
X326455Y70000*
X326682Y69063*
X326682D02*
Y67500D01*
X326455Y66563*
X326455D02*
X326227Y65938D01*
X326227D02*
X325773Y65313D01*
X325773D02*
X325091Y65000D01*
X323500*
X330545Y71563D02*
X328727Y65000D01*
X330545Y71563D02*
X332364Y65000D01*
X329409Y67188D02*
X331682D01*
X336000Y71563D02*
Y65000D01*
X334409Y71563D02*
X337591D01*
X339636D02*
Y65000D01*
Y71563D02*
X342591D01*
X339636Y68438D02*
X341455D01*
X339636Y65000D02*
X342591D01*
X344864Y69375D02*
X344636Y69063D01*
X344636D02*
X344864Y68750D01*
X345091Y69063*
X345091D02*
X344864Y69375D01*
Y65625D02*
X344636Y65313D01*
X344636D02*
X344864Y65000D01*
X345091Y65313*
X345091D02*
X344864Y65625D01*
X208500Y71563D02*
Y65000D01*
X211227*
X213273Y71563D02*
Y65000D01*
X215318Y71563D02*
Y65000D01*
Y71563D02*
X218500Y65000D01*
Y71563D02*
Y65000D01*
X220545Y71563D02*
Y65000D01*
Y71563D02*
X223500D01*
X220545Y68438D02*
X222364D01*
X220545Y65000D02*
X223500D01*
X227364Y71563D02*
X225545Y65000D01*
X227364Y71563D02*
X229182Y65000D01*
X226227Y67188D02*
X228500D01*
X231227Y71563D02*
Y65000D01*
Y71563D02*
X233273D01*
X233273D02*
X233955Y71250D01*
X234182Y70938*
X234182D02*
X234409Y70313D01*
X234409D02*
Y69688D01*
X234409D02*
X234182Y69063D01*
X234182D02*
X233955Y68750D01*
X233273Y68438*
X233273D02*
X231227D01*
X232818D02*
X234409Y65000D01*
X243273Y71563D02*
Y65000D01*
X241682Y71563D02*
X244864D01*
X246909D02*
Y65000D01*
Y71563D02*
X249864D01*
X246909Y68438D02*
X248727D01*
X246909Y65000D02*
X249864D01*
X255318Y70000D02*
X255091Y70625D01*
X254636Y71250*
X254182Y71563*
X254182D02*
X253273D01*
X253273D02*
X252818Y71250D01*
X252364Y70625*
X252136Y70000*
X251909Y69063*
X251909D02*
Y67500D01*
X252136Y66563*
X252136D02*
X252364Y65938D01*
X252364D02*
X252818Y65313D01*
X252818D02*
X253273Y65000D01*
X254182*
X254636Y65313*
X254636D02*
X255091Y65938D01*
X255091D02*
X255318Y66563D01*
X257364Y71563D02*
Y65000D01*
X260545Y71563D02*
Y65000D01*
X257364Y68438D02*
X260545D01*
X262591Y71563D02*
Y65000D01*
Y71563D02*
X265773Y65000D01*
Y71563D02*
Y65000D01*
X269182Y71563D02*
X268727Y71250D01*
X268273Y70625*
X268045Y70000*
X267818Y69063*
X267818D02*
Y67500D01*
X268045Y66563*
X268045D02*
X268273Y65938D01*
X268273D02*
X268727Y65313D01*
X268727D02*
X269182Y65000D01*
X270091*
X270545Y65313*
X270545D02*
X271000Y65938D01*
X271000D02*
X271227Y66563D01*
X271227D02*
X271455Y67500D01*
Y69063*
X271455D02*
X271227Y70000D01*
X271000Y70625*
X270545Y71250*
X270091Y71563*
X270091D02*
X269182D01*
X273500D02*
Y65000D01*
X276227*
X279636Y71563D02*
X279182Y71250D01*
X278727Y70625*
X278500Y70000*
X278273Y69063*
X278273D02*
Y67500D01*
X278500Y66563*
X278500D02*
X278727Y65938D01*
X278727D02*
X279182Y65313D01*
X279182D02*
X279636Y65000D01*
X280545*
X281000Y65313*
X281000D02*
X281455Y65938D01*
X281455D02*
X281682Y66563D01*
X281682D02*
X281909Y67500D01*
Y69063*
X281909D02*
X281682Y70000D01*
X281455Y70625*
X281000Y71250*
X280545Y71563*
X280545D02*
X279636D01*
X287364Y70000D02*
X287136Y70625D01*
X286682Y71250*
X286227Y71563*
X286227D02*
X285318D01*
X285318D02*
X284864Y71250D01*
X284409Y70625*
X284182Y70000*
X283955Y69063*
X283955D02*
Y67500D01*
X284182Y66563*
X284182D02*
X284409Y65938D01*
X284409D02*
X284864Y65313D01*
X284864D02*
X285318Y65000D01*
X286227*
X286682Y65313*
X286682D02*
X287136Y65938D01*
X287136D02*
X287364Y66563D01*
X287364D02*
Y67500D01*
X286227D02*
X287364D01*
X289409Y71563D02*
X291227Y68438D01*
X291227D02*
Y65000D01*
X293045Y71563D02*
X291227Y68438D01*
X354182Y71563D02*
X351909Y65000D01*
X351000Y71563D02*
X354182D01*
X356227Y67813D02*
X360318D01*
X365091Y70625D02*
X364864Y71250D01*
X364182Y71563*
X364182D02*
X363727D01*
X363727D02*
X363045Y71250D01*
X362591Y70313*
X362591D02*
X362364Y68750D01*
Y67188*
X362364D02*
X362591Y65938D01*
X362591D02*
X363045Y65313D01*
X363045D02*
X363727Y65000D01*
X363955*
X364636Y65313*
X364636D02*
X365091Y65938D01*
X365091D02*
X365318Y66875D01*
Y67188*
X365318D02*
X365091Y68125D01*
X364636Y68750*
X363955Y69063*
X363955D02*
X363727D01*
X363727D02*
X363045Y68750D01*
X362591Y68125*
X362364Y67188*
X367364Y67813D02*
X371455D01*
X373500Y70313D02*
X373955Y70625D01*
X374636Y71563*
X374636D02*
Y65000D01*
X379864Y71563D02*
X377591Y65000D01*
X376682Y71563D02*
X379864D01*
X210000Y84063D02*
Y77500D01*
X212727*
X216591Y84063D02*
X214773Y77500D01*
X216591Y84063D02*
X218409Y77500D01*
X215455Y79688D02*
X217727D01*
X220455Y84063D02*
X222273Y80938D01*
X222273D02*
Y77500D01*
X224091Y84063D02*
X222273Y80938D01*
X226136Y84063D02*
Y77500D01*
Y84063D02*
X229091D01*
X226136Y80938D02*
X227955D01*
X226136Y77500D02*
X229091D01*
X231136Y84063D02*
Y77500D01*
Y84063D02*
X233182D01*
X233182D02*
X233864Y83750D01*
X234091Y83438*
X234091D02*
X234318Y82813D01*
X234318D02*
Y82188D01*
X234318D02*
X234091Y81563D01*
X234091D02*
X233864Y81250D01*
X233182Y80938*
X233182D02*
X231136D01*
X232727D02*
X234318Y77500D01*
X244545Y84063D02*
X242273D01*
X242273D02*
X242045Y81250D01*
X242273Y81563*
X242273D02*
X242955Y81875D01*
X243636*
X244318Y81563*
X244318D02*
X244773Y80938D01*
X244773D02*
X245000Y80000D01*
X244773Y79375*
X244545Y78438*
X244545D02*
X244091Y77813D01*
X244091D02*
X243409Y77500D01*
X242727*
X242045Y77813*
X242045D02*
X241818Y78125D01*
X241591Y78750*
X252273Y80313D02*
X256364D01*
X263636Y84063D02*
Y77500D01*
Y84063D02*
X265682D01*
X265682D02*
X266364Y83750D01*
X266591Y83438*
X266591D02*
X266818Y82813D01*
X266818D02*
Y82188D01*
X266818D02*
X266591Y81563D01*
X266591D02*
X266364Y81250D01*
X265682Y80938*
X265682D02*
X263636D01*
X265227D02*
X266818Y77500D01*
X270227Y84063D02*
X269773Y83750D01*
X269318Y83125*
X269091Y82500*
X268864Y81563*
X268864D02*
Y80000D01*
X269091Y79063*
X269091D02*
X269318Y78438D01*
X269318D02*
X269773Y77813D01*
X269773D02*
X270227Y77500D01*
X271136*
X271591Y77813*
X271591D02*
X272045Y78438D01*
X272045D02*
X272273Y79063D01*
X272273D02*
X272500Y80000D01*
Y81563*
X272500D02*
X272273Y82500D01*
X272045Y83125*
X271591Y83750*
X271136Y84063*
X271136D02*
X270227D01*
X274545D02*
Y79375D01*
X274773Y78438*
X274773D02*
X275227Y77813D01*
X275227D02*
X275909Y77500D01*
X276364*
X277045Y77813*
X277045D02*
X277500Y78438D01*
X277500D02*
X277727Y79375D01*
Y84063*
X281364D02*
Y77500D01*
X279773Y84063D02*
X282955D01*
X285000D02*
Y77500D01*
X287045Y84063D02*
Y77500D01*
Y84063D02*
X290227Y77500D01*
Y84063D02*
Y77500D01*
X295682Y82500D02*
X295455Y83125D01*
X295000Y83750*
X294545Y84063*
X294545D02*
X293636D01*
X293636D02*
X293182Y83750D01*
X292727Y83125*
X292500Y82500*
X292273Y81563*
X292273D02*
Y80000D01*
X292500Y79063*
X292500D02*
X292727Y78438D01*
X292727D02*
X293182Y77813D01*
X293182D02*
X293636Y77500D01*
X294545*
X295000Y77813*
X295000D02*
X295455Y78438D01*
X295455D02*
X295682Y79063D01*
X295682D02*
Y80000D01*
X294545D02*
X295682D01*
X166200Y131000D02*
X164424Y131424D01*
X165600Y131000*
X164424Y130576*
X166200Y131000*
X165600D02*
X166200D01*
X165000Y130713D02*
Y130783D01*
Y131217D02*
Y131287D01*
X166000Y130952D02*
Y131048D01*
X216444Y151444D02*
X218000Y152400D01*
X216869Y151869*
X217400Y153000*
X216444Y151444*
X216786Y152000D02*
X216930D01*
X217148D02*
X217349D01*
X217400Y153000D02*
X217400D01*
X217000Y151786D02*
Y151930D01*
Y152148D02*
Y152349D01*
X218000Y152400D02*
X218000D01*
X202700Y127000D02*
X200924Y127424D01*
X202100Y127000*
X200924Y126576*
X202700Y127000*
X202100D02*
X202700D01*
X201000Y126594D02*
Y126603D01*
Y127397D02*
Y127406D01*
X202000Y126833D02*
Y126964D01*
Y127036D02*
Y127167D01*
X229444Y145944D02*
X231000Y146900D01*
X229869Y146369*
X230400Y147500*
X229444Y145944*
X229479Y146000D02*
X229535D01*
X230093Y147000D02*
X230165D01*
X230000Y146286D02*
Y146430D01*
Y146648D02*
Y146849D01*
X231000Y146900D02*
X231000D01*
X328944Y133556D02*
X329900Y132000D01*
X329369Y133131*
X330500Y132600*
X328944Y133556*
X329286Y133000D02*
X329430D01*
X329648D02*
X329849D01*
X329000Y133465D02*
Y133521D01*
X330000Y132835D02*
Y132907D01*
X263889Y128889D02*
X260000Y127250D01*
X262298Y127298*
X262250Y125000*
X263889Y128889*
X262271Y126000D02*
X262671D01*
X262292Y127000D02*
X263093D01*
X261780Y128000D02*
X263514D01*
X260000Y127250D02*
X260000D01*
X261000Y127271D02*
Y127671D01*
X262000Y127292D02*
Y128093D01*
X263000Y126780D02*
Y128514D01*
X392904Y147904D02*
X397500Y149750D01*
X394848Y149848*
X394750Y152500*
X392904Y147904*
X392942Y148000D02*
X393143D01*
X393344Y149000D02*
X395633D01*
X393746Y150000D02*
X394843D01*
X394147Y151000D02*
X394806D01*
X394549Y152000D02*
X394769D01*
X393000Y147942D02*
Y148143D01*
X394000Y148344D02*
Y150633D01*
X395000Y148746D02*
Y149843D01*
X396000Y149147D02*
Y149806D01*
X397000Y149549D02*
Y149769D01*
X230000Y130500D02*
X228409Y126591D01*
X230000Y128250*
X231591Y126591*
X230000Y130500*
X228575Y127000D02*
X228801D01*
X231199D02*
X231425D01*
X228982Y128000D02*
X229760D01*
X230240D02*
X231018D01*
X229389Y129000D02*
X230611D01*
X229796Y130000D02*
X230204D01*
X229000Y127207D02*
Y128043D01*
X230000Y128250D02*
Y130500D01*
X231000Y127207D02*
Y128043D01*
X312800Y172000D02*
X314576Y171576D01*
X313400Y172000*
X314576Y172424*
X312800Y172000*
X313400*
X313000Y171952D02*
Y172048D01*
X314000Y171713D02*
Y171783D01*
Y172217D02*
Y172287D01*
X276556Y142556D02*
X275000Y141600D01*
X276131Y142131*
X275600Y141000*
X276556Y142556*
X275651Y142000D02*
X275852D01*
X276070D02*
X276214D01*
X275000Y141600D02*
X275000D01*
X276000Y141651D02*
Y141852D01*
Y142070D02*
Y142214D01*
X339300Y160000D02*
X341076Y159576D01*
X339900Y160000*
X341076Y160424*
X339300Y160000*
X339900*
X340000Y159833D02*
Y159964D01*
Y160036D02*
Y160167D01*
X341000Y159594D02*
Y159603D01*
Y160397D02*
Y160406D01*
X262561Y155561D02*
X264000Y156400D01*
X262869Y155869*
X263400Y157000*
X262561Y155561*
X262817Y156000D02*
X262930D01*
X263148D02*
X263314D01*
X263400Y157000D02*
X263400D01*
X263000Y155817D02*
Y155930D01*
Y156148D02*
Y156314D01*
X264000Y156400D02*
X264000D01*
X236200Y132500D02*
X234424Y132924D01*
X235600Y132500*
X234424Y132076*
X236200Y132500*
X235000Y132213D02*
Y132283D01*
Y132717D02*
Y132787D01*
X236000Y132452D02*
Y132548D01*
X256111Y128889D02*
X257750Y125000D01*
X257702Y127298*
X260000Y127250*
X256111Y128889*
X257329Y126000D02*
X257729D01*
X256907Y127000D02*
X257708D01*
X256486Y128000D02*
X258220D01*
X257000Y126780D02*
Y128514D01*
X258000Y127292D02*
Y128093D01*
X259000Y127271D02*
Y127671D01*
X260000Y127250D02*
X260000D01*
X382904Y147904D02*
X387500Y149750D01*
X384848Y149848*
X384750Y152500*
X382904Y147904*
X382942Y148000D02*
X383143D01*
X383344Y149000D02*
X385633D01*
X383746Y150000D02*
X384843D01*
X384147Y151000D02*
X384806D01*
X384549Y152000D02*
X384769D01*
X383000Y147942D02*
Y148143D01*
X384000Y148344D02*
Y150633D01*
X385000Y148746D02*
Y149843D01*
X386000Y149147D02*
Y149806D01*
X387000Y149549D02*
Y149769D01*
X251200Y161000D02*
X249424Y161424D01*
X250600Y161000*
X249424Y160576*
X251200Y161000*
X250600D02*
X251200D01*
X250000Y160713D02*
Y160783D01*
Y161217D02*
Y161287D01*
X251000Y160952D02*
Y161048D01*
X245200Y166500D02*
X243424Y166924D01*
X244600Y166500*
X243424Y166076*
X245200Y166500*
X244000Y166213D02*
Y166283D01*
Y166717D02*
Y166787D01*
X245000Y166452D02*
Y166548D01*
X212700Y175500D02*
X210924Y175924D01*
X212100Y175500*
X210924Y175076*
X212700Y175500*
X211000Y175094D02*
Y175103D01*
Y175897D02*
Y175906D01*
X212000Y175333D02*
Y175464D01*
Y175536D02*
Y175667D01*
X265556Y158556D02*
X264000Y157600D01*
X265131Y158131*
X264600Y157000*
X265556Y158556*
X264651Y158000D02*
X264852D01*
X265070D02*
X265214D01*
X264000Y157600D02*
X264000D01*
X265000Y157651D02*
Y157852D01*
Y158070D02*
Y158214D01*
X287444Y163944D02*
X289000Y164900D01*
X287869Y164369*
X288400Y165500*
X287444Y163944*
X287479Y164000D02*
X287535D01*
X288093Y165000D02*
X288165D01*
X288000Y164286D02*
Y164430D01*
Y164648D02*
Y164849D01*
X289000Y164900D02*
X289000D01*
X333889Y128889D02*
X330000Y127250D01*
X332298Y127298*
X332250Y125000*
X333889Y128889*
X332271Y126000D02*
X332671D01*
X332292Y127000D02*
X333093D01*
X331780Y128000D02*
X333514D01*
X330000Y127250D02*
X330000D01*
X331000Y127271D02*
Y127671D01*
X332000Y127292D02*
Y128093D01*
X333000Y126780D02*
Y128514D01*
X438300Y155000D02*
X440076Y154576D01*
X438900Y155000*
X440076Y155424*
X438300Y155000*
X438900*
X439000Y154833D02*
Y154964D01*
Y155036D02*
Y155167D01*
X440000Y154594D02*
Y154603D01*
Y155397D02*
Y155406D01*
X309800Y132000D02*
X311576Y131576D01*
X310400Y132000*
X311576Y132424*
X309800Y132000*
X310400*
X310000Y131952D02*
Y132048D01*
X311000Y131713D02*
Y131783D01*
Y132217D02*
Y132287D01*
X366800Y166500D02*
X368576Y166076D01*
X367400Y166500*
X368576Y166924*
X366800Y166500*
X367000Y166452D02*
Y166548D01*
X368000Y166213D02*
Y166283D01*
Y166717D02*
Y166787D01*
X392904Y167096D02*
X394750Y162500D01*
X394848Y165152*
X397500Y165250*
X392904Y167096*
X394549Y163000D02*
X394769D01*
X394147Y164000D02*
X394806D01*
X393746Y165000D02*
X394843D01*
X393344Y166000D02*
X395633D01*
X392942Y167000D02*
X393143D01*
X393000Y166857D02*
Y167058D01*
X394000Y164367D02*
Y166656D01*
X395000Y165157D02*
Y166254D01*
X396000Y165194D02*
Y165853D01*
X397000Y165231D02*
Y165451D01*
X311700Y157000D02*
X309924Y157424D01*
X311100Y157000*
X309924Y156576*
X311700Y157000*
X311100D02*
X311700D01*
X310000Y156594D02*
Y156603D01*
Y157397D02*
Y157406D01*
X311000Y156833D02*
Y156964D01*
Y157036D02*
Y157167D01*
X361300Y163500D02*
X363076Y163076D01*
X361900Y163500*
X363076Y163924*
X361300Y163500*
X362000Y163333D02*
Y163464D01*
Y163536D02*
Y163667D01*
X363000Y163094D02*
Y163103D01*
Y163897D02*
Y163906D01*
X399700Y142500D02*
X397924Y142924D01*
X399100Y142500*
X397924Y142076*
X399700Y142500*
X398000Y142094D02*
Y142103D01*
Y142897D02*
Y142906D01*
X399000Y142333D02*
Y142464D01*
Y142536D02*
Y142667D01*
X412904Y147904D02*
X417500Y149750D01*
X414848Y149848*
X414750Y152500*
X412904Y147904*
X412942Y148000D02*
X413143D01*
X413344Y149000D02*
X415633D01*
X413746Y150000D02*
X414843D01*
X414147Y151000D02*
X414806D01*
X414549Y152000D02*
X414769D01*
X413000Y147942D02*
Y148143D01*
X414000Y148344D02*
Y150633D01*
X415000Y148746D02*
Y149843D01*
X416000Y149147D02*
Y149806D01*
X417000Y149549D02*
Y149769D01*
X197500Y187300D02*
X197924Y189076D01*
X197500Y187900*
X197076Y189076*
X197500Y187300*
X197333Y188000D02*
X197464D01*
X197536D02*
X197667D01*
X197094Y189000D02*
X197103D01*
X197897D02*
X197906D01*
X253300Y158000D02*
X255076Y157576D01*
X253900Y158000*
X255076Y158424*
X253300Y158000*
X253900*
X254000Y157833D02*
Y157964D01*
Y158036D02*
Y158167D01*
X255000Y157594D02*
Y157603D01*
Y158397D02*
Y158406D01*
X233200Y189000D02*
X231424Y189424D01*
X232600Y189000*
X231424Y188576*
X233200Y189000*
X232600D02*
X233200D01*
X232000Y188713D02*
Y188783D01*
Y189217D02*
Y189287D01*
X233000Y188952D02*
Y189048D01*
X250700Y180500D02*
X248924Y180924D01*
X250100Y180500*
X248924Y180076*
X250700Y180500*
X249000Y180094D02*
Y180103D01*
Y180897D02*
Y180906D01*
X250000Y180333D02*
Y180464D01*
Y180536D02*
Y180667D01*
X236200Y197500D02*
X234424Y197924D01*
X235600Y197500*
X234424Y197076*
X236200Y197500*
X235000Y197213D02*
Y197283D01*
Y197717D02*
Y197787D01*
X236000Y197452D02*
Y197548D01*
X262300Y208000D02*
X264076Y207576D01*
X262900Y208000*
X264076Y208424*
X262300Y208000*
X262900*
X263000Y207833D02*
Y207964D01*
Y208036D02*
Y208167D01*
X264000Y207594D02*
Y207603D01*
Y208397D02*
Y208406D01*
X315200Y224000D02*
X313424Y224424D01*
X314600Y224000*
X313424Y223576*
X315200Y224000*
X314600D02*
X315200D01*
X314000Y223713D02*
Y223783D01*
Y224217D02*
Y224287D01*
X315000Y223952D02*
Y224048D01*
X432944Y164056D02*
X433900Y162500D01*
X433369Y163631*
X434500Y163100*
X432944Y164056*
X433593Y163000D02*
X433665D01*
X432979Y164000D02*
X433035D01*
X433000Y163965D02*
Y164021D01*
X434000Y163335D02*
Y163407D01*
X331800Y196500D02*
X333576Y196076D01*
X332400Y196500*
X333576Y196924*
X331800Y196500*
X332000Y196452D02*
Y196548D01*
X333000Y196213D02*
Y196283D01*
Y196717D02*
Y196787D01*
X318800Y213000D02*
X320576Y212576D01*
X319400Y213000*
X320576Y213424*
X318800Y213000*
X319400*
X319000Y212952D02*
Y213048D01*
X320000Y212713D02*
Y212783D01*
Y213217D02*
Y213287D01*
X164000Y131000D02*
X196000D01*
X218000Y153000*
X200500Y127000D02*
X210500D01*
X231000Y147500*
X280000Y125000D02*
Y128500D01*
X284000Y132500*
X297000*
X299500Y135000*
X327500*
X330500Y132000*
X260000Y125000D02*
X270500Y135500D01*
X292000*
X294500Y138000*
X333500*
X337000Y134500*
X379500*
X397500Y152500*
X230000Y125000D02*
Y134000D01*
X232000Y136000*
X262500*
X264500Y138000*
X280500*
X290000Y147500*
X301500*
X309500Y155500*
Y157000*
X231000Y147500D02*
X233000Y145500D01*
X269000*
X277000Y153500*
X281500*
X300000Y172000*
X315000*
X275000Y141000D02*
X288000Y154000D01*
X297500*
X305000Y161500*
X323000*
X324500Y160000*
X341500*
X218000Y153000D02*
X219500Y154500D01*
X261500*
X264000Y157000*
X234000Y132500D02*
X252500D01*
X260000Y125000*
X286500Y140000D02*
X287750Y141250D01*
X376250*
X387500Y152500*
X249000Y161000D02*
X264000D01*
X271000Y168000*
X283000*
X286000Y171000*
X292000*
X294500Y173500*
Y175500*
X243000Y166500D02*
X263500D01*
X267500Y170500*
X282500*
X285000Y173000*
X291500*
X292500Y174000*
Y175500*
X210500D02*
X265500D01*
X268500Y178500*
X290200*
X291500Y179800*
X301700*
X306000Y184100*
X264000Y157000D02*
X268500Y161500D01*
X285000*
X289000Y165500*
X330000Y125000D02*
X337000Y132000D01*
X382500*
X387500Y137000*
X412000*
X430000Y155000*
X440500*
X300000Y125000D02*
Y128500D01*
X303500Y132000*
X312000*
X294500Y175500D02*
X319000D01*
X328000Y166500*
X369000*
X292500Y175500D02*
Y176500D01*
X293500Y177500*
X321500*
X328500Y170500*
X389500*
X397500Y162500*
X309500Y157000D02*
X342000D01*
X345000Y154000*
X345500*
X315000Y172000D02*
X318000D01*
X326500Y163500*
X363500*
X397500Y142500D02*
X407500D01*
X417500Y152500*
X197500Y189500D02*
Y174000D01*
X210000Y161500*
X241500*
X245500Y158000*
X255500*
X231000Y189000D02*
X240500D01*
X250500Y199000*
X280500*
X248500Y180500D02*
X260500D01*
X273000Y193000*
X281000*
X234000Y197500D02*
X241500D01*
X252000Y208000*
X264500*
X307500Y196000D02*
X311000D01*
X316500Y190500*
X332000*
X336500Y186000*
X307500Y200000D02*
X314000D01*
X317000Y203000*
X343500*
Y203500*
X313000Y224000D02*
X356000D01*
X410500Y169500*
X417500*
X427500*
X434500Y162500*
X334000Y180000D02*
X335000D01*
X336500Y181500*
Y186000*
X306000Y202000D02*
X309500D01*
X313000Y205500*
X332500*
X342500Y215500*
X343500*
X306000Y198000D02*
X312500D01*
X314000Y196500*
X334000*
X304000Y195000D02*
X305000Y194000D01*
X306000*
X304000Y195000D02*
Y207000D01*
X310000Y213000*
X321000*
X308000Y182000D02*
X308500Y182500D01*
X332500*
X333500Y183500*
G54D24*
X223000Y151500D02*
X266000D01*
X269500Y155000*
Y156000*
X213500Y220000D02*
X214000Y220500D01*
X215500*
X219500Y224500*
X259500*
X213500Y229000D02*
Y229500D01*
X218000Y234000*
X314500*
X317000Y231500*
Y230500*
X244000Y218000D02*
X277000D01*
X282500Y212500*
X287000Y225500D02*
Y226000D01*
X291500Y230500*
X301500*
X305000Y227000*
Y218500*
X280500Y204000D02*
X285500Y209000D01*
Y219000*
X279000Y225500D02*
X280500Y224000D01*
X285500Y219000*
X292500Y237500D02*
Y279500D01*
X302000Y289000*
X306000Y237500D02*
X314000Y245500D01*
X297000Y237500D02*
Y278000D01*
X305000Y286000*
Y308250*
X298500Y212000D02*
X305000Y218500D01*
X294500Y211500D02*
Y224000D01*
X288500Y211500D02*
X291000Y214000D01*
Y225000*
X293000Y227000*
X300500*
X302000Y225500*
Y237500D02*
Y278000D01*
X308500Y284500*
X251000Y338500D02*
X270000D01*
X302000Y306500*
Y289000*
X231500Y323500D02*
X235500Y319500D01*
X273000*
X275000Y317500*
Y297000*
X283500Y288500*
Y237500*
X274750Y338500D02*
X305000Y308250D01*
X255250Y294000D02*
X273500D01*
X279000Y288500*
Y237500*
X255500Y323500D02*
X274000D01*
X278000Y319500*
Y298500*
X287000Y289500*
Y237500*
X231500Y293000D02*
X234000D01*
X236500Y290500*
X272500*
X276000Y287000*
Y237500*
X251000Y369000D02*
X253500Y371500D01*
X277500*
X283000Y366000*
Y361500*
X312000Y332500*
Y286000*
X314000Y284000*
Y245500*
X274500Y368000D02*
X279625Y362875D01*
Y359875*
X308500Y331000*
Y284500*
G54D26*
X412000Y194000D03*
Y198500D03*
X402000Y189500D03*
X412000D03*
X402000Y194000D03*
Y198500D03*
X489000Y234500D03*
X494000D03*
X499500D03*
Y224500D03*
X494000D03*
X489000D03*
X224000Y337000D03*
X219000D03*
X214000D03*
X221500Y287500D03*
X226500D03*
Y282500D03*
X211500Y272500D03*
X214000Y275000D03*
X219000D03*
X224000D03*
Y280000D03*
X219000D03*
X214000D03*
X224000Y285000D03*
X214000Y326000D03*
X219000D03*
X224000D03*
X226500Y328500D03*
X221500D03*
X216500D03*
X211500D03*
Y323500D03*
X221500D03*
X216500D03*
X226500D03*
Y294000D03*
X216500D03*
X221500D03*
X211500D03*
Y299000D03*
X216500D03*
X221500D03*
X226500D03*
X224000Y296500D03*
X219000D03*
X214000D03*
X221500Y282500D03*
X216500D03*
X211500D03*
Y277500D03*
X216500D03*
X221500D03*
X214000Y285000D03*
X219000D03*
X226500Y277500D03*
Y272500D03*
X221500D03*
X216500D03*
X211500Y287500D03*
X216500D03*
X211500Y334500D03*
X216500D03*
X221500D03*
X226500D03*
Y339500D03*
X221500D03*
X216500D03*
X211500D03*
X317000Y294000D03*
Y297500D03*
X322000D03*
Y294000D03*
X327000D03*
X298000D03*
X327000Y297500D03*
X293000Y294000D03*
Y297500D03*
X298000D03*
X288000D03*
Y294000D03*
X402000Y312500D03*
Y308000D03*
X412000Y289000D03*
X402000D03*
X412000Y317000D03*
Y280000D03*
Y284500D03*
X402000D03*
Y280000D03*
X412000Y308000D03*
Y312500D03*
X402000Y317000D03*
X499500Y328000D03*
X494000D03*
X489000D03*
Y338000D03*
X494000D03*
X499500D03*
X214000Y388500D03*
X219000D03*
X224000D03*
Y383500D03*
X219000D03*
X214000D03*
Y378500D03*
X219000D03*
X224000D03*
X226500Y376000D03*
X221500D03*
X216500D03*
X211500D03*
Y381000D03*
X216500D03*
X221500D03*
X226500D03*
Y386000D03*
X221500D03*
X216500D03*
X211500D03*
Y391000D03*
X216500D03*
X221500D03*
X226500D03*
X214000Y367500D03*
X219000D03*
X224000D03*
X226500Y370000D03*
X221500D03*
X211500D03*
X216500D03*
Y365000D03*
X226500D03*
X221500D03*
X211500D03*
X318000Y348500D03*
X322500Y345000D03*
X297500Y366500D03*
X327500Y345000D03*
X292500Y366500D03*
X297500Y363000D03*
X292500D03*
X288000D03*
Y366500D03*
X318000Y345000D03*
X322500Y348500D03*
X327500D03*
X402000Y406500D03*
Y397500D03*
Y402000D03*
X412000Y397500D03*
Y406500D03*
Y402000D03*
G54D46*
X294500Y175500D03*
X292500D03*
X280500Y199000D03*
X287000Y225500D03*
X280500Y204000D03*
X279000Y225500D03*
X281000Y193000D03*
X273000Y201500D03*
X307500Y196000D03*
X306000Y184100D03*
X307500Y200000D03*
X303000Y210500D03*
X306000Y202000D03*
X329500Y185500D03*
X298500Y212000D03*
X294500Y211500D03*
X288500D03*
X316000Y210500D03*
X306000Y198000D03*
Y194000D03*
X294500Y224000D03*
X302000Y225500D03*
X308000Y182000D03*
G54D77*
X189500Y177000D03*
X186500D03*
Y173500D03*
X180500Y177000D03*
X164000Y131000D03*
X183500Y177000D03*
X177500D03*
X189500Y173500D03*
X200500Y127000D03*
X191000Y152500D03*
X153000Y144000D03*
Y151000D03*
Y147500D03*
X166500Y174000D03*
X172500Y127500D03*
X177500Y173500D03*
X180500D03*
X183500D03*
X223000Y151500D03*
X276000Y157500D03*
X225000Y170500D03*
Y178000D03*
X231000Y170500D03*
Y147500D03*
X255500Y158000D03*
X269500Y156000D03*
X280000Y141000D03*
X275000D03*
X218000Y153000D03*
X237500Y172000D03*
X234000Y132500D03*
X261500Y148500D03*
X286500Y140000D03*
X249000Y161000D03*
X243000Y166500D03*
X210500Y175500D03*
X264000Y157000D03*
X208000Y113500D03*
X289000Y165500D03*
X309500Y157000D03*
X312000Y132000D03*
X330500D03*
X293500Y150500D03*
X300000Y161500D03*
X334500Y154000D03*
X345500D03*
X363500Y163500D03*
X341500Y160000D03*
X315000Y172000D03*
X313000Y153500D03*
X340000Y154000D03*
X293000Y157500D03*
X369000Y166500D03*
X443000Y152500D03*
X440500Y155000D03*
X434500Y162500D03*
X397500Y142500D03*
X175500Y206000D03*
X197500Y189500D03*
X177500Y180500D03*
X189500D03*
X180500D03*
X186500D03*
X166500Y206000D03*
X183500Y180500D03*
X184500Y206000D03*
X151500Y219000D03*
Y230000D03*
X157500D03*
Y219000D03*
X163500Y230000D03*
Y219000D03*
X171000Y206000D03*
X231000Y189000D03*
X276000Y237500D03*
X283500D03*
X248500Y180500D03*
X259500Y224500D03*
X257500Y194500D03*
X213500Y220000D03*
X282500Y212500D03*
X213500Y229000D03*
X244000Y218000D03*
X245000Y206500D03*
X234000Y197500D03*
X215000Y194500D03*
X287000Y237500D03*
X264500Y208000D03*
X215000Y197500D03*
Y200500D03*
X279000Y237500D03*
X292500D03*
X295000Y197500D03*
X292000D03*
X343500Y215500D03*
X306000Y237500D03*
X289000Y197500D03*
X298000Y194500D03*
X289000D03*
X298000Y191500D03*
X295000Y203500D03*
X297000Y237500D03*
X334000Y196500D03*
X317000Y230500D03*
X353000Y212500D03*
X313000Y224000D03*
X289000Y203500D03*
X334000Y180000D03*
X292000Y200500D03*
X343500Y203500D03*
X333500Y183500D03*
X298000Y200500D03*
X327000Y200000D03*
Y213000D03*
X298000Y203500D03*
X308500Y223500D03*
X346000Y180000D03*
X353000Y218500D03*
Y206500D03*
Y200500D03*
X330500Y180000D03*
X289000Y185500D03*
X346000Y184500D03*
Y189000D03*
X292000Y203500D03*
X330500Y193500D03*
X292000Y185500D03*
X289000Y188500D03*
X298000Y182500D03*
X295000Y185500D03*
X298000D03*
Y188500D03*
X289000Y182500D03*
X295000Y188500D03*
X292000Y182500D03*
Y188500D03*
X295000Y182500D03*
X301000Y220500D03*
X321000Y213000D03*
X302000Y237500D03*
X289000Y191500D03*
X295000D03*
X292000D03*
X289000Y200500D03*
X298000Y197500D03*
X295000Y194500D03*
X292000D03*
X295000Y200500D03*
X247500Y287000D03*
X244500D03*
X241500D03*
X238500D03*
X235500D03*
Y284000D03*
X238500D03*
X241500D03*
X244500D03*
X247500D03*
X235500Y281000D03*
X238500D03*
X241500D03*
X244500D03*
X247500D03*
X235500Y278000D03*
X238500D03*
X241500D03*
X244500D03*
X247500D03*
X235500Y275000D03*
X238500D03*
X241500D03*
X244500D03*
X247500D03*
Y303500D03*
X244500D03*
X241500D03*
X238500D03*
X235500D03*
X247500Y306500D03*
X244500D03*
X241500D03*
X238500D03*
X235500D03*
X247500Y309500D03*
X244500D03*
X241500D03*
X238500D03*
X235500D03*
X247500Y312500D03*
X244500D03*
X241500D03*
X238500D03*
X235500D03*
Y315500D03*
X238500D03*
X241500D03*
X244500D03*
X247500D03*
X251000Y338500D03*
X231500Y323500D03*
X271000Y275000D03*
X268000D03*
X265000D03*
X262000D03*
X259000D03*
X271000Y278000D03*
X268000D03*
X265000D03*
X262000D03*
X259000D03*
X271000Y281000D03*
X268000D03*
X265000D03*
X262000D03*
X259000D03*
X271000Y284000D03*
X268000D03*
X265000D03*
X262000D03*
X259000D03*
Y287000D03*
X262000D03*
X265000D03*
X268000D03*
X271000D03*
Y315500D03*
X268000D03*
X265000D03*
X262000D03*
X259000D03*
Y312500D03*
X262000D03*
X265000D03*
X268000D03*
X271000D03*
X259000Y309500D03*
X262000D03*
X265000D03*
X268000D03*
X271000D03*
X259000Y306500D03*
X262000D03*
X265000D03*
X268000D03*
X271000D03*
X259000Y303500D03*
X262000D03*
X265000D03*
X268000D03*
X271000D03*
X270500Y300000D03*
X274750Y338500D03*
X255250Y294000D03*
X255500Y323500D03*
X231500Y293000D03*
X303500Y330500D03*
X235500Y358500D03*
X238500D03*
X241500D03*
X244500D03*
X247500D03*
Y355500D03*
X244500D03*
X241500D03*
X238500D03*
X235500D03*
X247500Y352500D03*
X244500D03*
X241500D03*
X238500D03*
X235500D03*
X247500Y349500D03*
X244500D03*
X241500D03*
X238500D03*
X235500D03*
X247500Y346500D03*
X244500D03*
X241500D03*
X238500D03*
X235500D03*
Y378000D03*
X238500D03*
X241500D03*
X244500D03*
X247500D03*
X235500Y381000D03*
X238500D03*
X241500D03*
X244500D03*
X247500D03*
X235500Y384000D03*
X238500D03*
X241500D03*
X244500D03*
X247500D03*
X235500Y387000D03*
X238500D03*
X235500Y390000D03*
X238500D03*
X241500D03*
X244500D03*
X247500D03*
Y387000D03*
X244500D03*
X251000Y369000D03*
X259000Y346500D03*
X262000D03*
X265000D03*
X268000D03*
X271000D03*
X259000Y349500D03*
X262000D03*
X265000D03*
X268000D03*
X271000D03*
X259000Y352500D03*
X262000D03*
X265000D03*
X268000D03*
X271000D03*
X259000Y355500D03*
X262000D03*
X265000D03*
X268000D03*
X271000D03*
Y358500D03*
X268000D03*
X265000D03*
X262000D03*
X259000D03*
Y390000D03*
X262000D03*
X265000D03*
X268000D03*
X271000D03*
Y387000D03*
X268000D03*
X265000D03*
X262000D03*
X259000D03*
X271000Y384000D03*
X268000D03*
X265000D03*
X262000D03*
X259000D03*
X271000Y381000D03*
X268000D03*
X265000D03*
X262000D03*
X259000D03*
X271000Y378000D03*
X268000D03*
X265000D03*
X262000D03*
X259000D03*
X241500Y387000D03*
X262500Y365000D03*
X274500Y368000D03*
G54D81*
G54D105*
X397500Y115000D03*
X437500D03*
X457500D03*
X387500Y152500D03*
X397500D03*
Y162500D03*
X407500D03*
X417500Y152500D03*
G54D228*
X450500Y318000D03*
Y214000D03*
G54D243*
X485000Y281500D03*
G54D336*
X230000Y115000D03*
Y125000D03*
X260000D03*
X280000D03*
X300000D03*
X330000Y115000D03*
Y125000D03*
G74*
X0Y0D02*
M02*
