*
*
G04 PADS VX.0 Build Number: 635560 generated Gerber (RS-274-X) file*
G04 PC Version=2.1*
*
%IN "DC2596a-3.pcb"*%
*
%MOIN*%
*
%FSLAX35Y35*%
*
*
*
*
G04 PC Standard Apertures*
*
*
G04 Thermal Relief Aperture macro.*
%AMTER*
1,1,$1,0,0*
1,0,$1-$2,0,0*
21,0,$3,$4,0,0,45*
21,0,$3,$4,0,0,135*
%
*
*
G04 Annular Aperture macro.*
%AMANN*
1,1,$1,0,0*
1,0,$2,0,0*
%
*
*
G04 Odd Aperture macro.*
%AMODD*
1,1,$1,0,0*
1,0,$1-0.005,0,0*
%
*
*
G04 PC Custom Aperture Macros*
*
*
*
*
*
*
G04 PC Aperture Table*
*
%ADD010C,0.005*%
%ADD011C,0.01*%
%ADD012C,0.008*%
%ADD030R,0.03X0.03*%
%ADD033R,0.036X0.036*%
%ADD081C,0.001*%
%ADD096R,0.06X0.1*%
%ADD225R,0.05X0.045*%
%ADD232R,0.05X0.036*%
%ADD233R,0.036X0.05*%
%ADD235R,0.06X0.05*%
%ADD313R,0.29921X0.07874*%
%ADD335R,0.16142X0.08268*%
%ADD339R,0.02559X0.04724*%
%ADD342R,0.08661X0.05512*%
%ADD343R,0.03543X0.05512*%
%ADD344R,0.14567X0.05906*%
%ADD345R,0.05906X0.14567*%
%ADD350R,0.01772X0.04134*%
%ADD352R,0.075X0.135*%
%ADD353R,0.21654X0.1063*%
%ADD354R,0.07874X0.29921*%
%ADD362R,0.02656X0.00884*%
%ADD363R,0.00884X0.02656*%
%ADD365R,0.51969X0.1252*%
*
*
*
*
G04 PC Circuitry*
G04 Layer Name DC2596a-3.pcb - circuitry*
%LPD*%
*
*
G04 PC Custom Flashes*
G04 Layer Name DC2596a-3.pcb - flashes*
%LPD*%
*
*
G04 PC Circuitry*
G04 Layer Name DC2596a-3.pcb - circuitry*
%LPD*%
*
G54D10*
G01X263633Y278632D02*
X266676D01*
Y280494*
X263633*
Y278632*
X263750D02*
Y280494D01*
X264000Y278632D02*
Y280494D01*
X264250Y278632D02*
Y280494D01*
X264500Y278632D02*
Y280494D01*
X264750Y278632D02*
Y280494D01*
X265000Y278632D02*
Y280494D01*
X265250Y278632D02*
Y280494D01*
X265500Y278632D02*
Y280494D01*
X265750Y278632D02*
Y280494D01*
X266000Y278632D02*
Y280494D01*
X266250Y278632D02*
Y280494D01*
X266500Y278632D02*
Y280494D01*
X268161Y278632D02*
X271204D01*
Y280494*
X268161*
Y278632*
X268250D02*
Y280494D01*
X268500Y278632D02*
Y280494D01*
X268750Y278632D02*
Y280494D01*
X269000Y278632D02*
Y280494D01*
X269250Y278632D02*
Y280494D01*
X269500Y278632D02*
Y280494D01*
X269750Y278632D02*
Y280494D01*
X270000Y278632D02*
Y280494D01*
X270250Y278632D02*
Y280494D01*
X270500Y278632D02*
Y280494D01*
X270750Y278632D02*
Y280494D01*
X271000Y278632D02*
Y280494D01*
X259061Y278632D02*
X262104D01*
Y280494*
X259061*
Y278632*
X259250D02*
Y280494D01*
X259500Y278632D02*
Y280494D01*
X259750Y278632D02*
Y280494D01*
X260000Y278632D02*
Y280494D01*
X260250Y278632D02*
Y280494D01*
X260500Y278632D02*
Y280494D01*
X260750Y278632D02*
Y280494D01*
X261000Y278632D02*
Y280494D01*
X261250Y278632D02*
Y280494D01*
X261500Y278632D02*
Y280494D01*
X261750Y278632D02*
Y280494D01*
X262000Y278632D02*
Y280494D01*
X259061Y281982D02*
X262104D01*
Y283844*
X259061*
Y281982*
X259250D02*
Y283844D01*
X259500Y281982D02*
Y283844D01*
X259750Y281982D02*
Y283844D01*
X260000Y281982D02*
Y283844D01*
X260250Y281982D02*
Y283844D01*
X260500Y281982D02*
Y283844D01*
X260750Y281982D02*
Y283844D01*
X261000Y281982D02*
Y283844D01*
X261250Y281982D02*
Y283844D01*
X261500Y281982D02*
Y283844D01*
X261750Y281982D02*
Y283844D01*
X262000Y281982D02*
Y283844D01*
X263633Y281982D02*
X266676D01*
Y283844*
X263633*
Y281982*
X263750D02*
Y283844D01*
X264000Y281982D02*
Y283844D01*
X264250Y281982D02*
Y283844D01*
X264500Y281982D02*
Y283844D01*
X264750Y281982D02*
Y283844D01*
X265000Y281982D02*
Y283844D01*
X265250Y281982D02*
Y283844D01*
X265500Y281982D02*
Y283844D01*
X265750Y281982D02*
Y283844D01*
X266000Y281982D02*
Y283844D01*
X266250Y281982D02*
Y283844D01*
X266500Y281982D02*
Y283844D01*
X268161Y281982D02*
X271204D01*
Y283844*
X268161*
Y281982*
X268250D02*
Y283844D01*
X268500Y281982D02*
Y283844D01*
X268750Y281982D02*
Y283844D01*
X269000Y281982D02*
Y283844D01*
X269250Y281982D02*
Y283844D01*
X269500Y281982D02*
Y283844D01*
X269750Y281982D02*
Y283844D01*
X270000Y281982D02*
Y283844D01*
X270250Y281982D02*
Y283844D01*
X270500Y281982D02*
Y283844D01*
X270750Y281982D02*
Y283844D01*
X271000Y281982D02*
Y283844D01*
X263633Y275282D02*
X266676D01*
Y277144*
X263633*
Y275282*
X263750D02*
Y277144D01*
X264000Y275282D02*
Y277144D01*
X264250Y275282D02*
Y277144D01*
X264500Y275282D02*
Y277144D01*
X264750Y275282D02*
Y277144D01*
X265000Y275282D02*
Y277144D01*
X265250Y275282D02*
Y277144D01*
X265500Y275282D02*
Y277144D01*
X265750Y275282D02*
Y277144D01*
X266000Y275282D02*
Y277144D01*
X266250Y275282D02*
Y277144D01*
X266500Y275282D02*
Y277144D01*
X268161Y275282D02*
X271204D01*
Y277144*
X268161*
Y275282*
X268250D02*
Y277144D01*
X268500Y275282D02*
Y277144D01*
X268750Y275282D02*
Y277144D01*
X269000Y275282D02*
Y277144D01*
X269250Y275282D02*
Y277144D01*
X269500Y275282D02*
Y277144D01*
X269750Y275282D02*
Y277144D01*
X270000Y275282D02*
Y277144D01*
X270250Y275282D02*
Y277144D01*
X270500Y275282D02*
Y277144D01*
X270750Y275282D02*
Y277144D01*
X271000Y275282D02*
Y277144D01*
X259061Y275282D02*
X262104D01*
Y277144*
X259061*
Y275282*
X259250D02*
Y277144D01*
X259500Y275282D02*
Y277144D01*
X259750Y275282D02*
Y277144D01*
X260000Y275282D02*
Y277144D01*
X260250Y275282D02*
Y277144D01*
X260500Y275282D02*
Y277144D01*
X260750Y275282D02*
Y277144D01*
X261000Y275282D02*
Y277144D01*
X261250Y275282D02*
Y277144D01*
X261500Y275282D02*
Y277144D01*
X261750Y275282D02*
Y277144D01*
X262000Y275282D02*
Y277144D01*
X259061Y285382D02*
X262104D01*
Y287244*
X259061*
Y285382*
X259250D02*
Y287244D01*
X259500Y285382D02*
Y287244D01*
X259750Y285382D02*
Y287244D01*
X260000Y285382D02*
Y287244D01*
X260250Y285382D02*
Y287244D01*
X260500Y285382D02*
Y287244D01*
X260750Y285382D02*
Y287244D01*
X261000Y285382D02*
Y287244D01*
X261250Y285382D02*
Y287244D01*
X261500Y285382D02*
Y287244D01*
X261750Y285382D02*
Y287244D01*
X262000Y285382D02*
Y287244D01*
X263633Y285382D02*
X266676D01*
Y287244*
X263633*
Y285382*
X263750D02*
Y287244D01*
X264000Y285382D02*
Y287244D01*
X264250Y285382D02*
Y287244D01*
X264500Y285382D02*
Y287244D01*
X264750Y285382D02*
Y287244D01*
X265000Y285382D02*
Y287244D01*
X265250Y285382D02*
Y287244D01*
X265500Y285382D02*
Y287244D01*
X265750Y285382D02*
Y287244D01*
X266000Y285382D02*
Y287244D01*
X266250Y285382D02*
Y287244D01*
X266500Y285382D02*
Y287244D01*
X268161Y285382D02*
X271204D01*
Y287244*
X268161*
Y285382*
X268250D02*
Y287244D01*
X268500Y285382D02*
Y287244D01*
X268750Y285382D02*
Y287244D01*
X269000Y285382D02*
Y287244D01*
X269250Y285382D02*
Y287244D01*
X269500Y285382D02*
Y287244D01*
X269750Y285382D02*
Y287244D01*
X270000Y285382D02*
Y287244D01*
X270250Y285382D02*
Y287244D01*
X270500Y285382D02*
Y287244D01*
X270750Y285382D02*
Y287244D01*
X271000Y285382D02*
Y287244D01*
X256050Y269207D02*
X258250D01*
Y273350*
X256050*
Y269207*
X256250D02*
Y273350D01*
X256500Y269207D02*
Y273350D01*
X256750Y269207D02*
Y273350D01*
X257000Y269207D02*
Y273350D01*
X257250Y269207D02*
Y273350D01*
X257500Y269207D02*
Y273350D01*
X257750Y269207D02*
Y273350D01*
X258000Y269207D02*
Y273350D01*
X261250Y269207D02*
X263462D01*
Y273350*
X261250*
Y269207*
Y273350*
X261500Y269207D02*
Y273350D01*
X261750Y269207D02*
Y273350D01*
X262000Y269207D02*
Y273350D01*
X262250Y269207D02*
Y273350D01*
X262500Y269207D02*
Y273350D01*
X262750Y269207D02*
Y273350D01*
X263000Y269207D02*
Y273350D01*
X263250Y269207D02*
Y273350D01*
X266550Y269207D02*
X268750D01*
Y273350*
X266550*
Y269207*
X266750D02*
Y273350D01*
X267000Y269207D02*
Y273350D01*
X267250Y269207D02*
Y273350D01*
X267500Y269207D02*
Y273350D01*
X267750Y269207D02*
Y273350D01*
X268000Y269207D02*
Y273350D01*
X268250Y269207D02*
Y273350D01*
X268500Y269207D02*
Y273350D01*
X271850Y269207D02*
X273962D01*
Y273350*
X271850*
Y269207*
X272000D02*
Y273350D01*
X272250Y269207D02*
Y273350D01*
X272500Y269207D02*
Y273350D01*
X272750Y269207D02*
Y273350D01*
X273000Y269207D02*
Y273350D01*
X273250Y269207D02*
Y273350D01*
X273500Y269207D02*
Y273350D01*
X273750Y269207D02*
Y273350D01*
X266367Y383868D02*
X263324D01*
Y382006*
X266367*
Y383868*
X263500Y382006D02*
Y383868D01*
X263750Y382006D02*
Y383868D01*
X264000Y382006D02*
Y383868D01*
X264250Y382006D02*
Y383868D01*
X264500Y382006D02*
Y383868D01*
X264750Y382006D02*
Y383868D01*
X265000Y382006D02*
Y383868D01*
X265250Y382006D02*
Y383868D01*
X265500Y382006D02*
Y383868D01*
X265750Y382006D02*
Y383868D01*
X266000Y382006D02*
Y383868D01*
X266250Y382006D02*
Y383868D01*
X261839D02*
X258796D01*
Y382006*
X261839*
Y383868*
X259000Y382006D02*
Y383868D01*
X259250Y382006D02*
Y383868D01*
X259500Y382006D02*
Y383868D01*
X259750Y382006D02*
Y383868D01*
X260000Y382006D02*
Y383868D01*
X260250Y382006D02*
Y383868D01*
X260500Y382006D02*
Y383868D01*
X260750Y382006D02*
Y383868D01*
X261000Y382006D02*
Y383868D01*
X261250Y382006D02*
Y383868D01*
X261500Y382006D02*
Y383868D01*
X261750Y382006D02*
Y383868D01*
X270939D02*
X267896D01*
Y382006*
X270939*
Y383868*
X268000Y382006D02*
Y383868D01*
X268250Y382006D02*
Y383868D01*
X268500Y382006D02*
Y383868D01*
X268750Y382006D02*
Y383868D01*
X269000Y382006D02*
Y383868D01*
X269250Y382006D02*
Y383868D01*
X269500Y382006D02*
Y383868D01*
X269750Y382006D02*
Y383868D01*
X270000Y382006D02*
Y383868D01*
X270250Y382006D02*
Y383868D01*
X270500Y382006D02*
Y383868D01*
X270750Y382006D02*
Y383868D01*
X270939Y380518D02*
X267896D01*
Y378656*
X270939*
Y380518*
X268000Y378656D02*
Y380518D01*
X268250Y378656D02*
Y380518D01*
X268500Y378656D02*
Y380518D01*
X268750Y378656D02*
Y380518D01*
X269000Y378656D02*
Y380518D01*
X269250Y378656D02*
Y380518D01*
X269500Y378656D02*
Y380518D01*
X269750Y378656D02*
Y380518D01*
X270000Y378656D02*
Y380518D01*
X270250Y378656D02*
Y380518D01*
X270500Y378656D02*
Y380518D01*
X270750Y378656D02*
Y380518D01*
X266367D02*
X263324D01*
Y378656*
X266367*
Y380518*
X263500Y378656D02*
Y380518D01*
X263750Y378656D02*
Y380518D01*
X264000Y378656D02*
Y380518D01*
X264250Y378656D02*
Y380518D01*
X264500Y378656D02*
Y380518D01*
X264750Y378656D02*
Y380518D01*
X265000Y378656D02*
Y380518D01*
X265250Y378656D02*
Y380518D01*
X265500Y378656D02*
Y380518D01*
X265750Y378656D02*
Y380518D01*
X266000Y378656D02*
Y380518D01*
X266250Y378656D02*
Y380518D01*
X261839D02*
X258796D01*
Y378656*
X261839*
Y380518*
X259000Y378656D02*
Y380518D01*
X259250Y378656D02*
Y380518D01*
X259500Y378656D02*
Y380518D01*
X259750Y378656D02*
Y380518D01*
X260000Y378656D02*
Y380518D01*
X260250Y378656D02*
Y380518D01*
X260500Y378656D02*
Y380518D01*
X260750Y378656D02*
Y380518D01*
X261000Y378656D02*
Y380518D01*
X261250Y378656D02*
Y380518D01*
X261500Y378656D02*
Y380518D01*
X261750Y378656D02*
Y380518D01*
X266367Y387218D02*
X263324D01*
Y385356*
X266367*
Y387218*
X263500Y385356D02*
Y387218D01*
X263750Y385356D02*
Y387218D01*
X264000Y385356D02*
Y387218D01*
X264250Y385356D02*
Y387218D01*
X264500Y385356D02*
Y387218D01*
X264750Y385356D02*
Y387218D01*
X265000Y385356D02*
Y387218D01*
X265250Y385356D02*
Y387218D01*
X265500Y385356D02*
Y387218D01*
X265750Y385356D02*
Y387218D01*
X266000Y385356D02*
Y387218D01*
X266250Y385356D02*
Y387218D01*
X261839D02*
X258796D01*
Y385356*
X261839*
Y387218*
X259000Y385356D02*
Y387218D01*
X259250Y385356D02*
Y387218D01*
X259500Y385356D02*
Y387218D01*
X259750Y385356D02*
Y387218D01*
X260000Y385356D02*
Y387218D01*
X260250Y385356D02*
Y387218D01*
X260500Y385356D02*
Y387218D01*
X260750Y385356D02*
Y387218D01*
X261000Y385356D02*
Y387218D01*
X261250Y385356D02*
Y387218D01*
X261500Y385356D02*
Y387218D01*
X261750Y385356D02*
Y387218D01*
X270939D02*
X267896D01*
Y385356*
X270939*
Y387218*
X268000Y385356D02*
Y387218D01*
X268250Y385356D02*
Y387218D01*
X268500Y385356D02*
Y387218D01*
X268750Y385356D02*
Y387218D01*
X269000Y385356D02*
Y387218D01*
X269250Y385356D02*
Y387218D01*
X269500Y385356D02*
Y387218D01*
X269750Y385356D02*
Y387218D01*
X270000Y385356D02*
Y387218D01*
X270250Y385356D02*
Y387218D01*
X270500Y385356D02*
Y387218D01*
X270750Y385356D02*
Y387218D01*
X270939Y377118D02*
X267896D01*
Y375256*
X270939*
Y377118*
X268000Y375256D02*
Y377118D01*
X268250Y375256D02*
Y377118D01*
X268500Y375256D02*
Y377118D01*
X268750Y375256D02*
Y377118D01*
X269000Y375256D02*
Y377118D01*
X269250Y375256D02*
Y377118D01*
X269500Y375256D02*
Y377118D01*
X269750Y375256D02*
Y377118D01*
X270000Y375256D02*
Y377118D01*
X270250Y375256D02*
Y377118D01*
X270500Y375256D02*
Y377118D01*
X270750Y375256D02*
Y377118D01*
X266367D02*
X263324D01*
Y375256*
X266367*
Y377118*
X263500Y375256D02*
Y377118D01*
X263750Y375256D02*
Y377118D01*
X264000Y375256D02*
Y377118D01*
X264250Y375256D02*
Y377118D01*
X264500Y375256D02*
Y377118D01*
X264750Y375256D02*
Y377118D01*
X265000Y375256D02*
Y377118D01*
X265250Y375256D02*
Y377118D01*
X265500Y375256D02*
Y377118D01*
X265750Y375256D02*
Y377118D01*
X266000Y375256D02*
Y377118D01*
X266250Y375256D02*
Y377118D01*
X261839D02*
X258796D01*
Y375256*
X261839*
Y377118*
X259000Y375256D02*
Y377118D01*
X259250Y375256D02*
Y377118D01*
X259500Y375256D02*
Y377118D01*
X259750Y375256D02*
Y377118D01*
X260000Y375256D02*
Y377118D01*
X260250Y375256D02*
Y377118D01*
X260500Y375256D02*
Y377118D01*
X260750Y375256D02*
Y377118D01*
X261000Y375256D02*
Y377118D01*
X261250Y375256D02*
Y377118D01*
X261500Y375256D02*
Y377118D01*
X261750Y375256D02*
Y377118D01*
X273950Y393293D02*
X271750D01*
Y389150*
X273950*
Y393293*
X271750Y389150D02*
Y393293D01*
X272000Y389150D02*
Y393293D01*
X272250Y389150D02*
Y393293D01*
X272500Y389150D02*
Y393293D01*
X272750Y389150D02*
Y393293D01*
X273000Y389150D02*
Y393293D01*
X273250Y389150D02*
Y393293D01*
X273500Y389150D02*
Y393293D01*
X273750Y389150D02*
Y393293D01*
X268750D02*
X266538D01*
Y389150*
X268750*
Y393293*
X266750Y389150D02*
Y393293D01*
X267000Y389150D02*
Y393293D01*
X267250Y389150D02*
Y393293D01*
X267500Y389150D02*
Y393293D01*
X267750Y389150D02*
Y393293D01*
X268000Y389150D02*
Y393293D01*
X268250Y389150D02*
Y393293D01*
X268500Y389150D02*
Y393293D01*
X263450D02*
X261250D01*
Y389150*
X263450*
Y393293*
X261250Y389150D02*
Y393293D01*
X261500Y389150D02*
Y393293D01*
X261750Y389150D02*
Y393293D01*
X262000Y389150D02*
Y393293D01*
X262250Y389150D02*
Y393293D01*
X262500Y389150D02*
Y393293D01*
X262750Y389150D02*
Y393293D01*
X263000Y389150D02*
Y393293D01*
X263250Y389150D02*
Y393293D01*
X258150D02*
X256038D01*
Y389150*
X258150*
Y393293*
X256250Y389150D02*
Y393293D01*
X256500Y389150D02*
Y393293D01*
X256750Y389150D02*
Y393293D01*
X257000Y389150D02*
Y393293D01*
X257250Y389150D02*
Y393293D01*
X257500Y389150D02*
Y393293D01*
X257750Y389150D02*
Y393293D01*
X258000Y389150D02*
Y393293D01*
X263633Y309132D02*
X266676D01*
Y310994*
X263633*
Y309132*
X263750D02*
Y310994D01*
X264000Y309132D02*
Y310994D01*
X264250Y309132D02*
Y310994D01*
X264500Y309132D02*
Y310994D01*
X264750Y309132D02*
Y310994D01*
X265000Y309132D02*
Y310994D01*
X265250Y309132D02*
Y310994D01*
X265500Y309132D02*
Y310994D01*
X265750Y309132D02*
Y310994D01*
X266000Y309132D02*
Y310994D01*
X266250Y309132D02*
Y310994D01*
X266500Y309132D02*
Y310994D01*
X268161Y309132D02*
X271204D01*
Y310994*
X268161*
Y309132*
X268250D02*
Y310994D01*
X268500Y309132D02*
Y310994D01*
X268750Y309132D02*
Y310994D01*
X269000Y309132D02*
Y310994D01*
X269250Y309132D02*
Y310994D01*
X269500Y309132D02*
Y310994D01*
X269750Y309132D02*
Y310994D01*
X270000Y309132D02*
Y310994D01*
X270250Y309132D02*
Y310994D01*
X270500Y309132D02*
Y310994D01*
X270750Y309132D02*
Y310994D01*
X271000Y309132D02*
Y310994D01*
X259061Y309132D02*
X262104D01*
Y310994*
X259061*
Y309132*
X259250D02*
Y310994D01*
X259500Y309132D02*
Y310994D01*
X259750Y309132D02*
Y310994D01*
X260000Y309132D02*
Y310994D01*
X260250Y309132D02*
Y310994D01*
X260500Y309132D02*
Y310994D01*
X260750Y309132D02*
Y310994D01*
X261000Y309132D02*
Y310994D01*
X261250Y309132D02*
Y310994D01*
X261500Y309132D02*
Y310994D01*
X261750Y309132D02*
Y310994D01*
X262000Y309132D02*
Y310994D01*
X259061Y312482D02*
X262104D01*
Y314344*
X259061*
Y312482*
X259250D02*
Y314344D01*
X259500Y312482D02*
Y314344D01*
X259750Y312482D02*
Y314344D01*
X260000Y312482D02*
Y314344D01*
X260250Y312482D02*
Y314344D01*
X260500Y312482D02*
Y314344D01*
X260750Y312482D02*
Y314344D01*
X261000Y312482D02*
Y314344D01*
X261250Y312482D02*
Y314344D01*
X261500Y312482D02*
Y314344D01*
X261750Y312482D02*
Y314344D01*
X262000Y312482D02*
Y314344D01*
X263633Y312482D02*
X266676D01*
Y314344*
X263633*
Y312482*
X263750D02*
Y314344D01*
X264000Y312482D02*
Y314344D01*
X264250Y312482D02*
Y314344D01*
X264500Y312482D02*
Y314344D01*
X264750Y312482D02*
Y314344D01*
X265000Y312482D02*
Y314344D01*
X265250Y312482D02*
Y314344D01*
X265500Y312482D02*
Y314344D01*
X265750Y312482D02*
Y314344D01*
X266000Y312482D02*
Y314344D01*
X266250Y312482D02*
Y314344D01*
X266500Y312482D02*
Y314344D01*
X268161Y312482D02*
X271204D01*
Y314344*
X268161*
Y312482*
X268250D02*
Y314344D01*
X268500Y312482D02*
Y314344D01*
X268750Y312482D02*
Y314344D01*
X269000Y312482D02*
Y314344D01*
X269250Y312482D02*
Y314344D01*
X269500Y312482D02*
Y314344D01*
X269750Y312482D02*
Y314344D01*
X270000Y312482D02*
Y314344D01*
X270250Y312482D02*
Y314344D01*
X270500Y312482D02*
Y314344D01*
X270750Y312482D02*
Y314344D01*
X271000Y312482D02*
Y314344D01*
X263633Y305782D02*
X266676D01*
Y307644*
X263633*
Y305782*
X263750D02*
Y307644D01*
X264000Y305782D02*
Y307644D01*
X264250Y305782D02*
Y307644D01*
X264500Y305782D02*
Y307644D01*
X264750Y305782D02*
Y307644D01*
X265000Y305782D02*
Y307644D01*
X265250Y305782D02*
Y307644D01*
X265500Y305782D02*
Y307644D01*
X265750Y305782D02*
Y307644D01*
X266000Y305782D02*
Y307644D01*
X266250Y305782D02*
Y307644D01*
X266500Y305782D02*
Y307644D01*
X268161Y305782D02*
X271204D01*
Y307644*
X268161*
Y305782*
X268250D02*
Y307644D01*
X268500Y305782D02*
Y307644D01*
X268750Y305782D02*
Y307644D01*
X269000Y305782D02*
Y307644D01*
X269250Y305782D02*
Y307644D01*
X269500Y305782D02*
Y307644D01*
X269750Y305782D02*
Y307644D01*
X270000Y305782D02*
Y307644D01*
X270250Y305782D02*
Y307644D01*
X270500Y305782D02*
Y307644D01*
X270750Y305782D02*
Y307644D01*
X271000Y305782D02*
Y307644D01*
X259061Y305782D02*
X262104D01*
Y307644*
X259061*
Y305782*
X259250D02*
Y307644D01*
X259500Y305782D02*
Y307644D01*
X259750Y305782D02*
Y307644D01*
X260000Y305782D02*
Y307644D01*
X260250Y305782D02*
Y307644D01*
X260500Y305782D02*
Y307644D01*
X260750Y305782D02*
Y307644D01*
X261000Y305782D02*
Y307644D01*
X261250Y305782D02*
Y307644D01*
X261500Y305782D02*
Y307644D01*
X261750Y305782D02*
Y307644D01*
X262000Y305782D02*
Y307644D01*
X259061Y315882D02*
X262104D01*
Y317744*
X259061*
Y315882*
X259250D02*
Y317744D01*
X259500Y315882D02*
Y317744D01*
X259750Y315882D02*
Y317744D01*
X260000Y315882D02*
Y317744D01*
X260250Y315882D02*
Y317744D01*
X260500Y315882D02*
Y317744D01*
X260750Y315882D02*
Y317744D01*
X261000Y315882D02*
Y317744D01*
X261250Y315882D02*
Y317744D01*
X261500Y315882D02*
Y317744D01*
X261750Y315882D02*
Y317744D01*
X262000Y315882D02*
Y317744D01*
X263633Y315882D02*
X266676D01*
Y317744*
X263633*
Y315882*
X263750D02*
Y317744D01*
X264000Y315882D02*
Y317744D01*
X264250Y315882D02*
Y317744D01*
X264500Y315882D02*
Y317744D01*
X264750Y315882D02*
Y317744D01*
X265000Y315882D02*
Y317744D01*
X265250Y315882D02*
Y317744D01*
X265500Y315882D02*
Y317744D01*
X265750Y315882D02*
Y317744D01*
X266000Y315882D02*
Y317744D01*
X266250Y315882D02*
Y317744D01*
X266500Y315882D02*
Y317744D01*
X268161Y315882D02*
X271204D01*
Y317744*
X268161*
Y315882*
X268250D02*
Y317744D01*
X268500Y315882D02*
Y317744D01*
X268750Y315882D02*
Y317744D01*
X269000Y315882D02*
Y317744D01*
X269250Y315882D02*
Y317744D01*
X269500Y315882D02*
Y317744D01*
X269750Y315882D02*
Y317744D01*
X270000Y315882D02*
Y317744D01*
X270250Y315882D02*
Y317744D01*
X270500Y315882D02*
Y317744D01*
X270750Y315882D02*
Y317744D01*
X271000Y315882D02*
Y317744D01*
X256050Y299707D02*
X258250D01*
Y303850*
X256050*
Y299707*
X256250D02*
Y303850D01*
X256500Y299707D02*
Y303850D01*
X256750Y299707D02*
Y303850D01*
X257000Y299707D02*
Y303850D01*
X257250Y299707D02*
Y303850D01*
X257500Y299707D02*
Y303850D01*
X257750Y299707D02*
Y303850D01*
X258000Y299707D02*
Y303850D01*
X261250Y299707D02*
X263462D01*
Y303850*
X261250*
Y299707*
Y303850*
X261500Y299707D02*
Y303850D01*
X261750Y299707D02*
Y303850D01*
X262000Y299707D02*
Y303850D01*
X262250Y299707D02*
Y303850D01*
X262500Y299707D02*
Y303850D01*
X262750Y299707D02*
Y303850D01*
X263000Y299707D02*
Y303850D01*
X263250Y299707D02*
Y303850D01*
X266550Y299707D02*
X268750D01*
Y303850*
X266550*
Y299707*
X266750D02*
Y303850D01*
X267000Y299707D02*
Y303850D01*
X267250Y299707D02*
Y303850D01*
X267500Y299707D02*
Y303850D01*
X267750Y299707D02*
Y303850D01*
X268000Y299707D02*
Y303850D01*
X268250Y299707D02*
Y303850D01*
X268500Y299707D02*
Y303850D01*
X271850Y299707D02*
X273962D01*
Y303850*
X271850*
Y299707*
X272000D02*
Y303850D01*
X272250Y299707D02*
Y303850D01*
X272500Y299707D02*
Y303850D01*
X272750Y299707D02*
Y303850D01*
X273000Y299707D02*
Y303850D01*
X273250Y299707D02*
Y303850D01*
X273500Y299707D02*
Y303850D01*
X273750Y299707D02*
Y303850D01*
X266367Y353368D02*
X263324D01*
Y351506*
X266367*
Y353368*
X263500Y351506D02*
Y353368D01*
X263750Y351506D02*
Y353368D01*
X264000Y351506D02*
Y353368D01*
X264250Y351506D02*
Y353368D01*
X264500Y351506D02*
Y353368D01*
X264750Y351506D02*
Y353368D01*
X265000Y351506D02*
Y353368D01*
X265250Y351506D02*
Y353368D01*
X265500Y351506D02*
Y353368D01*
X265750Y351506D02*
Y353368D01*
X266000Y351506D02*
Y353368D01*
X266250Y351506D02*
Y353368D01*
X261839D02*
X258796D01*
Y351506*
X261839*
Y353368*
X259000Y351506D02*
Y353368D01*
X259250Y351506D02*
Y353368D01*
X259500Y351506D02*
Y353368D01*
X259750Y351506D02*
Y353368D01*
X260000Y351506D02*
Y353368D01*
X260250Y351506D02*
Y353368D01*
X260500Y351506D02*
Y353368D01*
X260750Y351506D02*
Y353368D01*
X261000Y351506D02*
Y353368D01*
X261250Y351506D02*
Y353368D01*
X261500Y351506D02*
Y353368D01*
X261750Y351506D02*
Y353368D01*
X270939D02*
X267896D01*
Y351506*
X270939*
Y353368*
X268000Y351506D02*
Y353368D01*
X268250Y351506D02*
Y353368D01*
X268500Y351506D02*
Y353368D01*
X268750Y351506D02*
Y353368D01*
X269000Y351506D02*
Y353368D01*
X269250Y351506D02*
Y353368D01*
X269500Y351506D02*
Y353368D01*
X269750Y351506D02*
Y353368D01*
X270000Y351506D02*
Y353368D01*
X270250Y351506D02*
Y353368D01*
X270500Y351506D02*
Y353368D01*
X270750Y351506D02*
Y353368D01*
X270939Y350018D02*
X267896D01*
Y348156*
X270939*
Y350018*
X268000Y348156D02*
Y350018D01*
X268250Y348156D02*
Y350018D01*
X268500Y348156D02*
Y350018D01*
X268750Y348156D02*
Y350018D01*
X269000Y348156D02*
Y350018D01*
X269250Y348156D02*
Y350018D01*
X269500Y348156D02*
Y350018D01*
X269750Y348156D02*
Y350018D01*
X270000Y348156D02*
Y350018D01*
X270250Y348156D02*
Y350018D01*
X270500Y348156D02*
Y350018D01*
X270750Y348156D02*
Y350018D01*
X266367D02*
X263324D01*
Y348156*
X266367*
Y350018*
X263500Y348156D02*
Y350018D01*
X263750Y348156D02*
Y350018D01*
X264000Y348156D02*
Y350018D01*
X264250Y348156D02*
Y350018D01*
X264500Y348156D02*
Y350018D01*
X264750Y348156D02*
Y350018D01*
X265000Y348156D02*
Y350018D01*
X265250Y348156D02*
Y350018D01*
X265500Y348156D02*
Y350018D01*
X265750Y348156D02*
Y350018D01*
X266000Y348156D02*
Y350018D01*
X266250Y348156D02*
Y350018D01*
X261839D02*
X258796D01*
Y348156*
X261839*
Y350018*
X259000Y348156D02*
Y350018D01*
X259250Y348156D02*
Y350018D01*
X259500Y348156D02*
Y350018D01*
X259750Y348156D02*
Y350018D01*
X260000Y348156D02*
Y350018D01*
X260250Y348156D02*
Y350018D01*
X260500Y348156D02*
Y350018D01*
X260750Y348156D02*
Y350018D01*
X261000Y348156D02*
Y350018D01*
X261250Y348156D02*
Y350018D01*
X261500Y348156D02*
Y350018D01*
X261750Y348156D02*
Y350018D01*
X266367Y356718D02*
X263324D01*
Y354856*
X266367*
Y356718*
X263500Y354856D02*
Y356718D01*
X263750Y354856D02*
Y356718D01*
X264000Y354856D02*
Y356718D01*
X264250Y354856D02*
Y356718D01*
X264500Y354856D02*
Y356718D01*
X264750Y354856D02*
Y356718D01*
X265000Y354856D02*
Y356718D01*
X265250Y354856D02*
Y356718D01*
X265500Y354856D02*
Y356718D01*
X265750Y354856D02*
Y356718D01*
X266000Y354856D02*
Y356718D01*
X266250Y354856D02*
Y356718D01*
X261839D02*
X258796D01*
Y354856*
X261839*
Y356718*
X259000Y354856D02*
Y356718D01*
X259250Y354856D02*
Y356718D01*
X259500Y354856D02*
Y356718D01*
X259750Y354856D02*
Y356718D01*
X260000Y354856D02*
Y356718D01*
X260250Y354856D02*
Y356718D01*
X260500Y354856D02*
Y356718D01*
X260750Y354856D02*
Y356718D01*
X261000Y354856D02*
Y356718D01*
X261250Y354856D02*
Y356718D01*
X261500Y354856D02*
Y356718D01*
X261750Y354856D02*
Y356718D01*
X270939D02*
X267896D01*
Y354856*
X270939*
Y356718*
X268000Y354856D02*
Y356718D01*
X268250Y354856D02*
Y356718D01*
X268500Y354856D02*
Y356718D01*
X268750Y354856D02*
Y356718D01*
X269000Y354856D02*
Y356718D01*
X269250Y354856D02*
Y356718D01*
X269500Y354856D02*
Y356718D01*
X269750Y354856D02*
Y356718D01*
X270000Y354856D02*
Y356718D01*
X270250Y354856D02*
Y356718D01*
X270500Y354856D02*
Y356718D01*
X270750Y354856D02*
Y356718D01*
X270939Y346618D02*
X267896D01*
Y344756*
X270939*
Y346618*
X268000Y344756D02*
Y346618D01*
X268250Y344756D02*
Y346618D01*
X268500Y344756D02*
Y346618D01*
X268750Y344756D02*
Y346618D01*
X269000Y344756D02*
Y346618D01*
X269250Y344756D02*
Y346618D01*
X269500Y344756D02*
Y346618D01*
X269750Y344756D02*
Y346618D01*
X270000Y344756D02*
Y346618D01*
X270250Y344756D02*
Y346618D01*
X270500Y344756D02*
Y346618D01*
X270750Y344756D02*
Y346618D01*
X266367D02*
X263324D01*
Y344756*
X266367*
Y346618*
X263500Y344756D02*
Y346618D01*
X263750Y344756D02*
Y346618D01*
X264000Y344756D02*
Y346618D01*
X264250Y344756D02*
Y346618D01*
X264500Y344756D02*
Y346618D01*
X264750Y344756D02*
Y346618D01*
X265000Y344756D02*
Y346618D01*
X265250Y344756D02*
Y346618D01*
X265500Y344756D02*
Y346618D01*
X265750Y344756D02*
Y346618D01*
X266000Y344756D02*
Y346618D01*
X266250Y344756D02*
Y346618D01*
X261839D02*
X258796D01*
Y344756*
X261839*
Y346618*
X259000Y344756D02*
Y346618D01*
X259250Y344756D02*
Y346618D01*
X259500Y344756D02*
Y346618D01*
X259750Y344756D02*
Y346618D01*
X260000Y344756D02*
Y346618D01*
X260250Y344756D02*
Y346618D01*
X260500Y344756D02*
Y346618D01*
X260750Y344756D02*
Y346618D01*
X261000Y344756D02*
Y346618D01*
X261250Y344756D02*
Y346618D01*
X261500Y344756D02*
Y346618D01*
X261750Y344756D02*
Y346618D01*
X273950Y362793D02*
X271750D01*
Y358650*
X273950*
Y362793*
X271750Y358650D02*
Y362793D01*
X272000Y358650D02*
Y362793D01*
X272250Y358650D02*
Y362793D01*
X272500Y358650D02*
Y362793D01*
X272750Y358650D02*
Y362793D01*
X273000Y358650D02*
Y362793D01*
X273250Y358650D02*
Y362793D01*
X273500Y358650D02*
Y362793D01*
X273750Y358650D02*
Y362793D01*
X268750D02*
X266538D01*
Y358650*
X268750*
Y362793*
X266750Y358650D02*
Y362793D01*
X267000Y358650D02*
Y362793D01*
X267250Y358650D02*
Y362793D01*
X267500Y358650D02*
Y362793D01*
X267750Y358650D02*
Y362793D01*
X268000Y358650D02*
Y362793D01*
X268250Y358650D02*
Y362793D01*
X268500Y358650D02*
Y362793D01*
X263450D02*
X261250D01*
Y358650*
X263450*
Y362793*
X261250Y358650D02*
Y362793D01*
X261500Y358650D02*
Y362793D01*
X261750Y358650D02*
Y362793D01*
X262000Y358650D02*
Y362793D01*
X262250Y358650D02*
Y362793D01*
X262500Y358650D02*
Y362793D01*
X262750Y358650D02*
Y362793D01*
X263000Y358650D02*
Y362793D01*
X263250Y358650D02*
Y362793D01*
X258150D02*
X256038D01*
Y358650*
X258150*
Y362793*
X256250Y358650D02*
Y362793D01*
X256500Y358650D02*
Y362793D01*
X256750Y358650D02*
Y362793D01*
X257000Y358650D02*
Y362793D01*
X257250Y358650D02*
Y362793D01*
X257500Y358650D02*
Y362793D01*
X257750Y358650D02*
Y362793D01*
X258000Y358650D02*
Y362793D01*
X176670Y178020D02*
X182490D01*
Y181630*
X176670*
Y178020*
X176750D02*
Y181630D01*
X177000Y178020D02*
Y181630D01*
X177250Y178020D02*
Y181630D01*
X177500Y178020D02*
Y181630D01*
X177750Y178020D02*
Y181630D01*
X178000Y178020D02*
Y181630D01*
X178250Y178020D02*
Y181630D01*
X178500Y178020D02*
Y181630D01*
X178750Y178020D02*
Y181630D01*
X179000Y178020D02*
Y181630D01*
X179250Y178020D02*
Y181630D01*
X179500Y178020D02*
Y181630D01*
X179750Y178020D02*
Y181630D01*
X180000Y178020D02*
Y181630D01*
X180250Y178020D02*
Y181630D01*
X180500Y178020D02*
Y181630D01*
X180750Y178020D02*
Y181630D01*
X181000Y178020D02*
Y181630D01*
X181250Y178020D02*
Y181630D01*
X181500Y178020D02*
Y181630D01*
X181750Y178020D02*
Y181630D01*
X182000Y178020D02*
Y181630D01*
X182250Y178020D02*
Y181630D01*
X184510Y172350D02*
X190340D01*
Y175990*
X184510*
Y172350*
X184750D02*
Y175990D01*
X185000Y172350D02*
Y175990D01*
X185250Y172350D02*
Y175990D01*
X185500Y172350D02*
Y175990D01*
X185750Y172350D02*
Y175990D01*
X186000Y172350D02*
Y175990D01*
X186250Y172350D02*
Y175990D01*
X186500Y172350D02*
Y175990D01*
X186750Y172350D02*
Y175990D01*
X187000Y172350D02*
Y175990D01*
X187250Y172350D02*
Y175990D01*
X187500Y172350D02*
Y175990D01*
X187750Y172350D02*
Y175990D01*
X188000Y172350D02*
Y175990D01*
X188250Y172350D02*
Y175990D01*
X188500Y172350D02*
Y175990D01*
X188750Y172350D02*
Y175990D01*
X189000Y172350D02*
Y175990D01*
X189250Y172350D02*
Y175990D01*
X189500Y172350D02*
Y175990D01*
X189750Y172350D02*
Y175990D01*
X190000Y172350D02*
Y175990D01*
X190250Y172350D02*
Y175990D01*
X184500Y178000D02*
X190340D01*
Y181630*
X184500*
Y178000*
Y181630*
X184750Y178000D02*
Y181630D01*
X185000Y178000D02*
Y181630D01*
X185250Y178000D02*
Y181630D01*
X185500Y178000D02*
Y181630D01*
X185750Y178000D02*
Y181630D01*
X186000Y178000D02*
Y181630D01*
X186250Y178000D02*
Y181630D01*
X186500Y178000D02*
Y181630D01*
X186750Y178000D02*
Y181630D01*
X187000Y178000D02*
Y181630D01*
X187250Y178000D02*
Y181630D01*
X187500Y178000D02*
Y181630D01*
X187750Y178000D02*
Y181630D01*
X188000Y178000D02*
Y181630D01*
X188250Y178000D02*
Y181630D01*
X188500Y178000D02*
Y181630D01*
X188750Y178000D02*
Y181630D01*
X189000Y178000D02*
Y181630D01*
X189250Y178000D02*
Y181630D01*
X189500Y178000D02*
Y181630D01*
X189750Y178000D02*
Y181630D01*
X190000Y178000D02*
Y181630D01*
X190250Y178000D02*
Y181630D01*
X176670Y172360D02*
X182490D01*
Y176010*
X176670*
Y172360*
X176750D02*
Y176010D01*
X177000Y172360D02*
Y176010D01*
X177250Y172360D02*
Y176010D01*
X177500Y172360D02*
Y176010D01*
X177750Y172360D02*
Y176010D01*
X178000Y172360D02*
Y176010D01*
X178250Y172360D02*
Y176010D01*
X178500Y172360D02*
Y176010D01*
X178750Y172360D02*
Y176010D01*
X179000Y172360D02*
Y176010D01*
X179250Y172360D02*
Y176010D01*
X179500Y172360D02*
Y176010D01*
X179750Y172360D02*
Y176010D01*
X180000Y172360D02*
Y176010D01*
X180250Y172360D02*
Y176010D01*
X180500Y172360D02*
Y176010D01*
X180750Y172360D02*
Y176010D01*
X181000Y172360D02*
Y176010D01*
X181250Y172360D02*
Y176010D01*
X181500Y172360D02*
Y176010D01*
X181750Y172360D02*
Y176010D01*
X182000Y172360D02*
Y176010D01*
X182250Y172360D02*
Y176010D01*
X100000Y100000D02*
X525000D01*
Y440000*
X100000*
Y100000*
G54D11*
X208500Y59063D02*
Y52500D01*
Y59063D02*
X210091D01*
X210091D02*
X210773Y58750D01*
X211227Y58125*
X211455Y57500*
X211682Y56563*
X211682D02*
Y55000D01*
X211455Y54063*
X211455D02*
X211227Y53438D01*
X211227D02*
X210773Y52813D01*
X210773D02*
X210091Y52500D01*
X208500*
X217136Y57500D02*
X216909Y58125D01*
X216455Y58750*
X216000Y59063*
X216000D02*
X215091D01*
X215091D02*
X214636Y58750D01*
X214182Y58125*
X213955Y57500*
X213727Y56563*
X213727D02*
Y55000D01*
X213955Y54063*
X213955D02*
X214182Y53438D01*
X214182D02*
X214636Y52813D01*
X214636D02*
X215091Y52500D01*
X216000*
X216455Y52813*
X216455D02*
X216909Y53438D01*
X216909D02*
X217136Y54063D01*
X219409Y57500D02*
Y57813D01*
X219409D02*
X219636Y58438D01*
X219636D02*
X219864Y58750D01*
X220318Y59063*
X220318D02*
X221227D01*
X221227D02*
X221682Y58750D01*
X221909Y58438*
X221909D02*
X222136Y57813D01*
X222136D02*
Y57188D01*
X222136D02*
X221909Y56563D01*
X221909D02*
X221455Y55625D01*
X219182Y52500*
X222364*
X227364Y59063D02*
X225091D01*
X225091D02*
X224864Y56250D01*
X225091Y56563*
X225091D02*
X225773Y56875D01*
X226455*
X227136Y56563*
X227136D02*
X227591Y55938D01*
X227591D02*
X227818Y55000D01*
X227591Y54375*
X227364Y53438*
X227364D02*
X226909Y52813D01*
X226909D02*
X226227Y52500D01*
X225545*
X224864Y52813*
X224864D02*
X224636Y53125D01*
X224409Y53750*
X232818Y56875D02*
X232591Y55938D01*
X232591D02*
X232136Y55313D01*
X232136D02*
X231455Y55000D01*
X231227*
X230545Y55313*
X230545D02*
X230091Y55938D01*
X230091D02*
X229864Y56875D01*
Y57188*
X229864D02*
X230091Y58125D01*
X230545Y58750*
X231227Y59063*
X231227D02*
X231455D01*
X231455D02*
X232136Y58750D01*
X232591Y58125*
X232818Y56875*
Y55313*
X232818D02*
X232591Y53750D01*
X232136Y52813*
X232136D02*
X231455Y52500D01*
X231000*
X230318Y52813*
X230318D02*
X230091Y53438D01*
X237591Y58125D02*
X237364Y58750D01*
X236682Y59063*
X236682D02*
X236227D01*
X236227D02*
X235545Y58750D01*
X235091Y57813*
X235091D02*
X234864Y56250D01*
Y54688*
X234864D02*
X235091Y53438D01*
X235091D02*
X235545Y52813D01*
X235545D02*
X236227Y52500D01*
X236455*
X237136Y52813*
X237136D02*
X237591Y53438D01*
X237591D02*
X237818Y54375D01*
Y54688*
X237818D02*
X237591Y55625D01*
X237136Y56250*
X236455Y56563*
X236455D02*
X236227D01*
X236227D02*
X235545Y56250D01*
X235091Y55625*
X234864Y54688*
X241682Y59063D02*
X239864Y52500D01*
X241682Y59063D02*
X243500Y52500D01*
X240545Y54688D02*
X242818D01*
X245545Y55313D02*
X249636D01*
X252136Y59063D02*
X254636D01*
X254636D02*
X253273Y56563D01*
X253273D02*
X253955D01*
X253955D02*
X254409Y56250D01*
X254636Y55938*
X254636D02*
X254864Y55000D01*
Y54375*
X254636Y53438*
X254636D02*
X254182Y52813D01*
X254182D02*
X253500Y52500D01*
X252818*
X252136Y52813*
X252136D02*
X251909Y53125D01*
X251682Y53750*
X257364Y52813D02*
X257136Y52500D01*
X256909Y52813*
X256909D02*
X257136Y53125D01*
X257364Y52813*
X257364D02*
Y52187D01*
X257364D02*
X257136Y51562D01*
X257136D02*
X256909Y51250D01*
X264636Y59063D02*
Y52500D01*
X267364*
X271000Y59063D02*
Y52500D01*
X269409Y59063D02*
X272591D01*
X275773D02*
X275091Y58750D01*
X274864Y58125*
Y57500*
X275091Y56875*
X275545Y56563*
X275545D02*
X276455Y56250D01*
X277136Y55938*
X277136D02*
X277591Y55313D01*
X277591D02*
X277818Y54688D01*
X277818D02*
Y53750D01*
X277591Y53125*
X277364Y52813*
X277364D02*
X276682Y52500D01*
X275773*
X275091Y52813*
X275091D02*
X274864Y53125D01*
X274636Y53750*
Y54688*
X274636D02*
X274864Y55313D01*
X274864D02*
X275318Y55938D01*
X275318D02*
X276000Y56250D01*
X276909Y56563*
X276909D02*
X277364Y56875D01*
X277591Y57500*
Y58125*
X277364Y58750*
X276682Y59063*
X276682D02*
X275773D01*
X283045D02*
X280773Y52500D01*
X279864Y59063D02*
X283045D01*
X286455D02*
X285773Y58750D01*
X285318Y57813*
X285318D02*
X285091Y56250D01*
Y55313*
X285091D02*
X285318Y53750D01*
X285773Y52813*
X285773D02*
X286455Y52500D01*
X286909*
X287591Y52813*
X287591D02*
X288045Y53750D01*
X288273Y55313*
X288273D02*
Y56250D01*
X288045Y57813*
X288045D02*
X287591Y58750D01*
X286909Y59063*
X286909D02*
X286455D01*
X291455D02*
X290773Y58750D01*
X290545Y58125*
Y57500*
X290773Y56875*
X291227Y56563*
X291227D02*
X292136Y56250D01*
X292818Y55938*
X292818D02*
X293273Y55313D01*
X293273D02*
X293500Y54688D01*
X293500D02*
Y53750D01*
X293273Y53125*
X293045Y52813*
X293045D02*
X292364Y52500D01*
X291455*
X290773Y52813*
X290773D02*
X290545Y53125D01*
X290318Y53750*
Y54688*
X290318D02*
X290545Y55313D01*
X290545D02*
X291000Y55938D01*
X291000D02*
X291682Y56250D01*
X292591Y56563*
X292591D02*
X293045Y56875D01*
X293273Y57500*
Y58125*
X293045Y58750*
X292364Y59063*
X292364D02*
X291455D01*
X295545D02*
Y52500D01*
Y59063D02*
X298500D01*
X295545Y55938D02*
X297364D01*
X295545Y52500D02*
X298500D01*
X300545Y59063D02*
Y54375D01*
X300773Y53438*
X300773D02*
X301227Y52813D01*
X301227D02*
X301909Y52500D01*
X302364*
X303045Y52813*
X303045D02*
X303500Y53438D01*
X303500D02*
X303727Y54375D01*
Y59063*
X305773D02*
Y52500D01*
X308955Y59063D02*
Y52500D01*
X305773Y55938D02*
X308955D01*
X314409Y57500D02*
X314182Y58125D01*
X313727Y58750*
X313273Y59063*
X313273D02*
X312364D01*
X312364D02*
X311909Y58750D01*
X311455Y58125*
X311227Y57500*
X311000Y56563*
X311000D02*
Y55000D01*
X311227Y54063*
X311227D02*
X311455Y53438D01*
X311455D02*
X311909Y52813D01*
X311909D02*
X312364Y52500D01*
X313273*
X313727Y52813*
X313727D02*
X314182Y53438D01*
X314182D02*
X314409Y54063D01*
X314409D02*
Y55000D01*
X313273D02*
X314409D01*
X323500Y71563D02*
Y65000D01*
Y71563D02*
X325091D01*
X325091D02*
X325773Y71250D01*
X326227Y70625*
X326455Y70000*
X326682Y69063*
X326682D02*
Y67500D01*
X326455Y66563*
X326455D02*
X326227Y65938D01*
X326227D02*
X325773Y65313D01*
X325773D02*
X325091Y65000D01*
X323500*
X330545Y71563D02*
X328727Y65000D01*
X330545Y71563D02*
X332364Y65000D01*
X329409Y67188D02*
X331682D01*
X336000Y71563D02*
Y65000D01*
X334409Y71563D02*
X337591D01*
X339636D02*
Y65000D01*
Y71563D02*
X342591D01*
X339636Y68438D02*
X341455D01*
X339636Y65000D02*
X342591D01*
X344864Y69375D02*
X344636Y69063D01*
X344636D02*
X344864Y68750D01*
X345091Y69063*
X345091D02*
X344864Y69375D01*
Y65625D02*
X344636Y65313D01*
X344636D02*
X344864Y65000D01*
X345091Y65313*
X345091D02*
X344864Y65625D01*
X208500Y71563D02*
Y65000D01*
X211227*
X213273Y71563D02*
Y65000D01*
X215318Y71563D02*
Y65000D01*
Y71563D02*
X218500Y65000D01*
Y71563D02*
Y65000D01*
X220545Y71563D02*
Y65000D01*
Y71563D02*
X223500D01*
X220545Y68438D02*
X222364D01*
X220545Y65000D02*
X223500D01*
X227364Y71563D02*
X225545Y65000D01*
X227364Y71563D02*
X229182Y65000D01*
X226227Y67188D02*
X228500D01*
X231227Y71563D02*
Y65000D01*
Y71563D02*
X233273D01*
X233273D02*
X233955Y71250D01*
X234182Y70938*
X234182D02*
X234409Y70313D01*
X234409D02*
Y69688D01*
X234409D02*
X234182Y69063D01*
X234182D02*
X233955Y68750D01*
X233273Y68438*
X233273D02*
X231227D01*
X232818D02*
X234409Y65000D01*
X243273Y71563D02*
Y65000D01*
X241682Y71563D02*
X244864D01*
X246909D02*
Y65000D01*
Y71563D02*
X249864D01*
X246909Y68438D02*
X248727D01*
X246909Y65000D02*
X249864D01*
X255318Y70000D02*
X255091Y70625D01*
X254636Y71250*
X254182Y71563*
X254182D02*
X253273D01*
X253273D02*
X252818Y71250D01*
X252364Y70625*
X252136Y70000*
X251909Y69063*
X251909D02*
Y67500D01*
X252136Y66563*
X252136D02*
X252364Y65938D01*
X252364D02*
X252818Y65313D01*
X252818D02*
X253273Y65000D01*
X254182*
X254636Y65313*
X254636D02*
X255091Y65938D01*
X255091D02*
X255318Y66563D01*
X257364Y71563D02*
Y65000D01*
X260545Y71563D02*
Y65000D01*
X257364Y68438D02*
X260545D01*
X262591Y71563D02*
Y65000D01*
Y71563D02*
X265773Y65000D01*
Y71563D02*
Y65000D01*
X269182Y71563D02*
X268727Y71250D01*
X268273Y70625*
X268045Y70000*
X267818Y69063*
X267818D02*
Y67500D01*
X268045Y66563*
X268045D02*
X268273Y65938D01*
X268273D02*
X268727Y65313D01*
X268727D02*
X269182Y65000D01*
X270091*
X270545Y65313*
X270545D02*
X271000Y65938D01*
X271000D02*
X271227Y66563D01*
X271227D02*
X271455Y67500D01*
Y69063*
X271455D02*
X271227Y70000D01*
X271000Y70625*
X270545Y71250*
X270091Y71563*
X270091D02*
X269182D01*
X273500D02*
Y65000D01*
X276227*
X279636Y71563D02*
X279182Y71250D01*
X278727Y70625*
X278500Y70000*
X278273Y69063*
X278273D02*
Y67500D01*
X278500Y66563*
X278500D02*
X278727Y65938D01*
X278727D02*
X279182Y65313D01*
X279182D02*
X279636Y65000D01*
X280545*
X281000Y65313*
X281000D02*
X281455Y65938D01*
X281455D02*
X281682Y66563D01*
X281682D02*
X281909Y67500D01*
Y69063*
X281909D02*
X281682Y70000D01*
X281455Y70625*
X281000Y71250*
X280545Y71563*
X280545D02*
X279636D01*
X287364Y70000D02*
X287136Y70625D01*
X286682Y71250*
X286227Y71563*
X286227D02*
X285318D01*
X285318D02*
X284864Y71250D01*
X284409Y70625*
X284182Y70000*
X283955Y69063*
X283955D02*
Y67500D01*
X284182Y66563*
X284182D02*
X284409Y65938D01*
X284409D02*
X284864Y65313D01*
X284864D02*
X285318Y65000D01*
X286227*
X286682Y65313*
X286682D02*
X287136Y65938D01*
X287136D02*
X287364Y66563D01*
X287364D02*
Y67500D01*
X286227D02*
X287364D01*
X289409Y71563D02*
X291227Y68438D01*
X291227D02*
Y65000D01*
X293045Y71563D02*
X291227Y68438D01*
X210091Y84063D02*
Y77500D01*
X208500Y84063D02*
X211682D01*
X215091D02*
X214636Y83750D01*
X214182Y83125*
X213955Y82500*
X213727Y81563*
X213727D02*
Y80000D01*
X213955Y79063*
X213955D02*
X214182Y78438D01*
X214182D02*
X214636Y77813D01*
X214636D02*
X215091Y77500D01*
X216000*
X216455Y77813*
X216455D02*
X216909Y78438D01*
X216909D02*
X217136Y79063D01*
X217136D02*
X217364Y80000D01*
Y81563*
X217364D02*
X217136Y82500D01*
X216909Y83125*
X216455Y83750*
X216000Y84063*
X216000D02*
X215091D01*
X219409D02*
Y77500D01*
Y84063D02*
X221455D01*
X221455D02*
X222136Y83750D01*
X222364Y83438*
X222364D02*
X222591Y82813D01*
X222591D02*
Y81875D01*
X222364Y81250*
X222136Y80938*
X222136D02*
X221455Y80625D01*
X219409*
X233045Y83125D02*
X232591Y83750D01*
X231909Y84063*
X231909D02*
X231000D01*
X231000D02*
X230318Y83750D01*
X229864Y83125*
Y82500*
X230091Y81875*
X230318Y81563*
X230318D02*
X230773Y81250D01*
X232136Y80625*
X232591Y80313*
X232591D02*
X232818Y80000D01*
X233045Y79375*
Y78438*
X233045D02*
X232591Y77813D01*
X232591D02*
X231909Y77500D01*
X231000*
X230318Y77813*
X230318D02*
X229864Y78438D01*
X236455Y84063D02*
X236000Y83750D01*
X235545Y83125*
X235318Y82500*
X235091Y81563*
X235091D02*
Y80000D01*
X235318Y79063*
X235318D02*
X235545Y78438D01*
X235545D02*
X236000Y77813D01*
X236000D02*
X236455Y77500D01*
X237364*
X237818Y77813*
X237818D02*
X238273Y78438D01*
X238273D02*
X238500Y79063D01*
X238500D02*
X238727Y80000D01*
Y81563*
X238727D02*
X238500Y82500D01*
X238273Y83125*
X237818Y83750*
X237364Y84063*
X237364D02*
X236455D01*
X240773D02*
Y77500D01*
X243500*
X245545Y84063D02*
Y77500D01*
Y84063D02*
X247136D01*
X247136D02*
X247818Y83750D01*
X248273Y83125*
X248500Y82500*
X248727Y81563*
X248727D02*
Y80000D01*
X248500Y79063*
X248500D02*
X248273Y78438D01*
X248273D02*
X247818Y77813D01*
X247818D02*
X247136Y77500D01*
X245545*
X250773Y84063D02*
Y77500D01*
Y84063D02*
X253727D01*
X250773Y80938D02*
X252591D01*
X250773Y77500D02*
X253727D01*
X255773Y84063D02*
Y77500D01*
Y84063D02*
X257818D01*
X257818D02*
X258500Y83750D01*
X258727Y83438*
X258727D02*
X258955Y82813D01*
X258955D02*
Y82188D01*
X258955D02*
X258727Y81563D01*
X258727D02*
X258500Y81250D01*
X257818Y80938*
X257818D02*
X255773D01*
X257364D02*
X258955Y77500D01*
X266227Y84063D02*
Y77500D01*
Y84063D02*
X268273D01*
X268273D02*
X268955Y83750D01*
X269182Y83438*
X269182D02*
X269409Y82813D01*
X269409D02*
Y81875D01*
X269182Y81250*
X268955Y80938*
X268955D02*
X268273Y80625D01*
X266227*
X273273Y84063D02*
X271455Y77500D01*
X273273Y84063D02*
X275091Y77500D01*
X272136Y79688D02*
X274409D01*
X280318Y83125D02*
X279864Y83750D01*
X279182Y84063*
X279182D02*
X278273D01*
X278273D02*
X277591Y83750D01*
X277136Y83125*
Y82500*
X277364Y81875*
X277591Y81563*
X277591D02*
X278045Y81250D01*
X279409Y80625*
X279864Y80313*
X279864D02*
X280091Y80000D01*
X280318Y79375*
Y78438*
X280318D02*
X279864Y77813D01*
X279864D02*
X279182Y77500D01*
X278273*
X277591Y77813*
X277591D02*
X277136Y78438D01*
X283955Y84063D02*
Y77500D01*
X282364Y84063D02*
X285545D01*
X287591D02*
Y77500D01*
Y84063D02*
X290545D01*
X287591Y80938D02*
X289409D01*
X287591Y77500D02*
X290545D01*
X354182Y71563D02*
X351909Y65000D01*
X351000Y71563D02*
X354182D01*
X356227Y67813D02*
X360318D01*
X365091Y70625D02*
X364864Y71250D01*
X364182Y71563*
X364182D02*
X363727D01*
X363727D02*
X363045Y71250D01*
X362591Y70313*
X362591D02*
X362364Y68750D01*
Y67188*
X362364D02*
X362591Y65938D01*
X362591D02*
X363045Y65313D01*
X363045D02*
X363727Y65000D01*
X363955*
X364636Y65313*
X364636D02*
X365091Y65938D01*
X365091D02*
X365318Y66875D01*
Y67188*
X365318D02*
X365091Y68125D01*
X364636Y68750*
X363955Y69063*
X363955D02*
X363727D01*
X363727D02*
X363045Y68750D01*
X362591Y68125*
X362364Y67188*
X367364Y67813D02*
X371455D01*
X373500Y70313D02*
X373955Y70625D01*
X374636Y71563*
X374636D02*
Y65000D01*
X379864Y71563D02*
X377591Y65000D01*
X376682Y71563D02*
X379864D01*
G54D12*
X294450Y182950D02*
X298550D01*
Y186550*
X294450*
Y182950*
X294700D02*
Y186550D01*
X295100Y182950D02*
Y186550D01*
X295500Y182950D02*
Y186550D01*
X295900Y182950D02*
Y186550D01*
X296300Y182950D02*
Y186550D01*
X296700Y182950D02*
Y186550D01*
X297100Y182950D02*
Y186550D01*
X297500Y182950D02*
Y186550D01*
X297900Y182950D02*
Y186550D01*
X298300Y182950D02*
Y186550D01*
X288450Y182950D02*
X292550D01*
Y186550*
X288450*
Y182950*
X288700D02*
Y186550D01*
X289100Y182950D02*
Y186550D01*
X289500Y182950D02*
Y186550D01*
X289900Y182950D02*
Y186550D01*
X290300Y182950D02*
Y186550D01*
X290700Y182950D02*
Y186550D01*
X291100Y182950D02*
Y186550D01*
X291500Y182950D02*
Y186550D01*
X291900Y182950D02*
Y186550D01*
X292300Y182950D02*
Y186550D01*
X288450Y188450D02*
X292550D01*
Y192050*
X288450*
Y188450*
X288700D02*
Y192050D01*
X289100Y188450D02*
Y192050D01*
X289500Y188450D02*
Y192050D01*
X289900Y188450D02*
Y192050D01*
X290300Y188450D02*
Y192050D01*
X290700Y188450D02*
Y192050D01*
X291100Y188450D02*
Y192050D01*
X291500Y188450D02*
Y192050D01*
X291900Y188450D02*
Y192050D01*
X292300Y188450D02*
Y192050D01*
X294450Y188450D02*
X298550D01*
Y192050*
X294450*
Y188450*
X294700D02*
Y192050D01*
X295100Y188450D02*
Y192050D01*
X295500Y188450D02*
Y192050D01*
X295900Y188450D02*
Y192050D01*
X296300Y188450D02*
Y192050D01*
X296700Y188450D02*
Y192050D01*
X297100Y188450D02*
Y192050D01*
X297500Y188450D02*
Y192050D01*
X297900Y188450D02*
Y192050D01*
X298300Y188450D02*
Y192050D01*
X294450Y193950D02*
X298550D01*
Y197550*
X294450*
Y193950*
X294700D02*
Y197550D01*
X295100Y193950D02*
Y197550D01*
X295500Y193950D02*
Y197550D01*
X295900Y193950D02*
Y197550D01*
X296300Y193950D02*
Y197550D01*
X296700Y193950D02*
Y197550D01*
X297100Y193950D02*
Y197550D01*
X297500Y193950D02*
Y197550D01*
X297900Y193950D02*
Y197550D01*
X298300Y193950D02*
Y197550D01*
X288450Y193950D02*
X292550D01*
Y197550*
X288450*
Y193950*
X288700D02*
Y197550D01*
X289100Y193950D02*
Y197550D01*
X289500Y193950D02*
Y197550D01*
X289900Y193950D02*
Y197550D01*
X290300Y193950D02*
Y197550D01*
X290700Y193950D02*
Y197550D01*
X291100Y193950D02*
Y197550D01*
X291500Y193950D02*
Y197550D01*
X291900Y193950D02*
Y197550D01*
X292300Y193950D02*
Y197550D01*
X288450Y199450D02*
X292550D01*
Y203050*
X288450*
Y199450*
X288700D02*
Y203050D01*
X289100Y199450D02*
Y203050D01*
X289500Y199450D02*
Y203050D01*
X289900Y199450D02*
Y203050D01*
X290300Y199450D02*
Y203050D01*
X290700Y199450D02*
Y203050D01*
X291100Y199450D02*
Y203050D01*
X291500Y199450D02*
Y203050D01*
X291900Y199450D02*
Y203050D01*
X292300Y199450D02*
Y203050D01*
X294450Y199450D02*
X298550D01*
Y203050*
X294450*
Y199450*
X294700D02*
Y203050D01*
X295100Y199450D02*
Y203050D01*
X295500Y199450D02*
Y203050D01*
X295900Y199450D02*
Y203050D01*
X296300Y199450D02*
Y203050D01*
X296700Y199450D02*
Y203050D01*
X297100Y199450D02*
Y203050D01*
X297500Y199450D02*
Y203050D01*
X297900Y199450D02*
Y203050D01*
X298300Y199450D02*
Y203050D01*
G54D30*
X275000Y211700D03*
Y205300D03*
X288700Y216500D03*
X282300D03*
X320800Y193500D03*
X327200D03*
X320800Y184500D03*
X327200D03*
X294800Y216500D03*
X301200D03*
X296000Y164700D03*
Y158300D03*
X336800Y184500D03*
X343200D03*
X336800Y189000D03*
X343200D03*
X301500Y227800D03*
Y234200D03*
X279000Y227800D03*
Y234200D03*
X288000Y227800D03*
Y234200D03*
X297000Y227800D03*
Y234200D03*
X257700Y230500D03*
X251300D03*
X320800Y189000D03*
X327200D03*
X320800Y180000D03*
X327200D03*
X237300Y197500D03*
X243700D03*
X343200Y180000D03*
X336800D03*
X313000Y210700D03*
Y204300D03*
X343200Y193500D03*
X336800D03*
X348500Y193700D03*
Y187300D03*
X291000Y143800D03*
Y150200D03*
X321300Y154500D03*
X327700D03*
X345500Y144300D03*
Y150700D03*
X213800Y155500D03*
X220200D03*
Y174500D03*
X213800D03*
X266200Y169000D03*
X259800D03*
X306800Y220000D03*
X313200D03*
X266200Y192000D03*
X259800D03*
X306800Y215500D03*
X313200D03*
X340000Y150700D03*
Y144300D03*
X342300Y218500D03*
X348700D03*
X172500Y136700D03*
Y130300D03*
X280000Y150200D03*
Y143800D03*
X189000Y203200D03*
Y196800D03*
X226300Y162000D03*
X232700D03*
X237500Y167700D03*
Y161300D03*
X172700Y155500D03*
X166300D03*
X166500Y196800D03*
Y203200D03*
X171000D03*
Y196800D03*
X166500Y164800D03*
Y171200D03*
X172700Y160000D03*
X166300D03*
X180000Y203200D03*
Y196800D03*
X233700Y154000D03*
X227300D03*
X254700Y206500D03*
X248300D03*
X327200Y216500D03*
X320800D03*
Y225500D03*
X327200D03*
X267700Y186500D03*
X261300D03*
X243700Y202000D03*
X237300D03*
X327200Y230500D03*
X320800D03*
X327200Y207000D03*
X320800D03*
Y202500D03*
X327200D03*
X251200Y176000D03*
X244800D03*
Y180500D03*
X251200D03*
X302700Y150500D03*
X296300D03*
X342300Y206500D03*
X348700D03*
X254700Y202000D03*
X248300D03*
X259800D03*
X266200D03*
X276700Y193500D03*
X270300D03*
X332000Y219800D03*
Y226200D03*
X274500Y143800D03*
Y150200D03*
X308000D03*
Y143800D03*
X327700Y144500D03*
X321300D03*
X286000Y143800D03*
Y150200D03*
X313000Y143800D03*
Y150200D03*
X269500D03*
Y143800D03*
X334500Y144300D03*
Y150700D03*
X254000Y143800D03*
Y150200D03*
X258500Y143800D03*
Y150200D03*
X249000Y143800D03*
Y150200D03*
X244500Y143800D03*
Y150200D03*
X233700Y149000D03*
X227300D03*
X240000Y143800D03*
Y150200D03*
X233700Y144000D03*
X227300D03*
X266200Y159000D03*
X259800D03*
X309300Y162500D03*
X315700D03*
X432000Y149200D03*
Y142800D03*
X437500Y149200D03*
Y142800D03*
X443000Y149200D03*
Y142800D03*
X430800Y155000D03*
X437200D03*
X195700Y160500D03*
X189300D03*
X184800Y155500D03*
X191200D03*
X272000Y174700D03*
Y168300D03*
Y180300D03*
Y186700D03*
X342300Y200500D03*
X348700D03*
X342300Y212500D03*
X348700D03*
X302700Y145500D03*
X296300D03*
X321300Y149500D03*
X327700D03*
X240500Y181200D03*
Y174800D03*
X333000Y207700D03*
Y201300D03*
X226300Y166500D03*
X232700D03*
X266200Y197000D03*
X259800D03*
G54D33*
X220400Y162250D03*
Y169750D03*
G54D81*
G54D96*
X171250Y147500D03*
X157750D03*
X197250Y197500D03*
X210750D03*
G54D225*
X303500Y168500D03*
Y161500D03*
G54D232*
X212400Y166000D03*
G54D233*
X265500Y214500D03*
X250500D03*
X265500Y223000D03*
X250500D03*
G54D235*
X280000Y169500D03*
Y157500D03*
X289000Y169500D03*
Y157500D03*
G54D313*
X292500Y390000D03*
Y403000D03*
G54D335*
X185083Y224500D03*
X156917D03*
G54D339*
X272500Y293500D03*
X267500D03*
X262500D03*
X257500D03*
Y369000D03*
X262500D03*
X267500D03*
X272500D03*
Y324000D03*
X267500D03*
X262500D03*
X257500D03*
Y338500D03*
X262500D03*
X267500D03*
X272500D03*
G54D342*
X201000Y228500D03*
Y220500D03*
G54D343*
X211039Y228500D03*
Y220500D03*
G54D344*
X461661Y229500D03*
X494339D03*
X461661Y333000D03*
X494339D03*
G54D345*
X407000Y251661D03*
Y284339D03*
Y226839D03*
Y194161D03*
Y369661D03*
Y402339D03*
Y344839D03*
Y312161D03*
G54D350*
X195016Y187945D03*
X189898D03*
X184780D03*
X182220D03*
X179661D03*
X177102D03*
X174543D03*
X171984D03*
Y166055D03*
X174543D03*
X177102D03*
X179661D03*
X182220D03*
X184780D03*
X189898D03*
X195016D03*
G54D352*
X181000Y139500D03*
X204000D03*
G54D353*
X322000Y377327D03*
Y355673D03*
X321500Y283173D03*
Y304827D03*
X293000Y283173D03*
Y304827D03*
X292500Y377327D03*
Y355673D03*
G54D354*
X314000Y258500D03*
X301000D03*
X307500Y330500D03*
X294500D03*
G54D362*
X302949Y180205D03*
Y182173D03*
Y184142D03*
Y186110D03*
Y188079D03*
Y190047D03*
Y192016D03*
Y193984D03*
Y195953D03*
Y197921D03*
Y199890D03*
Y201858D03*
Y203827D03*
Y205795D03*
X284051D03*
Y203827D03*
Y201858D03*
Y198906D03*
Y196937D03*
Y194969D03*
Y193000D03*
Y190047D03*
Y187094D03*
Y185126D03*
Y182173D03*
Y180205D03*
G54D363*
X300390Y208354D03*
X298421D03*
X296453D03*
X294484D03*
X290547D03*
X288579D03*
X286610D03*
Y177646D03*
X290547D03*
X292516D03*
X294484D03*
X296453D03*
X298421D03*
X300390D03*
G54D365*
X195000Y311634D03*
Y353366D03*
X0Y0D02*
M02*
