G04 Layer_Color=65535*
%FSLAX43Y43*%
%MOMM*%
G71*
G01*
G75*
%ADD66C,0.100*%
%ADD82R,8.000X2.500*%
%ADD83C,1.200*%
%ADD84R,1.100X0.740*%
%ADD85R,0.660X0.610*%
%ADD86R,1.300X0.500*%
%ADD87R,0.430X0.525*%
%ADD88R,0.525X0.430*%
%ADD89R,0.740X1.100*%
%ADD90R,0.740X0.990*%
%ADD91R,0.610X0.660*%
%ADD92R,0.990X0.740*%
%ADD93R,0.900X1.050*%
%ADD94R,0.900X0.900*%
%ADD95R,0.610X0.800*%
%ADD96R,1.500X1.000*%
%ADD97R,0.800X0.610*%
%ADD98R,1.160X0.640*%
%ADD99R,1.100X1.500*%
%ADD100R,1.500X1.880*%
%ADD101R,1.000X1.500*%
%ADD102R,2.890X0.840*%
%ADD103R,0.500X1.450*%
%ADD104R,1.600X2.000*%
%ADD105R,0.850X0.950*%
%ADD106R,1.100X1.900*%
%ADD107R,0.650X0.900*%
%ADD108R,0.350X0.700*%
%ADD109R,0.600X0.550*%
%ADD110R,1.800X2.600*%
%ADD111R,1.800X0.400*%
%ADD112R,0.400X1.800*%
G04:AMPARAMS|DCode=113|XSize=1.1mm|YSize=2.6mm|CornerRadius=0mm|HoleSize=0mm|Usage=FLASHONLY|Rotation=225.000|XOffset=0mm|YOffset=0mm|HoleType=Round|Shape=Rectangle|*
%AMROTATEDRECTD113*
4,1,4,-0.530,1.308,1.308,-0.530,0.530,-1.308,-1.308,0.530,-0.530,1.308,0.0*
%
%ADD113ROTATEDRECTD113*%

G04:AMPARAMS|DCode=114|XSize=1.1mm|YSize=2.6mm|CornerRadius=0mm|HoleSize=0mm|Usage=FLASHONLY|Rotation=135.000|XOffset=0mm|YOffset=0mm|HoleType=Round|Shape=Rectangle|*
%AMROTATEDRECTD114*
4,1,4,1.308,0.530,-0.530,-1.308,-1.308,-0.530,0.530,1.308,1.308,0.530,0.0*
%
%ADD114ROTATEDRECTD114*%

%ADD115R,0.700X1.400*%
%ADD116C,0.350*%
%ADD117R,0.900X0.900*%
%ADD118R,1.200X1.600*%
%ADD119R,1.500X1.100*%
%ADD120R,1.100X1.100*%
%ADD121R,1.750X1.600*%
%ADD122R,1.750X3.600*%
%ADD123R,2.260X1.620*%
%ADD124C,3.300*%
%ADD125C,1.950*%
%ADD126R,1.950X1.950*%
%ADD127R,1.950X1.950*%
%ADD128C,1.290*%
%ADD129C,1.070*%
%ADD130C,1.600*%
%ADD131O,1.300X2.000*%
%ADD132C,1.100*%
G36*
X42466Y-11655D02*
X42488D01*
X42541Y-11661D01*
X42599Y-11669D01*
X42660Y-11683D01*
X42727Y-11700D01*
X42790Y-11722D01*
X42793D01*
X42799Y-11725D01*
X42807Y-11727D01*
X42818Y-11733D01*
X42849Y-11750D01*
X42888Y-11769D01*
X42929Y-11797D01*
X42974Y-11830D01*
X43015Y-11866D01*
X43054Y-11911D01*
X43060Y-11916D01*
X43071Y-11933D01*
X43088Y-11958D01*
X43110Y-11994D01*
X43132Y-12038D01*
X43157Y-12094D01*
X43182Y-12155D01*
X43201Y-12224D01*
X42971Y-12286D01*
Y-12283D01*
X42968Y-12280D01*
X42965Y-12272D01*
X42963Y-12261D01*
X42954Y-12236D01*
X42943Y-12202D01*
X42926Y-12163D01*
X42907Y-12127D01*
X42888Y-12088D01*
X42863Y-12055D01*
X42860Y-12052D01*
X42852Y-12041D01*
X42835Y-12027D01*
X42815Y-12008D01*
X42790Y-11986D01*
X42757Y-11963D01*
X42721Y-11941D01*
X42679Y-11922D01*
X42674Y-11919D01*
X42660Y-11914D01*
X42635Y-11905D01*
X42602Y-11894D01*
X42563Y-11886D01*
X42518Y-11877D01*
X42468Y-11872D01*
X42416Y-11869D01*
X42385D01*
X42371Y-11872D01*
X42355D01*
X42313Y-11875D01*
X42266Y-11883D01*
X42213Y-11891D01*
X42163Y-11905D01*
X42113Y-11925D01*
X42107Y-11927D01*
X42091Y-11933D01*
X42069Y-11947D01*
X42041Y-11961D01*
X42008Y-11983D01*
X41971Y-12005D01*
X41938Y-12033D01*
X41908Y-12063D01*
X41905Y-12066D01*
X41894Y-12077D01*
X41880Y-12097D01*
X41863Y-12119D01*
X41844Y-12147D01*
X41824Y-12180D01*
X41805Y-12216D01*
X41785Y-12255D01*
Y-12258D01*
X41783Y-12263D01*
X41780Y-12272D01*
X41774Y-12286D01*
X41769Y-12302D01*
X41763Y-12322D01*
X41755Y-12344D01*
X41749Y-12369D01*
X41735Y-12427D01*
X41724Y-12494D01*
X41716Y-12563D01*
X41713Y-12641D01*
Y-12644D01*
Y-12652D01*
Y-12666D01*
X41716Y-12683D01*
Y-12705D01*
X41719Y-12732D01*
X41722Y-12760D01*
X41724Y-12791D01*
X41735Y-12860D01*
X41749Y-12932D01*
X41772Y-13005D01*
X41799Y-13074D01*
Y-13077D01*
X41805Y-13082D01*
X41808Y-13091D01*
X41816Y-13102D01*
X41835Y-13132D01*
X41866Y-13171D01*
X41902Y-13213D01*
X41946Y-13254D01*
X41999Y-13293D01*
X42058Y-13329D01*
X42060D01*
X42066Y-13332D01*
X42074Y-13338D01*
X42088Y-13343D01*
X42102Y-13349D01*
X42121Y-13354D01*
X42166Y-13371D01*
X42221Y-13385D01*
X42282Y-13399D01*
X42349Y-13410D01*
X42418Y-13413D01*
X42446D01*
X42463Y-13410D01*
X42480D01*
X42521Y-13404D01*
X42571Y-13399D01*
X42624Y-13388D01*
X42682Y-13371D01*
X42740Y-13352D01*
X42743D01*
X42749Y-13349D01*
X42754Y-13346D01*
X42765Y-13340D01*
X42796Y-13327D01*
X42829Y-13310D01*
X42868Y-13291D01*
X42910Y-13268D01*
X42949Y-13243D01*
X42982Y-13216D01*
Y-12855D01*
X42416D01*
Y-12627D01*
X43232D01*
Y-13340D01*
X43229Y-13343D01*
X43224Y-13346D01*
X43212Y-13354D01*
X43199Y-13365D01*
X43182Y-13377D01*
X43162Y-13390D01*
X43137Y-13407D01*
X43112Y-13424D01*
X43054Y-13460D01*
X42988Y-13499D01*
X42918Y-13535D01*
X42843Y-13565D01*
X42840D01*
X42835Y-13568D01*
X42824Y-13571D01*
X42810Y-13576D01*
X42790Y-13582D01*
X42768Y-13590D01*
X42743Y-13596D01*
X42718Y-13601D01*
X42657Y-13615D01*
X42588Y-13629D01*
X42513Y-13638D01*
X42435Y-13640D01*
X42407D01*
X42388Y-13638D01*
X42363D01*
X42332Y-13635D01*
X42299Y-13629D01*
X42263Y-13626D01*
X42182Y-13610D01*
X42096Y-13590D01*
X42008Y-13560D01*
X41963Y-13543D01*
X41919Y-13521D01*
X41916Y-13518D01*
X41908Y-13515D01*
X41896Y-13507D01*
X41880Y-13499D01*
X41860Y-13485D01*
X41841Y-13471D01*
X41788Y-13432D01*
X41733Y-13382D01*
X41674Y-13321D01*
X41619Y-13252D01*
X41569Y-13171D01*
Y-13168D01*
X41563Y-13160D01*
X41558Y-13149D01*
X41549Y-13129D01*
X41541Y-13110D01*
X41533Y-13082D01*
X41522Y-13055D01*
X41511Y-13021D01*
X41500Y-12985D01*
X41488Y-12943D01*
X41480Y-12902D01*
X41472Y-12857D01*
X41458Y-12760D01*
X41452Y-12658D01*
Y-12655D01*
Y-12644D01*
Y-12630D01*
X41455Y-12610D01*
Y-12585D01*
X41458Y-12555D01*
X41463Y-12524D01*
X41466Y-12488D01*
X41475Y-12449D01*
X41480Y-12408D01*
X41502Y-12319D01*
X41530Y-12227D01*
X41569Y-12136D01*
X41572Y-12133D01*
X41574Y-12125D01*
X41580Y-12113D01*
X41591Y-12097D01*
X41602Y-12075D01*
X41616Y-12052D01*
X41655Y-12000D01*
X41702Y-11938D01*
X41760Y-11880D01*
X41827Y-11822D01*
X41866Y-11797D01*
X41905Y-11772D01*
X41908Y-11769D01*
X41916Y-11766D01*
X41927Y-11761D01*
X41944Y-11752D01*
X41966Y-11744D01*
X41991Y-11733D01*
X42019Y-11722D01*
X42052Y-11711D01*
X42088Y-11700D01*
X42127Y-11691D01*
X42169Y-11680D01*
X42213Y-11672D01*
X42310Y-11658D01*
X42360Y-11653D01*
X42449D01*
X42466Y-11655D01*
D02*
G37*
G36*
X1860Y-12186D02*
X1885Y-12188D01*
X1912Y-12194D01*
X1943Y-12199D01*
X1979Y-12205D01*
X2054Y-12230D01*
X2093Y-12244D01*
X2132Y-12263D01*
X2171Y-12283D01*
X2209Y-12311D01*
X2245Y-12338D01*
X2282Y-12372D01*
X2284Y-12374D01*
X2290Y-12380D01*
X2298Y-12391D01*
X2309Y-12405D01*
X2323Y-12424D01*
X2340Y-12449D01*
X2356Y-12477D01*
X2373Y-12508D01*
X2390Y-12541D01*
X2406Y-12583D01*
X2423Y-12624D01*
X2437Y-12671D01*
X2448Y-12721D01*
X2456Y-12774D01*
X2462Y-12830D01*
X2465Y-12891D01*
Y-12894D01*
Y-12902D01*
Y-12916D01*
Y-12935D01*
X2462Y-12957D01*
X2459Y-12985D01*
Y-13013D01*
X2454Y-13043D01*
X2445Y-13113D01*
X2429Y-13182D01*
X2409Y-13252D01*
X2381Y-13316D01*
Y-13318D01*
X2379Y-13321D01*
X2373Y-13329D01*
X2368Y-13340D01*
X2348Y-13368D01*
X2323Y-13402D01*
X2290Y-13440D01*
X2248Y-13479D01*
X2201Y-13518D01*
X2146Y-13554D01*
X2143D01*
X2140Y-13557D01*
X2132Y-13563D01*
X2118Y-13568D01*
X2104Y-13574D01*
X2087Y-13579D01*
X2046Y-13596D01*
X1998Y-13610D01*
X1940Y-13624D01*
X1879Y-13635D01*
X1812Y-13638D01*
X1785D01*
X1762Y-13635D01*
X1737Y-13632D01*
X1710Y-13626D01*
X1676Y-13621D01*
X1643Y-13615D01*
X1568Y-13593D01*
X1526Y-13576D01*
X1488Y-13560D01*
X1449Y-13538D01*
X1410Y-13513D01*
X1374Y-13485D01*
X1338Y-13452D01*
X1335Y-13449D01*
X1329Y-13443D01*
X1321Y-13432D01*
X1310Y-13415D01*
X1296Y-13396D01*
X1282Y-13374D01*
X1265Y-13346D01*
X1249Y-13313D01*
X1232Y-13277D01*
X1215Y-13235D01*
X1202Y-13191D01*
X1188Y-13143D01*
X1177Y-13091D01*
X1168Y-13035D01*
X1163Y-12974D01*
X1160Y-12910D01*
Y-12905D01*
Y-12894D01*
X1163Y-12874D01*
Y-12846D01*
X1166Y-12816D01*
X1171Y-12777D01*
X1177Y-12738D01*
X1188Y-12694D01*
X1199Y-12649D01*
X1213Y-12602D01*
X1229Y-12552D01*
X1252Y-12505D01*
X1274Y-12460D01*
X1304Y-12416D01*
X1335Y-12374D01*
X1374Y-12338D01*
X1377Y-12335D01*
X1382Y-12333D01*
X1393Y-12324D01*
X1407Y-12313D01*
X1424Y-12302D01*
X1446Y-12288D01*
X1468Y-12274D01*
X1496Y-12261D01*
X1526Y-12247D01*
X1560Y-12233D01*
X1635Y-12208D01*
X1721Y-12188D01*
X1765Y-12186D01*
X1812Y-12183D01*
X1840D01*
X1860Y-12186D01*
D02*
G37*
G36*
X46114Y-11655D02*
X46133D01*
X46186Y-11661D01*
X46244Y-11669D01*
X46305Y-11683D01*
X46372Y-11700D01*
X46433Y-11722D01*
X46436D01*
X46441Y-11725D01*
X46450Y-11730D01*
X46461Y-11736D01*
X46488Y-11750D01*
X46524Y-11775D01*
X46566Y-11802D01*
X46608Y-11839D01*
X46647Y-11880D01*
X46683Y-11927D01*
Y-11930D01*
X46685Y-11933D01*
X46691Y-11941D01*
X46697Y-11950D01*
X46710Y-11977D01*
X46727Y-12013D01*
X46747Y-12058D01*
X46760Y-12111D01*
X46774Y-12166D01*
X46780Y-12227D01*
X46536Y-12247D01*
Y-12244D01*
Y-12238D01*
X46533Y-12230D01*
X46530Y-12216D01*
X46522Y-12186D01*
X46511Y-12144D01*
X46494Y-12100D01*
X46469Y-12055D01*
X46438Y-12013D01*
X46400Y-11975D01*
X46394Y-11972D01*
X46380Y-11961D01*
X46352Y-11944D01*
X46316Y-11927D01*
X46269Y-11911D01*
X46214Y-11894D01*
X46144Y-11883D01*
X46066Y-11880D01*
X46028D01*
X46011Y-11883D01*
X45989Y-11886D01*
X45939Y-11891D01*
X45883Y-11902D01*
X45828Y-11916D01*
X45775Y-11938D01*
X45753Y-11952D01*
X45730Y-11966D01*
X45725Y-11969D01*
X45714Y-11980D01*
X45697Y-12000D01*
X45680Y-12022D01*
X45661Y-12052D01*
X45644Y-12086D01*
X45633Y-12125D01*
X45628Y-12169D01*
Y-12174D01*
Y-12186D01*
X45631Y-12205D01*
X45636Y-12227D01*
X45644Y-12255D01*
X45658Y-12283D01*
X45675Y-12311D01*
X45700Y-12338D01*
X45703Y-12341D01*
X45717Y-12349D01*
X45728Y-12358D01*
X45739Y-12363D01*
X45755Y-12372D01*
X45775Y-12383D01*
X45800Y-12391D01*
X45828Y-12402D01*
X45858Y-12413D01*
X45894Y-12427D01*
X45933Y-12438D01*
X45978Y-12452D01*
X46028Y-12463D01*
X46083Y-12477D01*
X46086D01*
X46097Y-12480D01*
X46114Y-12483D01*
X46133Y-12488D01*
X46158Y-12494D01*
X46189Y-12502D01*
X46219Y-12510D01*
X46252Y-12519D01*
X46325Y-12538D01*
X46394Y-12558D01*
X46427Y-12569D01*
X46458Y-12580D01*
X46486Y-12588D01*
X46508Y-12599D01*
X46511D01*
X46516Y-12602D01*
X46524Y-12608D01*
X46536Y-12613D01*
X46566Y-12630D01*
X46602Y-12652D01*
X46644Y-12683D01*
X46685Y-12716D01*
X46724Y-12755D01*
X46758Y-12796D01*
X46760Y-12802D01*
X46772Y-12816D01*
X46783Y-12841D01*
X46799Y-12874D01*
X46813Y-12913D01*
X46827Y-12960D01*
X46835Y-13013D01*
X46838Y-13068D01*
Y-13071D01*
Y-13074D01*
Y-13082D01*
Y-13093D01*
X46833Y-13124D01*
X46827Y-13163D01*
X46816Y-13207D01*
X46802Y-13254D01*
X46780Y-13304D01*
X46749Y-13357D01*
Y-13360D01*
X46747Y-13363D01*
X46733Y-13379D01*
X46713Y-13404D01*
X46685Y-13432D01*
X46649Y-13465D01*
X46605Y-13502D01*
X46555Y-13535D01*
X46497Y-13565D01*
X46494D01*
X46488Y-13568D01*
X46480Y-13571D01*
X46469Y-13576D01*
X46452Y-13582D01*
X46433Y-13590D01*
X46388Y-13601D01*
X46336Y-13615D01*
X46272Y-13629D01*
X46202Y-13638D01*
X46127Y-13640D01*
X46083D01*
X46061Y-13638D01*
X46036D01*
X46008Y-13635D01*
X45975Y-13632D01*
X45905Y-13621D01*
X45833Y-13610D01*
X45761Y-13590D01*
X45692Y-13565D01*
X45689D01*
X45683Y-13563D01*
X45675Y-13557D01*
X45664Y-13551D01*
X45631Y-13535D01*
X45592Y-13510D01*
X45547Y-13477D01*
X45500Y-13438D01*
X45456Y-13390D01*
X45414Y-13338D01*
Y-13335D01*
X45408Y-13329D01*
X45406Y-13321D01*
X45397Y-13310D01*
X45392Y-13296D01*
X45383Y-13279D01*
X45364Y-13238D01*
X45345Y-13185D01*
X45328Y-13127D01*
X45317Y-13060D01*
X45311Y-12991D01*
X45550Y-12968D01*
Y-12971D01*
Y-12974D01*
X45553Y-12982D01*
Y-12993D01*
X45558Y-13018D01*
X45567Y-13055D01*
X45578Y-13091D01*
X45589Y-13132D01*
X45608Y-13171D01*
X45628Y-13207D01*
X45631Y-13210D01*
X45639Y-13221D01*
X45653Y-13241D01*
X45675Y-13260D01*
X45703Y-13285D01*
X45733Y-13310D01*
X45775Y-13335D01*
X45819Y-13357D01*
X45822D01*
X45825Y-13360D01*
X45833Y-13363D01*
X45842Y-13365D01*
X45869Y-13374D01*
X45905Y-13385D01*
X45950Y-13396D01*
X46000Y-13404D01*
X46055Y-13410D01*
X46116Y-13413D01*
X46141D01*
X46169Y-13410D01*
X46202Y-13407D01*
X46241Y-13402D01*
X46286Y-13396D01*
X46330Y-13385D01*
X46372Y-13371D01*
X46377Y-13368D01*
X46391Y-13363D01*
X46411Y-13352D01*
X46436Y-13340D01*
X46461Y-13321D01*
X46488Y-13302D01*
X46516Y-13279D01*
X46538Y-13252D01*
X46541Y-13249D01*
X46547Y-13238D01*
X46555Y-13224D01*
X46566Y-13202D01*
X46577Y-13179D01*
X46586Y-13152D01*
X46591Y-13121D01*
X46594Y-13088D01*
Y-13085D01*
Y-13071D01*
X46591Y-13055D01*
X46588Y-13032D01*
X46580Y-13010D01*
X46572Y-12982D01*
X46558Y-12955D01*
X46538Y-12930D01*
X46536Y-12927D01*
X46527Y-12918D01*
X46516Y-12907D01*
X46497Y-12891D01*
X46474Y-12874D01*
X46444Y-12855D01*
X46408Y-12835D01*
X46366Y-12819D01*
X46363Y-12816D01*
X46350Y-12813D01*
X46327Y-12805D01*
X46313Y-12802D01*
X46294Y-12796D01*
X46275Y-12788D01*
X46250Y-12782D01*
X46222Y-12774D01*
X46189Y-12766D01*
X46155Y-12757D01*
X46116Y-12746D01*
X46072Y-12735D01*
X46025Y-12724D01*
X46022D01*
X46014Y-12721D01*
X46000Y-12719D01*
X45983Y-12713D01*
X45961Y-12708D01*
X45936Y-12702D01*
X45880Y-12685D01*
X45819Y-12666D01*
X45755Y-12646D01*
X45700Y-12627D01*
X45675Y-12616D01*
X45653Y-12605D01*
X45650D01*
X45647Y-12602D01*
X45631Y-12591D01*
X45606Y-12577D01*
X45578Y-12555D01*
X45544Y-12530D01*
X45511Y-12499D01*
X45478Y-12463D01*
X45450Y-12424D01*
X45447Y-12419D01*
X45439Y-12405D01*
X45428Y-12383D01*
X45417Y-12355D01*
X45406Y-12319D01*
X45395Y-12277D01*
X45386Y-12233D01*
X45383Y-12186D01*
Y-12183D01*
Y-12180D01*
Y-12172D01*
Y-12161D01*
X45389Y-12133D01*
X45395Y-12097D01*
X45403Y-12055D01*
X45417Y-12008D01*
X45436Y-11961D01*
X45464Y-11914D01*
Y-11911D01*
X45467Y-11908D01*
X45481Y-11891D01*
X45500Y-11869D01*
X45525Y-11841D01*
X45558Y-11811D01*
X45600Y-11777D01*
X45650Y-11747D01*
X45705Y-11719D01*
X45708D01*
X45714Y-11716D01*
X45722Y-11714D01*
X45733Y-11708D01*
X45747Y-11703D01*
X45767Y-11697D01*
X45808Y-11686D01*
X45861Y-11675D01*
X45922Y-11664D01*
X45986Y-11655D01*
X46058Y-11653D01*
X46094D01*
X46114Y-11655D01*
D02*
G37*
G36*
X8498Y-13607D02*
X8262D01*
Y-11686D01*
X8498D01*
Y-13607D01*
D02*
G37*
G36*
X7384Y-12186D02*
X7409Y-12188D01*
X7437Y-12194D01*
X7468Y-12199D01*
X7504Y-12205D01*
X7579Y-12230D01*
X7617Y-12244D01*
X7656Y-12263D01*
X7695Y-12283D01*
X7734Y-12311D01*
X7770Y-12338D01*
X7806Y-12372D01*
X7809Y-12374D01*
X7815Y-12380D01*
X7823Y-12391D01*
X7834Y-12405D01*
X7848Y-12424D01*
X7865Y-12449D01*
X7881Y-12477D01*
X7898Y-12508D01*
X7915Y-12541D01*
X7931Y-12583D01*
X7948Y-12624D01*
X7962Y-12671D01*
X7973Y-12721D01*
X7981Y-12774D01*
X7987Y-12830D01*
X7989Y-12891D01*
Y-12894D01*
Y-12902D01*
Y-12916D01*
Y-12935D01*
X7987Y-12957D01*
X7984Y-12985D01*
Y-13013D01*
X7978Y-13043D01*
X7970Y-13113D01*
X7953Y-13182D01*
X7934Y-13252D01*
X7906Y-13316D01*
Y-13318D01*
X7903Y-13321D01*
X7898Y-13329D01*
X7892Y-13340D01*
X7873Y-13368D01*
X7848Y-13402D01*
X7815Y-13440D01*
X7773Y-13479D01*
X7726Y-13518D01*
X7670Y-13554D01*
X7667D01*
X7665Y-13557D01*
X7656Y-13563D01*
X7642Y-13568D01*
X7629Y-13574D01*
X7612Y-13579D01*
X7570Y-13596D01*
X7523Y-13610D01*
X7465Y-13624D01*
X7404Y-13635D01*
X7337Y-13638D01*
X7309D01*
X7287Y-13635D01*
X7262Y-13632D01*
X7234Y-13626D01*
X7201Y-13621D01*
X7168Y-13615D01*
X7093Y-13593D01*
X7051Y-13576D01*
X7012Y-13560D01*
X6973Y-13538D01*
X6934Y-13513D01*
X6898Y-13485D01*
X6862Y-13452D01*
X6860Y-13449D01*
X6854Y-13443D01*
X6846Y-13432D01*
X6835Y-13415D01*
X6821Y-13396D01*
X6807Y-13374D01*
X6790Y-13346D01*
X6773Y-13313D01*
X6757Y-13277D01*
X6740Y-13235D01*
X6726Y-13191D01*
X6712Y-13143D01*
X6701Y-13091D01*
X6693Y-13035D01*
X6687Y-12974D01*
X6685Y-12910D01*
Y-12905D01*
Y-12894D01*
X6687Y-12874D01*
Y-12846D01*
X6690Y-12816D01*
X6696Y-12777D01*
X6701Y-12738D01*
X6712Y-12694D01*
X6723Y-12649D01*
X6737Y-12602D01*
X6754Y-12552D01*
X6776Y-12505D01*
X6798Y-12460D01*
X6829Y-12416D01*
X6860Y-12374D01*
X6898Y-12338D01*
X6901Y-12335D01*
X6907Y-12333D01*
X6918Y-12324D01*
X6932Y-12313D01*
X6948Y-12302D01*
X6971Y-12288D01*
X6993Y-12274D01*
X7021Y-12261D01*
X7051Y-12247D01*
X7084Y-12233D01*
X7159Y-12208D01*
X7245Y-12188D01*
X7290Y-12186D01*
X7337Y-12183D01*
X7365D01*
X7384Y-12186D01*
D02*
G37*
G36*
X10974D02*
X10996Y-12188D01*
X11024Y-12194D01*
X11054Y-12199D01*
X11090Y-12208D01*
X11124Y-12216D01*
X11163Y-12230D01*
X11199Y-12244D01*
X11238Y-12263D01*
X11276Y-12286D01*
X11315Y-12311D01*
X11351Y-12341D01*
X11385Y-12374D01*
X11388Y-12377D01*
X11393Y-12383D01*
X11401Y-12394D01*
X11413Y-12410D01*
X11426Y-12430D01*
X11440Y-12452D01*
X11457Y-12480D01*
X11474Y-12513D01*
X11490Y-12549D01*
X11507Y-12588D01*
X11521Y-12633D01*
X11535Y-12680D01*
X11546Y-12732D01*
X11554Y-12788D01*
X11560Y-12846D01*
X11562Y-12910D01*
Y-12913D01*
Y-12924D01*
Y-12943D01*
X11560Y-12971D01*
X10519D01*
Y-12974D01*
Y-12982D01*
X10521Y-12993D01*
Y-13010D01*
X10524Y-13030D01*
X10530Y-13052D01*
X10538Y-13102D01*
X10555Y-13157D01*
X10577Y-13218D01*
X10607Y-13274D01*
X10646Y-13324D01*
X10649D01*
X10652Y-13329D01*
X10669Y-13343D01*
X10693Y-13363D01*
X10727Y-13382D01*
X10771Y-13404D01*
X10821Y-13424D01*
X10877Y-13438D01*
X10907Y-13440D01*
X10941Y-13443D01*
X10963D01*
X10988Y-13440D01*
X11018Y-13435D01*
X11052Y-13427D01*
X11090Y-13415D01*
X11127Y-13399D01*
X11163Y-13377D01*
X11165Y-13374D01*
X11179Y-13363D01*
X11196Y-13346D01*
X11215Y-13324D01*
X11238Y-13293D01*
X11263Y-13254D01*
X11288Y-13210D01*
X11310Y-13157D01*
X11554Y-13188D01*
Y-13191D01*
X11551Y-13196D01*
X11549Y-13207D01*
X11543Y-13224D01*
X11535Y-13241D01*
X11526Y-13263D01*
X11504Y-13310D01*
X11476Y-13363D01*
X11438Y-13418D01*
X11393Y-13471D01*
X11338Y-13521D01*
X11335D01*
X11329Y-13526D01*
X11321Y-13532D01*
X11310Y-13540D01*
X11293Y-13549D01*
X11276Y-13557D01*
X11254Y-13568D01*
X11229Y-13579D01*
X11202Y-13590D01*
X11174Y-13601D01*
X11104Y-13618D01*
X11027Y-13632D01*
X10941Y-13638D01*
X10910D01*
X10891Y-13635D01*
X10866Y-13632D01*
X10835Y-13626D01*
X10802Y-13621D01*
X10766Y-13615D01*
X10688Y-13593D01*
X10646Y-13576D01*
X10607Y-13560D01*
X10566Y-13538D01*
X10527Y-13513D01*
X10491Y-13485D01*
X10455Y-13452D01*
X10452Y-13449D01*
X10446Y-13443D01*
X10438Y-13432D01*
X10427Y-13415D01*
X10413Y-13396D01*
X10399Y-13374D01*
X10383Y-13346D01*
X10366Y-13316D01*
X10349Y-13279D01*
X10333Y-13241D01*
X10319Y-13196D01*
X10305Y-13149D01*
X10294Y-13099D01*
X10285Y-13043D01*
X10280Y-12985D01*
X10277Y-12924D01*
Y-12921D01*
Y-12907D01*
Y-12891D01*
X10280Y-12866D01*
X10283Y-12835D01*
X10285Y-12802D01*
X10291Y-12763D01*
X10299Y-12724D01*
X10321Y-12635D01*
X10335Y-12591D01*
X10352Y-12544D01*
X10374Y-12499D01*
X10399Y-12458D01*
X10427Y-12416D01*
X10458Y-12377D01*
X10460Y-12374D01*
X10466Y-12369D01*
X10477Y-12360D01*
X10491Y-12347D01*
X10507Y-12333D01*
X10530Y-12316D01*
X10555Y-12297D01*
X10585Y-12280D01*
X10616Y-12261D01*
X10652Y-12244D01*
X10691Y-12227D01*
X10732Y-12213D01*
X10777Y-12199D01*
X10824Y-12191D01*
X10874Y-12186D01*
X10927Y-12183D01*
X10954D01*
X10974Y-12186D01*
D02*
G37*
G36*
X1016Y-11914D02*
X383D01*
Y-13607D01*
X127D01*
Y-11914D01*
X-506D01*
Y-11686D01*
X1016D01*
Y-11914D01*
D02*
G37*
G36*
X44370Y-11689D02*
X44392D01*
X44442Y-11694D01*
X44498Y-11700D01*
X44556Y-11711D01*
X44614Y-11725D01*
X44667Y-11744D01*
X44670D01*
X44673Y-11747D01*
X44689Y-11755D01*
X44714Y-11769D01*
X44742Y-11789D01*
X44775Y-11814D01*
X44812Y-11844D01*
X44845Y-11883D01*
X44875Y-11925D01*
X44878Y-11930D01*
X44886Y-11947D01*
X44900Y-11969D01*
X44914Y-12002D01*
X44928Y-12041D01*
X44942Y-12083D01*
X44950Y-12130D01*
X44953Y-12177D01*
Y-12183D01*
Y-12197D01*
X44950Y-12222D01*
X44945Y-12252D01*
X44936Y-12288D01*
X44923Y-12327D01*
X44906Y-12366D01*
X44884Y-12408D01*
X44881Y-12413D01*
X44873Y-12424D01*
X44856Y-12447D01*
X44834Y-12469D01*
X44806Y-12497D01*
X44773Y-12527D01*
X44731Y-12555D01*
X44684Y-12583D01*
X44687D01*
X44692Y-12585D01*
X44700Y-12588D01*
X44712Y-12594D01*
X44745Y-12605D01*
X44784Y-12624D01*
X44825Y-12649D01*
X44873Y-12680D01*
X44914Y-12716D01*
X44953Y-12760D01*
X44956Y-12766D01*
X44967Y-12782D01*
X44984Y-12807D01*
X45000Y-12841D01*
X45017Y-12885D01*
X45034Y-12932D01*
X45045Y-12988D01*
X45048Y-13049D01*
Y-13052D01*
Y-13055D01*
Y-13071D01*
X45045Y-13099D01*
X45039Y-13132D01*
X45034Y-13171D01*
X45023Y-13213D01*
X45009Y-13257D01*
X44989Y-13302D01*
X44986Y-13307D01*
X44978Y-13321D01*
X44967Y-13340D01*
X44950Y-13368D01*
X44928Y-13396D01*
X44906Y-13427D01*
X44878Y-13457D01*
X44848Y-13482D01*
X44845Y-13485D01*
X44834Y-13493D01*
X44814Y-13504D01*
X44789Y-13515D01*
X44759Y-13532D01*
X44723Y-13549D01*
X44684Y-13563D01*
X44637Y-13576D01*
X44631D01*
X44614Y-13582D01*
X44587Y-13585D01*
X44551Y-13590D01*
X44506Y-13596D01*
X44453Y-13601D01*
X44395Y-13604D01*
X44328Y-13607D01*
X43596D01*
Y-11686D01*
X44351D01*
X44370Y-11689D01*
D02*
G37*
G36*
X5730Y-11655D02*
X5749D01*
X5802Y-11661D01*
X5860Y-11669D01*
X5921Y-11683D01*
X5988Y-11700D01*
X6049Y-11722D01*
X6052D01*
X6057Y-11725D01*
X6066Y-11730D01*
X6077Y-11736D01*
X6104Y-11750D01*
X6140Y-11775D01*
X6182Y-11802D01*
X6224Y-11839D01*
X6263Y-11880D01*
X6299Y-11927D01*
Y-11930D01*
X6302Y-11933D01*
X6307Y-11941D01*
X6313Y-11950D01*
X6326Y-11977D01*
X6343Y-12013D01*
X6363Y-12058D01*
X6376Y-12111D01*
X6390Y-12166D01*
X6396Y-12227D01*
X6152Y-12247D01*
Y-12244D01*
Y-12238D01*
X6149Y-12230D01*
X6146Y-12216D01*
X6138Y-12186D01*
X6127Y-12144D01*
X6110Y-12100D01*
X6085Y-12055D01*
X6054Y-12013D01*
X6016Y-11975D01*
X6010Y-11972D01*
X5996Y-11961D01*
X5968Y-11944D01*
X5932Y-11927D01*
X5885Y-11911D01*
X5830Y-11894D01*
X5760Y-11883D01*
X5682Y-11880D01*
X5644D01*
X5627Y-11883D01*
X5605Y-11886D01*
X5555Y-11891D01*
X5499Y-11902D01*
X5444Y-11916D01*
X5391Y-11938D01*
X5369Y-11952D01*
X5346Y-11966D01*
X5341Y-11969D01*
X5330Y-11980D01*
X5313Y-12000D01*
X5297Y-12022D01*
X5277Y-12052D01*
X5260Y-12086D01*
X5249Y-12125D01*
X5244Y-12169D01*
Y-12174D01*
Y-12186D01*
X5247Y-12205D01*
X5252Y-12227D01*
X5260Y-12255D01*
X5274Y-12283D01*
X5291Y-12311D01*
X5316Y-12338D01*
X5319Y-12341D01*
X5333Y-12349D01*
X5344Y-12358D01*
X5355Y-12363D01*
X5371Y-12372D01*
X5391Y-12383D01*
X5416Y-12391D01*
X5444Y-12402D01*
X5474Y-12413D01*
X5510Y-12427D01*
X5549Y-12438D01*
X5594Y-12452D01*
X5644Y-12463D01*
X5699Y-12477D01*
X5702D01*
X5713Y-12480D01*
X5730Y-12483D01*
X5749Y-12488D01*
X5774Y-12494D01*
X5805Y-12502D01*
X5835Y-12510D01*
X5868Y-12519D01*
X5941Y-12538D01*
X6010Y-12558D01*
X6043Y-12569D01*
X6074Y-12580D01*
X6102Y-12588D01*
X6124Y-12599D01*
X6127D01*
X6132Y-12602D01*
X6140Y-12608D01*
X6152Y-12613D01*
X6182Y-12630D01*
X6218Y-12652D01*
X6260Y-12683D01*
X6302Y-12716D01*
X6340Y-12755D01*
X6374Y-12796D01*
X6376Y-12802D01*
X6388Y-12816D01*
X6399Y-12841D01*
X6415Y-12874D01*
X6429Y-12913D01*
X6443Y-12960D01*
X6451Y-13013D01*
X6454Y-13068D01*
Y-13071D01*
Y-13074D01*
Y-13082D01*
Y-13093D01*
X6449Y-13124D01*
X6443Y-13163D01*
X6432Y-13207D01*
X6418Y-13254D01*
X6396Y-13304D01*
X6365Y-13357D01*
Y-13360D01*
X6363Y-13363D01*
X6349Y-13379D01*
X6329Y-13404D01*
X6302Y-13432D01*
X6265Y-13465D01*
X6221Y-13502D01*
X6171Y-13535D01*
X6113Y-13565D01*
X6110D01*
X6104Y-13568D01*
X6096Y-13571D01*
X6085Y-13576D01*
X6068Y-13582D01*
X6049Y-13590D01*
X6004Y-13601D01*
X5952Y-13615D01*
X5888Y-13629D01*
X5818Y-13638D01*
X5743Y-13640D01*
X5699D01*
X5677Y-13638D01*
X5652D01*
X5624Y-13635D01*
X5591Y-13632D01*
X5521Y-13621D01*
X5449Y-13610D01*
X5377Y-13590D01*
X5308Y-13565D01*
X5305D01*
X5299Y-13563D01*
X5291Y-13557D01*
X5280Y-13551D01*
X5247Y-13535D01*
X5208Y-13510D01*
X5163Y-13477D01*
X5116Y-13438D01*
X5072Y-13390D01*
X5030Y-13338D01*
Y-13335D01*
X5024Y-13329D01*
X5022Y-13321D01*
X5013Y-13310D01*
X5008Y-13296D01*
X4999Y-13279D01*
X4980Y-13238D01*
X4961Y-13185D01*
X4944Y-13127D01*
X4933Y-13060D01*
X4927Y-12991D01*
X5166Y-12968D01*
Y-12971D01*
Y-12974D01*
X5169Y-12982D01*
Y-12993D01*
X5174Y-13018D01*
X5183Y-13055D01*
X5194Y-13091D01*
X5205Y-13132D01*
X5224Y-13171D01*
X5244Y-13207D01*
X5247Y-13210D01*
X5255Y-13221D01*
X5269Y-13241D01*
X5291Y-13260D01*
X5319Y-13285D01*
X5349Y-13310D01*
X5391Y-13335D01*
X5435Y-13357D01*
X5438D01*
X5441Y-13360D01*
X5449Y-13363D01*
X5458Y-13365D01*
X5485Y-13374D01*
X5521Y-13385D01*
X5566Y-13396D01*
X5616Y-13404D01*
X5671Y-13410D01*
X5732Y-13413D01*
X5757D01*
X5785Y-13410D01*
X5818Y-13407D01*
X5857Y-13402D01*
X5902Y-13396D01*
X5946Y-13385D01*
X5988Y-13371D01*
X5993Y-13368D01*
X6007Y-13363D01*
X6027Y-13352D01*
X6052Y-13340D01*
X6077Y-13321D01*
X6104Y-13302D01*
X6132Y-13279D01*
X6154Y-13252D01*
X6157Y-13249D01*
X6163Y-13238D01*
X6171Y-13224D01*
X6182Y-13202D01*
X6193Y-13179D01*
X6202Y-13152D01*
X6207Y-13121D01*
X6210Y-13088D01*
Y-13085D01*
Y-13071D01*
X6207Y-13055D01*
X6204Y-13032D01*
X6196Y-13010D01*
X6188Y-12982D01*
X6174Y-12955D01*
X6154Y-12930D01*
X6152Y-12927D01*
X6143Y-12918D01*
X6132Y-12907D01*
X6113Y-12891D01*
X6091Y-12874D01*
X6060Y-12855D01*
X6024Y-12835D01*
X5982Y-12819D01*
X5979Y-12816D01*
X5966Y-12813D01*
X5943Y-12805D01*
X5930Y-12802D01*
X5910Y-12796D01*
X5891Y-12788D01*
X5866Y-12782D01*
X5838Y-12774D01*
X5805Y-12766D01*
X5771Y-12757D01*
X5732Y-12746D01*
X5688Y-12735D01*
X5641Y-12724D01*
X5638D01*
X5630Y-12721D01*
X5616Y-12719D01*
X5599Y-12713D01*
X5577Y-12708D01*
X5552Y-12702D01*
X5496Y-12685D01*
X5435Y-12666D01*
X5371Y-12646D01*
X5316Y-12627D01*
X5291Y-12616D01*
X5269Y-12605D01*
X5266D01*
X5263Y-12602D01*
X5247Y-12591D01*
X5222Y-12577D01*
X5194Y-12555D01*
X5160Y-12530D01*
X5127Y-12499D01*
X5094Y-12463D01*
X5066Y-12424D01*
X5063Y-12419D01*
X5055Y-12405D01*
X5044Y-12383D01*
X5033Y-12355D01*
X5022Y-12319D01*
X5011Y-12277D01*
X5002Y-12233D01*
X4999Y-12186D01*
Y-12183D01*
Y-12180D01*
Y-12172D01*
Y-12161D01*
X5005Y-12133D01*
X5011Y-12097D01*
X5019Y-12055D01*
X5033Y-12008D01*
X5052Y-11961D01*
X5080Y-11914D01*
Y-11911D01*
X5083Y-11908D01*
X5097Y-11891D01*
X5116Y-11869D01*
X5141Y-11841D01*
X5174Y-11811D01*
X5216Y-11777D01*
X5266Y-11747D01*
X5322Y-11719D01*
X5324D01*
X5330Y-11716D01*
X5338Y-11714D01*
X5349Y-11708D01*
X5363Y-11703D01*
X5383Y-11697D01*
X5424Y-11686D01*
X5477Y-11675D01*
X5538Y-11664D01*
X5602Y-11655D01*
X5674Y-11653D01*
X5710D01*
X5730Y-11655D01*
D02*
G37*
G36*
X32750Y80050D02*
X31500D01*
Y82050D01*
X32750D01*
Y80050D01*
D02*
G37*
G36*
X38500D02*
X37250D01*
Y82050D01*
X38500D01*
Y80050D01*
D02*
G37*
G36*
X9983Y-13607D02*
X9763D01*
Y-13432D01*
X9761Y-13435D01*
X9758Y-13440D01*
X9750Y-13452D01*
X9738Y-13465D01*
X9725Y-13479D01*
X9708Y-13496D01*
X9689Y-13515D01*
X9664Y-13535D01*
X9639Y-13554D01*
X9611Y-13574D01*
X9577Y-13590D01*
X9541Y-13604D01*
X9505Y-13618D01*
X9464Y-13629D01*
X9419Y-13635D01*
X9372Y-13638D01*
X9355D01*
X9344Y-13635D01*
X9311Y-13632D01*
X9272Y-13626D01*
X9225Y-13615D01*
X9172Y-13599D01*
X9119Y-13576D01*
X9067Y-13546D01*
X9064D01*
X9061Y-13540D01*
X9044Y-13529D01*
X9019Y-13507D01*
X8989Y-13479D01*
X8953Y-13443D01*
X8917Y-13399D01*
X8881Y-13349D01*
X8850Y-13291D01*
Y-13288D01*
X8847Y-13282D01*
X8845Y-13274D01*
X8839Y-13263D01*
X8833Y-13246D01*
X8825Y-13227D01*
X8820Y-13207D01*
X8814Y-13182D01*
X8800Y-13127D01*
X8786Y-13063D01*
X8778Y-12991D01*
X8775Y-12913D01*
Y-12910D01*
Y-12905D01*
Y-12894D01*
Y-12877D01*
X8778Y-12860D01*
Y-12838D01*
X8783Y-12788D01*
X8792Y-12730D01*
X8806Y-12666D01*
X8822Y-12599D01*
X8845Y-12535D01*
Y-12533D01*
X8847Y-12527D01*
X8853Y-12519D01*
X8858Y-12508D01*
X8875Y-12477D01*
X8897Y-12438D01*
X8925Y-12397D01*
X8961Y-12355D01*
X9003Y-12311D01*
X9053Y-12274D01*
X9056D01*
X9058Y-12272D01*
X9067Y-12266D01*
X9078Y-12261D01*
X9105Y-12247D01*
X9144Y-12227D01*
X9189Y-12211D01*
X9242Y-12197D01*
X9300Y-12186D01*
X9361Y-12183D01*
X9383D01*
X9405Y-12186D01*
X9436Y-12188D01*
X9472Y-12197D01*
X9511Y-12205D01*
X9550Y-12219D01*
X9586Y-12238D01*
X9591Y-12241D01*
X9602Y-12247D01*
X9619Y-12261D01*
X9641Y-12274D01*
X9669Y-12294D01*
X9694Y-12319D01*
X9722Y-12344D01*
X9747Y-12374D01*
Y-11686D01*
X9983D01*
Y-13607D01*
D02*
G37*
G36*
X41078D02*
X40808D01*
Y-13338D01*
X41078D01*
Y-13607D01*
D02*
G37*
G36*
X12406Y-12186D02*
X12437Y-12191D01*
X12473Y-12202D01*
X12512Y-12216D01*
X12556Y-12236D01*
X12604Y-12261D01*
X12517Y-12477D01*
X12515Y-12474D01*
X12504Y-12469D01*
X12487Y-12460D01*
X12465Y-12452D01*
X12440Y-12444D01*
X12409Y-12435D01*
X12379Y-12430D01*
X12348Y-12427D01*
X12334D01*
X12320Y-12430D01*
X12301Y-12433D01*
X12281Y-12438D01*
X12257Y-12447D01*
X12232Y-12458D01*
X12209Y-12474D01*
X12207Y-12477D01*
X12198Y-12483D01*
X12190Y-12494D01*
X12176Y-12508D01*
X12162Y-12527D01*
X12148Y-12549D01*
X12134Y-12574D01*
X12123Y-12605D01*
X12120Y-12610D01*
X12118Y-12627D01*
X12112Y-12652D01*
X12104Y-12685D01*
X12095Y-12727D01*
X12090Y-12774D01*
X12087Y-12824D01*
X12084Y-12880D01*
Y-13607D01*
X11848D01*
Y-12213D01*
X12062D01*
Y-12424D01*
X12065Y-12422D01*
X12076Y-12402D01*
X12090Y-12377D01*
X12112Y-12347D01*
X12134Y-12316D01*
X12159Y-12283D01*
X12184Y-12255D01*
X12209Y-12233D01*
X12212Y-12230D01*
X12220Y-12224D01*
X12237Y-12216D01*
X12254Y-12208D01*
X12276Y-12199D01*
X12304Y-12191D01*
X12331Y-12186D01*
X12362Y-12183D01*
X12381D01*
X12406Y-12186D01*
D02*
G37*
G36*
X3403D02*
X3423Y-12188D01*
X3464Y-12194D01*
X3514Y-12205D01*
X3567Y-12222D01*
X3620Y-12247D01*
X3672Y-12277D01*
X3675D01*
X3678Y-12283D01*
X3695Y-12294D01*
X3720Y-12316D01*
X3750Y-12344D01*
X3783Y-12380D01*
X3817Y-12424D01*
X3850Y-12477D01*
X3878Y-12535D01*
Y-12538D01*
X3881Y-12544D01*
X3883Y-12552D01*
X3889Y-12563D01*
X3895Y-12580D01*
X3900Y-12599D01*
X3914Y-12644D01*
X3928Y-12699D01*
X3939Y-12760D01*
X3947Y-12830D01*
X3950Y-12902D01*
Y-12905D01*
Y-12910D01*
Y-12921D01*
Y-12938D01*
X3947Y-12957D01*
Y-12980D01*
X3942Y-13030D01*
X3931Y-13091D01*
X3917Y-13154D01*
X3897Y-13221D01*
X3872Y-13288D01*
Y-13291D01*
X3870Y-13296D01*
X3864Y-13304D01*
X3858Y-13316D01*
X3839Y-13346D01*
X3814Y-13385D01*
X3783Y-13427D01*
X3745Y-13468D01*
X3700Y-13510D01*
X3647Y-13549D01*
X3645D01*
X3642Y-13551D01*
X3634Y-13557D01*
X3622Y-13563D01*
X3595Y-13576D01*
X3556Y-13593D01*
X3509Y-13610D01*
X3459Y-13624D01*
X3400Y-13635D01*
X3342Y-13638D01*
X3323D01*
X3300Y-13635D01*
X3273Y-13632D01*
X3239Y-13626D01*
X3203Y-13618D01*
X3167Y-13607D01*
X3131Y-13590D01*
X3128Y-13588D01*
X3114Y-13582D01*
X3098Y-13571D01*
X3076Y-13554D01*
X3053Y-13538D01*
X3026Y-13515D01*
X3001Y-13490D01*
X2978Y-13463D01*
Y-14140D01*
X2742D01*
Y-12213D01*
X2956D01*
Y-12397D01*
X2959Y-12391D01*
X2970Y-12380D01*
X2984Y-12360D01*
X3006Y-12338D01*
X3031Y-12311D01*
X3059Y-12286D01*
X3092Y-12261D01*
X3126Y-12238D01*
X3131Y-12236D01*
X3142Y-12230D01*
X3164Y-12222D01*
X3192Y-12211D01*
X3225Y-12199D01*
X3264Y-12191D01*
X3309Y-12186D01*
X3359Y-12183D01*
X3389D01*
X3403Y-12186D01*
D02*
G37*
%LPC*%
G36*
X1812Y-12377D02*
X1796D01*
X1782Y-12380D01*
X1751Y-12383D01*
X1710Y-12394D01*
X1662Y-12410D01*
X1612Y-12433D01*
X1565Y-12466D01*
X1540Y-12488D01*
X1518Y-12510D01*
Y-12513D01*
X1513Y-12516D01*
X1507Y-12524D01*
X1499Y-12535D01*
X1490Y-12549D01*
X1482Y-12566D01*
X1471Y-12588D01*
X1460Y-12610D01*
X1449Y-12638D01*
X1438Y-12666D01*
X1429Y-12699D01*
X1421Y-12735D01*
X1413Y-12774D01*
X1407Y-12816D01*
X1404Y-12863D01*
X1401Y-12910D01*
Y-12913D01*
Y-12921D01*
Y-12935D01*
X1404Y-12955D01*
Y-12977D01*
X1407Y-13002D01*
X1415Y-13060D01*
X1429Y-13127D01*
X1451Y-13193D01*
X1479Y-13257D01*
X1499Y-13285D01*
X1518Y-13313D01*
X1521D01*
X1524Y-13318D01*
X1540Y-13332D01*
X1565Y-13354D01*
X1599Y-13377D01*
X1640Y-13402D01*
X1690Y-13424D01*
X1749Y-13438D01*
X1779Y-13440D01*
X1812Y-13443D01*
X1829D01*
X1843Y-13440D01*
X1873Y-13435D01*
X1915Y-13427D01*
X1959Y-13410D01*
X2009Y-13388D01*
X2057Y-13354D01*
X2082Y-13332D01*
X2104Y-13310D01*
X2107Y-13307D01*
X2109Y-13304D01*
X2115Y-13296D01*
X2123Y-13285D01*
X2132Y-13271D01*
X2143Y-13254D01*
X2154Y-13232D01*
X2165Y-13210D01*
X2176Y-13182D01*
X2184Y-13152D01*
X2195Y-13118D01*
X2204Y-13082D01*
X2212Y-13041D01*
X2218Y-12999D01*
X2223Y-12952D01*
Y-12902D01*
Y-12899D01*
Y-12891D01*
Y-12877D01*
X2220Y-12860D01*
Y-12838D01*
X2218Y-12813D01*
X2209Y-12755D01*
X2195Y-12694D01*
X2173Y-12627D01*
X2143Y-12566D01*
X2126Y-12535D01*
X2104Y-12510D01*
Y-12508D01*
X2098Y-12505D01*
X2082Y-12488D01*
X2057Y-12469D01*
X2023Y-12444D01*
X1982Y-12419D01*
X1932Y-12397D01*
X1876Y-12383D01*
X1846Y-12380D01*
X1812Y-12377D01*
D02*
G37*
G36*
X7337D02*
X7320D01*
X7306Y-12380D01*
X7276Y-12383D01*
X7234Y-12394D01*
X7187Y-12410D01*
X7137Y-12433D01*
X7090Y-12466D01*
X7065Y-12488D01*
X7043Y-12510D01*
Y-12513D01*
X7037Y-12516D01*
X7032Y-12524D01*
X7023Y-12535D01*
X7015Y-12549D01*
X7007Y-12566D01*
X6996Y-12588D01*
X6984Y-12610D01*
X6973Y-12638D01*
X6962Y-12666D01*
X6954Y-12699D01*
X6946Y-12735D01*
X6937Y-12774D01*
X6932Y-12816D01*
X6929Y-12863D01*
X6926Y-12910D01*
Y-12913D01*
Y-12921D01*
Y-12935D01*
X6929Y-12955D01*
Y-12977D01*
X6932Y-13002D01*
X6940Y-13060D01*
X6954Y-13127D01*
X6976Y-13193D01*
X7004Y-13257D01*
X7023Y-13285D01*
X7043Y-13313D01*
X7046D01*
X7048Y-13318D01*
X7065Y-13332D01*
X7090Y-13354D01*
X7123Y-13377D01*
X7165Y-13402D01*
X7215Y-13424D01*
X7273Y-13438D01*
X7304Y-13440D01*
X7337Y-13443D01*
X7354D01*
X7368Y-13440D01*
X7398Y-13435D01*
X7440Y-13427D01*
X7484Y-13410D01*
X7534Y-13388D01*
X7581Y-13354D01*
X7606Y-13332D01*
X7629Y-13310D01*
X7631Y-13307D01*
X7634Y-13304D01*
X7640Y-13296D01*
X7648Y-13285D01*
X7656Y-13271D01*
X7667Y-13254D01*
X7679Y-13232D01*
X7690Y-13210D01*
X7701Y-13182D01*
X7709Y-13152D01*
X7720Y-13118D01*
X7728Y-13082D01*
X7737Y-13041D01*
X7742Y-12999D01*
X7748Y-12952D01*
Y-12902D01*
Y-12899D01*
Y-12891D01*
Y-12877D01*
X7745Y-12860D01*
Y-12838D01*
X7742Y-12813D01*
X7734Y-12755D01*
X7720Y-12694D01*
X7698Y-12627D01*
X7667Y-12566D01*
X7651Y-12535D01*
X7629Y-12510D01*
Y-12508D01*
X7623Y-12505D01*
X7606Y-12488D01*
X7581Y-12469D01*
X7548Y-12444D01*
X7506Y-12419D01*
X7456Y-12397D01*
X7401Y-12383D01*
X7370Y-12380D01*
X7337Y-12377D01*
D02*
G37*
G36*
X10929D02*
X10913D01*
X10902Y-12380D01*
X10871Y-12383D01*
X10835Y-12391D01*
X10791Y-12405D01*
X10743Y-12424D01*
X10699Y-12452D01*
X10655Y-12488D01*
X10649Y-12494D01*
X10638Y-12508D01*
X10619Y-12533D01*
X10599Y-12566D01*
X10577Y-12605D01*
X10557Y-12655D01*
X10541Y-12713D01*
X10532Y-12777D01*
X11313D01*
Y-12774D01*
Y-12769D01*
X11310Y-12760D01*
Y-12749D01*
X11304Y-12716D01*
X11296Y-12680D01*
X11282Y-12635D01*
X11268Y-12594D01*
X11246Y-12552D01*
X11221Y-12516D01*
Y-12513D01*
X11215Y-12510D01*
X11202Y-12494D01*
X11177Y-12472D01*
X11143Y-12447D01*
X11102Y-12422D01*
X11052Y-12399D01*
X10993Y-12383D01*
X10963Y-12380D01*
X10929Y-12377D01*
D02*
G37*
G36*
X44356Y-12719D02*
X43851D01*
Y-13379D01*
X44398D01*
X44456Y-13377D01*
X44481Y-13374D01*
X44503Y-13371D01*
X44506D01*
X44517Y-13368D01*
X44534Y-13365D01*
X44553Y-13360D01*
X44601Y-13343D01*
X44648Y-13321D01*
X44651Y-13318D01*
X44659Y-13313D01*
X44670Y-13304D01*
X44684Y-13293D01*
X44698Y-13277D01*
X44717Y-13260D01*
X44731Y-13238D01*
X44748Y-13213D01*
X44750Y-13210D01*
X44753Y-13202D01*
X44759Y-13185D01*
X44767Y-13166D01*
X44775Y-13143D01*
X44781Y-13116D01*
X44784Y-13082D01*
X44787Y-13049D01*
Y-13043D01*
Y-13032D01*
X44784Y-13010D01*
X44778Y-12985D01*
X44773Y-12957D01*
X44762Y-12927D01*
X44748Y-12896D01*
X44728Y-12866D01*
X44725Y-12863D01*
X44717Y-12852D01*
X44706Y-12838D01*
X44689Y-12821D01*
X44667Y-12802D01*
X44639Y-12782D01*
X44609Y-12766D01*
X44573Y-12752D01*
X44567Y-12749D01*
X44556Y-12746D01*
X44531Y-12741D01*
X44501Y-12735D01*
X44462Y-12730D01*
X44415Y-12724D01*
X44356Y-12719D01*
D02*
G37*
G36*
X44306Y-11914D02*
X43851D01*
Y-12491D01*
X44323D01*
X44359Y-12488D01*
X44398Y-12485D01*
X44437Y-12483D01*
X44476Y-12477D01*
X44506Y-12472D01*
X44512Y-12469D01*
X44523Y-12466D01*
X44539Y-12458D01*
X44562Y-12447D01*
X44584Y-12435D01*
X44609Y-12419D01*
X44634Y-12397D01*
X44653Y-12374D01*
X44656Y-12372D01*
X44662Y-12363D01*
X44670Y-12347D01*
X44678Y-12327D01*
X44687Y-12305D01*
X44695Y-12277D01*
X44700Y-12244D01*
X44703Y-12208D01*
Y-12202D01*
Y-12191D01*
X44700Y-12174D01*
X44698Y-12152D01*
X44692Y-12125D01*
X44684Y-12097D01*
X44673Y-12069D01*
X44656Y-12041D01*
X44653Y-12038D01*
X44648Y-12030D01*
X44637Y-12016D01*
X44623Y-12002D01*
X44603Y-11986D01*
X44581Y-11969D01*
X44553Y-11952D01*
X44523Y-11941D01*
X44520D01*
X44506Y-11936D01*
X44487Y-11933D01*
X44456Y-11927D01*
X44415Y-11922D01*
X44367Y-11919D01*
X44306Y-11914D01*
D02*
G37*
G36*
X9386Y-12377D02*
X9372D01*
X9361Y-12380D01*
X9330Y-12383D01*
X9294Y-12394D01*
X9253Y-12408D01*
X9208Y-12433D01*
X9164Y-12463D01*
X9142Y-12485D01*
X9122Y-12508D01*
Y-12510D01*
X9117Y-12513D01*
X9114Y-12521D01*
X9105Y-12533D01*
X9097Y-12546D01*
X9089Y-12563D01*
X9081Y-12583D01*
X9069Y-12605D01*
X9058Y-12633D01*
X9050Y-12663D01*
X9042Y-12696D01*
X9033Y-12732D01*
X9028Y-12771D01*
X9022Y-12816D01*
X9017Y-12863D01*
Y-12913D01*
Y-12916D01*
Y-12924D01*
Y-12938D01*
X9019Y-12957D01*
Y-12980D01*
X9022Y-13005D01*
X9031Y-13063D01*
X9044Y-13127D01*
X9064Y-13193D01*
X9092Y-13257D01*
X9108Y-13285D01*
X9128Y-13313D01*
X9130D01*
X9133Y-13318D01*
X9147Y-13332D01*
X9172Y-13354D01*
X9203Y-13377D01*
X9242Y-13402D01*
X9289Y-13424D01*
X9339Y-13438D01*
X9366Y-13440D01*
X9394Y-13443D01*
X9408D01*
X9419Y-13440D01*
X9450Y-13438D01*
X9486Y-13427D01*
X9527Y-13413D01*
X9572Y-13390D01*
X9616Y-13360D01*
X9639Y-13340D01*
X9658Y-13318D01*
Y-13316D01*
X9664Y-13313D01*
X9669Y-13304D01*
X9675Y-13293D01*
X9683Y-13279D01*
X9694Y-13266D01*
X9702Y-13243D01*
X9713Y-13221D01*
X9725Y-13196D01*
X9733Y-13168D01*
X9744Y-13135D01*
X9752Y-13102D01*
X9758Y-13063D01*
X9763Y-13024D01*
X9769Y-12980D01*
Y-12932D01*
Y-12930D01*
Y-12918D01*
Y-12905D01*
X9766Y-12885D01*
Y-12863D01*
X9763Y-12835D01*
X9761Y-12805D01*
X9755Y-12771D01*
X9741Y-12705D01*
X9722Y-12635D01*
X9694Y-12569D01*
X9677Y-12541D01*
X9658Y-12513D01*
Y-12510D01*
X9652Y-12508D01*
X9639Y-12491D01*
X9614Y-12469D01*
X9583Y-12444D01*
X9544Y-12419D01*
X9497Y-12399D01*
X9444Y-12383D01*
X9416Y-12380D01*
X9386Y-12377D01*
D02*
G37*
G36*
X3337Y-12369D02*
X3323D01*
X3312Y-12372D01*
X3284Y-12377D01*
X3248Y-12385D01*
X3206Y-12402D01*
X3162Y-12427D01*
X3137Y-12444D01*
X3114Y-12463D01*
X3092Y-12485D01*
X3070Y-12510D01*
Y-12513D01*
X3064Y-12516D01*
X3059Y-12524D01*
X3053Y-12535D01*
X3045Y-12552D01*
X3034Y-12569D01*
X3023Y-12591D01*
X3014Y-12613D01*
X3003Y-12641D01*
X2992Y-12671D01*
X2984Y-12705D01*
X2973Y-12741D01*
X2967Y-12782D01*
X2962Y-12824D01*
X2956Y-12869D01*
Y-12918D01*
Y-12921D01*
Y-12930D01*
Y-12943D01*
X2959Y-12963D01*
Y-12985D01*
X2962Y-13010D01*
X2970Y-13068D01*
X2984Y-13135D01*
X3001Y-13199D01*
X3028Y-13263D01*
X3045Y-13291D01*
X3064Y-13316D01*
X3070Y-13321D01*
X3084Y-13335D01*
X3106Y-13357D01*
X3137Y-13379D01*
X3175Y-13402D01*
X3220Y-13424D01*
X3270Y-13438D01*
X3298Y-13440D01*
X3325Y-13443D01*
X3342D01*
X3353Y-13440D01*
X3381Y-13435D01*
X3420Y-13427D01*
X3461Y-13410D01*
X3506Y-13388D01*
X3550Y-13354D01*
X3572Y-13335D01*
X3595Y-13313D01*
Y-13310D01*
X3600Y-13307D01*
X3606Y-13299D01*
X3611Y-13288D01*
X3622Y-13274D01*
X3631Y-13254D01*
X3642Y-13235D01*
X3653Y-13210D01*
X3661Y-13185D01*
X3672Y-13152D01*
X3684Y-13118D01*
X3692Y-13082D01*
X3697Y-13041D01*
X3703Y-12996D01*
X3709Y-12949D01*
Y-12899D01*
Y-12896D01*
Y-12888D01*
Y-12874D01*
X3706Y-12855D01*
Y-12832D01*
X3703Y-12807D01*
X3695Y-12749D01*
X3681Y-12685D01*
X3661Y-12621D01*
X3634Y-12558D01*
X3617Y-12527D01*
X3597Y-12502D01*
Y-12499D01*
X3592Y-12497D01*
X3578Y-12480D01*
X3556Y-12460D01*
X3525Y-12435D01*
X3486Y-12410D01*
X3442Y-12388D01*
X3392Y-12374D01*
X3364Y-12372D01*
X3337Y-12369D01*
D02*
G37*
%LPD*%
D66*
X0Y4000D02*
G03*
X2000Y2000I2000J0D01*
G01*
X2000Y82500D02*
G03*
X0Y80500I0J-2000D01*
G01*
X70000D02*
G03*
X68000Y82500I-2000J0D01*
G01*
X68000Y2000D02*
G03*
X70000Y4000I0J2000D01*
G01*
X11500Y2000D02*
X13500Y0D01*
X46500D01*
X48500Y2000D01*
Y2000D01*
X68000D01*
X2000Y82500D02*
X68000D01*
X2000Y2000D02*
X11500D01*
X0Y4000D02*
Y58000D01*
Y80500D01*
X70000Y4000D02*
Y58000D01*
Y80500D01*
X70000Y80500D02*
X70000Y80500D01*
D82*
X37870Y2790D02*
D03*
D83*
X17120Y2540D02*
D03*
X54075Y79525D02*
D03*
X9025Y75200D02*
D03*
D84*
X50625Y43250D02*
D03*
Y41850D02*
D03*
X36345Y54765D02*
D03*
Y56165D02*
D03*
X18220Y26545D02*
D03*
Y27945D02*
D03*
X45685Y72570D02*
D03*
Y73970D02*
D03*
X59620Y74115D02*
D03*
Y75515D02*
D03*
X58120Y74115D02*
D03*
Y75515D02*
D03*
X48533Y78980D02*
D03*
Y80380D02*
D03*
X48595Y24890D02*
D03*
Y23490D02*
D03*
X50625Y44325D02*
D03*
Y45725D02*
D03*
D85*
X27075Y61425D02*
D03*
Y62325D02*
D03*
X27875Y59450D02*
D03*
Y58550D02*
D03*
X23950Y74650D02*
D03*
Y75550D02*
D03*
X22250Y79150D02*
D03*
Y80050D02*
D03*
X32895Y13365D02*
D03*
Y14265D02*
D03*
X49845Y55540D02*
D03*
Y54640D02*
D03*
X40420Y30115D02*
D03*
Y29215D02*
D03*
X31875Y61425D02*
D03*
Y62325D02*
D03*
X36320Y44565D02*
D03*
Y43665D02*
D03*
X43995Y30990D02*
D03*
Y30090D02*
D03*
X27650Y75375D02*
D03*
Y74475D02*
D03*
X30625Y61425D02*
D03*
Y62325D02*
D03*
X34175Y61425D02*
D03*
Y62325D02*
D03*
X25825Y61425D02*
D03*
Y62325D02*
D03*
X44445Y25015D02*
D03*
Y25915D02*
D03*
X24495Y18065D02*
D03*
Y18965D02*
D03*
X41720Y25840D02*
D03*
Y24940D02*
D03*
X28900Y75375D02*
D03*
Y74475D02*
D03*
X35425Y61425D02*
D03*
Y62325D02*
D03*
X25350Y75375D02*
D03*
Y74475D02*
D03*
D86*
X17125Y75300D02*
D03*
Y74000D02*
D03*
X15425D02*
D03*
Y74650D02*
D03*
Y75300D02*
D03*
X19095Y68540D02*
D03*
Y67240D02*
D03*
X17395D02*
D03*
Y67890D02*
D03*
Y68540D02*
D03*
D87*
X49895Y51053D02*
D03*
Y51678D02*
D03*
X14545Y63428D02*
D03*
Y62803D02*
D03*
D88*
X33408Y54415D02*
D03*
X34033D02*
D03*
D89*
X13250Y43575D02*
D03*
X11850D02*
D03*
X33420Y55540D02*
D03*
X34820D02*
D03*
Y53290D02*
D03*
X33420D02*
D03*
X51570Y20440D02*
D03*
X50170D02*
D03*
X58800Y70850D02*
D03*
X60200D02*
D03*
X47320Y23490D02*
D03*
X45920D02*
D03*
X48285Y69845D02*
D03*
X46885D02*
D03*
D90*
X48530Y60050D02*
D03*
X47130D02*
D03*
X24325Y15700D02*
D03*
X25725D02*
D03*
X48060Y75120D02*
D03*
X49460D02*
D03*
X39020Y14365D02*
D03*
X37620D02*
D03*
X45920Y24965D02*
D03*
X47320D02*
D03*
X45920Y26415D02*
D03*
X47320D02*
D03*
X46705Y66200D02*
D03*
X45305D02*
D03*
D91*
X46130Y65075D02*
D03*
X45230D02*
D03*
X46130Y60275D02*
D03*
X45230D02*
D03*
X48030Y58925D02*
D03*
X47130D02*
D03*
X26745Y11965D02*
D03*
X27645D02*
D03*
X33920Y52140D02*
D03*
X34820D02*
D03*
X29345Y11965D02*
D03*
X28445D02*
D03*
X34120Y11790D02*
D03*
X35020D02*
D03*
X38495Y15490D02*
D03*
X37595D02*
D03*
X33120Y47240D02*
D03*
X34020D02*
D03*
X22725Y64925D02*
D03*
X23625D02*
D03*
X26395Y32090D02*
D03*
X27295D02*
D03*
X22725Y68825D02*
D03*
X23625D02*
D03*
X36675Y66925D02*
D03*
X35775D02*
D03*
X38150Y76575D02*
D03*
X37250D02*
D03*
X22725Y67225D02*
D03*
X23625D02*
D03*
X22725Y70075D02*
D03*
X23625D02*
D03*
X33550Y74150D02*
D03*
X32650D02*
D03*
X36675Y69425D02*
D03*
X35775D02*
D03*
X36675Y68175D02*
D03*
X35775D02*
D03*
D92*
X35195Y45065D02*
D03*
Y43665D02*
D03*
X24700Y60850D02*
D03*
Y62250D02*
D03*
X23350Y60850D02*
D03*
Y62250D02*
D03*
X30245Y44915D02*
D03*
Y46315D02*
D03*
X50635Y72420D02*
D03*
Y71020D02*
D03*
X42870Y31490D02*
D03*
Y30090D02*
D03*
X42845Y25840D02*
D03*
Y24440D02*
D03*
X31075Y75950D02*
D03*
Y74550D02*
D03*
X48920Y20440D02*
D03*
Y21840D02*
D03*
D93*
X44445Y28565D02*
D03*
X42845D02*
D03*
X44445Y27065D02*
D03*
X42845D02*
D03*
D94*
X36345Y51890D02*
D03*
Y53390D02*
D03*
X47233Y80380D02*
D03*
Y78880D02*
D03*
D95*
X15620Y65965D02*
D03*
X14720D02*
D03*
X15620Y67240D02*
D03*
X14720D02*
D03*
X15625Y61250D02*
D03*
X14725D02*
D03*
X15620Y68515D02*
D03*
X14720D02*
D03*
X35775Y64450D02*
D03*
X36675D02*
D03*
X35775Y63400D02*
D03*
X36675D02*
D03*
X16750Y63425D02*
D03*
X15850D02*
D03*
X23495Y26840D02*
D03*
X24395D02*
D03*
X5125Y62150D02*
D03*
X6025D02*
D03*
X22725Y63600D02*
D03*
X23625D02*
D03*
X22725Y65900D02*
D03*
X23625D02*
D03*
D96*
X17470Y43665D02*
D03*
Y45365D02*
D03*
D97*
X33200Y61425D02*
D03*
Y62325D02*
D03*
X38350Y66700D02*
D03*
Y65800D02*
D03*
X6150Y65150D02*
D03*
Y64250D02*
D03*
X26325Y74475D02*
D03*
Y75375D02*
D03*
X39400Y66700D02*
D03*
Y65800D02*
D03*
X29875Y75375D02*
D03*
Y74475D02*
D03*
X29050Y61425D02*
D03*
Y62325D02*
D03*
X31550Y59450D02*
D03*
Y58550D02*
D03*
D98*
X48730Y65675D02*
D03*
X50870D02*
D03*
X48730Y63675D02*
D03*
X50870D02*
D03*
X48730Y61675D02*
D03*
X50870D02*
D03*
D99*
X52320Y24890D02*
D03*
X50420D02*
D03*
X51370Y22690D02*
D03*
D100*
X41675Y69650D02*
D03*
X38875D02*
D03*
X20375Y72675D02*
D03*
X23175D02*
D03*
D101*
X19595Y39015D02*
D03*
X21295D02*
D03*
D102*
X8363Y62155D02*
D03*
Y63425D02*
D03*
Y64695D02*
D03*
X12427D02*
D03*
Y63425D02*
D03*
Y62155D02*
D03*
Y65965D02*
D03*
Y67235D02*
D03*
Y68505D02*
D03*
Y69775D02*
D03*
X8363D02*
D03*
Y68505D02*
D03*
Y67235D02*
D03*
Y65965D02*
D03*
D103*
X36300Y78350D02*
D03*
X35650D02*
D03*
X35000D02*
D03*
X34350D02*
D03*
X33700D02*
D03*
D104*
X36000Y81050D02*
D03*
X34000D02*
D03*
D105*
X35020Y14265D02*
D03*
Y12915D02*
D03*
X33970D02*
D03*
Y14265D02*
D03*
D106*
X26795Y13515D02*
D03*
X29295D02*
D03*
D107*
X38600Y75350D02*
D03*
X37350D02*
D03*
D108*
X35075Y75000D02*
D03*
X35575D02*
D03*
X36075D02*
D03*
Y76300D02*
D03*
X35575D02*
D03*
X35075D02*
D03*
D109*
X31420Y45940D02*
D03*
Y44990D02*
D03*
Y44040D02*
D03*
X34020D02*
D03*
Y44990D02*
D03*
Y45940D02*
D03*
D110*
X32720Y44990D02*
D03*
D111*
X26560Y27840D02*
D03*
Y22340D02*
D03*
X38360Y26840D02*
D03*
Y26340D02*
D03*
X26560Y27340D02*
D03*
Y20340D02*
D03*
Y20840D02*
D03*
Y21340D02*
D03*
Y21840D02*
D03*
Y22840D02*
D03*
Y23340D02*
D03*
Y23840D02*
D03*
Y24340D02*
D03*
Y24840D02*
D03*
Y25340D02*
D03*
Y25840D02*
D03*
Y26340D02*
D03*
Y26840D02*
D03*
X38360Y27840D02*
D03*
Y27340D02*
D03*
Y25840D02*
D03*
Y25340D02*
D03*
Y24840D02*
D03*
Y24340D02*
D03*
Y23840D02*
D03*
Y23340D02*
D03*
Y22840D02*
D03*
Y22340D02*
D03*
Y21840D02*
D03*
Y21340D02*
D03*
Y20840D02*
D03*
Y20340D02*
D03*
D112*
X28710Y18190D02*
D03*
X29210D02*
D03*
X32210D02*
D03*
X33710D02*
D03*
X32710D02*
D03*
X28710Y29990D02*
D03*
X29210D02*
D03*
X29710D02*
D03*
X30210D02*
D03*
X30710D02*
D03*
X31210D02*
D03*
X31710D02*
D03*
X32210D02*
D03*
X32710D02*
D03*
X33210D02*
D03*
X33710D02*
D03*
X34210D02*
D03*
X34710D02*
D03*
X35210D02*
D03*
X35710D02*
D03*
X36210D02*
D03*
Y18190D02*
D03*
X35710D02*
D03*
X35210D02*
D03*
X34710D02*
D03*
X34210D02*
D03*
X33210D02*
D03*
X31710D02*
D03*
X31210D02*
D03*
X30710D02*
D03*
X30210D02*
D03*
X29710D02*
D03*
D113*
X38460Y30090D02*
D03*
X26460Y18090D02*
D03*
D114*
X38460D02*
D03*
X26460Y30090D02*
D03*
D115*
X45420Y21840D02*
D03*
X47320D02*
D03*
Y19640D02*
D03*
X46370D02*
D03*
X45420D02*
D03*
X49125Y71395D02*
D03*
X47225D02*
D03*
Y73595D02*
D03*
X48175D02*
D03*
X49125D02*
D03*
X47130Y61575D02*
D03*
X45230D02*
D03*
Y63775D02*
D03*
X46180D02*
D03*
X47130D02*
D03*
D116*
X34250Y72950D02*
D03*
Y72300D02*
D03*
Y71650D02*
D03*
Y71000D02*
D03*
Y70350D02*
D03*
Y69700D02*
D03*
Y69050D02*
D03*
Y68400D02*
D03*
Y67750D02*
D03*
Y67100D02*
D03*
Y66450D02*
D03*
Y65800D02*
D03*
Y65150D02*
D03*
Y64500D02*
D03*
Y63850D02*
D03*
X33600Y72950D02*
D03*
Y72300D02*
D03*
Y71650D02*
D03*
Y71000D02*
D03*
Y70350D02*
D03*
Y69700D02*
D03*
Y69050D02*
D03*
Y68400D02*
D03*
Y67750D02*
D03*
Y67100D02*
D03*
Y66450D02*
D03*
Y65800D02*
D03*
Y65150D02*
D03*
Y64500D02*
D03*
Y63850D02*
D03*
X32950Y72950D02*
D03*
Y72300D02*
D03*
Y71650D02*
D03*
Y71000D02*
D03*
Y70350D02*
D03*
Y69700D02*
D03*
Y69050D02*
D03*
Y68400D02*
D03*
Y67750D02*
D03*
Y67100D02*
D03*
Y66450D02*
D03*
Y65800D02*
D03*
Y65150D02*
D03*
Y64500D02*
D03*
Y63850D02*
D03*
X32300Y72950D02*
D03*
Y72300D02*
D03*
Y71650D02*
D03*
Y71000D02*
D03*
Y70350D02*
D03*
Y69700D02*
D03*
Y69050D02*
D03*
Y68400D02*
D03*
Y67750D02*
D03*
Y67100D02*
D03*
Y66450D02*
D03*
Y65800D02*
D03*
Y65150D02*
D03*
Y64500D02*
D03*
Y63850D02*
D03*
X31650Y72950D02*
D03*
Y72300D02*
D03*
Y71650D02*
D03*
Y71000D02*
D03*
Y65800D02*
D03*
Y65150D02*
D03*
Y64500D02*
D03*
Y63850D02*
D03*
X31000Y72950D02*
D03*
Y72300D02*
D03*
Y71650D02*
D03*
Y71000D02*
D03*
Y69700D02*
D03*
Y69050D02*
D03*
Y68400D02*
D03*
Y67750D02*
D03*
Y67100D02*
D03*
Y65800D02*
D03*
Y65150D02*
D03*
Y64500D02*
D03*
Y63850D02*
D03*
X30350Y72950D02*
D03*
Y72300D02*
D03*
Y71650D02*
D03*
Y71000D02*
D03*
Y69700D02*
D03*
Y69050D02*
D03*
Y68400D02*
D03*
Y67750D02*
D03*
Y67100D02*
D03*
Y65800D02*
D03*
Y65150D02*
D03*
Y64500D02*
D03*
Y63850D02*
D03*
X29700Y72950D02*
D03*
Y72300D02*
D03*
Y71650D02*
D03*
Y71000D02*
D03*
Y69700D02*
D03*
Y69050D02*
D03*
Y68400D02*
D03*
Y67750D02*
D03*
Y67100D02*
D03*
Y65800D02*
D03*
Y65150D02*
D03*
Y64500D02*
D03*
Y63850D02*
D03*
X29050Y72950D02*
D03*
Y72300D02*
D03*
Y71650D02*
D03*
Y71000D02*
D03*
Y69700D02*
D03*
Y69050D02*
D03*
Y68400D02*
D03*
Y67750D02*
D03*
Y67100D02*
D03*
Y65800D02*
D03*
Y65150D02*
D03*
Y64500D02*
D03*
Y63850D02*
D03*
X28400Y72950D02*
D03*
Y72300D02*
D03*
Y71650D02*
D03*
Y71000D02*
D03*
Y69700D02*
D03*
Y69050D02*
D03*
Y68400D02*
D03*
Y67750D02*
D03*
Y67100D02*
D03*
Y65800D02*
D03*
Y65150D02*
D03*
Y64500D02*
D03*
Y63850D02*
D03*
X27750Y72950D02*
D03*
Y72300D02*
D03*
Y71650D02*
D03*
Y71000D02*
D03*
Y65800D02*
D03*
Y65150D02*
D03*
Y64500D02*
D03*
Y63850D02*
D03*
X27100Y72950D02*
D03*
Y72300D02*
D03*
Y71650D02*
D03*
Y71000D02*
D03*
Y70350D02*
D03*
Y69700D02*
D03*
Y69050D02*
D03*
Y68400D02*
D03*
Y67750D02*
D03*
Y67100D02*
D03*
Y66450D02*
D03*
Y65800D02*
D03*
Y65150D02*
D03*
Y64500D02*
D03*
Y63850D02*
D03*
X26450Y72950D02*
D03*
Y72300D02*
D03*
Y71650D02*
D03*
Y71000D02*
D03*
Y70350D02*
D03*
Y69700D02*
D03*
Y69050D02*
D03*
Y68400D02*
D03*
Y67750D02*
D03*
Y67100D02*
D03*
Y66450D02*
D03*
Y65800D02*
D03*
Y65150D02*
D03*
Y64500D02*
D03*
Y63850D02*
D03*
X25800Y72950D02*
D03*
Y72300D02*
D03*
Y71650D02*
D03*
Y71000D02*
D03*
Y70350D02*
D03*
Y69700D02*
D03*
Y69050D02*
D03*
Y68400D02*
D03*
Y67750D02*
D03*
Y67100D02*
D03*
Y66450D02*
D03*
Y65800D02*
D03*
Y65150D02*
D03*
Y64500D02*
D03*
Y63850D02*
D03*
X25150Y72950D02*
D03*
Y72300D02*
D03*
Y71650D02*
D03*
Y71000D02*
D03*
Y70350D02*
D03*
Y69700D02*
D03*
Y69050D02*
D03*
Y68400D02*
D03*
Y67750D02*
D03*
Y67100D02*
D03*
Y66450D02*
D03*
Y65800D02*
D03*
Y65150D02*
D03*
Y64500D02*
D03*
Y63850D02*
D03*
D117*
X63200Y70850D02*
D03*
X61700D02*
D03*
D118*
X59620Y80040D02*
D03*
X58120Y77040D02*
D03*
X59620D02*
D03*
X58120Y80040D02*
D03*
D119*
X48925Y44325D02*
D03*
Y46225D02*
D03*
X46725Y45275D02*
D03*
D120*
X29050Y58550D02*
D03*
Y60200D02*
D03*
X30300D02*
D03*
Y58550D02*
D03*
D121*
X19595Y45915D02*
D03*
Y43615D02*
D03*
Y41315D02*
D03*
D122*
X25945Y43615D02*
D03*
D123*
X38505Y55550D02*
D03*
Y51050D02*
D03*
X48005Y55550D02*
D03*
Y51050D02*
D03*
X31495D02*
D03*
Y55550D02*
D03*
X21995Y51050D02*
D03*
Y55550D02*
D03*
D124*
X59130Y53300D02*
D03*
X43890Y2500D02*
D03*
X10870Y54570D02*
D03*
D125*
X24730Y80040D02*
D03*
X10870Y48220D02*
D03*
X18220Y24390D02*
D03*
X33095Y41235D02*
D03*
X39905D02*
D03*
X42445D02*
D03*
X18810Y80040D02*
D03*
X16270D02*
D03*
X13730D02*
D03*
X56590Y60880D02*
D03*
Y63420D02*
D03*
Y65960D02*
D03*
X59130D02*
D03*
Y63420D02*
D03*
Y68500D02*
D03*
X56590D02*
D03*
X66750Y78700D02*
D03*
X59130Y49744D02*
D03*
Y47204D02*
D03*
Y39584D02*
D03*
Y37044D02*
D03*
Y29424D02*
D03*
Y31964D02*
D03*
Y34504D02*
D03*
Y42124D02*
D03*
Y44664D02*
D03*
X10870Y10120D02*
D03*
Y12660D02*
D03*
Y15200D02*
D03*
Y7580D02*
D03*
Y5040D02*
D03*
X3250Y78700D02*
D03*
Y48220D02*
D03*
Y45680D02*
D03*
Y43140D02*
D03*
X5790Y45680D02*
D03*
Y48220D02*
D03*
Y50760D02*
D03*
Y43140D02*
D03*
Y35520D02*
D03*
Y40600D02*
D03*
Y38060D02*
D03*
X3250Y35520D02*
D03*
Y38060D02*
D03*
Y40600D02*
D03*
Y27900D02*
D03*
Y25360D02*
D03*
Y22820D02*
D03*
X5790Y25360D02*
D03*
Y27900D02*
D03*
Y22820D02*
D03*
Y30440D02*
D03*
Y32980D02*
D03*
X3250Y30440D02*
D03*
Y32980D02*
D03*
Y7580D02*
D03*
Y5040D02*
D03*
X5790Y7580D02*
D03*
Y5040D02*
D03*
X3250Y15200D02*
D03*
Y12660D02*
D03*
Y10120D02*
D03*
X5790Y12660D02*
D03*
Y15200D02*
D03*
Y10120D02*
D03*
Y17740D02*
D03*
Y20280D02*
D03*
X3250Y17740D02*
D03*
Y20280D02*
D03*
X10870Y27900D02*
D03*
Y30440D02*
D03*
Y38060D02*
D03*
Y35520D02*
D03*
Y32980D02*
D03*
Y25360D02*
D03*
Y22820D02*
D03*
X64210Y48220D02*
D03*
Y45680D02*
D03*
Y43140D02*
D03*
X66750Y45680D02*
D03*
Y48220D02*
D03*
Y50760D02*
D03*
Y43140D02*
D03*
Y35520D02*
D03*
Y40600D02*
D03*
Y38060D02*
D03*
X64210Y35520D02*
D03*
Y38060D02*
D03*
Y40600D02*
D03*
Y27900D02*
D03*
Y25360D02*
D03*
Y22820D02*
D03*
X66750Y25360D02*
D03*
Y27900D02*
D03*
Y22820D02*
D03*
Y30440D02*
D03*
Y32980D02*
D03*
X64210Y30440D02*
D03*
Y32980D02*
D03*
Y7580D02*
D03*
Y5040D02*
D03*
X66750Y7580D02*
D03*
Y5040D02*
D03*
X64210Y15200D02*
D03*
Y12660D02*
D03*
Y10120D02*
D03*
X66750Y12660D02*
D03*
Y15200D02*
D03*
Y10120D02*
D03*
Y17740D02*
D03*
Y20280D02*
D03*
X64210Y17740D02*
D03*
Y20280D02*
D03*
X59130Y17740D02*
D03*
Y15200D02*
D03*
Y7580D02*
D03*
Y10120D02*
D03*
Y12660D02*
D03*
Y20280D02*
D03*
Y22820D02*
D03*
D126*
X27270Y80040D02*
D03*
X35635Y41235D02*
D03*
X44985D02*
D03*
X11190Y80040D02*
D03*
D127*
X10870Y50760D02*
D03*
X18220Y21850D02*
D03*
X59130Y60880D02*
D03*
X66750Y76160D02*
D03*
X59130Y26884D02*
D03*
X10870Y17740D02*
D03*
X3250Y76160D02*
D03*
Y50760D02*
D03*
X10870Y40600D02*
D03*
X64210Y50760D02*
D03*
X59130Y5040D02*
D03*
D128*
X10395Y60520D02*
D03*
Y71410D02*
D03*
D129*
Y62790D02*
D03*
Y69140D02*
D03*
D130*
X37500Y78350D02*
D03*
X32500D02*
D03*
D131*
X38500Y81050D02*
D03*
X31500D02*
D03*
D132*
X32460Y20990D02*
D03*
Y27190D02*
D03*
M02*
