G04 Layer_Color=16711935*
%FSLAX43Y43*%
%MOMM*%
G71*
G01*
G75*
%ADD66C,0.100*%
%ADD83C,1.200*%
%ADD124C,3.300*%
%ADD125C,1.950*%
%ADD126R,1.950X1.950*%
%ADD127R,1.950X1.950*%
%ADD128C,1.290*%
%ADD129C,1.070*%
%ADD130C,1.600*%
%ADD131O,1.300X2.000*%
%ADD132C,1.100*%
%ADD133R,8.000X2.500*%
G36*
X35670Y17390D02*
Y16690D01*
X34570D01*
Y17390D01*
X35120Y17940D01*
X35670Y17390D01*
D02*
G37*
G36*
X34320D02*
Y16690D01*
X33220D01*
Y17390D01*
X33770Y17940D01*
X34320Y17390D01*
D02*
G37*
G36*
X32970D02*
Y16690D01*
X31870D01*
Y17390D01*
X32420Y17940D01*
X32970Y17390D01*
D02*
G37*
G36*
X20850Y16675D02*
X19750D01*
Y18025D01*
X20300Y17475D01*
Y17475D01*
X20850Y18025D01*
Y16675D01*
D02*
G37*
G36*
X39745Y17390D02*
Y16690D01*
X38645D01*
Y17390D01*
X39195Y17940D01*
X39745Y17390D01*
D02*
G37*
G36*
X37020D02*
Y16690D01*
X35920D01*
Y17390D01*
X36470Y17940D01*
X37020Y17390D01*
D02*
G37*
G36*
X27570D02*
Y16690D01*
X26470D01*
Y17390D01*
X27020Y17940D01*
X27570Y17390D01*
D02*
G37*
G36*
X26220D02*
Y16690D01*
X25120D01*
Y17390D01*
X25670Y17940D01*
X26220Y17390D01*
D02*
G37*
G36*
X54450Y14850D02*
X53900Y15400D01*
Y15400D01*
X53350Y14850D01*
Y16200D01*
X54450D01*
Y14850D01*
D02*
G37*
G36*
X31620Y17390D02*
Y16690D01*
X30520D01*
Y17390D01*
X31070Y17940D01*
X31620Y17390D01*
D02*
G37*
G36*
X30270D02*
Y16690D01*
X29170D01*
Y17390D01*
X29720Y17940D01*
X30270Y17390D01*
D02*
G37*
G36*
X28920D02*
Y16690D01*
X27820D01*
Y17390D01*
X28370Y17940D01*
X28920Y17390D01*
D02*
G37*
G36*
X35670Y17490D02*
X35120Y18040D01*
Y18040D01*
X34570Y17490D01*
Y18840D01*
X35670D01*
Y17490D01*
D02*
G37*
G36*
X34320D02*
X33770Y18040D01*
Y18040D01*
X33220Y17490D01*
Y18840D01*
X34320D01*
Y17490D01*
D02*
G37*
G36*
X32970D02*
X32420Y18040D01*
Y18040D01*
X31870Y17490D01*
Y18840D01*
X32970D01*
Y17490D01*
D02*
G37*
G36*
X39745D02*
X39195Y18040D01*
Y18040D01*
X38645Y17490D01*
Y18840D01*
X39745D01*
Y17490D01*
D02*
G37*
G36*
X38395Y16690D02*
X37295D01*
Y18040D01*
X37845Y17490D01*
Y17490D01*
X38395Y18040D01*
Y16690D01*
D02*
G37*
G36*
X37020Y17490D02*
X36470Y18040D01*
Y18040D01*
X35920Y17490D01*
Y18840D01*
X37020D01*
Y17490D01*
D02*
G37*
G36*
X27570D02*
X27020Y18040D01*
Y18040D01*
X26470Y17490D01*
Y18840D01*
X27570D01*
Y17490D01*
D02*
G37*
G36*
X26220D02*
X25670Y18040D01*
Y18040D01*
X25120Y17490D01*
Y18840D01*
X26220D01*
Y17490D01*
D02*
G37*
G36*
X23125Y16675D02*
X22025D01*
Y18025D01*
X22575Y17475D01*
Y17475D01*
X23125Y18025D01*
Y16675D01*
D02*
G37*
G36*
X31620Y17490D02*
X31070Y18040D01*
Y18040D01*
X30520Y17490D01*
Y18840D01*
X31620D01*
Y17490D01*
D02*
G37*
G36*
X30270D02*
X29720Y18040D01*
Y18040D01*
X29170Y17490D01*
Y18840D01*
X30270D01*
Y17490D01*
D02*
G37*
G36*
X28920D02*
X28370Y18040D01*
Y18040D01*
X27820Y17490D01*
Y18840D01*
X28920D01*
Y17490D01*
D02*
G37*
G36*
X54450Y14750D02*
Y14050D01*
X53350D01*
Y14750D01*
X53900Y15300D01*
X54450Y14750D01*
D02*
G37*
G36*
X56172Y-12154D02*
X56222Y-12159D01*
X56269Y-12167D01*
X56314Y-12181D01*
X56355Y-12195D01*
X56394Y-12212D01*
X56430Y-12229D01*
X56461Y-12248D01*
X56491Y-12265D01*
X56516Y-12284D01*
X56539Y-12301D01*
X56555Y-12315D01*
X56569Y-12328D01*
X56580Y-12337D01*
X56586Y-12342D01*
X56589Y-12345D01*
X56619Y-12384D01*
X56647Y-12426D01*
X56672Y-12467D01*
X56694Y-12512D01*
X56711Y-12559D01*
X56725Y-12603D01*
X56747Y-12692D01*
X56755Y-12731D01*
X56761Y-12770D01*
X56763Y-12803D01*
X56766Y-12834D01*
X56769Y-12859D01*
Y-12875D01*
Y-12889D01*
Y-12892D01*
X56766Y-12953D01*
X56761Y-13011D01*
X56752Y-13067D01*
X56741Y-13117D01*
X56727Y-13164D01*
X56714Y-13209D01*
X56697Y-13247D01*
X56680Y-13283D01*
X56664Y-13314D01*
X56647Y-13342D01*
X56633Y-13364D01*
X56619Y-13383D01*
X56608Y-13400D01*
X56600Y-13411D01*
X56594Y-13417D01*
X56591Y-13420D01*
X56555Y-13453D01*
X56519Y-13481D01*
X56480Y-13506D01*
X56439Y-13528D01*
X56400Y-13544D01*
X56358Y-13561D01*
X56280Y-13583D01*
X56244Y-13589D01*
X56211Y-13594D01*
X56180Y-13600D01*
X56155Y-13603D01*
X56136Y-13606D01*
X56106D01*
X56019Y-13600D01*
X55942Y-13586D01*
X55872Y-13569D01*
X55845Y-13558D01*
X55817Y-13547D01*
X55792Y-13536D01*
X55770Y-13525D01*
X55753Y-13517D01*
X55736Y-13508D01*
X55725Y-13500D01*
X55717Y-13494D01*
X55711Y-13489D01*
X55709D01*
X55653Y-13439D01*
X55609Y-13386D01*
X55570Y-13331D01*
X55542Y-13278D01*
X55520Y-13231D01*
X55511Y-13209D01*
X55503Y-13192D01*
X55498Y-13175D01*
X55495Y-13164D01*
X55492Y-13159D01*
Y-13156D01*
X55736Y-13125D01*
X55758Y-13178D01*
X55783Y-13222D01*
X55808Y-13261D01*
X55831Y-13292D01*
X55850Y-13314D01*
X55867Y-13331D01*
X55881Y-13342D01*
X55883Y-13345D01*
X55920Y-13367D01*
X55956Y-13383D01*
X55994Y-13395D01*
X56028Y-13403D01*
X56058Y-13408D01*
X56083Y-13411D01*
X56106D01*
X56139Y-13408D01*
X56169Y-13406D01*
X56225Y-13392D01*
X56275Y-13372D01*
X56319Y-13350D01*
X56353Y-13331D01*
X56378Y-13311D01*
X56394Y-13297D01*
X56397Y-13292D01*
X56400D01*
X56439Y-13242D01*
X56469Y-13186D01*
X56491Y-13125D01*
X56508Y-13070D01*
X56516Y-13020D01*
X56522Y-12998D01*
X56525Y-12978D01*
Y-12961D01*
X56528Y-12950D01*
Y-12942D01*
Y-12939D01*
X55486D01*
X55484Y-12911D01*
Y-12892D01*
Y-12881D01*
Y-12878D01*
X55486Y-12814D01*
X55492Y-12756D01*
X55500Y-12700D01*
X55511Y-12648D01*
X55525Y-12601D01*
X55539Y-12556D01*
X55556Y-12517D01*
X55572Y-12481D01*
X55589Y-12448D01*
X55606Y-12420D01*
X55620Y-12398D01*
X55634Y-12378D01*
X55645Y-12362D01*
X55653Y-12351D01*
X55659Y-12345D01*
X55661Y-12342D01*
X55695Y-12309D01*
X55731Y-12279D01*
X55770Y-12254D01*
X55808Y-12231D01*
X55847Y-12212D01*
X55883Y-12198D01*
X55922Y-12184D01*
X55956Y-12176D01*
X55992Y-12167D01*
X56022Y-12162D01*
X56050Y-12156D01*
X56072Y-12154D01*
X56092Y-12151D01*
X56119D01*
X56172Y-12154D01*
D02*
G37*
G36*
X71300Y-13575D02*
X70567D01*
X70500Y-13572D01*
X70442Y-13569D01*
X70389Y-13564D01*
X70345Y-13558D01*
X70309Y-13553D01*
X70281Y-13550D01*
X70264Y-13544D01*
X70259D01*
X70212Y-13531D01*
X70173Y-13517D01*
X70137Y-13500D01*
X70106Y-13483D01*
X70081Y-13472D01*
X70062Y-13461D01*
X70050Y-13453D01*
X70048Y-13450D01*
X70017Y-13425D01*
X69989Y-13395D01*
X69967Y-13364D01*
X69945Y-13336D01*
X69928Y-13308D01*
X69917Y-13289D01*
X69909Y-13275D01*
X69906Y-13270D01*
X69887Y-13225D01*
X69873Y-13181D01*
X69862Y-13139D01*
X69856Y-13100D01*
X69851Y-13067D01*
X69848Y-13039D01*
Y-13023D01*
Y-13020D01*
Y-13017D01*
X69851Y-12956D01*
X69862Y-12900D01*
X69878Y-12853D01*
X69895Y-12809D01*
X69912Y-12775D01*
X69928Y-12750D01*
X69939Y-12734D01*
X69942Y-12728D01*
X69981Y-12684D01*
X70023Y-12648D01*
X70070Y-12617D01*
X70112Y-12592D01*
X70150Y-12573D01*
X70184Y-12562D01*
X70195Y-12556D01*
X70203Y-12553D01*
X70209Y-12551D01*
X70212D01*
X70164Y-12523D01*
X70123Y-12495D01*
X70089Y-12465D01*
X70062Y-12437D01*
X70039Y-12415D01*
X70023Y-12392D01*
X70014Y-12381D01*
X70012Y-12376D01*
X69989Y-12334D01*
X69973Y-12295D01*
X69959Y-12256D01*
X69951Y-12220D01*
X69945Y-12190D01*
X69942Y-12165D01*
Y-12151D01*
Y-12145D01*
X69945Y-12098D01*
X69953Y-12051D01*
X69967Y-12009D01*
X69981Y-11970D01*
X69995Y-11937D01*
X70009Y-11915D01*
X70017Y-11898D01*
X70020Y-11893D01*
X70050Y-11851D01*
X70084Y-11812D01*
X70120Y-11782D01*
X70153Y-11757D01*
X70181Y-11737D01*
X70206Y-11723D01*
X70223Y-11715D01*
X70225Y-11712D01*
X70228D01*
X70281Y-11693D01*
X70339Y-11679D01*
X70398Y-11668D01*
X70453Y-11662D01*
X70503Y-11657D01*
X70525D01*
X70545Y-11654D01*
X71300D01*
Y-13575D01*
D02*
G37*
G36*
X58785D02*
X58549D01*
Y-11654D01*
X58785D01*
Y-13575D01*
D02*
G37*
G36*
X64467Y-12154D02*
X64515Y-12162D01*
X64556Y-12170D01*
X64592Y-12181D01*
X64623Y-12195D01*
X64645Y-12204D01*
X64659Y-12212D01*
X64665Y-12215D01*
X64703Y-12240D01*
X64737Y-12267D01*
X64767Y-12295D01*
X64792Y-12323D01*
X64812Y-12345D01*
X64828Y-12365D01*
X64837Y-12376D01*
X64840Y-12381D01*
Y-12181D01*
X65051D01*
Y-13575D01*
X64815D01*
Y-12853D01*
X64812Y-12787D01*
X64809Y-12728D01*
X64803Y-12678D01*
X64795Y-12637D01*
X64787Y-12606D01*
X64781Y-12584D01*
X64778Y-12570D01*
X64776Y-12564D01*
X64759Y-12528D01*
X64740Y-12498D01*
X64720Y-12470D01*
X64701Y-12448D01*
X64681Y-12431D01*
X64667Y-12420D01*
X64656Y-12412D01*
X64654Y-12409D01*
X64620Y-12392D01*
X64590Y-12378D01*
X64556Y-12370D01*
X64529Y-12362D01*
X64506Y-12359D01*
X64487Y-12356D01*
X64470D01*
X64423Y-12359D01*
X64384Y-12367D01*
X64351Y-12381D01*
X64326Y-12395D01*
X64306Y-12412D01*
X64293Y-12423D01*
X64284Y-12434D01*
X64282Y-12437D01*
X64262Y-12470D01*
X64248Y-12506D01*
X64237Y-12545D01*
X64232Y-12584D01*
X64226Y-12617D01*
X64223Y-12648D01*
Y-12659D01*
Y-12664D01*
Y-12670D01*
Y-12673D01*
Y-13575D01*
X63987D01*
Y-12767D01*
X63982Y-12692D01*
X63971Y-12628D01*
X63957Y-12576D01*
X63937Y-12531D01*
X63921Y-12498D01*
X63904Y-12476D01*
X63893Y-12462D01*
X63890Y-12456D01*
X63851Y-12423D01*
X63810Y-12398D01*
X63768Y-12381D01*
X63729Y-12367D01*
X63696Y-12362D01*
X63668Y-12359D01*
X63657Y-12356D01*
X63643D01*
X63612Y-12359D01*
X63587Y-12362D01*
X63562Y-12367D01*
X63543Y-12376D01*
X63524Y-12384D01*
X63512Y-12390D01*
X63504Y-12392D01*
X63501Y-12395D01*
X63479Y-12412D01*
X63463Y-12428D01*
X63449Y-12445D01*
X63438Y-12462D01*
X63429Y-12476D01*
X63424Y-12487D01*
X63418Y-12495D01*
Y-12498D01*
X63410Y-12523D01*
X63404Y-12556D01*
X63401Y-12589D01*
X63399Y-12623D01*
X63396Y-12653D01*
Y-12678D01*
Y-12695D01*
Y-12698D01*
Y-12700D01*
Y-13575D01*
X63160D01*
Y-12620D01*
Y-12576D01*
X63165Y-12537D01*
X63171Y-12498D01*
X63177Y-12465D01*
X63185Y-12431D01*
X63196Y-12403D01*
X63204Y-12378D01*
X63215Y-12353D01*
X63227Y-12334D01*
X63235Y-12315D01*
X63254Y-12290D01*
X63265Y-12273D01*
X63271Y-12267D01*
X63315Y-12229D01*
X63368Y-12201D01*
X63421Y-12179D01*
X63471Y-12165D01*
X63518Y-12156D01*
X63537Y-12154D01*
X63557D01*
X63571Y-12151D01*
X63590D01*
X63640Y-12154D01*
X63685Y-12162D01*
X63729Y-12173D01*
X63771Y-12190D01*
X63810Y-12209D01*
X63846Y-12229D01*
X63876Y-12251D01*
X63907Y-12273D01*
X63934Y-12298D01*
X63957Y-12320D01*
X63976Y-12340D01*
X63993Y-12359D01*
X64007Y-12376D01*
X64015Y-12387D01*
X64021Y-12395D01*
X64023Y-12398D01*
X64040Y-12356D01*
X64062Y-12320D01*
X64087Y-12290D01*
X64109Y-12265D01*
X64132Y-12242D01*
X64148Y-12229D01*
X64159Y-12220D01*
X64165Y-12217D01*
X64204Y-12195D01*
X64245Y-12179D01*
X64287Y-12167D01*
X64329Y-12159D01*
X64362Y-12154D01*
X64393Y-12151D01*
X64418D01*
X64467Y-12154D01*
D02*
G37*
G36*
X67996Y-11837D02*
Y-12181D01*
X68171D01*
Y-12365D01*
X67996D01*
Y-13170D01*
Y-13209D01*
Y-13242D01*
X67993Y-13272D01*
X67991Y-13303D01*
Y-13328D01*
X67988Y-13350D01*
X67982Y-13386D01*
X67977Y-13414D01*
X67974Y-13433D01*
X67968Y-13445D01*
Y-13447D01*
X67957Y-13472D01*
X67941Y-13492D01*
X67924Y-13511D01*
X67910Y-13525D01*
X67893Y-13539D01*
X67882Y-13547D01*
X67874Y-13553D01*
X67871Y-13556D01*
X67841Y-13569D01*
X67810Y-13578D01*
X67777Y-13586D01*
X67743Y-13589D01*
X67716Y-13592D01*
X67693Y-13594D01*
X67671D01*
X67610Y-13592D01*
X67580Y-13589D01*
X67552Y-13583D01*
X67527Y-13581D01*
X67507Y-13578D01*
X67496Y-13575D01*
X67491D01*
X67521Y-13367D01*
X67544Y-13370D01*
X67566Y-13372D01*
X67585D01*
X67599Y-13375D01*
X67627D01*
X67663Y-13372D01*
X67688Y-13367D01*
X67702Y-13361D01*
X67707Y-13358D01*
X67727Y-13345D01*
X67738Y-13331D01*
X67746Y-13320D01*
X67749Y-13314D01*
X67752Y-13300D01*
X67755Y-13281D01*
X67757Y-13236D01*
X67760Y-13217D01*
Y-13200D01*
Y-13189D01*
Y-13184D01*
Y-12365D01*
X67521D01*
Y-12181D01*
X67760D01*
Y-11696D01*
X67996Y-11837D01*
D02*
G37*
G36*
X67249D02*
Y-12181D01*
X67424D01*
Y-12365D01*
X67249D01*
Y-13170D01*
Y-13209D01*
Y-13242D01*
X67246Y-13272D01*
X67244Y-13303D01*
Y-13328D01*
X67241Y-13350D01*
X67235Y-13386D01*
X67230Y-13414D01*
X67227Y-13433D01*
X67222Y-13445D01*
Y-13447D01*
X67210Y-13472D01*
X67194Y-13492D01*
X67177Y-13511D01*
X67163Y-13525D01*
X67147Y-13539D01*
X67135Y-13547D01*
X67127Y-13553D01*
X67124Y-13556D01*
X67094Y-13569D01*
X67063Y-13578D01*
X67030Y-13586D01*
X66997Y-13589D01*
X66969Y-13592D01*
X66947Y-13594D01*
X66924D01*
X66863Y-13592D01*
X66833Y-13589D01*
X66805Y-13583D01*
X66780Y-13581D01*
X66761Y-13578D01*
X66750Y-13575D01*
X66744D01*
X66775Y-13367D01*
X66797Y-13370D01*
X66819Y-13372D01*
X66838D01*
X66852Y-13375D01*
X66880D01*
X66916Y-13372D01*
X66941Y-13367D01*
X66955Y-13361D01*
X66961Y-13358D01*
X66980Y-13345D01*
X66991Y-13331D01*
X66999Y-13320D01*
X67002Y-13314D01*
X67005Y-13300D01*
X67008Y-13281D01*
X67011Y-13236D01*
X67013Y-13217D01*
Y-13200D01*
Y-13189D01*
Y-13184D01*
Y-12365D01*
X66775D01*
Y-12181D01*
X67013D01*
Y-11696D01*
X67249Y-11837D01*
D02*
G37*
G36*
X59756Y-12154D02*
X59801Y-12156D01*
X59887Y-12176D01*
X59962Y-12201D01*
X59995Y-12215D01*
X60026Y-12229D01*
X60053Y-12242D01*
X60076Y-12256D01*
X60098Y-12270D01*
X60114Y-12281D01*
X60128Y-12292D01*
X60139Y-12301D01*
X60145Y-12304D01*
X60148Y-12306D01*
X60187Y-12342D01*
X60217Y-12384D01*
X60248Y-12428D01*
X60270Y-12473D01*
X60292Y-12520D01*
X60309Y-12570D01*
X60323Y-12617D01*
X60334Y-12662D01*
X60345Y-12706D01*
X60350Y-12745D01*
X60356Y-12784D01*
X60359Y-12814D01*
Y-12842D01*
X60361Y-12862D01*
Y-12873D01*
Y-12878D01*
X60359Y-12942D01*
X60353Y-13003D01*
X60345Y-13059D01*
X60334Y-13111D01*
X60320Y-13159D01*
X60306Y-13203D01*
X60289Y-13245D01*
X60273Y-13281D01*
X60256Y-13314D01*
X60239Y-13342D01*
X60225Y-13364D01*
X60212Y-13383D01*
X60200Y-13400D01*
X60192Y-13411D01*
X60187Y-13417D01*
X60184Y-13420D01*
X60148Y-13453D01*
X60112Y-13481D01*
X60073Y-13506D01*
X60034Y-13528D01*
X59995Y-13544D01*
X59953Y-13561D01*
X59878Y-13583D01*
X59845Y-13589D01*
X59812Y-13594D01*
X59784Y-13600D01*
X59759Y-13603D01*
X59737Y-13606D01*
X59709D01*
X59642Y-13603D01*
X59581Y-13592D01*
X59523Y-13578D01*
X59476Y-13564D01*
X59434Y-13547D01*
X59418Y-13542D01*
X59404Y-13536D01*
X59390Y-13531D01*
X59381Y-13525D01*
X59379Y-13522D01*
X59376D01*
X59320Y-13486D01*
X59273Y-13447D01*
X59232Y-13408D01*
X59198Y-13370D01*
X59173Y-13336D01*
X59154Y-13308D01*
X59148Y-13297D01*
X59143Y-13289D01*
X59140Y-13286D01*
Y-13283D01*
X59112Y-13220D01*
X59093Y-13150D01*
X59076Y-13081D01*
X59068Y-13011D01*
X59062Y-12981D01*
Y-12953D01*
X59059Y-12925D01*
X59057Y-12903D01*
Y-12884D01*
Y-12870D01*
Y-12862D01*
Y-12859D01*
X59059Y-12798D01*
X59065Y-12742D01*
X59073Y-12689D01*
X59084Y-12639D01*
X59098Y-12592D01*
X59115Y-12551D01*
X59132Y-12509D01*
X59148Y-12476D01*
X59165Y-12445D01*
X59182Y-12417D01*
X59198Y-12392D01*
X59212Y-12373D01*
X59223Y-12359D01*
X59232Y-12348D01*
X59237Y-12342D01*
X59240Y-12340D01*
X59276Y-12306D01*
X59312Y-12279D01*
X59351Y-12251D01*
X59390Y-12231D01*
X59429Y-12212D01*
X59468Y-12198D01*
X59542Y-12173D01*
X59579Y-12167D01*
X59609Y-12162D01*
X59637Y-12156D01*
X59662Y-12154D01*
X59681Y-12151D01*
X59709D01*
X59756Y-12154D01*
D02*
G37*
G36*
X57299Y-12342D02*
X57324Y-12312D01*
X57352Y-12287D01*
X57377Y-12262D01*
X57405Y-12242D01*
X57427Y-12229D01*
X57444Y-12215D01*
X57455Y-12209D01*
X57460Y-12206D01*
X57496Y-12187D01*
X57535Y-12173D01*
X57574Y-12165D01*
X57610Y-12156D01*
X57641Y-12154D01*
X57663Y-12151D01*
X57685D01*
X57746Y-12154D01*
X57805Y-12165D01*
X57857Y-12179D01*
X57902Y-12195D01*
X57941Y-12215D01*
X57968Y-12229D01*
X57979Y-12234D01*
X57988Y-12240D01*
X57991Y-12242D01*
X57993D01*
X58043Y-12279D01*
X58085Y-12323D01*
X58121Y-12365D01*
X58149Y-12406D01*
X58171Y-12445D01*
X58188Y-12476D01*
X58193Y-12487D01*
X58199Y-12495D01*
X58202Y-12501D01*
Y-12503D01*
X58224Y-12567D01*
X58240Y-12634D01*
X58254Y-12698D01*
X58263Y-12756D01*
X58268Y-12806D01*
Y-12828D01*
X58271Y-12845D01*
Y-12862D01*
Y-12873D01*
Y-12878D01*
Y-12881D01*
X58268Y-12959D01*
X58260Y-13031D01*
X58246Y-13095D01*
X58232Y-13150D01*
X58227Y-13175D01*
X58221Y-13195D01*
X58213Y-13214D01*
X58207Y-13231D01*
X58202Y-13242D01*
X58199Y-13250D01*
X58196Y-13256D01*
Y-13259D01*
X58165Y-13317D01*
X58129Y-13367D01*
X58093Y-13411D01*
X58057Y-13447D01*
X58027Y-13475D01*
X58002Y-13497D01*
X57985Y-13508D01*
X57982Y-13514D01*
X57979D01*
X57927Y-13544D01*
X57874Y-13567D01*
X57821Y-13583D01*
X57774Y-13594D01*
X57735Y-13600D01*
X57702Y-13603D01*
X57691Y-13606D01*
X57674D01*
X57627Y-13603D01*
X57582Y-13597D01*
X57541Y-13586D01*
X57505Y-13572D01*
X57469Y-13558D01*
X57435Y-13542D01*
X57408Y-13522D01*
X57383Y-13503D01*
X57358Y-13483D01*
X57338Y-13464D01*
X57322Y-13447D01*
X57308Y-13433D01*
X57297Y-13420D01*
X57288Y-13408D01*
X57285Y-13403D01*
X57283Y-13400D01*
Y-13575D01*
X57063D01*
Y-11654D01*
X57299D01*
Y-12342D01*
D02*
G37*
G36*
X61444Y-11623D02*
X61508Y-11632D01*
X61569Y-11643D01*
X61622Y-11654D01*
X61664Y-11665D01*
X61683Y-11671D01*
X61697Y-11676D01*
X61708Y-11682D01*
X61716Y-11684D01*
X61722Y-11687D01*
X61725D01*
X61780Y-11715D01*
X61830Y-11745D01*
X61872Y-11779D01*
X61905Y-11809D01*
X61930Y-11837D01*
X61949Y-11859D01*
X61963Y-11876D01*
X61966Y-11879D01*
Y-11882D01*
X61994Y-11929D01*
X62013Y-11976D01*
X62027Y-12023D01*
X62036Y-12065D01*
X62041Y-12101D01*
X62047Y-12129D01*
Y-12140D01*
Y-12148D01*
Y-12151D01*
Y-12154D01*
X62044Y-12201D01*
X62036Y-12245D01*
X62024Y-12287D01*
X62013Y-12323D01*
X62002Y-12351D01*
X61991Y-12373D01*
X61983Y-12387D01*
X61980Y-12392D01*
X61952Y-12431D01*
X61919Y-12467D01*
X61886Y-12498D01*
X61852Y-12523D01*
X61825Y-12545D01*
X61800Y-12559D01*
X61783Y-12570D01*
X61780Y-12573D01*
X61777D01*
X61755Y-12584D01*
X61730Y-12595D01*
X61675Y-12614D01*
X61611Y-12634D01*
X61550Y-12653D01*
X61494Y-12670D01*
X61469Y-12676D01*
X61447Y-12681D01*
X61430Y-12687D01*
X61416Y-12689D01*
X61408Y-12692D01*
X61405D01*
X61358Y-12703D01*
X61314Y-12714D01*
X61275Y-12725D01*
X61242Y-12734D01*
X61208Y-12742D01*
X61180Y-12750D01*
X61155Y-12756D01*
X61136Y-12764D01*
X61117Y-12770D01*
X61103Y-12773D01*
X61081Y-12781D01*
X61067Y-12784D01*
X61064Y-12787D01*
X61022Y-12803D01*
X60986Y-12823D01*
X60956Y-12842D01*
X60933Y-12859D01*
X60914Y-12875D01*
X60903Y-12887D01*
X60895Y-12895D01*
X60892Y-12898D01*
X60872Y-12923D01*
X60858Y-12950D01*
X60850Y-12978D01*
X60842Y-13000D01*
X60839Y-13023D01*
X60836Y-13039D01*
Y-13053D01*
Y-13056D01*
X60839Y-13089D01*
X60845Y-13120D01*
X60853Y-13147D01*
X60864Y-13170D01*
X60875Y-13192D01*
X60883Y-13206D01*
X60889Y-13217D01*
X60892Y-13220D01*
X60914Y-13247D01*
X60942Y-13270D01*
X60969Y-13289D01*
X60994Y-13308D01*
X61019Y-13320D01*
X61039Y-13331D01*
X61053Y-13336D01*
X61058Y-13339D01*
X61100Y-13353D01*
X61144Y-13364D01*
X61189Y-13370D01*
X61228Y-13375D01*
X61261Y-13378D01*
X61289Y-13381D01*
X61314D01*
X61375Y-13378D01*
X61430Y-13372D01*
X61480Y-13364D01*
X61525Y-13353D01*
X61561Y-13342D01*
X61589Y-13333D01*
X61597Y-13331D01*
X61605Y-13328D01*
X61608Y-13325D01*
X61611D01*
X61655Y-13303D01*
X61697Y-13278D01*
X61727Y-13253D01*
X61755Y-13228D01*
X61777Y-13209D01*
X61791Y-13189D01*
X61800Y-13178D01*
X61802Y-13175D01*
X61822Y-13139D01*
X61841Y-13100D01*
X61852Y-13059D01*
X61863Y-13023D01*
X61872Y-12986D01*
X61877Y-12961D01*
Y-12950D01*
X61880Y-12942D01*
Y-12939D01*
Y-12936D01*
X62119Y-12959D01*
X62113Y-13028D01*
X62102Y-13095D01*
X62086Y-13153D01*
X62066Y-13206D01*
X62047Y-13247D01*
X62038Y-13264D01*
X62033Y-13278D01*
X62024Y-13289D01*
X62022Y-13297D01*
X62016Y-13303D01*
Y-13306D01*
X61974Y-13358D01*
X61930Y-13406D01*
X61883Y-13445D01*
X61838Y-13478D01*
X61800Y-13503D01*
X61766Y-13519D01*
X61755Y-13525D01*
X61747Y-13531D01*
X61741Y-13533D01*
X61738D01*
X61669Y-13558D01*
X61597Y-13578D01*
X61525Y-13589D01*
X61455Y-13600D01*
X61422Y-13603D01*
X61394Y-13606D01*
X61369D01*
X61347Y-13608D01*
X61303D01*
X61228Y-13606D01*
X61158Y-13597D01*
X61094Y-13583D01*
X61042Y-13569D01*
X60997Y-13558D01*
X60978Y-13550D01*
X60961Y-13544D01*
X60950Y-13539D01*
X60942Y-13536D01*
X60936Y-13533D01*
X60933D01*
X60875Y-13503D01*
X60825Y-13470D01*
X60781Y-13433D01*
X60745Y-13400D01*
X60717Y-13372D01*
X60697Y-13347D01*
X60684Y-13331D01*
X60681Y-13328D01*
Y-13325D01*
X60650Y-13272D01*
X60628Y-13222D01*
X60614Y-13175D01*
X60603Y-13131D01*
X60597Y-13092D01*
X60592Y-13061D01*
Y-13050D01*
Y-13042D01*
Y-13039D01*
Y-13036D01*
X60595Y-12981D01*
X60603Y-12928D01*
X60617Y-12881D01*
X60631Y-12842D01*
X60647Y-12809D01*
X60659Y-12784D01*
X60670Y-12770D01*
X60672Y-12764D01*
X60706Y-12723D01*
X60745Y-12684D01*
X60786Y-12651D01*
X60828Y-12620D01*
X60864Y-12598D01*
X60895Y-12581D01*
X60906Y-12576D01*
X60914Y-12570D01*
X60919Y-12567D01*
X60922D01*
X60944Y-12556D01*
X60972Y-12548D01*
X61003Y-12537D01*
X61036Y-12526D01*
X61105Y-12506D01*
X61178Y-12487D01*
X61211Y-12478D01*
X61242Y-12470D01*
X61272Y-12462D01*
X61297Y-12456D01*
X61316Y-12451D01*
X61333Y-12448D01*
X61344Y-12445D01*
X61347D01*
X61403Y-12431D01*
X61453Y-12420D01*
X61497Y-12406D01*
X61536Y-12395D01*
X61572Y-12381D01*
X61602Y-12370D01*
X61630Y-12359D01*
X61655Y-12351D01*
X61675Y-12340D01*
X61691Y-12331D01*
X61702Y-12326D01*
X61713Y-12317D01*
X61727Y-12309D01*
X61730Y-12306D01*
X61755Y-12279D01*
X61772Y-12251D01*
X61786Y-12223D01*
X61794Y-12195D01*
X61800Y-12173D01*
X61802Y-12154D01*
Y-12142D01*
Y-12137D01*
X61797Y-12092D01*
X61786Y-12054D01*
X61769Y-12020D01*
X61750Y-11990D01*
X61733Y-11968D01*
X61716Y-11948D01*
X61705Y-11937D01*
X61700Y-11934D01*
X61677Y-11920D01*
X61655Y-11906D01*
X61602Y-11884D01*
X61547Y-11870D01*
X61491Y-11859D01*
X61441Y-11854D01*
X61419Y-11851D01*
X61403Y-11848D01*
X61364D01*
X61286Y-11851D01*
X61217Y-11862D01*
X61161Y-11879D01*
X61114Y-11895D01*
X61078Y-11912D01*
X61050Y-11929D01*
X61036Y-11940D01*
X61031Y-11943D01*
X60992Y-11981D01*
X60961Y-12023D01*
X60936Y-12068D01*
X60919Y-12112D01*
X60908Y-12154D01*
X60900Y-12184D01*
X60897Y-12198D01*
X60895Y-12206D01*
Y-12212D01*
Y-12215D01*
X60650Y-12195D01*
X60656Y-12134D01*
X60670Y-12079D01*
X60684Y-12026D01*
X60703Y-11981D01*
X60720Y-11945D01*
X60733Y-11918D01*
X60739Y-11909D01*
X60745Y-11901D01*
X60747Y-11898D01*
Y-11895D01*
X60783Y-11848D01*
X60822Y-11807D01*
X60864Y-11770D01*
X60906Y-11743D01*
X60942Y-11718D01*
X60969Y-11704D01*
X60981Y-11698D01*
X60989Y-11693D01*
X60994Y-11690D01*
X60997D01*
X61058Y-11668D01*
X61125Y-11651D01*
X61186Y-11637D01*
X61244Y-11629D01*
X61297Y-11623D01*
X61316D01*
X61336Y-11621D01*
X61372D01*
X61444Y-11623D01*
D02*
G37*
G36*
X54715Y-12154D02*
X54742Y-12159D01*
X54770Y-12167D01*
X54792Y-12176D01*
X54809Y-12184D01*
X54826Y-12192D01*
X54834Y-12198D01*
X54837Y-12201D01*
X54862Y-12223D01*
X54887Y-12251D01*
X54912Y-12284D01*
X54934Y-12315D01*
X54956Y-12345D01*
X54970Y-12370D01*
X54981Y-12390D01*
X54984Y-12392D01*
Y-12181D01*
X55198D01*
Y-13575D01*
X54962D01*
Y-12848D01*
X54959Y-12792D01*
X54956Y-12742D01*
X54951Y-12695D01*
X54942Y-12653D01*
X54934Y-12620D01*
X54928Y-12595D01*
X54926Y-12578D01*
X54923Y-12573D01*
X54912Y-12542D01*
X54898Y-12517D01*
X54884Y-12495D01*
X54870Y-12476D01*
X54856Y-12462D01*
X54848Y-12451D01*
X54840Y-12445D01*
X54837Y-12442D01*
X54815Y-12426D01*
X54790Y-12415D01*
X54765Y-12406D01*
X54745Y-12401D01*
X54726Y-12398D01*
X54712Y-12395D01*
X54698D01*
X54667Y-12398D01*
X54637Y-12403D01*
X54606Y-12412D01*
X54581Y-12420D01*
X54559Y-12428D01*
X54543Y-12437D01*
X54531Y-12442D01*
X54529Y-12445D01*
X54443Y-12229D01*
X54490Y-12204D01*
X54534Y-12184D01*
X54573Y-12170D01*
X54609Y-12159D01*
X54640Y-12154D01*
X54665Y-12151D01*
X54684D01*
X54715Y-12154D01*
D02*
G37*
G36*
X69012D02*
X69057Y-12156D01*
X69143Y-12176D01*
X69218Y-12201D01*
X69251Y-12215D01*
X69281Y-12229D01*
X69309Y-12242D01*
X69331Y-12256D01*
X69354Y-12270D01*
X69370Y-12281D01*
X69384Y-12292D01*
X69395Y-12301D01*
X69401Y-12304D01*
X69404Y-12306D01*
X69442Y-12342D01*
X69473Y-12384D01*
X69504Y-12428D01*
X69526Y-12473D01*
X69548Y-12520D01*
X69565Y-12570D01*
X69579Y-12617D01*
X69590Y-12662D01*
X69601Y-12706D01*
X69606Y-12745D01*
X69612Y-12784D01*
X69615Y-12814D01*
Y-12842D01*
X69617Y-12862D01*
Y-12873D01*
Y-12878D01*
X69615Y-12942D01*
X69609Y-13003D01*
X69601Y-13059D01*
X69590Y-13111D01*
X69576Y-13159D01*
X69562Y-13203D01*
X69545Y-13245D01*
X69529Y-13281D01*
X69512Y-13314D01*
X69495Y-13342D01*
X69481Y-13364D01*
X69467Y-13383D01*
X69456Y-13400D01*
X69448Y-13411D01*
X69442Y-13417D01*
X69440Y-13420D01*
X69404Y-13453D01*
X69368Y-13481D01*
X69329Y-13506D01*
X69290Y-13528D01*
X69251Y-13544D01*
X69209Y-13561D01*
X69134Y-13583D01*
X69101Y-13589D01*
X69068Y-13594D01*
X69040Y-13600D01*
X69015Y-13603D01*
X68993Y-13606D01*
X68965D01*
X68898Y-13603D01*
X68837Y-13592D01*
X68779Y-13578D01*
X68732Y-13564D01*
X68690Y-13547D01*
X68673Y-13542D01*
X68660Y-13536D01*
X68646Y-13531D01*
X68637Y-13525D01*
X68635Y-13522D01*
X68632D01*
X68576Y-13486D01*
X68529Y-13447D01*
X68487Y-13408D01*
X68454Y-13370D01*
X68429Y-13336D01*
X68410Y-13308D01*
X68404Y-13297D01*
X68399Y-13289D01*
X68396Y-13286D01*
Y-13283D01*
X68368Y-13220D01*
X68349Y-13150D01*
X68332Y-13081D01*
X68324Y-13011D01*
X68318Y-12981D01*
Y-12953D01*
X68315Y-12925D01*
X68313Y-12903D01*
Y-12884D01*
Y-12870D01*
Y-12862D01*
Y-12859D01*
X68315Y-12798D01*
X68321Y-12742D01*
X68329Y-12689D01*
X68340Y-12639D01*
X68354Y-12592D01*
X68371Y-12551D01*
X68388Y-12509D01*
X68404Y-12476D01*
X68421Y-12445D01*
X68438Y-12417D01*
X68454Y-12392D01*
X68468Y-12373D01*
X68479Y-12359D01*
X68487Y-12348D01*
X68493Y-12342D01*
X68496Y-12340D01*
X68532Y-12306D01*
X68568Y-12279D01*
X68607Y-12251D01*
X68646Y-12231D01*
X68685Y-12212D01*
X68723Y-12198D01*
X68798Y-12173D01*
X68835Y-12167D01*
X68865Y-12162D01*
X68893Y-12156D01*
X68918Y-12154D01*
X68937Y-12151D01*
X68965D01*
X69012Y-12154D01*
D02*
G37*
G36*
X66025D02*
X66069Y-12156D01*
X66155Y-12176D01*
X66230Y-12201D01*
X66264Y-12215D01*
X66294Y-12229D01*
X66322Y-12242D01*
X66344Y-12256D01*
X66366Y-12270D01*
X66383Y-12281D01*
X66397Y-12292D01*
X66408Y-12301D01*
X66414Y-12304D01*
X66416Y-12306D01*
X66455Y-12342D01*
X66486Y-12384D01*
X66516Y-12428D01*
X66539Y-12473D01*
X66561Y-12520D01*
X66577Y-12570D01*
X66591Y-12617D01*
X66602Y-12662D01*
X66614Y-12706D01*
X66619Y-12745D01*
X66625Y-12784D01*
X66627Y-12814D01*
Y-12842D01*
X66630Y-12862D01*
Y-12873D01*
Y-12878D01*
X66627Y-12942D01*
X66622Y-13003D01*
X66614Y-13059D01*
X66602Y-13111D01*
X66589Y-13159D01*
X66575Y-13203D01*
X66558Y-13245D01*
X66541Y-13281D01*
X66525Y-13314D01*
X66508Y-13342D01*
X66494Y-13364D01*
X66480Y-13383D01*
X66469Y-13400D01*
X66461Y-13411D01*
X66455Y-13417D01*
X66452Y-13420D01*
X66416Y-13453D01*
X66380Y-13481D01*
X66341Y-13506D01*
X66303Y-13528D01*
X66264Y-13544D01*
X66222Y-13561D01*
X66147Y-13583D01*
X66114Y-13589D01*
X66080Y-13594D01*
X66053Y-13600D01*
X66028Y-13603D01*
X66006Y-13606D01*
X65978D01*
X65911Y-13603D01*
X65850Y-13592D01*
X65792Y-13578D01*
X65745Y-13564D01*
X65703Y-13547D01*
X65686Y-13542D01*
X65672Y-13536D01*
X65659Y-13531D01*
X65650Y-13525D01*
X65647Y-13522D01*
X65645D01*
X65589Y-13486D01*
X65542Y-13447D01*
X65500Y-13408D01*
X65467Y-13370D01*
X65442Y-13336D01*
X65423Y-13308D01*
X65417Y-13297D01*
X65411Y-13289D01*
X65409Y-13286D01*
Y-13283D01*
X65381Y-13220D01*
X65361Y-13150D01*
X65345Y-13081D01*
X65336Y-13011D01*
X65331Y-12981D01*
Y-12953D01*
X65328Y-12925D01*
X65325Y-12903D01*
Y-12884D01*
Y-12870D01*
Y-12862D01*
Y-12859D01*
X65328Y-12798D01*
X65334Y-12742D01*
X65342Y-12689D01*
X65353Y-12639D01*
X65367Y-12592D01*
X65384Y-12551D01*
X65400Y-12509D01*
X65417Y-12476D01*
X65434Y-12445D01*
X65450Y-12417D01*
X65467Y-12392D01*
X65481Y-12373D01*
X65492Y-12359D01*
X65500Y-12348D01*
X65506Y-12342D01*
X65509Y-12340D01*
X65545Y-12306D01*
X65581Y-12279D01*
X65620Y-12251D01*
X65659Y-12231D01*
X65697Y-12212D01*
X65736Y-12198D01*
X65811Y-12173D01*
X65847Y-12167D01*
X65878Y-12162D01*
X65906Y-12156D01*
X65931Y-12154D01*
X65950Y-12151D01*
X65978D01*
X66025Y-12154D01*
D02*
G37*
G36*
X16075Y5150D02*
Y4450D01*
X14975D01*
Y5150D01*
X15525Y5700D01*
X16075Y5150D01*
D02*
G37*
G36*
X21800Y4925D02*
X21250Y4375D01*
X20700Y4925D01*
Y5625D01*
X21800D01*
Y4925D01*
D02*
G37*
G36*
Y3475D02*
X20700D01*
Y4825D01*
X21250Y4275D01*
Y4275D01*
X21800Y4825D01*
Y3475D01*
D02*
G37*
G36*
Y8575D02*
X21250Y8025D01*
X20700Y8575D01*
Y9275D01*
X21800D01*
Y8575D01*
D02*
G37*
G36*
Y7125D02*
X20700D01*
Y8475D01*
X21250Y7925D01*
Y7925D01*
X21800Y8475D01*
Y7125D01*
D02*
G37*
G36*
X16075Y5250D02*
X15525Y5800D01*
Y5800D01*
X14975Y5250D01*
Y6600D01*
X16075D01*
Y5250D01*
D02*
G37*
G36*
X29605Y-13575D02*
X29336D01*
Y-13306D01*
X29605D01*
Y-13575D01*
D02*
G37*
G36*
X26951Y-11882D02*
X26318D01*
Y-13575D01*
X26063D01*
Y-11882D01*
X25430D01*
Y-11654D01*
X26951D01*
Y-11882D01*
D02*
G37*
G36*
X24577Y-11623D02*
X24641Y-11632D01*
X24702Y-11643D01*
X24755Y-11654D01*
X24797Y-11665D01*
X24816Y-11671D01*
X24830Y-11676D01*
X24841Y-11682D01*
X24849Y-11684D01*
X24855Y-11687D01*
X24858D01*
X24913Y-11715D01*
X24963Y-11745D01*
X25005Y-11779D01*
X25038Y-11809D01*
X25063Y-11837D01*
X25083Y-11859D01*
X25096Y-11876D01*
X25099Y-11879D01*
Y-11882D01*
X25127Y-11929D01*
X25146Y-11976D01*
X25160Y-12023D01*
X25169Y-12065D01*
X25174Y-12101D01*
X25180Y-12129D01*
Y-12140D01*
Y-12148D01*
Y-12151D01*
Y-12154D01*
X25177Y-12201D01*
X25169Y-12245D01*
X25157Y-12287D01*
X25146Y-12323D01*
X25135Y-12351D01*
X25124Y-12373D01*
X25116Y-12387D01*
X25113Y-12392D01*
X25085Y-12431D01*
X25052Y-12467D01*
X25019Y-12498D01*
X24985Y-12523D01*
X24958Y-12545D01*
X24933Y-12559D01*
X24916Y-12570D01*
X24913Y-12573D01*
X24910D01*
X24888Y-12584D01*
X24863Y-12595D01*
X24808Y-12614D01*
X24744Y-12634D01*
X24683Y-12653D01*
X24627Y-12670D01*
X24602Y-12676D01*
X24580Y-12681D01*
X24563Y-12687D01*
X24549Y-12689D01*
X24541Y-12692D01*
X24538D01*
X24491Y-12703D01*
X24447Y-12714D01*
X24408Y-12725D01*
X24375Y-12734D01*
X24341Y-12742D01*
X24314Y-12750D01*
X24289Y-12756D01*
X24269Y-12764D01*
X24250Y-12770D01*
X24236Y-12773D01*
X24214Y-12781D01*
X24200Y-12784D01*
X24197Y-12787D01*
X24155Y-12803D01*
X24119Y-12823D01*
X24089Y-12842D01*
X24066Y-12859D01*
X24047Y-12875D01*
X24036Y-12887D01*
X24028Y-12895D01*
X24025Y-12898D01*
X24005Y-12923D01*
X23991Y-12950D01*
X23983Y-12978D01*
X23975Y-13000D01*
X23972Y-13023D01*
X23969Y-13039D01*
Y-13053D01*
Y-13056D01*
X23972Y-13089D01*
X23978Y-13120D01*
X23986Y-13147D01*
X23997Y-13170D01*
X24008Y-13192D01*
X24016Y-13206D01*
X24022Y-13217D01*
X24025Y-13220D01*
X24047Y-13247D01*
X24075Y-13270D01*
X24103Y-13289D01*
X24128Y-13308D01*
X24153Y-13320D01*
X24172Y-13331D01*
X24186Y-13336D01*
X24191Y-13339D01*
X24233Y-13353D01*
X24277Y-13364D01*
X24322Y-13370D01*
X24361Y-13375D01*
X24394Y-13378D01*
X24422Y-13381D01*
X24447D01*
X24508Y-13378D01*
X24563Y-13372D01*
X24613Y-13364D01*
X24658Y-13353D01*
X24694Y-13342D01*
X24722Y-13333D01*
X24730Y-13331D01*
X24738Y-13328D01*
X24741Y-13325D01*
X24744D01*
X24788Y-13303D01*
X24830Y-13278D01*
X24860Y-13253D01*
X24888Y-13228D01*
X24910Y-13209D01*
X24924Y-13189D01*
X24933Y-13178D01*
X24935Y-13175D01*
X24955Y-13139D01*
X24974Y-13100D01*
X24985Y-13059D01*
X24996Y-13023D01*
X25005Y-12986D01*
X25010Y-12961D01*
Y-12950D01*
X25013Y-12942D01*
Y-12939D01*
Y-12936D01*
X25252Y-12959D01*
X25246Y-13028D01*
X25235Y-13095D01*
X25219Y-13153D01*
X25199Y-13206D01*
X25180Y-13247D01*
X25171Y-13264D01*
X25166Y-13278D01*
X25157Y-13289D01*
X25155Y-13297D01*
X25149Y-13303D01*
Y-13306D01*
X25108Y-13358D01*
X25063Y-13406D01*
X25016Y-13445D01*
X24971Y-13478D01*
X24933Y-13503D01*
X24899Y-13519D01*
X24888Y-13525D01*
X24880Y-13531D01*
X24874Y-13533D01*
X24872D01*
X24802Y-13558D01*
X24730Y-13578D01*
X24658Y-13589D01*
X24588Y-13600D01*
X24555Y-13603D01*
X24527Y-13606D01*
X24502D01*
X24480Y-13608D01*
X24436D01*
X24361Y-13606D01*
X24291Y-13597D01*
X24227Y-13583D01*
X24175Y-13569D01*
X24130Y-13558D01*
X24111Y-13550D01*
X24094Y-13544D01*
X24083Y-13539D01*
X24075Y-13536D01*
X24069Y-13533D01*
X24066D01*
X24008Y-13503D01*
X23958Y-13470D01*
X23914Y-13433D01*
X23878Y-13400D01*
X23850Y-13372D01*
X23830Y-13347D01*
X23817Y-13331D01*
X23814Y-13328D01*
Y-13325D01*
X23783Y-13272D01*
X23761Y-13222D01*
X23747Y-13175D01*
X23736Y-13131D01*
X23731Y-13092D01*
X23725Y-13061D01*
Y-13050D01*
Y-13042D01*
Y-13039D01*
Y-13036D01*
X23728Y-12981D01*
X23736Y-12928D01*
X23750Y-12881D01*
X23764Y-12842D01*
X23780Y-12809D01*
X23792Y-12784D01*
X23803Y-12770D01*
X23805Y-12764D01*
X23839Y-12723D01*
X23878Y-12684D01*
X23919Y-12651D01*
X23961Y-12620D01*
X23997Y-12598D01*
X24028Y-12581D01*
X24039Y-12576D01*
X24047Y-12570D01*
X24053Y-12567D01*
X24055D01*
X24078Y-12556D01*
X24105Y-12548D01*
X24136Y-12537D01*
X24169Y-12526D01*
X24239Y-12506D01*
X24311Y-12487D01*
X24344Y-12478D01*
X24375Y-12470D01*
X24405Y-12462D01*
X24430Y-12456D01*
X24450Y-12451D01*
X24466Y-12448D01*
X24477Y-12445D01*
X24480D01*
X24536Y-12431D01*
X24586Y-12420D01*
X24630Y-12406D01*
X24669Y-12395D01*
X24705Y-12381D01*
X24736Y-12370D01*
X24763Y-12359D01*
X24788Y-12351D01*
X24808Y-12340D01*
X24824Y-12331D01*
X24835Y-12326D01*
X24847Y-12317D01*
X24860Y-12309D01*
X24863Y-12306D01*
X24888Y-12279D01*
X24905Y-12251D01*
X24919Y-12223D01*
X24927Y-12195D01*
X24933Y-12173D01*
X24935Y-12154D01*
Y-12142D01*
Y-12137D01*
X24930Y-12092D01*
X24919Y-12054D01*
X24902Y-12020D01*
X24883Y-11990D01*
X24866Y-11968D01*
X24849Y-11948D01*
X24838Y-11937D01*
X24833Y-11934D01*
X24810Y-11920D01*
X24788Y-11906D01*
X24736Y-11884D01*
X24680Y-11870D01*
X24624Y-11859D01*
X24574Y-11854D01*
X24552Y-11851D01*
X24536Y-11848D01*
X24497D01*
X24419Y-11851D01*
X24350Y-11862D01*
X24294Y-11879D01*
X24247Y-11895D01*
X24211Y-11912D01*
X24183Y-11929D01*
X24169Y-11940D01*
X24164Y-11943D01*
X24125Y-11981D01*
X24094Y-12023D01*
X24069Y-12068D01*
X24053Y-12112D01*
X24041Y-12154D01*
X24033Y-12184D01*
X24030Y-12198D01*
X24028Y-12206D01*
Y-12212D01*
Y-12215D01*
X23783Y-12195D01*
X23789Y-12134D01*
X23803Y-12079D01*
X23817Y-12026D01*
X23836Y-11981D01*
X23853Y-11945D01*
X23867Y-11918D01*
X23872Y-11909D01*
X23878Y-11901D01*
X23880Y-11898D01*
Y-11895D01*
X23917Y-11848D01*
X23955Y-11807D01*
X23997Y-11770D01*
X24039Y-11743D01*
X24075Y-11718D01*
X24103Y-11704D01*
X24114Y-11698D01*
X24122Y-11693D01*
X24128Y-11690D01*
X24130D01*
X24191Y-11668D01*
X24258Y-11651D01*
X24319Y-11637D01*
X24377Y-11629D01*
X24430Y-11623D01*
X24450D01*
X24469Y-11621D01*
X24505D01*
X24577Y-11623D01*
D02*
G37*
G36*
X16075Y2300D02*
X15525Y2850D01*
Y2850D01*
X14975Y2300D01*
Y3650D01*
X16075D01*
Y2300D01*
D02*
G37*
G36*
Y2200D02*
Y1500D01*
X14975D01*
Y2200D01*
X15525Y2750D01*
X16075Y2200D01*
D02*
G37*
G36*
X28103Y-11626D02*
X28200Y-11640D01*
X28245Y-11648D01*
X28286Y-11659D01*
X28325Y-11668D01*
X28361Y-11679D01*
X28395Y-11690D01*
X28422Y-11701D01*
X28447Y-11712D01*
X28470Y-11720D01*
X28486Y-11729D01*
X28497Y-11734D01*
X28506Y-11737D01*
X28508Y-11740D01*
X28547Y-11765D01*
X28586Y-11790D01*
X28653Y-11848D01*
X28711Y-11906D01*
X28758Y-11968D01*
X28797Y-12020D01*
X28811Y-12043D01*
X28822Y-12065D01*
X28833Y-12081D01*
X28839Y-12092D01*
X28842Y-12101D01*
X28844Y-12104D01*
X28883Y-12195D01*
X28911Y-12287D01*
X28933Y-12376D01*
X28939Y-12417D01*
X28947Y-12456D01*
X28950Y-12492D01*
X28955Y-12523D01*
X28958Y-12553D01*
Y-12578D01*
X28961Y-12598D01*
Y-12612D01*
Y-12623D01*
Y-12626D01*
X28955Y-12728D01*
X28941Y-12825D01*
X28933Y-12870D01*
X28925Y-12911D01*
X28914Y-12953D01*
X28903Y-12989D01*
X28892Y-13023D01*
X28880Y-13050D01*
X28872Y-13078D01*
X28864Y-13097D01*
X28855Y-13117D01*
X28850Y-13128D01*
X28844Y-13136D01*
Y-13139D01*
X28794Y-13220D01*
X28739Y-13289D01*
X28681Y-13350D01*
X28625Y-13400D01*
X28572Y-13439D01*
X28553Y-13453D01*
X28533Y-13467D01*
X28517Y-13475D01*
X28506Y-13483D01*
X28497Y-13486D01*
X28495Y-13489D01*
X28450Y-13511D01*
X28406Y-13528D01*
X28317Y-13558D01*
X28231Y-13578D01*
X28150Y-13594D01*
X28114Y-13597D01*
X28081Y-13603D01*
X28050Y-13606D01*
X28025D01*
X28006Y-13608D01*
X27978D01*
X27900Y-13606D01*
X27825Y-13597D01*
X27756Y-13583D01*
X27695Y-13569D01*
X27670Y-13564D01*
X27645Y-13558D01*
X27623Y-13550D01*
X27603Y-13544D01*
X27589Y-13539D01*
X27578Y-13536D01*
X27573Y-13533D01*
X27570D01*
X27495Y-13503D01*
X27426Y-13467D01*
X27359Y-13428D01*
X27301Y-13392D01*
X27276Y-13375D01*
X27251Y-13358D01*
X27231Y-13345D01*
X27215Y-13333D01*
X27201Y-13322D01*
X27190Y-13314D01*
X27184Y-13311D01*
X27181Y-13308D01*
Y-12595D01*
X27998D01*
Y-12823D01*
X27431D01*
Y-13184D01*
X27465Y-13211D01*
X27503Y-13236D01*
X27545Y-13259D01*
X27584Y-13278D01*
X27617Y-13295D01*
X27648Y-13308D01*
X27659Y-13314D01*
X27664Y-13317D01*
X27670Y-13320D01*
X27673D01*
X27731Y-13339D01*
X27789Y-13356D01*
X27842Y-13367D01*
X27892Y-13372D01*
X27934Y-13378D01*
X27950D01*
X27967Y-13381D01*
X27995D01*
X28064Y-13378D01*
X28131Y-13367D01*
X28192Y-13353D01*
X28247Y-13339D01*
X28292Y-13322D01*
X28311Y-13317D01*
X28325Y-13311D01*
X28339Y-13306D01*
X28347Y-13300D01*
X28353Y-13297D01*
X28356D01*
X28414Y-13261D01*
X28467Y-13222D01*
X28511Y-13181D01*
X28547Y-13139D01*
X28578Y-13100D01*
X28597Y-13070D01*
X28606Y-13059D01*
X28608Y-13050D01*
X28614Y-13045D01*
Y-13042D01*
X28642Y-12973D01*
X28664Y-12900D01*
X28678Y-12828D01*
X28689Y-12759D01*
X28692Y-12728D01*
X28694Y-12700D01*
X28697Y-12673D01*
Y-12651D01*
X28700Y-12634D01*
Y-12620D01*
Y-12612D01*
Y-12609D01*
X28697Y-12531D01*
X28689Y-12462D01*
X28678Y-12395D01*
X28664Y-12337D01*
X28658Y-12312D01*
X28650Y-12290D01*
X28644Y-12270D01*
X28639Y-12254D01*
X28633Y-12240D01*
X28631Y-12231D01*
X28628Y-12226D01*
Y-12223D01*
X28608Y-12184D01*
X28589Y-12148D01*
X28569Y-12115D01*
X28550Y-12087D01*
X28533Y-12065D01*
X28520Y-12045D01*
X28508Y-12034D01*
X28506Y-12031D01*
X28475Y-12001D01*
X28442Y-11973D01*
X28406Y-11951D01*
X28372Y-11929D01*
X28345Y-11915D01*
X28322Y-11901D01*
X28306Y-11895D01*
X28300Y-11893D01*
X28250Y-11873D01*
X28200Y-11859D01*
X28147Y-11851D01*
X28100Y-11843D01*
X28059Y-11840D01*
X28042D01*
X28028Y-11837D01*
X27998D01*
X27945Y-11840D01*
X27895Y-11845D01*
X27850Y-11854D01*
X27812Y-11862D01*
X27778Y-11873D01*
X27753Y-11882D01*
X27739Y-11887D01*
X27734Y-11890D01*
X27692Y-11909D01*
X27656Y-11931D01*
X27623Y-11954D01*
X27598Y-11976D01*
X27578Y-11995D01*
X27562Y-12009D01*
X27553Y-12020D01*
X27551Y-12023D01*
X27526Y-12056D01*
X27506Y-12095D01*
X27487Y-12131D01*
X27470Y-12170D01*
X27459Y-12204D01*
X27451Y-12229D01*
X27448Y-12240D01*
X27445Y-12248D01*
X27442Y-12251D01*
Y-12254D01*
X27212Y-12192D01*
X27231Y-12123D01*
X27256Y-12062D01*
X27281Y-12006D01*
X27304Y-11962D01*
X27326Y-11926D01*
X27342Y-11901D01*
X27353Y-11884D01*
X27359Y-11879D01*
X27398Y-11834D01*
X27440Y-11798D01*
X27484Y-11765D01*
X27526Y-11737D01*
X27564Y-11718D01*
X27595Y-11701D01*
X27606Y-11696D01*
X27614Y-11693D01*
X27620Y-11690D01*
X27623D01*
X27687Y-11668D01*
X27753Y-11651D01*
X27814Y-11637D01*
X27873Y-11629D01*
X27925Y-11623D01*
X27948D01*
X27964Y-11621D01*
X28053D01*
X28103Y-11626D01*
D02*
G37*
G36*
X18225Y36900D02*
X17675Y36350D01*
X17125Y36900D01*
Y37600D01*
X18225D01*
Y36900D01*
D02*
G37*
G36*
X23725Y35450D02*
X22625D01*
Y36800D01*
X23175Y36250D01*
Y36250D01*
X23725Y36800D01*
Y35450D01*
D02*
G37*
G36*
X18225D02*
X17125D01*
Y36800D01*
X17675Y36250D01*
Y36250D01*
X18225Y36800D01*
Y35450D01*
D02*
G37*
G36*
X15875Y37525D02*
X15325Y38075D01*
Y38075D01*
X14775Y37525D01*
Y38875D01*
X15875D01*
Y37525D01*
D02*
G37*
G36*
Y37425D02*
Y36725D01*
X14775D01*
Y37425D01*
X15325Y37975D01*
X15875Y37425D01*
D02*
G37*
G36*
X23725Y36900D02*
X23175Y36350D01*
X22625Y36900D01*
Y37600D01*
X23725D01*
Y36900D01*
D02*
G37*
G36*
X22775Y27450D02*
X22225Y28000D01*
Y28000D01*
X21675Y27450D01*
Y28800D01*
X22775D01*
Y27450D01*
D02*
G37*
G36*
X24345Y26640D02*
X23245D01*
Y27990D01*
X23795Y27440D01*
Y27440D01*
X24345Y27990D01*
Y26640D01*
D02*
G37*
G36*
X22775Y27350D02*
Y26650D01*
X21675D01*
Y27350D01*
X22225Y27900D01*
X22775Y27350D01*
D02*
G37*
G36*
X44720Y28015D02*
X44020D01*
X43470Y28565D01*
X44020Y29115D01*
X44720D01*
Y28015D01*
D02*
G37*
G36*
X43370Y28565D02*
X43370D01*
X43920Y28015D01*
X42570D01*
Y29115D01*
X43920D01*
X43370Y28565D01*
D02*
G37*
G36*
X24345Y28090D02*
X23795Y27540D01*
X23245Y28090D01*
Y28790D01*
X24345D01*
Y28090D01*
D02*
G37*
G36*
X53300Y49750D02*
X53300D01*
X53850Y49200D01*
X52500D01*
Y50300D01*
X53850D01*
X53300Y49750D01*
D02*
G37*
G36*
X52775Y45600D02*
X52225Y45050D01*
X51675Y45600D01*
Y46300D01*
X52775D01*
Y45600D01*
D02*
G37*
G36*
Y44150D02*
X51675D01*
Y45500D01*
X52225Y44950D01*
Y44950D01*
X52775Y45500D01*
Y44150D01*
D02*
G37*
G36*
X48545Y54040D02*
X47995Y53490D01*
X47445Y54040D01*
Y54740D01*
X48545D01*
Y54040D01*
D02*
G37*
G36*
Y52590D02*
X47445D01*
Y53940D01*
X47995Y53390D01*
Y53390D01*
X48545Y53940D01*
Y52590D01*
D02*
G37*
G36*
X54650Y49200D02*
X53950D01*
X53400Y49750D01*
X53950Y50300D01*
X54650D01*
Y49200D01*
D02*
G37*
G36*
X38520Y40765D02*
X37420D01*
Y42115D01*
X37970Y41565D01*
Y41565D01*
X38520Y42115D01*
Y40765D01*
D02*
G37*
G36*
X54500Y39025D02*
X53800D01*
X53250Y39575D01*
X53800Y40125D01*
X54500D01*
Y39025D01*
D02*
G37*
G36*
X53150Y39575D02*
X53150D01*
X53700Y39025D01*
X52350D01*
Y40125D01*
X53700D01*
X53150Y39575D01*
D02*
G37*
G36*
X15825Y43525D02*
X15275Y44075D01*
Y44075D01*
X14725Y43525D01*
Y44875D01*
X15825D01*
Y43525D01*
D02*
G37*
G36*
Y43425D02*
Y42725D01*
X14725D01*
Y43425D01*
X15275Y43975D01*
X15825Y43425D01*
D02*
G37*
G36*
X38520Y42215D02*
X37970Y41665D01*
X37420Y42215D01*
Y42915D01*
X38520D01*
Y42215D01*
D02*
G37*
G36*
X44720Y26515D02*
X44020D01*
X43470Y27065D01*
X44020Y27615D01*
X44720D01*
Y26515D01*
D02*
G37*
G36*
X38395Y18140D02*
X37845Y17590D01*
X37295Y18140D01*
Y18840D01*
X38395D01*
Y18140D01*
D02*
G37*
G36*
X35770Y20465D02*
X34670D01*
Y21815D01*
X35220Y21265D01*
Y21265D01*
X35770Y21815D01*
Y20465D01*
D02*
G37*
G36*
X34420Y21265D02*
X33870Y21815D01*
Y21815D01*
X33320Y21265D01*
Y22615D01*
X34420D01*
Y21265D01*
D02*
G37*
G36*
X35770Y21915D02*
X35220Y21365D01*
X34670Y21915D01*
Y22615D01*
X35770D01*
Y21915D01*
D02*
G37*
G36*
X20850Y18125D02*
X20300Y17575D01*
X19750Y18125D01*
Y18825D01*
X20850D01*
Y18125D01*
D02*
G37*
G36*
X23125D02*
X22575Y17575D01*
X22025Y18125D01*
Y18825D01*
X23125D01*
Y18125D01*
D02*
G37*
G36*
X39745Y20890D02*
X39195Y20340D01*
X38645Y20890D01*
Y21590D01*
X39745D01*
Y20890D01*
D02*
G37*
G36*
X23900Y21600D02*
Y20900D01*
X22800D01*
Y21600D01*
X23350Y22150D01*
X23900Y21600D01*
D02*
G37*
G36*
X34420Y21165D02*
Y20465D01*
X33320D01*
Y21165D01*
X33870Y21715D01*
X34420Y21165D01*
D02*
G37*
G36*
X38395Y20140D02*
Y19440D01*
X37295D01*
Y20140D01*
X37845Y20690D01*
X38395Y20140D01*
D02*
G37*
G36*
Y20240D02*
X37845Y20790D01*
Y20790D01*
X37295Y20240D01*
Y21590D01*
X38395D01*
Y20240D01*
D02*
G37*
G36*
X39745Y19440D02*
X38645D01*
Y20790D01*
X39195Y20240D01*
Y20240D01*
X39745Y20790D01*
Y19440D01*
D02*
G37*
G36*
X34420Y24665D02*
X33870Y24115D01*
X33320Y24665D01*
Y25365D01*
X34420D01*
Y24665D01*
D02*
G37*
G36*
X35770Y24015D02*
X35220Y24565D01*
Y24565D01*
X34670Y24015D01*
Y25365D01*
X35770D01*
Y24015D01*
D02*
G37*
G36*
X34420Y23215D02*
X33320D01*
Y24565D01*
X33870Y24015D01*
Y24015D01*
X34420Y24565D01*
Y23215D01*
D02*
G37*
G36*
X43370Y27065D02*
X43370D01*
X43920Y26515D01*
X42570D01*
Y27615D01*
X43920D01*
X43370Y27065D01*
D02*
G37*
G36*
X38910Y26715D02*
X38360Y26165D01*
X37810Y26715D01*
Y27415D01*
X38910D01*
Y26715D01*
D02*
G37*
G36*
Y25265D02*
X37810D01*
Y26615D01*
X38360Y26065D01*
Y26065D01*
X38910Y26615D01*
Y25265D01*
D02*
G37*
G36*
X25870Y24340D02*
X25870D01*
X26420Y23790D01*
X25070D01*
Y24890D01*
X26420D01*
X25870Y24340D01*
D02*
G37*
G36*
X35770Y23915D02*
Y23215D01*
X34670D01*
Y23915D01*
X35220Y24465D01*
X35770Y23915D01*
D02*
G37*
G36*
X23900Y21700D02*
X23350Y22250D01*
Y22250D01*
X22800Y21700D01*
Y23050D01*
X23900D01*
Y21700D01*
D02*
G37*
G36*
X49145Y24565D02*
X48595Y24015D01*
X48045Y24565D01*
Y25265D01*
X49145D01*
Y24565D01*
D02*
G37*
G36*
Y23115D02*
X48045D01*
Y24465D01*
X48595Y23915D01*
Y23915D01*
X49145Y24465D01*
Y23115D01*
D02*
G37*
G36*
X27220Y23790D02*
X26520D01*
X25970Y24340D01*
X26520Y24890D01*
X27220D01*
Y23790D01*
D02*
G37*
%LPC*%
G36*
X56133Y-12345D02*
X56117D01*
X56083Y-12348D01*
X56053Y-12351D01*
X55994Y-12367D01*
X55945Y-12390D01*
X55903Y-12415D01*
X55870Y-12440D01*
X55845Y-12462D01*
X55831Y-12478D01*
X55825Y-12481D01*
Y-12484D01*
X55800Y-12520D01*
X55778Y-12562D01*
X55764Y-12603D01*
X55750Y-12648D01*
X55742Y-12684D01*
X55736Y-12717D01*
Y-12728D01*
X55734Y-12737D01*
Y-12742D01*
Y-12745D01*
X56514D01*
X56505Y-12681D01*
X56489Y-12623D01*
X56469Y-12573D01*
X56447Y-12534D01*
X56428Y-12501D01*
X56408Y-12476D01*
X56397Y-12462D01*
X56391Y-12456D01*
X56347Y-12420D01*
X56303Y-12392D01*
X56255Y-12373D01*
X56211Y-12359D01*
X56175Y-12351D01*
X56144Y-12348D01*
X56133Y-12345D01*
D02*
G37*
G36*
X71044Y-12687D02*
X70539D01*
X70481Y-12692D01*
X70434Y-12698D01*
X70395Y-12703D01*
X70364Y-12709D01*
X70339Y-12714D01*
X70328Y-12717D01*
X70323Y-12720D01*
X70286Y-12734D01*
X70256Y-12750D01*
X70228Y-12770D01*
X70206Y-12789D01*
X70189Y-12806D01*
X70178Y-12820D01*
X70170Y-12831D01*
X70167Y-12834D01*
X70148Y-12864D01*
X70134Y-12895D01*
X70123Y-12925D01*
X70117Y-12953D01*
X70112Y-12978D01*
X70109Y-13000D01*
Y-13011D01*
Y-13017D01*
X70112Y-13050D01*
X70114Y-13084D01*
X70120Y-13111D01*
X70128Y-13134D01*
X70137Y-13153D01*
X70142Y-13170D01*
X70145Y-13178D01*
X70148Y-13181D01*
X70164Y-13206D01*
X70178Y-13228D01*
X70198Y-13245D01*
X70212Y-13261D01*
X70225Y-13272D01*
X70236Y-13281D01*
X70245Y-13286D01*
X70248Y-13289D01*
X70295Y-13311D01*
X70342Y-13328D01*
X70361Y-13333D01*
X70378Y-13336D01*
X70389Y-13339D01*
X70392D01*
X70414Y-13342D01*
X70439Y-13345D01*
X70497Y-13347D01*
X71044D01*
Y-12687D01*
D02*
G37*
G36*
Y-11882D02*
X70589D01*
X70528Y-11887D01*
X70481Y-11890D01*
X70439Y-11895D01*
X70409Y-11901D01*
X70389Y-11904D01*
X70375Y-11909D01*
X70373D01*
X70342Y-11920D01*
X70314Y-11937D01*
X70292Y-11954D01*
X70273Y-11970D01*
X70259Y-11984D01*
X70248Y-11998D01*
X70242Y-12006D01*
X70239Y-12009D01*
X70223Y-12037D01*
X70212Y-12065D01*
X70203Y-12092D01*
X70198Y-12120D01*
X70195Y-12142D01*
X70192Y-12159D01*
Y-12170D01*
Y-12176D01*
X70195Y-12212D01*
X70200Y-12245D01*
X70209Y-12273D01*
X70217Y-12295D01*
X70225Y-12315D01*
X70234Y-12331D01*
X70239Y-12340D01*
X70242Y-12342D01*
X70261Y-12365D01*
X70286Y-12387D01*
X70311Y-12403D01*
X70334Y-12415D01*
X70356Y-12426D01*
X70373Y-12434D01*
X70384Y-12437D01*
X70389Y-12440D01*
X70420Y-12445D01*
X70459Y-12451D01*
X70497Y-12453D01*
X70536Y-12456D01*
X70572Y-12459D01*
X71044D01*
Y-11882D01*
D02*
G37*
G36*
X59726Y-12345D02*
X59709D01*
X59676Y-12348D01*
X59645Y-12351D01*
X59590Y-12365D01*
X59540Y-12387D01*
X59498Y-12412D01*
X59465Y-12437D01*
X59440Y-12456D01*
X59423Y-12473D01*
X59418Y-12476D01*
Y-12478D01*
X59395Y-12503D01*
X59379Y-12534D01*
X59348Y-12595D01*
X59326Y-12662D01*
X59312Y-12723D01*
X59304Y-12781D01*
X59301Y-12806D01*
Y-12828D01*
X59298Y-12845D01*
Y-12859D01*
Y-12867D01*
Y-12870D01*
Y-12920D01*
X59304Y-12967D01*
X59309Y-13009D01*
X59318Y-13050D01*
X59326Y-13086D01*
X59337Y-13120D01*
X59345Y-13150D01*
X59356Y-13178D01*
X59368Y-13200D01*
X59379Y-13222D01*
X59390Y-13239D01*
X59398Y-13253D01*
X59406Y-13264D01*
X59412Y-13272D01*
X59415Y-13275D01*
X59418Y-13278D01*
X59440Y-13300D01*
X59465Y-13322D01*
X59512Y-13356D01*
X59562Y-13378D01*
X59606Y-13395D01*
X59648Y-13403D01*
X59679Y-13408D01*
X59692Y-13411D01*
X59709D01*
X59742Y-13408D01*
X59773Y-13406D01*
X59831Y-13392D01*
X59881Y-13370D01*
X59923Y-13345D01*
X59956Y-13322D01*
X59981Y-13300D01*
X59998Y-13286D01*
X60001Y-13281D01*
X60003D01*
X60023Y-13253D01*
X60042Y-13225D01*
X60070Y-13161D01*
X60092Y-13095D01*
X60106Y-13028D01*
X60114Y-12970D01*
X60117Y-12945D01*
Y-12923D01*
X60120Y-12903D01*
Y-12889D01*
Y-12881D01*
Y-12878D01*
X60117Y-12831D01*
X60114Y-12784D01*
X60109Y-12742D01*
X60101Y-12703D01*
X60092Y-12667D01*
X60084Y-12634D01*
X60073Y-12606D01*
X60062Y-12578D01*
X60051Y-12556D01*
X60039Y-12534D01*
X60031Y-12517D01*
X60023Y-12503D01*
X60014Y-12492D01*
X60009Y-12484D01*
X60003Y-12481D01*
Y-12478D01*
X59981Y-12456D01*
X59956Y-12434D01*
X59909Y-12401D01*
X59859Y-12378D01*
X59812Y-12362D01*
X59770Y-12351D01*
X59740Y-12348D01*
X59726Y-12345D01*
D02*
G37*
G36*
X57674D02*
X57660D01*
X57630Y-12348D01*
X57602Y-12351D01*
X57549Y-12367D01*
X57502Y-12387D01*
X57463Y-12412D01*
X57433Y-12437D01*
X57408Y-12459D01*
X57394Y-12476D01*
X57388Y-12478D01*
Y-12481D01*
X57369Y-12509D01*
X57352Y-12537D01*
X57324Y-12603D01*
X57305Y-12673D01*
X57291Y-12739D01*
X57285Y-12773D01*
X57283Y-12803D01*
X57280Y-12831D01*
Y-12853D01*
X57277Y-12873D01*
Y-12887D01*
Y-12898D01*
Y-12900D01*
Y-12948D01*
X57283Y-12992D01*
X57288Y-13031D01*
X57294Y-13070D01*
X57302Y-13103D01*
X57313Y-13136D01*
X57322Y-13164D01*
X57333Y-13189D01*
X57344Y-13211D01*
X57352Y-13234D01*
X57363Y-13247D01*
X57371Y-13261D01*
X57377Y-13272D01*
X57383Y-13281D01*
X57388Y-13283D01*
Y-13286D01*
X57408Y-13308D01*
X57430Y-13328D01*
X57474Y-13358D01*
X57519Y-13381D01*
X57560Y-13395D01*
X57596Y-13406D01*
X57627Y-13408D01*
X57638Y-13411D01*
X57652D01*
X57680Y-13408D01*
X57707Y-13406D01*
X57757Y-13392D01*
X57805Y-13370D01*
X57843Y-13345D01*
X57874Y-13322D01*
X57899Y-13300D01*
X57913Y-13286D01*
X57916Y-13281D01*
X57918D01*
X57938Y-13253D01*
X57954Y-13225D01*
X57982Y-13161D01*
X58002Y-13095D01*
X58016Y-13031D01*
X58024Y-12973D01*
X58027Y-12948D01*
Y-12925D01*
X58029Y-12906D01*
Y-12892D01*
Y-12884D01*
Y-12881D01*
Y-12831D01*
X58024Y-12784D01*
X58018Y-12739D01*
X58013Y-12700D01*
X58004Y-12664D01*
X57996Y-12631D01*
X57988Y-12601D01*
X57977Y-12573D01*
X57966Y-12551D01*
X57957Y-12531D01*
X57949Y-12514D01*
X57941Y-12501D01*
X57932Y-12490D01*
X57930Y-12481D01*
X57924Y-12478D01*
Y-12476D01*
X57905Y-12453D01*
X57882Y-12431D01*
X57838Y-12401D01*
X57793Y-12376D01*
X57752Y-12362D01*
X57716Y-12351D01*
X57685Y-12348D01*
X57674Y-12345D01*
D02*
G37*
G36*
X68982D02*
X68965D01*
X68932Y-12348D01*
X68901Y-12351D01*
X68846Y-12365D01*
X68796Y-12387D01*
X68754Y-12412D01*
X68721Y-12437D01*
X68696Y-12456D01*
X68679Y-12473D01*
X68673Y-12476D01*
Y-12478D01*
X68651Y-12503D01*
X68635Y-12534D01*
X68604Y-12595D01*
X68582Y-12662D01*
X68568Y-12723D01*
X68560Y-12781D01*
X68557Y-12806D01*
Y-12828D01*
X68554Y-12845D01*
Y-12859D01*
Y-12867D01*
Y-12870D01*
Y-12920D01*
X68560Y-12967D01*
X68565Y-13009D01*
X68574Y-13050D01*
X68582Y-13086D01*
X68593Y-13120D01*
X68601Y-13150D01*
X68612Y-13178D01*
X68624Y-13200D01*
X68635Y-13222D01*
X68646Y-13239D01*
X68654Y-13253D01*
X68662Y-13264D01*
X68668Y-13272D01*
X68671Y-13275D01*
X68673Y-13278D01*
X68696Y-13300D01*
X68721Y-13322D01*
X68768Y-13356D01*
X68818Y-13378D01*
X68862Y-13395D01*
X68904Y-13403D01*
X68934Y-13408D01*
X68948Y-13411D01*
X68965D01*
X68998Y-13408D01*
X69029Y-13406D01*
X69087Y-13392D01*
X69137Y-13370D01*
X69179Y-13345D01*
X69212Y-13322D01*
X69237Y-13300D01*
X69254Y-13286D01*
X69256Y-13281D01*
X69259D01*
X69279Y-13253D01*
X69298Y-13225D01*
X69326Y-13161D01*
X69348Y-13095D01*
X69362Y-13028D01*
X69370Y-12970D01*
X69373Y-12945D01*
Y-12923D01*
X69376Y-12903D01*
Y-12889D01*
Y-12881D01*
Y-12878D01*
X69373Y-12831D01*
X69370Y-12784D01*
X69365Y-12742D01*
X69356Y-12703D01*
X69348Y-12667D01*
X69340Y-12634D01*
X69329Y-12606D01*
X69318Y-12578D01*
X69306Y-12556D01*
X69295Y-12534D01*
X69287Y-12517D01*
X69279Y-12503D01*
X69270Y-12492D01*
X69265Y-12484D01*
X69259Y-12481D01*
Y-12478D01*
X69237Y-12456D01*
X69212Y-12434D01*
X69165Y-12401D01*
X69115Y-12378D01*
X69068Y-12362D01*
X69026Y-12351D01*
X68996Y-12348D01*
X68982Y-12345D01*
D02*
G37*
G36*
X65994D02*
X65978D01*
X65944Y-12348D01*
X65914Y-12351D01*
X65858Y-12365D01*
X65808Y-12387D01*
X65767Y-12412D01*
X65733Y-12437D01*
X65708Y-12456D01*
X65692Y-12473D01*
X65686Y-12476D01*
Y-12478D01*
X65664Y-12503D01*
X65647Y-12534D01*
X65617Y-12595D01*
X65595Y-12662D01*
X65581Y-12723D01*
X65572Y-12781D01*
X65570Y-12806D01*
Y-12828D01*
X65567Y-12845D01*
Y-12859D01*
Y-12867D01*
Y-12870D01*
Y-12920D01*
X65572Y-12967D01*
X65578Y-13009D01*
X65586Y-13050D01*
X65595Y-13086D01*
X65606Y-13120D01*
X65614Y-13150D01*
X65625Y-13178D01*
X65636Y-13200D01*
X65647Y-13222D01*
X65659Y-13239D01*
X65667Y-13253D01*
X65675Y-13264D01*
X65681Y-13272D01*
X65683Y-13275D01*
X65686Y-13278D01*
X65708Y-13300D01*
X65733Y-13322D01*
X65781Y-13356D01*
X65831Y-13378D01*
X65875Y-13395D01*
X65917Y-13403D01*
X65947Y-13408D01*
X65961Y-13411D01*
X65978D01*
X66011Y-13408D01*
X66042Y-13406D01*
X66100Y-13392D01*
X66150Y-13370D01*
X66192Y-13345D01*
X66225Y-13322D01*
X66250Y-13300D01*
X66266Y-13286D01*
X66269Y-13281D01*
X66272D01*
X66291Y-13253D01*
X66311Y-13225D01*
X66339Y-13161D01*
X66361Y-13095D01*
X66375Y-13028D01*
X66383Y-12970D01*
X66386Y-12945D01*
Y-12923D01*
X66389Y-12903D01*
Y-12889D01*
Y-12881D01*
Y-12878D01*
X66386Y-12831D01*
X66383Y-12784D01*
X66378Y-12742D01*
X66369Y-12703D01*
X66361Y-12667D01*
X66353Y-12634D01*
X66341Y-12606D01*
X66330Y-12578D01*
X66319Y-12556D01*
X66308Y-12534D01*
X66300Y-12517D01*
X66291Y-12503D01*
X66283Y-12492D01*
X66278Y-12484D01*
X66272Y-12481D01*
Y-12478D01*
X66250Y-12456D01*
X66225Y-12434D01*
X66178Y-12401D01*
X66128Y-12378D01*
X66080Y-12362D01*
X66039Y-12351D01*
X66008Y-12348D01*
X65994Y-12345D01*
D02*
G37*
%LPD*%
D66*
X0Y4000D02*
G03*
X2000Y2000I2000J0D01*
G01*
X2000Y82500D02*
G03*
X0Y80500I0J-2000D01*
G01*
X70000D02*
G03*
X68000Y82500I-2000J0D01*
G01*
X68000Y2000D02*
G03*
X70000Y4000I0J2000D01*
G01*
X11500Y2000D02*
X13500Y0D01*
X46500D01*
X48500Y2000D01*
Y2000D01*
X68000D01*
X2000Y82500D02*
X68000D01*
X2000Y2000D02*
X11500D01*
X0Y4000D02*
Y58000D01*
Y80500D01*
X70000Y4000D02*
Y58000D01*
Y80500D01*
X70000Y80500D02*
X70000Y80500D01*
D83*
X19075Y2000D02*
D03*
X8950Y75500D02*
D03*
X61875Y77875D02*
D03*
D124*
X59130Y53300D02*
D03*
X43890Y2500D02*
D03*
X10870Y54570D02*
D03*
D125*
X24730Y80040D02*
D03*
X10870Y48220D02*
D03*
X18220Y24390D02*
D03*
X33095Y41235D02*
D03*
X39905D02*
D03*
X42445D02*
D03*
X18810Y80040D02*
D03*
X16270D02*
D03*
X13730D02*
D03*
X56590Y60880D02*
D03*
Y63420D02*
D03*
Y65960D02*
D03*
X59130D02*
D03*
Y63420D02*
D03*
Y68500D02*
D03*
X56590D02*
D03*
X66750Y78700D02*
D03*
X59130Y49744D02*
D03*
Y47204D02*
D03*
Y39584D02*
D03*
Y37044D02*
D03*
Y29424D02*
D03*
Y31964D02*
D03*
Y34504D02*
D03*
Y42124D02*
D03*
Y44664D02*
D03*
X10870Y10120D02*
D03*
Y12660D02*
D03*
Y15200D02*
D03*
Y7580D02*
D03*
Y5040D02*
D03*
X3250Y78700D02*
D03*
Y48220D02*
D03*
Y45680D02*
D03*
Y43140D02*
D03*
X5790Y45680D02*
D03*
Y48220D02*
D03*
Y50760D02*
D03*
Y43140D02*
D03*
Y35520D02*
D03*
Y40600D02*
D03*
Y38060D02*
D03*
X3250Y35520D02*
D03*
Y38060D02*
D03*
Y40600D02*
D03*
Y27900D02*
D03*
Y25360D02*
D03*
Y22820D02*
D03*
X5790Y25360D02*
D03*
Y27900D02*
D03*
Y22820D02*
D03*
Y30440D02*
D03*
Y32980D02*
D03*
X3250Y30440D02*
D03*
Y32980D02*
D03*
Y7580D02*
D03*
Y5040D02*
D03*
X5790Y7580D02*
D03*
Y5040D02*
D03*
X3250Y15200D02*
D03*
Y12660D02*
D03*
Y10120D02*
D03*
X5790Y12660D02*
D03*
Y15200D02*
D03*
Y10120D02*
D03*
Y17740D02*
D03*
Y20280D02*
D03*
X3250Y17740D02*
D03*
Y20280D02*
D03*
X10870Y27900D02*
D03*
Y30440D02*
D03*
Y38060D02*
D03*
Y35520D02*
D03*
Y32980D02*
D03*
Y25360D02*
D03*
Y22820D02*
D03*
X64210Y48220D02*
D03*
Y45680D02*
D03*
Y43140D02*
D03*
X66750Y45680D02*
D03*
Y48220D02*
D03*
Y50760D02*
D03*
Y43140D02*
D03*
Y35520D02*
D03*
Y40600D02*
D03*
Y38060D02*
D03*
X64210Y35520D02*
D03*
Y38060D02*
D03*
Y40600D02*
D03*
Y27900D02*
D03*
Y25360D02*
D03*
Y22820D02*
D03*
X66750Y25360D02*
D03*
Y27900D02*
D03*
Y22820D02*
D03*
Y30440D02*
D03*
Y32980D02*
D03*
X64210Y30440D02*
D03*
Y32980D02*
D03*
Y7580D02*
D03*
Y5040D02*
D03*
X66750Y7580D02*
D03*
Y5040D02*
D03*
X64210Y15200D02*
D03*
Y12660D02*
D03*
Y10120D02*
D03*
X66750Y12660D02*
D03*
Y15200D02*
D03*
Y10120D02*
D03*
Y17740D02*
D03*
Y20280D02*
D03*
X64210Y17740D02*
D03*
Y20280D02*
D03*
X59130Y17740D02*
D03*
Y15200D02*
D03*
Y7580D02*
D03*
Y10120D02*
D03*
Y12660D02*
D03*
Y20280D02*
D03*
Y22820D02*
D03*
D126*
X27270Y80040D02*
D03*
X35635Y41235D02*
D03*
X44985D02*
D03*
X11190Y80040D02*
D03*
D127*
X10870Y50760D02*
D03*
X18220Y21850D02*
D03*
X59130Y60880D02*
D03*
X66750Y76160D02*
D03*
X59130Y26884D02*
D03*
X10870Y17740D02*
D03*
X3250Y76160D02*
D03*
Y50760D02*
D03*
X10870Y40600D02*
D03*
X64210Y50760D02*
D03*
X59130Y5040D02*
D03*
D128*
X10395Y60520D02*
D03*
Y71410D02*
D03*
D129*
Y62790D02*
D03*
Y69140D02*
D03*
D130*
X37500Y78350D02*
D03*
X32500D02*
D03*
D131*
X38500Y81050D02*
D03*
X31500D02*
D03*
D132*
X32460Y20990D02*
D03*
Y27190D02*
D03*
D133*
X37870Y2790D02*
D03*
M02*
