M48
;Layer_Color=9474304
;FILE_FORMAT=4:3
METRIC,LZ
;TYPE=PLATED
T1F00S00C0.200
T3F00S00C0.900
T4F00S00C1.000
T5F00S00C1.100
%
T01
X00012Y00032
X0000773Y0004125
Y0005625
X0000775Y0007275
X0000773Y000895
X0002225Y0002802
X000375Y0002804
X000525
X00069Y0002802
X0008575
X0010075
X0011725Y00028
X001285Y000164
X00138Y00007
X001545Y0000698
X001695
X0018625
X0020275Y0000696
X0021775
X00233Y0000698
X002495Y0000696
X002645
X0028075Y0000698
X0029725Y0000696
X0031225
X0032875Y0000698
X0034525Y0000696
X0036025
X003765Y0000698
X00393Y0000696
X00408
X0042475Y0000698
X0046185Y000089
X0042525Y0005
X0041825Y0007925
X00414Y000845
X0040475Y000925
X004025Y0007525
X004365
X00444Y00095
X004525
X0036475Y0008875
X00367Y00075
X0037725Y00051
X003305Y000535
X0033275Y0007525
X00324Y00073
X00318Y00077
X0033Y000295
X002795Y0002975
Y0005225
X0023475Y0005275
X0023275Y000645
X002285Y0006875
X0022425Y0006025
X002125Y000625
X0020225Y00069
X0018975Y0003475
X0022925Y000295
X00163Y0008125
X00151Y000875
X0015075Y00094
X0014651Y000765
X001415Y0008075
X0009525Y0005675
X0046975Y000505
X0047775Y0007525
X0051375Y000755
X00526Y0007575
X0053175Y00055
X0052075Y000505
X0051175Y000535
X0051075Y0003975
X005115Y0002698
X004965
X0048Y00027
X004709Y0001795
X0052825Y0002698
X0054475Y0002696
X0055975
X00575Y0002698
X0057475Y00043
X005735Y0006875
X0056775Y000645
X005625Y0006025
X0060825Y0005775
Y0007025
X0062075Y0006375
X0061675Y00041
X0062275Y0002698
X006065Y0002696
X005915
X0063925
X0065425
X0067075Y0002698
X006875Y00031
X0069296Y00041
Y00056
X0069298Y000725
X0068475Y000735
X0069296Y0008925
X0065575Y0006325
X0069296Y0010425
X0069298Y0012075
X0069296Y00137
Y00152
X0069298Y001685
X0069296Y0018475
Y0019975
X0069298Y0021625
X00677Y0021525
X0067575Y001905
X0067625Y0016475
X0067725Y00241
X0069296Y0024825
Y0023325
X0069298Y0026475
X0069296Y002815
Y002965
X0069298Y00313
X0069296Y003275
Y003425
X0067725Y003425
X0067525Y003175
X006755Y0036775
X0069296Y0037525
Y0039025
X0069298Y0040675
X0069296Y00423
Y00438
X0069298Y004545
X0069296Y0047075
Y0048575
X00677Y00393
X0069298Y00359
X0061125Y0040725
X0057725Y003785
X00573Y0037425
X0056875Y0037
X005645Y0036575
X0056025Y0035175
X00556Y0034725
X005515Y00343
X00547Y0032775
X005425Y0031475
X0053475Y00311
X00547Y003066
X005645Y002945
X00573Y0026875
X0058775Y002495
X0061025Y00252
X0062875Y002465
X0063075Y002675
X006105Y0028025
X0053625Y002715
X0054725Y0024075
X0053475Y0022675
X00533Y00215
X0051575Y00217
Y002125
Y0019435
X004905Y0019175
X005115Y00163
X0050675Y00158
X0052103Y0014926
X00526Y001535
X005225Y0016775
X0052675Y001765
X0053275Y00172
X00533Y0018075
X005445Y001745
X0054725Y00185
X0056025Y0018975
X005625Y001775
X00556Y0016425
X00573Y00152
X0056775Y001445
Y001265
X005555Y0012625
X0053925Y00126
X005515Y0013875
X00513Y001255
X00497Y0012575
X004965Y00236
X0049825Y0026375
X0049225
X00486
X0049875Y0027775
X004965Y003105
X005225Y0033675
X0051575Y0036125
X005115Y0039575
X0053425Y0040725
X005405
X00548
X0054675Y0042775
X0054525Y004445
X005465Y0046625
X0054975Y0047775
X0055775
X0056425
X0057525Y0047725
X005755Y004505
X005325Y0045975
X0051825Y00472
X0050625Y004655
X0048925Y00472
X0049125Y004265
X00482Y0040425
X005245Y004185
X005425Y0020275
X0057075Y00196
X00572Y0022075
X0056875Y0022825
X00444Y0021825
X004355Y0021775
X0043525Y0023
X00422
X0040285Y002384
X004055Y002085
X0040125Y00203
X0040175Y0018375
X0040725Y0016625
X00391Y0015475
X0039725Y001435
X003955Y0011625
X003762Y0013445
X00359Y0012775
X003565Y001115
X0034125
X003348Y0011785
X00329Y0012725
X0032255Y001336
X003225Y001465
X0032925Y00153
X0033475Y00158
X0034175Y0016025
X00348
X0035575Y0016
X00359Y0015125
X0035975Y001955
X0035215Y001979
X00346Y00195
X003105Y0019725
X00302Y0019475
X0030825Y002075
X00297Y0022225
X0028825Y0023475
X00278Y002435
X0028175Y00256
X00303Y0025075
X0032325Y0025675
X0031775Y00237
X0032825Y002285
X0032835Y002214
X00371Y002335
X00369Y0025325
X0036945Y002735
X003705Y00284
X0035225Y00265
X003371Y00313
X003321Y003179
Y0032775
X003171Y00328
X003121Y0033325
X003071Y0033875
Y00313
X003121Y003179
X003171Y00313
X003221Y003179
X003271Y00313
X0030575Y0028275
X0029225Y0028675
X0027025Y002905
X0025325Y003075
X0023125Y00302
X0022225Y002965
X0020225Y0030175
X0020476Y0027201
X001995Y0026625
X0020925Y00265
X0021425Y0026075
X0022225Y0026025
X002075Y0025575
X0019225Y002594
X00172Y002655
X001625Y00263
Y002725
Y0028175
X00157Y00292
X001395Y0029075
X0016675Y0030225
X0018175Y0028775
X001915Y0032475
X0019125Y00337
X00183
X001755
X0016025Y0034075
X001445Y00329
X001255Y0032875
X00143Y0035275
X00134Y0037725
X0013025Y003965
X0014305Y0039635
X0015275Y0040625
X0017125Y004055
Y004175
X001815Y00413
X001825Y0040025
X0018575Y0039
X0018425Y0038075
X0018725Y003705
X0018675Y0035925
X00186Y00346
X001995Y00364
X0020175Y0037025
X00222
X0022225Y00381
X002235Y0039
X002325Y0039625
X0023775Y0038775
X0024575Y0038025
X0025725Y00388
X002695Y003885
X00268Y0038
X0026675Y0039625
X002655Y0040425
X0025575Y0041225
X002445Y0042125
X0022875Y0042025
X0021525Y0041375
X002185Y00404
X0024275Y0040375
X0024925Y0039625
X00247Y0036
X0024025Y0035
X0022225Y00354
X002665Y003475
X00264Y0032775
X00273Y00328
X0028825Y0035775
X003155Y00385
X00307Y00405
X003025Y0044225
X00321Y0043975
X003335
X003272Y004499
X00321Y0046025
X003335
X003245Y004725
X0035025Y0046825
X0035205Y0045735
X003635Y004605
X003633Y0045235
X0037975Y004365
X0039975Y00438
X0041425Y00467
X00383Y004665
X00348Y0048375
X002925Y0048675
X0028673Y00489
X0028075Y00492
X0026325Y00484
X0026675Y00471
X00255Y004605
X0024475Y0044575
X002285Y004485
X0022825Y0046075
X0021575Y0047075
X0019575Y0047375
X00183Y0047225
X0018677Y0048135
X0018001Y0049027
X0016625Y004895
X0017075Y004735
X001745Y00465
X0016275Y004505
X0014141Y0045084
X001295Y004465
X001125Y004455
X000895Y0044825
X0009Y004795
X0013895Y004855
X001415Y004915
X001435Y0047025
X0015346Y0047868
X0020285Y0048142
X0022575Y0048375
X0024075Y0047125
X002355Y00436
X0022325
X00211Y0043615
Y00447
Y0042525
X001715Y00393
X0017175Y003825
X0014285Y0041595
X0007475Y00395
X001385Y002405
X00142Y002285
X0014125Y00215
X00126Y0021925
X0011925Y00206
X00104Y0019575
X0012375Y0018375
X001225Y00171
X0012075Y0015875
Y001445
X0012175Y0013225
X0012575Y0011975
Y0011375
X00141Y001266
X0013625Y001385
X001305Y0015175
X001385Y00164
X001434Y001774
X0013875Y001895
X0016375Y0019775
X0015475Y00167
X0017725Y0015725
X0017625Y0013925
X002025Y0013375
X0020575Y001457
X00203Y001605
X0022575Y0015975
X0023575Y00157
X00243Y00167
X002375Y0018075
X0023775Y0018975
X0022575Y0019475
X00207Y0022125
X0023151Y0023776
X002416Y002434
X002445Y0023425
X00249Y0022925
X002425Y0025975
X002485Y00277
X0028Y002085
X002705Y0019375
X0027425Y0015625
X0028175Y001575
X0028925Y001575
X002955Y001605
Y0014975
X00268Y00149
X00251Y0014975
X0025875Y0014025
Y0012925
Y001185
X0026125Y00111
X0027645
X0028445Y0011075
X002965
X0031352Y0010501
X003115Y000985
X0031275Y0011825
X00318Y0011525
X00324Y0011275
X00332Y000965
X00444Y00105
X0045225
Y00114
X00444
X0043Y00123
X004575Y001305
X00432Y0015875
X004515Y0025015
X004524Y0027065
X0045725Y002755
X0045425Y0028575
X00451Y003005
X0044Y0031575
X0041025Y0031775
X0041115Y0030115
X0041175Y0029225
X0041925Y0028565
Y002705
X004172Y0026475
X0039425Y0031525
X0045825Y004375
X0045575Y004655
X001595Y00247
X001505Y001
X0014575Y0010475
X0009325Y00108
Y0012
X0021275Y0010725
X002325Y001295
X0000773Y0013725
Y0015225
X0000775Y0016875
X0000773Y00185
Y002
X0000775Y002165
X0000773Y002335
Y002485
X0000775Y00265
X0000773Y0028175
Y0029675
X0000775Y0031325
X0000773Y0032775
Y0034275
X0000775Y0035925
X0000773Y003755
Y003905
X0000775Y00407
X0000773Y0042325
Y0043825
X0000775Y0045475
X0000773Y00471
Y00486
X0000775Y00121
X0000773Y001045
X0000775Y005025
X0000773Y0051925
Y0053425
X0000775Y0055075
X0000773Y00567
Y00582
X0000775Y005985
X0000773Y00615
Y0063
X0000775Y006465
X0000773Y0066275
Y0067775
X0000775Y0069425
X0000773Y007095
Y007245
X0000775Y00741
Y0075775
Y0077275
X0000777Y0078925
X00008Y00807
X0001275Y008145
X0002252Y008179
X000365Y00818
X00053Y0081798
X00068
X0004575Y007405
X00053Y00732
X000285Y007405
Y006995
X000515Y00685
X000575
X000635Y0068495
Y0067225
X0005575Y006645
X00052Y006515
X0005225Y006425
X00029Y00656
X000305Y0061875
X0003125Y00582
X0004025Y0055575
X0003325Y0052775
X00063Y0054075
X000725Y005805
X000635Y0070875
X00091Y00709
X0008575Y0073375
X0007625Y0075175
X00104Y007485
X001195Y0075725
X0012675Y00751
X00127Y00744
X001415Y007465
X001325Y0072975
X001655Y00728
X0016325Y007075
X00169Y0070275
X001805Y00699
X00191Y006924
X0019625Y0067875
X002055Y006775
X00221Y0067225
Y00659
Y0064925
Y00636
X0020625Y006345
X002085Y006425
X0023175Y0064325
X002335Y00629
X00247
Y00602
X002335
X0024025Y0058475
X00261Y00571
X0027251Y0057503
X0027875Y0057925
X00285Y00575
X0030175
X003185
X003277Y0057845
X0032775Y0058875
X0032275Y005945
X003275Y00602
X00332Y00608
X0034175
X0035425
X0036025Y0061875
X0034775
X0032475
X0031225
X00312Y00633
X0032625
X002975Y0063075
X0028075
X002828Y006183
X0027675Y0061875
X0026425
X0025825Y00608
X0027075
X0027875Y0060075
X002725Y005945
X0029875Y0061425
X0031875Y00608
X0031325Y00602
X00343Y00582
X003375Y00573
X0035425Y0056325
X0036375Y0056875
X0035975Y0058825
X0035237
X0038725Y005975
X00408Y005995
X0040175Y00571
X00401Y0055575
X00385Y005425
X004055Y0052525
X00411Y005045
X00457Y0050375
X00445Y00522
X0045925Y00549
X004375Y0056475
X004612Y0059505
X0043925Y00625
X0041775Y00631
X0041275Y00655
X0040175Y0065275
X0040025Y00667
X00394Y0067325
X003835
X00373Y0066925
Y0068175
Y0069425
X0036225Y0068825
Y0067575
Y0066325
X00373Y006445
Y00634
X00373Y0062475
X0038775Y0062875
X004395Y00655
X00467Y006705
X0045675Y0071725
X0044675Y0071075
X00442Y00733
X004075Y00736
X0039235Y007349
X003858Y0074555
X003665Y00743
Y0075
Y0075675
Y0076325
X0036325Y0077
X0034225Y007695
Y00761
Y0075325
Y007455
Y0073825
X0033475Y00735
X0031625Y0073575
X003205Y0074925
X003265Y0076
X0033275Y0077425
Y0079275
X0032525Y007955
X0034075Y007965
X0035025Y0079775
X0036575Y007965
X00375Y007955
X00371Y0081798
X0035475Y0081796
X0033975
X0032325Y0081798
X003065Y0081796
X002915
X00275Y0081798
X0025875Y0081796
X0024375
X0022725Y0081798
X0021075Y0081796
X0019575
X0017925Y0081798
X00163Y0081796
X00148
X001315Y0081798
X0011625Y0081796
X0010125
X0008475Y0081798
X0009425Y0080425
X00097Y0077825
X0007625Y00786
X001255Y007745
X0015425Y0077175
X00154Y0078025
X00173Y007805
X0020625Y007825
Y0077125
X0021225Y00767
X002165Y0077825
X002245Y0076025
X0022775Y0074625
X00247Y0074475
X0026075Y007385
X002705Y0074925
X00283
X00289Y0076
X0029875
X0031075Y0076575
X0031625Y0077025
X0030025Y0077975
X00295Y0080475
X002765Y0076
X002535Y0076025
X002375Y007855
X00207Y0080375
X00194Y00758
X0020625Y0074075
X001915Y0072675
X002008Y0070305
X00221Y0070075
Y0068825
X0023175Y0068225
Y0069475
Y0066625
X0027575Y006645
X0027925Y00671
Y006775
Y00684
Y006905
X00284Y0070525
X002905
X00297
X00317Y0069925
X0031475Y006905
Y00684
Y006775
Y00671
X0031Y0066625
X003035
X00297
X002905
X00284
X0034875Y0070025
X003565Y0071875
X00361Y0072325
X003635Y0072975
Y007365
X00385Y0072
X0040675Y0076375
X004355Y007645
X0046175Y0075225
X004615Y0078725
X004665Y0081798
X0045025Y0081796
X0043525
X00438Y0080775
X0041875Y0081798
X004025Y0081796
X004085Y00796
X00429Y006965
X0034805Y005443
X003482Y0051405
X0035625Y0050575
X003635Y00511
X003325Y005215
X003175Y0052325
X003105
X003155Y00539
X00276Y0054425
X00269Y005445
X002635Y005295
X0023975Y00549
X0021075Y0053375
X0019825Y0055275
X00185Y00566
X0017225Y00575
X001715Y0060725
X0016627Y0061302
X0015222Y0062798
X0014575Y0064125
X0016325Y0065925
Y006725
X001635Y0067875
X0016325Y0068525
X001855Y0067875
X0017395Y006658
X00174Y0065425
X001785Y00647
X00202Y006195
X0019575Y005855
X0013875Y00573
X0013475Y0056875
X001385Y0056125
X00134Y005285
X001295Y004955
X0014675Y0049625
X001715Y00514
X0017596Y0051775
X00182Y0050525
X001885Y005095
X0029075Y005105
X00297Y005105
X0007875Y005115
X000865Y0052875
X0008675Y0055725
X0011175Y0058025
X00118Y006125
X0012425
X000905Y00611
X0014575Y006985
X0015425Y0071175
X0048225Y0071225
X0049Y006985
X0051525Y0071025
X0050645Y0073125
X0050865Y007606
X00502Y007605
X0049475Y0076045
X0048075Y007605
X0048533Y0078158
X00483Y0081796
X00498
X005125Y0081798
X0050725Y0080725
X00529Y0081796
X00544
X0056075Y0081798
X0057725Y0081796
X0059225
X0060925Y0081798
X006071Y0080625
X0060715Y008004
X006071Y007945
X0057065
X005706Y008004
X0057065Y0080625
X00557Y0079025
X0056425Y0077225
X00523Y0077275
X00551Y007435
X0061025Y007495
X00609Y0072625
X0060425
X0061375
X006315Y0072425
X00642Y007085
X0065075Y0074075
X0067425Y00723
X0069296Y0072425
Y0070925
X0069298Y00694
X0069296Y006775
Y006625
X0069298Y0064625
X0069296Y0062975
Y0061475
X0069298Y0059825
X0069296Y0058175
Y0056675
X0069298Y005505
X0069296Y00534
Y00519
X0069298Y0050225
X00668Y00532
X006345Y0053225
X0061825Y005495
X0063275Y0056475
X0064725Y00577
X006255Y005925
X0062625Y0063925
X006375Y0065575
X006665Y006675
X0066775Y00601
X0059725Y00567
X0055425Y005695
X00519Y005685
X0050565Y005554
X0049075Y005435
X0048975Y0053075
X00499Y0052225
X0051325Y0050125
X0051825Y0050625
X0055475Y0050825
X0054Y0054225
X0051925Y0061675
X005087Y0061075
Y0062275
Y0063075
Y0064275
Y0065075
Y0066275
X0049815Y0065675
Y0063675
Y0061675
X0051925Y0063675
Y0065675
X004803Y005823
X006115Y00518
X006445Y007785
X0064075Y0081796
X0062575
X00657Y0081798
X006735Y0081796
X00687Y00813
X00693Y00804
Y00789
X0069298Y007725
Y007575
Y0074075
T03
X00325Y007835
X00375
T04
X000325Y000504
Y000758
X000579
Y000504
X006421
Y000758
X006675
Y000504
Y001012
X006421
Y001266
Y00152
X006675
Y001266
Y001774
Y002028
Y002282
X006421
Y002536
Y00279
X006675
Y002536
Y003044
Y003298
Y003552
Y003806
Y00406
Y004314
X006421
Y004568
Y004822
X006675
Y004568
X006421Y00406
Y003806
Y003552
Y003298
Y003044
Y002028
Y001774
X0044985Y0041235
X0042445
X0039905
X0035635
X0033095
X001087Y004822
X001822Y002439
Y002185
X000579Y002282
X000325
Y002536
Y00279
X000579
Y002536
Y003044
Y003298
Y003552
Y003806
Y00406
Y004314
X000325
Y004568
Y004822
X000579
Y004568
X000325Y00406
Y003806
Y003552
Y003298
Y003044
Y002028
X000579
Y001774
Y00152
X000325
Y001266
Y001012
X000579
Y001266
X000325Y001774
Y005076
X000579
X000325Y007616
Y00787
X001119Y008004
X001373
X001627
X001881
X002473
X002727
X001087Y005076
X006421Y005076
X006675
X005913Y006088
X005659
Y006342
Y006596
X005913
Y006342
Y00685
X005659
X006675Y007616
Y00787
T05
X001087Y000504
Y000758
X005913
Y000504
Y001012
Y001266
Y00152
Y001774
Y002028
Y002282
Y0026884
Y0029424
Y0031964
Y0034504
Y0037044
Y0039584
Y0042124
Y0044664
Y0047204
X001087Y00406
Y003806
Y003552
Y003298
Y003044
Y00279
Y002536
Y002282
Y001774
Y00152
Y001266
Y001012
X005913Y0049744
M30
