<?xml version="1.0" encoding="UTF-8"?>
<!-- Created by Vectric (http://www.vectric.com/) -->
<svg width="200.00000000mm" height="200.00000000mm" viewBox="0.00000000 0.00000000 200.00000000 200.00000000" id="svg2" version="1.1" xmlns="http://www.w3.org/2000/svg" xmlns:xlink="http://www.w3.org/1999/xlink" xmlns:inkscape="http://www.inkscape.org/namespaces/inkscape">
    <g inkscape:groupmode="layer" id="b1c7a688-0f56-4ef9-b29a-a6a404fad012" inkscape:label="Layer 1" style="stroke:#000000;">
        <path style="fill:none;stroke-width:0.280000;stroke-linecap:round;stroke-linejoin:round;stroke-opacity:1;stroke:#000000;" d="M 110.544993,97.114993 C 110.544993,97.099128 110.531818,97.086147 110.515715,97.086147 C 110.499612,97.086147 110.486437,97.099128 110.486437,97.114993 C 110.486437,97.130858 110.499612,97.143839 110.515715,97.143839 C 110.531818,97.143839 110.544993,97.130858 110.544993,97.114993 "/>
        <path style="fill:none;stroke-width:0.280000;stroke-linecap:round;stroke-linejoin:round;stroke-opacity:1;stroke:#000000;" d="M 92.451234,97.345763 C 92.451234,97.361629 92.464409,97.374610 92.480512,97.374610 C 92.496615,97.374610 92.509790,97.361629 92.509790,97.345763 C 92.509790,97.329898 92.496615,97.316917 92.480512,97.316917 C 92.464409,97.316917 92.451234,97.329898 92.451234,97.345763 "/>
        <path style="fill:none;stroke-width:0.280000;stroke-linecap:round;stroke-linejoin:round;stroke-opacity:1;stroke:#000000;" d="M 93.388128,97.403456 C 93.388128,97.419321 93.401303,97.432302 93.417406,97.432302 C 93.433509,97.432302 93.446684,97.419321 93.446684,97.403456 C 93.446684,97.387590 93.433509,97.374610 93.417406,97.374610 C 93.401303,97.374610 93.388128,97.387590 93.388128,97.403456 "/>
        <path style="fill:none;stroke-width:0.280000;stroke-linecap:round;stroke-linejoin:round;stroke-opacity:1;stroke:#000000;" d="M 110.252213,97.230378 C 110.252213,97.214513 110.239038,97.201532 110.222935,97.201532 C 110.206833,97.201532 110.193657,97.214513 110.193657,97.230378 C 110.193657,97.246244 110.206833,97.259224 110.222935,97.259224 C 110.239038,97.259224 110.252213,97.246244 110.252213,97.230378 "/>
        <path style="fill:none;stroke-width:0.280000;stroke-linecap:round;stroke-linejoin:round;stroke-opacity:1;stroke:#000000;" d="M 90.518891,97.316917 L 90.401779,97.316917 L 90.343224,97.316917 L 90.343224,97.259224 L 90.460335,97.259224 L 90.518891,97.259224 L 90.518891,97.316917 "/>
        <path style="fill:none;stroke-width:0.280000;stroke-linecap:round;stroke-linejoin:round;stroke-opacity:1;stroke:#000000;" d="M 91.748564,97.374610 L 91.865676,97.374610 L 91.924232,97.374610 L 91.924232,97.316917 L 91.807120,97.316917 L 91.748564,97.316917 L 91.748564,97.374610 "/>
        <path style="fill:none;stroke-width:0.280000;stroke-linecap:round;stroke-linejoin:round;stroke-opacity:1;stroke:#000000;" d="M 109.900878,96.913069 L 109.783767,96.913069 L 109.783767,96.855376 L 109.900878,96.855376 L 109.900878,96.913069 "/>
        <path style="fill:none;stroke-width:0.280000;stroke-linecap:round;stroke-linejoin:round;stroke-opacity:1;stroke:#000000;" d="M 109.666655,96.855376 L 109.549543,96.855376 L 109.549543,96.797684 L 109.666655,96.797684 L 109.666655,96.855376 "/>
        <path style="fill:none;stroke-width:0.280000;stroke-linecap:round;stroke-linejoin:round;stroke-opacity:1;stroke:#000000;" d="M 110.954884,96.826530 C 110.954884,96.810665 110.941708,96.797684 110.925606,96.797684 C 110.909503,96.797684 110.896328,96.810665 110.896328,96.826530 C 110.896328,96.842396 110.909503,96.855376 110.925606,96.855376 C 110.941708,96.855376 110.954884,96.842396 110.954884,96.826530 "/>
        <path style="fill:none;stroke-width:0.280000;stroke-linecap:round;stroke-linejoin:round;stroke-opacity:1;stroke:#000000;" d="M 89.816221,96.682299 C 89.816221,96.650568 89.789871,96.624606 89.757665,96.624606 C 89.725459,96.624606 89.699109,96.650568 89.699109,96.682299 C 89.699109,96.714029 89.725459,96.739991 89.757665,96.739991 C 89.789871,96.739991 89.816221,96.714029 89.816221,96.682299 "/>
        <path style="fill:none;stroke-width:0.280000;stroke-linecap:round;stroke-linejoin:round;stroke-opacity:1;stroke:#000000;" d="M 110.076546,96.739991 C 110.076546,96.708260 110.050196,96.682299 110.017990,96.682299 C 109.985784,96.682299 109.959434,96.708260 109.959434,96.739991 C 109.959434,96.771722 109.985784,96.797684 110.017990,96.797684 C 110.050196,96.797684 110.076546,96.771722 110.076546,96.739991 "/>
        <path style="fill:none;stroke-width:0.280000;stroke-linecap:round;stroke-linejoin:round;stroke-opacity:1;stroke:#000000;" d="M 91.748564,96.711145 C 91.748564,96.727010 91.761739,96.739991 91.777842,96.739991 C 91.793945,96.739991 91.807120,96.727010 91.807120,96.711145 C 91.807120,96.695279 91.793945,96.682299 91.777842,96.682299 C 91.761739,96.682299 91.748564,96.695279 91.748564,96.711145 "/>
        <path style="fill:none;stroke-width:0.280000;stroke-linecap:round;stroke-linejoin:round;stroke-opacity:1;stroke:#000000;" d="M 90.501923,96.700708 C 90.531311,96.746736 90.552442,96.733869 90.567063,96.661043 C 90.580706,96.593093 90.564627,96.567910 90.523565,96.592914 C 90.487738,96.614730 90.477999,96.663237 90.501923,96.700708 "/>
        <path style="fill:none;stroke-width:0.280000;stroke-linecap:round;stroke-linejoin:round;stroke-opacity:1;stroke:#000000;" d="M 91.982787,96.711145 C 91.982787,96.727010 91.995962,96.739991 92.012065,96.739991 C 92.028168,96.739991 92.041343,96.727010 92.041343,96.711145 C 92.041343,96.695279 92.028168,96.682299 92.012065,96.682299 C 91.995962,96.682299 91.982787,96.695279 91.982787,96.711145 "/>
        <path style="fill:none;stroke-width:0.280000;stroke-linecap:round;stroke-linejoin:round;stroke-opacity:1;stroke:#000000;" d="M 108.202758,96.711145 C 108.202758,96.727010 108.215934,96.739991 108.232036,96.739991 C 108.248139,96.739991 108.261314,96.727010 108.261314,96.711145 C 108.261314,96.695279 108.248139,96.682299 108.232036,96.682299 C 108.215934,96.682299 108.202758,96.695279 108.202758,96.711145 "/>
        <path style="fill:none;stroke-width:0.280000;stroke-linecap:round;stroke-linejoin:round;stroke-opacity:1;stroke:#000000;" d="M 110.310769,96.711145 C 110.310769,96.695279 110.297594,96.682299 110.281491,96.682299 C 110.265388,96.682299 110.252213,96.695279 110.252213,96.711145 C 110.252213,96.727010 110.265388,96.739991 110.281491,96.739991 C 110.297594,96.739991 110.310769,96.727010 110.310769,96.711145 "/>
        <path style="fill:none;stroke-width:0.280000;stroke-linecap:round;stroke-linejoin:round;stroke-opacity:1;stroke:#000000;" d="M 108.729761,96.693837 C 108.729761,96.747684 108.745376,96.747684 108.800028,96.693837 C 108.854680,96.639991 108.854680,96.624606 108.800028,96.624606 C 108.761381,96.624606 108.729761,96.655760 108.729761,96.693837 "/>
        <path style="fill:none;stroke-width:0.280000;stroke-linecap:round;stroke-linejoin:round;stroke-opacity:1;stroke:#000000;" d="M 108.554094,96.653452 C 108.554094,96.669318 108.567269,96.682299 108.583372,96.682299 C 108.599474,96.682299 108.612649,96.669318 108.612649,96.653452 C 108.612649,96.637587 108.599474,96.624606 108.583372,96.624606 C 108.567269,96.624606 108.554094,96.637587 108.554094,96.653452 "/>
        <path style="fill:none;stroke-width:0.280000;stroke-linecap:round;stroke-linejoin:round;stroke-opacity:1;stroke:#000000;" d="M 109.678366,96.613067 C 109.623714,96.559221 109.608099,96.559221 109.608099,96.613067 C 109.608099,96.651145 109.639719,96.682299 109.678366,96.682299 C 109.733018,96.682299 109.733018,96.666914 109.678366,96.613067 "/>
        <path style="fill:none;stroke-width:0.280000;stroke-linecap:round;stroke-linejoin:round;stroke-opacity:1;stroke:#000000;" d="M 109.022540,96.562106 C 109.022540,96.632972 109.060349,96.682299 109.114668,96.682299 C 109.169197,96.682299 109.199069,96.643046 109.187863,96.586117 C 109.159372,96.441380 109.022540,96.421506 109.022540,96.562106 "/>
        <path style="fill:none;stroke-width:0.280000;stroke-linecap:round;stroke-linejoin:round;stroke-opacity:1;stroke:#000000;" d="M 110.486437,96.653452 C 110.486437,96.637587 110.473262,96.624606 110.457159,96.624606 C 110.441056,96.624606 110.427881,96.637587 110.427881,96.653452 C 110.427881,96.669318 110.441056,96.682299 110.457159,96.682299 C 110.473262,96.682299 110.486437,96.669318 110.486437,96.653452 "/>
        <path style="fill:none;stroke-width:0.280000;stroke-linecap:round;stroke-linejoin:round;stroke-opacity:1;stroke:#000000;" d="M 91.631452,96.595760 C 91.631452,96.611625 91.644627,96.624606 91.660730,96.624606 C 91.676833,96.624606 91.690008,96.611625 91.690008,96.595760 C 91.690008,96.579894 91.676833,96.566913 91.660730,96.566913 C 91.644627,96.566913 91.631452,96.579894 91.631452,96.595760 "/>
        <path style="fill:none;stroke-width:0.280000;stroke-linecap:round;stroke-linejoin:round;stroke-opacity:1;stroke:#000000;" d="M 93.212460,96.595760 C 93.212460,96.611625 93.225635,96.624606 93.241738,96.624606 C 93.257841,96.624606 93.271016,96.611625 93.271016,96.595760 C 93.271016,96.579894 93.257841,96.566913 93.241738,96.566913 C 93.225635,96.566913 93.212460,96.579894 93.212460,96.595760 "/>
        <path style="fill:none;stroke-width:0.280000;stroke-linecap:round;stroke-linejoin:round;stroke-opacity:1;stroke:#000000;" d="M 90.802084,96.561748 C 90.822411,96.618148 90.847002,96.601599 90.882211,96.507822 C 90.910151,96.433407 90.915257,96.331885 90.893558,96.282217 C 90.862810,96.211835 90.845132,96.223733 90.813432,96.336143 C 90.791061,96.415470 90.785955,96.516993 90.802084,96.561748 "/>
        <path style="fill:none;stroke-width:0.280000;stroke-linecap:round;stroke-linejoin:round;stroke-opacity:1;stroke:#000000;" d="M 93.505240,96.624606 L 93.622351,96.624606 L 93.622351,96.566913 L 93.505240,96.566913 L 93.505240,96.624606 "/>
        <path style="fill:none;stroke-width:0.280000;stroke-linecap:round;stroke-linejoin:round;stroke-opacity:1;stroke:#000000;" d="M 93.664160,96.513190 C 93.753885,96.569830 93.866822,96.616172 93.915131,96.616172 C 94.077779,96.616173 94.340993,96.421588 94.450518,96.220379 C 94.855034,95.477235 94.009761,94.683166 93.477545,95.306344 C 93.353606,95.451466 93.329874,95.537454 93.331434,95.835759 C 93.333436,96.218601 93.394527,96.342981 93.664160,96.513190 "/>
        <path style="fill:none;stroke-width:0.280000;stroke-linecap:round;stroke-linejoin:round;stroke-opacity:1;stroke:#000000;" d="M 104.455184,96.567567 C 104.455184,96.592255 104.548156,96.591795 104.661789,96.566545 C 105.015615,96.487920 105.216410,96.225939 105.216410,95.842917 C 105.216410,95.196102 104.570980,94.840333 104.166714,95.264311 C 103.970261,95.470342 103.936189,96.009005 104.103089,96.270186 C 104.171153,96.376699 104.278219,96.477083 104.341013,96.493262 C 104.403807,96.509441 104.455184,96.542878 104.455184,96.567567 "/>
        <path style="fill:none;stroke-width:0.280000;stroke-linecap:round;stroke-linejoin:round;stroke-opacity:1;stroke:#000000;" d="M 90.460335,96.566913 L 90.518891,96.566913 L 90.518891,96.451528 L 90.460335,96.451528 L 90.460335,96.566913 "/>
        <path style="fill:none;stroke-width:0.280000;stroke-linecap:round;stroke-linejoin:round;stroke-opacity:1;stroke:#000000;" d="M 107.324421,96.560805 C 107.324421,96.595895 107.348118,96.624606 107.377080,96.624606 C 107.406043,96.624606 107.439201,96.507408 107.450764,96.364167 C 107.468173,96.148495 107.456605,96.110587 107.383465,96.143630 C 107.334888,96.165576 107.169980,96.194413 107.017002,96.207713 C 106.749451,96.230973 106.738862,96.226116 106.738862,96.080121 C 106.738862,95.952162 106.761484,95.931332 106.883038,95.947371 C 106.962334,95.957833 107.043961,95.982894 107.064430,96.003062 C 107.156443,96.093719 107.240503,95.974412 107.218061,95.785013 C 107.194665,95.587560 107.189405,95.583909 106.966514,95.610379 C 106.790008,95.631340 106.738862,95.617753 106.738862,95.549902 C 106.738862,95.480009 106.806652,95.465545 107.075558,95.478064 C 107.412254,95.493739 107.412254,95.493739 107.430898,95.272562 C 107.448300,95.066107 107.440505,95.053769 107.313786,95.087204 C 107.239121,95.106905 107.006439,95.123378 106.796714,95.123811 L 106.415398,95.124599 L 106.407921,96.538067 L 106.866171,96.517535 C 107.174447,96.503723 107.324421,96.517884 107.324421,96.560805 "/>
        <path style="fill:none;stroke-width:0.280000;stroke-linecap:round;stroke-linejoin:round;stroke-opacity:1;stroke:#000000;" d="M 105.899917,96.581337 C 105.927241,96.623893 105.950714,96.547037 105.957183,96.393836 C 105.963213,96.251046 106.049332,95.919288 106.148559,95.656594 L 106.328971,95.178969 L 106.328971,95.151784 C 106.328971,95.136832 106.240114,95.124599 106.131510,95.124599 C 105.946908,95.124599 105.931645,95.139407 105.897144,95.351982 C 105.876847,95.477043 105.831165,95.652284 105.795628,95.741407 C 105.731016,95.903449 105.731016,95.903449 105.650270,95.643832 C 105.605859,95.501043 105.569123,95.325802 105.568634,95.254407 C 105.567865,95.142059 105.536930,95.124599 105.338644,95.124599 C 105.109544,95.124599 105.109544,95.124599 105.282622,95.567449 C 105.377814,95.811016 105.471316,96.122556 105.490404,96.259760 C 105.521946,96.486498 105.540069,96.509221 105.689360,96.509221 C 105.779699,96.509221 105.874450,96.541673 105.899917,96.581337 "/>
        <path style="fill:none;stroke-width:0.280000;stroke-linecap:round;stroke-linejoin:round;stroke-opacity:1;stroke:#000000;" d="M 108.846873,96.566913 L 108.963985,96.566913 L 108.963985,96.509221 L 108.846873,96.509221 L 108.846873,96.566913 "/>
        <path style="fill:none;stroke-width:0.280000;stroke-linecap:round;stroke-linejoin:round;stroke-opacity:1;stroke:#000000;" d="M 110.383964,96.528469 C 110.408118,96.507306 110.426153,96.461865 110.424041,96.427490 C 110.421928,96.393114 110.402166,96.410430 110.380124,96.465969 C 110.358082,96.521508 110.359810,96.549633 110.383964,96.528469 "/>
        <path style="fill:none;stroke-width:0.280000;stroke-linecap:round;stroke-linejoin:round;stroke-opacity:1;stroke:#000000;" d="M 110.603548,96.566913 L 110.544993,96.566913 L 110.544993,96.451528 L 110.603548,96.451528 L 110.603548,96.566913 "/>
        <path style="fill:none;stroke-width:0.280000;stroke-linecap:round;stroke-linejoin:round;stroke-opacity:1;stroke:#000000;" d="M 108.671205,96.480375 C 108.671205,96.496240 108.684380,96.509221 108.700483,96.509221 C 108.716586,96.509221 108.729761,96.496240 108.729761,96.480375 C 108.729761,96.464509 108.716586,96.451528 108.700483,96.451528 C 108.684380,96.451528 108.671205,96.464509 108.671205,96.480375 "/>
        <path style="fill:none;stroke-width:0.280000;stroke-linecap:round;stroke-linejoin:round;stroke-opacity:1;stroke:#000000;" d="M 88.996439,96.422682 C 88.996439,96.406816 88.983264,96.393836 88.967161,96.393836 C 88.951058,96.393836 88.937883,96.406816 88.937883,96.422682 C 88.937883,96.438547 88.951058,96.451528 88.967161,96.451528 C 88.983264,96.451528 88.996439,96.438547 88.996439,96.422682 "/>
        <path style="fill:none;stroke-width:0.280000;stroke-linecap:round;stroke-linejoin:round;stroke-opacity:1;stroke:#000000;" d="M 110.720660,96.393836 L 110.662104,96.393836 L 110.662104,96.278450 L 110.720660,96.278450 L 110.720660,96.393836 "/>
        <path style="fill:none;stroke-width:0.280000;stroke-linecap:round;stroke-linejoin:round;stroke-opacity:1;stroke:#000000;" d="M 108.729761,96.336143 L 108.788317,96.336143 L 108.788317,96.220758 L 108.729761,96.220758 L 108.729761,96.336143 "/>
        <path style="fill:none;stroke-width:0.280000;stroke-linecap:round;stroke-linejoin:round;stroke-opacity:1;stroke:#000000;" d="M 110.310769,96.336143 L 110.252213,96.336143 L 110.252213,96.220758 L 110.310769,96.220758 L 110.310769,96.336143 "/>
        <path style="fill:none;stroke-width:0.280000;stroke-linecap:round;stroke-linejoin:round;stroke-opacity:1;stroke:#000000;" d="M 110.567006,96.290032 C 110.591132,96.251570 110.580707,96.220758 110.543569,96.220758 C 110.506779,96.220758 110.487224,96.251931 110.500114,96.290032 C 110.518351,96.343936 110.533193,96.343936 110.567006,96.290032 "/>
        <path style="fill:none;stroke-width:0.280000;stroke-linecap:round;stroke-linejoin:round;stroke-opacity:1;stroke:#000000;" d="M 90.415960,96.279384 C 90.455965,96.342498 90.515253,96.385545 90.547711,96.375044 C 90.580169,96.364543 90.615145,96.299571 90.625436,96.230662 C 90.640501,96.129794 90.614820,96.105373 90.493686,96.105373 C 90.322200,96.105373 90.315364,96.120678 90.415960,96.279384 "/>
        <path style="fill:none;stroke-width:0.280000;stroke-linecap:round;stroke-linejoin:round;stroke-opacity:1;stroke:#000000;" d="M 89.874777,96.232296 C 89.874777,96.286143 89.890392,96.286143 89.945044,96.232296 C 89.999696,96.178450 89.999696,96.163065 89.945044,96.163065 C 89.906397,96.163065 89.874777,96.194219 89.874777,96.232296 "/>
        <path style="fill:none;stroke-width:0.280000;stroke-linecap:round;stroke-linejoin:round;stroke-opacity:1;stroke:#000000;" d="M 90.694559,96.220758 L 90.811670,96.220758 L 90.811670,96.163065 L 90.694559,96.163065 L 90.694559,96.220758 "/>
        <path style="fill:none;stroke-width:0.280000;stroke-linecap:round;stroke-linejoin:round;stroke-opacity:1;stroke:#000000;" d="M 109.783767,96.220758 C 109.783767,96.189027 109.744241,96.163065 109.695933,96.163065 C 109.647624,96.163065 109.608099,96.189027 109.608099,96.220758 C 109.608099,96.252489 109.647624,96.278450 109.695933,96.278450 C 109.744241,96.278450 109.783767,96.252489 109.783767,96.220758 "/>
        <path style="fill:none;stroke-width:0.280000;stroke-linecap:round;stroke-linejoin:round;stroke-opacity:1;stroke:#000000;" d="M 89.406330,96.134219 C 89.406330,96.086623 89.379980,96.047680 89.347774,96.047680 C 89.315568,96.047680 89.289218,96.086623 89.289218,96.134219 C 89.289218,96.181815 89.315568,96.220758 89.347774,96.220758 C 89.379980,96.220758 89.406330,96.181815 89.406330,96.134219 "/>
        <path style="fill:none;stroke-width:0.280000;stroke-linecap:round;stroke-linejoin:round;stroke-opacity:1;stroke:#000000;" d="M 99.718177,94.836136 L 99.682882,96.509400 L 100.092773,96.509221 L 100.092773,94.836136 L 99.718177,94.836136 "/>
        <path style="fill:none;stroke-width:0.280000;stroke-linecap:round;stroke-linejoin:round;stroke-opacity:1;stroke:#000000;" d="M 101.726030,95.095752 L 101.706868,96.543306 L 101.895318,96.521630 C 102.079530,96.500441 102.083305,96.494220 102.063185,96.244971 C 102.042626,95.990292 102.042836,95.989987 102.238804,95.989137 C 102.657919,95.987320 102.875391,95.714596 102.747025,95.351794 C 102.680070,95.162559 102.605864,95.135851 102.080519,95.111908 L 101.726030,95.095752 "/>
        <path style="fill:none;stroke-width:0.280000;stroke-linecap:round;stroke-linejoin:round;stroke-opacity:1;stroke:#000000;" d="M 109.081096,96.220758 L 109.198208,96.220758 L 109.256764,96.220758 L 109.256764,96.163065 L 109.139652,96.163065 L 109.081096,96.163065 L 109.081096,96.220758 "/>
        <path style="fill:none;stroke-width:0.280000;stroke-linecap:round;stroke-linejoin:round;stroke-opacity:1;stroke:#000000;" d="M 102.866810,96.538067 L 102.870493,96.542498 C 102.872519,96.544935 102.949711,96.536007 103.042031,96.522657 C 103.203113,96.499364 103.208712,96.488127 103.180805,96.244186 C 103.155552,96.023446 103.166260,95.989988 103.262157,95.989988 C 103.372383,95.989988 103.558696,96.296383 103.530129,96.430670 C 103.513629,96.508232 103.920795,96.567671 103.966750,96.494410 C 103.984053,96.466826 103.961198,96.400460 103.915962,96.346931 C 103.870726,96.293401 103.804595,96.182017 103.769005,96.099411 C 103.714809,95.973623 103.722485,95.933873 103.816238,95.854782 C 103.891284,95.791473 103.928181,95.685456 103.928181,95.533132 C 103.928181,95.191508 103.824409,95.124602 103.294523,95.124583 L 102.844898,95.124567 L 102.866810,96.538067 "/>
        <path style="fill:none;stroke-width:0.280000;stroke-linecap:round;stroke-linejoin:round;stroke-opacity:1;stroke:#000000;" d="M 110.779216,96.220758 L 110.720660,96.220758 L 110.720660,96.105373 L 110.779216,96.105373 L 110.779216,96.220758 "/>
        <path style="fill:none;stroke-width:0.280000;stroke-linecap:round;stroke-linejoin:round;stroke-opacity:1;stroke:#000000;" d="M 107.691662,96.509684 C 107.795634,96.557536 107.932187,96.601754 107.995114,96.607947 C 108.058042,96.614140 108.142525,96.592225 108.182856,96.559247 C 108.223187,96.526269 108.280797,96.514274 108.310878,96.532592 C 108.381975,96.575884 108.554094,96.217567 108.554094,96.026265 C 108.554094,95.868964 108.283948,95.623824 108.097731,95.612143 C 107.845533,95.596325 107.792868,95.582537 107.792868,95.532335 C 107.792868,95.409763 108.043285,95.403159 108.205673,95.521448 C 108.370882,95.641791 108.370882,95.641791 108.455009,95.475640 C 108.556675,95.274851 108.530765,95.232719 108.245192,95.134451 C 107.848188,94.997840 107.538991,95.149298 107.464364,95.516935 C 107.432767,95.672588 107.455353,95.725644 107.616250,95.873728 C 107.751444,95.998157 107.863226,96.047680 108.008885,96.047680 C 108.146492,96.047680 108.204166,96.071063 108.186760,96.119796 C 108.155526,96.207243 107.775648,96.198708 107.745597,96.109884 C 107.713886,96.016153 107.576023,96.035229 107.535631,96.138938 C 107.464013,96.322821 107.506860,96.424632 107.691662,96.509684 "/>
        <path style="fill:none;stroke-width:0.280000;stroke-linecap:round;stroke-linejoin:round;stroke-opacity:1;stroke:#000000;" d="M 91.690008,96.509221 L 91.690009,96.523644 C 91.690010,96.531577 91.808586,96.542575 91.953511,96.548085 C 92.098436,96.553594 92.217011,96.532591 92.217011,96.501410 C 92.217011,96.470230 92.193422,96.459082 92.164591,96.476638 C 92.083552,96.525985 92.041096,96.358187 92.043913,95.999692 C 92.046484,95.672678 92.046484,95.672678 92.135865,95.903449 C 92.185024,96.030372 92.254164,96.218594 92.289509,96.321720 C 92.324853,96.424845 92.383048,96.509221 92.418830,96.509221 L 92.483889,96.509221 L 92.855457,95.557293 L 92.858291,95.964026 C 92.859984,96.207056 92.832844,96.398623 92.790858,96.439990 C 92.736206,96.493836 92.736206,96.509221 92.790858,96.509221 C 92.829505,96.509221 92.945166,96.513941 93.047883,96.519710 C 93.150600,96.525480 93.245021,96.499518 93.257708,96.462018 C 93.270395,96.424518 93.252229,96.393836 93.217340,96.393836 L 93.153904,96.393836 L 93.153904,94.974598 L 93.224171,94.905367 C 93.278824,94.851521 93.226204,94.836136 92.987381,94.836136 C 92.770860,94.836136 92.685309,94.857523 92.697230,94.908672 C 92.720119,95.006874 92.491776,95.701525 92.436607,95.701525 C 92.412446,95.701525 92.392678,95.661293 92.392678,95.612121 C 92.392678,95.562949 92.349661,95.440757 92.297085,95.340584 C 92.244508,95.240412 92.195404,95.082213 92.187964,94.989032 C 92.175383,94.831463 92.157131,94.819212 91.927056,94.813908 L 91.679675,94.808204 L 91.690008,96.509221 "/>
        <path style="fill:none;stroke-width:0.280000;stroke-linecap:round;stroke-linejoin:round;stroke-opacity:1;stroke:#000000;" d="M 88.937883,96.163065 L 88.879327,96.163065 L 88.879327,96.047680 L 88.879327,95.989988 L 88.937883,95.989988 L 88.937883,96.105373 L 88.937883,96.163065 "/>
        <path style="fill:none;stroke-width:0.280000;stroke-linecap:round;stroke-linejoin:round;stroke-opacity:1;stroke:#000000;" d="M 90.987338,96.076526 C 90.987338,96.092392 91.000513,96.105373 91.016616,96.105373 C 91.032719,96.105373 91.045894,96.092392 91.045894,96.076526 C 91.045894,96.060661 91.032719,96.047680 91.016616,96.047680 C 91.000513,96.047680 90.987338,96.060661 90.987338,96.076526 "/>
        <path style="fill:none;stroke-width:0.280000;stroke-linecap:round;stroke-linejoin:round;stroke-opacity:1;stroke:#000000;" d="M 107.382977,95.989988 L 107.500088,95.989988 L 107.500088,95.932295 L 107.382977,95.932295 L 107.382977,95.989988 "/>
        <path style="fill:none;stroke-width:0.280000;stroke-linecap:round;stroke-linejoin:round;stroke-opacity:1;stroke:#000000;" d="M 108.612649,96.134219 C 108.612649,96.150084 108.625825,96.163065 108.641927,96.163065 C 108.658030,96.163065 108.671205,96.150084 108.671205,96.134219 C 108.671205,96.118354 108.658030,96.105373 108.641927,96.105373 C 108.625825,96.105373 108.612649,96.118354 108.612649,96.134219 "/>
        <path style="fill:none;stroke-width:0.280000;stroke-linecap:round;stroke-linejoin:round;stroke-opacity:1;stroke:#000000;" d="M 108.788317,95.932295 L 108.905429,95.932295 L 108.905429,95.874602 L 108.788317,95.874602 L 108.788317,95.932295 "/>
        <path style="fill:none;stroke-width:0.280000;stroke-linecap:round;stroke-linejoin:round;stroke-opacity:1;stroke:#000000;" d="M 89.933333,95.845756 C 89.933333,95.861622 89.946508,95.874602 89.962611,95.874602 C 89.978713,95.874602 89.991888,95.861622 89.991888,95.845756 C 89.991888,95.829891 89.978713,95.816910 89.962611,95.816910 C 89.946508,95.816910 89.933333,95.829891 89.933333,95.845756 "/>
        <path style="fill:none;stroke-width:0.280000;stroke-linecap:round;stroke-linejoin:round;stroke-opacity:1;stroke:#000000;" d="M 108.612649,95.845756 C 108.612649,95.861622 108.625825,95.874602 108.641927,95.874602 C 108.658030,95.874602 108.671205,95.861622 108.671205,95.845756 C 108.671205,95.829891 108.658030,95.816910 108.641927,95.816910 C 108.625825,95.816910 108.612649,95.829891 108.612649,95.845756 "/>
        <path style="fill:none;stroke-width:0.280000;stroke-linecap:round;stroke-linejoin:round;stroke-opacity:1;stroke:#000000;" d="M 109.179197,96.009719 C 109.200388,96.030598 109.266035,96.047680 109.325079,96.047680 C 109.451611,96.047680 109.469756,95.901059 109.348879,95.855358 C 109.257477,95.820801 109.117082,95.948519 109.179197,96.009719 "/>
        <path style="fill:none;stroke-width:0.280000;stroke-linecap:round;stroke-linejoin:round;stroke-opacity:1;stroke:#000000;" d="M 110.779216,95.994349 C 110.779216,95.967009 110.739691,95.929696 110.691382,95.911432 C 110.643074,95.893167 110.603548,95.900593 110.603548,95.927933 C 110.603548,95.955273 110.643074,95.992586 110.691382,96.010851 C 110.739691,96.029115 110.779216,96.021690 110.779216,95.994349 "/>
        <path style="fill:none;stroke-width:0.280000;stroke-linecap:round;stroke-linejoin:round;stroke-opacity:1;stroke:#000000;" d="M 108.436982,95.672678 C 108.436982,95.688544 108.450157,95.701525 108.466260,95.701525 C 108.482363,95.701525 108.495538,95.688544 108.495538,95.672678 C 108.495538,95.656813 108.482363,95.643832 108.466260,95.643832 C 108.450157,95.643832 108.436982,95.656813 108.436982,95.672678 "/>
        <path style="fill:none;stroke-width:0.280000;stroke-linecap:round;stroke-linejoin:round;stroke-opacity:1;stroke:#000000;" d="M 110.779216,95.701525 L 110.720660,95.701525 L 110.720660,95.586139 L 110.720660,95.528447 L 110.779216,95.528447 L 110.779216,95.643832 L 110.779216,95.701525 "/>
        <path style="fill:none;stroke-width:0.280000;stroke-linecap:round;stroke-linejoin:round;stroke-opacity:1;stroke:#000000;" d="M 96.491588,95.908167 C 96.491588,95.894897 96.474746,95.840797 96.454161,95.787945 C 96.424306,95.711289 96.406719,95.707417 96.367224,95.768803 C 96.294058,95.882524 96.305179,95.932295 96.403754,95.932295 C 96.452063,95.932295 96.491588,95.921437 96.491588,95.908167 "/>
        <path style="fill:none;stroke-width:0.280000;stroke-linecap:round;stroke-linejoin:round;stroke-opacity:1;stroke:#000000;" d="M 104.773059,96.130098 C 104.824475,96.079439 104.865075,95.942553 104.865075,95.819853 C 104.865075,95.699081 104.832137,95.575157 104.791880,95.544467 C 104.535891,95.349311 104.338072,95.468071 104.338072,95.816910 C 104.338072,96.160561 104.571533,96.328652 104.773059,96.130098 "/>
        <path style="fill:none;stroke-width:0.280000;stroke-linecap:round;stroke-linejoin:round;stroke-opacity:1;stroke:#000000;" d="M 110.369325,95.874602 L 110.252213,95.874602 L 110.193657,95.874602 L 110.193657,95.816910 L 110.310769,95.816910 L 110.369325,95.816910 L 110.369325,95.874602 "/>
        <path style="fill:none;stroke-width:0.280000;stroke-linecap:round;stroke-linejoin:round;stroke-opacity:1;stroke:#000000;" d="M 108.684611,95.748439 C 108.670348,95.790598 108.697118,95.803491 108.754146,95.781930 C 108.805146,95.762648 108.846873,95.721525 108.846873,95.690544 C 108.846873,95.614714 108.713788,95.662198 108.684611,95.748439 "/>
        <path style="fill:none;stroke-width:0.280000;stroke-linecap:round;stroke-linejoin:round;stroke-opacity:1;stroke:#000000;" d="M 89.506339,95.780828 C 89.530210,95.804348 89.603112,95.809461 89.668342,95.792192 C 89.733573,95.774922 89.816797,95.760438 89.853286,95.760005 C 89.889774,95.759572 89.915878,95.685740 89.911294,95.595935 C 89.906071,95.493624 89.875695,95.441606 89.829947,95.456631 C 89.789791,95.469819 89.772133,95.504837 89.790708,95.534449 C 89.809283,95.564060 89.743133,95.621988 89.643708,95.663176 C 89.544283,95.704365 89.482467,95.757308 89.506339,95.780828 "/>
        <path style="fill:none;stroke-width:0.280000;stroke-linecap:round;stroke-linejoin:round;stroke-opacity:1;stroke:#000000;" d="M 102.453095,95.542870 C 102.439225,95.472065 102.376726,95.441324 102.243856,95.439952 C 102.100340,95.438471 102.054394,95.462955 102.054394,95.540914 C 102.054394,95.620475 102.101880,95.643832 102.263633,95.643832 C 102.431405,95.643832 102.468953,95.623823 102.453095,95.542870 "/>
        <path style="fill:none;stroke-width:0.280000;stroke-linecap:round;stroke-linejoin:round;stroke-opacity:1;stroke:#000000;" d="M 109.256764,95.499601 C 109.256764,95.515466 109.269939,95.528447 109.286042,95.528447 C 109.302145,95.528447 109.315320,95.515466 109.315320,95.499601 C 109.315320,95.483735 109.302145,95.470754 109.286042,95.470754 C 109.269939,95.470754 109.256764,95.483735 109.256764,95.499601 "/>
        <path style="fill:none;stroke-width:0.280000;stroke-linecap:round;stroke-linejoin:round;stroke-opacity:1;stroke:#000000;" d="M 89.991888,95.470754 C 89.991888,95.565736 90.022238,95.589918 90.123639,95.575729 C 90.294706,95.551792 90.294706,95.389717 90.123639,95.365780 C 90.022238,95.351591 89.991888,95.375772 89.991888,95.470754 "/>
        <path style="fill:none;stroke-width:0.280000;stroke-linecap:round;stroke-linejoin:round;stroke-opacity:1;stroke:#000000;" d="M 109.007901,95.604063 C 109.064261,95.618574 109.125745,95.633459 109.144532,95.637140 C 109.163318,95.640820 109.196162,95.626617 109.217516,95.605577 C 109.238871,95.584537 109.177388,95.520015 109.080886,95.462194 C 108.909954,95.359776 108.905429,95.359910 108.905429,95.467372 C 108.905429,95.528041 108.951541,95.589552 109.007901,95.604063 "/>
        <path style="fill:none;stroke-width:0.280000;stroke-linecap:round;stroke-linejoin:round;stroke-opacity:1;stroke:#000000;" d="M 109.725211,95.355369 L 109.783767,95.355369 L 109.783767,95.239984 L 109.725211,95.239984 L 109.725211,95.355369 "/>
        <path style="fill:none;stroke-width:0.280000;stroke-linecap:round;stroke-linejoin:round;stroke-opacity:1;stroke:#000000;" d="M 110.710702,95.399796 C 110.761459,95.349787 110.749344,95.329127 110.661520,95.315922 C 110.597430,95.306285 110.544993,95.322667 110.544993,95.352326 C 110.544993,95.442926 110.639460,95.469988 110.710702,95.399796 "/>
        <path style="fill:none;stroke-width:0.280000;stroke-linecap:round;stroke-linejoin:round;stroke-opacity:1;stroke:#000000;" d="M 95.379027,95.542870 C 95.379027,95.465947 95.330230,95.441908 95.174081,95.441908 C 95.017932,95.441908 94.969136,95.465947 94.969136,95.542870 C 94.969136,95.619793 95.017932,95.643832 95.174081,95.643832 C 95.330230,95.643832 95.379027,95.619793 95.379027,95.542870 "/>
        <path style="fill:none;stroke-width:0.280000;stroke-linecap:round;stroke-linejoin:round;stroke-opacity:1;stroke:#000000;" d="M 90.460335,95.038060 C 90.460335,95.053925 90.473510,95.066906 90.489613,95.066906 C 90.505716,95.066906 90.518891,95.053925 90.518891,95.038060 C 90.518891,95.022194 90.505716,95.009214 90.489613,95.009214 C 90.473510,95.009214 90.460335,95.022194 90.460335,95.038060 "/>
        <path style="fill:none;stroke-width:0.280000;stroke-linecap:round;stroke-linejoin:round;stroke-opacity:1;stroke:#000000;" d="M 109.959434,95.009214 L 110.017990,95.009214 L 110.017990,94.893828 L 109.959434,94.893828 L 109.959434,95.009214 "/>
        <path style="fill:none;stroke-width:0.280000;stroke-linecap:round;stroke-linejoin:round;stroke-opacity:1;stroke:#000000;" d="M 100.268441,95.124599 L 100.268441,96.509221 L 100.444108,96.509257 C 100.618913,96.509292 100.619701,96.507804 100.604664,96.206371 C 100.589553,95.903449 100.589553,95.903449 100.721776,96.206274 C 100.794499,96.372829 100.877116,96.501535 100.905369,96.492290 C 100.933623,96.483044 101.012674,96.333791 101.081037,96.160617 C 101.205334,95.845756 101.205334,95.845756 101.203860,96.177488 C 101.202388,96.508571 101.202732,96.509221 101.379527,96.509134 L 101.556669,96.509048 L 101.556669,95.124586 L 101.330820,95.124593 C 101.175043,95.124597 101.113195,95.146973 101.131477,95.196714 C 101.146056,95.236378 101.098856,95.398639 101.026588,95.557293 C 100.895192,95.845756 100.895192,95.845756 100.825539,95.672678 C 100.787230,95.577486 100.741576,95.415225 100.724086,95.312100 C 100.695046,95.140870 100.673896,95.124599 100.480363,95.124599 L 100.268441,95.124599 "/>
        <path style="fill:none;stroke-width:0.280000;stroke-linecap:round;stroke-linejoin:round;stroke-opacity:1;stroke:#000000;" d="M 94.116756,96.092536 C 94.166890,96.022014 94.207910,95.897982 94.207910,95.816910 C 94.207910,95.735838 94.168471,95.614029 94.120267,95.546223 C 94.003381,95.381806 93.730941,95.443830 93.675319,95.647520 C 93.559393,96.072048 93.892554,96.407910 94.116756,96.092536 "/>
        <path style="fill:none;stroke-width:0.280000;stroke-linecap:round;stroke-linejoin:round;stroke-opacity:1;stroke:#000000;" d="M 109.256764,95.009214 L 109.373876,95.009214 L 109.432431,95.009214 L 109.432431,94.951521 L 109.315320,94.951521 L 109.256764,94.951521 L 109.256764,95.009214 "/>
        <path style="fill:none;stroke-width:0.280000;stroke-linecap:round;stroke-linejoin:round;stroke-opacity:1;stroke:#000000;" d="M 110.076546,94.951521 C 110.076546,94.983252 110.102896,95.009214 110.135102,95.009214 C 110.167307,95.009214 110.193657,94.983252 110.193657,94.951521 C 110.193657,94.919790 110.167307,94.893828 110.135102,94.893828 C 110.102896,94.893828 110.076546,94.919790 110.076546,94.951521 "/>
        <path style="fill:none;stroke-width:0.280000;stroke-linecap:round;stroke-linejoin:round;stroke-opacity:1;stroke:#000000;" d="M 97.867651,96.507552 L 97.953939,96.563034 C 98.010732,96.599550 98.053524,96.597318 98.079127,96.556502 L 98.118027,96.494489 L 98.651592,96.519623 C 99.185157,96.544757 99.185157,96.544757 99.185157,96.356629 C 99.185157,96.168502 99.185157,96.168502 98.896145,96.202226 C 98.527649,96.245226 98.423223,96.207040 98.466228,96.045015 C 98.494315,95.939195 98.529724,95.924750 98.695906,95.951320 C 98.885999,95.981713 98.892378,95.976473 98.892378,95.789926 C 98.892378,95.597494 98.891911,95.597181 98.652223,95.628856 C 98.439410,95.656979 98.414524,95.648144 98.433645,95.551250 C 98.451850,95.458991 98.507669,95.442033 98.790911,95.442709 C 99.126601,95.443510 99.126601,95.443510 99.126601,95.249036 C 99.126601,95.095403 99.107150,95.061916 99.033978,95.089580 C 98.983036,95.108840 98.752472,95.124565 98.521615,95.124523 L 98.101874,95.124448 L 98.119022,96.480375 L 98.092362,96.326239 C 98.066367,96.175944 98.057615,96.172926 97.741140,96.205107 C 97.416577,96.238111 97.416577,96.238111 97.437168,95.681310 C 97.457760,95.124509 97.457760,95.124509 97.282092,95.124489 C 97.106424,95.124469 97.106424,95.124469 97.126572,95.736417 L 97.146719,96.348366 L 97.036295,96.457162 L 96.853072,95.978381 C 96.752299,95.715052 96.652796,95.415225 96.631955,95.312100 C 96.599739,95.152696 96.568834,95.124599 96.425713,95.124599 C 96.333121,95.124599 96.244190,95.124599 96.228087,95.124599 C 96.211984,95.124599 96.188860,95.208974 96.176701,95.312100 C 96.155553,95.491461 95.899533,96.264169 95.818400,96.393511 C 95.794262,96.431991 95.740103,96.405572 95.675193,96.323653 C 95.500152,96.102746 95.481767,95.962992 95.612422,95.846494 C 95.765977,95.709578 95.772160,95.352828 95.623278,95.220079 C 95.543600,95.149034 95.403394,95.124599 95.075433,95.124599 L 94.634671,95.124599 L 94.634730,96.364989 L 94.611627,96.450552 C 94.594363,96.514487 94.639764,96.535297 94.791248,96.532879 C 94.993973,96.529645 94.993973,96.529645 94.977132,96.259816 C 94.964894,96.063735 94.981866,95.989988 95.039231,95.989988 C 95.131750,95.989988 95.335813,96.337714 95.309357,96.450287 C 95.295750,96.508186 95.368321,96.525275 95.598611,96.518399 C 95.767691,96.513351 95.973060,96.509221 96.054986,96.509221 C 96.140183,96.509221 96.199874,96.478352 96.194438,96.437105 C 96.189210,96.397441 96.188055,96.332537 96.191871,96.292874 C 96.201137,96.196554 96.606433,96.196554 96.615454,96.292874 C 96.619169,96.332537 96.625757,96.400726 96.630093,96.444404 L 96.637978,96.523818 L 97.867651,96.507552 "/>
        <path style="fill:none;stroke-width:0.280000;stroke-linecap:round;stroke-linejoin:round;stroke-opacity:1;stroke:#000000;" d="M 90.965325,94.905410 C 90.999138,94.959314 91.013979,94.959314 91.032216,94.905410 C 91.045106,94.867309 91.025552,94.836136 90.988762,94.836136 C 90.951623,94.836136 90.941199,94.866948 90.965325,94.905410 "/>
        <path style="fill:none;stroke-width:0.280000;stroke-linecap:round;stroke-linejoin:round;stroke-opacity:1;stroke:#000000;" d="M 110.310769,94.951521 L 110.427881,94.951521 L 110.427881,94.893828 L 110.310769,94.893828 L 110.310769,94.951521 "/>
        <path style="fill:none;stroke-width:0.280000;stroke-linecap:round;stroke-linejoin:round;stroke-opacity:1;stroke:#000000;" d="M 109.762591,95.095752 C 109.742060,95.148467 109.762499,95.182291 109.814882,95.182291 C 109.862180,95.182291 109.900878,95.143349 109.900878,95.095752 C 109.900878,94.983759 109.806210,94.983759 109.762591,95.095752 "/>
        <path style="fill:none;stroke-width:0.280000;stroke-linecap:round;stroke-linejoin:round;stroke-opacity:1;stroke:#000000;" d="M 109.549543,94.893828 C 109.549543,94.925559 109.575893,94.951521 109.608099,94.951521 C 109.640305,94.951521 109.666655,94.925559 109.666655,94.893828 C 109.666655,94.862097 109.640305,94.836136 109.608099,94.836136 C 109.575893,94.836136 109.549543,94.862097 109.549543,94.893828 "/>
        <path style="fill:none;stroke-width:0.280000;stroke-linecap:round;stroke-linejoin:round;stroke-opacity:1;stroke:#000000;" d="M 108.144203,94.807290 C 108.144203,94.823155 108.157378,94.836136 108.173481,94.836136 C 108.189583,94.836136 108.202758,94.823155 108.202758,94.807290 C 108.202758,94.791424 108.189583,94.778443 108.173481,94.778443 C 108.157378,94.778443 108.144203,94.791424 108.144203,94.807290 "/>
        <path style="fill:none;stroke-width:0.280000;stroke-linecap:round;stroke-linejoin:round;stroke-opacity:1;stroke:#000000;" d="M 89.847966,95.186224 C 89.869227,95.220119 89.925638,95.233099 89.973323,95.215071 C 90.021008,95.197042 90.156680,95.182131 90.274818,95.181936 C 90.489613,95.181580 90.489613,95.181580 90.329576,95.099325 C 90.236274,95.051370 90.155435,95.039555 90.135716,95.070990 C 90.115006,95.104007 90.059245,95.102423 89.991888,95.066906 C 89.871106,95.003219 89.780361,95.078450 89.847966,95.186224 "/>
        <path style="fill:none;stroke-width:0.280000;stroke-linecap:round;stroke-linejoin:round;stroke-opacity:1;stroke:#000000;" d="M 110.017990,94.789982 C 110.017990,94.843828 110.033605,94.843828 110.088257,94.789982 C 110.142909,94.736135 110.142909,94.720751 110.088257,94.720751 C 110.049610,94.720751 110.017990,94.751905 110.017990,94.789982 "/>
        <path style="fill:none;stroke-width:0.280000;stroke-linecap:round;stroke-linejoin:round;stroke-opacity:1;stroke:#000000;" d="M 103.635402,95.557293 C 103.635402,95.509697 103.615639,95.468139 103.591485,95.464943 C 103.317891,95.428742 103.196120,95.451703 103.178206,95.542870 C 103.161931,95.625699 103.201206,95.643832 103.396885,95.643832 C 103.569863,95.643832 103.635402,95.620053 103.635402,95.557293 "/>
        <path style="fill:none;stroke-width:0.280000;stroke-linecap:round;stroke-linejoin:round;stroke-opacity:1;stroke:#000000;" d="M 109.783767,94.836136 L 109.900878,94.836136 L 109.959434,94.836136 L 109.959434,94.778443 L 109.842322,94.778443 L 109.783767,94.778443 L 109.783767,94.836136 "/>
        <path style="fill:none;stroke-width:0.280000;stroke-linecap:round;stroke-linejoin:round;stroke-opacity:1;stroke:#000000;" d="M 91.104450,94.807290 C 91.104450,94.823155 91.117625,94.836136 91.133728,94.836136 C 91.149830,94.836136 91.163005,94.823155 91.163005,94.807290 C 91.163005,94.791424 91.149830,94.778443 91.133728,94.778443 C 91.117625,94.778443 91.104450,94.791424 91.104450,94.807290 "/>
        <path style="fill:none;stroke-width:0.280000;stroke-linecap:round;stroke-linejoin:round;stroke-opacity:1;stroke:#000000;" d="M 109.547806,95.525248 C 109.583233,95.590469 109.650817,95.643832 109.697993,95.643832 C 109.745168,95.643832 109.783767,95.606422 109.783767,95.560698 C 109.783767,95.455497 109.667953,95.379844 109.662943,95.481773 C 109.660902,95.523309 109.631546,95.492389 109.597708,95.413062 C 109.563870,95.333734 109.524306,95.299843 109.509788,95.337748 C 109.495270,95.375652 109.512378,95.460027 109.547806,95.525248 "/>
        <path style="fill:none;stroke-width:0.280000;stroke-linecap:round;stroke-linejoin:round;stroke-opacity:1;stroke:#000000;" d="M 89.347774,94.720751 L 89.464886,94.720751 L 89.464886,94.663058 L 89.347774,94.663058 L 89.347774,94.720751 "/>
        <path style="fill:none;stroke-width:0.280000;stroke-linecap:round;stroke-linejoin:round;stroke-opacity:1;stroke:#000000;" d="M 108.671205,94.749597 C 108.671205,94.765462 108.684380,94.778443 108.700483,94.778443 C 108.716586,94.778443 108.729761,94.765462 108.729761,94.749597 C 108.729761,94.733731 108.716586,94.720751 108.700483,94.720751 C 108.684380,94.720751 108.671205,94.733731 108.671205,94.749597 "/>
        <path style="fill:none;stroke-width:0.280000;stroke-linecap:round;stroke-linejoin:round;stroke-opacity:1;stroke:#000000;" d="M 90.426924,94.829407 C 90.351827,94.931361 90.346839,94.959956 90.407628,94.940012 C 90.452720,94.925218 90.498296,94.863341 90.508909,94.802509 C 90.525150,94.709418 90.512168,94.713678 90.426924,94.829407 "/>
        <path style="fill:none;stroke-width:0.280000;stroke-linecap:round;stroke-linejoin:round;stroke-opacity:1;stroke:#000000;" d="M 109.783767,94.691904 C 109.783767,94.707770 109.796942,94.720751 109.813044,94.720751 C 109.829147,94.720751 109.842322,94.707770 109.842322,94.691904 C 109.842322,94.676039 109.829147,94.663058 109.813044,94.663058 C 109.796942,94.663058 109.783767,94.676039 109.783767,94.691904 "/>
        <path style="fill:none;stroke-width:0.280000;stroke-linecap:round;stroke-linejoin:round;stroke-opacity:1;stroke:#000000;" d="M 109.198208,94.720751 L 109.315320,94.720751 L 109.315320,94.663058 L 109.198208,94.663058 L 109.198208,94.720751 "/>
        <path style="fill:none;stroke-width:0.280000;stroke-linecap:round;stroke-linejoin:round;stroke-opacity:1;stroke:#000000;" d="M 109.315320,94.634212 C 109.315320,94.650077 109.328495,94.663058 109.344598,94.663058 C 109.360700,94.663058 109.373876,94.650077 109.373876,94.634212 C 109.373876,94.618346 109.360700,94.605365 109.344598,94.605365 C 109.328495,94.605365 109.315320,94.618346 109.315320,94.634212 "/>
        <path style="fill:none;stroke-width:0.280000;stroke-linecap:round;stroke-linejoin:round;stroke-opacity:1;stroke:#000000;" d="M 110.310769,94.634212 C 110.310769,94.650077 110.323944,94.663058 110.340047,94.663058 C 110.356150,94.663058 110.369325,94.650077 110.369325,94.634212 C 110.369325,94.618346 110.356150,94.605365 110.340047,94.605365 C 110.323944,94.605365 110.310769,94.618346 110.310769,94.634212 "/>
        <path style="fill:none;stroke-width:0.280000;stroke-linecap:round;stroke-linejoin:round;stroke-opacity:1;stroke:#000000;" d="M 109.373876,94.807290 C 109.373876,94.823155 109.387051,94.836136 109.403153,94.836136 C 109.419256,94.836136 109.432431,94.823155 109.432431,94.807290 C 109.432431,94.791424 109.419256,94.778443 109.403153,94.778443 C 109.387051,94.778443 109.373876,94.791424 109.373876,94.807290 "/>
        <path style="fill:none;stroke-width:0.280000;stroke-linecap:round;stroke-linejoin:round;stroke-opacity:1;stroke:#000000;" d="M 90.636003,94.691904 C 90.636003,94.707770 90.649178,94.720751 90.665281,94.720751 C 90.681384,94.720751 90.694559,94.707770 90.694559,94.691904 C 90.694559,94.676039 90.681384,94.663058 90.665281,94.663058 C 90.649178,94.663058 90.636003,94.676039 90.636003,94.691904 "/>
        <path style="fill:none;stroke-width:0.280000;stroke-linecap:round;stroke-linejoin:round;stroke-opacity:1;stroke:#000000;" d="M 110.135102,94.605365 L 110.193657,94.605365 L 110.193657,94.489980 L 110.135102,94.489980 L 110.135102,94.605365 "/>
        <path style="fill:none;stroke-width:0.280000;stroke-linecap:round;stroke-linejoin:round;stroke-opacity:1;stroke:#000000;" d="M 111.189107,94.605365 L 111.130551,94.605365 L 111.130551,94.489980 L 111.130551,94.432288 L 111.189107,94.432288 L 111.189107,94.547673 L 111.189107,94.605365 "/>
        <path style="fill:none;stroke-width:0.280000;stroke-linecap:round;stroke-linejoin:round;stroke-opacity:1;stroke:#000000;" d="M 89.347774,94.407672 C 89.347774,94.461397 89.387614,94.490828 89.445394,94.479787 C 89.592298,94.451717 89.612469,94.316903 89.469765,94.316903 C 89.397839,94.316903 89.347774,94.354154 89.347774,94.407672 "/>
        <path style="fill:none;stroke-width:0.280000;stroke-linecap:round;stroke-linejoin:round;stroke-opacity:1;stroke:#000000;" d="M 100.209885,93.043248 L 100.208643,94.489980 L 100.561220,94.490224 L 100.502664,93.076512 L 100.209885,93.043248 "/>
        <path style="fill:none;stroke-width:0.280000;stroke-linecap:round;stroke-linejoin:round;stroke-opacity:1;stroke:#000000;" d="M 92.129177,94.487117 L 92.217011,94.510702 C 92.265319,94.523675 92.344370,94.537308 92.392678,94.540999 L 92.480512,94.547709 L 92.480512,93.042583 L 92.148543,93.076512 L 92.129177,94.487117 "/>
        <path style="fill:none;stroke-width:0.280000;stroke-linecap:round;stroke-linejoin:round;stroke-opacity:1;stroke:#000000;" d="M 99.419381,94.470749 L 99.448325,94.499267 C 99.464245,94.514952 99.549883,94.517346 99.638632,94.504586 C 99.799994,94.481387 99.799994,94.481387 99.781145,93.929563 C 99.762296,93.377739 99.762296,93.377739 99.942174,93.413184 C 100.115474,93.447333 100.122051,93.441270 100.122051,93.247360 C 100.122051,93.046091 100.122051,93.046091 99.595048,93.055509 C 99.068046,93.064927 99.068046,93.064927 99.068046,93.256778 C 99.068046,93.439177 99.076701,93.446924 99.243713,93.414014 C 99.419381,93.379398 99.419381,93.379398 99.419381,93.925074 L 99.419381,94.470749 "/>
        <path style="fill:none;stroke-width:0.280000;stroke-linecap:round;stroke-linejoin:round;stroke-opacity:1;stroke:#000000;" d="M 102.279015,94.484917 C 102.364811,94.517332 102.525657,94.532563 102.636452,94.518763 C 103.008725,94.472396 103.079121,94.336830 103.079121,93.666290 C 103.079121,93.076512 103.079121,93.076512 102.920258,93.058463 C 102.761394,93.040413 102.761394,93.040413 102.744590,93.606542 C 102.729264,94.122881 102.717487,94.173969 102.610675,94.187425 C 102.363726,94.218535 102.317883,94.121626 102.318102,93.568951 C 102.318308,93.047666 102.318308,93.047666 102.149398,93.047666 C 101.980487,93.047666 101.980487,93.047666 102.010202,93.639015 L 102.039916,94.230364 L 102.081470,94.328172 C 102.104324,94.381967 102.193219,94.452502 102.279015,94.484917 "/>
        <path style="fill:none;stroke-width:0.280000;stroke-linecap:round;stroke-linejoin:round;stroke-opacity:1;stroke:#000000;" d="M 90.050444,94.432288 L 90.109000,94.432288 L 90.109000,94.316903 L 90.050444,94.316903 L 90.050444,94.432288 "/>
        <path style="fill:none;stroke-width:0.280000;stroke-linecap:round;stroke-linejoin:round;stroke-opacity:1;stroke:#000000;" d="M 110.135102,94.345749 C 110.135102,94.361614 110.148277,94.374595 110.164380,94.374595 C 110.180482,94.374595 110.193657,94.361614 110.193657,94.345749 C 110.193657,94.329883 110.180482,94.316903 110.164380,94.316903 C 110.148277,94.316903 110.135102,94.329883 110.135102,94.345749 "/>
        <path style="fill:none;stroke-width:0.280000;stroke-linecap:round;stroke-linejoin:round;stroke-opacity:1;stroke:#000000;" d="M 88.937883,94.432288 L 88.879327,94.432288 L 88.879327,94.316903 L 88.879327,94.201517 L 88.937883,94.201517 L 88.937883,94.316903 L 88.937883,94.432288 "/>
        <path style="fill:none;stroke-width:0.280000;stroke-linecap:round;stroke-linejoin:round;stroke-opacity:1;stroke:#000000;" d="M 97.884782,93.076512 L 97.867651,94.490004 L 98.043318,94.490095 C 98.218986,94.490186 98.218986,94.490186 98.218986,94.106456 L 98.218986,93.722725 L 98.438570,94.047772 C 98.559342,94.226549 98.658155,94.399181 98.658155,94.431400 C 98.658155,94.463619 98.753199,94.489980 98.869365,94.489980 C 99.037904,94.489980 99.073394,94.471543 99.045032,94.398723 L 99.009490,94.307465 L 99.009490,93.673733 C 99.009490,93.040002 99.009490,93.040002 98.852483,93.058257 C 98.697253,93.076305 98.695644,93.081082 98.710297,93.480360 L 98.725118,93.884208 L 98.486691,93.556910 C 98.355556,93.376896 98.248264,93.187029 98.248264,93.134983 C 98.248264,93.063717 98.203396,93.044818 98.066523,93.058433 L 97.884782,93.076512 "/>
        <path style="fill:none;stroke-width:0.280000;stroke-linecap:round;stroke-linejoin:round;stroke-opacity:1;stroke:#000000;" d="M 89.874777,94.247671 C 89.874777,94.285749 89.906397,94.316903 89.945044,94.316903 C 89.999696,94.316903 89.999696,94.301518 89.945044,94.247671 C 89.890392,94.193825 89.874777,94.193825 89.874777,94.247671 "/>
        <path style="fill:none;stroke-width:0.280000;stroke-linecap:round;stroke-linejoin:round;stroke-opacity:1;stroke:#000000;" d="M 90.167556,94.316903 L 90.226112,94.316903 L 90.226112,94.201517 L 90.226112,94.143825 L 90.167556,94.143825 L 90.167556,94.259210 L 90.167556,94.316903 "/>
        <path style="fill:none;stroke-width:0.280000;stroke-linecap:round;stroke-linejoin:round;stroke-opacity:1;stroke:#000000;" d="M 90.343224,94.230364 C 90.343224,94.246229 90.356399,94.259210 90.372501,94.259210 C 90.388604,94.259210 90.401779,94.246229 90.401779,94.230364 C 90.401779,94.214498 90.388604,94.201517 90.372501,94.201517 C 90.356399,94.201517 90.343224,94.214498 90.343224,94.230364 "/>
        <path style="fill:none;stroke-width:0.280000;stroke-linecap:round;stroke-linejoin:round;stroke-opacity:1;stroke:#000000;" d="M 110.193657,94.316903 L 110.310769,94.316903 L 110.369325,94.316903 L 110.369325,94.259210 L 110.252213,94.259210 L 110.193657,94.259210 L 110.193657,94.316903 "/>
        <path style="fill:none;stroke-width:0.280000;stroke-linecap:round;stroke-linejoin:round;stroke-opacity:1;stroke:#000000;" d="M 91.924232,94.288056 C 91.924232,94.303922 91.937407,94.316903 91.953509,94.316903 C 91.969612,94.316903 91.982787,94.303922 91.982787,94.288056 C 91.982787,94.272191 91.969612,94.259210 91.953509,94.259210 C 91.937407,94.259210 91.924232,94.272191 91.924232,94.288056 "/>
        <path style="fill:none;stroke-width:0.280000;stroke-linecap:round;stroke-linejoin:round;stroke-opacity:1;stroke:#000000;" d="M 88.936021,93.958853 C 88.937045,93.904715 88.897719,93.852791 88.848630,93.843468 C 88.769249,93.828391 88.769043,93.839277 88.846768,93.941901 C 88.922705,94.042163 88.934403,94.044385 88.936021,93.958853 "/>
        <path style="fill:none;stroke-width:0.280000;stroke-linecap:round;stroke-linejoin:round;stroke-opacity:1;stroke:#000000;" d="M 109.995977,93.982329 C 110.029790,94.036232 110.044631,94.036232 110.062868,93.982329 C 110.075758,93.944228 110.056204,93.913054 110.019414,93.913054 C 109.982275,93.913054 109.971851,93.943867 109.995977,93.982329 "/>
        <path style="fill:none;stroke-width:0.280000;stroke-linecap:round;stroke-linejoin:round;stroke-opacity:1;stroke:#000000;" d="M 109.666655,93.941901 C 109.666655,93.957766 109.679830,93.970747 109.695933,93.970747 C 109.712036,93.970747 109.725211,93.957766 109.725211,93.941901 C 109.725211,93.926035 109.712036,93.913054 109.695933,93.913054 C 109.679830,93.913054 109.666655,93.926035 109.666655,93.941901 "/>
        <path style="fill:none;stroke-width:0.280000;stroke-linecap:round;stroke-linejoin:round;stroke-opacity:1;stroke:#000000;" d="M 110.171422,93.950617 C 110.192987,94.031651 110.251840,94.055832 110.416317,94.051234 C 110.733061,94.042381 110.771468,94.022439 110.574271,93.969220 C 110.477653,93.943145 110.341100,93.904292 110.270820,93.882880 C 110.166421,93.851073 110.148231,93.863469 110.171422,93.950617 "/>
        <path style="fill:none;stroke-width:0.280000;stroke-linecap:round;stroke-linejoin:round;stroke-opacity:1;stroke:#000000;" d="M 109.549543,93.913054 L 109.666655,93.913054 L 109.666655,93.855362 L 109.549543,93.855362 L 109.549543,93.913054 "/>
        <path style="fill:none;stroke-width:0.280000;stroke-linecap:round;stroke-linejoin:round;stroke-opacity:1;stroke:#000000;" d="M 89.874777,93.884208 C 89.874777,93.900074 89.887952,93.913054 89.904055,93.913054 C 89.920158,93.913054 89.933333,93.900074 89.933333,93.884208 C 89.933333,93.868343 89.920158,93.855362 89.904055,93.855362 C 89.887952,93.855362 89.874777,93.868343 89.874777,93.884208 "/>
        <path style="fill:none;stroke-width:0.280000;stroke-linecap:round;stroke-linejoin:round;stroke-opacity:1;stroke:#000000;" d="M 109.912956,94.594188 C 109.966249,94.646696 109.992865,94.645874 110.028478,94.590621 C 110.095827,94.486129 110.086821,94.156892 110.015425,94.113417 C 109.981808,94.092947 109.915933,94.107574 109.869035,94.145922 C 109.815128,94.190002 109.783767,94.193310 109.783767,94.154916 C 109.783767,94.114870 109.723937,94.111093 109.608099,94.143825 C 109.432431,94.193463 109.432431,94.193463 109.423207,93.779219 C 109.411608,93.258366 109.410867,93.270181 109.463004,93.144687 C 109.501362,93.052358 109.479331,93.041985 109.279202,93.058148 L 109.051818,93.076512 L 109.057114,94.518827 L 109.450411,94.522394 C 109.670173,94.524387 109.874262,94.556065 109.912956,94.594188 "/>
        <path style="fill:none;stroke-width:0.280000;stroke-linecap:round;stroke-linejoin:round;stroke-opacity:1;stroke:#000000;" d="M 110.440981,93.826516 C 110.423199,93.941901 110.423199,93.941901 110.515894,93.826516 C 110.583851,93.741925 110.588596,93.711130 110.533676,93.711130 C 110.492474,93.711130 110.450761,93.763054 110.440981,93.826516 "/>
        <path style="fill:none;stroke-width:0.280000;stroke-linecap:round;stroke-linejoin:round;stroke-opacity:1;stroke:#000000;" d="M 89.471180,93.776413 C 89.543199,93.862015 89.554807,93.862805 89.570601,93.783186 C 89.580435,93.733607 89.558920,93.675041 89.522788,93.653040 C 89.416941,93.588587 89.382477,93.670980 89.471180,93.776413 "/>
        <path style="fill:none;stroke-width:0.280000;stroke-linecap:round;stroke-linejoin:round;stroke-opacity:1;stroke:#000000;" d="M 104.133717,94.548614 C 104.153946,94.580862 104.195026,94.592311 104.225007,94.574055 C 104.295879,94.530899 104.295879,94.160598 104.225007,94.117442 C 104.195026,94.099187 104.153946,94.110635 104.133717,94.142884 C 104.113488,94.175132 103.979917,94.201517 103.836892,94.201517 C 103.595174,94.201517 103.576846,94.190832 103.576846,94.049912 C 103.576846,93.905351 103.587729,93.900022 103.811070,93.935209 C 104.045293,93.972111 104.045293,93.972111 104.045293,93.774995 C 104.045293,93.578329 104.044758,93.577949 103.811070,93.608831 C 103.598597,93.636910 103.576846,93.627868 103.576846,93.511463 C 103.576846,93.391986 103.599047,93.384504 103.898983,93.402905 C 104.221120,93.422667 104.221120,93.422667 104.221157,93.220743 C 104.221193,93.018819 104.221193,93.018819 103.747500,93.047666 L 103.273806,93.076512 L 103.254789,94.490023 L 103.675863,94.490001 C 103.907454,94.489990 104.113488,94.516365 104.133717,94.548614 "/>
        <path style="fill:none;stroke-width:0.280000;stroke-linecap:round;stroke-linejoin:round;stroke-opacity:1;stroke:#000000;" d="M 97.293438,94.164390 C 97.331884,94.148980 97.392968,94.047921 97.429181,93.939813 C 97.517318,93.676692 97.404666,93.430087 97.184849,93.404951 C 97.016480,93.385697 96.842923,93.563723 96.842923,93.755679 C 96.842923,94.049316 97.068949,94.254369 97.293438,94.164390 "/>
        <path style="fill:none;stroke-width:0.280000;stroke-linecap:round;stroke-linejoin:round;stroke-opacity:1;stroke:#000000;" d="M 111.189107,93.249590 C 111.189107,93.233724 111.175932,93.220743 111.159829,93.220743 C 111.143726,93.220743 111.130551,93.233724 111.130551,93.249590 C 111.130551,93.265455 111.143726,93.278436 111.159829,93.278436 C 111.175932,93.278436 111.189107,93.265455 111.189107,93.249590 "/>
        <path style="fill:none;stroke-width:0.280000;stroke-linecap:round;stroke-linejoin:round;stroke-opacity:1;stroke:#000000;" d="M 111.178877,92.922576 C 111.184503,92.837911 111.205101,92.727574 111.224650,92.677382 C 111.244520,92.626364 111.230126,92.586125 111.192005,92.586125 C 111.147306,92.586125 111.131538,92.670585 111.146232,92.831318 C 111.158560,92.966175 111.173250,93.007241 111.178877,92.922576 "/>
        <path style="fill:none;stroke-width:0.280000;stroke-linecap:round;stroke-linejoin:round;stroke-opacity:1;stroke:#000000;" d="M 100.702400,93.076512 L 100.678331,94.490079 L 100.853999,94.490038 C 101.029667,94.489997 101.029667,94.489997 101.029667,94.103982 L 101.029667,93.717967 L 101.249251,94.017568 C 101.370022,94.182349 101.468835,94.356052 101.468835,94.403575 C 101.468835,94.463359 101.530106,94.489980 101.667703,94.489980 L 101.866570,94.489980 L 101.828714,93.076512 L 101.680810,93.058519 C 101.536877,93.041009 101.532440,93.050978 101.515510,93.429926 C 101.498113,93.819326 101.498113,93.819326 101.322446,93.563304 C 101.225829,93.422492 101.132415,93.255359 101.114860,93.191897 C 101.091276,93.106637 101.033266,93.076512 100.892671,93.076512 L 100.702400,93.076512 "/>
        <path style="fill:none;stroke-width:0.280000;stroke-linecap:round;stroke-linejoin:round;stroke-opacity:1;stroke:#000000;" d="M 96.865212,94.437504 C 96.965673,94.497860 97.096503,94.547339 97.155946,94.547457 C 97.298721,94.547742 97.590624,94.375167 97.638339,94.262263 C 97.828734,93.811749 97.752838,93.330919 97.463934,93.157347 C 97.242699,93.024430 97.029727,93.017554 96.855618,93.137707 C 96.446646,93.419938 96.452326,94.189447 96.865212,94.437504 "/>
        <path style="fill:none;stroke-width:0.280000;stroke-linecap:round;stroke-linejoin:round;stroke-opacity:1;stroke:#000000;" d="M 109.373876,92.903434 C 109.373876,92.919300 109.387051,92.932280 109.403153,92.932280 C 109.419256,92.932280 109.432431,92.919300 109.432431,92.903434 C 109.432431,92.887569 109.419256,92.874588 109.403153,92.874588 C 109.387051,92.874588 109.373876,92.887569 109.373876,92.903434 "/>
        <path style="fill:none;stroke-width:0.280000;stroke-linecap:round;stroke-linejoin:round;stroke-opacity:1;stroke:#000000;" d="M 110.369325,92.874588 C 110.369325,92.938691 110.408362,92.989973 110.457159,92.989973 C 110.505955,92.989973 110.544993,92.938691 110.544993,92.874588 C 110.544993,92.811126 110.551580,92.728914 110.559632,92.691895 C 110.567683,92.654875 110.537134,92.612390 110.491745,92.597484 C 110.434997,92.578847 110.420705,92.599871 110.445990,92.664792 C 110.466214,92.716718 110.457238,92.759203 110.426043,92.759203 C 110.394848,92.759203 110.369325,92.811126 110.369325,92.874588 "/>
        <path style="fill:none;stroke-width:0.280000;stroke-linecap:round;stroke-linejoin:round;stroke-opacity:1;stroke:#000000;" d="M 110.058848,93.761002 C 110.081320,93.783142 110.136176,93.787469 110.180749,93.770617 C 110.225322,93.753765 110.285987,93.739977 110.315558,93.739977 C 110.345130,93.739977 110.369325,93.673605 110.369325,93.592484 C 110.369325,93.444990 110.369325,93.444990 110.193657,93.547230 C 110.012844,93.652464 109.988258,93.691452 110.058848,93.761002 "/>
        <path style="fill:none;stroke-width:0.280000;stroke-linecap:round;stroke-linejoin:round;stroke-opacity:1;stroke:#000000;" d="M 95.501104,94.446621 C 95.611093,94.502101 95.761739,94.547534 95.835873,94.547583 C 95.941898,94.547654 96.240290,94.421864 96.487444,94.272909 C 96.501267,94.264577 96.468153,94.165976 96.413857,94.053794 C 96.315136,93.849826 96.315136,93.849826 96.178406,94.006441 C 96.082568,94.116217 95.985533,94.163056 95.853953,94.163056 C 95.603114,94.163056 95.489314,94.036840 95.452862,93.718207 C 95.418907,93.421398 95.525885,93.198146 95.733119,93.133343 C 95.878766,93.087797 96.177091,93.197153 96.222041,93.312564 C 96.239448,93.357256 96.277669,93.393821 96.306979,93.393821 C 96.360943,93.393821 96.526357,93.055605 96.484831,93.030174 C 96.218278,92.866940 95.935735,92.759203 95.774203,92.759203 C 95.027294,92.759203 94.810569,94.098306 95.501104,94.446621 "/>
        <path style="fill:none;stroke-width:0.280000;stroke-linecap:round;stroke-linejoin:round;stroke-opacity:1;stroke:#000000;" d="M 105.090870,94.460188 C 105.176020,94.505764 105.332634,94.544093 105.438902,94.545363 C 105.545170,94.546633 105.708890,94.508557 105.802725,94.460749 C 106.020135,94.349979 106.082997,94.120661 106.103107,93.364975 C 106.118459,92.788049 106.118459,92.788049 105.925421,92.788049 C 105.732384,92.788049 105.732384,92.788049 105.723259,93.444806 C 105.714773,94.055612 105.705509,94.104713 105.590850,94.146595 C 105.518498,94.173023 105.409637,94.163068 105.327349,94.122498 C 105.192747,94.056136 105.186924,94.028031 105.181945,93.420708 C 105.176758,92.788049 105.176758,92.788049 104.991638,92.769971 C 104.806519,92.751892 104.806519,92.751892 104.806519,93.381557 L 104.806519,94.011221 L 104.871286,94.194272 C 104.906907,94.294950 105.005720,94.414612 105.090870,94.460188 "/>
        <path style="fill:none;stroke-width:0.280000;stroke-linecap:round;stroke-linejoin:round;stroke-opacity:1;stroke:#000000;" d="M 102.347173,90.963068 L 102.347173,92.478404 L 102.648789,92.441894 L 102.648789,90.999579 L 102.347173,90.963068 "/>
        <path style="fill:none;stroke-width:0.280000;stroke-linecap:round;stroke-linejoin:round;stroke-opacity:1;stroke:#000000;" d="M 96.312171,92.465820 L 96.767854,92.485516 C 97.018479,92.496349 97.244889,92.510436 97.270988,92.516822 C 97.297086,92.523208 97.310261,92.432395 97.300266,92.315016 C 97.282092,92.101600 97.282092,92.101600 96.940739,92.117487 C 96.613182,92.132733 96.600165,92.127951 96.618681,91.999190 C 96.635553,91.881868 96.665572,91.867371 96.857562,91.883830 C 97.072914,91.902292 97.077147,91.898783 97.077147,91.701800 C 97.077147,91.500945 97.077147,91.500945 96.842923,91.531898 C 96.633089,91.559628 96.608700,91.550045 96.608700,91.439870 C 96.608700,91.329263 96.641106,91.316888 96.930757,91.316888 C 97.249561,91.316888 97.252814,91.315140 97.252814,91.143810 C 97.252814,90.970733 97.252814,90.970733 96.789929,90.970733 L 96.327044,90.970733 L 96.312171,92.465820 "/>
        <path style="fill:none;stroke-width:0.280000;stroke-linecap:round;stroke-linejoin:round;stroke-opacity:1;stroke:#000000;" d="M 98.677673,92.086123 C 98.699144,92.064969 98.716710,91.974103 98.716710,91.884199 C 98.716710,91.729859 98.702550,91.720736 98.462968,91.720736 C 98.157032,91.720736 98.144362,91.730951 98.177168,91.951178 C 98.200572,92.108286 98.223473,92.124584 98.420818,92.124584 C 98.540618,92.124584 98.656203,92.107277 98.677673,92.086123 "/>
        <path style="fill:none;stroke-width:0.280000;stroke-linecap:round;stroke-linejoin:round;stroke-opacity:1;stroke:#000000;" d="M 88.762216,91.893814 L 88.820771,91.893814 L 88.820771,91.778429 L 88.820771,91.720736 L 88.762216,91.720736 L 88.762216,91.836121 L 88.762216,91.893814 "/>
        <path style="fill:none;stroke-width:0.280000;stroke-linecap:round;stroke-linejoin:round;stroke-opacity:1;stroke:#000000;" d="M 110.486437,91.864968 C 110.486437,91.880833 110.499612,91.893814 110.515715,91.893814 C 110.531818,91.893814 110.544993,91.880833 110.544993,91.864968 C 110.544993,91.849102 110.531818,91.836121 110.515715,91.836121 C 110.499612,91.836121 110.486437,91.849102 110.486437,91.864968 "/>
        <path style="fill:none;stroke-width:0.280000;stroke-linecap:round;stroke-linejoin:round;stroke-opacity:1;stroke:#000000;" d="M 97.838373,90.682270 L 97.838373,92.470740 L 98.281391,92.470740 C 98.817371,92.470740 98.926584,92.419970 99.014825,92.129788 C 99.071191,91.944432 99.066755,91.874325 98.988941,91.720642 C 98.917058,91.578673 98.909999,91.507634 98.958841,91.417717 C 99.045863,91.257512 98.981940,90.847291 98.855792,90.756410 C 98.792767,90.711004 98.575666,90.682270 98.295628,90.682270 L 97.838373,90.682270 "/>
        <path style="fill:none;stroke-width:0.280000;stroke-linecap:round;stroke-linejoin:round;stroke-opacity:1;stroke:#000000;" d="M 100.780627,91.692562 C 100.765308,91.613605 100.729437,91.563214 100.700914,91.580582 C 100.618460,91.630790 100.640841,91.836121 100.728767,91.836121 C 100.782121,91.836121 100.799270,91.788649 100.780627,91.692562 "/>
        <path style="fill:none;stroke-width:0.280000;stroke-linecap:round;stroke-linejoin:round;stroke-opacity:1;stroke:#000000;" d="M 101.635351,91.893870 C 101.615225,92.470852 101.615225,92.470852 101.776254,92.470796 C 101.937282,92.470740 101.937282,92.470740 101.937282,91.887266 C 101.937282,91.303792 101.937282,91.303792 102.112950,91.329194 C 102.278100,91.353076 102.288617,91.343106 102.288617,91.162665 C 102.288617,90.970733 102.288617,90.970733 101.790893,90.970733 C 101.293168,90.970733 101.293168,90.970733 101.293168,91.143810 C 101.293168,91.298822 101.312077,91.316888 101.474323,91.316888 C 101.655477,91.316888 101.655477,91.316888 101.635351,91.893870 "/>
        <path style="fill:none;stroke-width:0.280000;stroke-linecap:round;stroke-linejoin:round;stroke-opacity:1;stroke:#000000;" d="M 94.334782,91.018756 L 94.295744,92.470901 L 94.647079,92.470901 L 94.607952,91.014669 L 94.814179,91.038389 C 95.035710,91.063871 95.095387,90.989900 95.031668,90.768809 C 95.001319,90.663505 94.948292,90.653423 94.424760,90.653423 C 93.851105,90.653423 93.851105,90.653423 93.868479,90.855347 C 93.885391,91.051909 93.891813,91.056760 94.110317,91.038014 L 94.334782,91.018756 "/>
        <path style="fill:none;stroke-width:0.280000;stroke-linecap:round;stroke-linejoin:round;stroke-opacity:1;stroke:#000000;" d="M 98.694233,91.291385 C 98.713487,91.241950 98.714073,91.162560 98.695535,91.114964 C 98.672782,91.056544 98.579742,91.028425 98.409196,91.028425 C 98.170996,91.028425 98.156948,91.037490 98.163315,91.187080 C 98.169428,91.330727 98.193201,91.347415 98.414646,91.363501 C 98.593946,91.376525 98.668570,91.357276 98.694233,91.291385 "/>
        <path style="fill:none;stroke-width:0.280000;stroke-linecap:round;stroke-linejoin:round;stroke-opacity:1;stroke:#000000;" d="M 105.403426,92.426201 C 105.509904,92.478370 105.658338,92.522713 105.733278,92.524743 C 105.809552,92.526808 105.944881,92.454195 106.040696,92.359793 C 106.372743,92.032641 106.214658,91.608712 105.728774,91.523326 C 105.593614,91.499574 105.509189,91.452470 105.509189,91.400813 C 105.509189,91.275679 105.897407,91.288977 105.969893,91.416593 C 106.019886,91.504608 106.035349,91.497217 106.101788,91.353549 C 106.170593,91.204767 106.164727,91.181469 106.033427,91.082050 C 105.653996,90.794747 105.173918,91.056549 105.236228,91.516788 C 105.271843,91.779846 105.385881,91.882249 105.697970,91.931418 C 105.917412,91.965991 105.994582,92.083694 105.836894,92.143312 C 105.739015,92.180318 105.509718,92.130923 105.405301,92.050338 C 105.314552,91.980301 105.295025,91.996905 105.247157,92.184816 C 105.215441,92.309321 105.238933,92.345609 105.403426,92.426201 "/>
        <path style="fill:none;stroke-width:0.280000;stroke-linecap:round;stroke-linejoin:round;stroke-opacity:1;stroke:#000000;" d="M 104.291166,92.385006 C 104.386318,92.463891 104.506529,92.528432 104.558301,92.528432 C 104.610073,92.528432 104.759610,92.477314 104.890604,92.414835 C 105.128776,92.301238 105.128776,92.301238 105.119410,91.975935 C 105.110043,91.650631 105.110043,91.650631 104.841170,91.640094 C 104.583395,91.629991 104.572296,91.636201 104.572296,91.790531 C 104.572296,91.923776 104.597513,91.951507 104.718685,91.951507 C 104.809772,91.951507 104.865075,91.984199 104.865075,92.038045 C 104.865075,92.155007 104.494506,92.154243 104.395813,92.037078 C 104.300586,91.924028 104.300586,91.517445 104.395813,91.404395 C 104.492514,91.289594 104.771482,91.292317 104.869786,91.409020 C 104.940255,91.492678 104.951308,91.491351 104.989952,91.394597 C 105.098393,91.123092 104.946270,90.970733 104.566744,90.970733 C 104.015470,90.970733 103.816561,91.991539 104.291166,92.385006 "/>
        <path style="fill:none;stroke-width:0.280000;stroke-linecap:round;stroke-linejoin:round;stroke-opacity:1;stroke:#000000;" d="M 95.141890,90.999579 L 95.115526,92.470834 L 95.276554,92.470787 C 95.432697,92.470741 95.437583,92.461113 95.437583,92.153431 C 95.437583,91.836121 95.437583,91.836121 95.646869,91.836121 C 95.856156,91.836121 95.856156,91.836121 95.839518,92.139007 C 95.823169,92.436612 95.825902,92.442190 95.996205,92.458896 L 96.169531,92.475899 L 96.169531,90.970733 L 96.004016,90.970733 C 95.854181,90.970733 95.839488,90.988496 95.848920,91.158233 C 95.869723,91.532597 95.861569,91.547658 95.638106,91.547658 C 95.428737,91.547658 95.428737,91.547658 95.445842,91.273619 C 95.462343,91.009237 95.457288,90.999579 95.302418,90.999579 L 95.141890,90.999579 "/>
        <path style="fill:none;stroke-width:0.280000;stroke-linecap:round;stroke-linejoin:round;stroke-opacity:1;stroke:#000000;" d="M 111.189107,87.739948 L 111.247663,87.739948 L 111.247663,87.624563 L 111.189107,87.624563 L 111.189107,87.739948 "/>
        <path style="fill:none;stroke-width:0.280000;stroke-linecap:round;stroke-linejoin:round;stroke-opacity:1;stroke:#000000;" d="M 90.759726,94.551699 C 90.806143,94.579963 90.855768,94.571238 90.881983,94.530204 C 90.906252,94.492216 90.914321,94.422192 90.899915,94.374595 C 90.885509,94.326999 90.922270,94.106325 90.981607,93.884208 L 91.089493,93.480360 L 91.118749,93.566899 C 91.235832,93.913231 91.331014,94.306574 91.321149,94.403326 C 91.311415,94.498789 91.344612,94.518616 91.514341,94.518712 C 91.700583,94.518816 91.720299,94.503032 91.730385,94.345749 L 91.741484,94.172671 L 92.104966,92.961127 L 92.138540,92.860165 C 92.166768,92.775277 92.134667,92.759203 91.936917,92.759203 C 91.711416,92.759203 91.701556,92.766933 91.697754,92.946704 C 91.695573,93.049829 91.656922,93.264013 91.611863,93.422667 C 91.531686,93.704972 91.529059,93.707435 91.488808,93.538053 C 91.466188,93.442860 91.423153,93.305340 91.393176,93.232452 C 91.363200,93.159564 91.338673,93.023266 91.338673,92.929566 C 91.338673,92.769271 91.324831,92.759203 91.104450,92.759203 C 90.892252,92.759203 90.870226,92.773076 90.870226,92.906733 C 90.870226,93.087828 90.752970,93.578379 90.694228,93.643035 L 90.651264,93.690325 L 90.574527,93.224764 C 90.497790,92.759203 90.497790,92.759203 90.267288,92.759203 C 90.055388,92.759203 90.040026,92.769679 90.076939,92.889011 C 90.099023,92.960406 90.168312,93.213532 90.230914,93.451514 C 90.293515,93.689496 90.370745,93.929289 90.402535,93.984387 C 90.434325,94.039486 90.460335,94.191793 90.460335,94.322848 C 90.460335,94.528073 90.475683,94.557176 90.570965,94.532627 C 90.631811,94.516950 90.716754,94.525532 90.759726,94.551699 "/>
        <path style="fill:none;stroke-width:0.280000;stroke-linecap:round;stroke-linejoin:round;stroke-opacity:1;stroke:#000000;" d="M 105.187132,86.239941 C 105.167228,86.208210 105.111417,86.182248 105.063109,86.182248 C 105.014800,86.182248 104.991560,86.208210 105.011465,86.239941 C 105.031369,86.271671 105.087179,86.297633 105.135488,86.297633 C 105.183796,86.297633 105.207036,86.271671 105.187132,86.239941 "/>
        <path style="fill:none;stroke-width:0.280000;stroke-linecap:round;stroke-linejoin:round;stroke-opacity:1;stroke:#000000;" d="M 101.556669,89.816881 L 101.556669,87.393792 L 101.088222,87.393750 L 101.088222,89.816824 L 101.556669,89.816881 "/>
        <path style="fill:none;stroke-width:0.280000;stroke-linecap:round;stroke-linejoin:round;stroke-opacity:1;stroke:#000000;" d="M 102.843797,90.970733 L 102.826370,92.470740 L 102.982024,92.470770 C 103.135989,92.470800 103.137677,92.466333 103.137677,92.059027 L 103.137677,91.647255 L 103.357262,91.979001 C 103.478033,92.161462 103.576846,92.346746 103.576846,92.390744 C 103.576846,92.439550 103.639629,92.470740 103.737875,92.470740 L 103.898903,92.470740 L 103.898903,90.965852 L 103.756536,90.982715 C 103.619598,90.998936 103.614630,91.014982 103.626269,91.403427 C 103.638371,91.807275 103.638371,91.807275 103.522520,91.663044 C 103.458802,91.583716 103.346146,91.396503 103.272173,91.247014 C 103.165875,91.032200 103.106870,90.974745 102.990737,90.972974 L 102.843797,90.970733 "/>
        <path style="fill:none;stroke-width:0.280000;stroke-linecap:round;stroke-linejoin:round;stroke-opacity:1;stroke:#000000;" d="M 100.034217,89.817029 L 99.997263,87.786934 L 100.396353,87.804848 C 100.795443,87.822761 100.795443,87.822761 100.791351,87.605441 L 100.787259,87.388120 L 98.775257,87.364946 L 98.775262,87.598451 C 98.775266,87.831955 98.775266,87.831955 99.152714,87.808275 L 99.530161,87.784596 L 99.565770,89.441879 L 99.528020,89.629380 C 99.490270,89.816881 99.490270,89.816881 99.762243,89.816955 L 100.034217,89.817029 "/>
        <path style="fill:none;stroke-width:0.280000;stroke-linecap:round;stroke-linejoin:round;stroke-opacity:1;stroke:#000000;" d="M 106.233886,94.461134 L 106.248274,94.492715 C 106.256188,94.510084 106.333789,94.523065 106.420722,94.521561 C 106.576138,94.518872 106.578896,94.512199 106.585627,94.122598 C 106.592473,93.726369 106.592473,93.726369 106.752095,93.949520 C 106.839887,94.072253 106.951579,94.255514 107.000298,94.356765 C 107.070750,94.503182 107.121169,94.538414 107.246649,94.528912 C 107.404418,94.516964 107.404418,94.516964 107.399256,93.854431 L 107.394093,93.191897 L 107.422127,93.323522 C 107.446538,93.438138 107.475238,93.450512 107.644215,93.419279 C 107.838269,93.383411 107.838269,93.383411 107.824925,93.835734 C 107.817586,94.084511 107.791376,94.333489 107.766682,94.389018 C 107.741987,94.444547 107.744364,94.492595 107.771964,94.495791 C 108.183783,94.543480 108.169057,94.564428 108.151199,93.956324 C 108.135590,93.424850 108.141211,93.393821 108.253097,93.393821 C 108.318227,93.393821 108.392832,93.426273 108.418887,93.465937 C 108.449184,93.512058 108.479679,93.454869 108.503487,93.307282 L 108.540715,93.076512 L 108.540348,94.518827 L 108.914383,94.518827 L 108.934707,93.052822 L 108.466260,93.018819 L 107.064222,93.076512 L 107.060919,93.820468 L 106.841335,93.520472 C 106.720563,93.355474 106.621750,93.179949 106.621750,93.130416 C 106.621750,93.063863 106.573067,93.045074 106.435238,93.058433 L 106.248726,93.076512 L 106.233886,94.461134 "/>
        <path style="fill:none;stroke-width:0.280000;stroke-linecap:round;stroke-linejoin:round;stroke-opacity:1;stroke:#000000;" d="M 92.099899,83.268772 C 92.099899,83.252907 92.086724,83.239926 92.070621,83.239926 C 92.054518,83.239926 92.041343,83.252907 92.041343,83.268772 C 92.041343,83.284638 92.054518,83.297619 92.070621,83.297619 C 92.086724,83.297619 92.099899,83.284638 92.099899,83.268772 "/>
        <path style="fill:none;stroke-width:0.280000;stroke-linecap:round;stroke-linejoin:round;stroke-opacity:1;stroke:#000000;" d="M 102.523376,84.365567 C 102.483578,84.318320 102.427221,84.294152 102.398139,84.311861 C 102.323394,84.357375 102.394870,84.451470 102.504189,84.451470 C 102.578624,84.451470 102.582211,84.435413 102.523376,84.365567 "/>
        <path style="fill:none;stroke-width:0.280000;stroke-linecap:round;stroke-linejoin:round;stroke-opacity:1;stroke:#000000;" d="M 92.656180,94.485083 L 92.978237,94.501955 C 93.155368,94.511234 93.596733,94.512336 93.959047,94.504403 L 94.617801,94.489980 L 94.617801,94.461134 C 94.617801,94.445269 94.617801,94.371195 94.617801,94.296525 C 94.617801,94.168376 94.601382,94.162317 94.325021,94.188480 C 94.032242,94.216198 94.032242,94.216198 94.026812,93.877125 C 94.023825,93.690635 94.025815,93.427716 94.031235,93.292859 C 94.040775,93.055441 94.035376,93.047666 93.860997,93.047666 C 93.757787,93.047666 93.679446,93.078452 93.677486,93.119781 L 93.674064,93.191897 L 93.670790,94.461134 L 93.643142,94.345749 C 93.581724,94.089425 93.563233,94.063609 93.491609,94.134178 C 93.454018,94.171214 93.320988,94.201517 93.195987,94.201517 C 92.968713,94.201517 92.968713,94.201517 92.985653,93.639015 C 93.002593,93.076512 93.002593,93.076512 92.829386,93.059509 L 92.656180,93.042506 L 92.656180,94.485083 "/>
        <path style="fill:none;stroke-width:0.280000;stroke-linecap:round;stroke-linejoin:round;stroke-opacity:1;stroke:#000000;" d="M 97.135702,89.372524 C 97.267429,89.439191 97.411902,89.465728 97.540095,89.446805 C 98.069095,89.368718 98.324392,88.657451 98.022745,88.102128 C 97.918117,87.909511 97.717520,87.797640 97.476764,87.797640 C 97.160646,87.797640 96.966129,87.905852 96.838226,88.152866 C 96.608352,88.596814 96.749929,89.177285 97.135702,89.372524 "/>
        <path style="fill:none;stroke-width:0.280000;stroke-linecap:round;stroke-linejoin:round;stroke-opacity:1;stroke:#000000;" d="M 99.176571,92.441894 L 99.605394,92.474769 C 99.841247,92.492851 100.053980,92.512322 100.078134,92.518039 C 100.102288,92.523755 100.122051,92.508710 100.122051,92.484605 C 100.122051,92.460500 100.206903,92.441029 100.310612,92.441336 C 100.472395,92.441814 100.499421,92.421411 100.500918,92.297662 C 100.502444,92.171615 100.528504,92.153431 100.707609,92.153431 C 100.887657,92.153431 100.914806,92.172705 100.931083,92.312085 C 100.947406,92.451852 100.974293,92.470740 101.156933,92.470740 C 101.332355,92.470740 101.357383,92.455206 101.319600,92.369778 L 101.274947,92.268816 L 100.881700,91.186242 L 100.897127,91.092911 C 100.908226,91.025766 100.859159,90.994506 100.722248,90.981500 C 100.548426,90.964988 100.531881,90.977481 100.531236,91.125732 C 100.530848,91.215002 100.455962,91.515430 100.364822,91.793350 L 100.199114,92.298658 L 100.160583,92.336622 C 100.139390,92.357502 100.122051,92.318335 100.122051,92.249585 C 100.122051,92.136531 100.091272,92.124584 99.799994,92.124584 C 99.497840,92.124584 99.477937,92.115907 99.477937,91.984173 C 99.477937,91.863375 99.499856,91.847678 99.634862,91.871799 C 99.721171,91.887219 99.813396,91.912993 99.839807,91.929076 C 99.866218,91.945158 99.887827,91.858150 99.887827,91.735726 C 99.887827,91.515308 99.885827,91.513365 99.682882,91.536709 C 99.505869,91.557069 99.477937,91.543696 99.477937,91.438585 C 99.477937,91.329535 99.511406,91.316888 99.799994,91.316888 C 100.119750,91.316888 100.122051,91.315635 100.122051,91.141477 C 100.122051,90.966066 100.122051,90.966066 99.649414,90.982822 L 99.176778,90.999579 L 99.176571,92.441894 "/>
        <path style="fill:none;stroke-width:0.280000;stroke-linecap:round;stroke-linejoin:round;stroke-opacity:1;stroke:#000000;" d="M 106.621853,89.669765 L 106.621956,89.384186 L 105.099298,89.419447 L 105.099298,89.094692 C 105.099298,88.769937 105.099298,88.769937 105.597160,88.788599 C 106.095021,88.807261 106.095021,88.807261 106.095021,88.576490 C 106.095021,88.345720 106.095021,88.345720 105.593772,88.364477 C 105.092522,88.383233 105.092522,88.383233 105.110549,88.104860 L 105.128576,87.826487 L 106.563344,87.826487 L 106.563269,87.577888 C 106.563228,87.441159 106.540758,87.342952 106.513334,87.359651 L 106.463474,87.390012 L 104.660129,87.403400 L 104.660129,89.816881 L 106.481216,89.816881 L 106.551483,89.886112 C 106.606136,89.939958 106.621773,89.891881 106.621853,89.669765 "/>
        <path style="fill:none;stroke-width:0.280000;stroke-linecap:round;stroke-linejoin:round;stroke-opacity:1;stroke:#000000;" d="M 97.956933,89.744765 C 98.108314,89.669327 98.290584,89.511215 98.392099,89.367277 C 98.535720,89.163634 98.570875,89.048151 98.589823,88.717759 C 98.609532,88.374109 98.590939,88.272131 98.461421,88.013511 C 98.256926,87.605177 97.992264,87.434088 97.519185,87.404409 C 96.768536,87.357316 96.297563,87.818486 96.292730,88.605337 C 96.286875,89.558830 97.147548,90.148106 97.956933,89.744765 "/>
        <path style="fill:none;stroke-width:0.280000;stroke-linecap:round;stroke-linejoin:round;stroke-opacity:1;stroke:#000000;" d="M 104.654049,84.840895 C 104.700498,84.769501 104.797223,84.590524 104.868993,84.443169 C 105.008619,84.156499 104.988467,83.969353 104.821335,84.000582 C 104.756335,84.012728 104.711837,84.083062 104.700013,84.192347 C 104.689744,84.287268 104.601796,84.463597 104.504575,84.584187 C 104.326956,84.804501 104.316937,84.970704 104.481274,84.970704 C 104.529851,84.970704 104.607600,84.912290 104.654049,84.840895 "/>
        <path style="fill:none;stroke-width:0.280000;stroke-linecap:round;stroke-linejoin:round;stroke-opacity:1;stroke:#000000;" d="M 92.714736,83.237346 C 93.007515,83.133792 93.007515,83.133792 92.762108,83.129166 C 92.627135,83.126622 92.500416,83.150503 92.480512,83.182233 C 92.460608,83.213964 92.393177,83.239926 92.330667,83.239926 C 92.268156,83.239926 92.217011,83.265888 92.217011,83.297619 C 92.217011,83.377575 92.370980,83.358930 92.714736,83.237346 "/>
        <path style="fill:none;stroke-width:0.280000;stroke-linecap:round;stroke-linejoin:round;stroke-opacity:1;stroke:#000000;" d="M 94.178632,89.817017 L 94.178632,88.180673 L 95.343842,89.606396 L 95.335796,89.711638 C 95.329066,89.799661 95.372664,89.816881 95.602250,89.816881 L 95.876752,89.816881 L 95.876752,87.388567 L 95.422809,87.422639 L 95.444098,88.799819 L 95.473574,88.846809 C 95.489786,88.872654 95.487094,88.919237 95.467591,88.950327 L 95.432133,89.006855 L 94.462730,87.826487 L 94.364598,87.667832 C 94.310625,87.580572 94.266466,87.496197 94.266466,87.480331 C 94.266466,87.464466 94.147200,87.444994 94.001431,87.437062 L 93.736396,87.422639 L 93.710185,89.816935 L 94.178632,89.817017 "/>
        <path style="fill:none;stroke-width:0.280000;stroke-linecap:round;stroke-linejoin:round;stroke-opacity:1;stroke:#000000;" d="M 103.624743,89.786913 C 103.731601,89.741183 103.892676,89.652100 103.982688,89.588951 C 104.072700,89.525802 104.163134,89.490675 104.183653,89.510892 C 104.253847,89.580051 104.221054,89.407480 104.131623,89.237090 C 104.032482,89.048199 103.958381,89.021508 103.906061,89.155843 C 103.862104,89.268705 103.422050,89.467792 103.212859,89.469458 C 102.746019,89.473177 102.371064,89.038769 102.418783,88.549471 C 102.449270,88.236863 102.639949,87.932106 102.855593,87.851327 C 103.213824,87.717135 103.850767,87.858357 103.911010,88.085332 C 103.927967,88.149218 103.960237,88.201488 103.982721,88.201488 C 104.026974,88.201488 104.237492,87.794697 104.208184,87.765821 C 104.198396,87.756177 104.036490,87.668526 103.848393,87.571040 C 103.224429,87.247655 102.520159,87.369492 102.192358,87.857529 C 101.999149,88.145184 101.938920,88.689371 102.055059,89.098065 C 102.223956,89.692412 103.024567,90.043756 103.624743,89.786913 "/>
        <path style="fill:none;stroke-width:0.280000;stroke-linecap:round;stroke-linejoin:round;stroke-opacity:1;stroke:#000000;" d="M 97.837514,86.364975 L 97.903840,86.470711 L 98.354192,86.469923 C 98.601886,86.469490 98.860225,86.454410 98.928279,86.436413 C 99.062051,86.401037 99.374346,85.838325 99.597639,85.230320 C 99.667559,85.039935 99.785072,84.754356 99.858780,84.595702 C 99.932488,84.437047 100.050504,84.112526 100.121037,83.874544 C 100.191570,83.636563 100.297036,83.360445 100.355405,83.260950 C 100.461531,83.080050 100.461531,83.080050 100.247874,83.045238 C 99.973868,83.000593 99.486500,83.000740 99.316908,83.045519 C 99.240055,83.065811 99.185157,83.125094 99.185157,83.187795 C 99.185157,83.378873 98.671290,84.641597 98.181768,85.653416 L 97.837514,86.364975 "/>
        <path style="fill:none;stroke-width:0.280000;stroke-linecap:round;stroke-linejoin:round;stroke-opacity:1;stroke:#000000;" d="M 94.998414,97.600102 L 106.533917,97.544198 L 107.700182,97.544404 L 107.750983,97.473930 C 107.790828,97.418654 107.808188,97.419008 107.831483,97.475572 C 107.847818,97.515235 107.913242,97.547687 107.976871,97.547687 C 108.040499,97.547687 108.078046,97.524552 108.060309,97.496276 L 108.028060,97.444866 L 108.452105,97.416187 C 108.685330,97.400414 108.939559,97.367536 109.017058,97.343125 C 109.113180,97.312848 109.145446,97.318699 109.118576,97.361535 C 109.054441,97.463778 109.209850,97.515875 109.283390,97.416786 C 109.320468,97.366826 109.388934,97.328007 109.435535,97.330522 C 109.482137,97.333037 109.612491,97.326725 109.725211,97.316495 L 109.930156,97.297897 L 108.759039,97.215513 L 92.012065,97.216867 L 90.548169,97.297636 L 91.631452,97.316917 L 91.631452,97.389033 C 91.631452,97.432470 91.707131,97.460106 91.821759,97.458526 C 91.938164,97.456922 92.006381,97.428918 91.997426,97.386410 C 91.989375,97.348189 92.037043,97.316917 92.103355,97.316917 C 92.169667,97.316917 92.207824,97.342581 92.188147,97.373949 C 92.167633,97.406652 92.191137,97.416324 92.243247,97.396623 C 92.293229,97.377726 92.334123,97.388284 92.334123,97.420086 C 92.334123,97.494710 93.042393,97.492918 93.138573,97.418051 C 93.188639,97.379079 93.221583,97.388595 93.245032,97.448801 L 93.278989,97.535988 L 94.763169,97.552476 L 94.998414,97.600102 "/>
        <path style="fill:none;stroke-width:0.280000;stroke-linecap:round;stroke-linejoin:round;stroke-opacity:1;stroke:#000000;" d="M 91.167425,96.785495 C 91.234793,96.695477 91.290076,96.674526 91.372370,96.707825 C 91.445696,96.737496 91.459494,96.762835 91.411868,96.780362 C 91.371611,96.795177 91.338673,96.831097 91.338673,96.860184 L 91.338673,96.913069 L 109.247186,96.913069 L 109.339808,96.878050 C 109.390751,96.858790 109.432431,96.806867 109.432431,96.762665 C 109.432431,96.718463 109.462865,96.682299 109.500063,96.682299 C 109.540732,96.682299 109.529379,96.640585 109.471584,96.577664 C 109.395178,96.494481 109.390316,96.458202 109.447870,96.400703 C 109.505437,96.343189 109.500534,96.314003 109.423930,96.258205 C 109.338267,96.195808 109.349528,96.173870 109.525582,96.060165 C 109.634474,95.989836 109.738995,95.932295 109.757850,95.932295 C 109.776705,95.932295 109.833172,95.891859 109.883333,95.842438 C 109.933494,95.793017 110.010662,95.766240 110.054818,95.782935 C 110.098974,95.799629 110.135102,95.790956 110.135102,95.763661 C 110.135102,95.736366 110.207564,95.694026 110.296130,95.669573 C 110.457159,95.625112 110.457159,95.625112 110.281491,95.590636 C 110.126544,95.560226 110.105824,95.532410 110.105824,95.354803 C 110.105824,95.177724 110.125359,95.151233 110.267845,95.135095 C 110.356957,95.125003 110.414935,95.092942 110.396685,95.063848 C 110.377627,95.033467 110.439517,95.025930 110.542082,95.046140 C 110.656490,95.068684 110.720660,95.058007 110.720660,95.016425 C 110.720660,94.980728 110.695655,94.951521 110.665092,94.951521 C 110.634530,94.951521 110.645424,94.866867 110.689302,94.763402 L 110.769079,94.575283 L 110.833251,90.144333 L 89.329855,90.224830 L 89.229851,90.285725 L 89.276704,93.920164 L 89.379010,93.993870 C 89.474898,94.062951 89.475051,94.069944 89.381454,94.105331 C 89.298875,94.136552 89.284553,94.208055 89.298701,94.518458 C 89.308112,94.724912 89.336178,94.893828 89.361071,94.893828 C 89.385963,94.893828 89.403703,94.978204 89.400493,95.081329 C 89.394963,95.258980 89.392193,95.261253 89.347774,95.124599 C 89.312003,95.014549 89.300484,95.055567 89.299171,95.297677 C 89.297940,95.524535 89.311795,95.582094 89.347774,95.499601 C 89.375453,95.436139 89.399951,95.416667 89.402214,95.456331 C 89.404478,95.495995 89.465618,95.531982 89.538081,95.536304 C 89.669831,95.544160 89.669831,95.544160 89.540849,95.568805 C 89.346405,95.605958 89.311652,95.797808 89.475059,95.931988 C 89.549978,95.993508 89.663976,96.045103 89.728387,96.046644 C 89.816685,96.048757 89.825952,96.061650 89.766052,96.099045 C 89.710670,96.133619 89.706236,96.160595 89.751413,96.188105 C 89.832868,96.237705 89.836660,96.393836 89.756410,96.393836 C 89.723513,96.393836 89.666243,96.328195 89.629142,96.247967 C 89.586055,96.154796 89.546697,96.125993 89.520197,96.168238 C 89.469802,96.248576 89.683605,96.470947 89.832812,96.493382 C 89.892936,96.502423 89.924437,96.484022 89.904164,96.451702 C 89.815762,96.310773 89.996570,96.412703 90.159701,96.595760 C 90.258671,96.706818 90.368356,96.797684 90.403446,96.797684 C 90.438537,96.797684 90.450962,96.823645 90.431057,96.855376 C 90.408464,96.891394 90.522664,96.912260 90.735020,96.910916 C 91.013089,96.909156 91.092009,96.886265 91.167425,96.785495 "/>
        <path style="fill:none;stroke-width:0.280000;stroke-linecap:round;stroke-linejoin:round;stroke-opacity:1;stroke:#000000;" d="M 73.894754,98.130563 L 73.932408,98.190580 L 125.123195,98.164948 L 125.115222,98.371414 C 125.110837,95.427487 125.104249,90.765578 125.100583,88.011617 L 125.093917,83.004414 L 100.755155,83.048745 L 100.703001,83.129912 C 100.674316,83.174554 100.650443,83.244445 100.649950,83.285225 C 100.649457,83.326005 100.611094,83.416871 100.564698,83.487149 L 100.480343,83.614928 L 99.929496,85.230320 L 99.828257,85.358604 C 99.772576,85.429159 99.668406,85.636853 99.596769,85.820144 C 99.525132,86.003436 99.438307,86.211776 99.403825,86.283123 C 99.369342,86.354470 99.354820,86.426332 99.371552,86.442818 L 99.401973,86.472791 L 105.198149,86.499557 L 105.284795,86.428814 C 105.351739,86.374158 105.387273,86.373669 105.441061,86.426664 L 105.510679,86.495256 L 107.178031,86.521893 L 110.457159,86.587549 L 110.679117,86.663843 C 111.024732,86.782642 111.198998,86.937459 111.208537,87.134176 C 111.213153,87.229368 111.243607,87.325788 111.276213,87.348440 L 111.335497,87.389627 L 111.315636,91.634197 L 111.261685,91.807275 C 111.229002,91.912124 111.228834,92.041284 111.261258,92.134918 C 111.298560,92.242639 111.291300,92.330065 111.237305,92.423381 L 111.159829,92.557279 L 111.101273,87.817852 L 110.941556,87.580165 C 110.853711,87.449437 110.660978,87.272693 110.513260,87.187401 L 110.244682,87.032324 L 89.962611,87.052414 L 89.742829,87.116908 C 89.452907,87.201985 89.094725,87.554871 89.007650,87.841217 L 88.937883,88.070644 L 88.937883,93.682284 L 88.853505,93.682284 C 88.714280,93.682284 88.693371,93.580772 88.793357,93.390270 C 88.880608,93.224032 88.880417,93.202169 88.790853,93.104661 C 88.737510,93.046586 88.698861,92.925629 88.704967,92.835867 C 88.711073,92.746105 88.711734,92.659683 88.706435,92.643818 L 88.696800,92.614971 L 88.639608,89.268801 L 88.740299,86.987941 L 88.983218,86.764762 C 89.226138,86.541583 89.226138,86.541583 89.828597,86.531770 C 90.159950,86.526372 90.813134,86.512435 91.280117,86.500797 L 92.129177,86.479638 L 96.540660,86.470711 L 96.807727,85.994747 C 97.058621,85.547609 97.307146,85.186748 97.310068,85.265345 L 97.311370,85.300369 L 96.784367,86.359291 L 96.784367,86.415001 C 96.784367,86.445641 96.846429,86.470711 96.922283,86.470711 L 97.060198,86.470711 L 97.397477,85.908208 C 97.781175,85.268291 98.356821,84.110539 98.574156,83.541643 C 98.654834,83.330464 98.749714,83.140100 98.785002,83.118612 C 98.820290,83.097125 98.746898,83.064107 98.621908,83.045240 L 98.394653,83.010937 L 93.593073,83.057037 L 73.885029,83.066341 L 73.873711,95.672678 L 73.894754,98.130563 "/>
    </g>
</svg>
