<?xml version="1.0" encoding="UTF-8"?>
<!-- Created by Vectric (http://www.vectric.com/) -->
<svg width="113.55300000mm" height="142.53000000mm" viewBox="0.00000000 0.00000000 113.55300000 142.53000000" id="svg2" version="1.1" xmlns="http://www.w3.org/2000/svg" xmlns:xlink="http://www.w3.org/1999/xlink" xmlns:inkscape="http://www.inkscape.org/namespaces/inkscape">
    <g inkscape:groupmode="layer" id="638d072d-b936-4023-a250-9be8d2c0826b" inkscape:label="Layer 1" style="stroke:#000000;">
        <path style="fill:none;stroke-width:0.280000;stroke-linecap:round;stroke-linejoin:round;stroke-opacity:1;stroke:#000000;" d="M 104.953726,132.868658 L 106.262047,132.187349 L 107.009469,131.057493 L 107.119917,129.322287 L 106.372096,127.947776 L 105.054218,127.230226 L 103.565386,127.230226 L 102.339519,127.850487 L 101.526817,129.020663 L 101.408985,130.650289 L 102.188305,132.082696 L 103.575888,132.878907 L 104.953726,132.868658 "/>
        <path style="fill:none;stroke-width:0.280000;stroke-linecap:round;stroke-linejoin:round;stroke-opacity:1;stroke:#000000;" d="M 12.500780,129.434463 L 13.451659,129.091009 L 13.932469,128.263994 L 13.981499,124.818099 L 13.120807,124.731715 L 13.120807,127.768598 L 12.797996,128.477358 L 12.156321,128.638469 L 11.514645,128.477358 L 11.191834,127.768598 L 11.191834,124.731715 L 10.296239,124.818099 L 10.309600,128.126158 L 10.781335,129.013919 L 11.049920,129.157716 C 11.197642,129.236804 11.584518,129.331427 11.909643,129.367988 L 12.500780,129.434463 "/>
        <path style="fill:none;stroke-width:0.280000;stroke-linecap:round;stroke-linejoin:round;stroke-opacity:1;stroke:#000000;" d="M 8.642833,129.343802 C 8.794395,129.303738 9.088908,129.110319 9.297306,128.913983 L 9.676212,128.557008 L 9.676212,127.536437 L 9.193968,126.945536 L 7.406288,126.334293 L 7.311132,125.838625 L 7.643196,125.438360 L 8.505049,125.440059 L 8.899704,125.645963 C 9.116765,125.759211 9.349275,125.851868 9.416394,125.851868 L 9.538428,125.851868 L 9.538428,125.178320 L 8.925977,124.749181 L 7.217246,124.749181 L 6.369400,125.462866 L 6.369400,126.660111 L 6.748305,126.928506 C 6.956703,127.076124 7.430595,127.282135 7.801397,127.386308 L 8.475583,127.575714 L 8.779207,128.057240 L 8.469568,128.539666 L 7.195736,128.522319 L 6.788147,128.220862 C 6.563973,128.055060 6.343118,127.919405 6.297357,127.919405 L 6.214157,127.919405 L 6.300508,128.788081 L 6.989427,129.287427 L 7.678346,129.352038 C 8.057252,129.387573 8.491271,129.383867 8.642833,129.343802 "/>
        <path style="fill:none;stroke-width:0.280000;stroke-linecap:round;stroke-linejoin:round;stroke-opacity:1;stroke:#000000;" d="M 25.437239,126.482153 L 25.512703,126.678882 L 26.727664,126.678882 L 27.067745,126.268955 L 26.890402,125.562094 L 25.452460,125.645114 L 25.407117,125.965269 C 25.382179,126.141354 25.395734,126.373952 25.437239,126.482153 "/>
        <path style="fill:none;stroke-width:0.280000;stroke-linecap:round;stroke-linejoin:round;stroke-opacity:1;stroke:#000000;" d="M 25.370418,129.297763 L 25.452460,127.577584 L 25.921235,127.488278 L 27.105865,129.301570 L 28.143386,129.228845 L 26.890919,127.364384 L 27.560300,127.109790 L 28.001460,126.479708 L 28.001460,126.087808 C 28.001460,125.872264 27.937620,125.576576 27.859592,125.430725 L 27.717724,125.165542 L 26.912874,124.749181 L 24.556865,124.749181 L 24.556865,129.297763 L 25.370418,129.297763 "/>
        <path style="fill:none;stroke-width:0.280000;stroke-linecap:round;stroke-linejoin:round;stroke-opacity:1;stroke:#000000;" d="M 21.122580,127.273239 L 21.266316,127.505897 L 22.198276,127.505897 L 22.341173,127.274599 L 21.884804,125.846958 L 21.758284,125.889147 C 21.688698,125.912351 21.517198,126.233264 21.377172,126.602288 L 21.122580,127.273239 "/>
        <path style="fill:none;stroke-width:0.280000;stroke-linecap:round;stroke-linejoin:round;stroke-opacity:1;stroke:#000000;" d="M 20.387625,129.312273 L 20.834470,128.195076 L 22.630122,128.195076 L 23.071164,129.297763 L 24.024299,129.297763 L 23.846702,128.737992 L 22.393567,124.818099 L 21.181161,124.737323 L 19.499899,129.228845 L 20.387625,129.312273 "/>
        <path style="fill:none;stroke-width:0.280000;stroke-linecap:round;stroke-linejoin:round;stroke-opacity:1;stroke:#000000;" d="M 26.899190,11.585985 L 27.450325,11.034642 L 27.450325,8.723242 L 26.726960,8.716456 C 26.329109,8.712723 25.901758,8.738642 25.777291,8.774053 L 25.550988,8.838436 L 25.220766,9.635962 L 25.318464,9.956254 C 25.372198,10.132414 25.511442,10.385091 25.627895,10.517758 L 25.839629,10.758971 L 26.469575,10.758971 L 26.554730,10.621135 C 26.601565,10.545325 26.698229,10.483299 26.769537,10.483299 L 26.899190,10.483299 L 26.899190,10.673175 C 26.899190,10.777607 26.801151,10.944447 26.681326,11.043931 L 26.463462,11.224810 L 26.200952,11.060808 C 26.056571,10.970607 25.813595,10.896806 25.661005,10.896806 L 25.383568,10.896806 L 25.383568,11.026826 C 25.383568,11.098337 25.521369,11.253403 25.689793,11.371416 L 25.996018,11.585985 L 26.899190,11.585985 "/>
        <path style="fill:none;stroke-width:0.280000;stroke-linecap:round;stroke-linejoin:round;stroke-opacity:1;stroke:#000000;" d="M 7.965223,10.770630 L 8.062906,10.672910 C 8.116632,10.619164 8.160590,10.492488 8.160590,10.391408 L 8.160590,10.207627 L 6.931264,10.207627 L 6.851643,7.795501 L 6.300508,7.795501 L 6.300508,10.690053 L 7.965223,10.770630 "/>
        <path style="fill:none;stroke-width:0.280000;stroke-linecap:round;stroke-linejoin:round;stroke-opacity:1;stroke:#000000;" d="M 9.125076,10.758971 L 9.125076,8.691433 L 8.573941,8.691433 L 8.573941,10.758971 L 9.125076,10.758971 "/>
        <path style="fill:none;stroke-width:0.280000;stroke-linecap:round;stroke-linejoin:round;stroke-opacity:1;stroke:#000000;" d="M 17.185430,129.453516 L 18.218809,128.913973 L 18.218809,129.297763 L 19.045512,129.297763 L 19.045512,126.678882 L 16.840971,126.678882 L 16.840971,127.505897 L 18.218809,127.505897 L 18.218809,128.037232 L 17.492727,128.608584 L 17.104440,128.608584 C 16.890882,128.608584 16.553579,128.534482 16.354877,128.443913 L 15.993601,128.279243 L 15.600916,127.519587 L 15.600916,126.554018 L 15.930133,125.831193 L 16.689502,125.438360 L 17.508747,125.438360 L 18.327481,126.127539 L 19.045512,126.127539 L 19.045512,125.951455 C 19.045512,125.660793 18.641223,125.174456 18.217287,124.955148 L 17.819142,124.749181 L 16.100212,124.749181 L 15.183476,125.369442 L 14.603701,126.557880 L 14.728941,128.068673 L 15.001212,128.433488 C 15.150961,128.634137 15.424659,128.910326 15.609430,129.047241 L 15.945376,129.296178 L 17.185430,129.453516 "/>
        <path style="fill:none;stroke-width:0.280000;stroke-linecap:round;stroke-linejoin:round;stroke-opacity:1;stroke:#000000;" d="M 15.626176,10.615237 L 15.858112,10.479886 L 16.030531,10.758971 L 16.565403,10.758971 L 16.565403,7.726583 L 16.014268,7.726583 L 16.014268,8.795407 L 14.811961,8.659838 L 14.360862,9.304115 L 14.360862,10.082322 L 14.699058,10.420646 C 15.063477,10.785202 15.263121,10.827105 15.626176,10.615237 "/>
        <path style="fill:none;stroke-width:0.280000;stroke-linecap:round;stroke-linejoin:round;stroke-opacity:1;stroke:#000000;" d="M 13.568605,10.542296 L 13.947510,10.336659 L 13.947510,10.034558 L 12.867139,10.207382 L 12.433471,10.040905 L 12.585935,9.794120 L 13.947510,9.794120 L 13.947510,9.195565 L 13.491449,8.691433 L 12.431888,8.691433 L 11.880753,9.242777 L 11.880753,10.082955 L 12.609911,10.758971 L 12.899805,10.753452 C 13.059247,10.750417 13.360207,10.655397 13.568605,10.542296 "/>
        <path style="fill:none;stroke-width:0.280000;stroke-linecap:round;stroke-linejoin:round;stroke-opacity:1;stroke:#000000;" d="M 14.889242,9.807363 L 15.221306,10.207627 L 15.729004,10.207627 L 16.041931,9.622698 L 15.459303,9.039850 L 15.220096,9.190546 C 15.088532,9.273429 14.960268,9.446119 14.935065,9.574302 L 14.889242,9.807363 "/>
        <path style="fill:none;stroke-width:0.280000;stroke-linecap:round;stroke-linejoin:round;stroke-opacity:1;stroke:#000000;" d="M 10.103898,10.758971 L 10.247993,10.345463 C 10.327245,10.118034 10.432525,9.931397 10.481947,9.930713 C 10.531370,9.930030 10.733417,10.126160 10.930940,10.366557 L 11.290074,10.803644 L 11.750147,10.627031 L 11.402098,10.075479 C 10.980231,9.406946 10.980280,9.408016 11.353635,9.010448 L 11.653221,8.691433 L 11.000237,8.691433 L 10.227347,9.432188 L 10.227347,7.726583 L 9.676212,7.726583 L 9.676212,10.758971 L 10.103898,10.758971 "/>
        <path style="fill:none;stroke-width:0.280000;stroke-linecap:round;stroke-linejoin:round;stroke-opacity:1;stroke:#000000;" d="M 12.723719,9.104941 L 12.553409,9.380613 L 13.258591,9.380613 L 13.258591,9.104941 L 12.723719,9.104941 "/>
        <path style="fill:none;stroke-width:0.280000;stroke-linecap:round;stroke-linejoin:round;stroke-opacity:1;stroke:#000000;" d="M 20.796187,9.785956 L 21.157047,10.220930 L 21.704153,10.138709 L 22.006454,9.656284 L 21.704153,9.173859 L 21.114935,9.086117 L 20.796187,9.785956 "/>
        <path style="fill:none;stroke-width:0.280000;stroke-linecap:round;stroke-linejoin:round;stroke-opacity:1;stroke:#000000;" d="M 9.125076,8.277926 L 9.125076,7.726583 L 8.573941,7.726583 L 8.573941,8.277926 L 9.125076,8.277926 "/>
        <path style="fill:none;stroke-width:0.280000;stroke-linecap:round;stroke-linejoin:round;stroke-opacity:1;stroke:#000000;" d="M 26.026559,10.115737 C 26.077080,10.166277 26.219686,10.207627 26.343462,10.207627 C 26.638507,10.207627 26.899190,9.938345 26.899190,9.633567 L 26.899190,9.390312 L 26.326521,9.083713 L 25.934703,9.234125 L 25.934703,9.628986 C 25.934703,9.846159 25.976038,10.065197 26.026559,10.115737 "/>
        <path style="fill:none;stroke-width:0.280000;stroke-linecap:round;stroke-linejoin:round;stroke-opacity:1;stroke:#000000;" d="M 23.454594,10.779184 L 23.454594,9.686824 L 23.986169,9.036023 L 24.264764,9.311695 L 24.350189,10.687573 L 24.832432,10.779184 L 24.832432,9.000860 L 24.486274,8.713465 L 22.892120,8.727795 L 22.972351,10.687129 L 23.454594,10.779184 "/>
        <path style="fill:none;stroke-width:0.280000;stroke-linecap:round;stroke-linejoin:round;stroke-opacity:1;stroke:#000000;" d="M 29.348641,10.544401 L 29.654866,10.329831 L 29.654866,9.827874 L 29.481866,9.684243 C 29.386715,9.605245 29.138704,9.497887 28.930730,9.445669 L 28.552596,9.350727 L 28.552596,9.068871 L 29.534496,9.228272 L 29.445899,8.760351 L 28.395580,8.673646 L 28.001460,9.000860 L 28.001460,9.626352 L 29.172623,10.138709 L 28.001460,10.114917 L 28.001460,10.473600 L 28.267970,10.616285 C 28.643058,10.817102 28.992639,10.793848 29.348641,10.544401 "/>
        <path style="fill:none;stroke-width:0.280000;stroke-linecap:round;stroke-linejoin:round;stroke-opacity:1;stroke:#000000;" d="M 19.300131,10.792457 L 19.655065,10.437390 C 19.850278,10.242102 20.009998,10.000265 20.009998,9.899972 C 20.009998,9.799680 19.914724,9.581549 19.798278,9.415236 L 19.586558,9.112849 L 18.494376,8.818644 L 18.494376,8.407110 L 18.931984,8.239121 L 19.872215,8.527795 L 19.872215,7.995431 L 19.518785,7.861007 C 19.324399,7.787074 19.022747,7.726583 18.848448,7.726583 L 18.531539,7.726583 L 17.790239,8.309910 L 17.874349,9.036023 L 19.325947,9.725202 L 19.249372,10.138709 L 18.630546,10.227012 L 17.805457,9.815249 L 17.805457,10.311709 L 18.208001,10.645917 L 19.300131,10.792457 "/>
        <path style="fill:none;stroke-width:0.280000;stroke-linecap:round;stroke-linejoin:round;stroke-opacity:1;stroke:#000000;" d="M 21.813714,10.758971 L 22.490107,10.082322 L 22.490107,9.242777 L 21.938972,8.691433 L 20.923354,8.691433 L 20.285566,9.290830 L 20.285566,9.600120 C 20.285566,9.770229 20.324081,10.009815 20.371155,10.132534 L 20.456744,10.355659 L 20.846556,10.557315 C 21.060953,10.668225 21.366271,10.758971 21.525041,10.758971 L 21.813714,10.758971 "/>
        <path style="fill:none;stroke-width:0.280000;stroke-linecap:round;stroke-linejoin:round;stroke-opacity:1;stroke:#000000;" d="M 105.784728,119.097913 L 106.744916,118.586790 L 107.360410,117.512801 L 107.360410,19.235873 L 106.743781,18.133186 L 105.515363,17.512925 L 7.890599,17.512925 L 6.754664,17.967607 L 5.956048,19.070480 L 5.956048,117.517102 L 6.466293,118.477652 L 7.374639,119.097913 L 105.784728,119.097913 "/>
        <path style="fill:none;stroke-width:0.280000;stroke-linecap:round;stroke-linejoin:round;stroke-opacity:1;stroke:#000000;" d="M 34.932694,132.326041 L 34.932694,135.358428 L 36.861667,135.358428 L 36.861667,134.944921 L 35.483829,134.944921 L 35.483829,132.326041 L 34.932694,132.326041 "/>
        <path style="fill:none;stroke-width:0.280000;stroke-linecap:round;stroke-linejoin:round;stroke-opacity:1;stroke:#000000;" d="M 19.087554,132.326041 L 19.087554,135.371024 L 20.629018,135.368975 C 21.121595,135.327607 20.878744,135.189580 20.878744,135.151675 C 20.878744,135.113770 21.043326,134.972685 20.702311,134.930627 L 19.638690,134.929817 L 19.638690,132.326041 L 19.087554,132.326041 "/>
        <path style="fill:none;stroke-width:0.280000;stroke-linecap:round;stroke-linejoin:round;stroke-opacity:1;stroke:#000000;" d="M 16.607445,135.174647 L 16.791157,135.358428 L 18.536419,135.358428 L 18.536419,134.944921 L 17.158581,134.944921 L 17.158581,133.980070 L 18.398635,133.980070 L 18.398635,133.582414 L 17.139247,133.563343 L 17.140277,132.739548 L 18.536419,132.739548 L 18.536419,132.326041 L 16.607445,132.326041 L 16.607445,135.174647 "/>
        <path style="fill:none;stroke-width:0.280000;stroke-linecap:round;stroke-linejoin:round;stroke-opacity:1;stroke:#000000;" d="M 21.016528,134.421145 L 21.953458,135.358428 L 22.959186,135.358428 L 23.764035,134.942068 L 24.047772,134.411701 L 24.047772,133.131850 L 23.242266,132.326041 L 22.131765,132.326041 L 21.475423,132.625203 L 21.016528,133.402343 L 21.016528,134.421145 "/>
        <path style="fill:none;stroke-width:0.280000;stroke-linecap:round;stroke-linejoin:round;stroke-opacity:1;stroke:#000000;" d="M 12.887282,132.326041 L 12.887282,135.358428 L 13.426826,135.358428 L 13.507309,133.221974 L 14.259611,134.828360 L 14.742740,134.735283 L 15.487709,133.221974 L 15.505175,135.358428 L 16.056310,135.358428 L 16.056310,132.326041 L 15.371358,132.326041 L 14.531407,133.990602 L 14.411443,133.916432 C 14.345462,133.875638 14.150133,133.501112 13.977378,133.084151 L 13.663277,132.326041 L 12.887282,132.326041 "/>
        <path style="fill:none;stroke-width:0.280000;stroke-linecap:round;stroke-linejoin:round;stroke-opacity:1;stroke:#000000;" d="M 9.373795,134.554027 L 10.273737,135.358428 L 11.247561,135.358428 L 12.055915,134.940255 L 12.264923,134.535925 C 12.379877,134.313544 12.473931,134.001383 12.473931,133.842235 C 12.473931,133.437642 12.119837,132.796701 11.755141,132.541162 L 11.448128,132.326041 L 10.273737,132.326041 L 9.373795,133.130443 L 9.373795,134.554027 "/>
        <path style="fill:none;stroke-width:0.280000;stroke-linecap:round;stroke-linejoin:round;stroke-opacity:1;stroke:#000000;" d="M 37.275019,132.313445 L 37.275019,135.358428 L 39.203992,135.358428 L 39.203992,134.944921 L 37.826154,134.944921 L 37.826154,133.995921 L 38.975899,133.911153 L 39.089173,133.566563 L 37.826154,133.566563 L 37.826154,132.754653 L 38.896181,132.753182 C 39.237196,132.711124 39.066209,132.570699 39.066209,132.532794 C 39.066209,132.494890 39.257059,132.344471 38.764482,132.303102 L 37.275019,132.313445 "/>
        <path style="fill:none;stroke-width:0.280000;stroke-linecap:round;stroke-linejoin:round;stroke-opacity:1;stroke:#000000;" d="M 43.492202,134.821425 L 44.370886,135.357398 L 45.431821,135.358428 L 46.368751,134.421145 L 46.368751,133.263324 L 45.431821,132.326041 L 44.201373,132.326041 L 43.484783,132.889923 L 43.221936,133.842235 L 43.492202,134.821425 "/>
        <path style="fill:none;stroke-width:0.280000;stroke-linecap:round;stroke-linejoin:round;stroke-opacity:1;stroke:#000000;" d="M 31.633278,134.815636 L 32.521477,135.357398 L 33.582412,135.358428 L 34.519342,134.421145 L 34.519342,133.402343 L 34.060448,132.625203 L 33.404106,132.326041 L 32.293604,132.326041 L 31.488098,133.131850 L 31.471773,133.452583 C 31.452049,133.840097 31.473801,134.085909 31.564566,134.501230 L 31.633278,134.815636 "/>
        <path style="fill:none;stroke-width:0.280000;stroke-linecap:round;stroke-linejoin:round;stroke-opacity:1;stroke:#000000;" d="M 6.411442,132.326041 L 6.411442,135.378642 L 6.893686,135.286587 L 6.975979,133.225035 L 8.221677,135.375105 L 8.822659,135.289511 L 8.900874,132.326041 L 8.352008,132.326041 L 8.271524,134.462496 L 7.031470,132.329422 L 6.411442,132.326041 "/>
        <path style="fill:none;stroke-width:0.280000;stroke-linecap:round;stroke-linejoin:round;stroke-opacity:1;stroke:#000000;" d="M 24.598907,132.326041 L 24.598907,135.358428 L 25.138451,135.358428 L 25.218934,133.221974 L 26.444925,135.358428 L 27.079016,135.358428 L 27.079016,132.326041 L 26.539472,132.326041 L 26.458989,134.399481 L 25.238888,132.326041 L 24.598907,132.326041 "/>
        <path style="fill:none;stroke-width:0.280000;stroke-linecap:round;stroke-linejoin:round;stroke-opacity:1;stroke:#000000;" d="M 28.456854,132.326041 L 28.456854,135.358428 L 28.996398,135.358428 L 29.076881,133.221974 L 30.316936,135.355501 L 30.936963,135.358428 L 30.936963,132.326041 L 30.385828,132.326041 L 30.380850,134.462496 L 29.136390,132.326041 L 28.456854,132.326041 "/>
        <path style="fill:none;stroke-width:0.280000;stroke-linecap:round;stroke-linejoin:round;stroke-opacity:1;stroke:#000000;" d="M 46.850995,135.244710 L 46.908405,135.301569 C 46.939980,135.332842 47.048485,135.358428 47.149526,135.358428 L 47.333238,135.358428 L 47.333238,133.274622 L 47.574447,133.423753 L 48.723383,135.358428 L 49.262212,135.358428 L 49.262212,132.326041 L 48.848860,132.326041 L 48.848860,134.255742 L 48.639845,134.255742 L 47.525005,132.394959 L 46.937948,132.309235 L 46.850995,135.244710 "/>
        <path style="fill:none;stroke-width:0.280000;stroke-linecap:round;stroke-linejoin:round;stroke-opacity:1;stroke:#000000;" d="M 11.340113,134.852668 C 11.436434,134.813899 11.610874,134.597178 11.727757,134.371064 L 11.940273,133.959949 L 11.763191,133.153398 L 11.172561,132.739548 L 10.532431,132.739548 L 9.856038,133.416197 L 9.856038,134.268273 L 10.532431,134.944921 L 10.848708,134.934039 C 11.022660,134.928054 11.243792,134.891437 11.340113,134.852668 "/>
        <path style="fill:none;stroke-width:0.280000;stroke-linecap:round;stroke-linejoin:round;stroke-opacity:1;stroke:#000000;" d="M 39.755128,132.326041 L 39.755128,135.358428 L 40.168479,135.358428 L 40.168479,133.428727 L 40.282711,133.428727 C 40.345538,133.428727 40.542145,133.738858 40.719615,134.117906 L 41.042287,134.807085 L 41.499213,134.807085 L 42.139890,133.438696 L 42.391386,133.594187 L 42.322233,135.289223 L 42.786372,135.378642 L 42.786372,132.326041 L 42.148121,132.326041 L 41.752993,133.153056 C 41.535673,133.607914 41.318663,133.980070 41.270750,133.980070 C 41.222836,133.980070 41.005827,133.607914 40.788506,133.153056 L 40.393379,132.326041 L 39.755128,132.326041 "/>
        <path style="fill:none;stroke-width:0.280000;stroke-linecap:round;stroke-linejoin:round;stroke-opacity:1;stroke:#000000;" d="M 22.892832,134.944921 L 23.119638,134.772626 C 23.244382,134.677864 23.408823,134.432081 23.485062,134.226440 L 23.623680,133.852549 L 23.329868,133.009401 L 23.077851,132.874474 C 22.939241,132.800265 22.706114,132.739548 22.559789,132.739548 L 22.293745,132.739548 L 21.567663,133.310900 L 21.567663,134.268273 L 22.244056,134.944921 L 22.892832,134.944921 "/>
        <path style="fill:none;stroke-width:0.280000;stroke-linecap:round;stroke-linejoin:round;stroke-opacity:1;stroke:#000000;" d="M 33.291814,134.944921 L 33.968207,134.268273 L 33.968207,133.310900 L 33.242125,132.739548 L 32.996408,132.739548 C 32.861264,132.739548 32.645721,132.779844 32.517424,132.829095 L 32.284158,132.918641 L 31.934153,133.751372 L 32.166653,134.562359 L 32.659261,134.936154 L 33.291814,134.944921 "/>
        <path style="fill:none;stroke-width:0.280000;stroke-linecap:round;stroke-linejoin:round;stroke-opacity:1;stroke:#000000;" d="M 45.141223,134.944921 L 45.817616,134.268273 L 45.817616,133.310900 L 45.091534,132.739548 L 44.825490,132.739548 C 44.679165,132.739548 44.446038,132.800265 44.307428,132.874474 L 44.055412,133.009401 L 43.765194,133.842235 L 44.055412,134.675069 L 44.307428,134.809995 C 44.446038,134.884204 44.690345,134.944921 44.850334,134.944921 L 45.141223,134.944921 "/>
        <path style="fill:none;stroke-width:0.280000;stroke-linecap:round;stroke-linejoin:round;stroke-opacity:1;stroke:#000000;" d="M 103.915819,131.361190 L 105.934892,129.278126 L 105.513564,128.856639 L 103.759619,130.521153 L 103.156086,129.953950 L 103.008103,130.045444 C 102.926712,130.095765 102.860119,130.207856 102.860119,130.294535 C 102.860119,130.460272 103.677906,131.361190 103.828349,131.361190 L 103.915819,131.361190 "/>
        <path style="fill:none;stroke-width:0.280000;stroke-linecap:round;stroke-linejoin:round;stroke-opacity:1;stroke:#000000;" d="M 96.797631,99.038694 C 96.797631,99.076599 96.828632,99.107612 96.866523,99.107612 C 96.904413,99.107612 96.935415,99.076599 96.935415,99.038694 C 96.935415,99.000789 96.904413,98.969776 96.866523,98.969776 C 96.828632,98.969776 96.797631,99.000789 96.797631,99.038694 "/>
        <path style="fill:none;stroke-width:0.280000;stroke-linecap:round;stroke-linejoin:round;stroke-opacity:1;stroke:#000000;" d="M 30.515195,104.633744 L 30.687398,104.912480 L 31.277758,104.827798 L 33.267436,97.246828 L 33.279288,96.755751 L 32.844569,96.588871 L 32.470016,96.971157 L 32.075592,98.625186 L 30.515195,104.633744 "/>
        <path style="fill:none;stroke-width:0.280000;stroke-linecap:round;stroke-linejoin:round;stroke-opacity:1;stroke:#000000;" d="M 80.109538,104.621065 L 80.289574,104.912480 L 80.876273,104.827798 L 81.510359,102.484589 L 82.938366,96.904027 L 82.598312,96.563846 L 82.135318,96.856005 L 81.537278,99.176530 L 80.109538,104.621065 "/>
        <path style="fill:none;stroke-width:0.280000;stroke-linecap:round;stroke-linejoin:round;stroke-opacity:1;stroke:#000000;" d="M 31.694774,108.605481 L 33.198638,108.336653 L 34.621305,107.685088 L 35.709021,106.702032 L 36.585798,104.903136 L 37.064854,102.866848 C 37.328334,101.746889 37.761844,99.993207 38.028208,98.969776 L 38.512507,97.108993 L 38.515073,95.650734 L 37.971936,94.585695 L 36.983873,93.770943 L 35.277153,93.249590 L 31.419206,93.272805 L 29.409233,93.984404 L 28.144293,95.021318 L 27.391660,96.208545 L 27.087098,97.384664 L 26.528661,99.590037 C 26.221520,100.802992 25.811315,102.550541 25.617094,103.473479 L 25.263964,105.151547 L 25.592243,106.757499 L 26.898248,108.026374 L 28.250178,108.495833 L 31.694774,108.605481 "/>
        <path style="fill:none;stroke-width:0.280000;stroke-linecap:round;stroke-linejoin:round;stroke-opacity:1;stroke:#000000;" d="M 37.343911,108.567909 L 44.837731,108.541796 L 44.959764,108.411529 L 45.790133,105.034551 C 46.246835,103.177214 46.943584,100.324013 47.338464,98.694104 L 48.056426,95.730635 L 48.681717,93.180672 L 43.385788,93.180672 L 42.928716,95.075915 C 42.677326,96.118298 42.167041,98.180666 41.794748,99.658955 L 41.117853,102.346753 L 40.711245,104.265360 L 40.375155,104.478987 L 37.688370,104.483208 L 37.688370,104.619664 L 36.702795,108.367459 L 36.747785,108.406830 C 36.772530,108.428484 36.916781,108.473585 37.068343,108.507055 L 37.343911,108.567909 "/>
        <path style="fill:none;stroke-width:0.280000;stroke-linecap:round;stroke-linejoin:round;stroke-opacity:1;stroke:#000000;" d="M 30.753251,88.402364 C 30.803772,88.452904 30.881275,88.493305 30.925481,88.492144 C 30.969687,88.490983 31.081885,88.441714 31.174810,88.382657 L 31.343766,88.275281 L 31.894296,86.144936 C 32.197088,84.973246 32.632580,83.303075 32.862057,82.433445 L 33.279288,80.852298 L 33.279288,80.224107 L 32.600990,80.224107 L 32.472670,80.740991 C 32.402094,81.025277 32.271118,81.536993 32.181613,81.878136 L 32.018875,82.498397 L 30.663160,87.736158 L 30.662278,88.023316 C 30.661793,88.181253 30.702731,88.351825 30.753251,88.402364 "/>
        <path style="fill:none;stroke-width:0.280000;stroke-linecap:round;stroke-linejoin:round;stroke-opacity:1;stroke:#000000;" d="M 73.225975,92.077986 L 73.376820,91.492184 C 73.459785,91.169992 73.582108,90.720303 73.648649,90.492874 C 73.715191,90.265445 73.839978,89.707210 73.925956,89.252352 C 74.011933,88.797494 74.113187,88.316791 74.150966,88.184124 L 74.219654,87.942912 L 71.574542,87.942912 L 71.422355,87.546167 L 72.402656,83.463248 L 73.925870,77.122801 L 73.925516,76.634423 L 68.620839,76.709294 L 68.528678,77.398473 L 67.197763,82.911905 L 65.107351,91.782947 L 65.107351,92.077986 L 73.225975,92.077986 "/>
        <path style="fill:none;stroke-width:0.280000;stroke-linecap:round;stroke-linejoin:round;stroke-opacity:1;stroke:#000000;" d="M 80.231414,88.073774 L 80.312061,88.284015 C 80.356416,88.399647 80.441155,88.493305 80.500369,88.492144 C 80.559584,88.490983 80.691198,88.437302 80.792845,88.372852 L 80.977659,88.255671 L 81.509118,86.357800 L 83.014569,80.465879 L 82.939885,80.344993 C 82.898809,80.278505 82.748514,80.224107 82.605897,80.224107 L 82.346592,80.224107 L 82.170514,80.509116 L 80.684004,86.357800 L 80.231414,88.073774 "/>
        <path style="fill:none;stroke-width:0.280000;stroke-linecap:round;stroke-linejoin:round;stroke-opacity:1;stroke:#000000;" d="M 81.296951,108.609327 L 83.088140,108.256446 L 84.384518,107.628983 L 84.932149,107.034649 C 85.233347,106.707765 85.612182,106.180689 85.774005,105.863370 L 86.068230,105.286424 L 87.573692,99.314366 L 87.845471,98.080297 C 88.155391,96.673039 88.176347,96.224763 87.967406,95.471974 L 87.819098,94.937642 L 86.808304,93.866481 L 85.154898,93.280416 L 82.366160,93.146131 L 81.442154,93.307101 C 80.933951,93.395634 80.184855,93.592818 79.777497,93.745287 L 79.036846,94.022505 L 77.630436,95.287465 L 76.939150,96.652168 L 76.413458,98.879199 C 76.124327,100.104067 75.694271,101.844150 75.457776,102.746051 L 75.027787,104.385870 L 75.027787,106.181936 L 75.699283,107.328190 L 76.251603,107.711093 C 76.555380,107.921689 77.070822,108.188664 77.397031,108.304370 L 77.990139,108.514745 L 81.296951,108.609327 "/>
        <path style="fill:none;stroke-width:0.280000;stroke-linecap:round;stroke-linejoin:round;stroke-opacity:1;stroke:#000000;" d="M 63.962848,92.077986 L 64.681467,89.114516 L 64.862452,88.080747 L 61.111620,88.080747 L 61.111620,87.949696 C 61.111620,87.723923 61.416585,86.361253 61.483309,86.288882 L 61.546850,86.219964 L 65.444048,86.082128 L 66.316473,82.498397 L 66.193359,82.291644 L 62.452002,82.291644 L 62.537748,81.665825 C 62.584908,81.321624 62.688521,80.918454 62.768000,80.769892 L 62.912506,80.499778 L 66.755507,80.499778 L 66.845261,80.120730 C 66.894626,79.912253 67.081815,79.167164 67.261238,78.464977 L 67.587460,77.188273 L 67.587460,76.636557 L 58.717463,76.709294 L 57.846689,80.293024 L 57.118641,83.325412 C 56.718214,84.993225 56.088764,87.582935 55.719863,89.080321 L 55.049132,91.802843 L 55.049132,92.077986 L 63.962848,92.077986 "/>
        <path style="fill:none;stroke-width:0.280000;stroke-linecap:round;stroke-linejoin:round;stroke-opacity:1;stroke:#000000;" d="M 46.024292,108.549364 L 54.842456,108.532617 L 55.568813,105.654813 L 57.429834,97.936007 L 58.590623,93.249590 L 49.621769,93.249590 L 48.886806,96.144142 L 48.717966,97.040075 L 52.569023,97.040075 L 52.566366,97.212369 C 52.564904,97.307132 52.483426,97.694795 52.385303,98.073843 L 52.206898,98.763022 L 48.352465,98.839175 L 47.380547,102.554888 L 47.516950,102.691343 L 51.191185,102.691343 L 51.185104,102.863637 C 51.175487,103.136126 50.856235,104.258772 50.734338,104.448749 L 50.623787,104.621044 L 46.941257,104.621044 L 46.660484,105.516977 L 45.930930,108.338091 L 46.024292,108.549364 "/>
        <path style="fill:none;stroke-width:0.280000;stroke-linecap:round;stroke-linejoin:round;stroke-opacity:1;stroke:#000000;" d="M 81.710302,92.066768 L 82.605897,91.824589 C 83.098474,91.691391 83.735632,91.468983 84.021803,91.330348 L 84.542115,91.078286 L 85.103474,90.440990 C 85.412221,90.090478 85.754815,89.629996 85.864793,89.417698 L 86.064753,89.031700 L 87.439119,83.876755 L 87.711730,82.636233 C 87.861667,81.953946 88.051828,81.023554 88.134312,80.568696 L 88.284282,79.741681 L 88.133562,79.190338 C 88.050665,78.887099 87.861962,78.442303 87.714221,78.201901 L 87.445600,77.764807 L 86.134288,76.996037 L 84.465979,76.646121 L 83.363708,76.644289 C 81.302308,76.640865 80.236208,76.922911 78.786656,77.855191 L 78.076529,78.311910 L 77.670439,78.957878 C 77.215083,79.682212 76.982371,80.356724 76.496485,82.360562 L 76.162264,83.738920 L 74.980848,88.618289 L 75.321681,90.141864 L 76.474517,91.395611 L 78.127923,91.993340 L 81.710302,92.066768 "/>
        <path style="fill:none;stroke-width:0.280000;stroke-linecap:round;stroke-linejoin:round;stroke-opacity:1;stroke:#000000;" d="M 16.063131,92.077986 L 16.330729,91.373883 L 17.000687,88.425337 L 17.313018,83.325412 L 17.463544,82.707056 L 17.749655,82.883949 L 17.640824,92.009068 L 23.403678,92.009068 L 24.061961,89.390188 L 24.883807,85.944292 C 25.335823,84.049050 25.986349,81.288888 26.329420,79.810599 L 26.953186,77.122801 L 27.097586,76.640376 L 22.261832,76.640376 L 22.190525,76.950506 C 22.151306,77.121078 21.994754,77.787859 21.842631,78.432241 L 21.566045,79.603845 L 21.160055,85.255113 L 20.988243,86.582203 L 20.835546,86.429449 L 20.897291,76.640376 L 14.848398,76.640376 L 14.063298,79.913976 C 13.631492,81.714456 12.974392,84.459112 12.603076,86.013210 L 11.927954,88.838844 L 11.233876,91.824381 L 11.233876,92.077986 L 16.063131,92.077986 "/>
        <path style="fill:none;stroke-width:0.280000;stroke-linecap:round;stroke-linejoin:round;stroke-opacity:1;stroke:#000000;" d="M 101.620065,10.449948 L 101.620065,10.617025 L 101.787079,10.617025 C 101.878937,10.617025 102.217251,10.358658 102.538889,10.042875 L 103.123684,9.468725 L 104.237651,10.617025 L 104.444480,10.617025 C 104.779422,10.617025 104.688603,10.435366 104.030768,9.789506 L 103.410227,9.180262 L 104.708145,7.862032 L 104.370665,7.524425 L 103.073318,8.822261 L 101.759571,7.527780 L 101.465602,7.821860 L 102.762068,9.118815 L 102.191066,9.700843 C 101.877015,10.020958 101.620065,10.358055 101.620065,10.449948 "/>
        <path style="fill:none;stroke-width:0.280000;stroke-linecap:round;stroke-linejoin:round;stroke-opacity:1;stroke:#000000;" d="M 94.142056,9.079455 L 94.308873,9.514339 L 95.006441,9.514339 L 95.006441,8.854653 L 94.544165,8.677194 L 94.142056,9.079455 "/>
        <path style="fill:none;stroke-width:0.280000;stroke-linecap:round;stroke-linejoin:round;stroke-opacity:1;stroke:#000000;" d="M 92.488650,9.079455 L 92.655467,9.514339 L 93.185769,9.514339 L 93.363161,9.051888 L 92.939684,8.628251 L 92.488650,9.079455 "/>
        <path style="fill:none;stroke-width:0.280000;stroke-linecap:round;stroke-linejoin:round;stroke-opacity:1;stroke:#000000;" d="M 95.970928,8.854653 L 95.970928,9.514339 L 96.668496,9.514339 L 96.842405,9.060967 L 96.357494,8.706258 L 95.970928,8.854653 "/>
        <path style="fill:none;stroke-width:0.280000;stroke-linecap:round;stroke-linejoin:round;stroke-opacity:1;stroke:#000000;" d="M 91.382323,92.077986 L 91.677665,90.940840 C 91.840103,90.315410 92.032573,89.493564 92.105376,89.114516 L 92.237746,88.425337 L 92.533094,84.014591 L 92.699379,82.539206 L 92.935464,82.911905 L 92.939684,92.077986 L 98.686744,92.077986 L 99.829666,87.322650 L 101.598752,79.879517 L 102.308984,76.827761 L 102.308984,76.640376 L 97.553905,76.640376 L 96.814447,79.741681 L 96.368845,85.668621 L 96.228726,86.592723 L 96.061860,86.425794 L 96.127171,76.640376 L 90.076097,76.640376 L 89.936132,77.260637 L 89.286436,80.017353 C 88.929103,81.533547 88.398396,83.766487 88.107086,84.979442 C 87.815776,86.192397 87.357931,88.146219 87.089653,89.321270 L 86.601874,91.457725 L 86.458594,92.077986 L 91.382323,92.077986 "/>
        <path style="fill:none;stroke-width:0.280000;stroke-linecap:round;stroke-linejoin:round;stroke-opacity:1;stroke:#000000;" d="M 11.578336,108.569526 L 15.987418,108.512308 L 16.963936,108.480447 L 18.379729,105.516977 L 21.142247,99.653869 L 21.567663,99.046273 L 21.567663,99.396677 L 20.861836,101.147387 C 20.473632,102.110277 19.967506,103.363292 19.737113,103.931865 C 19.506721,104.500438 19.117295,105.740960 18.871724,106.688581 L 18.425231,108.411529 L 18.510160,108.549364 L 23.289961,108.544013 L 23.614171,107.446678 L 24.101636,105.516977 C 24.614197,103.487930 25.450195,100.059726 26.469560,95.806759 L 27.079016,93.264002 L 27.079016,93.180672 L 21.062353,93.180672 L 20.224238,94.938079 C 19.402068,96.662050 18.969232,97.592154 18.028066,99.657346 C 17.769354,100.225033 17.297741,101.202066 16.980037,101.828530 L 16.402392,102.967555 L 16.220837,102.898096 L 16.969036,101.037313 C 17.380545,100.013882 18.000188,98.463229 18.346020,97.591418 L 18.974806,96.006306 L 19.638690,93.393748 L 19.638690,93.180672 L 14.879366,93.180672 L 12.984610,100.968395 L 12.528512,102.760261 C 12.277658,103.745787 11.883743,105.347712 11.653145,106.320094 L 11.233876,108.088062 L 11.233876,108.618282 L 11.578336,108.569526 "/>
        <path style="fill:none;stroke-width:0.280000;stroke-linecap:round;stroke-linejoin:round;stroke-opacity:1;stroke:#000000;" d="M 66.175176,62.167616 L 66.345035,61.271683 L 67.034459,58.377131 C 67.413643,56.785128 67.993629,54.351364 68.323318,52.968768 L 68.922752,50.454955 L 68.789207,50.321360 L 50.955762,50.310097 L 50.368255,52.588028 L 49.801525,55.000154 C 49.489824,56.326824 48.992953,58.462791 48.697368,59.746748 L 48.159941,62.081215 L 48.159941,62.167616 L 66.175176,62.167616 "/>
        <path style="fill:none;stroke-width:0.280000;stroke-linecap:round;stroke-linejoin:round;stroke-opacity:1;stroke:#000000;" d="M 86.532736,108.559541 L 92.105090,108.534285 L 92.212777,108.411529 L 93.184313,106.343992 L 95.977840,100.417052 L 96.269680,99.865709 C 96.430192,99.562470 96.614645,99.255441 96.679575,99.183422 L 96.797631,99.052477 L 96.797631,99.213204 C 96.797631,99.301604 96.706038,99.577620 96.594090,99.826573 C 96.482143,100.075527 96.174684,100.837451 95.910847,101.519738 C 95.647011,102.202026 95.238381,103.225456 95.002780,103.794029 C 94.767179,104.362602 94.361608,105.611808 94.101509,106.570042 L 93.628603,108.312287 L 93.628651,108.549364 L 97.831009,108.509789 L 98.545399,108.480447 L 99.683415,104.000783 L 101.630372,96.006306 L 101.909948,94.834702 C 102.063715,94.190319 102.220962,93.553353 102.259384,93.419221 L 102.329244,93.175344 L 96.239814,93.249590 L 92.939553,100.279216 L 91.512056,103.162178 L 91.413797,102.867292 L 92.049709,101.297582 C 92.399461,100.434242 92.986015,99.014573 93.353164,98.142761 L 94.020707,96.557649 L 94.868238,93.387426 L 94.868657,93.180672 L 90.096517,93.180672 L 88.675254,98.900858 L 86.736514,106.895335 L 86.356231,108.482831 L 86.532736,108.559541 "/>
        <path style="fill:none;stroke-width:0.280000;stroke-linecap:round;stroke-linejoin:round;stroke-opacity:1;stroke:#000000;" d="M 31.970342,92.076696 L 34.037099,91.509069 L 35.182038,90.841217 L 36.134602,89.528023 L 36.498135,88.608582 C 36.698078,88.102889 36.861667,87.599023 36.861667,87.488879 L 36.861667,87.288618 L 38.515073,80.717718 L 38.515073,78.886516 L 38.203487,78.423978 C 38.032115,78.169583 37.627531,77.759723 37.304412,77.513180 L 36.716924,77.064918 L 35.690505,76.767949 L 32.797045,76.605552 L 30.844432,76.911523 L 30.232014,77.182527 C 29.039979,77.710020 28.115308,78.502186 27.647022,79.397092 L 27.394579,79.879517 L 25.850538,86.082128 L 25.425610,87.960018 L 25.431662,89.528023 L 25.937533,90.642114 L 26.799150,91.367391 L 28.387962,91.983958 L 31.970342,92.076696 "/>
        <path style="fill:none;stroke-width:0.280000;stroke-linecap:round;stroke-linejoin:round;stroke-opacity:1;stroke:#000000;" d="M 42.043213,92.077986 L 42.781972,89.114516 L 43.486490,83.876755 L 43.884239,81.034515 L 44.175451,80.568696 L 44.006924,83.187576 L 43.199723,91.730679 L 43.199723,92.084815 L 47.645882,92.009068 L 48.123825,90.768546 C 48.386694,90.086258 48.973826,88.566619 49.428562,87.391568 C 49.883299,86.216518 50.523100,84.541813 50.850343,83.670002 C 51.177586,82.798190 51.575714,81.781487 51.735072,81.410661 L 52.024814,80.736433 L 52.185817,80.897497 L 49.144592,90.217202 L 48.996726,90.947625 C 48.915400,91.349357 48.848860,91.768033 48.848860,91.878016 L 48.848860,92.077986 L 53.920920,92.077986 L 54.836857,88.321960 C 55.340622,86.256146 56.088650,83.201360 56.499142,81.533547 L 57.245490,78.501159 L 57.392419,77.811980 C 57.473230,77.432931 57.572254,77.014255 57.612471,76.881588 L 57.685595,76.640376 L 49.852390,76.640376 L 47.895965,82.636233 L 47.675288,83.463248 C 47.553915,83.918106 47.307671,84.861691 47.128079,85.560103 L 46.801548,86.829942 L 46.514915,87.322650 L 46.509430,86.909143 L 46.850657,85.324031 C 47.038332,84.452220 47.283159,83.335750 47.394718,82.842987 L 47.597552,81.947054 L 48.161515,77.536308 L 48.310212,76.640376 L 40.485623,76.640376 L 40.123480,78.053193 C 39.924301,78.830242 39.696850,79.776140 39.618033,80.155189 L 39.474728,80.844368 L 38.789576,83.670002 C 38.412743,85.224100 37.807942,87.724459 37.445575,89.226353 L 36.786726,91.957071 L 36.907595,92.077986 L 42.043213,92.077986 "/>
        <path style="fill:none;stroke-width:0.280000;stroke-linecap:round;stroke-linejoin:round;stroke-opacity:1;stroke:#000000;" d="M 56.220295,108.574525 L 61.156509,108.540678 L 61.367381,107.998021 L 61.930991,105.379141 L 63.224441,97.315746 L 63.453945,97.315746 L 63.447895,97.625877 C 63.444567,97.796449 63.387419,98.370190 63.320899,98.900858 C 63.184631,99.987933 62.894571,102.644692 62.550232,105.959637 L 62.318122,108.194164 L 62.454367,108.549364 L 66.630921,108.527631 L 66.867245,108.273693 L 67.839057,105.792648 L 70.216318,99.727873 L 71.299582,97.246828 L 71.303603,97.535381 C 71.305814,97.694085 71.178893,98.190293 71.021555,98.638067 L 70.735486,99.452201 L 68.646659,105.516977 L 67.892910,108.480447 L 68.808010,108.498172 C 69.311315,108.507920 70.459755,108.510142 71.360099,108.503108 L 72.997088,108.490319 L 73.112929,108.374435 L 73.785992,105.792648 L 74.350662,103.518358 C 74.661230,102.267498 75.063452,100.618260 75.244487,99.853386 L 75.573643,98.462705 L 76.929471,93.180672 L 69.140520,93.180672 L 68.725266,94.352277 L 68.026849,96.350896 C 67.642719,97.450136 67.134054,99.093828 66.896482,100.003545 C 66.354678,102.078231 65.976337,103.332263 65.802032,103.631164 L 65.666866,103.862947 L 65.665964,103.656193 C 65.665467,103.542479 65.726380,103.201335 65.801326,102.898096 C 65.876271,102.594858 66.061171,101.757505 66.212214,101.037313 C 66.363257,100.317121 66.580353,99.324703 66.694649,98.831940 L 66.902459,97.936007 L 67.587460,93.492626 L 67.587460,93.180672 L 59.526799,93.180672 L 57.770479,100.554888 L 57.173174,102.967014 C 56.844657,104.293684 56.418362,106.072454 56.225853,106.919837 L 55.875835,108.460533 L 55.875835,108.539408 C 55.875835,108.582789 55.953339,108.608437 56.048065,108.596404 L 56.220295,108.574525 "/>
        <path style="fill:none;stroke-width:0.280000;stroke-linecap:round;stroke-linejoin:round;stroke-opacity:1;stroke:#000000;" d="M 23.750833,75.537689 L 24.032809,74.641756 L 24.896209,70.920190 L 25.572088,68.094556 C 25.943821,66.540457 26.623532,63.687256 27.082556,61.754109 L 27.917145,58.239296 L 29.132663,53.277207 L 29.670502,50.796162 L 30.318728,48.108364 C 31.444978,43.438491 32.398778,39.460750 33.194153,36.116649 C 33.617879,34.335121 34.213394,31.831516 34.517521,30.553082 L 35.070478,28.228657 L 35.070478,28.122172 L 22.532150,28.122172 L 22.532150,28.283441 L 21.317640,33.153179 L 19.489626,40.871984 L 18.123751,46.523252 L 16.325239,54.104222 L 15.708384,56.654184 C 15.369114,58.056663 14.757210,60.599734 14.348599,62.305452 L 13.605668,65.406758 L 13.367283,66.440526 C 13.236171,67.009099 12.913285,68.342660 12.649757,69.403996 C 12.386230,70.465332 11.960251,72.264089 11.703137,73.401234 L 11.235658,75.468771 L 11.233876,75.537689 L 23.750833,75.537689 "/>
        <path style="fill:none;stroke-width:0.280000;stroke-linecap:round;stroke-linejoin:round;stroke-opacity:1;stroke:#000000;" d="M 44.723994,75.537689 L 44.819722,75.193100 L 46.230823,69.266160 L 46.570039,67.749966 C 46.756608,66.916060 47.097489,65.489459 47.327552,64.579743 L 47.745848,62.925713 L 47.746590,62.443288 L 41.270750,62.443288 L 41.270750,61.942746 L 41.741085,59.884267 C 41.999770,58.752104 42.427929,56.926410 42.692550,55.827169 L 43.173680,53.828550 L 44.008958,50.313737 C 44.468361,48.380590 45.189008,45.341310 45.610396,43.559782 C 47.361434,36.156808 47.946302,33.701845 48.587182,31.064824 L 49.262212,28.287289 L 49.262212,28.122172 L 36.608934,28.122172 L 36.308607,29.569448 L 35.537640,32.808590 C 35.113608,34.590117 34.469371,37.288253 34.106003,38.804447 C 33.742635,40.320641 33.098804,43.018777 32.675267,44.800305 C 32.251730,46.581832 31.499323,49.745164 31.003252,51.829931 L 30.101305,55.620415 L 29.611031,57.619035 C 29.341380,58.718275 28.977419,60.268928 28.802227,61.064930 L 28.483697,62.512206 L 27.771158,65.475675 C 27.379262,67.105584 26.786343,69.555615 26.453561,70.920190 L 25.848502,73.401234 L 25.637056,74.340179 C 25.520761,74.856599 25.425610,75.337301 25.425610,75.408407 L 25.425610,75.537689 L 44.723994,75.537689 "/>
        <path style="fill:none;stroke-width:0.280000;stroke-linecap:round;stroke-linejoin:round;stroke-opacity:1;stroke:#000000;" d="M 77.035375,75.540403 L 77.684316,72.816789 C 78.041234,71.318801 78.551274,69.162783 78.817738,68.025638 C 79.084202,66.888492 79.582801,64.748592 79.925735,63.270303 C 80.268668,61.792014 80.757414,59.714139 81.011835,58.652803 C 81.266256,57.591467 81.577417,56.257906 81.703304,55.689333 C 81.829190,55.120761 82.113282,53.911251 82.334619,53.001535 L 82.737049,51.347505 L 84.288189,44.731387 L 84.621988,43.215193 C 84.805577,42.381286 85.138037,40.954686 85.360787,40.044969 C 85.583538,39.135253 85.956258,37.553587 86.189054,36.530156 C 86.421849,35.506726 86.824739,33.801007 87.084363,32.739672 C 87.343988,31.678336 87.682597,30.223626 87.836829,29.506984 L 88.117250,28.203997 L 88.117250,28.122172 L 75.620660,28.122172 L 75.036978,30.396463 L 74.402079,33.153179 C 73.575045,36.744137 72.824978,39.958054 72.214638,42.526014 C 71.944367,43.663159 71.595071,45.151786 71.438425,45.834073 C 71.281779,46.516360 70.945115,47.942961 70.690284,49.004297 L 70.226954,50.933998 L 68.792111,56.998773 L 68.174330,59.755490 L 66.614465,66.371608 L 66.069395,68.645899 C 65.769606,69.896759 65.286793,71.943621 64.996477,73.194480 L 64.468630,75.468771 L 77.035375,75.540403 "/>
        <path style="fill:none;stroke-width:0.280000;stroke-linecap:round;stroke-linejoin:round;stroke-opacity:1;stroke:#000000;" d="M 98.032435,75.537689 L 98.177693,74.917428 L 98.450639,73.607988 C 98.600760,72.887796 98.843504,71.802339 98.990071,71.195861 L 99.256556,70.093175 L 100.654939,64.028399 L 101.044073,62.443288 L 94.455306,62.443288 L 94.455306,61.881467 L 94.855472,60.198217 C 95.075564,59.272430 95.421558,57.770654 95.624347,56.860938 C 95.827137,55.951221 96.077099,54.896777 96.179818,54.517729 L 96.366580,53.828550 L 96.794743,51.898849 C 97.030232,50.837513 97.497472,48.821664 97.833053,47.419185 L 98.443200,44.869223 L 100.385772,36.461239 L 101.646518,31.085642 L 102.308984,28.265909 L 102.308984,28.119391 L 89.720403,28.191090 L 89.204952,30.327545 C 88.921453,31.502595 88.460702,33.456418 88.181060,34.669373 C 87.901418,35.882328 87.375000,38.146281 87.011243,39.700380 L 86.349867,42.526014 L 85.925438,44.317879 C 85.692003,45.303405 85.402683,46.543928 85.282506,47.074595 L 85.064002,48.039446 L 84.146662,51.898849 L 82.708185,57.963624 L 82.395549,59.410900 C 82.223600,60.206902 81.863552,61.757555 81.595444,62.856795 C 81.327335,63.956036 80.975422,65.444662 80.813414,66.164854 C 80.651406,66.885047 80.279875,68.466712 79.987788,69.679667 C 79.695702,70.892623 79.292499,72.621156 79.091781,73.520853 L 78.726841,75.156665 L 78.580683,75.537689 L 98.032435,75.537689 "/>
    </g>
</svg>
