G04*
G04 #@! TF.GenerationSoftware,Altium Limited,Altium Designer,22.10.1 (41)*
G04*
G04 Layer_Color=128*
%FSLAX43Y43*%
%MOMM*%
G71*
G04*
G04 #@! TF.SameCoordinates,653730E2-FE11-40ED-88C2-BB3E2325E701*
G04*
G04*
G04 #@! TF.FilePolarity,Positive*
G04*
G01*
G75*
%ADD11C,0.100*%
%ADD135C,0.051*%
D11*
X0Y4000D02*
G03*
X2000Y2000I2000J0D01*
G01*
X2000Y82500D02*
G03*
X0Y80500I0J-2000D01*
G01*
X70000D02*
G03*
X68000Y82500I-2000J0D01*
G01*
X68000Y2000D02*
G03*
X70000Y4000I0J2000D01*
G01*
X11500Y2000D02*
X13500Y0D01*
X46500D01*
X48500Y2000D01*
Y2000D01*
X68000D01*
X2000Y82500D02*
X68000D01*
X2000Y2000D02*
X11500D01*
X0Y4000D02*
Y58000D01*
Y80500D01*
X70000Y4000D02*
Y58000D01*
Y80500D01*
X70000Y80500D02*
X70000Y80500D01*
D135*
X31960Y27190D02*
X32960D01*
X32460Y26690D02*
Y27690D01*
X31960Y20990D02*
X32960D01*
X32460Y20490D02*
Y21490D01*
X31200Y81050D02*
X31800D01*
X31500Y80750D02*
Y81350D01*
X38200Y81050D02*
X38800D01*
X38500Y80750D02*
Y81350D01*
X32050Y78350D02*
X32950D01*
X32500Y77900D02*
Y78800D01*
X37050Y78350D02*
X37950D01*
X37500Y77900D02*
Y78800D01*
X9910Y69140D02*
X10880D01*
X10395Y68655D02*
Y69625D01*
X9910Y62790D02*
X10880D01*
X10395Y62305D02*
Y63275D01*
X9800Y71410D02*
X10990D01*
X10395Y70815D02*
Y72005D01*
X9800Y60520D02*
X10990D01*
X10395Y59925D02*
Y61115D01*
X63710Y20280D02*
X64710D01*
X64210Y19780D02*
Y20780D01*
X63710Y17740D02*
X64710D01*
X64210Y17240D02*
Y18240D01*
X66250Y20280D02*
X67250D01*
X66750Y19780D02*
Y20780D01*
X66250Y17740D02*
X67250D01*
X66750Y17240D02*
Y18240D01*
X66250Y10120D02*
X67250D01*
X66750Y9620D02*
Y10620D01*
X66250Y15200D02*
X67250D01*
X66750Y14700D02*
Y15700D01*
X66250Y12660D02*
X67250D01*
X66750Y12160D02*
Y13160D01*
X63710Y10120D02*
X64710D01*
X64210Y9620D02*
Y10620D01*
X63710Y12660D02*
X64710D01*
X64210Y12160D02*
Y13160D01*
X63710Y15200D02*
X64710D01*
X64210Y14700D02*
Y15700D01*
X66250Y5040D02*
X67250D01*
X66750Y4540D02*
Y5540D01*
X66250Y7580D02*
X67250D01*
X66750Y7080D02*
Y8080D01*
X63710Y5040D02*
X64710D01*
X64210Y4540D02*
Y5540D01*
X63710Y7580D02*
X64710D01*
X64210Y7080D02*
Y8080D01*
X63710Y32980D02*
X64710D01*
X64210Y32480D02*
Y33480D01*
X63710Y30440D02*
X64710D01*
X64210Y29940D02*
Y30940D01*
X66250Y32980D02*
X67250D01*
X66750Y32480D02*
Y33480D01*
X66250Y30440D02*
X67250D01*
X66750Y29940D02*
Y30940D01*
X66250Y22820D02*
X67250D01*
X66750Y22320D02*
Y23320D01*
X66250Y27900D02*
X67250D01*
X66750Y27400D02*
Y28400D01*
X66250Y25360D02*
X67250D01*
X66750Y24860D02*
Y25860D01*
X63710Y22820D02*
X64710D01*
X64210Y22320D02*
Y23320D01*
X63710Y25360D02*
X64710D01*
X64210Y24860D02*
Y25860D01*
X63710Y27900D02*
X64710D01*
X64210Y27400D02*
Y28400D01*
X63710Y40600D02*
X64710D01*
X64210Y40100D02*
Y41100D01*
X63710Y38060D02*
X64710D01*
X64210Y37560D02*
Y38560D01*
X63710Y35520D02*
X64710D01*
X64210Y35020D02*
Y36020D01*
X66250Y38060D02*
X67250D01*
X66750Y37560D02*
Y38560D01*
X66250Y40600D02*
X67250D01*
X66750Y40100D02*
Y41100D01*
X66250Y35520D02*
X67250D01*
X66750Y35020D02*
Y36020D01*
X66250Y43140D02*
X67250D01*
X66750Y42640D02*
Y43640D01*
X66250Y50760D02*
X67250D01*
X66750Y50260D02*
Y51260D01*
X66250Y48220D02*
X67250D01*
X66750Y47720D02*
Y48720D01*
X66250Y45680D02*
X67250D01*
X66750Y45180D02*
Y46180D01*
X63710Y43140D02*
X64710D01*
X64210Y42640D02*
Y43640D01*
X63710Y45680D02*
X64710D01*
X64210Y45180D02*
Y46180D01*
X63710Y48220D02*
X64710D01*
X64210Y47720D02*
Y48720D01*
X63710Y50760D02*
X64710D01*
X64210Y50260D02*
Y51260D01*
X56090Y68500D02*
X57090D01*
X56590Y68000D02*
Y69000D01*
X58630Y68500D02*
X59630D01*
X59130Y68000D02*
Y69000D01*
X58630Y60880D02*
X59630D01*
X59130Y60380D02*
Y61380D01*
X58630Y63420D02*
X59630D01*
X59130Y62920D02*
Y63920D01*
X58630Y65960D02*
X59630D01*
X59130Y65460D02*
Y66460D01*
X56090Y65960D02*
X57090D01*
X56590Y65460D02*
Y66460D01*
X56090Y63420D02*
X57090D01*
X56590Y62920D02*
Y63920D01*
X56090Y60880D02*
X57090D01*
X56590Y60380D02*
Y61380D01*
X10690Y80040D02*
X11690D01*
X11190Y79540D02*
Y80540D01*
X13230Y80040D02*
X14230D01*
X13730Y79540D02*
Y80540D01*
X15770Y80040D02*
X16770D01*
X16270Y79540D02*
Y80540D01*
X18310Y80040D02*
X19310D01*
X18810Y79540D02*
Y80540D01*
X44485Y41235D02*
X45485D01*
X44985Y40735D02*
Y41735D01*
X41945Y41235D02*
X42945D01*
X42445Y40735D02*
Y41735D01*
X39405Y41235D02*
X40405D01*
X39905Y40735D02*
Y41735D01*
X2750Y78700D02*
X3750D01*
X3250Y78200D02*
Y79200D01*
X2750Y76160D02*
X3750D01*
X3250Y75660D02*
Y76660D01*
X17720Y21850D02*
X18720D01*
X18220Y21350D02*
Y22350D01*
X17720Y24390D02*
X18720D01*
X18220Y23890D02*
Y24890D01*
X58580Y44664D02*
X59680D01*
X59130Y44114D02*
Y45214D01*
X58580Y42124D02*
X59680D01*
X59130Y41574D02*
Y42674D01*
X58580Y34504D02*
X59680D01*
X59130Y33954D02*
Y35054D01*
X58580Y31964D02*
X59680D01*
X59130Y31414D02*
Y32514D01*
X58580Y29424D02*
X59680D01*
X59130Y28874D02*
Y29974D01*
X58580Y26884D02*
X59680D01*
X59130Y26334D02*
Y27434D01*
X58580Y37044D02*
X59680D01*
X59130Y36494D02*
Y37594D01*
X58580Y39584D02*
X59680D01*
X59130Y39034D02*
Y40134D01*
X58580Y47204D02*
X59680D01*
X59130Y46654D02*
Y47754D01*
X58580Y49744D02*
X59680D01*
X59130Y49194D02*
Y50294D01*
X58580Y22820D02*
X59680D01*
X59130Y22270D02*
Y23370D01*
X58580Y20280D02*
X59680D01*
X59130Y19730D02*
Y20830D01*
X58580Y12660D02*
X59680D01*
X59130Y12110D02*
Y13210D01*
X58580Y10120D02*
X59680D01*
X59130Y9570D02*
Y10670D01*
X58580Y7580D02*
X59680D01*
X59130Y7030D02*
Y8130D01*
X58580Y5040D02*
X59680D01*
X59130Y4490D02*
Y5590D01*
X58580Y15200D02*
X59680D01*
X59130Y14650D02*
Y15750D01*
X58580Y17740D02*
X59680D01*
X59130Y17190D02*
Y18290D01*
X10320Y5040D02*
X11420D01*
X10870Y4490D02*
Y5590D01*
X10320Y7580D02*
X11420D01*
X10870Y7030D02*
Y8130D01*
X10320Y17740D02*
X11420D01*
X10870Y17190D02*
Y18290D01*
X10320Y15200D02*
X11420D01*
X10870Y14650D02*
Y15750D01*
X10320Y12660D02*
X11420D01*
X10870Y12110D02*
Y13210D01*
X10320Y10120D02*
X11420D01*
X10870Y9570D02*
Y10670D01*
X66250Y78700D02*
X67250D01*
X66750Y78200D02*
Y79200D01*
X66250Y76160D02*
X67250D01*
X66750Y75660D02*
Y76660D01*
X10320Y22820D02*
X11420D01*
X10870Y22270D02*
Y23370D01*
X10320Y25360D02*
X11420D01*
X10870Y24810D02*
Y25910D01*
X10320Y32980D02*
X11420D01*
X10870Y32430D02*
Y33530D01*
X10320Y35520D02*
X11420D01*
X10870Y34970D02*
Y36070D01*
X10320Y38060D02*
X11420D01*
X10870Y37510D02*
Y38610D01*
X10320Y40600D02*
X11420D01*
X10870Y40050D02*
Y41150D01*
X10320Y30440D02*
X11420D01*
X10870Y29890D02*
Y30990D01*
X10320Y27900D02*
X11420D01*
X10870Y27350D02*
Y28450D01*
X2750Y20280D02*
X3750D01*
X3250Y19780D02*
Y20780D01*
X2750Y17740D02*
X3750D01*
X3250Y17240D02*
Y18240D01*
X5290Y20280D02*
X6290D01*
X5790Y19780D02*
Y20780D01*
X5290Y17740D02*
X6290D01*
X5790Y17240D02*
Y18240D01*
X5290Y10120D02*
X6290D01*
X5790Y9620D02*
Y10620D01*
X5290Y15200D02*
X6290D01*
X5790Y14700D02*
Y15700D01*
X5290Y12660D02*
X6290D01*
X5790Y12160D02*
Y13160D01*
X2750Y10120D02*
X3750D01*
X3250Y9620D02*
Y10620D01*
X2750Y12660D02*
X3750D01*
X3250Y12160D02*
Y13160D01*
X2750Y15200D02*
X3750D01*
X3250Y14700D02*
Y15700D01*
X5290Y5040D02*
X6290D01*
X5790Y4540D02*
Y5540D01*
X5290Y7580D02*
X6290D01*
X5790Y7080D02*
Y8080D01*
X2750Y5040D02*
X3750D01*
X3250Y4540D02*
Y5540D01*
X2750Y7580D02*
X3750D01*
X3250Y7080D02*
Y8080D01*
X2750Y32980D02*
X3750D01*
X3250Y32480D02*
Y33480D01*
X2750Y30440D02*
X3750D01*
X3250Y29940D02*
Y30940D01*
X5290Y32980D02*
X6290D01*
X5790Y32480D02*
Y33480D01*
X5290Y30440D02*
X6290D01*
X5790Y29940D02*
Y30940D01*
X5290Y22820D02*
X6290D01*
X5790Y22320D02*
Y23320D01*
X5290Y27900D02*
X6290D01*
X5790Y27400D02*
Y28400D01*
X5290Y25360D02*
X6290D01*
X5790Y24860D02*
Y25860D01*
X2750Y22820D02*
X3750D01*
X3250Y22320D02*
Y23320D01*
X2750Y25360D02*
X3750D01*
X3250Y24860D02*
Y25860D01*
X2750Y27900D02*
X3750D01*
X3250Y27400D02*
Y28400D01*
X2750Y40600D02*
X3750D01*
X3250Y40100D02*
Y41100D01*
X2750Y38060D02*
X3750D01*
X3250Y37560D02*
Y38560D01*
X2750Y35520D02*
X3750D01*
X3250Y35020D02*
Y36020D01*
X5290Y38060D02*
X6290D01*
X5790Y37560D02*
Y38560D01*
X5290Y40600D02*
X6290D01*
X5790Y40100D02*
Y41100D01*
X5290Y35520D02*
X6290D01*
X5790Y35020D02*
Y36020D01*
X5290Y43140D02*
X6290D01*
X5790Y42640D02*
Y43640D01*
X5290Y50760D02*
X6290D01*
X5790Y50260D02*
Y51260D01*
X5290Y48220D02*
X6290D01*
X5790Y47720D02*
Y48720D01*
X5290Y45680D02*
X6290D01*
X5790Y45180D02*
Y46180D01*
X2750Y43140D02*
X3750D01*
X3250Y42640D02*
Y43640D01*
X2750Y45680D02*
X3750D01*
X3250Y45180D02*
Y46180D01*
X2750Y48220D02*
X3750D01*
X3250Y47720D02*
Y48720D01*
X2750Y50760D02*
X3750D01*
X3250Y50260D02*
Y51260D01*
X35135Y41235D02*
X36135D01*
X35635Y40735D02*
Y41735D01*
X32595Y41235D02*
X33595D01*
X33095Y40735D02*
Y41735D01*
X26770Y80040D02*
X27770D01*
X27270Y79540D02*
Y80540D01*
X24230Y80040D02*
X25230D01*
X24730Y79540D02*
Y80540D01*
X10370Y50760D02*
X11370D01*
X10870Y50260D02*
Y51260D01*
X10370Y48220D02*
X11370D01*
X10870Y47720D02*
Y48720D01*
X57530Y53300D02*
X60730D01*
X59130Y51700D02*
Y54900D01*
X42290Y2500D02*
X45490D01*
X43890Y900D02*
Y4100D01*
X9270Y54570D02*
X12470D01*
X10870Y52970D02*
Y56170D01*
X51225Y50125D02*
X51425D01*
X51325Y50025D02*
Y50225D01*
X52350Y41850D02*
X52550D01*
X52450Y41750D02*
Y41950D01*
X15925Y34075D02*
X16125D01*
X16025Y33975D02*
Y34175D01*
X39135Y73490D02*
X39335D01*
X39235Y73390D02*
Y73590D01*
X38480Y74555D02*
X38680D01*
X38580Y74455D02*
Y74655D01*
X22675Y74625D02*
X22875D01*
X22775Y74525D02*
Y74725D01*
X25250Y76025D02*
X25450D01*
X25350Y75925D02*
Y76125D01*
X12575Y75100D02*
X12775D01*
X12675Y75000D02*
Y75200D01*
X12600Y74400D02*
X12800D01*
X12700Y74300D02*
Y74500D01*
X20125Y30175D02*
X20325D01*
X20225Y30075D02*
Y30275D01*
X18625Y37050D02*
X18825D01*
X18725Y36950D02*
Y37150D01*
X19850Y36400D02*
X20050D01*
X19950Y36300D02*
Y36500D01*
X15600Y29200D02*
X15800D01*
X15700Y29100D02*
Y29300D01*
X24750Y27700D02*
X24950D01*
X24850Y27600D02*
Y27800D01*
X23025Y30200D02*
X23225D01*
X23125Y30100D02*
Y30300D01*
X20075Y37025D02*
X20275D01*
X20175Y36925D02*
Y37125D01*
X22100Y37025D02*
X22300D01*
X22200Y36925D02*
Y37125D01*
X22125Y35400D02*
X22325D01*
X22225Y35300D02*
Y35500D01*
X14200Y35275D02*
X14400D01*
X14300Y35175D02*
Y35375D01*
X53150Y45975D02*
X53350D01*
X53250Y45875D02*
Y46075D01*
X53075Y5500D02*
X53275D01*
X53175Y5400D02*
Y5600D01*
X61975Y6375D02*
X62175D01*
X62075Y6275D02*
Y6475D01*
X21175Y10725D02*
X21375D01*
X21275Y10625D02*
Y10825D01*
X20125Y6900D02*
X20325D01*
X20225Y6800D02*
Y7000D01*
X21150Y6250D02*
X21350D01*
X21250Y6150D02*
Y6350D01*
X19850Y26625D02*
X20050D01*
X19950Y26525D02*
Y26725D01*
X22125Y29650D02*
X22325D01*
X22225Y29550D02*
Y29750D01*
X20376Y27201D02*
X20576D01*
X20476Y27101D02*
Y27301D01*
X20650Y25575D02*
X20850D01*
X20750Y25475D02*
Y25675D01*
X20825Y26500D02*
X21025D01*
X20925Y26400D02*
Y26600D01*
X21325Y26075D02*
X21525D01*
X21425Y25975D02*
Y26175D01*
X22125Y26025D02*
X22325D01*
X22225Y25925D02*
Y26125D01*
X24150Y25975D02*
X24350D01*
X24250Y25875D02*
Y26075D01*
X20200Y16050D02*
X20400D01*
X20300Y15950D02*
Y16150D01*
X23051Y23776D02*
X23251D01*
X23151Y23676D02*
Y23876D01*
X20475Y14570D02*
X20675D01*
X20575Y14470D02*
Y14670D01*
X17100Y26550D02*
X17300D01*
X17200Y26450D02*
Y26650D01*
X13795Y48550D02*
X13995D01*
X13895Y48450D02*
Y48650D01*
X14050Y49150D02*
X14250D01*
X14150Y49050D02*
Y49250D01*
X14041Y45084D02*
X14241D01*
X14141Y44984D02*
Y45184D01*
X15246Y47868D02*
X15446D01*
X15346Y47768D02*
Y47968D01*
X18577Y48135D02*
X18777D01*
X18677Y48035D02*
Y48235D01*
X20185Y48142D02*
X20385D01*
X20285Y48042D02*
Y48242D01*
X18400Y56600D02*
X18600D01*
X18500Y56500D02*
Y56700D01*
X18750Y50950D02*
X18950D01*
X18850Y50850D02*
Y51050D01*
X18100Y50525D02*
X18300D01*
X18200Y50425D02*
Y50625D01*
X20525Y63450D02*
X20725D01*
X20625Y63350D02*
Y63550D01*
X17125Y57500D02*
X17325D01*
X17225Y57400D02*
Y57600D01*
X14475Y64125D02*
X14675D01*
X14575Y64025D02*
Y64225D01*
X9225Y12000D02*
X9425D01*
X9325Y11900D02*
Y12100D01*
X9225Y10800D02*
X9425D01*
X9325Y10700D02*
Y10900D01*
X9425Y5675D02*
X9625D01*
X9525Y5575D02*
Y5775D01*
X68375Y7350D02*
X68575D01*
X68475Y7250D02*
Y7450D01*
X65475Y6325D02*
X65675D01*
X65575Y6225D02*
Y6425D01*
X61575Y4100D02*
X61775D01*
X61675Y4000D02*
Y4200D01*
X60725Y5775D02*
X60925D01*
X60825Y5675D02*
Y5875D01*
X60725Y7025D02*
X60925D01*
X60825Y6925D02*
Y7125D01*
X50975Y3975D02*
X51175D01*
X51075Y3875D02*
Y4075D01*
X57375Y4300D02*
X57575D01*
X57475Y4200D02*
Y4400D01*
X43100Y15875D02*
X43300D01*
X43200Y15775D02*
Y15975D01*
X42900Y12300D02*
X43100D01*
X43000Y12200D02*
Y12400D01*
X40625Y16625D02*
X40825D01*
X40725Y16525D02*
Y16725D01*
X39450Y11625D02*
X39650D01*
X39550Y11525D02*
Y11725D01*
X40375Y9250D02*
X40575D01*
X40475Y9150D02*
Y9350D01*
X46875Y5050D02*
X47075D01*
X46975Y4950D02*
Y5150D01*
X51075Y5350D02*
X51275D01*
X51175Y5250D02*
Y5450D01*
X47675Y7525D02*
X47875D01*
X47775Y7425D02*
Y7625D01*
X51275Y7550D02*
X51475D01*
X51375Y7450D02*
Y7650D01*
X43550Y7525D02*
X43750D01*
X43650Y7425D02*
Y7625D01*
X42425Y5000D02*
X42625D01*
X42525Y4900D02*
Y5100D01*
X40150Y7525D02*
X40350D01*
X40250Y7425D02*
Y7625D01*
X37625Y5100D02*
X37825D01*
X37725Y5000D02*
Y5200D01*
X36600Y7500D02*
X36800D01*
X36700Y7400D02*
Y7600D01*
X33100Y9650D02*
X33300D01*
X33200Y9550D02*
Y9750D01*
X27850Y5225D02*
X28050D01*
X27950Y5125D02*
Y5325D01*
X27850Y2975D02*
X28050D01*
X27950Y2875D02*
Y3075D01*
X22825Y2950D02*
X23025D01*
X22925Y2850D02*
Y3050D01*
X32900Y2950D02*
X33100D01*
X33000Y2850D02*
Y3050D01*
X32950Y5350D02*
X33150D01*
X33050Y5250D02*
Y5450D01*
X23375Y5275D02*
X23575D01*
X23475Y5175D02*
Y5375D01*
X33175Y7525D02*
X33375D01*
X33275Y7425D02*
Y7625D01*
X18875Y3475D02*
X19075D01*
X18975Y3375D02*
Y3575D01*
X17525Y13925D02*
X17725D01*
X17625Y13825D02*
Y14025D01*
Y15725D02*
X17825D01*
X17725Y15625D02*
Y15825D01*
X16275Y19775D02*
X16475D01*
X16375Y19675D02*
Y19875D01*
X10300Y19575D02*
X10500D01*
X10400Y19475D02*
Y19675D01*
X67425Y31750D02*
X67625D01*
X67525Y31650D02*
Y31850D01*
X67625Y34250D02*
X67825D01*
X67725Y34150D02*
Y34350D01*
X67450Y36775D02*
X67650D01*
X67550Y36675D02*
Y36875D01*
X67600Y39300D02*
X67800D01*
X67700Y39200D02*
Y39400D01*
X61025Y40725D02*
X61225D01*
X61125Y40625D02*
Y40825D01*
X67625Y24100D02*
X67825D01*
X67725Y24000D02*
Y24200D01*
X67600Y21525D02*
X67800D01*
X67700Y21425D02*
Y21625D01*
X67475Y19050D02*
X67675D01*
X67575Y18950D02*
Y19150D01*
X67525Y16475D02*
X67725D01*
X67625Y16375D02*
Y16575D01*
X45650Y13050D02*
X45850D01*
X45750Y12950D02*
Y13150D01*
X49600Y12575D02*
X49800D01*
X49700Y12475D02*
Y12675D01*
X51200Y12550D02*
X51400D01*
X51300Y12450D02*
Y12650D01*
X53825Y12600D02*
X54025D01*
X53925Y12500D02*
Y12700D01*
X55450Y12625D02*
X55650D01*
X55550Y12525D02*
Y12725D01*
X56675Y14450D02*
X56875D01*
X56775Y14350D02*
Y14550D01*
X56975Y19600D02*
X57175D01*
X57075Y19500D02*
Y19700D01*
X57100Y22075D02*
X57300D01*
X57200Y21975D02*
Y22175D01*
X53375Y22675D02*
X53575D01*
X53475Y22575D02*
Y22775D01*
X53525Y27150D02*
X53725D01*
X53625Y27050D02*
Y27250D01*
X53375Y31100D02*
X53575D01*
X53475Y31000D02*
Y31200D01*
X54350Y17450D02*
X54550D01*
X54450Y17350D02*
Y17550D01*
X48950Y19175D02*
X49150D01*
X49050Y19075D02*
Y19275D01*
X58675Y24950D02*
X58875D01*
X58775Y24850D02*
Y25050D01*
X60925Y25200D02*
X61125D01*
X61025Y25100D02*
Y25300D01*
X60950Y28025D02*
X61150D01*
X61050Y27925D02*
Y28125D01*
X62975Y26750D02*
X63175D01*
X63075Y26650D02*
Y26850D01*
X62775Y24650D02*
X62975D01*
X62875Y24550D02*
Y24750D01*
X49775Y27775D02*
X49975D01*
X49875Y27675D02*
Y27875D01*
X49550Y31050D02*
X49750D01*
X49650Y30950D02*
Y31150D01*
X45000Y30050D02*
X45200D01*
X45100Y29950D02*
Y30150D01*
X29600Y22225D02*
X29800D01*
X29700Y22125D02*
Y22325D01*
X39325Y31525D02*
X39525D01*
X39425Y31425D02*
Y31625D01*
X40925Y31775D02*
X41125D01*
X41025Y31675D02*
Y31875D01*
X36950Y28400D02*
X37150D01*
X37050Y28300D02*
Y28500D01*
X25225Y30750D02*
X25425D01*
X25325Y30650D02*
Y30850D01*
X35125Y26500D02*
X35325D01*
X35225Y26400D02*
Y26600D01*
X32225Y25675D02*
X32425D01*
X32325Y25575D02*
Y25775D01*
X31675Y23700D02*
X31875D01*
X31775Y23600D02*
Y23800D01*
X30725Y20750D02*
X30925D01*
X30825Y20650D02*
Y20850D01*
X30475Y28275D02*
X30675D01*
X30575Y28175D02*
Y28375D01*
X30200Y25075D02*
X30400D01*
X30300Y24975D02*
Y25175D01*
X28725Y23475D02*
X28925D01*
X28825Y23375D02*
Y23575D01*
X28075Y25600D02*
X28275D01*
X28175Y25500D02*
Y25700D01*
X15850Y24700D02*
X16050D01*
X15950Y24600D02*
Y24800D01*
X54425Y44450D02*
X54625D01*
X54525Y44350D02*
Y44550D01*
X54550Y46625D02*
X54750D01*
X54650Y46525D02*
Y46725D01*
X54575Y42775D02*
X54775D01*
X54675Y42675D02*
Y42875D01*
X57450Y45050D02*
X57650D01*
X57550Y44950D02*
Y45150D01*
X57425Y47725D02*
X57625D01*
X57525Y47625D02*
Y47825D01*
X51725Y47200D02*
X51925D01*
X51825Y47100D02*
Y47300D01*
X49025Y42650D02*
X49225D01*
X49125Y42550D02*
Y42750D01*
X48100Y40425D02*
X48300D01*
X48200Y40325D02*
Y40525D01*
X45725Y43750D02*
X45925D01*
X45825Y43650D02*
Y43850D01*
X39875Y43800D02*
X40075D01*
X39975Y43700D02*
Y43900D01*
X45475Y46550D02*
X45675D01*
X45575Y46450D02*
Y46650D01*
X41325Y46700D02*
X41525D01*
X41425Y46600D02*
Y46800D01*
X38200Y46650D02*
X38400D01*
X38300Y46550D02*
Y46750D01*
X34925Y46825D02*
X35125D01*
X35025Y46725D02*
Y46925D01*
X30600Y40500D02*
X30800D01*
X30700Y40400D02*
Y40600D01*
X31450Y38500D02*
X31650D01*
X31550Y38400D02*
Y38600D01*
X28725Y35775D02*
X28925D01*
X28825Y35675D02*
Y35875D01*
X26925Y29050D02*
X27125D01*
X27025Y28950D02*
Y29150D01*
X24600Y36000D02*
X24800D01*
X24700Y35900D02*
Y36100D01*
X23925Y35000D02*
X24125D01*
X24025Y34900D02*
Y35100D01*
X26550Y34750D02*
X26750D01*
X26650Y34650D02*
Y34850D01*
X26225Y48400D02*
X26425D01*
X26325Y48300D02*
Y48500D01*
X22475Y48375D02*
X22675D01*
X22575Y48275D02*
Y48475D01*
X11150Y44550D02*
X11350D01*
X11250Y44450D02*
Y44650D01*
X8850Y44825D02*
X9050D01*
X8950Y44725D02*
Y44925D01*
X7375Y39500D02*
X7575D01*
X7475Y39400D02*
Y39600D01*
X66675Y60100D02*
X66875D01*
X66775Y60000D02*
Y60200D01*
X66700Y53200D02*
X66900D01*
X66800Y53100D02*
Y53300D01*
X66550Y66750D02*
X66750D01*
X66650Y66650D02*
Y66850D01*
X62525Y63925D02*
X62725D01*
X62625Y63825D02*
Y64025D01*
X62450Y59250D02*
X62650D01*
X62550Y59150D02*
Y59350D01*
X61725Y54950D02*
X61925D01*
X61825Y54850D02*
Y55050D01*
X63350Y53225D02*
X63550D01*
X63450Y53125D02*
Y53325D01*
X61050Y51800D02*
X61250D01*
X61150Y51700D02*
Y51900D01*
X63175Y56475D02*
X63375D01*
X63275Y56375D02*
Y56575D01*
X59625Y56700D02*
X59825D01*
X59725Y56600D02*
Y56800D01*
X53900Y54225D02*
X54100D01*
X54000Y54125D02*
Y54325D01*
X55375Y50825D02*
X55575D01*
X55475Y50725D02*
Y50925D01*
X55325Y56950D02*
X55525D01*
X55425Y56850D02*
Y57050D01*
X51800Y56850D02*
X52000D01*
X51900Y56750D02*
Y56950D01*
X51725Y50625D02*
X51925D01*
X51825Y50525D02*
Y50725D01*
X45600Y50375D02*
X45800D01*
X45700Y50275D02*
Y50475D01*
X41000Y50450D02*
X41200D01*
X41100Y50350D02*
Y50550D01*
X35525Y50575D02*
X35725D01*
X35625Y50475D02*
Y50675D01*
X43650Y56475D02*
X43850D01*
X43750Y56375D02*
Y56575D01*
X45825Y54900D02*
X46025D01*
X45925Y54800D02*
Y55000D01*
X44400Y52200D02*
X44600D01*
X44500Y52100D02*
Y52300D01*
X40450Y52525D02*
X40650D01*
X40550Y52425D02*
Y52625D01*
X41675Y63100D02*
X41875D01*
X41775Y63000D02*
Y63200D01*
X40700Y59950D02*
X40900D01*
X40800Y59850D02*
Y60050D01*
X43825Y62500D02*
X44025D01*
X43925Y62400D02*
Y62600D01*
X43850Y65500D02*
X44050D01*
X43950Y65400D02*
Y65600D01*
X41175Y65500D02*
X41375D01*
X41275Y65400D02*
Y65600D01*
X38675Y62875D02*
X38875D01*
X38775Y62775D02*
Y62975D01*
X38625Y59750D02*
X38825D01*
X38725Y59650D02*
Y59850D01*
X34200Y58200D02*
X34400D01*
X34300Y58100D02*
Y58300D01*
X31450Y53900D02*
X31650D01*
X31550Y53800D02*
Y54000D01*
X26250Y52950D02*
X26450D01*
X26350Y52850D02*
Y53050D01*
X23925Y58475D02*
X24125D01*
X24025Y58375D02*
Y58575D01*
X23875Y54900D02*
X24075D01*
X23975Y54800D02*
Y55000D01*
X20975Y53375D02*
X21175D01*
X21075Y53275D02*
Y53475D01*
X13750Y56125D02*
X13950D01*
X13850Y56025D02*
Y56225D01*
X19725Y55275D02*
X19925D01*
X19825Y55175D02*
Y55375D01*
X19475Y58550D02*
X19675D01*
X19575Y58450D02*
Y58650D01*
X20100Y61950D02*
X20300D01*
X20200Y61850D02*
Y62050D01*
X20750Y64250D02*
X20950D01*
X20850Y64150D02*
Y64350D01*
X67325Y72300D02*
X67525D01*
X67425Y72200D02*
Y72400D01*
X63050Y72425D02*
X63250D01*
X63150Y72325D02*
Y72525D01*
X64350Y77850D02*
X64550D01*
X64450Y77750D02*
Y77950D01*
X60925Y74950D02*
X61125D01*
X61025Y74850D02*
Y75050D01*
X56325Y77225D02*
X56525D01*
X56425Y77125D02*
Y77325D01*
X55600Y79025D02*
X55800D01*
X55700Y78925D02*
Y79125D01*
X50625Y80725D02*
X50825D01*
X50725Y80625D02*
Y80825D01*
X55000Y74350D02*
X55200D01*
X55100Y74250D02*
Y74450D01*
X52200Y77275D02*
X52400D01*
X52300Y77175D02*
Y77375D01*
X43450Y76450D02*
X43650D01*
X43550Y76350D02*
Y76550D01*
X43700Y80775D02*
X43900D01*
X43800Y80675D02*
Y80875D01*
X46050Y78725D02*
X46250D01*
X46150Y78625D02*
Y78825D01*
X46075Y75225D02*
X46275D01*
X46175Y75125D02*
Y75325D01*
X44100Y73300D02*
X44300D01*
X44200Y73200D02*
Y73400D01*
X44575Y71075D02*
X44775D01*
X44675Y70975D02*
Y71175D01*
X48125Y71225D02*
X48325D01*
X48225Y71125D02*
Y71325D01*
X40750Y79600D02*
X40950D01*
X40850Y79500D02*
Y79700D01*
X40575Y76375D02*
X40775D01*
X40675Y76275D02*
Y76475D01*
X40650Y73600D02*
X40850D01*
X40750Y73500D02*
Y73700D01*
X38400Y72000D02*
X38600D01*
X38500Y71900D02*
Y72100D01*
X29400Y80475D02*
X29600D01*
X29500Y80375D02*
Y80575D01*
X29925Y77975D02*
X30125D01*
X30025Y77875D02*
Y78075D01*
X23650Y78550D02*
X23850D01*
X23750Y78450D02*
Y78650D01*
X20600Y80375D02*
X20800D01*
X20700Y80275D02*
Y80475D01*
X20525Y78250D02*
X20725D01*
X20625Y78150D02*
Y78350D01*
X22350Y76025D02*
X22550D01*
X22450Y75925D02*
Y76125D01*
X9600Y77825D02*
X9800D01*
X9700Y77725D02*
Y77925D01*
X12450Y77450D02*
X12650D01*
X12550Y77350D02*
Y77550D01*
X17200Y78050D02*
X17400D01*
X17300Y77950D02*
Y78150D01*
X15300Y78025D02*
X15500D01*
X15400Y77925D02*
Y78125D01*
X15325Y77175D02*
X15525D01*
X15425Y77075D02*
Y77275D01*
X11850Y75725D02*
X12050D01*
X11950Y75625D02*
Y75825D01*
X16450Y72800D02*
X16650D01*
X16550Y72700D02*
Y72900D01*
X17950Y69900D02*
X18150D01*
X18050Y69800D02*
Y70000D01*
X14475Y69850D02*
X14675D01*
X14575Y69750D02*
Y69950D01*
X13150Y72975D02*
X13350D01*
X13250Y72875D02*
Y73075D01*
X19300Y75800D02*
X19500D01*
X19400Y75700D02*
Y75900D01*
X10300Y74850D02*
X10500D01*
X10400Y74750D02*
Y74950D01*
X9325Y80425D02*
X9525D01*
X9425Y80325D02*
Y80525D01*
X7525Y78600D02*
X7725D01*
X7625Y78500D02*
Y78700D01*
X7525Y75175D02*
X7725D01*
X7625Y75075D02*
Y75275D01*
X5200Y73200D02*
X5400D01*
X5300Y73100D02*
Y73300D01*
X8475Y73375D02*
X8675D01*
X8575Y73275D02*
Y73475D01*
X9000Y70900D02*
X9200D01*
X9100Y70800D02*
Y71000D01*
X6250Y70875D02*
X6450D01*
X6350Y70775D02*
Y70975D01*
X5475Y66450D02*
X5675D01*
X5575Y66350D02*
Y66550D01*
X7150Y58050D02*
X7350D01*
X7250Y57950D02*
Y58150D01*
X8950Y61100D02*
X9150D01*
X9050Y61000D02*
Y61200D01*
X8900Y47950D02*
X9100D01*
X9000Y47850D02*
Y48050D01*
X7775Y51150D02*
X7975D01*
X7875Y51050D02*
Y51250D01*
X6200Y54075D02*
X6400D01*
X6300Y53975D02*
Y54175D01*
X8575Y55725D02*
X8775D01*
X8675Y55625D02*
Y55825D01*
X13300Y52850D02*
X13500D01*
X13400Y52750D02*
Y52950D01*
X8550Y52875D02*
X8750D01*
X8650Y52775D02*
Y52975D01*
X3225Y52775D02*
X3425D01*
X3325Y52675D02*
Y52875D01*
X3925Y55575D02*
X4125D01*
X4025Y55475D02*
Y55675D01*
X11075Y58025D02*
X11275D01*
X11175Y57925D02*
Y58125D01*
X3025Y58200D02*
X3225D01*
X3125Y58100D02*
Y58300D01*
X2950Y61875D02*
X3150D01*
X3050Y61775D02*
Y61975D01*
X2800Y65600D02*
X3000D01*
X2900Y65500D02*
Y65700D01*
X2750Y69950D02*
X2950D01*
X2850Y69850D02*
Y70050D01*
X2750Y74050D02*
X2950D01*
X2850Y73950D02*
Y74150D01*
X63650Y65575D02*
X63850D01*
X63750Y65475D02*
Y65675D01*
X68600Y81300D02*
X68800D01*
X68700Y81200D02*
Y81400D01*
X1100Y3200D02*
X1300D01*
X1200Y3100D02*
Y3300D01*
X12750Y1640D02*
X12950D01*
X12850Y1540D02*
Y1740D01*
X46990Y1795D02*
X47190D01*
X47090Y1695D02*
Y1895D01*
X46085Y890D02*
X46285D01*
X46185Y790D02*
Y990D01*
X68650Y3100D02*
X68850D01*
X68750Y3000D02*
Y3200D01*
X69200Y80400D02*
X69400D01*
X69300Y80300D02*
Y80500D01*
X11625Y2800D02*
X11825D01*
X11725Y2700D02*
Y2900D01*
X9975Y2802D02*
X10175D01*
X10075Y2702D02*
Y2902D01*
X8475Y2802D02*
X8675D01*
X8575Y2702D02*
Y2902D01*
X3650Y2804D02*
X3850D01*
X3750Y2704D02*
Y2904D01*
X5150Y2804D02*
X5350D01*
X5250Y2704D02*
Y2904D01*
X6800Y2802D02*
X7000D01*
X6900Y2702D02*
Y2902D01*
X2125Y2802D02*
X2325D01*
X2225Y2702D02*
Y2902D01*
X13700Y700D02*
X13900D01*
X13800Y600D02*
Y800D01*
X15350Y698D02*
X15550D01*
X15450Y598D02*
Y798D01*
X16850Y698D02*
X17050D01*
X16950Y598D02*
Y798D01*
X21675Y696D02*
X21875D01*
X21775Y596D02*
Y796D01*
X20175Y696D02*
X20375D01*
X20275Y596D02*
Y796D01*
X18525Y698D02*
X18725D01*
X18625Y598D02*
Y798D01*
X26350Y696D02*
X26550D01*
X26450Y596D02*
Y796D01*
X24850Y696D02*
X25050D01*
X24950Y596D02*
Y796D01*
X23200Y698D02*
X23400D01*
X23300Y598D02*
Y798D01*
X31125Y696D02*
X31325D01*
X31225Y596D02*
Y796D01*
X29625Y696D02*
X29825D01*
X29725Y596D02*
Y796D01*
X27975Y698D02*
X28175D01*
X28075Y598D02*
Y798D01*
X35925Y696D02*
X36125D01*
X36025Y596D02*
Y796D01*
X34425Y696D02*
X34625D01*
X34525Y596D02*
Y796D01*
X32775Y698D02*
X32975D01*
X32875Y598D02*
Y798D01*
X40700Y696D02*
X40900D01*
X40800Y596D02*
Y796D01*
X39200Y696D02*
X39400D01*
X39300Y596D02*
Y796D01*
X37550Y698D02*
X37750D01*
X37650Y598D02*
Y798D01*
X42375Y698D02*
X42575D01*
X42475Y598D02*
Y798D01*
X47900Y2700D02*
X48100D01*
X48000Y2600D02*
Y2800D01*
X49550Y2698D02*
X49750D01*
X49650Y2598D02*
Y2798D01*
X51050Y2698D02*
X51250D01*
X51150Y2598D02*
Y2798D01*
X55875Y2696D02*
X56075D01*
X55975Y2596D02*
Y2796D01*
X54375Y2696D02*
X54575D01*
X54475Y2596D02*
Y2796D01*
X52725Y2698D02*
X52925D01*
X52825Y2598D02*
Y2798D01*
X60550Y2696D02*
X60750D01*
X60650Y2596D02*
Y2796D01*
X59050Y2696D02*
X59250D01*
X59150Y2596D02*
Y2796D01*
X57400Y2698D02*
X57600D01*
X57500Y2598D02*
Y2798D01*
X65325Y2696D02*
X65525D01*
X65425Y2596D02*
Y2796D01*
X63825Y2696D02*
X64025D01*
X63925Y2596D02*
Y2796D01*
X62175Y2698D02*
X62375D01*
X62275Y2598D02*
Y2798D01*
X66975Y2698D02*
X67175D01*
X67075Y2598D02*
Y2798D01*
X3550Y81800D02*
X3750D01*
X3650Y81700D02*
Y81900D01*
X5200Y81798D02*
X5400D01*
X5300Y81698D02*
Y81898D01*
X6700Y81798D02*
X6900D01*
X6800Y81698D02*
Y81898D01*
X11525Y81796D02*
X11725D01*
X11625Y81696D02*
Y81896D01*
X10025Y81796D02*
X10225D01*
X10125Y81696D02*
Y81896D01*
X8375Y81798D02*
X8575D01*
X8475Y81698D02*
Y81898D01*
X16200Y81796D02*
X16400D01*
X16300Y81696D02*
Y81896D01*
X14700Y81796D02*
X14900D01*
X14800Y81696D02*
Y81896D01*
X13050Y81798D02*
X13250D01*
X13150Y81698D02*
Y81898D01*
X20975Y81796D02*
X21175D01*
X21075Y81696D02*
Y81896D01*
X19475Y81796D02*
X19675D01*
X19575Y81696D02*
Y81896D01*
X17825Y81798D02*
X18025D01*
X17925Y81698D02*
Y81898D01*
X25775Y81796D02*
X25975D01*
X25875Y81696D02*
Y81896D01*
X24275Y81796D02*
X24475D01*
X24375Y81696D02*
Y81896D01*
X22625Y81798D02*
X22825D01*
X22725Y81698D02*
Y81898D01*
X30550Y81796D02*
X30750D01*
X30650Y81696D02*
Y81896D01*
X29050Y81796D02*
X29250D01*
X29150Y81696D02*
Y81896D01*
X27400Y81798D02*
X27600D01*
X27500Y81698D02*
Y81898D01*
X35375Y81796D02*
X35575D01*
X35475Y81696D02*
Y81896D01*
X33875Y81796D02*
X34075D01*
X33975Y81696D02*
Y81896D01*
X32225Y81798D02*
X32425D01*
X32325Y81698D02*
Y81898D01*
X40150Y81796D02*
X40350D01*
X40250Y81696D02*
Y81896D01*
X37000Y81798D02*
X37200D01*
X37100Y81698D02*
Y81898D01*
X44925Y81796D02*
X45125D01*
X45025Y81696D02*
Y81896D01*
X43425Y81796D02*
X43625D01*
X43525Y81696D02*
Y81896D01*
X41775Y81798D02*
X41975D01*
X41875Y81698D02*
Y81898D01*
X49700Y81796D02*
X49900D01*
X49800Y81696D02*
Y81896D01*
X48200Y81796D02*
X48400D01*
X48300Y81696D02*
Y81896D01*
X46550Y81798D02*
X46750D01*
X46650Y81698D02*
Y81898D01*
X54300Y81796D02*
X54500D01*
X54400Y81696D02*
Y81896D01*
X52800Y81796D02*
X53000D01*
X52900Y81696D02*
Y81896D01*
X51150Y81798D02*
X51350D01*
X51250Y81698D02*
Y81898D01*
X59125Y81796D02*
X59325D01*
X59225Y81696D02*
Y81896D01*
X57625Y81796D02*
X57825D01*
X57725Y81696D02*
Y81896D01*
X55975Y81798D02*
X56175D01*
X56075Y81698D02*
Y81898D01*
X63975Y81796D02*
X64175D01*
X64075Y81696D02*
Y81896D01*
X62475Y81796D02*
X62675D01*
X62575Y81696D02*
Y81896D01*
X60825Y81798D02*
X61025D01*
X60925Y81698D02*
Y81898D01*
X67250Y81796D02*
X67450D01*
X67350Y81696D02*
Y81896D01*
X65600Y81798D02*
X65800D01*
X65700Y81698D02*
Y81898D01*
X69200Y78900D02*
X69400D01*
X69300Y78800D02*
Y79000D01*
X69198Y77250D02*
X69398D01*
X69298Y77150D02*
Y77350D01*
X69198Y75750D02*
X69398D01*
X69298Y75650D02*
Y75850D01*
X69196Y70925D02*
X69396D01*
X69296Y70825D02*
Y71025D01*
X69196Y72425D02*
X69396D01*
X69296Y72325D02*
Y72525D01*
X69198Y74075D02*
X69398D01*
X69298Y73975D02*
Y74175D01*
X69196Y66250D02*
X69396D01*
X69296Y66150D02*
Y66350D01*
X69196Y67750D02*
X69396D01*
X69296Y67650D02*
Y67850D01*
X69198Y69400D02*
X69398D01*
X69298Y69300D02*
Y69500D01*
X69196Y61475D02*
X69396D01*
X69296Y61375D02*
Y61575D01*
X69196Y62975D02*
X69396D01*
X69296Y62875D02*
Y63075D01*
X69198Y64625D02*
X69398D01*
X69298Y64525D02*
Y64725D01*
X69196Y56675D02*
X69396D01*
X69296Y56575D02*
Y56775D01*
X69196Y58175D02*
X69396D01*
X69296Y58075D02*
Y58275D01*
X69198Y59825D02*
X69398D01*
X69298Y59725D02*
Y59925D01*
X69196Y51900D02*
X69396D01*
X69296Y51800D02*
Y52000D01*
X69196Y53400D02*
X69396D01*
X69296Y53300D02*
Y53500D01*
X69198Y55050D02*
X69398D01*
X69298Y54950D02*
Y55150D01*
X69196Y47075D02*
X69396D01*
X69296Y46975D02*
Y47175D01*
X69196Y48575D02*
X69396D01*
X69296Y48475D02*
Y48675D01*
X69198Y50225D02*
X69398D01*
X69298Y50125D02*
Y50325D01*
X69196Y42300D02*
X69396D01*
X69296Y42200D02*
Y42400D01*
X69196Y43800D02*
X69396D01*
X69296Y43700D02*
Y43900D01*
X69198Y45450D02*
X69398D01*
X69298Y45350D02*
Y45550D01*
X69196Y37525D02*
X69396D01*
X69296Y37425D02*
Y37625D01*
X69196Y39025D02*
X69396D01*
X69296Y38925D02*
Y39125D01*
X69198Y40675D02*
X69398D01*
X69298Y40575D02*
Y40775D01*
X69196Y32750D02*
X69396D01*
X69296Y32650D02*
Y32850D01*
X69196Y34250D02*
X69396D01*
X69296Y34150D02*
Y34350D01*
X69198Y35900D02*
X69398D01*
X69298Y35800D02*
Y36000D01*
X69196Y28150D02*
X69396D01*
X69296Y28050D02*
Y28250D01*
X69196Y29650D02*
X69396D01*
X69296Y29550D02*
Y29750D01*
X69198Y31300D02*
X69398D01*
X69298Y31200D02*
Y31400D01*
X69196Y23325D02*
X69396D01*
X69296Y23225D02*
Y23425D01*
X69196Y24825D02*
X69396D01*
X69296Y24725D02*
Y24925D01*
X69198Y26475D02*
X69398D01*
X69298Y26375D02*
Y26575D01*
X69196Y18475D02*
X69396D01*
X69296Y18375D02*
Y18575D01*
X69196Y19975D02*
X69396D01*
X69296Y19875D02*
Y20075D01*
X69198Y21625D02*
X69398D01*
X69298Y21525D02*
Y21725D01*
X69196Y13700D02*
X69396D01*
X69296Y13600D02*
Y13800D01*
X69196Y15200D02*
X69396D01*
X69296Y15100D02*
Y15300D01*
X69198Y16850D02*
X69398D01*
X69298Y16750D02*
Y16950D01*
X69196Y8925D02*
X69396D01*
X69296Y8825D02*
Y9025D01*
X69196Y10425D02*
X69396D01*
X69296Y10325D02*
Y10525D01*
X69198Y12075D02*
X69398D01*
X69298Y11975D02*
Y12175D01*
X69196Y4100D02*
X69396D01*
X69296Y4000D02*
Y4200D01*
X69196Y5600D02*
X69396D01*
X69296Y5500D02*
Y5700D01*
X69198Y7250D02*
X69398D01*
X69298Y7150D02*
Y7350D01*
X675Y7275D02*
X875D01*
X775Y7175D02*
Y7375D01*
X673Y5625D02*
X873D01*
X773Y5525D02*
Y5725D01*
X673Y4125D02*
X873D01*
X773Y4025D02*
Y4225D01*
X675Y12100D02*
X875D01*
X775Y12000D02*
Y12200D01*
X673Y10450D02*
X873D01*
X773Y10350D02*
Y10550D01*
X673Y8950D02*
X873D01*
X773Y8850D02*
Y9050D01*
X675Y16875D02*
X875D01*
X775Y16775D02*
Y16975D01*
X673Y15225D02*
X873D01*
X773Y15125D02*
Y15325D01*
X673Y13725D02*
X873D01*
X773Y13625D02*
Y13825D01*
X675Y21650D02*
X875D01*
X775Y21550D02*
Y21750D01*
X673Y20000D02*
X873D01*
X773Y19900D02*
Y20100D01*
X673Y18500D02*
X873D01*
X773Y18400D02*
Y18600D01*
X675Y26500D02*
X875D01*
X775Y26400D02*
Y26600D01*
X673Y24850D02*
X873D01*
X773Y24750D02*
Y24950D01*
X673Y23350D02*
X873D01*
X773Y23250D02*
Y23450D01*
X675Y31325D02*
X875D01*
X775Y31225D02*
Y31425D01*
X673Y29675D02*
X873D01*
X773Y29575D02*
Y29775D01*
X673Y28175D02*
X873D01*
X773Y28075D02*
Y28275D01*
X675Y35925D02*
X875D01*
X775Y35825D02*
Y36025D01*
X673Y34275D02*
X873D01*
X773Y34175D02*
Y34375D01*
X673Y32775D02*
X873D01*
X773Y32675D02*
Y32875D01*
X675Y40700D02*
X875D01*
X775Y40600D02*
Y40800D01*
X673Y39050D02*
X873D01*
X773Y38950D02*
Y39150D01*
X673Y37550D02*
X873D01*
X773Y37450D02*
Y37650D01*
X675Y45475D02*
X875D01*
X775Y45375D02*
Y45575D01*
X673Y43825D02*
X873D01*
X773Y43725D02*
Y43925D01*
X673Y42325D02*
X873D01*
X773Y42225D02*
Y42425D01*
X675Y50250D02*
X875D01*
X775Y50150D02*
Y50350D01*
X673Y48600D02*
X873D01*
X773Y48500D02*
Y48700D01*
X673Y47100D02*
X873D01*
X773Y47000D02*
Y47200D01*
X675Y55075D02*
X875D01*
X775Y54975D02*
Y55175D01*
X673Y53425D02*
X873D01*
X773Y53325D02*
Y53525D01*
X673Y51925D02*
X873D01*
X773Y51825D02*
Y52025D01*
X675Y59850D02*
X875D01*
X775Y59750D02*
Y59950D01*
X673Y58200D02*
X873D01*
X773Y58100D02*
Y58300D01*
X673Y56700D02*
X873D01*
X773Y56600D02*
Y56800D01*
X675Y64650D02*
X875D01*
X775Y64550D02*
Y64750D01*
X673Y63000D02*
X873D01*
X773Y62900D02*
Y63100D01*
X673Y61500D02*
X873D01*
X773Y61400D02*
Y61600D01*
X675Y69425D02*
X875D01*
X775Y69325D02*
Y69525D01*
X673Y67775D02*
X873D01*
X773Y67675D02*
Y67875D01*
X673Y66275D02*
X873D01*
X773Y66175D02*
Y66375D01*
X675Y74100D02*
X875D01*
X775Y74000D02*
Y74200D01*
X673Y72450D02*
X873D01*
X773Y72350D02*
Y72550D01*
X673Y70950D02*
X873D01*
X773Y70850D02*
Y71050D01*
X675Y75775D02*
X875D01*
X775Y75675D02*
Y75875D01*
X675Y77275D02*
X875D01*
X775Y77175D02*
Y77375D01*
X677Y78925D02*
X877D01*
X777Y78825D02*
Y79025D01*
X700Y80700D02*
X900D01*
X800Y80600D02*
Y80800D01*
X1175Y81450D02*
X1375D01*
X1275Y81350D02*
Y81550D01*
X2152Y81790D02*
X2352D01*
X2252Y81690D02*
Y81890D01*
X64625Y57700D02*
X64825D01*
X64725Y57600D02*
Y57800D01*
X64975Y74075D02*
X65175D01*
X65075Y73975D02*
Y74175D01*
X50100Y76050D02*
X50300D01*
X50200Y75950D02*
Y76150D01*
X60800Y72625D02*
X61000D01*
X60900Y72525D02*
Y72725D01*
X60325Y72625D02*
X60525D01*
X60425Y72525D02*
Y72725D01*
X50765Y76060D02*
X50965D01*
X50865Y75960D02*
Y76160D01*
X45625Y27550D02*
X45825D01*
X45725Y27450D02*
Y27650D01*
X41620Y26475D02*
X41820D01*
X41720Y26375D02*
Y26575D01*
X49725Y26375D02*
X49925D01*
X49825Y26275D02*
Y26475D01*
X49125Y26375D02*
X49325D01*
X49225Y26275D02*
Y26475D01*
X45150Y9500D02*
X45350D01*
X45250Y9400D02*
Y9600D01*
X44300Y9500D02*
X44500D01*
X44400Y9400D02*
Y9600D01*
X44300Y10500D02*
X44500D01*
X44400Y10400D02*
Y10600D01*
X45125Y10500D02*
X45325D01*
X45225Y10400D02*
Y10600D01*
X43425Y23000D02*
X43625D01*
X43525Y22900D02*
Y23100D01*
X42100Y23000D02*
X42300D01*
X42200Y22900D02*
Y23100D01*
X43450Y21775D02*
X43650D01*
X43550Y21675D02*
Y21875D01*
X45125Y11400D02*
X45325D01*
X45225Y11300D02*
Y11500D01*
X17496Y51775D02*
X17696D01*
X17596Y51675D02*
Y51875D01*
X17050Y51400D02*
X17250D01*
X17150Y51300D02*
Y51500D01*
X30950Y52325D02*
X31150D01*
X31050Y52225D02*
Y52425D01*
X31650Y52325D02*
X31850D01*
X31750Y52225D02*
Y52425D01*
X28975Y51050D02*
X29175D01*
X29075Y50950D02*
Y51150D01*
X5650Y68500D02*
X5850D01*
X5750Y68400D02*
Y68600D01*
X5050Y68500D02*
X5250D01*
X5150Y68400D02*
Y68600D01*
X37200Y62475D02*
X37400D01*
X37300Y62375D02*
Y62575D01*
X36275Y56875D02*
X36475D01*
X36375Y56775D02*
Y56975D01*
X40075Y57100D02*
X40275D01*
X40175Y57000D02*
Y57200D01*
X61275Y72625D02*
X61475D01*
X61375Y72525D02*
Y72725D01*
X60610Y80625D02*
X60810D01*
X60710Y80525D02*
Y80725D01*
X60610Y79450D02*
X60810D01*
X60710Y79350D02*
Y79550D01*
X56965Y79450D02*
X57165D01*
X57065Y79350D02*
Y79550D01*
X56965Y80625D02*
X57165D01*
X57065Y80525D02*
Y80725D01*
X35138Y58825D02*
X35338D01*
X35237Y58725D02*
Y58925D01*
X54875Y47775D02*
X55075D01*
X54975Y47675D02*
Y47875D01*
X54700Y40725D02*
X54900D01*
X54800Y40625D02*
Y40825D01*
X53325Y40725D02*
X53525D01*
X53425Y40625D02*
Y40825D01*
X19025Y33700D02*
X19225D01*
X19125Y33600D02*
Y33800D01*
X18200Y33700D02*
X18400D01*
X18300Y33600D02*
Y33800D01*
X53950Y40725D02*
X54150D01*
X54050Y40625D02*
Y40825D01*
X17450Y33700D02*
X17650D01*
X17550Y33600D02*
Y33800D01*
X16150Y26300D02*
X16350D01*
X16250Y26200D02*
Y26400D01*
X16150Y28175D02*
X16350D01*
X16250Y28075D02*
Y28275D01*
X16150Y27250D02*
X16350D01*
X16250Y27150D02*
Y27350D01*
X55675Y47775D02*
X55875D01*
X55775Y47675D02*
Y47875D01*
X56325Y47775D02*
X56525D01*
X56425Y47675D02*
Y47875D01*
X51475Y21700D02*
X51675D01*
X51575Y21600D02*
Y21800D01*
X51475Y21250D02*
X51675D01*
X51575Y21150D02*
Y21350D01*
X39925Y66700D02*
X40125D01*
X40025Y66600D02*
Y66800D01*
X49715Y63675D02*
X49915D01*
X49815Y63575D02*
Y63775D01*
X50770Y63075D02*
X50970D01*
X50870Y62975D02*
Y63175D01*
X35875Y58825D02*
X36075D01*
X35975Y58725D02*
Y58925D01*
X14205Y39635D02*
X14405D01*
X14305Y39535D02*
Y39735D01*
X14185Y41595D02*
X14385D01*
X14285Y41495D02*
Y41695D01*
X25625Y38800D02*
X25825D01*
X25725Y38700D02*
Y38900D01*
X23675Y38775D02*
X23875D01*
X23775Y38675D02*
Y38875D01*
X24825Y39625D02*
X25025D01*
X24925Y39525D02*
Y39725D01*
X24475Y38025D02*
X24675D01*
X24575Y37925D02*
Y38125D01*
X26850Y38850D02*
X27050D01*
X26950Y38750D02*
Y38950D01*
X26700Y38000D02*
X26900D01*
X26800Y37900D02*
Y38100D01*
X26575Y39625D02*
X26775D01*
X26675Y39525D02*
Y39725D01*
X23150Y39625D02*
X23350D01*
X23250Y39525D02*
Y39725D01*
X22125Y38100D02*
X22325D01*
X22225Y38000D02*
Y38200D01*
X22250Y39000D02*
X22450D01*
X22350Y38900D02*
Y39100D01*
X18150Y40025D02*
X18350D01*
X18250Y39925D02*
Y40125D01*
X17050Y39300D02*
X17250D01*
X17150Y39200D02*
Y39400D01*
X18325Y38075D02*
X18525D01*
X18425Y37975D02*
Y38175D01*
X17075Y38250D02*
X17275D01*
X17175Y38150D02*
Y38350D01*
X17025Y40550D02*
X17225D01*
X17125Y40450D02*
Y40650D01*
X17025Y41750D02*
X17225D01*
X17125Y41650D02*
Y41850D01*
X16975Y47350D02*
X17175D01*
X17075Y47250D02*
Y47450D01*
X16175Y45050D02*
X16375D01*
X16275Y44950D02*
Y45150D01*
X18200Y47225D02*
X18400D01*
X18300Y47125D02*
Y47325D01*
X25475Y41225D02*
X25675D01*
X25575Y41125D02*
Y41325D01*
X22750Y44850D02*
X22950D01*
X22850Y44750D02*
Y44950D01*
X22775Y42025D02*
X22975D01*
X22875Y41925D02*
Y42125D01*
X24350D02*
X24550D01*
X24450Y42025D02*
Y42225D01*
X24375Y44575D02*
X24575D01*
X24475Y44475D02*
Y44675D01*
X22725Y46075D02*
X22925D01*
X22825Y45975D02*
Y46175D01*
X25400Y46050D02*
X25600D01*
X25500Y45950D02*
Y46150D01*
X24175Y40375D02*
X24375D01*
X24275Y40275D02*
Y40475D01*
X23975Y47125D02*
X24175D01*
X24075Y47025D02*
Y47225D01*
X21475Y47075D02*
X21675D01*
X21575Y46975D02*
Y47175D01*
X26575Y47100D02*
X26775D01*
X26675Y47000D02*
Y47200D01*
X26450Y40425D02*
X26650D01*
X26550Y40325D02*
Y40525D01*
X21425Y41375D02*
X21625D01*
X21525Y41275D02*
Y41475D01*
X21750Y40400D02*
X21950D01*
X21850Y40300D02*
Y40500D01*
X21000Y42525D02*
X21200D01*
X21100Y42425D02*
Y42625D01*
X21000Y44700D02*
X21200D01*
X21100Y44600D02*
Y44800D01*
X17901Y49027D02*
X18101D01*
X18001Y48927D02*
Y49127D01*
X34700Y48375D02*
X34900D01*
X34800Y48275D02*
Y48475D01*
X56150Y17750D02*
X56350D01*
X56250Y17650D02*
Y17850D01*
X56150Y6025D02*
X56350D01*
X56250Y5925D02*
Y6125D01*
X22325Y6025D02*
X22525D01*
X22425Y5925D02*
Y6125D01*
X24350Y23425D02*
X24550D01*
X24450Y23325D02*
Y23525D01*
X56675Y12650D02*
X56875D01*
X56775Y12550D02*
Y12750D01*
X56675Y6450D02*
X56875D01*
X56775Y6350D02*
Y6550D01*
X23175Y6450D02*
X23375D01*
X23275Y6350D02*
Y6550D01*
X22750Y6875D02*
X22950D01*
X22850Y6775D02*
Y6975D01*
X24800Y22925D02*
X25000D01*
X24900Y22825D02*
Y23025D01*
X27700Y24350D02*
X27900D01*
X27800Y24250D02*
Y24450D01*
X57200Y15200D02*
X57400D01*
X57300Y15100D02*
Y15300D01*
X57250Y6875D02*
X57450D01*
X57350Y6775D02*
Y6975D01*
X24060Y24340D02*
X24260D01*
X24160Y24240D02*
Y24440D01*
X54150Y31475D02*
X54350D01*
X54250Y31375D02*
Y31575D01*
X32300Y7300D02*
X32500D01*
X32400Y7200D02*
Y7400D01*
X31700Y7700D02*
X31900D01*
X31800Y7600D02*
Y7800D01*
X27500Y54425D02*
X27700D01*
X27600Y54325D02*
Y54525D01*
X26800Y54450D02*
X27000D01*
X26900Y54350D02*
Y54550D01*
X27900Y20850D02*
X28100D01*
X28000Y20750D02*
Y20950D01*
X23675Y18975D02*
X23875D01*
X23775Y18875D02*
Y19075D01*
X23650Y18075D02*
X23850D01*
X23750Y17975D02*
Y18175D01*
X14025Y21500D02*
X14225D01*
X14125Y21400D02*
Y21600D01*
X15375Y16700D02*
X15575D01*
X15475Y16600D02*
Y16800D01*
X41725Y7925D02*
X41925D01*
X41825Y7825D02*
Y8025D01*
X36375Y8875D02*
X36575D01*
X36475Y8775D02*
Y8975D01*
X41300Y8450D02*
X41500D01*
X41400Y8350D02*
Y8550D01*
X16200Y8125D02*
X16400D01*
X16300Y8025D02*
Y8225D01*
X14551Y7650D02*
X14751D01*
X14651Y7550D02*
Y7750D01*
X14050Y8075D02*
X14250D01*
X14150Y7975D02*
Y8175D01*
X13750Y24050D02*
X13950D01*
X13850Y23950D02*
Y24150D01*
X15000Y8750D02*
X15200D01*
X15100Y8650D02*
Y8850D01*
X14975Y9400D02*
X15175D01*
X15075Y9300D02*
Y9500D01*
X14240Y17740D02*
X14440D01*
X14340Y17640D02*
Y17840D01*
X13775Y18950D02*
X13975D01*
X13875Y18850D02*
Y19050D01*
X14950Y10000D02*
X15150D01*
X15050Y9900D02*
Y10100D01*
X13750Y16400D02*
X13950D01*
X13850Y16300D02*
Y16500D01*
X16525Y48950D02*
X16725D01*
X16625Y48850D02*
Y49050D01*
X14475Y10475D02*
X14675D01*
X14575Y10375D02*
Y10575D01*
X18075Y28775D02*
X18275D01*
X18175Y28675D02*
Y28875D01*
X14000Y12660D02*
X14200D01*
X14100Y12560D02*
Y12760D01*
X13525Y13850D02*
X13725D01*
X13625Y13750D02*
Y13950D01*
X12950Y15175D02*
X13150D01*
X13050Y15075D02*
Y15275D01*
X11825Y20600D02*
X12025D01*
X11925Y20500D02*
Y20700D01*
X12475Y11375D02*
X12675D01*
X12575Y11275D02*
Y11475D01*
X12475Y11975D02*
X12675D01*
X12575Y11875D02*
Y12075D01*
X30100Y19475D02*
X30300D01*
X30200Y19375D02*
Y19575D01*
X31050Y9850D02*
X31250D01*
X31150Y9750D02*
Y9950D01*
X31252Y10501D02*
X31452D01*
X31352Y10401D02*
Y10601D01*
X31175Y11825D02*
X31375D01*
X31275Y11725D02*
Y11925D01*
X31700Y11525D02*
X31900D01*
X31800Y11425D02*
Y11625D01*
X32300Y11275D02*
X32500D01*
X32400Y11175D02*
Y11375D01*
X51975Y5050D02*
X52175D01*
X52075Y4950D02*
Y5150D01*
X52003Y14926D02*
X52203D01*
X52103Y14826D02*
Y15026D01*
X52500Y7575D02*
X52700D01*
X52600Y7475D02*
Y7675D01*
X52500Y15350D02*
X52700D01*
X52600Y15250D02*
Y15450D01*
X32735Y22140D02*
X32935D01*
X32835Y22040D02*
Y22240D01*
X40075Y18375D02*
X40275D01*
X40175Y18275D02*
Y18475D01*
X12500Y21925D02*
X12700D01*
X12600Y21825D02*
Y22025D01*
X29450Y14975D02*
X29650D01*
X29550Y14875D02*
Y15075D01*
X29550Y11075D02*
X29750D01*
X29650Y10975D02*
Y11175D01*
X28345Y11075D02*
X28545D01*
X28445Y10975D02*
Y11175D01*
X27545Y11100D02*
X27745D01*
X27645Y11000D02*
Y11200D01*
X26025Y11100D02*
X26225D01*
X26125Y11000D02*
Y11200D01*
X25775Y11850D02*
X25975D01*
X25875Y11750D02*
Y11950D01*
X25775Y12925D02*
X25975D01*
X25875Y12825D02*
Y13025D01*
X25775Y14025D02*
X25975D01*
X25875Y13925D02*
Y14125D01*
X26700Y14900D02*
X26900D01*
X26800Y14800D02*
Y15000D01*
X27325Y15625D02*
X27525D01*
X27425Y15525D02*
Y15725D01*
X29450Y16050D02*
X29650D01*
X29550Y15950D02*
Y16150D01*
X28075Y15750D02*
X28275D01*
X28175Y15650D02*
Y15850D01*
X28825Y15750D02*
X29025D01*
X28925Y15650D02*
Y15850D01*
X26950Y19375D02*
X27150D01*
X27050Y19275D02*
Y19475D01*
X30950Y19725D02*
X31150D01*
X31050Y19625D02*
Y19825D01*
X23475Y15700D02*
X23675D01*
X23575Y15600D02*
Y15800D01*
X25000Y14975D02*
X25200D01*
X25100Y14875D02*
Y15075D01*
X35475Y16000D02*
X35675D01*
X35575Y15900D02*
Y16100D01*
X35800Y15125D02*
X36000D01*
X35900Y15025D02*
Y15225D01*
X35800Y12775D02*
X36000D01*
X35900Y12675D02*
Y12875D01*
X35550Y11150D02*
X35750D01*
X35650Y11050D02*
Y11250D01*
X33375Y15800D02*
X33575D01*
X33475Y15700D02*
Y15900D01*
X32825Y15300D02*
X33025D01*
X32925Y15200D02*
Y15400D01*
X32150Y14650D02*
X32350D01*
X32250Y14550D02*
Y14750D01*
X33380Y11785D02*
X33580D01*
X33480Y11685D02*
Y11885D01*
X32155Y13360D02*
X32355D01*
X32255Y13260D02*
Y13460D01*
X32800Y12725D02*
X33000D01*
X32900Y12625D02*
Y12825D01*
X34025Y11150D02*
X34225D01*
X34125Y11050D02*
Y11250D01*
X34700Y16025D02*
X34900D01*
X34800Y15925D02*
Y16125D01*
X34075Y16025D02*
X34275D01*
X34175Y15925D02*
Y16125D01*
X34500Y19500D02*
X34700D01*
X34600Y19400D02*
Y19600D01*
X32725Y22850D02*
X32925D01*
X32825Y22750D02*
Y22950D01*
X37000Y23350D02*
X37200D01*
X37100Y23250D02*
Y23450D01*
X50575Y15800D02*
X50775D01*
X50675Y15700D02*
Y15900D01*
X51050Y16300D02*
X51250D01*
X51150Y16200D02*
Y16400D01*
X52150Y16775D02*
X52350D01*
X52250Y16675D02*
Y16875D01*
X53175Y17200D02*
X53375D01*
X53275Y17100D02*
Y17300D01*
X52575Y17650D02*
X52775D01*
X52675Y17550D02*
Y17750D01*
X40185Y23840D02*
X40385D01*
X40285Y23740D02*
Y23940D01*
X35115Y19790D02*
X35315D01*
X35215Y19690D02*
Y19890D01*
X39625Y14350D02*
X39825D01*
X39725Y14250D02*
Y14450D01*
X39000Y15475D02*
X39200D01*
X39100Y15375D02*
Y15575D01*
X37520Y13445D02*
X37720D01*
X37620Y13345D02*
Y13545D01*
X35875Y19550D02*
X36075D01*
X35975Y19450D02*
Y19650D01*
X40025Y20300D02*
X40225D01*
X40125Y20200D02*
Y20400D01*
X40450Y20850D02*
X40650D01*
X40550Y20750D02*
Y20950D01*
X51050Y39575D02*
X51250D01*
X51150Y39475D02*
Y39675D01*
X51475Y36125D02*
X51675D01*
X51575Y36025D02*
Y36225D01*
X23250Y60200D02*
X23450D01*
X23350Y60100D02*
Y60300D01*
X24600Y60200D02*
X24800D01*
X24700Y60100D02*
Y60300D01*
X23250Y62900D02*
X23450D01*
X23350Y62800D02*
Y63000D01*
X24600Y62900D02*
X24800D01*
X24700Y62800D02*
Y63000D01*
X25725Y60800D02*
X25925D01*
X25825Y60700D02*
Y60900D01*
X26325Y61875D02*
X26525D01*
X26425Y61775D02*
Y61975D01*
X52150Y33675D02*
X52350D01*
X52250Y33575D02*
Y33775D01*
X49800Y52225D02*
X50000D01*
X49900Y52125D02*
Y52325D01*
X48875Y53075D02*
X49075D01*
X48975Y52975D02*
Y53175D01*
Y54350D02*
X49175D01*
X49075Y54250D02*
Y54450D01*
X50465Y55540D02*
X50665D01*
X50565Y55440D02*
Y55640D01*
X40000Y55575D02*
X40200D01*
X40100Y55475D02*
Y55675D01*
X38400Y54250D02*
X38600D01*
X38500Y54150D02*
Y54350D01*
X34720Y51405D02*
X34920D01*
X34820Y51305D02*
Y51505D01*
X33150Y52150D02*
X33350D01*
X33250Y52050D02*
Y52250D01*
X36250Y51100D02*
X36450D01*
X36350Y51000D02*
Y51200D01*
X35325Y56325D02*
X35525D01*
X35425Y56225D02*
Y56425D01*
X34705Y54430D02*
X34905D01*
X34805Y54330D02*
Y54530D01*
X40075Y65275D02*
X40275D01*
X40175Y65175D02*
Y65375D01*
X39300Y67325D02*
X39500D01*
X39400Y67225D02*
Y67425D01*
X38250Y67325D02*
X38450D01*
X38350Y67225D02*
Y67425D01*
X42800Y69650D02*
X43000D01*
X42900Y69550D02*
Y69750D01*
X36125Y66325D02*
X36325D01*
X36225Y66225D02*
Y66425D01*
X36125Y67575D02*
X36325D01*
X36225Y67475D02*
Y67675D01*
X36125Y68825D02*
X36325D01*
X36225Y68725D02*
Y68925D01*
X22000Y68825D02*
X22200D01*
X22100Y68725D02*
Y68925D01*
X22000Y70075D02*
X22200D01*
X22100Y69975D02*
Y70175D01*
X19980Y70305D02*
X20180D01*
X20080Y70205D02*
Y70405D01*
X37200Y66925D02*
X37400D01*
X37300Y66825D02*
Y67025D01*
X37200Y68175D02*
X37400D01*
X37300Y68075D02*
Y68275D01*
X37200Y69425D02*
X37400D01*
X37300Y69325D02*
Y69525D01*
X32425Y79550D02*
X32625D01*
X32525Y79450D02*
Y79650D01*
X37400Y79550D02*
X37600D01*
X37500Y79450D02*
Y79650D01*
X33175Y79275D02*
X33375D01*
X33275Y79175D02*
Y79375D01*
X33975Y79650D02*
X34175D01*
X34075Y79550D02*
Y79750D01*
X36475Y79650D02*
X36675D01*
X36575Y79550D02*
Y79750D01*
X34925Y79775D02*
X35125D01*
X35025Y79675D02*
Y79875D01*
X33175Y77425D02*
X33375D01*
X33275Y77325D02*
Y77525D01*
X34125Y76950D02*
X34325D01*
X34225Y76850D02*
Y77050D01*
X34125Y76100D02*
X34325D01*
X34225Y76000D02*
Y76200D01*
X34125Y75325D02*
X34325D01*
X34225Y75225D02*
Y75425D01*
X34125Y74550D02*
X34325D01*
X34225Y74450D02*
Y74650D01*
X34125Y73825D02*
X34325D01*
X34225Y73725D02*
Y73925D01*
X33375Y73500D02*
X33575D01*
X33475Y73400D02*
Y73600D01*
X36550Y76325D02*
X36750D01*
X36650Y76225D02*
Y76425D01*
X36550Y75000D02*
X36750D01*
X36650Y74900D02*
Y75100D01*
X36000Y72325D02*
X36200D01*
X36100Y72225D02*
Y72425D01*
X36250Y73650D02*
X36450D01*
X36350Y73550D02*
Y73750D01*
X36250Y72975D02*
X36450D01*
X36350Y72875D02*
Y73075D01*
X35550Y71875D02*
X35750D01*
X35650Y71775D02*
Y71975D01*
X36225Y77000D02*
X36425D01*
X36325Y76900D02*
Y77100D01*
X19050Y72675D02*
X19250D01*
X19150Y72575D02*
Y72775D01*
X36550Y75675D02*
X36750D01*
X36650Y75575D02*
Y75775D01*
X36550Y74300D02*
X36750D01*
X36650Y74200D02*
Y74400D01*
X31950Y74925D02*
X32150D01*
X32050Y74825D02*
Y75025D01*
X32550Y76000D02*
X32750D01*
X32650Y75900D02*
Y76100D01*
X4475Y74050D02*
X4675D01*
X4575Y73950D02*
Y74150D01*
X20525Y74075D02*
X20725D01*
X20625Y73975D02*
Y74175D01*
X20525Y77125D02*
X20725D01*
X20625Y77025D02*
Y77225D01*
X31525Y77025D02*
X31725D01*
X31625Y76925D02*
Y77125D01*
X31525Y73575D02*
X31725D01*
X31625Y73475D02*
Y73675D01*
X21125Y76700D02*
X21325D01*
X21225Y76600D02*
Y76800D01*
X30975Y76575D02*
X31175D01*
X31075Y76475D02*
Y76675D01*
X29775Y76000D02*
X29975D01*
X29875Y75900D02*
Y76100D01*
X28800Y76000D02*
X29000D01*
X28900Y75900D02*
Y76100D01*
X27550Y76000D02*
X27750D01*
X27650Y75900D02*
Y76100D01*
X28200Y74925D02*
X28400D01*
X28300Y74825D02*
Y75025D01*
X21550Y77825D02*
X21750D01*
X21650Y77725D02*
Y77925D01*
X26950Y74925D02*
X27150D01*
X27050Y74825D02*
Y75025D01*
X31375Y69050D02*
X31575D01*
X31475Y68950D02*
Y69150D01*
X31375Y68400D02*
X31575D01*
X31475Y68300D02*
Y68500D01*
X27825Y69050D02*
X28025D01*
X27925Y68950D02*
Y69150D01*
X27825Y68400D02*
X28025D01*
X27925Y68300D02*
Y68500D01*
X27825Y67750D02*
X28025D01*
X27925Y67650D02*
Y67850D01*
X27825Y67100D02*
X28025D01*
X27925Y67000D02*
Y67200D01*
X30900Y66625D02*
X31100D01*
X31000Y66525D02*
Y66725D01*
X31375Y67100D02*
X31575D01*
X31475Y67000D02*
Y67200D01*
X31375Y67750D02*
X31575D01*
X31475Y67650D02*
Y67850D01*
X30250Y66625D02*
X30450D01*
X30350Y66525D02*
Y66725D01*
X29600Y66625D02*
X29800D01*
X29700Y66525D02*
Y66725D01*
X28950Y66625D02*
X29150D01*
X29050Y66525D02*
Y66725D01*
X28300Y66625D02*
X28500D01*
X28400Y66525D02*
Y66725D01*
X26000Y57100D02*
X26200D01*
X26100Y57000D02*
Y57200D01*
X27475Y66450D02*
X27675D01*
X27575Y66350D02*
Y66550D01*
X29600Y70525D02*
X29800D01*
X29700Y70425D02*
Y70625D01*
X28950Y70525D02*
X29150D01*
X29050Y70425D02*
Y70625D01*
X28300Y70525D02*
X28500D01*
X28400Y70425D02*
Y70625D01*
X25975Y73850D02*
X26175D01*
X26075Y73750D02*
Y73950D01*
X14575Y49625D02*
X14775D01*
X14675Y49525D02*
Y49725D01*
X17750Y64700D02*
X17950D01*
X17850Y64600D02*
Y64800D01*
X18450Y67875D02*
X18650D01*
X18550Y67775D02*
Y67975D01*
X15325Y71175D02*
X15525D01*
X15425Y71075D02*
Y71275D01*
X16225Y65925D02*
X16425D01*
X16325Y65825D02*
Y66025D01*
X16225Y68525D02*
X16425D01*
X16325Y68425D02*
Y68625D01*
X16225Y67250D02*
X16425D01*
X16325Y67150D02*
Y67350D01*
X17300Y65425D02*
X17500D01*
X17400Y65325D02*
Y65525D01*
X16250Y67875D02*
X16450D01*
X16350Y67775D02*
Y67975D01*
X17295Y66580D02*
X17495D01*
X17395Y66480D02*
Y66680D01*
X15123Y62798D02*
X15323D01*
X15222Y62697D02*
Y62897D01*
X6250Y68495D02*
X6450D01*
X6350Y68395D02*
Y68595D01*
X6250Y67225D02*
X6450D01*
X6350Y67125D02*
Y67325D01*
X5100Y65150D02*
X5300D01*
X5200Y65050D02*
Y65250D01*
X5125Y64250D02*
X5325D01*
X5225Y64150D02*
Y64350D01*
X12325Y61250D02*
X12525D01*
X12425Y61150D02*
Y61350D01*
X14050Y74650D02*
X14250D01*
X14150Y74550D02*
Y74750D01*
X24600Y74475D02*
X24800D01*
X24700Y74375D02*
Y74575D01*
X37200Y64450D02*
X37400D01*
X37300Y64350D02*
Y64550D01*
X37200Y63400D02*
X37400D01*
X37300Y63300D02*
Y63500D01*
X23075Y69475D02*
X23275D01*
X23175Y69375D02*
Y69575D01*
X23075Y68225D02*
X23275D01*
X23175Y68125D02*
Y68325D01*
X19000Y69240D02*
X19200D01*
X19100Y69140D02*
Y69340D01*
X19525Y67875D02*
X19725D01*
X19625Y67775D02*
Y67975D01*
X20450Y67750D02*
X20650D01*
X20550Y67650D02*
Y67850D01*
X23075Y66625D02*
X23275D01*
X23175Y66525D02*
Y66725D01*
X22000Y67225D02*
X22200D01*
X22100Y67125D02*
Y67325D01*
X22000Y65900D02*
X22200D01*
X22100Y65800D02*
Y66000D01*
X23075Y64325D02*
X23275D01*
X23175Y64225D02*
Y64425D01*
X22000Y64925D02*
X22200D01*
X22100Y64825D02*
Y65025D01*
X22000Y63600D02*
X22200D01*
X22100Y63500D02*
Y63700D01*
X35925Y61875D02*
X36125D01*
X36025Y61775D02*
Y61975D01*
X34675Y61875D02*
X34875D01*
X34775Y61775D02*
Y61975D01*
X32525Y63300D02*
X32725D01*
X32625Y63200D02*
Y63400D01*
X35325Y60800D02*
X35525D01*
X35425Y60700D02*
Y60900D01*
X34075Y60800D02*
X34275D01*
X34175Y60700D02*
Y60900D01*
X33100Y60800D02*
X33300D01*
X33200Y60700D02*
Y60900D01*
X32375Y61875D02*
X32575D01*
X32475Y61775D02*
Y61975D01*
X31775Y60800D02*
X31975D01*
X31875Y60700D02*
Y60900D01*
X31100Y63300D02*
X31300D01*
X31200Y63200D02*
Y63400D01*
X31125Y61875D02*
X31325D01*
X31225Y61775D02*
Y61975D01*
X29650Y63075D02*
X29850D01*
X29750Y62975D02*
Y63175D01*
X29775Y61425D02*
X29975D01*
X29875Y61325D02*
Y61525D01*
X32175Y59450D02*
X32375D01*
X32275Y59350D02*
Y59550D01*
X31225Y60200D02*
X31425D01*
X31325Y60100D02*
Y60300D01*
X33650Y57300D02*
X33850D01*
X33750Y57200D02*
Y57400D01*
X27775Y60075D02*
X27975D01*
X27875Y59975D02*
Y60175D01*
X27150Y59450D02*
X27350D01*
X27250Y59350D02*
Y59550D01*
X32650Y60200D02*
X32850D01*
X32750Y60100D02*
Y60300D01*
X27975Y63075D02*
X28175D01*
X28075Y62975D02*
Y63175D01*
X28180Y61830D02*
X28380D01*
X28280Y61730D02*
Y61930D01*
X27575Y61875D02*
X27775D01*
X27675Y61775D02*
Y61975D01*
X26975Y60800D02*
X27175D01*
X27075Y60700D02*
Y60900D01*
X32675Y58875D02*
X32875D01*
X32775Y58775D02*
Y58975D01*
X27151Y57503D02*
X27351D01*
X27251Y57403D02*
Y57603D01*
X27775Y57925D02*
X27975D01*
X27875Y57825D02*
Y58025D01*
X28400Y57500D02*
X28600D01*
X28500Y57400D02*
Y57600D01*
X30075Y57500D02*
X30275D01*
X30175Y57400D02*
Y57600D01*
X31750Y57500D02*
X31950D01*
X31850Y57400D02*
Y57600D01*
X32670Y57845D02*
X32870D01*
X32770Y57745D02*
Y57945D01*
X45575Y71725D02*
X45775D01*
X45675Y71625D02*
Y71825D01*
X49375Y76045D02*
X49575D01*
X49475Y75945D02*
Y76145D01*
X47975Y76050D02*
X48175D01*
X48075Y75950D02*
Y76150D01*
X48433Y78158D02*
X48633D01*
X48533Y78058D02*
Y78258D01*
X51425Y71025D02*
X51625D01*
X51525Y70925D02*
Y71125D01*
X50545Y73125D02*
X50745D01*
X50645Y73025D02*
Y73225D01*
X48900Y69850D02*
X49100D01*
X49000Y69750D02*
Y69950D01*
X56960Y80040D02*
X57160D01*
X57060Y79940D02*
Y80140D01*
X60615Y80040D02*
X60815D01*
X60715Y79940D02*
Y80140D01*
X64100Y70850D02*
X64300D01*
X64200Y70750D02*
Y70950D01*
X46600Y67050D02*
X46800D01*
X46700Y66950D02*
Y67150D01*
X46020Y59505D02*
X46220D01*
X46120Y59405D02*
Y59605D01*
X47930Y58230D02*
X48130D01*
X48030Y58130D02*
Y58330D01*
X51825Y65675D02*
X52025D01*
X51925Y65575D02*
Y65775D01*
X51825Y63675D02*
X52025D01*
X51925Y63575D02*
Y63775D01*
X49715Y61675D02*
X49915D01*
X49815Y61575D02*
Y61775D01*
X51825Y61675D02*
X52025D01*
X51925Y61575D02*
Y61775D01*
X49715Y65675D02*
X49915D01*
X49815Y65575D02*
Y65775D01*
X50770Y65075D02*
X50970D01*
X50870Y64975D02*
Y65175D01*
X50770Y66275D02*
X50970D01*
X50870Y66175D02*
Y66375D01*
X50770Y64275D02*
X50970D01*
X50870Y64175D02*
Y64375D01*
X50770Y61075D02*
X50970D01*
X50870Y60975D02*
Y61175D01*
X50770Y62275D02*
X50970D01*
X50870Y62175D02*
Y62375D01*
X27200Y32800D02*
X27400D01*
X27300Y32700D02*
Y32900D01*
X26300Y32775D02*
X26500D01*
X26400Y32675D02*
Y32875D01*
X29125Y28675D02*
X29325D01*
X29225Y28575D02*
Y28775D01*
X30610Y31300D02*
X30810D01*
X30710Y31200D02*
Y31400D01*
X31610Y31300D02*
X31810D01*
X31710Y31200D02*
Y31400D01*
X32610Y31300D02*
X32810D01*
X32710Y31200D02*
Y31400D01*
X33610Y31300D02*
X33810D01*
X33710Y31200D02*
Y31400D01*
X31110Y31790D02*
X31310D01*
X31210Y31690D02*
Y31890D01*
X32110Y31790D02*
X32310D01*
X32210Y31690D02*
Y31890D01*
X33110Y31790D02*
X33310D01*
X33210Y31690D02*
Y31890D01*
X21000Y43615D02*
X21200D01*
X21100Y43515D02*
Y43715D01*
X22225Y43600D02*
X22425D01*
X22325Y43500D02*
Y43700D01*
X23450Y43600D02*
X23650D01*
X23550Y43500D02*
Y43700D01*
X18475Y39000D02*
X18675D01*
X18575Y38900D02*
Y39100D01*
X18050Y41300D02*
X18250D01*
X18150Y41200D02*
Y41400D01*
X17350Y46500D02*
X17550D01*
X17450Y46400D02*
Y46600D01*
X19475Y47375D02*
X19675D01*
X19575Y47275D02*
Y47475D01*
X37875Y43650D02*
X38075D01*
X37975Y43550D02*
Y43750D01*
X36230Y45235D02*
X36430D01*
X36330Y45135D02*
Y45335D01*
X32350Y47250D02*
X32550D01*
X32450Y47150D02*
Y47350D01*
X32620Y44990D02*
X32820D01*
X32720Y44890D02*
Y45090D01*
X32000Y46025D02*
X32200D01*
X32100Y45925D02*
Y46125D01*
X33250Y46025D02*
X33450D01*
X33350Y45925D02*
Y46125D01*
X33250Y43975D02*
X33450D01*
X33350Y43875D02*
Y44075D01*
X32000Y43975D02*
X32200D01*
X32100Y43875D02*
Y44075D01*
X30150Y44225D02*
X30350D01*
X30250Y44125D02*
Y44325D01*
X35105Y45735D02*
X35305D01*
X35205Y45635D02*
Y45835D01*
X50525Y46550D02*
X50725D01*
X50625Y46450D02*
Y46650D01*
X48825Y47200D02*
X49025D01*
X48925Y47100D02*
Y47300D01*
X36250Y46050D02*
X36450D01*
X36350Y45950D02*
Y46150D01*
X29600Y51050D02*
X29800D01*
X29700Y50950D02*
Y51150D01*
X57625Y37850D02*
X57825D01*
X57725Y37750D02*
Y37950D01*
X57200Y37425D02*
X57400D01*
X57300Y37325D02*
Y37525D01*
X57200Y26875D02*
X57400D01*
X57300Y26775D02*
Y26975D01*
X56775Y37000D02*
X56975D01*
X56875Y36900D02*
Y37100D01*
X56775Y22825D02*
X56975D01*
X56875Y22725D02*
Y22925D01*
X56350Y36575D02*
X56550D01*
X56450Y36475D02*
Y36675D01*
X56350Y29450D02*
X56550D01*
X56450Y29350D02*
Y29550D01*
X55925Y35175D02*
X56125D01*
X56025Y35075D02*
Y35275D01*
X55925Y18975D02*
X56125D01*
X56025Y18875D02*
Y19075D01*
X55500Y34725D02*
X55700D01*
X55600Y34625D02*
Y34825D01*
X55500Y16425D02*
X55700D01*
X55600Y16325D02*
Y16525D01*
X55050Y34300D02*
X55250D01*
X55150Y34200D02*
Y34400D01*
X55050Y13875D02*
X55250D01*
X55150Y13775D02*
Y13975D01*
X43900Y31575D02*
X44100D01*
X44000Y31475D02*
Y31675D01*
X41825Y27050D02*
X42025D01*
X41925Y26950D02*
Y27150D01*
X41825Y28565D02*
X42025D01*
X41925Y28465D02*
Y28665D01*
X45325Y28575D02*
X45525D01*
X45425Y28475D02*
Y28675D01*
X45140Y27065D02*
X45340D01*
X45240Y26965D02*
Y27165D01*
X36845Y27350D02*
X37045D01*
X36945Y27250D02*
Y27450D01*
X36800Y25325D02*
X37000D01*
X36900Y25225D02*
Y25425D01*
X54600Y30660D02*
X54800D01*
X54700Y30560D02*
Y30760D01*
X54600Y32775D02*
X54800D01*
X54700Y32675D02*
Y32875D01*
X41075Y29225D02*
X41275D01*
X41175Y29125D02*
Y29325D01*
X41015Y30115D02*
X41215D01*
X41115Y30015D02*
Y30215D01*
X54150Y20275D02*
X54350D01*
X54250Y20175D02*
Y20375D01*
X48500Y26375D02*
X48700D01*
X48600Y26275D02*
Y26475D01*
X49550Y23600D02*
X49750D01*
X49650Y23500D02*
Y23700D01*
X51475Y19435D02*
X51675D01*
X51575Y19335D02*
Y19535D01*
X44300Y11400D02*
X44500D01*
X44400Y11300D02*
Y11500D01*
X44300Y21825D02*
X44500D01*
X44400Y21725D02*
Y21925D01*
X33110Y32775D02*
X33310D01*
X33210Y32675D02*
Y32875D01*
X31610Y32800D02*
X31810D01*
X31710Y32700D02*
Y32900D01*
X31110Y33325D02*
X31310D01*
X31210Y33225D02*
Y33425D01*
X30610Y33875D02*
X30810D01*
X30710Y33775D02*
Y33975D01*
X29150Y48675D02*
X29350D01*
X29250Y48575D02*
Y48775D01*
X28573Y48900D02*
X28773D01*
X28673Y48800D02*
Y49000D01*
X27975Y49200D02*
X28175D01*
X28075Y49100D02*
Y49300D01*
X15175Y40625D02*
X15375D01*
X15275Y40525D02*
Y40725D01*
X45050Y25015D02*
X45250D01*
X45150Y24915D02*
Y25115D01*
X54625Y18500D02*
X54825D01*
X54725Y18400D02*
Y18600D01*
X54625Y24075D02*
X54825D01*
X54725Y23975D02*
Y24175D01*
X53200Y18075D02*
X53400D01*
X53300Y17975D02*
Y18175D01*
X53200Y21500D02*
X53400D01*
X53300Y21400D02*
Y21600D01*
X16225Y70750D02*
X16425D01*
X16325Y70650D02*
Y70850D01*
X16800Y70275D02*
X17000D01*
X16900Y70175D02*
Y70375D01*
X34775Y70025D02*
X34975D01*
X34875Y69925D02*
Y70125D01*
X31600Y69925D02*
X31800D01*
X31700Y69825D02*
Y70025D01*
X11700Y61250D02*
X11900D01*
X11800Y61150D02*
Y61350D01*
X16527Y61302D02*
X16727D01*
X16627Y61202D02*
Y61402D01*
X13375Y56875D02*
X13575D01*
X13475Y56775D02*
Y56975D01*
X13775Y57300D02*
X13975D01*
X13875Y57200D02*
Y57400D01*
X17050Y60725D02*
X17250D01*
X17150Y60625D02*
Y60825D01*
X24200Y16700D02*
X24400D01*
X24300Y16600D02*
Y16800D01*
X22475Y19475D02*
X22675D01*
X22575Y19375D02*
Y19575D01*
X22475Y15975D02*
X22675D01*
X22575Y15875D02*
Y16075D01*
X18575Y35925D02*
X18775D01*
X18675Y35825D02*
Y36025D01*
X18500Y34600D02*
X18700D01*
X18600Y34500D02*
Y34700D01*
X16575Y30225D02*
X16775D01*
X16675Y30125D02*
Y30325D01*
X14350Y32900D02*
X14550D01*
X14450Y32800D02*
Y33000D01*
X13850Y29075D02*
X14050D01*
X13950Y28975D02*
Y29175D01*
X19050Y32475D02*
X19250D01*
X19150Y32375D02*
Y32575D01*
X20600Y22125D02*
X20800D01*
X20700Y22025D02*
Y22225D01*
X19125Y25940D02*
X19325D01*
X19225Y25840D02*
Y26040D01*
X14100Y22850D02*
X14300D01*
X14200Y22750D02*
Y22950D01*
X20150Y13375D02*
X20350D01*
X20250Y13275D02*
Y13475D01*
X23150Y12950D02*
X23350D01*
X23250Y12850D02*
Y13050D01*
X13300Y37725D02*
X13500D01*
X13400Y37625D02*
Y37825D01*
X12450Y32875D02*
X12650D01*
X12550Y32775D02*
Y32975D01*
X12275Y18375D02*
X12475D01*
X12375Y18275D02*
Y18475D01*
X12150Y17100D02*
X12350D01*
X12250Y17000D02*
Y17200D01*
X11975Y15875D02*
X12175D01*
X12075Y15775D02*
Y15975D01*
X11975Y14450D02*
X12175D01*
X12075Y14350D02*
Y14550D01*
Y13225D02*
X12275D01*
X12175Y13125D02*
Y13325D01*
X12925Y39650D02*
X13125D01*
X13025Y39550D02*
Y39750D01*
X14250Y47025D02*
X14450D01*
X14350Y46925D02*
Y47125D01*
X12850Y44650D02*
X13050D01*
X12950Y44550D02*
Y44750D01*
X12850Y49550D02*
X13050D01*
X12950Y49450D02*
Y49650D01*
M02*
