G04*
G04 #@! TF.GenerationSoftware,Altium Limited,Altium Designer,22.10.1 (41)*
G04*
G04 Layer_Color=8388736*
%FSLAX43Y43*%
%MOMM*%
G71*
G04*
G04 #@! TF.SameCoordinates,653730E2-FE11-40ED-88C2-BB3E2325E701*
G04*
G04*
G04 #@! TF.FilePolarity,Negative*
G04*
G01*
G75*
%ADD11C,0.100*%
%ADD21R,8.000X2.500*%
%ADD22R,2.260X1.620*%
%ADD23R,0.700X1.400*%
%ADD24R,1.750X3.600*%
%ADD25R,1.750X1.600*%
%ADD26R,1.100X0.740*%
%ADD27R,0.800X0.610*%
%ADD28R,1.100X1.100*%
%ADD29R,1.100X1.500*%
%ADD30R,1.200X1.600*%
%ADD31R,0.900X0.900*%
%ADD32R,0.900X0.900*%
%ADD33R,0.900X1.050*%
%ADD34C,0.350*%
%ADD35R,0.400X1.800*%
%ADD36R,1.800X0.400*%
G04:AMPARAMS|DCode=37|XSize=1.1mm|YSize=2.6mm|CornerRadius=0mm|HoleSize=0mm|Usage=FLASHONLY|Rotation=135.000|XOffset=0mm|YOffset=0mm|HoleType=Round|Shape=Rectangle|*
%AMROTATEDRECTD37*
4,1,4,1.308,0.530,-0.530,-1.308,-1.308,-0.530,0.530,1.308,1.308,0.530,0.0*
%
%ADD37ROTATEDRECTD37*%

G04:AMPARAMS|DCode=38|XSize=1.1mm|YSize=2.6mm|CornerRadius=0mm|HoleSize=0mm|Usage=FLASHONLY|Rotation=225.000|XOffset=0mm|YOffset=0mm|HoleType=Round|Shape=Rectangle|*
%AMROTATEDRECTD38*
4,1,4,-0.530,1.308,1.308,-0.530,0.530,-1.308,-1.308,0.530,-0.530,1.308,0.0*
%
%ADD38ROTATEDRECTD38*%

%ADD39R,1.800X2.600*%
%ADD40R,0.600X0.550*%
%ADD41R,1.300X0.500*%
%ADD42R,0.350X0.700*%
%ADD43R,0.650X0.900*%
%ADD44R,0.237X0.275*%
%ADD45R,1.160X0.640*%
%ADD46R,1.100X1.900*%
%ADD47R,0.850X0.950*%
%ADD48R,1.600X2.000*%
%ADD49R,0.500X1.450*%
%ADD50R,2.890X0.840*%
%ADD51R,1.500X1.880*%
%ADD52R,1.500X1.000*%
%ADD53R,0.990X0.740*%
%ADD54R,0.610X0.660*%
%ADD55R,0.660X0.610*%
%ADD56R,0.275X0.237*%
%ADD57R,0.740X1.100*%
%ADD58R,0.740X0.990*%
%ADD59R,1.000X1.500*%
%ADD60R,0.610X0.800*%
%ADD61R,1.500X1.100*%
%ADD62C,1.100*%
%ADD63O,1.300X2.000*%
%ADD64C,1.600*%
%ADD65C,1.070*%
%ADD66C,1.290*%
%ADD67C,1.950*%
%ADD68R,1.950X1.950*%
%ADD69R,1.950X1.950*%
%ADD70C,3.300*%
G36*
X32750Y80050D02*
X31500D01*
Y82050D01*
X32750D01*
Y80050D01*
D01*
D02*
G37*
G36*
X38500D02*
X37250D01*
Y82050D01*
X38500D01*
Y80050D01*
D01*
D02*
G37*
D11*
X0Y4000D02*
G03*
X2000Y2000I2000J0D01*
G01*
X2000Y82500D02*
G03*
X0Y80500I0J-2000D01*
G01*
X70000D02*
G03*
X68000Y82500I-2000J0D01*
G01*
X68000Y2000D02*
G03*
X70000Y4000I0J2000D01*
G01*
X11500Y2000D02*
X13500Y0D01*
X46500D01*
X48500Y2000D01*
Y2000D01*
X68000D01*
X2000Y82500D02*
X68000D01*
X2000Y2000D02*
X11500D01*
X0Y4000D02*
Y58000D01*
Y80500D01*
X70000Y4000D02*
Y58000D01*
Y80500D01*
X70000Y80500D02*
X70000Y80500D01*
D21*
X37870Y2790D02*
D03*
D22*
X21995Y55550D02*
D03*
Y51050D02*
D03*
X31495Y55550D02*
D03*
Y51050D02*
D03*
X48005D02*
D03*
Y55550D02*
D03*
X38505Y51050D02*
D03*
Y55550D02*
D03*
D23*
X47130Y63775D02*
D03*
X46180D02*
D03*
X45230D02*
D03*
Y61575D02*
D03*
X47130D02*
D03*
X49125Y73595D02*
D03*
X48175D02*
D03*
X47225D02*
D03*
Y71395D02*
D03*
X49125D02*
D03*
X45420Y19640D02*
D03*
X46370D02*
D03*
X47320D02*
D03*
Y21840D02*
D03*
X45420D02*
D03*
D24*
X25945Y43615D02*
D03*
D25*
X19595Y41315D02*
D03*
Y43615D02*
D03*
Y45915D02*
D03*
D26*
X48595Y23490D02*
D03*
Y24890D02*
D03*
X50625Y45725D02*
D03*
Y44325D02*
D03*
Y41850D02*
D03*
Y43250D02*
D03*
X36345Y56165D02*
D03*
Y54765D02*
D03*
X18220Y27945D02*
D03*
Y26545D02*
D03*
X45685Y73970D02*
D03*
Y72570D02*
D03*
X59620Y75515D02*
D03*
Y74115D02*
D03*
X58120Y75515D02*
D03*
Y74115D02*
D03*
X48533Y80380D02*
D03*
Y78980D02*
D03*
D27*
X29050Y62325D02*
D03*
Y61425D02*
D03*
X31550Y58550D02*
D03*
Y59450D02*
D03*
X33200Y62325D02*
D03*
Y61425D02*
D03*
X38350Y65800D02*
D03*
Y66700D02*
D03*
X6150Y64250D02*
D03*
Y65150D02*
D03*
X26325Y75375D02*
D03*
Y74475D02*
D03*
X39400Y65800D02*
D03*
Y66700D02*
D03*
X29875Y74475D02*
D03*
Y75375D02*
D03*
D28*
X30300Y58550D02*
D03*
Y60200D02*
D03*
X29050D02*
D03*
Y58550D02*
D03*
D29*
X51370Y22690D02*
D03*
X50420Y24890D02*
D03*
X52320D02*
D03*
D30*
X58120Y80040D02*
D03*
X59620Y77040D02*
D03*
X58120D02*
D03*
X59620Y80040D02*
D03*
D31*
X47233Y80380D02*
D03*
X61700Y70850D02*
D03*
X63200D02*
D03*
D32*
X47233Y78880D02*
D03*
X36345Y53390D02*
D03*
Y51890D02*
D03*
D33*
X42845Y28565D02*
D03*
X44445D02*
D03*
X42845Y27065D02*
D03*
X44445D02*
D03*
D34*
X25150Y63850D02*
D03*
Y64500D02*
D03*
Y65150D02*
D03*
Y65800D02*
D03*
Y66450D02*
D03*
Y67100D02*
D03*
Y67750D02*
D03*
Y68400D02*
D03*
Y69050D02*
D03*
Y69700D02*
D03*
Y70350D02*
D03*
Y71000D02*
D03*
Y71650D02*
D03*
Y72300D02*
D03*
Y72950D02*
D03*
X25800Y63850D02*
D03*
Y64500D02*
D03*
Y65150D02*
D03*
Y65800D02*
D03*
Y66450D02*
D03*
Y67100D02*
D03*
Y67750D02*
D03*
Y68400D02*
D03*
Y69050D02*
D03*
Y69700D02*
D03*
Y70350D02*
D03*
Y71000D02*
D03*
Y71650D02*
D03*
Y72300D02*
D03*
Y72950D02*
D03*
X26450Y63850D02*
D03*
Y64500D02*
D03*
Y65150D02*
D03*
Y65800D02*
D03*
Y66450D02*
D03*
Y67100D02*
D03*
Y67750D02*
D03*
Y68400D02*
D03*
Y69050D02*
D03*
Y69700D02*
D03*
Y70350D02*
D03*
Y71000D02*
D03*
Y71650D02*
D03*
Y72300D02*
D03*
Y72950D02*
D03*
X27100Y63850D02*
D03*
Y64500D02*
D03*
Y65150D02*
D03*
Y65800D02*
D03*
Y66450D02*
D03*
Y67100D02*
D03*
Y67750D02*
D03*
Y68400D02*
D03*
Y69050D02*
D03*
Y69700D02*
D03*
Y70350D02*
D03*
Y71000D02*
D03*
Y71650D02*
D03*
Y72300D02*
D03*
Y72950D02*
D03*
X27750Y63850D02*
D03*
Y64500D02*
D03*
Y65150D02*
D03*
Y65800D02*
D03*
Y71000D02*
D03*
Y71650D02*
D03*
Y72300D02*
D03*
Y72950D02*
D03*
X28400Y63850D02*
D03*
Y64500D02*
D03*
Y65150D02*
D03*
Y65800D02*
D03*
Y67100D02*
D03*
Y67750D02*
D03*
Y68400D02*
D03*
Y69050D02*
D03*
Y69700D02*
D03*
Y71000D02*
D03*
Y71650D02*
D03*
Y72300D02*
D03*
Y72950D02*
D03*
X29050Y63850D02*
D03*
Y64500D02*
D03*
Y65150D02*
D03*
Y65800D02*
D03*
Y67100D02*
D03*
Y67750D02*
D03*
Y68400D02*
D03*
Y69050D02*
D03*
Y69700D02*
D03*
Y71000D02*
D03*
Y71650D02*
D03*
Y72300D02*
D03*
Y72950D02*
D03*
X29700Y63850D02*
D03*
Y64500D02*
D03*
Y65150D02*
D03*
Y65800D02*
D03*
Y67100D02*
D03*
Y67750D02*
D03*
Y68400D02*
D03*
Y69050D02*
D03*
Y69700D02*
D03*
Y71000D02*
D03*
Y71650D02*
D03*
Y72300D02*
D03*
Y72950D02*
D03*
X30350Y63850D02*
D03*
Y64500D02*
D03*
Y65150D02*
D03*
Y65800D02*
D03*
Y67100D02*
D03*
Y67750D02*
D03*
Y68400D02*
D03*
Y69050D02*
D03*
Y69700D02*
D03*
Y71000D02*
D03*
Y71650D02*
D03*
Y72300D02*
D03*
Y72950D02*
D03*
X31000Y63850D02*
D03*
Y64500D02*
D03*
Y65150D02*
D03*
Y65800D02*
D03*
Y67100D02*
D03*
Y67750D02*
D03*
Y68400D02*
D03*
Y69050D02*
D03*
Y69700D02*
D03*
Y71000D02*
D03*
Y71650D02*
D03*
Y72300D02*
D03*
Y72950D02*
D03*
X31650Y63850D02*
D03*
Y64500D02*
D03*
Y65150D02*
D03*
Y65800D02*
D03*
Y71000D02*
D03*
Y71650D02*
D03*
Y72300D02*
D03*
Y72950D02*
D03*
X32300Y63850D02*
D03*
Y64500D02*
D03*
Y65150D02*
D03*
Y65800D02*
D03*
Y66450D02*
D03*
Y67100D02*
D03*
Y67750D02*
D03*
Y68400D02*
D03*
Y69050D02*
D03*
Y69700D02*
D03*
Y70350D02*
D03*
Y71000D02*
D03*
Y71650D02*
D03*
Y72300D02*
D03*
Y72950D02*
D03*
X32950Y63850D02*
D03*
Y64500D02*
D03*
Y65150D02*
D03*
Y65800D02*
D03*
Y66450D02*
D03*
Y67100D02*
D03*
Y67750D02*
D03*
Y68400D02*
D03*
Y69050D02*
D03*
Y69700D02*
D03*
Y70350D02*
D03*
Y71000D02*
D03*
Y71650D02*
D03*
Y72300D02*
D03*
Y72950D02*
D03*
X33600Y63850D02*
D03*
Y64500D02*
D03*
Y65150D02*
D03*
Y65800D02*
D03*
Y66450D02*
D03*
Y67100D02*
D03*
Y67750D02*
D03*
Y68400D02*
D03*
Y69050D02*
D03*
Y69700D02*
D03*
Y70350D02*
D03*
Y71000D02*
D03*
Y71650D02*
D03*
Y72300D02*
D03*
Y72950D02*
D03*
X34250Y63850D02*
D03*
Y64500D02*
D03*
Y65150D02*
D03*
Y65800D02*
D03*
Y66450D02*
D03*
Y67100D02*
D03*
Y67750D02*
D03*
Y68400D02*
D03*
Y69050D02*
D03*
Y69700D02*
D03*
Y70350D02*
D03*
Y71000D02*
D03*
Y71650D02*
D03*
Y72300D02*
D03*
Y72950D02*
D03*
D35*
X29710Y18190D02*
D03*
X30210D02*
D03*
X30710D02*
D03*
X31210D02*
D03*
X31710D02*
D03*
X33210D02*
D03*
X34210D02*
D03*
X34710D02*
D03*
X35210D02*
D03*
X35710D02*
D03*
X36210D02*
D03*
Y29990D02*
D03*
X35710D02*
D03*
X35210D02*
D03*
X34710D02*
D03*
X34210D02*
D03*
X33710D02*
D03*
X33210D02*
D03*
X32710D02*
D03*
X32210D02*
D03*
X31710D02*
D03*
X31210D02*
D03*
X30710D02*
D03*
X30210D02*
D03*
X29710D02*
D03*
X29210D02*
D03*
X28710D02*
D03*
X32710Y18190D02*
D03*
X33710D02*
D03*
X32210D02*
D03*
X29210D02*
D03*
X28710D02*
D03*
D36*
X38360Y20340D02*
D03*
Y20840D02*
D03*
Y21340D02*
D03*
Y21840D02*
D03*
Y22340D02*
D03*
Y22840D02*
D03*
Y23340D02*
D03*
Y23840D02*
D03*
Y24340D02*
D03*
Y24840D02*
D03*
Y25340D02*
D03*
Y25840D02*
D03*
Y27340D02*
D03*
Y27840D02*
D03*
X26560Y26840D02*
D03*
Y26340D02*
D03*
Y25840D02*
D03*
Y25340D02*
D03*
Y24840D02*
D03*
Y24340D02*
D03*
Y23840D02*
D03*
Y23340D02*
D03*
Y22840D02*
D03*
Y21840D02*
D03*
Y21340D02*
D03*
Y20840D02*
D03*
Y20340D02*
D03*
Y27340D02*
D03*
X38360Y26340D02*
D03*
Y26840D02*
D03*
X26560Y22340D02*
D03*
Y27840D02*
D03*
D37*
X26460Y30090D02*
D03*
X38460Y18090D02*
D03*
D38*
X26460D02*
D03*
X38460Y30090D02*
D03*
D39*
X32720Y44990D02*
D03*
D40*
X34020Y45940D02*
D03*
Y44990D02*
D03*
Y44040D02*
D03*
X31420D02*
D03*
Y44990D02*
D03*
Y45940D02*
D03*
D41*
X15425Y75300D02*
D03*
Y74650D02*
D03*
Y74000D02*
D03*
X17125D02*
D03*
Y75300D02*
D03*
X17395Y68540D02*
D03*
Y67890D02*
D03*
Y67240D02*
D03*
X19095D02*
D03*
Y68540D02*
D03*
D42*
X35075Y76300D02*
D03*
X35575D02*
D03*
X36075D02*
D03*
Y75000D02*
D03*
X35575D02*
D03*
X35075D02*
D03*
D43*
X37350Y75350D02*
D03*
X38600D02*
D03*
D44*
X33889Y54415D02*
D03*
X33551D02*
D03*
D45*
X50870Y63675D02*
D03*
X48730D02*
D03*
X50870Y61675D02*
D03*
X48730D02*
D03*
X50870Y65675D02*
D03*
X48730D02*
D03*
D46*
X29295Y13515D02*
D03*
X26795D02*
D03*
D47*
X33970Y14265D02*
D03*
Y12915D02*
D03*
X35020D02*
D03*
Y14265D02*
D03*
D48*
X34000Y81050D02*
D03*
X36000D02*
D03*
D49*
X33700Y78350D02*
D03*
X34350D02*
D03*
X35000D02*
D03*
X35650D02*
D03*
X36300D02*
D03*
D50*
X8363Y65965D02*
D03*
Y67235D02*
D03*
Y68505D02*
D03*
Y69775D02*
D03*
X12427D02*
D03*
Y68505D02*
D03*
Y67235D02*
D03*
Y65965D02*
D03*
Y62155D02*
D03*
Y63425D02*
D03*
Y64695D02*
D03*
X8363D02*
D03*
Y63425D02*
D03*
Y62155D02*
D03*
D51*
X38875Y69650D02*
D03*
X41675D02*
D03*
X23175Y72675D02*
D03*
X20375D02*
D03*
D52*
X17470Y45365D02*
D03*
Y43665D02*
D03*
D53*
X48920Y21840D02*
D03*
Y20440D02*
D03*
X35195Y43665D02*
D03*
Y45065D02*
D03*
X24700Y62250D02*
D03*
Y60850D02*
D03*
X23350Y62250D02*
D03*
Y60850D02*
D03*
X30245Y46315D02*
D03*
Y44915D02*
D03*
X50635Y71020D02*
D03*
Y72420D02*
D03*
X42870Y30090D02*
D03*
Y31490D02*
D03*
X42845Y24440D02*
D03*
Y25840D02*
D03*
X31075Y74550D02*
D03*
Y75950D02*
D03*
D54*
X35775Y68175D02*
D03*
X36675D02*
D03*
X45230Y65075D02*
D03*
X46130D02*
D03*
X45230Y60275D02*
D03*
X46130D02*
D03*
X47130Y58925D02*
D03*
X48030D02*
D03*
X27645Y11965D02*
D03*
X26745D02*
D03*
X34820Y52140D02*
D03*
X33920D02*
D03*
X28445Y11965D02*
D03*
X29345D02*
D03*
X35020Y11790D02*
D03*
X34120D02*
D03*
X37595Y15490D02*
D03*
X38495D02*
D03*
X34020Y47240D02*
D03*
X33120D02*
D03*
X23625Y64925D02*
D03*
X22725D02*
D03*
X27295Y32090D02*
D03*
X26395D02*
D03*
X23625Y68825D02*
D03*
X22725D02*
D03*
X35775Y66925D02*
D03*
X36675D02*
D03*
X37250Y76575D02*
D03*
X38150D02*
D03*
X23625Y67225D02*
D03*
X22725D02*
D03*
X23625Y70075D02*
D03*
X22725D02*
D03*
X32650Y74150D02*
D03*
X33550D02*
D03*
X35775Y69425D02*
D03*
X36675D02*
D03*
D55*
X25350Y74475D02*
D03*
Y75375D02*
D03*
X27075Y62325D02*
D03*
Y61425D02*
D03*
X27875Y58550D02*
D03*
Y59450D02*
D03*
X23950Y75550D02*
D03*
Y74650D02*
D03*
X22250Y80050D02*
D03*
Y79150D02*
D03*
X32895Y14265D02*
D03*
Y13365D02*
D03*
X49845Y54640D02*
D03*
Y55540D02*
D03*
X40420Y29215D02*
D03*
Y30115D02*
D03*
X31875Y62325D02*
D03*
Y61425D02*
D03*
X36320Y43665D02*
D03*
Y44565D02*
D03*
X43995Y30090D02*
D03*
Y30990D02*
D03*
X27650Y74475D02*
D03*
Y75375D02*
D03*
X30625Y62325D02*
D03*
Y61425D02*
D03*
X34175Y62325D02*
D03*
Y61425D02*
D03*
X25825Y62325D02*
D03*
Y61425D02*
D03*
X44445Y25915D02*
D03*
Y25015D02*
D03*
X24495Y18965D02*
D03*
Y18065D02*
D03*
X41720Y24940D02*
D03*
Y25840D02*
D03*
X28900Y74475D02*
D03*
Y75375D02*
D03*
X35425Y62325D02*
D03*
Y61425D02*
D03*
D56*
X14545Y62946D02*
D03*
Y63284D02*
D03*
X49895Y51534D02*
D03*
Y51196D02*
D03*
D57*
X11850Y43575D02*
D03*
X13250D02*
D03*
X34820Y55540D02*
D03*
X33420D02*
D03*
Y53290D02*
D03*
X34820D02*
D03*
X50170Y20440D02*
D03*
X51570D02*
D03*
X60200Y70850D02*
D03*
X58800D02*
D03*
X45920Y23490D02*
D03*
X47320D02*
D03*
X46885Y69845D02*
D03*
X48285D02*
D03*
D58*
X45305Y66200D02*
D03*
X46705D02*
D03*
X47130Y60050D02*
D03*
X48530D02*
D03*
X25725Y15700D02*
D03*
X24325D02*
D03*
X49460Y75120D02*
D03*
X48060D02*
D03*
X37620Y14365D02*
D03*
X39020D02*
D03*
X47320Y24965D02*
D03*
X45920D02*
D03*
X47320Y26415D02*
D03*
X45920D02*
D03*
D59*
X21295Y39015D02*
D03*
X19595D02*
D03*
D60*
X14720Y65965D02*
D03*
X15620D02*
D03*
X14720Y67240D02*
D03*
X15620D02*
D03*
X14725Y61250D02*
D03*
X15625D02*
D03*
X14720Y68515D02*
D03*
X15620D02*
D03*
X36675Y64450D02*
D03*
X35775D02*
D03*
X36675Y63400D02*
D03*
X35775D02*
D03*
X15850Y63425D02*
D03*
X16750D02*
D03*
X24395Y26840D02*
D03*
X23495D02*
D03*
X6025Y62150D02*
D03*
X5125D02*
D03*
X23625Y63600D02*
D03*
X22725D02*
D03*
X23625Y65900D02*
D03*
X22725D02*
D03*
D61*
X46725Y45275D02*
D03*
X48925Y46225D02*
D03*
Y44325D02*
D03*
D62*
X32460Y27190D02*
D03*
Y20990D02*
D03*
D63*
X31500Y81050D02*
D03*
X38500D02*
D03*
D64*
X32500Y78350D02*
D03*
X37500D02*
D03*
D65*
X10395Y69140D02*
D03*
Y62790D02*
D03*
D66*
Y71410D02*
D03*
Y60520D02*
D03*
D67*
X64210Y20280D02*
D03*
Y17740D02*
D03*
X66750Y20280D02*
D03*
Y17740D02*
D03*
Y10120D02*
D03*
Y15200D02*
D03*
Y12660D02*
D03*
X64210Y10120D02*
D03*
Y12660D02*
D03*
Y15200D02*
D03*
X66750Y5040D02*
D03*
Y7580D02*
D03*
X64210Y5040D02*
D03*
Y7580D02*
D03*
Y32980D02*
D03*
Y30440D02*
D03*
X66750Y32980D02*
D03*
Y30440D02*
D03*
Y22820D02*
D03*
Y27900D02*
D03*
Y25360D02*
D03*
X64210Y22820D02*
D03*
Y25360D02*
D03*
Y27900D02*
D03*
Y40600D02*
D03*
Y38060D02*
D03*
Y35520D02*
D03*
X66750Y38060D02*
D03*
Y40600D02*
D03*
Y35520D02*
D03*
Y43140D02*
D03*
Y50760D02*
D03*
Y48220D02*
D03*
Y45680D02*
D03*
X64210Y43140D02*
D03*
Y45680D02*
D03*
Y48220D02*
D03*
X56590Y68500D02*
D03*
X59130D02*
D03*
Y63420D02*
D03*
Y65960D02*
D03*
X56590D02*
D03*
Y63420D02*
D03*
Y60880D02*
D03*
X13730Y80040D02*
D03*
X16270D02*
D03*
X18810D02*
D03*
X42445Y41235D02*
D03*
X39905D02*
D03*
X3250Y78700D02*
D03*
X18220Y24390D02*
D03*
X59130Y44664D02*
D03*
Y42124D02*
D03*
Y34504D02*
D03*
Y31964D02*
D03*
Y29424D02*
D03*
Y37044D02*
D03*
Y39584D02*
D03*
Y47204D02*
D03*
Y49744D02*
D03*
Y22820D02*
D03*
Y20280D02*
D03*
Y12660D02*
D03*
Y10120D02*
D03*
Y7580D02*
D03*
Y15200D02*
D03*
Y17740D02*
D03*
X10870Y5040D02*
D03*
Y7580D02*
D03*
Y15200D02*
D03*
Y12660D02*
D03*
Y10120D02*
D03*
X66750Y78700D02*
D03*
X10870Y22820D02*
D03*
Y25360D02*
D03*
Y32980D02*
D03*
Y35520D02*
D03*
Y38060D02*
D03*
Y30440D02*
D03*
Y27900D02*
D03*
X3250Y20280D02*
D03*
Y17740D02*
D03*
X5790Y20280D02*
D03*
Y17740D02*
D03*
Y10120D02*
D03*
Y15200D02*
D03*
Y12660D02*
D03*
X3250Y10120D02*
D03*
Y12660D02*
D03*
Y15200D02*
D03*
X5790Y5040D02*
D03*
Y7580D02*
D03*
X3250Y5040D02*
D03*
Y7580D02*
D03*
Y32980D02*
D03*
Y30440D02*
D03*
X5790Y32980D02*
D03*
Y30440D02*
D03*
Y22820D02*
D03*
Y27900D02*
D03*
Y25360D02*
D03*
X3250Y22820D02*
D03*
Y25360D02*
D03*
Y27900D02*
D03*
Y40600D02*
D03*
Y38060D02*
D03*
Y35520D02*
D03*
X5790Y38060D02*
D03*
Y40600D02*
D03*
Y35520D02*
D03*
Y43140D02*
D03*
Y50760D02*
D03*
Y48220D02*
D03*
Y45680D02*
D03*
X3250Y43140D02*
D03*
Y45680D02*
D03*
Y48220D02*
D03*
X33095Y41235D02*
D03*
X24730Y80040D02*
D03*
X10870Y48220D02*
D03*
D68*
X64210Y50760D02*
D03*
X59130Y60880D02*
D03*
X3250Y76160D02*
D03*
X18220Y21850D02*
D03*
X59130Y26884D02*
D03*
Y5040D02*
D03*
X10870Y17740D02*
D03*
X66750Y76160D02*
D03*
X10870Y40600D02*
D03*
X3250Y50760D02*
D03*
X10870Y50760D02*
D03*
D69*
X11190Y80040D02*
D03*
X44985Y41235D02*
D03*
X35635D02*
D03*
X27270Y80040D02*
D03*
D70*
X59130Y53300D02*
D03*
X43890Y2500D02*
D03*
X10870Y54570D02*
D03*
M02*
