G04*
G04 #@! TF.GenerationSoftware,Altium Limited,Altium Designer,22.10.1 (41)*
G04*
G04 Layer_Color=16711680*
%FSLAX43Y43*%
%MOMM*%
G71*
G04*
G04 #@! TF.SameCoordinates,653730E2-FE11-40ED-88C2-BB3E2325E701*
G04*
G04*
G04 #@! TF.FilePolarity,Negative*
G04*
G01*
G75*
%ADD11C,0.100*%
%ADD62C,1.100*%
%ADD63O,1.300X2.000*%
%ADD64C,1.600*%
%ADD65C,1.070*%
%ADD66C,1.290*%
%ADD67C,1.950*%
%ADD68R,1.950X1.950*%
%ADD69R,1.950X1.950*%
%ADD70C,3.300*%
%ADD132R,8.000X2.500*%
G36*
X48545Y54040D02*
X47995Y53490D01*
X47445Y54040D01*
Y54740D01*
X48545D01*
Y54040D01*
D02*
G37*
G36*
Y52590D02*
X47445D01*
Y53940D01*
X47995Y53390D01*
Y53390D01*
X48545Y53940D01*
Y52590D01*
D02*
G37*
G36*
X54650Y49200D02*
X53950D01*
X53400Y49750D01*
X53950Y50300D01*
X54650D01*
Y49200D01*
D02*
G37*
G36*
X53300Y49750D02*
X53300D01*
X53850Y49200D01*
X52500D01*
Y50300D01*
X53850D01*
X53300Y49750D01*
D02*
G37*
G36*
X52775Y45600D02*
X52225Y45050D01*
X51675Y45600D01*
Y46300D01*
X52775D01*
Y45600D01*
D02*
G37*
G36*
Y44150D02*
X51675D01*
Y45500D01*
X52225Y44950D01*
Y44950D01*
X52775Y45500D01*
Y44150D01*
D02*
G37*
G36*
X15825Y43525D02*
X15275Y44075D01*
Y44075D01*
X14725Y43525D01*
Y44875D01*
X15825D01*
Y43525D01*
D02*
G37*
G36*
Y43425D02*
Y42725D01*
X14725D01*
Y43425D01*
X15275Y43975D01*
X15825Y43425D01*
D02*
G37*
G36*
X38520Y42215D02*
X37970Y41665D01*
X37420Y42215D01*
Y42915D01*
X38520D01*
Y42215D01*
D02*
G37*
G36*
Y40765D02*
X37420D01*
Y42115D01*
X37970Y41565D01*
Y41565D01*
X38520Y42115D01*
Y40765D01*
D02*
G37*
G36*
X54500Y39025D02*
X53800D01*
X53250Y39575D01*
X53800Y40125D01*
X54500D01*
Y39025D01*
D02*
G37*
G36*
X53150Y39575D02*
X53150D01*
X53700Y39025D01*
X52350D01*
Y40125D01*
X53700D01*
X53150Y39575D01*
D02*
G37*
G36*
X15875Y37525D02*
X15325Y38075D01*
Y38075D01*
X14775Y37525D01*
Y38875D01*
X15875D01*
Y37525D01*
D02*
G37*
G36*
Y37425D02*
Y36725D01*
X14775D01*
Y37425D01*
X15325Y37975D01*
X15875Y37425D01*
D02*
G37*
G36*
X23725Y36900D02*
X23175Y36350D01*
X22625Y36900D01*
Y37600D01*
X23725D01*
Y36900D01*
D02*
G37*
G36*
X18225D02*
X17675Y36350D01*
X17125Y36900D01*
Y37600D01*
X18225D01*
Y36900D01*
D02*
G37*
G36*
X23725Y35450D02*
X22625D01*
Y36800D01*
X23175Y36250D01*
Y36250D01*
X23725Y36800D01*
Y35450D01*
D02*
G37*
G36*
X18225D02*
X17125D01*
Y36800D01*
X17675Y36250D01*
Y36250D01*
X18225Y36800D01*
Y35450D01*
D02*
G37*
G36*
X44720Y28015D02*
X44020D01*
X43470Y28565D01*
X44020Y29115D01*
X44720D01*
Y28015D01*
D02*
G37*
G36*
X43370Y28565D02*
X43370D01*
X43920Y28015D01*
X42570D01*
Y29115D01*
X43920D01*
X43370Y28565D01*
D02*
G37*
G36*
X24345Y28090D02*
X23795Y27540D01*
X23245Y28090D01*
Y28790D01*
X24345D01*
Y28090D01*
D02*
G37*
G36*
X22775Y27450D02*
X22225Y28000D01*
Y28000D01*
X21675Y27450D01*
Y28800D01*
X22775D01*
Y27450D01*
D02*
G37*
G36*
X24345Y26640D02*
X23245D01*
Y27990D01*
X23795Y27440D01*
Y27440D01*
X24345Y27990D01*
Y26640D01*
D02*
G37*
G36*
X22775Y27350D02*
Y26650D01*
X21675D01*
Y27350D01*
X22225Y27900D01*
X22775Y27350D01*
D02*
G37*
G36*
X44720Y26515D02*
X44020D01*
X43470Y27065D01*
X44020Y27615D01*
X44720D01*
Y26515D01*
D02*
G37*
G36*
X43370Y27065D02*
X43370D01*
X43920Y26515D01*
X42570D01*
Y27615D01*
X43920D01*
X43370Y27065D01*
D02*
G37*
G36*
X38910Y26715D02*
X38360Y26165D01*
X37810Y26715D01*
Y27415D01*
X38910D01*
Y26715D01*
D02*
G37*
G36*
Y25265D02*
X37810D01*
Y26615D01*
X38360Y26065D01*
Y26065D01*
X38910Y26615D01*
Y25265D01*
D02*
G37*
G36*
X34420Y24665D02*
X33870Y24115D01*
X33320Y24665D01*
Y25365D01*
X34420D01*
Y24665D01*
D02*
G37*
G36*
X35770Y24015D02*
X35220Y24565D01*
Y24565D01*
X34670Y24015D01*
Y25365D01*
X35770D01*
Y24015D01*
D02*
G37*
G36*
X34420Y23215D02*
X33320D01*
Y24565D01*
X33870Y24015D01*
Y24015D01*
X34420Y24565D01*
Y23215D01*
D02*
G37*
G36*
X49145Y24565D02*
X48595Y24015D01*
X48045Y24565D01*
Y25265D01*
X49145D01*
Y24565D01*
D02*
G37*
G36*
Y23115D02*
X48045D01*
Y24465D01*
X48595Y23915D01*
Y23915D01*
X49145Y24465D01*
Y23115D01*
D02*
G37*
G36*
X27220Y23790D02*
X26520D01*
X25970Y24340D01*
X26520Y24890D01*
X27220D01*
Y23790D01*
D02*
G37*
G36*
X25870Y24340D02*
X25870D01*
X26420Y23790D01*
X25070D01*
Y24890D01*
X26420D01*
X25870Y24340D01*
D02*
G37*
G36*
X35770Y23915D02*
Y23215D01*
X34670D01*
Y23915D01*
X35220Y24465D01*
X35770Y23915D01*
D02*
G37*
G36*
X23900Y21700D02*
X23350Y22250D01*
Y22250D01*
X22800Y21700D01*
Y23050D01*
X23900D01*
Y21700D01*
D02*
G37*
G36*
X35770Y21915D02*
X35220Y21365D01*
X34670Y21915D01*
Y22615D01*
X35770D01*
Y21915D01*
D02*
G37*
G36*
Y20465D02*
X34670D01*
Y21815D01*
X35220Y21265D01*
Y21265D01*
X35770Y21815D01*
Y20465D01*
D02*
G37*
G36*
X34420Y21265D02*
X33870Y21815D01*
Y21815D01*
X33320Y21265D01*
Y22615D01*
X34420D01*
Y21265D01*
D02*
G37*
G36*
X23900Y21600D02*
Y20900D01*
X22800D01*
Y21600D01*
X23350Y22150D01*
X23900Y21600D01*
D02*
G37*
G36*
X34420Y21165D02*
Y20465D01*
X33320D01*
Y21165D01*
X33870Y21715D01*
X34420Y21165D01*
D02*
G37*
G36*
X39745Y20890D02*
X39195Y20340D01*
X38645Y20890D01*
Y21590D01*
X39745D01*
Y20890D01*
D02*
G37*
G36*
Y19440D02*
X38645D01*
Y20790D01*
X39195Y20240D01*
Y20240D01*
X39745Y20790D01*
Y19440D01*
D02*
G37*
G36*
X38395Y20240D02*
X37845Y20790D01*
Y20790D01*
X37295Y20240D01*
Y21590D01*
X38395D01*
Y20240D01*
D02*
G37*
G36*
Y20140D02*
Y19440D01*
X37295D01*
Y20140D01*
X37845Y20690D01*
X38395Y20140D01*
D02*
G37*
G36*
Y18140D02*
X37845Y17590D01*
X37295Y18140D01*
Y18840D01*
X38395D01*
Y18140D01*
D02*
G37*
G36*
X23125Y18125D02*
X22575Y17575D01*
X22025Y18125D01*
Y18825D01*
X23125D01*
Y18125D01*
D02*
G37*
G36*
X20850D02*
X20300Y17575D01*
X19750Y18125D01*
Y18825D01*
X20850D01*
Y18125D01*
D02*
G37*
G36*
X39745Y17490D02*
X39195Y18040D01*
Y18040D01*
X38645Y17490D01*
Y18840D01*
X39745D01*
Y17490D01*
D02*
G37*
G36*
X38395Y16690D02*
X37295D01*
Y18040D01*
X37845Y17490D01*
Y17490D01*
X38395Y18040D01*
Y16690D01*
D02*
G37*
G36*
X37020Y17490D02*
X36470Y18040D01*
Y18040D01*
X35920Y17490D01*
Y18840D01*
X37020D01*
Y17490D01*
D02*
G37*
G36*
X35670D02*
X35120Y18040D01*
Y18040D01*
X34570Y17490D01*
Y18840D01*
X35670D01*
Y17490D01*
D02*
G37*
G36*
X34320D02*
X33770Y18040D01*
Y18040D01*
X33220Y17490D01*
Y18840D01*
X34320D01*
Y17490D01*
D02*
G37*
G36*
X32970D02*
X32420Y18040D01*
Y18040D01*
X31870Y17490D01*
Y18840D01*
X32970D01*
Y17490D01*
D02*
G37*
G36*
X31620D02*
X31070Y18040D01*
Y18040D01*
X30520Y17490D01*
Y18840D01*
X31620D01*
Y17490D01*
D02*
G37*
G36*
X30270D02*
X29720Y18040D01*
Y18040D01*
X29170Y17490D01*
Y18840D01*
X30270D01*
Y17490D01*
D02*
G37*
G36*
X28920D02*
X28370Y18040D01*
Y18040D01*
X27820Y17490D01*
Y18840D01*
X28920D01*
Y17490D01*
D02*
G37*
G36*
X27570D02*
X27020Y18040D01*
Y18040D01*
X26470Y17490D01*
Y18840D01*
X27570D01*
Y17490D01*
D02*
G37*
G36*
X26220D02*
X25670Y18040D01*
Y18040D01*
X25120Y17490D01*
Y18840D01*
X26220D01*
Y17490D01*
D02*
G37*
G36*
X23125Y16675D02*
X22025D01*
Y18025D01*
X22575Y17475D01*
Y17475D01*
X23125Y18025D01*
Y16675D01*
D02*
G37*
G36*
X20850D02*
X19750D01*
Y18025D01*
X20300Y17475D01*
Y17475D01*
X20850Y18025D01*
Y16675D01*
D02*
G37*
G36*
X39745Y17390D02*
Y16690D01*
X38645D01*
Y17390D01*
X39195Y17940D01*
X39745Y17390D01*
D02*
G37*
G36*
X37020D02*
Y16690D01*
X35920D01*
Y17390D01*
X36470Y17940D01*
X37020Y17390D01*
D02*
G37*
G36*
X35670D02*
Y16690D01*
X34570D01*
Y17390D01*
X35120Y17940D01*
X35670Y17390D01*
D02*
G37*
G36*
X34320D02*
Y16690D01*
X33220D01*
Y17390D01*
X33770Y17940D01*
X34320Y17390D01*
D02*
G37*
G36*
X32970D02*
Y16690D01*
X31870D01*
Y17390D01*
X32420Y17940D01*
X32970Y17390D01*
D02*
G37*
G36*
X31620D02*
Y16690D01*
X30520D01*
Y17390D01*
X31070Y17940D01*
X31620Y17390D01*
D02*
G37*
G36*
X30270D02*
Y16690D01*
X29170D01*
Y17390D01*
X29720Y17940D01*
X30270Y17390D01*
D02*
G37*
G36*
X28920D02*
Y16690D01*
X27820D01*
Y17390D01*
X28370Y17940D01*
X28920Y17390D01*
D02*
G37*
G36*
X27570D02*
Y16690D01*
X26470D01*
Y17390D01*
X27020Y17940D01*
X27570Y17390D01*
D02*
G37*
G36*
X26220D02*
Y16690D01*
X25120D01*
Y17390D01*
X25670Y17940D01*
X26220Y17390D01*
D02*
G37*
G36*
X54450Y14850D02*
X53900Y15400D01*
Y15400D01*
X53350Y14850D01*
Y16200D01*
X54450D01*
Y14850D01*
D02*
G37*
G36*
Y14750D02*
Y14050D01*
X53350D01*
Y14750D01*
X53900Y15300D01*
X54450Y14750D01*
D02*
G37*
G36*
X21800Y8575D02*
X21250Y8025D01*
X20700Y8575D01*
Y9275D01*
X21800D01*
Y8575D01*
D02*
G37*
G36*
Y7125D02*
X20700D01*
Y8475D01*
X21250Y7925D01*
Y7925D01*
X21800Y8475D01*
Y7125D01*
D02*
G37*
G36*
X16075Y5250D02*
X15525Y5800D01*
Y5800D01*
X14975Y5250D01*
Y6600D01*
X16075D01*
Y5250D01*
D02*
G37*
G36*
Y5150D02*
Y4450D01*
X14975D01*
Y5150D01*
X15525Y5700D01*
X16075Y5150D01*
D02*
G37*
G36*
X21800Y4925D02*
X21250Y4375D01*
X20700Y4925D01*
Y5625D01*
X21800D01*
Y4925D01*
D02*
G37*
G36*
Y3475D02*
X20700D01*
Y4825D01*
X21250Y4275D01*
Y4275D01*
X21800Y4825D01*
Y3475D01*
D02*
G37*
G36*
X16075Y2300D02*
X15525Y2850D01*
Y2850D01*
X14975Y2300D01*
Y3650D01*
X16075D01*
Y2300D01*
D02*
G37*
G36*
Y2200D02*
Y1500D01*
X14975D01*
Y2200D01*
X15525Y2750D01*
X16075Y2200D01*
D02*
G37*
D11*
X0Y4000D02*
G03*
X2000Y2000I2000J0D01*
G01*
X2000Y82500D02*
G03*
X0Y80500I0J-2000D01*
G01*
X70000D02*
G03*
X68000Y82500I-2000J0D01*
G01*
X68000Y2000D02*
G03*
X70000Y4000I0J2000D01*
G01*
X11500Y2000D02*
X13500Y0D01*
X46500D01*
X48500Y2000D01*
Y2000D01*
X68000D01*
X2000Y82500D02*
X68000D01*
X2000Y2000D02*
X11500D01*
X0Y4000D02*
Y58000D01*
Y80500D01*
X70000Y4000D02*
Y58000D01*
Y80500D01*
X70000Y80500D02*
X70000Y80500D01*
D62*
X32460Y27190D02*
D03*
Y20990D02*
D03*
D63*
X31500Y81050D02*
D03*
X38500D02*
D03*
D64*
X32500Y78350D02*
D03*
X37500D02*
D03*
D65*
X10395Y69140D02*
D03*
Y62790D02*
D03*
D66*
Y71410D02*
D03*
Y60520D02*
D03*
D67*
X64210Y20280D02*
D03*
Y17740D02*
D03*
X66750Y20280D02*
D03*
Y17740D02*
D03*
Y10120D02*
D03*
Y15200D02*
D03*
Y12660D02*
D03*
X64210Y10120D02*
D03*
Y12660D02*
D03*
Y15200D02*
D03*
X66750Y5040D02*
D03*
Y7580D02*
D03*
X64210Y5040D02*
D03*
Y7580D02*
D03*
Y32980D02*
D03*
Y30440D02*
D03*
X66750Y32980D02*
D03*
Y30440D02*
D03*
Y22820D02*
D03*
Y27900D02*
D03*
Y25360D02*
D03*
X64210Y22820D02*
D03*
Y25360D02*
D03*
Y27900D02*
D03*
Y40600D02*
D03*
Y38060D02*
D03*
Y35520D02*
D03*
X66750Y38060D02*
D03*
Y40600D02*
D03*
Y35520D02*
D03*
Y43140D02*
D03*
Y50760D02*
D03*
Y48220D02*
D03*
Y45680D02*
D03*
X64210Y43140D02*
D03*
Y45680D02*
D03*
Y48220D02*
D03*
X56590Y68500D02*
D03*
X59130D02*
D03*
Y63420D02*
D03*
Y65960D02*
D03*
X56590D02*
D03*
Y63420D02*
D03*
Y60880D02*
D03*
X13730Y80040D02*
D03*
X16270D02*
D03*
X18810D02*
D03*
X42445Y41235D02*
D03*
X39905D02*
D03*
X3250Y78700D02*
D03*
X18220Y24390D02*
D03*
X59130Y44664D02*
D03*
Y42124D02*
D03*
Y34504D02*
D03*
Y31964D02*
D03*
Y29424D02*
D03*
Y37044D02*
D03*
Y39584D02*
D03*
Y47204D02*
D03*
Y49744D02*
D03*
Y22820D02*
D03*
Y20280D02*
D03*
Y12660D02*
D03*
Y10120D02*
D03*
Y7580D02*
D03*
Y15200D02*
D03*
Y17740D02*
D03*
X10870Y5040D02*
D03*
Y7580D02*
D03*
Y15200D02*
D03*
Y12660D02*
D03*
Y10120D02*
D03*
X66750Y78700D02*
D03*
X10870Y22820D02*
D03*
Y25360D02*
D03*
Y32980D02*
D03*
Y35520D02*
D03*
Y38060D02*
D03*
Y30440D02*
D03*
Y27900D02*
D03*
X3250Y20280D02*
D03*
Y17740D02*
D03*
X5790Y20280D02*
D03*
Y17740D02*
D03*
Y10120D02*
D03*
Y15200D02*
D03*
Y12660D02*
D03*
X3250Y10120D02*
D03*
Y12660D02*
D03*
Y15200D02*
D03*
X5790Y5040D02*
D03*
Y7580D02*
D03*
X3250Y5040D02*
D03*
Y7580D02*
D03*
Y32980D02*
D03*
Y30440D02*
D03*
X5790Y32980D02*
D03*
Y30440D02*
D03*
Y22820D02*
D03*
Y27900D02*
D03*
Y25360D02*
D03*
X3250Y22820D02*
D03*
Y25360D02*
D03*
Y27900D02*
D03*
Y40600D02*
D03*
Y38060D02*
D03*
Y35520D02*
D03*
X5790Y38060D02*
D03*
Y40600D02*
D03*
Y35520D02*
D03*
Y43140D02*
D03*
Y50760D02*
D03*
Y48220D02*
D03*
Y45680D02*
D03*
X3250Y43140D02*
D03*
Y45680D02*
D03*
Y48220D02*
D03*
X33095Y41235D02*
D03*
X24730Y80040D02*
D03*
X10870Y48220D02*
D03*
D68*
X64210Y50760D02*
D03*
X59130Y60880D02*
D03*
X3250Y76160D02*
D03*
X18220Y21850D02*
D03*
X59130Y26884D02*
D03*
Y5040D02*
D03*
X10870Y17740D02*
D03*
X66750Y76160D02*
D03*
X10870Y40600D02*
D03*
X3250Y50760D02*
D03*
X10870Y50760D02*
D03*
D69*
X11190Y80040D02*
D03*
X44985Y41235D02*
D03*
X35635D02*
D03*
X27270Y80040D02*
D03*
D70*
X59130Y53300D02*
D03*
X43890Y2500D02*
D03*
X10870Y54570D02*
D03*
D132*
X37870Y2790D02*
D03*
M02*
