;TYPE=PLATED
;Layer: PTH_Through
;EasyEDA Pro Client v2.2.39.2, 2025-06-05 07:06:46
;Gerber Generator version 0.3
M48
METRIC,LZ,0000.00000
;Hole size 1 = 0.30480 METRIC
T01C0.30480
;Hole size 2 = 0.30500 METRIC
T02C0.30500
;Hole size 3 = 0.48260 METRIC
T03C0.48260
;Hole size 4 = 0.50800 METRIC
T04C0.50800
;Hole size 5 = 1.00000 METRIC
T05C1.00000
;Hole size 6 = 1.04999 METRIC
T06C1.04999
;Hole size 7 = 1.10002 METRIC
T07C1.10002
;Hole size 8 = 1.70002 METRIC
T08C1.70002
;Hole size 9 = 1.80000 METRIC
T09C1.80000
%
G05
G90
T01
X40.25851Y59.817
X41.54601Y59.817
X39.37Y44.4888
X39.37Y43.13596
T02
X46.22102Y19.93876
X46.23474Y15.13542
X51.56196Y40.16127
X51.56196Y34.42409
X63.50709Y39.87828
X62.72403Y37.68929
X71.62828Y39.36291
X71.62776Y33.53499
X88.9Y18.796
X87.68093Y27.76921
X84.455Y35.179
X77.08872Y1.91209
X78.47891Y17.01772
X77.724Y15.367
X79.10339Y20.066
X75.18428Y21.20191
X78.994Y7.65289
X54.35604Y24.68763
X57.65796Y24.65824
X55.98034Y21.63605
X54.12801Y29.83103
X51.56196Y30.87762
X58.09804Y37.97296
X58.1013Y34.67104
X69.32394Y9.77904
X69.32394Y11.43
X69.33895Y13.08104
X69.35426Y14.732
X69.38503Y6.57099
X51.689Y7.493
X39.548Y8.636
X40.25697Y8.636
X36.83Y8.636
X37.59369Y8.636
X34.29Y7.493
X35.31135Y7.493
X37.084Y3.94891
X38.73504Y4.03473
X40.386Y4.03473
X42.03704Y4.07823
X40.513Y26.543
X40.513Y25.781
X42.037Y26.53109
X45.06488Y22.86
X46.60202Y22.85976
X51.55009Y24.003
X51.30102Y28.06676
X51.21027Y26.416
X52.32396Y18.01967
X51.12249Y18.41504
X51.15189Y16.63704
X51.21986Y14.986
X25.781Y28.194
X25.781Y27.42851
X25.781Y25.527
X25.781Y24.765
X29.10312Y18.66211
X27.64703Y18.76602
X27.75436Y8.001
X36.2966Y17.1196
X36.2966Y17.8816
X36.2966Y18.6436
X36.2966Y19.4056
X36.2966Y20.1676
X36.2966Y20.9296
X37.0586Y17.1196
X37.0586Y17.8816
X37.0586Y18.6436
X37.0586Y19.4056
X37.0586Y20.1676
X37.0586Y20.9296
X37.8206Y17.1196
X37.8206Y17.8816
X37.8206Y18.6436
X37.8206Y19.4056
X37.8206Y20.1676
X37.8206Y20.9296
X33.655Y21.971
X35.7102Y24.05186
X37.211Y23.876
X38.481Y23.876
X35.433Y31.46984
X36.957Y31.46984
X38.481Y31.45867
X40.005Y31.46562
X37.846Y13.716
X38.481Y12.954
X37.084Y6.71909
X40.386Y6.71909
X46.20301Y18.288
X46.22721Y16.764
X75.28601Y37.21097
X75.29909Y35.687
X46.01191Y36.98299
X46.01191Y37.74499
X23.21293Y50.7746
X23.21293Y51.5366
X23.21293Y57.6326
X23.21293Y58.3946
X23.21293Y59.1566
X23.97493Y50.7746
X23.97493Y51.5366
X23.97493Y57.6326
X23.97493Y58.3946
X23.97493Y59.1566
X24.73693Y50.7746
X24.73693Y51.5366
X24.73693Y57.6326
X24.73693Y58.3946
X24.73693Y59.1566
X25.49893Y50.7746
X25.49893Y51.5366
X25.49893Y57.6326
X25.49893Y58.3946
X25.49893Y59.1566
X26.26093Y50.7746
X26.26093Y51.5366
X26.26093Y57.6326
X26.26093Y58.3946
X26.26093Y59.1566
X27.02293Y50.7746
X27.02293Y51.5366
X27.02293Y57.6326
X27.02293Y58.3946
X27.02293Y59.1566
X23.2156Y60.8076
X23.2156Y61.5696
X23.2156Y68.4276
X23.2156Y69.1896
X23.9776Y60.8076
X23.9776Y61.5696
X23.9776Y68.4276
X23.9776Y69.1896
X24.7396Y60.8076
X24.7396Y61.5696
X24.7396Y68.4276
X24.7396Y69.1896
X25.5016Y60.8076
X25.5016Y61.5696
X25.5016Y68.4276
X25.5016Y69.1896
X26.2636Y60.8076
X26.2636Y61.5696
X26.2636Y68.4276
X26.2636Y69.1896
X27.0256Y60.8076
X27.0256Y61.5696
X27.0256Y68.4276
X27.0256Y69.1896
X23.2156Y70.97014
X23.2156Y71.73214
X23.2156Y72.49414
X23.2156Y73.25614
X23.2156Y74.01814
X23.2156Y74.78014
X23.9776Y70.97014
X23.9776Y71.73214
X23.9776Y72.49414
X23.9776Y73.25614
X23.9776Y74.01814
X23.9776Y74.78014
X24.7396Y70.97014
X24.7396Y71.73214
X24.7396Y72.49414
X24.7396Y73.25614
X24.7396Y74.01814
X24.7396Y74.78014
X25.5016Y70.97014
X25.5016Y71.73214
X25.5016Y72.49414
X25.5016Y73.25614
X25.5016Y74.01814
X25.5016Y74.78014
X26.2636Y70.97014
X26.2636Y71.73214
X26.2636Y72.49414
X26.2636Y73.25614
X26.2636Y74.01814
X26.2636Y74.78014
X27.0256Y70.97014
X27.0256Y71.73214
X27.0256Y72.49414
X27.0256Y73.25614
X27.0256Y74.01814
X27.0256Y74.78014
X23.2156Y44.8056
X23.2156Y45.5676
X23.2156Y46.3296
X23.2156Y47.0916
X23.2156Y47.8536
X23.2156Y48.6156
X23.9776Y44.8056
X23.9776Y45.5676
X23.9776Y46.3296
X23.9776Y47.0916
X23.9776Y47.8536
X23.9776Y48.6156
X24.7396Y44.8056
X24.7396Y45.5676
X24.7396Y46.3296
X24.7396Y47.0916
X24.7396Y47.8536
X24.7396Y48.6156
X25.5016Y44.8056
X25.5016Y45.5676
X25.5016Y46.3296
X25.5016Y47.0916
X25.5016Y47.8536
X25.5016Y48.6156
X26.2636Y44.8056
X26.2636Y45.5676
X26.2636Y46.3296
X26.2636Y47.0916
X26.2636Y47.8536
X26.2636Y48.6156
X27.0256Y44.8056
X27.0256Y45.5676
X27.0256Y46.3296
X27.0256Y47.0916
X27.0256Y47.8536
X27.0256Y48.6156
X30.69448Y70.77067
X30.69448Y71.53267
X30.69448Y72.29467
X30.69448Y73.05667
X31.45648Y70.77067
X31.45648Y71.53267
X31.45648Y72.29467
X31.45648Y73.05667
X32.21848Y70.77067
X32.21848Y71.53267
X32.21848Y72.29467
X32.21848Y73.05667
X32.98048Y70.77067
X32.98048Y71.53267
X32.98048Y72.29467
X32.98048Y73.05667
X33.74248Y70.77067
X33.74248Y71.53267
X33.74248Y72.29467
X33.74248Y73.05667
X30.5816Y63.2206
X30.5816Y63.9826
X30.5816Y64.7446
X30.5816Y65.5066
X31.3436Y63.2206
X31.3436Y63.9826
X31.3436Y64.7446
X31.3436Y65.5066
X32.1056Y63.2206
X32.1056Y63.9826
X32.1056Y64.7446
X32.1056Y65.5066
X32.8676Y63.2206
X32.8676Y63.9826
X32.8676Y64.7446
X32.8676Y65.5066
X33.6296Y63.2206
X33.6296Y63.9826
X33.6296Y64.7446
X33.6296Y65.5066
X30.5816Y54.0766
X30.5816Y54.8386
X30.5816Y55.6006
X30.5816Y56.3626
X31.3436Y54.0766
X31.3436Y54.8386
X31.3436Y55.6006
X31.3436Y56.3626
X32.1056Y54.0766
X32.1056Y54.8386
X32.1056Y55.6006
X32.1056Y56.3626
X32.8676Y54.0766
X32.8676Y54.8386
X32.8676Y55.6006
X32.8676Y56.3626
X33.6296Y54.0766
X33.6296Y54.8386
X33.6296Y55.6006
X33.6296Y56.3626
X30.5816Y46.4566
X30.5816Y47.2186
X30.5816Y47.9806
X30.5816Y48.7426
X31.3436Y46.4566
X31.3436Y47.2186
X31.3436Y47.9806
X31.3436Y48.7426
X32.1056Y46.4566
X32.1056Y47.2186
X32.1056Y47.9806
X32.1056Y48.7426
X32.8676Y46.4566
X32.8676Y47.2186
X32.8676Y47.9806
X32.8676Y48.7426
X33.6296Y46.4566
X33.6296Y47.2186
X33.6296Y47.9806
X33.6296Y48.7426
X36.195Y14.224
X37.83406Y24.68495
X78.994Y15.367
X75.184Y15.367
X78.105Y27.16609
X79.248Y27.178
X40.513Y16.129
X41.14155Y16.70655
X48.52109Y16.63728
X32.03743Y19.91888
X41.94725Y11.557
X36.957Y13.589
X66.421Y6.604
X63.881Y36.576
X69.33656Y26.797
X54.356Y27.17153
X55.82412Y28.82969
X51.29609Y29.71799
X51.59539Y22.479
X57.79691Y16.256
X34.798Y12.53687
X27.69791Y9.525
X30.48773Y9.525
X33.84398Y25.02091
X22.479Y26.543
X27.686Y17.399
X30.55388Y15.19475
X25.146Y32.385
X40.259Y21.209
X40.259Y20.447
X40.894Y19.812
X40.259Y19.177
X33.528Y16.129
X33.36895Y19.5646
X21.463Y32.385
X27.686Y11.938
X49.657Y14.224
X49.73899Y20.066
X49.99111Y22.479
X43.56809Y27.05128
X11.557Y4.699
X88.9Y20.066
X76.454Y15.35122
X66.16001Y39.87776
X52.26202Y32.83102
X56.515Y37.719
X85.4456Y47.8536
X86.2076Y44.8056
X86.2076Y45.5676
X86.2076Y46.3296
X86.2076Y47.0916
X86.2076Y47.8536
X86.9696Y44.8056
X86.9696Y45.5676
X86.9696Y46.3296
X86.9696Y47.0916
X86.9696Y47.8536
X87.7316Y44.8056
X87.7316Y45.5676
X87.7316Y46.3296
X87.7316Y47.0916
X87.7316Y47.8536
X88.4936Y44.8056
X88.4936Y45.5676
X88.4936Y46.3296
X88.4936Y47.0916
X89.2556Y44.8056
X89.2556Y45.5676
X89.2556Y46.3296
X89.2556Y47.0916
X90.0176Y44.8056
X90.0176Y45.5676
X90.0176Y46.3296
X90.0176Y47.0916
X90.7796Y44.8056
X90.7796Y45.5676
X90.7796Y46.3296
X90.7796Y47.0916
X90.7796Y47.8536
X91.5416Y44.8056
X91.5416Y45.5676
X91.5416Y46.3296
X91.5416Y47.0916
X91.5416Y47.8536
X39.497Y45.847
X31.49628Y24.54403
X29.845Y13.51334
X44.20464Y23.63906
X39.32456Y13.8605
X30.59509Y11.176
X31.877Y9.398
X33.97677Y18.99077
X34.163Y13.335
X41.94815Y10.185
X40.132Y39.243
X40.132Y37.084
X33.401Y35.687
X33.401Y37.592
X66.675Y28.702
X69.68606Y32.43665
X54.78961Y11.24868
T03
X39.116Y76.70795
X39.116Y74.92995
X29.718Y58.547
X34.5927Y61.16396
X34.58931Y68.83552
X29.64433Y50.85003
X45.974Y72.39361
X46.101Y47.24039
X77.216Y44.4857
X77.216Y43.14087
X35.433Y34.40509
X36.957Y34.40509
X38.481Y34.40509
X40.005Y34.40509
T04
X38.9636Y68.0466
X38.9636Y68.9356
X39.8526Y68.0466
X39.8526Y68.9356
X40.7416Y68.0466
X40.7416Y68.9356
X41.6306Y68.0466
X44.2976Y68.0466
X44.2976Y68.9356
X45.1866Y68.0466
X45.1866Y68.9356
X46.0756Y68.0466
X46.0756Y68.9356
X46.9646Y68.0466
X46.9646Y68.9356
X47.8536Y68.0466
X47.8536Y68.9356
X38.83914Y50.9016
X38.83914Y51.7906
X39.72814Y50.9016
X39.72814Y51.7906
X40.61714Y50.9016
X40.61714Y51.7906
X41.50614Y50.9016
X41.50614Y51.7906
X43.66514Y50.9016
X43.66514Y51.7906
X44.55414Y50.9016
X44.55414Y51.7906
X45.44314Y50.9016
X45.44314Y51.7906
X46.33214Y50.9016
X46.33214Y51.7906
X54.9656Y62.8396
X54.9656Y63.7286
X54.9656Y64.6176
X54.9656Y65.5066
X57.6326Y62.8396
X57.6326Y63.7286
X57.6326Y64.6176
X57.6326Y65.5066
X67.1576Y62.78474
X67.1576Y63.67374
X67.1576Y64.56274
X67.1576Y65.45174
X69.8246Y62.78474
X69.8246Y63.67374
X69.8246Y64.56274
X69.8246Y65.45174
X54.9656Y54.38546
X54.9656Y55.27446
X54.9656Y56.16346
X54.9656Y57.05246
X57.6326Y54.38546
X57.6326Y55.27446
X57.6326Y56.16346
X57.6326Y57.05246
X67.1576Y54.38546
X67.1576Y55.27446
X67.1576Y56.16346
X67.1576Y57.05246
X69.8246Y54.38546
X69.8246Y55.27446
X69.8246Y56.16346
X69.8246Y57.05246
X41.6306Y68.9356
T05
X89.15413Y38.14884
X89.15413Y49.14882
T06
X82.423Y31.496
X84.963Y31.496
X82.423Y28.956
X84.963Y28.956
X82.423Y26.416
X84.963Y26.416
X82.423Y23.876
X84.963Y23.876
X82.423Y21.336
X84.963Y21.336
X82.423Y18.796
X84.963Y18.796
X82.423Y16.256
X84.963Y16.256
X82.423Y13.716
X84.963Y13.716
X82.423Y11.176
X84.963Y11.176
X82.423Y8.636
X84.963Y8.636
X82.423Y6.096
X84.963Y6.096
X82.423Y3.556
X84.963Y3.556
X62.103Y31.496
X64.643Y31.496
X62.103Y28.956
X64.643Y28.956
X62.103Y26.416
X64.643Y26.416
X62.103Y23.876
X64.643Y23.876
X62.103Y21.336
X64.643Y21.336
X62.103Y18.796
X64.643Y18.796
X62.103Y16.256
X64.643Y16.256
X62.103Y13.716
X64.643Y13.716
X62.103Y11.176
X64.643Y11.176
X62.103Y8.636
X64.643Y8.636
X62.103Y6.096
X64.643Y6.096
X62.103Y3.556
X64.643Y3.556
T07
X89.15403Y77.42085
X89.15403Y66.42087
X89.15403Y63.32385
X89.15403Y52.32387
X8.255Y36.068
X10.795Y36.068
X13.335Y36.068
X8.255Y18.288
X10.795Y18.288
X13.335Y18.288
T08
X84.15421Y46.14883
X84.15411Y41.14884
T09
X79.15402Y69.42087
X79.15402Y74.42086
X79.15402Y55.32387
X79.15402Y60.32386
M30