G04 CAM350/DFMSTREAM V15.1 (Build 2145) Date:  Thu Jun  5 07:31:08 2025 *
G04 Database: (Untitled) *
G04 Layer 6: Gerber_InnerLayer1.G1 *
%FSLAX45Y45*%
%MOMM*%
%SFA1.000B1.000*%

%MIA0B0*%
%IPPOS*%
%ADD10C,0.25400*%
%ADD12C,0.20320*%
%ADD13C,1.01600*%
%ADD14C,2.49999*%
%ADD15C,1.80000*%
%ADD16C,1.60000*%
%ADD18R,1.60000X1.60000*%
%ADD19R,1.70000X1.70000*%
%ADD70C,1.70000*%
%ADD20C,0.61000*%
%ADD21C,0.73660*%
%ADD22C,0.60960*%
%ADD23C,0.76200*%
%LNGerber_InnerLayer1.G1*%
%LPD*%
G36*
X4215000Y3291992D02*
G01X3303000D01*
Y3317646*
X4215000*
Y3291992*
G37*
G36*
X2939892Y4137660D02*
G01X35814D01*
Y4948942*
X3478869*
X3478868Y4676513*
X2939892Y4137660*
G37*
G36*
X3520440Y7020560D02*
G01X3503108D01*
X3498850Y7020814*
X35814*
Y7874000*
X37566Y7891789*
X42755Y7908894*
X51182Y7924659*
X62521Y7938477*
X76339Y7949817*
X92104Y7958245*
X109209Y7963434*
X127000Y7965186*
X3520440*
Y7020560*
G37*
G36*
X3479241Y4994916D02*
G01X35814D01*
Y5007616*
Y5085003*
Y5854700*
Y5952484*
Y5958586*
X3479241*
Y5952484*
Y5007616*
Y4994916*
G37*
G36*
X3488690Y6004560D02*
G01X41910D01*
Y6974840*
X3488690*
Y6942814*
X3474637Y6947979*
X3459785Y6949861*
X3444889Y6948363*
X3430709Y6943561*
X3417967Y6935701*
X3407313Y6925183*
X3399290Y6912544*
X3394307Y6898427*
X3392617Y6883551*
X3394307Y6868678*
X3399290Y6854561*
X3407313Y6841921*
X3417967Y6831404*
X3430709Y6823544*
X3444889Y6818742*
X3459785Y6817244*
X3474637Y6819125*
X3488690Y6824291*
Y6175827*
X3474649Y6180902*
X3459829Y6182708*
X3444981Y6181153*
X3430858Y6176315*
X3418174Y6168441*
X3407573Y6157929*
X3399593Y6145312*
X3394636Y6131230*
X3392956Y6116395*
X3394636Y6101563*
X3399593Y6087480*
X3407573Y6074864*
X3418174Y6064352*
X3430858Y6056478*
X3444981Y6051640*
X3459829Y6050085*
X3474649Y6051890*
X3488690Y6056965*
Y6004560*
G37*
G36*
X9156700Y35814D02*
G01X7302640D01*
Y366286*
Y620286*
Y874286*
Y1128286*
Y1382286*
Y1537524*
Y1636286*
Y1890286*
Y2006600*
Y2144286*
Y2398286*
Y2715918*
Y2906286*
Y3160286*
Y3267475*
X7820773*
X7831839Y3269227*
X7841823Y3274313*
X7849747Y3282237*
X7854834Y3292220*
X7856588Y3303288*
Y3799840*
X8790491*
X8794528Y3779988*
X8801699Y3761041*
X8811818Y3743490*
X8824622Y3727790*
X8839780Y3714350*
X8856900Y3703516*
X8875536Y3695571*
X8895206Y3690719*
X8915399Y3689088*
X8935592Y3690719*
X8955262Y3695571*
X8973898Y3703516*
X8991018Y3714349*
X9006176Y3727789*
X9018982Y3743488*
X9029101Y3761039*
X9036272Y3779986*
X9040309Y3799840*
X9247886*
Y126999*
X9246134Y109209*
X9240945Y92104*
X9232517Y76339*
X9221177Y62521*
X9207359Y51182*
X9191594Y42755*
X9174489Y37566*
X9156700Y35814*
G37*
G36*
X7256666D02*
G01X2171586D01*
Y366286*
Y671909*
Y952500*
Y1018500*
Y1117600*
Y1193800*
Y1351334*
Y1420414*
Y1519475*
Y1612900*
Y1739900*
Y1828800*
Y1991888*
Y2197100*
Y2454403*
Y2654300*
Y2882969*
Y2971799*
Y3146984*
Y3177193*
X2185243Y3184825*
X2196733Y3195441*
X2205417Y3208454*
X2210811Y3223140*
X2212614Y3238680*
X2210726Y3254210*
X2205253Y3268865*
X2196499Y3281831*
X2464401*
X2455897Y3269346*
X2450439Y3255260*
X2448311Y3240305*
X2449622Y3225256*
X2454306Y3210894*
X2462117Y3197965*
X2472652Y3187139*
X2485364Y3178979*
X2499593Y3173906*
X2514601Y3172186*
X2529607Y3173906*
X2543836Y3178979*
X2556548Y3187139*
X2567083Y3197965*
X2574894Y3210894*
X2579578Y3225256*
X2580889Y3240305*
X2578761Y3255260*
X2573303Y3269346*
X2564799Y3281831*
X4456411Y3281832*
X4461120Y3283102*
X4461519Y3283210*
X4461524Y3283213*
X4465244Y3286971*
X4465247Y3286976*
X4466571Y3292097*
X4463672Y3568700*
X4461435Y3782146*
X4459279Y3987776*
X4458282Y4082900*
X7329994Y4082899*
X7810614Y3803733*
Y3313449*
X7266825*
X7261749Y3312088*
X7261744Y3312085*
X7258029Y3308371*
X7258026Y3308367*
X7256666Y3303288*
Y35814*
G37*
G36*
X2125612Y48260D02*
G01X81014D01*
X65715Y59480*
X53069Y73623*
X43624Y90077*
X37788Y108130*
X35814Y127000*
Y469900*
Y1913800*
Y3440509*
Y3691800*
Y4091686*
X2944103*
X2953369Y4092906*
X2962006Y4096483*
X2969422Y4102173*
X3180894Y4313596*
X3316208Y4448880*
X3452058Y4584700*
X3514349Y4646978*
X3520042Y4654395*
X3523621Y4663034*
X3524843Y4672304*
Y4724039*
Y4914900*
Y4965699*
X3523731Y4974552*
X3525215Y4984755*
Y4997456*
Y5232400*
Y5532399*
Y5970159*
X3530354Y5977367*
X3532044Y5981700*
X3533570Y5985615*
X3534664Y5994399*
Y6332398*
Y6642100*
Y6942099*
Y6974817*
X3544715Y6977485*
X3553576Y6982928*
X3560500Y6990687*
X3564903Y7000109*
X3566414Y7010399*
Y7239361*
Y7492995*
Y7670795*
Y7742098*
Y7965186*
X9156700*
X9175570Y7963212*
X9193623Y7957376*
X9210077Y7947931*
X9224220Y7935285*
X9235440Y7919987*
Y3845814*
X9037360*
X9037356Y3845817*
X9030607Y3865462*
X9020716Y3883732*
X9007953Y3900125*
X8992667Y3914194*
X8975273Y3925557*
X8956246Y3933901*
X8936106Y3939001*
X8915401Y3940716*
X8894694Y3939001*
X8874554Y3933901*
X8855527Y3925557*
X8838133Y3914194*
X8822847Y3900125*
X8810084Y3883732*
X8800193Y3865462*
X8793440Y3845814*
X7829706*
X7366431Y4114902*
X7350718Y4124029*
X7342045Y4127640*
X7332730Y4128874*
X4448014*
X4436875Y4127097*
X4426842Y4121945*
X4418908Y4113926*
X4413862Y4103839*
X4412203Y4092684*
X4420220Y3327806*
X2161425*
X2150083Y3325961*
X2139908Y3320621*
X2131948Y3312331*
X2127022Y3301950*
X2114175Y3296513*
X2102748Y3288507*
X2093248Y3278288*
X2086099Y3266308*
X2081613Y3253097*
X2079990Y3239240*
X2081303Y3225350*
X2085493Y3212041*
X2092375Y3199905*
X2101643Y3189476*
X2112889Y3181217*
X2125612Y3175493*
Y48260*
G37*
%LPC*%
G36*
X2995314Y5792695D02*
G01X3009470Y5800124D01*
X3021436Y5810725*
X3030517Y5823881*
X3036187Y5838829*
X3038114Y5854699*
X3036187Y5870569*
X3030518Y5885517*
X3021438Y5898673*
X3009472Y5909274*
X2995316Y5916704*
X2979794Y5920531*
X2963806*
X2948284Y5916704*
X2934128Y5909274*
X2922162Y5898673*
X2913082Y5885517*
X2907413Y5870569*
X2905486Y5854699*
X2907413Y5838829*
X2913083Y5823881*
X2922164Y5810725*
X2934130Y5800124*
X2948286Y5792695*
X2963808Y5788869*
X2979792*
X2995314Y5792695*
G37*
G36*
X2987948Y5022998D02*
G01X3002103Y5030426D01*
X3014069Y5041027*
X3023151Y5054184*
X3028821Y5069132*
X3030748Y5085002*
X3028821Y5100872*
X3023152Y5115819*
X3014071Y5128976*
X3002105Y5139577*
X2987950Y5147006*
X2972428Y5150833*
X2956439*
X2940917Y5147006*
X2926762Y5139577*
X2914796Y5128976*
X2905715Y5115819*
X2900046Y5100872*
X2898119Y5085002*
X2900046Y5069132*
X2905716Y5054184*
X2914798Y5041027*
X2926764Y5030426*
X2940919Y5022998*
X2956441Y5019172*
X2972426*
X2987948Y5022998*
G37*
G36*
X8263580Y241758D02*
G01X8284136Y247607D01*
X8303267Y257133*
X8320322Y270012*
X8325417Y275600*
X8334720Y285806*
X8345972Y303976*
X8353693Y323905*
X8357620Y344913*
Y366287*
X8353693Y387295*
X8345972Y407224*
X8334720Y425394*
X8320322Y441188*
X8303267Y454067*
X8284136Y463593*
X8263580Y469442*
X8242299Y471414*
X8221018Y469442*
X8200462Y463593*
X8181331Y454066*
X8164276Y441186*
X8149878Y425392*
X8138628Y407222*
X8130907Y387293*
X8126980Y366285*
Y344915*
X8130907Y323907*
X8138628Y303978*
X8149878Y285808*
X8164276Y270014*
X8181331Y257134*
X8200462Y247607*
X8221018Y241758*
X8242299Y239786*
X8263580Y241758*
G37*
G36*
X8517580Y495758D02*
G01X8538136Y501607D01*
X8557267Y511133*
X8574322Y524012*
X8588720Y539806*
X8599972Y557976*
X8607693Y577905*
X8611620Y598913*
Y620287*
X8607693Y641295*
X8599972Y661224*
X8588720Y679394*
X8574322Y695188*
X8557267Y708067*
X8538136Y717593*
X8517580Y723442*
X8496299Y725414*
X8475018Y723442*
X8454462Y717593*
X8435331Y708066*
X8418276Y695186*
X8403878Y679392*
X8392628Y661222*
X8384907Y641293*
X8380980Y620285*
Y598915*
X8384907Y577907*
X8392628Y557978*
X8403878Y539808*
X8418276Y524014*
X8435331Y511134*
X8454462Y501607*
X8475018Y495758*
X8496299Y493786*
X8517580Y495758*
G37*
G36*
X8263580D02*
G01X8284136Y501607D01*
X8303267Y511133*
X8320322Y524012*
X8334720Y539806*
X8345972Y557976*
X8353693Y577905*
X8357620Y598913*
Y620287*
X8353693Y641295*
X8345972Y661224*
X8334720Y679394*
X8320322Y695188*
X8303267Y708067*
X8284136Y717593*
X8263580Y723442*
X8242299Y725414*
X8221018Y723442*
X8200462Y717593*
X8181331Y708066*
X8164276Y695186*
X8149878Y679392*
X8138628Y661222*
X8130907Y641293*
X8126980Y620285*
Y598915*
X8130907Y577907*
X8138628Y557978*
X8149878Y539808*
X8164276Y524014*
X8181331Y511134*
X8200462Y501607*
X8221018Y495758*
X8242299Y493786*
X8263580Y495758*
G37*
G36*
X8517580Y749758D02*
G01X8538136Y755607D01*
X8557267Y765133*
X8574322Y778012*
X8588720Y793806*
X8599972Y811976*
X8607693Y831905*
X8611620Y852913*
Y874287*
X8607693Y895295*
X8599972Y915224*
X8588720Y933394*
X8574322Y949188*
X8557267Y962067*
X8538136Y971593*
X8517580Y977442*
X8496299Y979414*
X8475018Y977442*
X8454462Y971593*
X8435331Y962066*
X8418276Y949186*
X8403878Y933392*
X8392628Y915222*
X8384907Y895293*
X8380980Y874285*
Y852915*
X8384907Y831907*
X8392628Y811978*
X8403878Y793808*
X8418276Y778014*
X8435331Y765134*
X8454462Y755607*
X8475018Y749758*
X8496299Y747786*
X8517580Y749758*
G37*
G36*
X8263580D02*
G01X8284136Y755607D01*
X8303267Y765133*
X8320322Y778012*
X8334720Y793806*
X8345972Y811976*
X8353693Y831905*
X8357620Y852913*
Y874287*
X8353693Y895295*
X8345972Y915224*
X8334720Y933394*
X8320322Y949188*
X8303267Y962067*
X8284136Y971593*
X8263580Y977442*
X8242299Y979414*
X8221018Y977442*
X8200462Y971593*
X8181331Y962066*
X8164276Y949186*
X8149878Y933392*
X8138628Y915222*
X8130907Y895293*
X8126980Y874285*
Y852915*
X8130907Y831907*
X8138628Y811978*
X8149878Y793808*
X8164276Y778014*
X8181331Y765134*
X8200462Y755607*
X8221018Y749758*
X8242299Y747786*
X8263580Y749758*
G37*
G36*
X8517580Y1003758D02*
G01X8538136Y1009607D01*
X8557267Y1019133*
X8574322Y1032012*
X8588720Y1047806*
X8599972Y1065976*
X8607693Y1085905*
X8611620Y1106913*
Y1128287*
X8607693Y1149295*
X8599972Y1169224*
X8588720Y1187394*
X8574322Y1203188*
X8557267Y1216067*
X8538136Y1225593*
X8517580Y1231442*
X8496299Y1233414*
X8475018Y1231442*
X8454462Y1225593*
X8435331Y1216066*
X8418276Y1203186*
X8403878Y1187392*
X8392628Y1169222*
X8384907Y1149293*
X8380980Y1128285*
Y1106915*
X8384907Y1085907*
X8392628Y1065978*
X8403878Y1047808*
X8418276Y1032014*
X8435331Y1019134*
X8454462Y1009607*
X8475018Y1003758*
X8496299Y1001786*
X8517580Y1003758*
G37*
G36*
X8263580D02*
G01X8284136Y1009607D01*
X8303267Y1019133*
X8320322Y1032012*
X8334720Y1047806*
X8345972Y1065976*
X8353693Y1085905*
X8357620Y1106913*
Y1128287*
X8353693Y1149295*
X8345972Y1169224*
X8334720Y1187394*
X8320322Y1203188*
X8303267Y1216067*
X8284136Y1225593*
X8263580Y1231442*
X8242299Y1233414*
X8221018Y1231442*
X8200462Y1225593*
X8181331Y1216066*
X8164276Y1203186*
X8149878Y1187392*
X8138628Y1169222*
X8130907Y1149293*
X8126980Y1128285*
Y1106915*
X8130907Y1085907*
X8138628Y1065978*
X8149878Y1047808*
X8164276Y1032014*
X8181331Y1019134*
X8200462Y1009607*
X8221018Y1003758*
X8242299Y1001786*
X8263580Y1003758*
G37*
G36*
X8517580Y1257758D02*
G01X8538136Y1263607D01*
X8557267Y1273133*
X8574322Y1286012*
X8588720Y1301806*
X8599972Y1319976*
X8607693Y1339905*
X8611620Y1360913*
Y1382287*
X8607693Y1403295*
X8599972Y1423224*
X8588720Y1441394*
X8574322Y1457188*
X8557267Y1470067*
X8538136Y1479593*
X8517580Y1485442*
X8496299Y1487414*
X8475018Y1485442*
X8454462Y1479593*
X8435331Y1470066*
X8418276Y1457186*
X8403878Y1441392*
X8392628Y1423222*
X8384907Y1403293*
X8380980Y1382285*
Y1360915*
X8384907Y1339907*
X8392628Y1319978*
X8403878Y1301808*
X8418276Y1286014*
X8435331Y1273134*
X8454462Y1263607*
X8475018Y1257758*
X8496299Y1255786*
X8517580Y1257758*
G37*
G36*
X8263580D02*
G01X8284136Y1263607D01*
X8303267Y1273133*
X8320322Y1286012*
X8334720Y1301806*
X8345972Y1319976*
X8353693Y1339905*
X8357620Y1360913*
Y1382287*
X8353693Y1403295*
X8345972Y1423224*
X8334720Y1441394*
X8320322Y1457188*
X8303267Y1470067*
X8284136Y1479593*
X8263580Y1485442*
X8242299Y1487414*
X8221018Y1485442*
X8200462Y1479593*
X8181331Y1470066*
X8164276Y1457186*
X8149878Y1441392*
X8138628Y1423222*
X8130907Y1403293*
X8126980Y1382285*
Y1360915*
X8130907Y1339907*
X8138628Y1319978*
X8149878Y1301808*
X8164276Y1286014*
X8181331Y1273134*
X8200462Y1263607*
X8221018Y1257758*
X8242299Y1255786*
X8263580Y1257758*
G37*
G36*
X7654234Y1469399D02*
G01X7669446Y1473321D01*
X7683309Y1480711*
X7695044Y1491155*
X7703993Y1504067*
X7709654Y1518722*
X7711709Y1534297*
X7711453Y1536700*
X7710042Y1549920*
X7704746Y1564710*
X7696121Y1577840*
X7684649Y1588573*
X7670975Y1596305*
X7655865Y1600605*
X7640167Y1601229*
X7624764Y1598142*
X7610518Y1591520*
X7598230Y1581732*
X7588589Y1569328*
X7582137Y1555007*
X7576042Y1569486*
X7566712Y1582126*
X7554671Y1592216*
X7540594Y1599189*
X7525272Y1602657*
X7509564Y1602423*
X7494352Y1598499*
X7480489Y1591109*
X7468754Y1580664*
X7459805Y1567752*
X7454146Y1553098*
X7452091Y1537523*
X7453758Y1521904*
X7459053Y1507113*
X7467677Y1493983*
X7479149Y1483250*
X7492823Y1475516*
X7507933Y1471217*
X7523631Y1470593*
X7539034Y1473678*
X7553280Y1480301*
X7565568Y1490088*
X7575209Y1502491*
X7581663Y1516815*
X7587757Y1502337*
X7597086Y1489698*
X7609127Y1479608*
X7623204Y1472632*
X7638526Y1469165*
X7654234Y1469399*
G37*
G36*
X7922914Y1474695D02*
G01X7937070Y1482124D01*
X7949036Y1492725*
X7958117Y1505881*
X7963787Y1520829*
X7965714Y1536699*
X7963787Y1552571*
X7958117Y1567519*
X7949036Y1580675*
X7937070Y1591276*
X7922914Y1598705*
X7907392Y1602531*
X7891406*
X7875884Y1598704*
X7861728Y1591274*
X7849762Y1580673*
X7840682Y1567517*
X7835013Y1552569*
X7833086Y1536699*
X7835013Y1520831*
X7840682Y1505883*
X7849762Y1492727*
X7861728Y1482126*
X7875884Y1474696*
X7891406Y1470869*
X7907392*
X7922914Y1474695*
G37*
G36*
X8517580Y1511758D02*
G01X8538136Y1517607D01*
X8557267Y1527133*
X8574322Y1540012*
X8588720Y1555806*
X8599972Y1573976*
X8607693Y1593905*
X8611620Y1614913*
Y1636287*
X8607693Y1657295*
X8599972Y1677224*
X8588720Y1695394*
X8574322Y1711188*
X8557267Y1724067*
X8538136Y1733593*
X8517580Y1739442*
X8496299Y1741414*
X8475018Y1739442*
X8454462Y1733593*
X8435331Y1724066*
X8418276Y1711186*
X8403878Y1695392*
X8392628Y1677222*
X8384907Y1657293*
X8380980Y1636285*
Y1614915*
X8384907Y1593907*
X8392628Y1573978*
X8403878Y1555808*
X8418276Y1540014*
X8435331Y1527134*
X8454462Y1517607*
X8475018Y1511758*
X8496299Y1509786*
X8517580Y1511758*
G37*
G36*
X8263580D02*
G01X8284136Y1517607D01*
X8303267Y1527133*
X8320322Y1540012*
X8334720Y1555806*
X8345972Y1573976*
X8353693Y1593905*
X8357620Y1614913*
Y1636287*
X8353693Y1657295*
X8345972Y1677224*
X8334720Y1695394*
X8320322Y1711188*
X8303267Y1724067*
X8284136Y1733593*
X8263580Y1739442*
X8242299Y1741414*
X8221018Y1739442*
X8200462Y1733593*
X8181331Y1724066*
X8164276Y1711186*
X8149878Y1695392*
X8138628Y1677222*
X8130907Y1657293*
X8126980Y1636285*
Y1614915*
X8130907Y1593907*
X8138628Y1573978*
X8149878Y1555808*
X8164276Y1540014*
X8181331Y1527134*
X8200462Y1517607*
X8221018Y1511758*
X8242299Y1509786*
X8263580Y1511758*
G37*
G36*
X8517580Y1765758D02*
G01X8538136Y1771607D01*
X8557267Y1781133*
X8574322Y1794012*
X8588720Y1809806*
X8599972Y1827976*
X8607693Y1847905*
X8611620Y1868913*
Y1890287*
X8607693Y1911295*
X8599972Y1931224*
X8588720Y1949394*
X8574322Y1965188*
X8557267Y1978067*
X8538136Y1987593*
X8517580Y1993442*
X8496299Y1995414*
X8475018Y1993442*
X8454462Y1987593*
X8435331Y1978066*
X8418276Y1965186*
X8403878Y1949392*
X8392628Y1931222*
X8384907Y1911293*
X8380980Y1890285*
Y1868915*
X8384907Y1847907*
X8392628Y1827978*
X8403878Y1809808*
X8418276Y1794014*
X8435331Y1781134*
X8454462Y1771607*
X8475018Y1765758*
X8496299Y1763786*
X8517580Y1765758*
G37*
G36*
X8263580D02*
G01X8284136Y1771607D01*
X8303267Y1781133*
X8320322Y1794012*
X8334720Y1809806*
X8345972Y1827976*
X8353693Y1847905*
X8357620Y1868913*
Y1890287*
X8353693Y1911295*
X8345972Y1931224*
X8334720Y1949394*
X8320322Y1965188*
X8303267Y1978067*
X8284136Y1987593*
X8263580Y1993442*
X8242299Y1995414*
X8221018Y1993442*
X8200462Y1987593*
X8181331Y1978066*
X8164276Y1965186*
X8149878Y1949392*
X8138628Y1931222*
X8130907Y1911293*
X8126980Y1890285*
Y1868915*
X8130907Y1847907*
X8138628Y1827978*
X8149878Y1809808*
X8164276Y1794014*
X8181331Y1781134*
X8200462Y1771607*
X8221018Y1765758*
X8242299Y1763786*
X8263580Y1765758*
G37*
G36*
X8913514Y1944595D02*
G01X8927670Y1952024D01*
X8939636Y1962625*
X8948717Y1975781*
X8954387Y1990729*
X8956314Y2006599*
X8954387Y2022471*
X8948717Y2037419*
X8939636Y2050575*
X8927670Y2061176*
X8913514Y2068605*
X8897992Y2072431*
X8882006*
X8866484Y2068604*
X8852328Y2061174*
X8840362Y2050573*
X8831282Y2037417*
X8825613Y2022469*
X8823686Y2006599*
X8825613Y1990731*
X8831282Y1975783*
X8840362Y1962627*
X8852328Y1952026*
X8866484Y1944596*
X8882006Y1940769*
X8897992*
X8913514Y1944595*
G37*
G36*
X8517580Y2019758D02*
G01X8538136Y2025607D01*
X8557267Y2035133*
X8574322Y2048012*
X8588720Y2063806*
X8599972Y2081976*
X8607693Y2101905*
X8611620Y2122913*
Y2144287*
X8607693Y2165295*
X8599972Y2185224*
X8588720Y2203394*
X8574322Y2219188*
X8557267Y2232067*
X8538136Y2241593*
X8517580Y2247442*
X8496299Y2249414*
X8475018Y2247442*
X8454462Y2241593*
X8435331Y2232066*
X8418276Y2219186*
X8403878Y2203392*
X8392628Y2185222*
X8384907Y2165293*
X8380980Y2144285*
Y2122915*
X8384907Y2101907*
X8392628Y2081978*
X8403878Y2063808*
X8418276Y2048014*
X8435331Y2035134*
X8454462Y2025607*
X8475018Y2019758*
X8496299Y2017786*
X8517580Y2019758*
G37*
G36*
X8263580D02*
G01X8284136Y2025607D01*
X8303267Y2035133*
X8320322Y2048012*
X8334720Y2063806*
X8345972Y2081976*
X8353693Y2101905*
X8357620Y2122913*
Y2144287*
X8353693Y2165295*
X8345972Y2185224*
X8334720Y2203394*
X8320322Y2219188*
X8303267Y2232067*
X8284136Y2241593*
X8263580Y2247442*
X8242299Y2249414*
X8221018Y2247442*
X8200462Y2241593*
X8181331Y2232066*
X8164276Y2219186*
X8149878Y2203392*
X8138628Y2185222*
X8130907Y2165293*
X8126980Y2144285*
Y2122915*
X8130907Y2101907*
X8138628Y2081978*
X8149878Y2063808*
X8164276Y2048014*
X8181331Y2035134*
X8200462Y2025607*
X8221018Y2019758*
X8242299Y2017786*
X8263580Y2019758*
G37*
G36*
X8517580Y2273758D02*
G01X8538136Y2279607D01*
X8557267Y2289133*
X8574322Y2302012*
X8588720Y2317806*
X8599972Y2335976*
X8607693Y2355905*
X8611620Y2376913*
Y2398287*
X8607693Y2419295*
X8599972Y2439224*
X8588720Y2457394*
X8574322Y2473188*
X8557267Y2486067*
X8538136Y2495593*
X8517580Y2501442*
X8496299Y2503414*
X8475018Y2501442*
X8454462Y2495593*
X8435331Y2486066*
X8418276Y2473186*
X8403878Y2457392*
X8392628Y2439222*
X8384907Y2419293*
X8380980Y2398285*
Y2376915*
X8384907Y2355907*
X8392628Y2335978*
X8403878Y2317808*
X8418276Y2302014*
X8435331Y2289134*
X8454462Y2279607*
X8475018Y2273758*
X8496299Y2271786*
X8517580Y2273758*
G37*
G36*
X8263580D02*
G01X8284136Y2279607D01*
X8303267Y2289133*
X8320322Y2302012*
X8334720Y2317806*
X8345972Y2335976*
X8353693Y2355905*
X8357620Y2376913*
Y2398287*
X8353693Y2419295*
X8345972Y2439224*
X8334720Y2457394*
X8320322Y2473188*
X8303267Y2486067*
X8284136Y2495593*
X8263580Y2501442*
X8242299Y2503414*
X8221018Y2501442*
X8200462Y2495593*
X8181331Y2486066*
X8164276Y2473186*
X8149878Y2457392*
X8138628Y2439222*
X8130907Y2419293*
X8126980Y2398285*
Y2376915*
X8130907Y2355907*
X8138628Y2335978*
X8149878Y2317808*
X8164276Y2302014*
X8181331Y2289134*
X8200462Y2279607*
X8221018Y2273758*
X8242299Y2271786*
X8263580Y2273758*
G37*
G36*
X8517580Y2527758D02*
G01X8538136Y2533607D01*
X8557267Y2543133*
X8574322Y2556012*
X8588720Y2571806*
X8599972Y2589976*
X8607693Y2609905*
X8611620Y2630913*
Y2652287*
X8607693Y2673295*
X8599972Y2693224*
X8588720Y2711394*
X8574322Y2727188*
X8557267Y2740067*
X8538136Y2749593*
X8517580Y2755442*
X8496299Y2757414*
X8475018Y2755442*
X8454462Y2749593*
X8435331Y2740066*
X8418276Y2727186*
X8403878Y2711392*
X8392628Y2693222*
X8384907Y2673293*
X8380980Y2652285*
Y2630915*
X8384907Y2609907*
X8392628Y2589978*
X8403878Y2571808*
X8418276Y2556014*
X8435331Y2543134*
X8454462Y2533607*
X8475018Y2527758*
X8496299Y2525786*
X8517580Y2527758*
G37*
G36*
X8263580D02*
G01X8284136Y2533607D01*
X8303267Y2543133*
X8320322Y2556012*
X8334720Y2571806*
X8345972Y2589976*
X8353693Y2609905*
X8357620Y2630913*
Y2652287*
X8353693Y2673295*
X8345972Y2693224*
X8334720Y2711394*
X8320322Y2727188*
X8303267Y2740067*
X8284136Y2749593*
X8263580Y2755442*
X8242299Y2757414*
X8221018Y2755442*
X8200462Y2749593*
X8181331Y2740066*
X8164276Y2727186*
X8149878Y2711392*
X8138628Y2693222*
X8130907Y2673293*
X8126980Y2652285*
Y2630915*
X8130907Y2609907*
X8138628Y2589978*
X8149878Y2571808*
X8164276Y2556014*
X8181331Y2543134*
X8200462Y2533607*
X8221018Y2527758*
X8242299Y2525786*
X8263580Y2527758*
G37*
G36*
X7832464Y2654038D02*
G01X7846554Y2660952D01*
X7858625Y2670985*
X7868000Y2683575*
X7877634Y2671185*
X7889912Y2661406*
X7904143Y2654786*
X7919532Y2651695*
X7934622Y2652286*
X7935216Y2652309*
X7950316Y2656592*
X7963987Y2664303*
X7975462Y2675012*
X7984100Y2688117*
X7989415Y2702886*
X7991110Y2718490*
X7989091Y2734058*
X7983468Y2748712*
X7974560Y2761635*
X7962864Y2772102*
X7949035Y2779527*
X7933849Y2783494*
X7918155Y2783780*
X7902834Y2780370*
X7888744Y2773455*
X7876673Y2763422*
X7867300Y2750834*
X7857664Y2763226*
X7845386Y2773004*
X7831155Y2779624*
X7815766Y2782713*
X7800082Y2782100*
X7784982Y2777817*
X7771311Y2770104*
X7759836Y2759395*
X7751199Y2746289*
X7745885Y2731521*
X7744190Y2715917*
X7746209Y2700353*
X7751831Y2685699*
X7760738Y2672776*
X7772434Y2662308*
X7786263Y2654883*
X7801449Y2650915*
X7817143Y2650628*
X7832464Y2654038*
G37*
G36*
X8517580Y2781758D02*
G01X8538136Y2787607D01*
X8557267Y2797133*
X8574322Y2810012*
X8588720Y2825806*
X8599972Y2843976*
X8607693Y2863905*
X8611620Y2884913*
Y2906287*
X8607693Y2927295*
X8599972Y2947224*
X8588720Y2965394*
X8574322Y2981188*
X8557267Y2994067*
X8538136Y3003593*
X8517580Y3009442*
X8496299Y3011414*
X8475018Y3009442*
X8454462Y3003593*
X8435331Y2994066*
X8418276Y2981186*
X8403878Y2965392*
X8392628Y2947222*
X8384907Y2927293*
X8380980Y2906285*
Y2884915*
X8384907Y2863907*
X8392628Y2843978*
X8403878Y2825808*
X8418276Y2810014*
X8435331Y2797134*
X8454462Y2787607*
X8475018Y2781758*
X8496299Y2779786*
X8517580Y2781758*
G37*
G36*
X8263580D02*
G01X8284136Y2787607D01*
X8303267Y2797133*
X8320322Y2810012*
X8334720Y2825806*
X8345972Y2843976*
X8353693Y2863905*
X8357620Y2884913*
Y2906287*
X8353693Y2927295*
X8345972Y2947224*
X8334720Y2965394*
X8320322Y2981188*
X8303267Y2994067*
X8284136Y3003593*
X8263580Y3009442*
X8242299Y3011414*
X8221018Y3009442*
X8200462Y3003593*
X8181331Y2994066*
X8164276Y2981186*
X8149878Y2965392*
X8138628Y2947222*
X8130907Y2927293*
X8126980Y2906285*
Y2884915*
X8130907Y2863907*
X8138628Y2843978*
X8149878Y2825808*
X8164276Y2810014*
X8181331Y2797134*
X8200462Y2787607*
X8221018Y2781758*
X8242299Y2779786*
X8263580Y2781758*
G37*
G36*
X8517580Y3035758D02*
G01X8538136Y3041607D01*
X8557267Y3051133*
X8574322Y3064012*
X8588720Y3079806*
X8599972Y3097976*
X8607693Y3117905*
X8611620Y3138913*
Y3160287*
X8607693Y3181295*
X8599972Y3201224*
X8588720Y3219394*
X8574322Y3235188*
X8557267Y3248067*
X8538136Y3257593*
X8517580Y3263442*
X8496299Y3265414*
X8475018Y3263442*
X8454462Y3257593*
X8435331Y3248066*
X8418276Y3235186*
X8403878Y3219392*
X8392628Y3201222*
X8384907Y3181293*
X8380980Y3160285*
Y3138915*
X8384907Y3117907*
X8392628Y3097978*
X8403878Y3079808*
X8418276Y3064014*
X8435331Y3051134*
X8454462Y3041607*
X8475018Y3035758*
X8496299Y3033786*
X8517580Y3035758*
G37*
G36*
X8263580D02*
G01X8284136Y3041607D01*
X8303267Y3051133*
X8320322Y3064012*
X8334720Y3079806*
X8345972Y3097976*
X8353693Y3117905*
X8357620Y3138913*
Y3160287*
X8353693Y3181295*
X8345972Y3201224*
X8334720Y3219394*
X8320322Y3235188*
X8303267Y3248067*
X8284136Y3257593*
X8263580Y3263442*
X8242299Y3265414*
X8221018Y3263442*
X8200462Y3257593*
X8181331Y3248066*
X8164276Y3235186*
X8149878Y3219392*
X8138628Y3201222*
X8130907Y3181293*
X8126980Y3160285*
Y3138915*
X8130907Y3117907*
X8138628Y3097978*
X8149878Y3079808*
X8164276Y3064014*
X8181331Y3051134*
X8200462Y3041607*
X8221018Y3035758*
X8242299Y3033786*
X8263580Y3035758*
G37*
G36*
X8587365Y241539D02*
G01X8597349Y246625D01*
X8605273Y254548*
X8610360Y264532*
X8612114Y275599*
Y435601*
X8610360Y446668*
X8605273Y456652*
X8597350Y464575*
X8587365Y469661*
X8576299Y471414*
X8416299*
X8405232Y469660*
X8395248Y464573*
X8387325Y456650*
X8382239Y446665*
X8380486Y435599*
Y275601*
X8382239Y264535*
X8387325Y254551*
X8395248Y246627*
X8405232Y241540*
X8416299Y239786*
X8576299*
X8587365Y241539*
G37*
G36*
X6231580Y241758D02*
G01X6252136Y247607D01*
X6271267Y257133*
X6288322Y270012*
X6302720Y285806*
X6313972Y303976*
X6321693Y323905*
X6325620Y344913*
Y366285*
X6321693Y387293*
X6313972Y407222*
X6302722Y425392*
X6293417Y435600*
X6288324Y441186*
X6271269Y454066*
X6252138Y463593*
X6231582Y469442*
X6210301Y471414*
X6189018Y469442*
X6168462Y463593*
X6149331Y454066*
X6132276Y441186*
X6117878Y425392*
X6106628Y407222*
X6098907Y387293*
X6094980Y366285*
Y344913*
X6098907Y323905*
X6106628Y303976*
X6117880Y285806*
X6132278Y270012*
X6149333Y257133*
X6168464Y247607*
X6189020Y241758*
X6210301Y239786*
X6231580Y241758*
G37*
G36*
X6485580Y495758D02*
G01X6506136Y501607D01*
X6525267Y511133*
X6542322Y524012*
X6556720Y539806*
X6567972Y557976*
X6575693Y577905*
X6579620Y598913*
Y620285*
X6575693Y641293*
X6568291Y660400*
X6567972Y661222*
X6556722Y679392*
X6542324Y695186*
X6525269Y708066*
X6506138Y717593*
X6485582Y723442*
X6464301Y725414*
X6443018Y723442*
X6422462Y717593*
X6403331Y708066*
X6386276Y695186*
X6371878Y679392*
X6360628Y661222*
X6352907Y641293*
X6348980Y620285*
Y598913*
X6352907Y577905*
X6360628Y557976*
X6371880Y539806*
X6386278Y524012*
X6403333Y511133*
X6422464Y501607*
X6443020Y495758*
X6464301Y493786*
X6485580Y495758*
G37*
G36*
X6231580D02*
G01X6252136Y501607D01*
X6271267Y511133*
X6288322Y524012*
X6302720Y539806*
X6313972Y557976*
X6321693Y577905*
X6325620Y598913*
Y620285*
X6321693Y641293*
X6313972Y661222*
X6302722Y679392*
X6288324Y695186*
X6271269Y708066*
X6252138Y717593*
X6231582Y723442*
X6210301Y725414*
X6189018Y723442*
X6168462Y717593*
X6149331Y708066*
X6132276Y695186*
X6117878Y679392*
X6106628Y661222*
X6098907Y641293*
X6094980Y620285*
Y598913*
X6098907Y577905*
X6106628Y557976*
X6117880Y539806*
X6132278Y524012*
X6149333Y511133*
X6168464Y501607*
X6189020Y495758*
X6210301Y493786*
X6231580Y495758*
G37*
G36*
X6665614Y598395D02*
G01X6679770Y605824D01*
X6691736Y616425*
X6700817Y629581*
X6706487Y644529*
X6708414Y660399*
X6706487Y676269*
X6700818Y691217*
X6691738Y704373*
X6679772Y714974*
X6665616Y722404*
X6650094Y726231*
X6634106*
X6618584Y722404*
X6604428Y714974*
X6592462Y704373*
X6583382Y691217*
X6577713Y676269*
X6575786Y660399*
X6577713Y644529*
X6583383Y629581*
X6592464Y616425*
X6604430Y605824*
X6618586Y598395*
X6634108Y594569*
X6650092*
X6665614Y598395*
G37*
G36*
X4062114Y609904D02*
G01X4076270Y617332D01*
X4079604Y620286*
X4088236Y627933*
X4097317Y641090*
X4102987Y656038*
X4104914Y671908*
X4102987Y687778*
X4097318Y702725*
X4088238Y715882*
X4076272Y726483*
X4062116Y733912*
X4046594Y737739*
X4030606*
X4015084Y733912*
X4000928Y726483*
X3988962Y715882*
X3979882Y702725*
X3974213Y687778*
X3972286Y671908*
X3974213Y656038*
X3979883Y641090*
X3988964Y627933*
X4000930Y617332*
X4015086Y609904*
X4030608Y606078*
X4046592*
X4062114Y609904*
G37*
G36*
X3731914D02*
G01X3746070Y617332D01*
X3758036Y627933*
X3767117Y641090*
X3772787Y656038*
X3774714Y671908*
X3772787Y687778*
X3767118Y702725*
X3758038Y715882*
X3746072Y726483*
X3731916Y733912*
X3716394Y737739*
X3700406*
X3684884Y733912*
X3670728Y726483*
X3658762Y715882*
X3649682Y702725*
X3644013Y687778*
X3642086Y671908*
X3644013Y656038*
X3649683Y641090*
X3658764Y627933*
X3670730Y617332*
X3684886Y609904*
X3700408Y606078*
X3716392*
X3731914Y609904*
G37*
G36*
X6485580Y749758D02*
G01X6506136Y755607D01*
X6525267Y765133*
X6542322Y778012*
X6556720Y793806*
X6567972Y811976*
X6575693Y831905*
X6579620Y852913*
Y874285*
X6575693Y895293*
X6567972Y915222*
X6556722Y933392*
X6542324Y949186*
X6525269Y962066*
X6506138Y971593*
X6485582Y977442*
X6464301Y979414*
X6443018Y977442*
X6422462Y971593*
X6403331Y962066*
X6386276Y949186*
X6371878Y933392*
X6360628Y915222*
X6352907Y895293*
X6348980Y874285*
Y852913*
X6352907Y831905*
X6360628Y811976*
X6371880Y793806*
X6386278Y778012*
X6403333Y765133*
X6422464Y755607*
X6443020Y749758*
X6464301Y747786*
X6485580Y749758*
G37*
G36*
X6231580D02*
G01X6252136Y755607D01*
X6271267Y765133*
X6288322Y778012*
X6302720Y793806*
X6313972Y811976*
X6321693Y831905*
X6325620Y852913*
Y874285*
X6321693Y895293*
X6313972Y915222*
X6302722Y933392*
X6288324Y949186*
X6271269Y962066*
X6252138Y971593*
X6231582Y977442*
X6210301Y979414*
X6189018Y977442*
X6168462Y971593*
X6149331Y962066*
X6132276Y949186*
X6117878Y933392*
X6106628Y915222*
X6098907Y895293*
X6094980Y874285*
Y852913*
X6098907Y831905*
X6106628Y811976*
X6117880Y793806*
X6132278Y778012*
X6149333Y765133*
X6168464Y755607*
X6189020Y749758*
X6210301Y747786*
X6231580Y749758*
G37*
G36*
X3196977Y874286D02*
G01X3211214Y877795D01*
X3225370Y885224*
X3237336Y895825*
X3246417Y908981*
X3252087Y923929*
X3254014Y939799*
X3252087Y955669*
X3246418Y970617*
X3237338Y983773*
X3225372Y994374*
X3211216Y1001804*
X3195694Y1005631*
X3179706*
X3164184Y1001804*
X3150028Y994374*
X3138062Y983773*
X3128982Y970617*
X3123313Y955669*
X3121386Y939799*
X3123313Y923929*
X3128983Y908981*
X3138064Y895825*
X3150030Y885224*
X3164186Y877795*
X3179708Y873969*
X3195692*
X3196977Y874286*
G37*
G36*
X3072287Y890495D02*
G01X3086442Y897924D01*
X3098408Y908525*
X3107490Y921681*
X3113160Y936629*
X3113545Y939800*
X3115087Y952499*
X3113160Y968369*
X3107491Y983317*
X3098410Y996473*
X3086444Y1007074*
X3072289Y1014504*
X3056767Y1018331*
X3040778*
X3025256Y1014504*
X3011101Y1007074*
X2999135Y996473*
X2990054Y983317*
X2984386Y968369*
X2982459Y952499*
X2984386Y936629*
X2990055Y921681*
X2999137Y908525*
X3011103Y897924*
X3025258Y890495*
X3040780Y886669*
X3056765*
X3072287Y890495*
G37*
G36*
X2793306D02*
G01X2807461Y897924D01*
X2819427Y908525*
X2828508Y921681*
X2834178Y936629*
X2836105Y952499*
X2834178Y968369*
X2828509Y983317*
X2819429Y996473*
X2807463Y1007074*
X2793308Y1014504*
X2777786Y1018331*
X2761797*
X2746275Y1014504*
X2732120Y1007074*
X2720153Y996473*
X2711073Y983317*
X2705404Y968369*
X2703477Y952499*
X2705404Y936629*
X2711074Y921681*
X2720155Y908525*
X2732122Y897924*
X2746277Y890495*
X2761799Y886669*
X2777784*
X2793306Y890495*
G37*
G36*
X4218329Y956495D02*
G01X4232485Y963924D01*
X4244451Y974525*
X4253532Y987681*
X4259202Y1002629*
X4261129Y1018499*
X4259202Y1034369*
X4253533Y1049317*
X4244453Y1062473*
X4232487Y1073075*
X4218331Y1080504*
X4202809Y1084331*
X4186821*
X4171299Y1080504*
X4157143Y1073075*
X4145177Y1062473*
X4136097Y1049317*
X4130428Y1034369*
X4128501Y1018499*
X4130428Y1002629*
X4136098Y987681*
X4145179Y974525*
X4157145Y963924*
X4171301Y956495*
X4186823Y952670*
X4202807*
X4218329Y956495*
G37*
G36*
X6485580Y1003758D02*
G01X6506136Y1009607D01*
X6525267Y1019133*
X6542322Y1032012*
X6556720Y1047806*
X6567972Y1065976*
X6575693Y1085905*
X6579620Y1106913*
Y1128285*
X6575693Y1149293*
X6567972Y1169222*
X6556722Y1187392*
X6542324Y1203186*
X6525269Y1216066*
X6506138Y1225593*
X6485582Y1231442*
X6464301Y1233414*
X6443018Y1231442*
X6422462Y1225593*
X6403331Y1216066*
X6386276Y1203186*
X6371878Y1187392*
X6360628Y1169222*
X6352907Y1149293*
X6348980Y1128285*
Y1106913*
X6352907Y1085905*
X6360628Y1065976*
X6371880Y1047806*
X6386278Y1032012*
X6403333Y1019133*
X6422464Y1009607*
X6443020Y1003758*
X6464301Y1001786*
X6485580Y1003758*
G37*
G36*
X6231580D02*
G01X6252136Y1009607D01*
X6271267Y1019133*
X6288322Y1032012*
X6302720Y1047806*
X6313972Y1065976*
X6321693Y1085905*
X6325620Y1106913*
Y1128285*
X6321693Y1149293*
X6313972Y1169222*
X6302722Y1187392*
X6288324Y1203186*
X6271269Y1216066*
X6252138Y1225593*
X6231582Y1231442*
X6210301Y1233414*
X6189018Y1231442*
X6168462Y1225593*
X6149331Y1216066*
X6132276Y1203186*
X6117878Y1187392*
X6106628Y1169222*
X6098907Y1149293*
X6094980Y1128285*
Y1106913*
X6098907Y1085905*
X6106628Y1065976*
X6117880Y1047806*
X6132278Y1032012*
X6149333Y1019133*
X6168464Y1009607*
X6189020Y1003758*
X6210301Y1001786*
X6231580Y1003758*
G37*
G36*
X3083023Y1055595D02*
G01X3097178Y1063024D01*
X3109145Y1073625*
X3118226Y1086781*
X3123896Y1101729*
X3125823Y1117599*
X3123896Y1133469*
X3118227Y1148417*
X3113200Y1155700*
X3109147Y1161573*
X3097180Y1172174*
X3083025Y1179604*
X3067503Y1183431*
X3051514*
X3035992Y1179604*
X3021837Y1172174*
X3009871Y1161573*
X3000791Y1148417*
X2995122Y1133469*
X2993195Y1117599*
X2995122Y1101729*
X3000792Y1086781*
X3009873Y1073625*
X3021839Y1063024*
X3035994Y1055595*
X3051516Y1051769*
X3067501*
X3083023Y1055595*
G37*
G36*
X5502475Y1062863D02*
G01X5516630Y1070291D01*
X5528596Y1080892*
X5537678Y1094049*
X5543348Y1108997*
X5545275Y1124867*
X5544860Y1128286*
X5543348Y1140737*
X5537679Y1155684*
X5528598Y1168841*
X5516632Y1179442*
X5502477Y1186871*
X5486955Y1190698*
X5470966*
X5455444Y1186871*
X5441289Y1179442*
X5429323Y1168841*
X5420242Y1155684*
X5414573Y1140737*
X5412647Y1124867*
X5414573Y1108997*
X5420243Y1094049*
X5429325Y1080892*
X5441291Y1070291*
X5455446Y1062863*
X5470968Y1059037*
X5486953*
X5502475Y1062863*
G37*
G36*
X4218239Y1093695D02*
G01X4232395Y1101124D01*
X4244361Y1111725*
X4253433Y1124868*
X4253442Y1124881*
X4259112Y1139829*
X4261039Y1155699*
X4259112Y1171569*
X4253443Y1186517*
X4244363Y1199673*
X4232397Y1210274*
X4218241Y1217704*
X4202719Y1221531*
X4186731*
X4171209Y1217704*
X4157053Y1210274*
X4145087Y1199673*
X4136007Y1186517*
X4130338Y1171569*
X4128411Y1155699*
X4130338Y1139829*
X4136008Y1124881*
X4145089Y1111725*
X4157055Y1101124*
X4171211Y1093695*
X4186733Y1089869*
X4202717*
X4218239Y1093695*
G37*
G36*
X2792114Y1131795D02*
G01X2806270Y1139224D01*
X2818236Y1149825*
X2827317Y1162981*
X2832987Y1177929*
X2834914Y1193799*
X2832987Y1209669*
X2827318Y1224617*
X2818238Y1237773*
X2806272Y1248374*
X2792116Y1255804*
X2776594Y1259631*
X2760606*
X2745084Y1255804*
X2730928Y1248374*
X2718962Y1237773*
X2709882Y1224617*
X2704213Y1209669*
X2702286Y1193799*
X2704213Y1177929*
X2709883Y1162981*
X2718964Y1149825*
X2730930Y1139224*
X2745086Y1131795*
X2760608Y1127969*
X2776592*
X2792114Y1131795*
G37*
G36*
X3491830Y1188474D02*
G01X3507278Y1193334D01*
X3521086Y1201793*
X3532432Y1213347*
X3540640Y1227306*
X3545221Y1242839*
X3545899Y1259018*
X3542636Y1274880*
X3535627Y1289478*
X3525288Y1301941*
X3512236Y1311527*
X3497250Y1317663*
X3481222Y1319986*
X3482562Y1336123*
X3479950Y1352105*
X3473544Y1366977*
X3463723Y1379853*
X3451075Y1389965*
X3436352Y1396709*
X3420434Y1399685*
X3404268Y1398713*
X3388820Y1393852*
X3375012Y1385393*
X3363666Y1373838*
X3355459Y1359879*
X3350879Y1344346*
X3350201Y1328167*
X3353465Y1312305*
X3360475Y1297708*
X3370814Y1285244*
X3383866Y1275659*
X3398852Y1269523*
X3414878Y1267201*
X3413538Y1251062*
X3416150Y1235080*
X3422558Y1220208*
X3432379Y1207332*
X3445027Y1197222*
X3459750Y1190477*
X3475668Y1187502*
X3491830Y1188474*
G37*
G36*
X3858169Y1229855D02*
G01X3873103Y1233981D01*
X3886672Y1241458*
X3898136Y1251880*
X3906868Y1264679*
X3912393Y1279154*
X3914408Y1294516*
X3912803Y1309926*
X3907668Y1324542*
X3922426Y1320499*
X3937716Y1319945*
X3952729Y1322911*
X3966661Y1329239*
X3978772Y1338592*
X3988417Y1350472*
X3995082Y1364247*
X3998413Y1379182*
X3998231Y1394484*
X3994547Y1409336*
X3987838Y1422400*
X3987556Y1422948*
X3977632Y1434596*
X3965302Y1443658*
X3951222Y1449654*
X3936144Y1452262*
X3920867Y1451344*
X3906209Y1446949*
X3892949Y1439311*
X3881792Y1428838*
X3873334Y1416086*
X3868023Y1401735*
X3866143Y1386548*
X3867795Y1371335*
X3872888Y1356908*
X3861740Y1360296*
X3850168Y1361682*
X3850765Y1376045*
X3848252Y1390200*
X3842747Y1403481*
X3834511Y1415263*
X3823928Y1424993*
X3811496Y1432214*
X3797801Y1436587*
X3783485Y1437905*
X3769219Y1436106*
X3755679Y1431275*
X3743497Y1423639*
X3733248Y1413559*
X3722372Y1419614*
X3710554Y1423529*
X3698213Y1425166*
X3685783Y1424468*
X3683363Y1440263*
X3677235Y1455022*
X3667755Y1467886*
X3655472Y1478109*
X3641101Y1485097*
X3625475Y1488444*
X3609500Y1487956*
X3594108Y1483659*
X3580190Y1475807*
X3568555Y1464852*
X3559879Y1451433*
X3554665Y1436327*
X3553216Y1420413*
X3555617Y1404613*
X3561726Y1389847*
X3571191Y1376971*
X3583461Y1366733*
X3597824Y1359729*
X3613446Y1356363*
X3629418Y1356832*
X3631855Y1340973*
X3638029Y1326165*
X3647579Y1313272*
X3659945Y1303050*
X3674404Y1296099*
X3690110Y1292822*
X3706141Y1293413*
X3721563Y1297837*
X3735470Y1305835*
X3747050Y1316940*
X3758066Y1310826*
X3770036Y1306905*
X3782532Y1305318*
X3782020Y1289832*
X3785116Y1274651*
X3791650Y1260603*
X3801264Y1248454*
X3813436Y1238868*
X3827499Y1232367*
X3842688Y1229307*
X3858169Y1229855*
G37*
G36*
X6485580Y1257758D02*
G01X6506136Y1263607D01*
X6525267Y1273133*
X6542322Y1286012*
X6556720Y1301806*
X6567972Y1319976*
X6575693Y1339905*
X6579620Y1360913*
Y1382285*
X6575693Y1403293*
X6567972Y1423222*
X6556722Y1441392*
X6542324Y1457186*
X6525269Y1470066*
X6506138Y1479593*
X6485582Y1485442*
X6464301Y1487414*
X6443018Y1485442*
X6422462Y1479593*
X6403331Y1470066*
X6386276Y1457186*
X6371878Y1441392*
X6360628Y1423222*
X6352907Y1403293*
X6348980Y1382285*
Y1360913*
X6352907Y1339905*
X6360628Y1319976*
X6371880Y1301806*
X6386278Y1286012*
X6403333Y1273133*
X6422464Y1263607*
X6443020Y1257758*
X6464301Y1255786*
X6485580Y1257758*
G37*
G36*
X6231580D02*
G01X6252136Y1263607D01*
X6271267Y1273133*
X6288322Y1286012*
X6302720Y1301806*
X6313972Y1319976*
X6321693Y1339905*
X6325620Y1360913*
Y1382285*
X6321693Y1403293*
X6313972Y1423222*
X6302722Y1441392*
X6288324Y1457186*
X6271269Y1470066*
X6252138Y1479593*
X6231582Y1485442*
X6210301Y1487414*
X6189018Y1485442*
X6168462Y1479593*
X6149331Y1470066*
X6132276Y1457186*
X6117878Y1441392*
X6106628Y1423222*
X6098907Y1403293*
X6094980Y1382285*
Y1360913*
X6098907Y1339905*
X6106628Y1319976*
X6117880Y1301806*
X6132278Y1286012*
X6149333Y1273133*
X6168464Y1263607*
X6189020Y1257758*
X6210301Y1255786*
X6231580Y1257758*
G37*
G36*
X3008014Y1289330D02*
G01X3022170Y1296758D01*
X3034136Y1307359*
X3043217Y1320516*
X3046120Y1328168*
X3048887Y1335463*
X3050814Y1351333*
X3048887Y1367203*
X3043218Y1382151*
X3034138Y1395308*
X3022172Y1405909*
X3008016Y1413338*
X2992494Y1417165*
X2976506*
X2960984Y1413338*
X2946828Y1405909*
X2934862Y1395308*
X2925782Y1382151*
X2920113Y1367203*
X2918186Y1351333*
X2920113Y1335463*
X2925783Y1320516*
X2934864Y1307359*
X2946830Y1296758*
X2960986Y1289330*
X2976508Y1285504*
X2992492*
X3008014Y1289330*
G37*
G36*
X4989214Y1360395D02*
G01X5003370Y1367824D01*
X5015336Y1378425*
X5018001Y1382286*
X5024417Y1391581*
X5030087Y1406529*
X5032014Y1422399*
X5030087Y1438269*
X5024418Y1453217*
X5015338Y1466373*
X5003372Y1476974*
X4989216Y1484404*
X4973694Y1488231*
X4957706*
X4942184Y1484404*
X4928028Y1476974*
X4916062Y1466373*
X4906982Y1453217*
X4901313Y1438269*
X4899386Y1422399*
X4901313Y1406529*
X4906983Y1391581*
X4916064Y1378425*
X4928030Y1367824*
X4942186Y1360395*
X4957708Y1356569*
X4973692*
X4989214Y1360395*
G37*
G36*
X3078902Y1457470D02*
G01X3093058Y1464899D01*
X3105024Y1475500*
X3114105Y1488656*
X3119775Y1503604*
X3121702Y1519474*
X3119775Y1535344*
X3114106Y1550292*
X3105026Y1563448*
X3093060Y1574049*
X3078904Y1581479*
X3063382Y1585306*
X3047394*
X3031872Y1581479*
X3017716Y1574049*
X3005750Y1563448*
X2996670Y1550292*
X2991001Y1535344*
X2989074Y1519474*
X2991001Y1503604*
X2996671Y1488656*
X3005752Y1475500*
X3017718Y1464899*
X3031874Y1457470*
X3047396Y1453644*
X3063380*
X3078902Y1457470*
G37*
G36*
X6485580Y1511758D02*
G01X6506136Y1517607D01*
X6525267Y1527133*
X6542322Y1540012*
X6556720Y1555806*
X6567972Y1573976*
X6575693Y1593905*
X6579620Y1614913*
Y1636285*
X6575693Y1657293*
X6567972Y1677222*
X6556722Y1695392*
X6542324Y1711186*
X6525269Y1724066*
X6506138Y1733593*
X6485582Y1739442*
X6464301Y1741414*
X6443018Y1739442*
X6422462Y1733593*
X6403331Y1724066*
X6386276Y1711186*
X6371878Y1695392*
X6360628Y1677222*
X6352907Y1657293*
X6348980Y1636285*
Y1614913*
X6352907Y1593905*
X6360628Y1573976*
X6371880Y1555806*
X6386278Y1540012*
X6403333Y1527133*
X6422464Y1517607*
X6443020Y1511758*
X6464301Y1509786*
X6485580Y1511758*
G37*
G36*
X6231580D02*
G01X6252136Y1517607D01*
X6271267Y1527133*
X6288322Y1540012*
X6302720Y1555806*
X6313972Y1573976*
X6321693Y1593905*
X6325620Y1614913*
Y1636285*
X6321693Y1657293*
X6313972Y1677222*
X6302722Y1695392*
X6288324Y1711186*
X6271269Y1724066*
X6252138Y1733593*
X6231582Y1739442*
X6210301Y1741414*
X6189018Y1739442*
X6168462Y1733593*
X6149331Y1724066*
X6132276Y1711186*
X6117878Y1695392*
X6106628Y1677222*
X6098907Y1657293*
X6094980Y1636285*
Y1614913*
X6098907Y1593905*
X6106628Y1573976*
X6117880Y1555806*
X6132278Y1540012*
X6149333Y1527133*
X6168464Y1517607*
X6189020Y1511758*
X6210301Y1509786*
X6231580Y1511758*
G37*
G36*
X4071361Y1549693D02*
G01X4085071Y1555829D01*
X4097049Y1564893*
X4106679Y1576421*
X4113469Y1589821*
X4117067Y1604402*
X4131902Y1606760*
X4145826Y1612394*
X4158126Y1621015*
X4168169Y1632185*
X4175441Y1645328*
X4179570Y1659771*
X4180341Y1674772*
X4180052Y1676400*
X4177716Y1689562*
X4171830Y1703382*
X4162986Y1715522*
X4151636Y1725361*
X4138362Y1732392*
X4123846Y1736257*
X4108832Y1736755*
X4094092Y1733862*
X4080382Y1727724*
X4068404Y1718660*
X4058774Y1707132*
X4051986Y1693732*
X4048384Y1679150*
X4033551Y1676795*
X4019626Y1671160*
X4007327Y1662538*
X3997283Y1651368*
X3990012Y1638225*
X3985885Y1623782*
X3985114Y1608781*
X3987739Y1593991*
X3993626Y1580171*
X4002471Y1568031*
X4013821Y1558193*
X4027095Y1551162*
X4041610Y1547298*
X4056621Y1546800*
X4071361Y1549693*
G37*
G36*
X3376314Y1550895D02*
G01X3390470Y1558324D01*
X3402436Y1568925*
X3411517Y1582081*
X3417187Y1597029*
X3418614Y1608782*
X3419114Y1612899*
X3417187Y1628769*
X3411518Y1643717*
X3402438Y1656873*
X3390472Y1667474*
X3376316Y1674904*
X3360794Y1678731*
X3344806*
X3329284Y1674904*
X3315128Y1667474*
X3303162Y1656873*
X3294082Y1643717*
X3288413Y1628769*
X3286486Y1612899*
X3288413Y1597029*
X3294083Y1582081*
X3303164Y1568925*
X3315130Y1558324*
X3329286Y1550895*
X3344808Y1547069*
X3360792*
X3376314Y1550895*
G37*
G36*
X5803206Y1563595D02*
G01X5817361Y1571024D01*
X5829327Y1581625*
X5838408Y1594781*
X5844078Y1609729*
X5846005Y1625599*
X5844708Y1636286*
X5844078Y1641469*
X5838409Y1656417*
X5829329Y1669573*
X5817363Y1680174*
X5803208Y1687604*
X5787686Y1691431*
X5771697*
X5756175Y1687604*
X5742020Y1680174*
X5730053Y1669573*
X5720973Y1656417*
X5715304Y1641469*
X5713377Y1625599*
X5715304Y1609729*
X5720974Y1594781*
X5730055Y1581625*
X5742022Y1571024*
X5756177Y1563595*
X5771699Y1559769*
X5787684*
X5803206Y1563595*
G37*
G36*
X4875623Y1601723D02*
G01X4889778Y1609152D01*
X4901744Y1619753*
X4905781Y1625600*
X4910826Y1632909*
X4916496Y1647857*
X4918423Y1663727*
X4916496Y1679597*
X4910827Y1694545*
X4901746Y1707701*
X4889780Y1718302*
X4875625Y1725732*
X4860103Y1729559*
X4844114*
X4828592Y1725732*
X4814437Y1718302*
X4802471Y1707701*
X4793390Y1694545*
X4787722Y1679597*
X4785795Y1663727*
X4787722Y1647857*
X4793391Y1632909*
X4802473Y1619753*
X4814439Y1609152*
X4828594Y1601723*
X4844116Y1597897*
X4860101*
X4875623Y1601723*
G37*
G36*
X4646236Y1614395D02*
G01X4660391Y1621824D01*
X4672357Y1632425*
X4681438Y1645581*
X4687108Y1660529*
X4687497Y1663728*
X4689035Y1676399*
X4687108Y1692269*
X4681439Y1707217*
X4672359Y1720373*
X4660393Y1730974*
X4646238Y1738404*
X4630716Y1742231*
X4614727*
X4599205Y1738404*
X4585050Y1730974*
X4573083Y1720373*
X4564003Y1707217*
X4558334Y1692269*
X4556407Y1676399*
X4558334Y1660529*
X4564004Y1645581*
X4573085Y1632425*
X4585052Y1621824*
X4599207Y1614395*
X4614729Y1610569*
X4630714*
X4646236Y1614395*
G37*
G36*
X2792114Y1677895D02*
G01X2806270Y1685324D01*
X2818236Y1695925*
X2827317Y1709081*
X2832987Y1724029*
X2834914Y1739899*
X2832987Y1755769*
X2827318Y1770717*
X2818238Y1783873*
X2806272Y1794474*
X2792116Y1801904*
X2776594Y1805731*
X2760606*
X2745084Y1801904*
X2730928Y1794474*
X2718962Y1783873*
X2709882Y1770717*
X2704213Y1755769*
X2702286Y1739899*
X2704213Y1724029*
X2709883Y1709081*
X2718964Y1695925*
X2730930Y1685324*
X2745086Y1677895*
X2760608Y1674069*
X2776592*
X2792114Y1677895*
G37*
G36*
X4643815Y1766795D02*
G01X4657970Y1774224D01*
X4669936Y1784825*
X4679018Y1797981*
X4684688Y1812929*
X4686615Y1828799*
X4684688Y1844669*
X4679019Y1859617*
X4669938Y1872773*
X4657972Y1883374*
X4644804Y1890286*
X4643817Y1890804*
X4628295Y1894631*
X4612306*
X4596784Y1890804*
X4582629Y1883374*
X4570663Y1872773*
X4561582Y1859617*
X4555914Y1844669*
X4553987Y1828799*
X4555914Y1812929*
X4561583Y1797981*
X4570665Y1784825*
X4582631Y1774224*
X4596786Y1766795*
X4612308Y1762969*
X4628293*
X4643815Y1766795*
G37*
G36*
X6485580Y1765758D02*
G01X6506136Y1771607D01*
X6525267Y1781133*
X6542322Y1794012*
X6556720Y1809806*
X6567972Y1827976*
X6575693Y1847905*
X6579620Y1868913*
Y1890285*
X6575693Y1911293*
X6567972Y1931222*
X6556722Y1949392*
X6542324Y1965186*
X6525269Y1978066*
X6506138Y1987593*
X6485582Y1993442*
X6464301Y1995414*
X6443018Y1993442*
X6422462Y1987593*
X6403331Y1978066*
X6386276Y1965186*
X6371878Y1949392*
X6360628Y1931222*
X6352907Y1911293*
X6348980Y1890285*
Y1868913*
X6352907Y1847905*
X6360628Y1827976*
X6371880Y1809806*
X6386278Y1794012*
X6403333Y1781133*
X6422464Y1771607*
X6443020Y1765758*
X6464301Y1763786*
X6485580Y1765758*
G37*
G36*
X6231580D02*
G01X6252136Y1771607D01*
X6271267Y1781133*
X6288322Y1794012*
X6302720Y1809806*
X6313972Y1827976*
X6321693Y1847905*
X6325620Y1868913*
Y1890285*
X6321693Y1911293*
X6313972Y1931222*
X6302722Y1949392*
X6288324Y1965186*
X6271269Y1978066*
X6252138Y1987593*
X6231582Y1993442*
X6210301Y1995414*
X6189018Y1993442*
X6168462Y1987593*
X6149331Y1978066*
X6132276Y1965186*
X6117878Y1949392*
X6106628Y1931222*
X6098907Y1911293*
X6094980Y1890285*
Y1868913*
X6098907Y1847905*
X6106628Y1827976*
X6117880Y1809806*
X6132278Y1794012*
X6149333Y1781133*
X6168464Y1771607*
X6189020Y1765758*
X6210301Y1763786*
X6231580Y1765758*
G37*
G36*
X3406821Y1833396D02*
G01X3421261Y1837098D01*
X3434509Y1843932*
X3445895Y1853552*
X3454846Y1865473*
X3460908Y1879092*
X3463774Y1893720*
X3463300Y1908620*
X3459830Y1921822*
X3459511Y1923037*
X3452596Y1936243*
X3442908Y1947571*
X3430932Y1956449*
X3417277Y1962428*
X3402633Y1965205*
X3399016Y1979667*
X3392263Y1992956*
X3382712Y2004401*
X3370846Y2013424*
X3357264Y2019569*
X3342653Y2022524*
X3327749Y2022140*
X3313309Y2018437*
X3300061Y2011603*
X3288675Y2001983*
X3279724Y1990062*
X3273664Y1976443*
X3270798Y1961814*
X3271272Y1946915*
X3275062Y1932498*
X3281977Y1919292*
X3291666Y1907963*
X3303642Y1899087*
X3317297Y1893108*
X3331943Y1890328*
X3335556Y1875868*
X3342311Y1862579*
X3351862Y1851134*
X3363728Y1842111*
X3377310Y1835968*
X3391921Y1833013*
X3406821Y1833396*
G37*
G36*
X4046317Y1854607D02*
G01X4060912Y1861383D01*
X4073445Y1871473*
X4083180Y1884285*
X4089542Y1899065*
X4092157Y1914940*
X4106450Y1917115*
X4119933Y1922334*
X4131965Y1930350*
X4141974Y1940783*
X4149484Y1953138*
X4154138Y1966827*
X4155714Y1981199*
X4154138Y1995571*
X4150389Y2006600*
X4149485Y2009260*
X4141976Y2021615*
X4131967Y2032048*
X4119935Y2040065*
X4106452Y2045285*
X4092160Y2047457*
X4090441Y2059929*
X4086399Y2071854*
X4080178Y2082798*
Y2082802*
X4087737Y2096950*
X4091680Y2112502*
X4091772Y2128546*
X4088007Y2144142*
X4087933Y2144286*
X4080607Y2158378*
X4070006Y2170420*
X4056822Y2179563*
X4041827Y2185273*
X4025901Y2187214*
X4009973Y2185273*
X3994978Y2179563*
X3981794Y2170420*
X3971193Y2158378*
X3963793Y2144142*
X3960028Y2128546*
X3960120Y2112502*
X3964063Y2096950*
X3971622Y2082802*
Y2082798*
X3964212Y2069033*
X3960229Y2053915*
X3959897Y2038284*
X3963234Y2023010*
X3970053Y2008942*
X3979977Y1996860*
X3992453Y1987438*
X4006786Y1981200*
X3992054Y1974726*
X3979315Y1964896*
X3969319Y1952286*
X3962655Y1937641*
X3959714Y1921821*
X3960670Y1905758*
X3965467Y1890399*
X3973822Y1876647*
X3985242Y1865312*
X3999057Y1857062*
X4014452Y1852382*
X4030520Y1851547*
X4046317Y1854607*
G37*
G36*
X3227258Y1929883D02*
G01X3241413Y1937311D01*
X3253379Y1947912*
X3262461Y1961069*
X3262744Y1961815*
X3268131Y1976017*
X3270057Y1991887*
X3268131Y2007757*
X3262462Y2022704*
X3253381Y2035861*
X3241415Y2046462*
X3227260Y2053891*
X3211738Y2057718*
X3195749*
X3180227Y2053891*
X3166072Y2046462*
X3154106Y2035861*
X3145025Y2022704*
X3139356Y2007757*
X3137429Y1991887*
X3139356Y1976017*
X3145026Y1961069*
X3154108Y1947912*
X3166074Y1937311*
X3180229Y1929883*
X3195751Y1926057*
X3211736*
X3227258Y1929883*
G37*
G36*
X4997413Y1944595D02*
G01X5011568Y1952024D01*
X5023534Y1962625*
X5032616Y1975781*
X5038286Y1990729*
X5040213Y2006599*
X5038286Y2022469*
X5032617Y2037417*
X5023536Y2050573*
X5011570Y2061174*
X4997415Y2068604*
X4981893Y2072431*
X4965904*
X4950382Y2068604*
X4936227Y2061174*
X4924261Y2050573*
X4915180Y2037417*
X4909512Y2022469*
X4907585Y2006599*
X4909512Y1990729*
X4915181Y1975781*
X4924263Y1962625*
X4936229Y1952024*
X4950384Y1944595*
X4965906Y1940769*
X4981891*
X4997413Y1944595*
G37*
G36*
X6485580Y2019758D02*
G01X6506136Y2025607D01*
X6525267Y2035133*
X6542322Y2048012*
X6556720Y2063806*
X6567972Y2081976*
X6575693Y2101905*
X6579620Y2122913*
Y2144285*
X6575693Y2165293*
X6567972Y2185222*
X6556722Y2203392*
X6542324Y2219186*
X6525269Y2232066*
X6506138Y2241593*
X6485582Y2247442*
X6464301Y2249414*
X6443018Y2247442*
X6422462Y2241593*
X6403331Y2232066*
X6386276Y2219186*
X6371878Y2203392*
X6360628Y2185222*
X6352907Y2165293*
X6348980Y2144285*
Y2122913*
X6352907Y2101905*
X6360628Y2081976*
X6371880Y2063806*
X6386278Y2048012*
X6403333Y2035133*
X6422464Y2025607*
X6443020Y2019758*
X6464301Y2017786*
X6485580Y2019758*
G37*
G36*
X6231580D02*
G01X6252136Y2025607D01*
X6271267Y2035133*
X6288322Y2048012*
X6302720Y2063806*
X6313972Y2081976*
X6321693Y2101905*
X6325620Y2122913*
Y2144285*
X6321693Y2165293*
X6313972Y2185222*
X6302722Y2203392*
X6288324Y2219186*
X6271269Y2232066*
X6252138Y2241593*
X6231582Y2247442*
X6210301Y2249414*
X6189018Y2247442*
X6168462Y2241593*
X6149331Y2232066*
X6132276Y2219186*
X6117878Y2203392*
X6106628Y2185222*
X6098907Y2165293*
X6094980Y2144285*
Y2122913*
X6098907Y2101905*
X6106628Y2081976*
X6117880Y2063806*
X6132278Y2048012*
X6149333Y2035133*
X6168464Y2025607*
X6189020Y2019758*
X6210301Y2017786*
X6231580Y2019758*
G37*
G36*
X3389014Y2135095D02*
G01X3403170Y2142524D01*
X3415136Y2153125*
X3424217Y2166281*
X3429887Y2181229*
X3431814Y2197099*
X3429887Y2212969*
X3424218Y2227917*
X3415138Y2241073*
X3407432Y2247900*
X3403172Y2251674*
X3389016Y2259104*
X3373494Y2262931*
X3357506*
X3341984Y2259104*
X3327828Y2251674*
X3315862Y2241073*
X3306782Y2227917*
X3301113Y2212969*
X3299186Y2197099*
X3301113Y2181229*
X3306783Y2166281*
X3315864Y2153125*
X3327830Y2142524*
X3341986Y2135095*
X3357508Y2131269*
X3373492*
X3389014Y2135095*
G37*
G36*
X5183053Y2185895D02*
G01X5197209Y2193324D01*
X5209175Y2203925*
X5218256Y2217081*
X5223926Y2232029*
X5225853Y2247899*
X5223926Y2263769*
X5218257Y2278717*
X5209177Y2291873*
X5197211Y2302474*
X5183055Y2309904*
X5167533Y2313731*
X5151545*
X5136023Y2309904*
X5121867Y2302474*
X5109901Y2291873*
X5100821Y2278717*
X5095152Y2263769*
X5093225Y2247899*
X5095152Y2232029*
X5100822Y2217081*
X5109903Y2203925*
X5121869Y2193324*
X5136025Y2185895*
X5151547Y2182069*
X5167531*
X5183053Y2185895*
G37*
G36*
X5022625D02*
G01X5036781Y2193324D01*
X5048747Y2203925*
X5057828Y2217081*
X5063498Y2232029*
X5065425Y2247899*
X5063498Y2263769*
X5057829Y2278717*
X5048749Y2291873*
X5036783Y2302474*
X5022627Y2309904*
X5007105Y2313731*
X4991117*
X4975595Y2309904*
X4961439Y2302474*
X4949473Y2291873*
X4940393Y2278717*
X4934724Y2263769*
X4932797Y2247899*
X4934724Y2232029*
X4940394Y2217081*
X4949475Y2203925*
X4961441Y2193324*
X4975597Y2185895*
X4991119Y2182069*
X5007103*
X5022625Y2185895*
G37*
G36*
X6485580Y2273758D02*
G01X6506136Y2279607D01*
X6525267Y2289133*
X6542322Y2302012*
X6556720Y2317806*
X6567972Y2335976*
X6575693Y2355905*
X6579620Y2376913*
Y2398285*
X6575693Y2419293*
X6567972Y2439222*
X6556722Y2457392*
X6542324Y2473186*
X6525269Y2486066*
X6506138Y2495593*
X6485582Y2501442*
X6464301Y2503414*
X6443018Y2501442*
X6422462Y2495593*
X6403331Y2486066*
X6386276Y2473186*
X6371878Y2457392*
X6360628Y2439222*
X6352907Y2419293*
X6348980Y2398285*
Y2376913*
X6352907Y2355905*
X6360628Y2335976*
X6371880Y2317806*
X6386278Y2302012*
X6403333Y2289133*
X6422464Y2279607*
X6443020Y2273758*
X6464301Y2271786*
X6485580Y2273758*
G37*
G36*
X6231580D02*
G01X6252136Y2279607D01*
X6271267Y2289133*
X6288322Y2302012*
X6302720Y2317806*
X6313972Y2335976*
X6321693Y2355905*
X6325620Y2376913*
Y2398285*
X6321693Y2419293*
X6313972Y2439222*
X6302722Y2457392*
X6288324Y2473186*
X6271269Y2486066*
X6252138Y2495593*
X6231582Y2501442*
X6210301Y2503414*
X6189018Y2501442*
X6168462Y2495593*
X6149331Y2486066*
X6132276Y2473186*
X6117878Y2457392*
X6106628Y2439222*
X6098907Y2419293*
X6094980Y2398285*
Y2376913*
X6098907Y2355905*
X6106628Y2335976*
X6117880Y2317806*
X6132278Y2302012*
X6149333Y2289133*
X6168464Y2279607*
X6189020Y2273758*
X6210301Y2271786*
X6231580Y2273758*
G37*
G36*
X4443978Y2301901D02*
G01X4458133Y2309329D01*
X4470099Y2319931*
X4479181Y2333087*
X4484851Y2348035*
X4486778Y2363905*
X4484851Y2379775*
X4479182Y2394723*
X4476723Y2398286*
X4470101Y2407879*
X4458135Y2418480*
X4443980Y2425910*
X4428458Y2429736*
X4412469*
X4396947Y2425910*
X4382792Y2418480*
X4370826Y2407879*
X4361745Y2394723*
X4356077Y2379775*
X4354150Y2363905*
X4356077Y2348035*
X4361746Y2333087*
X4370828Y2319931*
X4382794Y2309329*
X4396949Y2301901*
X4412471Y2298075*
X4428456*
X4443978Y2301901*
G37*
G36*
X3860950Y2322543D02*
G01X3876381Y2327619D01*
X3890115Y2336294*
X3901327Y2348048*
X3909346Y2362175*
X3909827Y2363906*
X3913690Y2377828*
X3914098Y2394067*
X3910545Y2409918*
X3903247Y2424430*
X3892638Y2436731*
X3879357Y2446085*
X3864200Y2451930*
X3848077Y2453914*
X3849700Y2468650*
X3848008Y2483379*
X3843084Y2497364*
X3835177Y2509905*
X3824679Y2520374*
X3812117Y2528249*
X3798119Y2533136*
X3783386Y2534789*
X3768651Y2533127*
X3754657Y2528230*
X3742100Y2520347*
X3731609Y2509871*
X3723710Y2497325*
X3718795Y2483337*
X3717112Y2468607*
X3718745Y2453872*
X3702830Y2451348*
X3687994Y2445059*
X3675113Y2435378*
X3664948Y2422877*
X3658097Y2408293*
X3654966Y2392487*
X3655740Y2376392*
X3660373Y2360959*
X3668591Y2347099*
X3679909Y2335630*
X3693658Y2327231*
X3709029Y2322394*
X3725109Y2321407*
X3740955Y2324329*
X3755629Y2330984*
X3768264Y2340984*
X3778115Y2353735*
X3784601Y2368484*
X3791153Y2353622*
X3801122Y2340796*
X3813910Y2330779*
X3828749Y2324172*
X3844750Y2321371*
X3860950Y2322543*
G37*
G36*
X3594527Y2343200D02*
G01X3608678Y2350627D01*
X3620640Y2361224*
X3629719Y2374377*
X3635387Y2389320*
X3635772Y2392488*
X3637314Y2405185*
X3635387Y2421051*
X3629720Y2435994*
X3620642Y2449147*
X3608680Y2459744*
X3594529Y2467171*
X3579011Y2470997*
X3563028*
X3547510Y2467171*
X3533359Y2459744*
X3521397Y2449147*
X3512319Y2435994*
X3506652Y2421051*
X3504726Y2405185*
X3506652Y2389320*
X3512320Y2374377*
X3521399Y2361224*
X3533361Y2350627*
X3547512Y2343200*
X3563030Y2339376*
X3579009*
X3594527Y2343200*
G37*
G36*
X3173142Y2392398D02*
G01X3187298Y2399826D01*
X3193348Y2405186*
X3199264Y2410427*
X3208345Y2423584*
X3214015Y2438532*
X3215942Y2454402*
X3214015Y2470272*
X3208346Y2485219*
X3199266Y2498376*
X3195073Y2502091*
X3187300Y2508977*
X3173144Y2516406*
X3157622Y2520233*
X3141634*
X3126112Y2516406*
X3111956Y2508977*
X3099990Y2498376*
X3090910Y2485219*
X3085241Y2470272*
X3083314Y2454402*
X3085241Y2438532*
X3090911Y2423584*
X3099992Y2410427*
X3111958Y2399826*
X3126114Y2392398*
X3141636Y2388572*
X3157620*
X3173142Y2392398*
G37*
G36*
X3407912Y2440086D02*
G01X3422067Y2447514D01*
X3434033Y2458115*
X3443115Y2471272*
X3448785Y2486220*
X3450712Y2502090*
X3448785Y2517959*
X3443116Y2532907*
X3434035Y2546064*
X3422069Y2556665*
X3407914Y2564094*
X3392392Y2567921*
X3376403*
X3360881Y2564094*
X3346726Y2556665*
X3334760Y2546064*
X3325679Y2532907*
X3320011Y2517959*
X3318084Y2502090*
X3320011Y2486220*
X3325680Y2471272*
X3334762Y2458115*
X3346728Y2447514*
X3360883Y2440086*
X3376405Y2436260*
X3392390*
X3407912Y2440086*
G37*
G36*
X6485580Y2527758D02*
G01X6506136Y2533607D01*
X6525267Y2543133*
X6542322Y2556012*
X6556720Y2571806*
X6567972Y2589976*
X6575693Y2609905*
X6579620Y2630913*
Y2652285*
X6575693Y2673293*
X6573211Y2679700*
X6567972Y2693222*
X6556722Y2711392*
X6542324Y2727186*
X6525269Y2740066*
X6506138Y2749593*
X6485582Y2755442*
X6464301Y2757414*
X6443018Y2755442*
X6422462Y2749593*
X6403331Y2740066*
X6386276Y2727186*
X6371878Y2711392*
X6360628Y2693222*
X6352907Y2673293*
X6348980Y2652285*
Y2630913*
X6352907Y2609905*
X6360628Y2589976*
X6371880Y2571806*
X6386278Y2556012*
X6403333Y2543133*
X6422464Y2533607*
X6443020Y2527758*
X6464301Y2525786*
X6485580Y2527758*
G37*
G36*
X6231580D02*
G01X6252136Y2533607D01*
X6271267Y2543133*
X6288322Y2556012*
X6302720Y2571806*
X6313972Y2589976*
X6321693Y2609905*
X6325620Y2630913*
Y2652285*
X6321693Y2673293*
X6313972Y2693222*
X6302722Y2711392*
X6288324Y2727186*
X6271269Y2740066*
X6252138Y2749593*
X6231582Y2755442*
X6210301Y2757414*
X6189018Y2755442*
X6168462Y2749593*
X6149331Y2740066*
X6132276Y2727186*
X6117878Y2711392*
X6106628Y2693222*
X6098907Y2673293*
X6094980Y2652285*
Y2630913*
X6098907Y2609905*
X6106628Y2589976*
X6117880Y2571806*
X6132278Y2556012*
X6149333Y2543133*
X6168464Y2533607*
X6189020Y2527758*
X6210301Y2525786*
X6231580Y2527758*
G37*
G36*
X2271414Y2592295D02*
G01X2285570Y2599724D01*
X2297536Y2610325*
X2306617Y2623481*
X2312287Y2638429*
X2314214Y2654299*
X2312287Y2670169*
X2306618Y2685117*
X2297538Y2698273*
X2289801Y2705128*
X2285572Y2708874*
X2271416Y2716304*
X2255894Y2720131*
X2239906*
X2224384Y2716304*
X2210228Y2708874*
X2198262Y2698273*
X2189182Y2685117*
X2183513Y2670169*
X2181586Y2654299*
X2183513Y2638429*
X2189183Y2623481*
X2198264Y2610325*
X2210230Y2599724*
X2224386Y2592295*
X2239908Y2588469*
X2255892*
X2271414Y2592295*
G37*
G36*
X6957171Y2617695D02*
G01X6971326Y2625124D01*
X6983292Y2635725*
X6992374Y2648881*
X6998044Y2663829*
X6999971Y2679699*
X6998044Y2695569*
X6992375Y2710517*
X6983294Y2723673*
X6971328Y2734274*
X6957173Y2741704*
X6941651Y2745531*
X6925662*
X6910140Y2741704*
X6895985Y2734274*
X6884019Y2723673*
X6874938Y2710517*
X6869269Y2695569*
X6867342Y2679699*
X6869269Y2663829*
X6874939Y2648881*
X6884021Y2635725*
X6895987Y2625124*
X6910142Y2617695*
X6925664Y2613869*
X6941649*
X6957171Y2617695*
G37*
G36*
X4380323Y2643123D02*
G01X4394478Y2650552D01*
X4406444Y2661153*
X4415526Y2674309*
X4421196Y2689257*
X4423123Y2705127*
X4421663Y2717153*
X4421196Y2720997*
X4415527Y2735945*
X4406446Y2749101*
X4394480Y2759702*
X4380325Y2767132*
X4364803Y2770959*
X4348814*
X4333292Y2767132*
X4319137Y2759702*
X4307171Y2749101*
X4298090Y2735945*
X4292422Y2720997*
X4290495Y2705127*
X4292422Y2689257*
X4298091Y2674309*
X4307173Y2661153*
X4319139Y2650552*
X4333294Y2643123*
X4348816Y2639297*
X4364801*
X4380323Y2643123*
G37*
G36*
X5447504Y2652286D02*
G01X5459114Y2655148D01*
X5473270Y2662576*
X5485236Y2673177*
X5494317Y2686334*
X5499987Y2701282*
X5501914Y2717152*
X5499987Y2733022*
X5494318Y2747969*
X5485238Y2761126*
X5473272Y2771727*
X5459116Y2779156*
X5443594Y2782983*
X5427606*
X5412084Y2779156*
X5397928Y2771727*
X5385962Y2761126*
X5376882Y2747969*
X5371213Y2733022*
X5369286Y2717152*
X5371213Y2701282*
X5376883Y2686334*
X5385964Y2673177*
X5397930Y2662576*
X5412086Y2655148*
X5427608Y2651322*
X5443592*
X5447504Y2652286*
G37*
G36*
X6485580Y2781758D02*
G01X6506136Y2787607D01*
X6525267Y2797133*
X6542322Y2810012*
X6556720Y2825806*
X6567972Y2843976*
X6575693Y2863905*
X6576869Y2870200*
X6579620Y2884913*
Y2906285*
X6575693Y2927293*
X6567972Y2947222*
X6556722Y2965392*
X6542324Y2981186*
X6525269Y2994066*
X6506138Y3003593*
X6485582Y3009442*
X6464301Y3011414*
X6443018Y3009442*
X6422462Y3003593*
X6403331Y2994066*
X6386276Y2981186*
X6371878Y2965392*
X6360628Y2947222*
X6352907Y2927293*
X6348980Y2906285*
Y2884913*
X6352907Y2863905*
X6360628Y2843976*
X6371880Y2825806*
X6386278Y2810012*
X6403333Y2797133*
X6422464Y2787607*
X6443020Y2781758*
X6464301Y2779786*
X6485580Y2781758*
G37*
G36*
X6231580D02*
G01X6252136Y2787607D01*
X6271267Y2797133*
X6288322Y2810012*
X6302720Y2825806*
X6313972Y2843976*
X6321693Y2863905*
X6325620Y2884913*
Y2906285*
X6321693Y2927293*
X6313972Y2947222*
X6302722Y2965392*
X6288324Y2981186*
X6271269Y2994066*
X6252138Y3003593*
X6231582Y3009442*
X6210301Y3011414*
X6189018Y3009442*
X6168462Y3003593*
X6149331Y2994066*
X6132276Y2981186*
X6117878Y2965392*
X6106628Y2947222*
X6098907Y2927293*
X6094980Y2906285*
Y2884913*
X6098907Y2863905*
X6106628Y2843976*
X6117880Y2825806*
X6132278Y2810012*
X6149333Y2797133*
X6168464Y2787607*
X6189020Y2781758*
X6210301Y2779786*
X6231580Y2781758*
G37*
G36*
X6691014Y2808195D02*
G01X6705170Y2815624D01*
X6717136Y2826225*
X6726217Y2839381*
X6731887Y2854329*
X6733814Y2870199*
X6731887Y2886069*
X6726218Y2901017*
X6717138Y2914173*
X6705172Y2924774*
X6691016Y2932204*
X6675494Y2936031*
X6659506*
X6643984Y2932204*
X6629828Y2924774*
X6617862Y2914173*
X6608782Y2901017*
X6603113Y2886069*
X6601186Y2870199*
X6603113Y2854329*
X6608783Y2839381*
X6617864Y2826225*
X6629830Y2815624*
X6643986Y2808195*
X6659508Y2804369*
X6675492*
X6691014Y2808195*
G37*
G36*
X5605926Y2820964D02*
G01X5620082Y2828392D01*
X5632048Y2838993*
X5641129Y2852150*
X5646799Y2867098*
X5648726Y2882968*
X5646799Y2898838*
X5643975Y2906286*
X5641130Y2913786*
X5632050Y2926942*
X5620084Y2937543*
X5605928Y2944973*
X5590406Y2948799*
X5574418*
X5558896Y2944973*
X5544740Y2937543*
X5532774Y2926942*
X5523694Y2913786*
X5518025Y2898838*
X5516098Y2882968*
X5518025Y2867098*
X5523695Y2852150*
X5532776Y2838993*
X5544742Y2828392*
X5558898Y2820964*
X5574420Y2817138*
X5590404*
X5605926Y2820964*
G37*
G36*
X5153123Y2909794D02*
G01X5167278Y2917222D01*
X5179245Y2927823*
X5188326Y2940980*
X5193996Y2955928*
X5195923Y2971798*
X5193996Y2987668*
X5188327Y3002615*
X5179247Y3015772*
X5167280Y3026373*
X5153125Y3033802*
X5137603Y3037629*
X5121614*
X5106092Y3033802*
X5091937Y3026373*
X5079971Y3015772*
X5070891Y3002615*
X5065222Y2987668*
X5063295Y2971798*
X5065222Y2955928*
X5070892Y2940980*
X5079973Y2927823*
X5091939Y2917222*
X5106094Y2909794*
X5121616Y2905968*
X5137601*
X5153123Y2909794*
G37*
G36*
X6485580Y3035758D02*
G01X6506136Y3041607D01*
X6525267Y3051133*
X6542322Y3064012*
X6556720Y3079806*
X6567972Y3097976*
X6575693Y3117905*
X6579620Y3138913*
Y3160285*
X6575693Y3181293*
X6567972Y3201222*
X6556722Y3219392*
X6542324Y3235186*
X6531097Y3243665*
X6525269Y3248066*
X6506138Y3257593*
X6485582Y3263442*
X6464301Y3265414*
X6443018Y3263442*
X6422462Y3257593*
X6403331Y3248066*
X6386276Y3235186*
X6371878Y3219392*
X6360628Y3201222*
X6352907Y3181293*
X6348980Y3160285*
Y3138913*
X6352907Y3117905*
X6360628Y3097976*
X6371880Y3079806*
X6386278Y3064012*
X6403333Y3051133*
X6422464Y3041607*
X6443020Y3035758*
X6464301Y3033786*
X6485580Y3035758*
G37*
G36*
X6231580D02*
G01X6252136Y3041607D01*
X6271267Y3051133*
X6288322Y3064012*
X6302720Y3079806*
X6313972Y3097976*
X6321693Y3117905*
X6325620Y3138913*
Y3160285*
X6321693Y3181293*
X6313972Y3201222*
X6302722Y3219392*
X6288324Y3235186*
X6271269Y3248066*
X6252138Y3257593*
X6231582Y3263442*
X6210301Y3265414*
X6189018Y3263442*
X6168462Y3257593*
X6149331Y3248066*
X6132276Y3235186*
X6117878Y3219392*
X6106628Y3201222*
X6098907Y3181293*
X6094980Y3160285*
Y3138913*
X6098907Y3117905*
X6106628Y3097976*
X6117880Y3079806*
X6132278Y3064012*
X6149333Y3051133*
X6168464Y3041607*
X6189020Y3035758*
X6210301Y3033786*
X6231580Y3035758*
G37*
G36*
X3871614Y3083863D02*
G01X3885770Y3091291D01*
X3897736Y3101892*
X3906817Y3115049*
X3912487Y3129996*
X3914414Y3145866*
X3914330Y3146562*
X3912487Y3161736*
X3906818Y3176684*
X3897738Y3189841*
X3885772Y3200442*
X3871616Y3207871*
X3856094Y3211698*
X3840106*
X3824584Y3207871*
X3810428Y3200442*
X3798462Y3189841*
X3789382Y3176684*
X3783713Y3161736*
X3781786Y3145866*
X3783713Y3129996*
X3789383Y3115049*
X3798464Y3101892*
X3810430Y3091291*
X3824586Y3083863*
X3840108Y3080037*
X3856092*
X3871614Y3083863*
G37*
G36*
X4024014Y3084557D02*
G01X4038170Y3091985D01*
X4050136Y3102586*
X4059217Y3115743*
X4064887Y3130691*
X4066814Y3146561*
X4065148Y3160286*
X4064887Y3162431*
X4059218Y3177378*
X4050138Y3190535*
X4038172Y3201136*
X4024016Y3208565*
X4008494Y3212392*
X3992506*
X3976984Y3208565*
X3962828Y3201136*
X3950862Y3190535*
X3941782Y3177378*
X3936113Y3162431*
X3934186Y3146561*
X3936113Y3130691*
X3941783Y3115743*
X3950864Y3102586*
X3962830Y3091985*
X3976986Y3084557*
X3992508Y3080731*
X4008492*
X4024014Y3084557*
G37*
G36*
X3719214Y3084979D02*
G01X3733370Y3092407D01*
X3745336Y3103008*
X3754417Y3116165*
X3760087Y3131113*
X3761879Y3145867*
X3762014Y3146983*
X3760087Y3162853*
X3754418Y3177800*
X3745338Y3190957*
X3733372Y3201558*
X3719216Y3208987*
X3703694Y3212814*
X3687706*
X3672184Y3208987*
X3658028Y3201558*
X3646062Y3190957*
X3636982Y3177800*
X3631313Y3162853*
X3629386Y3146983*
X3631313Y3131113*
X3636983Y3116165*
X3646064Y3103008*
X3658030Y3092407*
X3672186Y3084979*
X3687708Y3081153*
X3703692*
X3719214Y3084979*
G37*
G36*
X3566814D02*
G01X3580970Y3092407D01*
X3592936Y3103008*
X3602017Y3116165*
X3607687Y3131113*
X3609614Y3146983*
X3607687Y3162853*
X3602018Y3177800*
X3592938Y3190957*
X3580972Y3201558*
X3566816Y3208987*
X3551294Y3212814*
X3535306*
X3519784Y3208987*
X3505628Y3201558*
X3493662Y3190957*
X3484582Y3177800*
X3478913Y3162853*
X3476986Y3146983*
X3478913Y3131113*
X3484583Y3116165*
X3493664Y3103008*
X3505630Y3092407*
X3519786Y3084979*
X3535308Y3081153*
X3551292*
X3566814Y3084979*
G37*
G36*
X6992120Y3181660D02*
G01X7006275Y3189089D01*
X7018241Y3199690*
X7027323Y3212846*
X7032993Y3227794*
X7034920Y3243664*
X7032993Y3259534*
X7027324Y3274482*
X7018243Y3287638*
X7006277Y3298239*
X6992122Y3305669*
X6976600Y3309496*
X6960611*
X6945089Y3305669*
X6930934Y3298239*
X6918968Y3287638*
X6909887Y3274482*
X6904218Y3259534*
X6902292Y3243664*
X6904218Y3227794*
X6909888Y3212846*
X6918970Y3199690*
X6930936Y3189089*
X6945091Y3181660*
X6960613Y3177835*
X6976598*
X6992120Y3181660*
G37*
G36*
X5249717Y3221098D02*
G01X5263872Y3228526D01*
X5275838Y3239127*
X5284920Y3252284*
X5290589Y3267231*
X5292516Y3283101*
X5290589Y3298971*
X5284921Y3313919*
X5275840Y3327076*
X5263874Y3337677*
X5249719Y3345106*
X5234197Y3348933*
X5218208*
X5202686Y3345106*
X5188531Y3337677*
X5176565Y3327076*
X5167484Y3313919*
X5161815Y3298971*
X5159888Y3283101*
X5161815Y3267231*
X5167485Y3252284*
X5176567Y3239127*
X5188533Y3228526*
X5202688Y3221098*
X5218210Y3217272*
X5234195*
X5249717Y3221098*
G37*
G36*
X7553423Y3506695D02*
G01X7567578Y3514124D01*
X7579545Y3524725*
X7588626Y3537881*
X7594296Y3552829*
X7596223Y3568699*
X7594296Y3584569*
X7588627Y3599517*
X7579547Y3612673*
X7567580Y3623274*
X7553425Y3630704*
X7537903Y3634531*
X7521914*
X7506392Y3630704*
X7492237Y3623274*
X7480271Y3612673*
X7471191Y3599517*
X7465522Y3584569*
X7463595Y3568699*
X7465522Y3552829*
X7471192Y3537881*
X7480273Y3524725*
X7492239Y3514124*
X7506394Y3506695*
X7521916Y3502869*
X7537901*
X7553423Y3506695*
G37*
G36*
X6411614Y3595595D02*
G01X6425770Y3603024D01*
X6437736Y3613625*
X6446817Y3626781*
X6452487Y3641729*
X6454414Y3657599*
X6452487Y3673469*
X6446818Y3688417*
X6437738Y3701573*
X6425772Y3712174*
X6411616Y3719604*
X6405559Y3721097*
X6396094Y3723431*
X6380106*
X6364584Y3719604*
X6350428Y3712174*
X6338462Y3701573*
X6329382Y3688417*
X6323713Y3673469*
X6321786Y3657599*
X6323713Y3641729*
X6329383Y3626781*
X6338464Y3613625*
X6350430Y3603024*
X6364586Y3595595*
X6380108Y3591769*
X6396092*
X6411614Y3595595*
G37*
G36*
X4617116Y3633926D02*
G01X4632110Y3639635D01*
X4645294Y3648777*
X4653062Y3657600*
X4655897Y3660819*
X4663297Y3675055*
X4667062Y3690651*
X4666971Y3706695*
X4663029Y3722248*
X4655468Y3736397*
Y3736401*
X4663028Y3750549*
X4666971Y3766101*
X4667004Y3771900*
X4667062Y3782145*
X4663298Y3797742*
X4655898Y3811978*
X4645296Y3824019*
X4632112Y3833163*
X4617118Y3838873*
X4601192Y3840814*
X4585263Y3838873*
X4570269Y3833163*
X4557085Y3824019*
X4546484Y3811978*
X4539084Y3797742*
X4535319Y3782145*
X4535410Y3766101*
X4539353Y3750549*
X4546913Y3736401*
Y3736397*
X4539352Y3722248*
X4535410Y3706695*
X4535319Y3690651*
X4539085Y3675055*
X4546485Y3660819*
X4557087Y3648777*
X4570271Y3639635*
X4585265Y3633926*
X4601192Y3631985*
X4617116Y3633926*
G37*
G36*
X7552115Y3659093D02*
G01X7566270Y3666521D01*
X7578236Y3677122*
X7587318Y3690279*
X7592988Y3705226*
X7594915Y3721096*
X7592988Y3736966*
X7587319Y3751914*
X7578238Y3765071*
X7566272Y3775672*
X7552117Y3783101*
X7536595Y3786928*
X7520606*
X7505084Y3783101*
X7490929Y3775672*
X7478963Y3765071*
X7469882Y3751914*
X7464214Y3736966*
X7462287Y3721096*
X7464214Y3705226*
X7469883Y3690279*
X7478965Y3677122*
X7490931Y3666521*
X7505086Y3659093*
X7520608Y3655267*
X7536593*
X7552115Y3659093*
G37*
G36*
X5675014Y3709895D02*
G01X5689170Y3717324D01*
X5701136Y3727925*
X5710217Y3741081*
X5715887Y3756029*
X5717814Y3771899*
X5715887Y3787769*
X5710218Y3802717*
X5701138Y3815873*
X5689172Y3826474*
X5675016Y3833904*
X5659494Y3837731*
X5643506*
X5627984Y3833904*
X5613828Y3826474*
X5601862Y3815873*
X5592782Y3802717*
X5587113Y3787769*
X5585186Y3771899*
X5587113Y3756029*
X5592783Y3741081*
X5601864Y3727925*
X5613830Y3717324*
X5627986Y3709895*
X5643508Y3706069*
X5659492*
X5675014Y3709895*
G37*
G36*
X6639516Y3925771D02*
G01X6653671Y3933199D01*
X6665637Y3943801*
X6674719Y3956957*
X6680389Y3971905*
X6682316Y3987775*
X6680389Y4003645*
X6674720Y4018593*
X6665639Y4031749*
X6653673Y4042350*
X6639518Y4049780*
X6623996Y4053606*
X6608007*
X6592485Y4049780*
X6578330Y4042350*
X6566364Y4031749*
X6557283Y4018593*
X6551614Y4003645*
X6549687Y3987775*
X6551614Y3971905*
X6557284Y3956957*
X6566366Y3943801*
X6578332Y3933199*
X6592487Y3925771*
X6608009Y3921945*
X6623994*
X6639516Y3925771*
G37*
G36*
X6555365Y241539D02*
G01X6565349Y246625D01*
X6573273Y254548*
X6578360Y264532*
X6580114Y275599*
Y435599*
X6578361Y446665*
X6573275Y456649*
X6565352Y464573*
X6555368Y469660*
X6544301Y471414*
X6384299*
X6373232Y469660*
X6363248Y464573*
X6355325Y456650*
X6350239Y446665*
X6348486Y435599*
Y275599*
X6350240Y264532*
X6355327Y254548*
X6363250Y246625*
X6373235Y241539*
X6384301Y239786*
X6544299*
X6555365Y241539*
G37*
G36*
X1354478Y1709822D02*
G01X1374820Y1715272D01*
X1393906Y1724172*
X1411157Y1736250*
X1426048Y1751141*
X1438128Y1768392*
X1447028Y1787478*
X1452478Y1807820*
X1454314Y1828799*
X1452478Y1849778*
X1447028Y1870120*
X1438128Y1889206*
X1426050Y1906457*
X1411159Y1921348*
X1393908Y1933428*
X1374822Y1942328*
X1354480Y1947778*
X1333501Y1949614*
X1312520Y1947778*
X1292178Y1942328*
X1273092Y1933428*
X1255841Y1921348*
X1240950Y1906457*
X1228872Y1889206*
X1219972Y1870120*
X1214522Y1849778*
X1212686Y1828799*
X1214522Y1807820*
X1219972Y1787478*
X1228872Y1768392*
X1240952Y1751141*
X1255843Y1736250*
X1273094Y1724172*
X1292180Y1715272*
X1312522Y1709822*
X1333501Y1707986*
X1354478Y1709822*
G37*
G36*
X1100478D02*
G01X1120820Y1715272D01*
X1139906Y1724172*
X1157157Y1736250*
X1172048Y1751141*
X1184128Y1768392*
X1193028Y1787478*
X1198478Y1807820*
X1200314Y1828799*
X1198478Y1849778*
X1193028Y1870120*
X1184128Y1889206*
X1172050Y1906457*
X1157159Y1921348*
X1139908Y1933428*
X1120822Y1942328*
X1100480Y1947778*
X1079501Y1949614*
X1058520Y1947778*
X1038178Y1942328*
X1019092Y1933428*
X1001841Y1921348*
X986950Y1906457*
X974872Y1889206*
X965972Y1870120*
X960522Y1849778*
X958686Y1828799*
X960522Y1807820*
X965972Y1787478*
X974872Y1768392*
X986952Y1751141*
X1001843Y1736250*
X1019094Y1724172*
X1038180Y1715272*
X1058522Y1709822*
X1079501Y1707986*
X1100478Y1709822*
G37*
G36*
X921565Y1709739D02*
G01X931549Y1714825D01*
X939473Y1722748*
X944560Y1732732*
X946314Y1743799*
Y1828800*
Y1913799*
X944561Y1924865*
X939475Y1934849*
X931552Y1942773*
X921568Y1947860*
X910501Y1949614*
X740499*
X729432Y1947860*
X719448Y1942773*
X711525Y1934850*
X706439Y1924865*
X704686Y1913799*
Y1743799*
X706440Y1732732*
X711527Y1722748*
X719450Y1714825*
X729435Y1709739*
X740501Y1707986*
X910499*
X921565Y1709739*
G37*
G36*
X4016664Y3369686D02*
G01X4032018Y3375059D01*
X4045792Y3383712*
X4057294Y3395215*
X4065949Y3408989*
X4071323Y3424343*
X4073144Y3440508*
X4071323Y3456673*
X4065950Y3472027*
X4057296Y3485801*
X4045794Y3497303*
X4032020Y3505958*
X4016666Y3511331*
X4000501Y3513153*
X3984334Y3511331*
X3968980Y3505958*
X3955206Y3497303*
X3943704Y3485801*
X3935050Y3472027*
X3929677Y3456673*
X3927856Y3440508*
X3929677Y3424343*
X3935051Y3408989*
X3943706Y3395215*
X3955208Y3383712*
X3968982Y3375059*
X3984336Y3369686*
X4000501Y3367865*
X4016664Y3369686*
G37*
G36*
X3864264D02*
G01X3879618Y3375059D01*
X3893392Y3383712*
X3904894Y3395215*
X3913549Y3408989*
X3918923Y3424343*
X3920744Y3440508*
X3918923Y3456673*
X3913550Y3472027*
X3904896Y3485801*
X3893394Y3497303*
X3879620Y3505958*
X3864266Y3511331*
X3848101Y3513153*
X3831934Y3511331*
X3816580Y3505958*
X3802806Y3497303*
X3791304Y3485801*
X3782650Y3472027*
X3777277Y3456673*
X3775456Y3440508*
X3777277Y3424343*
X3782651Y3408989*
X3791306Y3395215*
X3802808Y3383712*
X3816582Y3375059*
X3831936Y3369686*
X3848101Y3367865*
X3864264Y3369686*
G37*
G36*
X3711864D02*
G01X3727218Y3375059D01*
X3740992Y3383712*
X3752494Y3395215*
X3761149Y3408989*
X3766523Y3424343*
X3768344Y3440508*
X3766523Y3456673*
X3761150Y3472027*
X3752496Y3485801*
X3740994Y3497303*
X3727220Y3505958*
X3711866Y3511331*
X3695701Y3513153*
X3679534Y3511331*
X3664180Y3505958*
X3650406Y3497303*
X3638904Y3485801*
X3630250Y3472027*
X3624877Y3456673*
X3623056Y3440508*
X3624877Y3424343*
X3630251Y3408989*
X3638906Y3395215*
X3650408Y3383712*
X3664182Y3375059*
X3679536Y3369686*
X3695701Y3367865*
X3711864Y3369686*
G37*
G36*
X3559464D02*
G01X3574818Y3375059D01*
X3588592Y3383712*
X3600094Y3395215*
X3608749Y3408989*
X3614123Y3424343*
X3615944Y3440508*
X3614123Y3456673*
X3608750Y3472027*
X3600096Y3485801*
X3588594Y3497303*
X3574820Y3505958*
X3559466Y3511331*
X3543301Y3513153*
X3527134Y3511331*
X3511780Y3505958*
X3498006Y3497303*
X3486504Y3485801*
X3477850Y3472027*
X3472477Y3456673*
X3470656Y3440508*
X3472477Y3424343*
X3477851Y3408989*
X3486506Y3395215*
X3498008Y3383712*
X3511782Y3375059*
X3527136Y3369686*
X3543301Y3367865*
X3559464Y3369686*
G37*
G36*
X1354478Y3487822D02*
G01X1374820Y3493272D01*
X1393906Y3502172*
X1411157Y3514250*
X1426048Y3529141*
X1438128Y3546392*
X1447028Y3565478*
X1452478Y3585820*
X1454314Y3606799*
X1452478Y3627778*
X1447028Y3648120*
X1438128Y3667206*
X1426050Y3684457*
X1411159Y3699348*
X1393908Y3711428*
X1374822Y3720328*
X1354480Y3725778*
X1333501Y3727614*
X1312520Y3725778*
X1292178Y3720328*
X1273092Y3711428*
X1255841Y3699348*
X1240950Y3684457*
X1228872Y3667206*
X1219972Y3648120*
X1214522Y3627778*
X1212686Y3606799*
X1214522Y3585820*
X1219972Y3565478*
X1228872Y3546392*
X1240952Y3529141*
X1255843Y3514250*
X1273094Y3502172*
X1292180Y3493272*
X1312522Y3487822*
X1333501Y3485986*
X1354478Y3487822*
G37*
G36*
X1100478D02*
G01X1120820Y3493272D01*
X1139906Y3502172*
X1157157Y3514250*
X1172048Y3529141*
X1184128Y3546392*
X1193028Y3565478*
X1198478Y3585820*
X1200314Y3606799*
X1198478Y3627778*
X1193028Y3648120*
X1184128Y3667206*
X1172050Y3684457*
X1157159Y3699348*
X1139908Y3711428*
X1120822Y3720328*
X1100480Y3725778*
X1079501Y3727614*
X1058520Y3725778*
X1038178Y3720328*
X1019092Y3711428*
X1001841Y3699348*
X986950Y3684457*
X974872Y3667206*
X965972Y3648120*
X960522Y3627778*
X958686Y3606799*
X960522Y3585820*
X965972Y3565478*
X974872Y3546392*
X986952Y3529141*
X1001843Y3514250*
X1019094Y3502172*
X1038180Y3493272*
X1058522Y3487822*
X1079501Y3485986*
X1100478Y3487822*
G37*
G36*
X921565Y3487739D02*
G01X931549Y3492825D01*
X939473Y3500748*
X944560Y3510732*
X946314Y3521799*
Y3606800*
Y3691799*
X944561Y3702865*
X939475Y3712849*
X931552Y3720773*
X921568Y3725860*
X910501Y3727614*
X740499*
X729432Y3725860*
X719448Y3720773*
X711525Y3712850*
X706439Y3702865*
X704686Y3691799*
Y3521799*
X706440Y3510732*
X711527Y3500748*
X719450Y3492825*
X729435Y3487739*
X740501Y3485986*
X910499*
X921565Y3487739*
G37*
G36*
X8440557Y3956068D02*
G01X8465094Y3961959D01*
X8488408Y3971615*
X8509924Y3984801*
X8529112Y4001188*
X8545501Y4020377*
X8558687Y4041893*
X8568344Y4065206*
X8574235Y4089744*
X8576215Y4114901*
X8574235Y4140057*
X8568344Y4164595*
X8558687Y4187909*
X8545502Y4209425*
X8529114Y4228613*
X8509926Y4245002*
X8488410Y4258188*
X8465096Y4267845*
X8440559Y4273735*
X8415402Y4275715*
X8390243Y4273735*
X8365706Y4267845*
X8342392Y4258188*
X8320876Y4245002*
X8301688Y4228613*
X8285300Y4209425*
X8272115Y4187909*
X8262458Y4164595*
X8256567Y4140057*
X8254587Y4114901*
X8256567Y4089744*
X8262458Y4065206*
X8272115Y4041893*
X8285301Y4020377*
X8301690Y4001188*
X8320878Y3984801*
X8342394Y3971615*
X8365708Y3961959*
X8390245Y3956068*
X8415402Y3954088*
X8440557Y3956068*
G37*
G36*
X3960514Y4251591D02*
G01X3974670Y4259020D01*
X3986636Y4269621*
X3995717Y4282777*
X4001387Y4297725*
X4003314Y4313595*
X4003254Y4314087*
X4001387Y4329465*
X3995718Y4344413*
X3986638Y4357570*
X3974672Y4368171*
X3960516Y4375600*
X3944994Y4379427*
X3929006*
X3913484Y4375600*
X3899328Y4368171*
X3887362Y4357570*
X3878282Y4344413*
X3872613Y4329465*
X3870686Y4313595*
X3872613Y4297725*
X3878283Y4282777*
X3887364Y4269621*
X3899330Y4259020*
X3913486Y4251591*
X3929008Y4247766*
X3944992*
X3960514Y4251591*
G37*
G36*
X7745114Y4252082D02*
G01X7759270Y4259511D01*
X7771236Y4270112*
X7780317Y4283268*
X7785987Y4298216*
X7787914Y4314086*
X7785987Y4329956*
X7780318Y4344904*
X7771238Y4358060*
X7759272Y4368662*
X7745116Y4376091*
X7729594Y4379918*
X7713606*
X7698084Y4376091*
X7683928Y4368662*
X7671962Y4358060*
X7662882Y4344904*
X7657213Y4329956*
X7655286Y4314086*
X7657213Y4298216*
X7662883Y4283268*
X7671964Y4270112*
X7683930Y4259511*
X7698086Y4252082*
X7713608Y4248257*
X7729592*
X7745114Y4252082*
G37*
G36*
Y4386565D02*
G01X7759270Y4393994D01*
X7771236Y4404595*
X7780317Y4417751*
X7785987Y4432699*
X7787914Y4448569*
X7785987Y4464439*
X7780318Y4479387*
X7771238Y4492543*
X7759272Y4503144*
X7745116Y4510574*
X7729594Y4514401*
X7713606*
X7698084Y4510574*
X7683928Y4503144*
X7671962Y4492543*
X7662882Y4479387*
X7657213Y4464439*
X7655286Y4448569*
X7657213Y4432699*
X7662883Y4417751*
X7671964Y4404595*
X7683930Y4393994*
X7698086Y4386565*
X7713608Y4382739*
X7729592*
X7745114Y4386565*
G37*
G36*
X3960514Y4386875D02*
G01X3974670Y4394303D01*
X3986636Y4404904*
X3995717Y4418061*
X4001387Y4433009*
X4003276Y4448570*
X4003314Y4448879*
X4001387Y4464749*
X3995718Y4479697*
X3986638Y4492853*
X3974672Y4503454*
X3960516Y4510884*
X3944994Y4514710*
X3929006*
X3913484Y4510884*
X3899328Y4503454*
X3887362Y4492853*
X3878282Y4479697*
X3872613Y4464749*
X3870686Y4448879*
X3872613Y4433009*
X3878283Y4418061*
X3887364Y4404904*
X3899330Y4394303*
X3913486Y4386875*
X3929008Y4383049*
X3944992*
X3960514Y4386875*
G37*
G36*
X8440557Y4456067D02*
G01X8465094Y4461958D01*
X8488408Y4471614*
X8509924Y4484800*
X8529112Y4501187*
X8545501Y4520376*
X8558687Y4541892*
X8568344Y4565205*
X8574235Y4589743*
X8576215Y4614900*
X8574235Y4640056*
X8568344Y4664594*
X8558687Y4687908*
X8545502Y4709424*
X8529114Y4728612*
X8509926Y4745001*
X8488410Y4758187*
X8465096Y4767844*
X8440559Y4773734*
X8415402Y4775714*
X8390243Y4773734*
X8365706Y4767844*
X8342392Y4758187*
X8320876Y4745001*
X8301688Y4728612*
X8285300Y4709424*
X8272115Y4687908*
X8262458Y4664594*
X8256567Y4640056*
X8254587Y4614900*
X8256567Y4589743*
X8262458Y4565205*
X8272115Y4541892*
X8285301Y4520376*
X8301690Y4501187*
X8320878Y4484800*
X8342394Y4471614*
X8365708Y4461958*
X8390245Y4456067*
X8415402Y4454087*
X8440557Y4456067*
G37*
G36*
X3973214Y4522695D02*
G01X3987370Y4530124D01*
X3999336Y4540725*
X4008417Y4553881*
X4014087Y4568829*
X4016014Y4584699*
X4014087Y4600569*
X4008652Y4614901*
X4008418Y4615517*
X3999338Y4628673*
X3987372Y4639274*
X3973216Y4646704*
X3957694Y4650531*
X3941706*
X3926184Y4646704*
X3912028Y4639274*
X3900062Y4628673*
X3890982Y4615517*
X3885313Y4600569*
X3883386Y4584699*
X3885313Y4568829*
X3890983Y4553881*
X3900064Y4540725*
X3912030Y4530124*
X3926186Y4522695*
X3941708Y4518869*
X3957692*
X3973214Y4522695*
G37*
G36*
X4633614Y4662035D02*
G01X4647770Y4669463D01*
X4659736Y4680064*
X4668817Y4693221*
X4674487Y4708168*
X4676414Y4724038*
X4674487Y4739908*
X4668818Y4754856*
X4659738Y4768013*
X4647772Y4778614*
X4633616Y4786043*
X4618094Y4789870*
X4602106*
X4586584Y4786043*
X4572428Y4778614*
X4560462Y4768013*
X4551382Y4754856*
X4545713Y4739908*
X4543786Y4724038*
X4545713Y4708168*
X4551383Y4693221*
X4560464Y4680064*
X4572430Y4669463*
X4586586Y4662035*
X4602108Y4658209*
X4618092*
X4633614Y4662035*
G37*
G36*
X8937246Y4790998D02*
G01X8958430Y4796674D01*
X8978306Y4805942*
X8996271Y4818520*
X9011778Y4834027*
X9024358Y4851992*
X9033626Y4871868*
X9039302Y4893052*
X9041214Y4914899*
X9039302Y4936746*
X9033626Y4957930*
X9024358Y4977806*
X9011780Y4995771*
X8996273Y5011278*
X8978308Y5023858*
X8958432Y5033126*
X8937248Y5038802*
X8915401Y5040714*
X8893552Y5038802*
X8872368Y5033126*
X8852492Y5023858*
X8834527Y5011278*
X8819020Y4995771*
X8806442Y4977806*
X8797174Y4957930*
X8791498Y4936746*
X8789586Y4914899*
X8791498Y4893052*
X8797174Y4871868*
X8806442Y4851992*
X8819022Y4834027*
X8834529Y4818520*
X8852494Y4805942*
X8872370Y4796674*
X8893554Y4790998*
X8915401Y4789086*
X8937246Y4790998*
G37*
G36*
Y5108498D02*
G01X8958430Y5114174D01*
X8978306Y5123442*
X8996271Y5136020*
X9011778Y5151527*
X9024358Y5169492*
X9033626Y5189368*
X9039302Y5210552*
X9041214Y5232399*
X9039302Y5254246*
X9033626Y5275430*
X9024358Y5295306*
X9011780Y5313271*
X8996273Y5328778*
X8978308Y5341358*
X8958432Y5350626*
X8937248Y5356302*
X8915401Y5358214*
X8893552Y5356302*
X8872368Y5350626*
X8852492Y5341358*
X8834527Y5328778*
X8819020Y5313271*
X8806442Y5295306*
X8797174Y5275430*
X8791498Y5254246*
X8789586Y5232399*
X8791498Y5210552*
X8797174Y5189368*
X8806442Y5169492*
X8819022Y5151527*
X8834529Y5136020*
X8852494Y5123442*
X8872370Y5114174*
X8893554Y5108498*
X8915401Y5106586*
X8937246Y5108498*
G37*
G36*
X7940558Y5373566D02*
G01X7965095Y5379456D01*
X7988409Y5389113*
X8009925Y5402298*
X8029113Y5418686*
X8045502Y5437874*
X8058688Y5459390*
X8068345Y5482704*
X8074236Y5507242*
X8076216Y5532398*
X8074236Y5557555*
X8068345Y5582093*
X8058688Y5605406*
X8045503Y5626922*
X8029115Y5646111*
X8009927Y5662499*
X7988411Y5675686*
X7965097Y5685342*
X7940560Y5691233*
X7915403Y5693213*
X7890244Y5691233*
X7865707Y5685342*
X7842393Y5675686*
X7820877Y5662499*
X7801689Y5646111*
X7785301Y5626922*
X7772116Y5605406*
X7762459Y5582093*
X7756568Y5557555*
X7754588Y5532398*
X7756568Y5507242*
X7762459Y5482704*
X7772116Y5459390*
X7785302Y5437874*
X7801691Y5418686*
X7820879Y5402298*
X7842395Y5389113*
X7865709Y5379456*
X7890246Y5373566*
X7915403Y5371586*
X7940558Y5373566*
G37*
G36*
Y5873565D02*
G01X7965095Y5879455D01*
X7988409Y5889112*
X8009925Y5902297*
X8029113Y5918685*
X8045502Y5937873*
X8058688Y5959389*
X8068345Y5982703*
X8074236Y6007241*
X8076216Y6032397*
X8074236Y6057554*
X8068345Y6082092*
X8058688Y6105405*
X8045503Y6126921*
X8029115Y6146110*
X8009927Y6162498*
X7988411Y6175685*
X7965097Y6185341*
X7940560Y6191232*
X7915403Y6193212*
X7890244Y6191232*
X7865707Y6185341*
X7842393Y6175685*
X7820877Y6162498*
X7801689Y6146110*
X7785301Y6126921*
X7772116Y6105405*
X7762459Y6082092*
X7756568Y6057554*
X7754588Y6032397*
X7756568Y6007241*
X7762459Y5982703*
X7772116Y5959389*
X7785302Y5937873*
X7801691Y5918685*
X7820879Y5902297*
X7842395Y5889112*
X7865709Y5879455*
X7890246Y5873565*
X7915403Y5871585*
X7940558Y5873565*
G37*
G36*
X4162618Y5915873D02*
G01X4178135Y5919703D01*
X4192284Y5927133*
X4204245Y5937734*
X4213322Y5950889*
X4218989Y5965833*
X4220915Y5981699*
X4218989Y5997565*
X4213323Y6012509*
X4204247Y6025664*
X4196649Y6032398*
X4192286Y6036265*
X4178137Y6043696*
X4162620Y6047527*
X4146636Y6047534*
X4131116Y6043716*
X4116961Y6036296*
X4104991Y6025705*
X4095904Y6012558*
X4090226Y5997622*
X4084547Y6012558*
X4075461Y6025705*
X4063491Y6036296*
X4049336Y6043716*
X4033816Y6047534*
X4017831Y6047527*
X4002315Y6043696*
X3988165Y6036265*
X3976205Y6025664*
X3967129Y6012509*
X3961463Y5997565*
X3959537Y5981699*
X3961463Y5965833*
X3967130Y5950889*
X3976207Y5937734*
X3988167Y5927133*
X4002317Y5919703*
X4017833Y5915873*
X4033814Y5915866*
X4049334Y5919683*
X4063489Y5927102*
X4075459Y5937693*
X4084546Y5950840*
X4090227Y5965778*
X4095905Y5950840*
X4104993Y5937693*
X4116963Y5927102*
X4131118Y5919683*
X4146638Y5915866*
X4162618Y5915873*
G37*
G36*
X8937246Y6208495D02*
G01X8958430Y6214171D01*
X8978306Y6223440*
X8996271Y6236018*
X9011778Y6251525*
X9024358Y6269490*
X9033626Y6289366*
X9039302Y6310549*
X9041214Y6332397*
X9039302Y6354244*
X9033626Y6375428*
X9024358Y6395304*
X9011780Y6413268*
X8996273Y6428776*
X8978308Y6441356*
X8958432Y6450624*
X8937248Y6456300*
X8915401Y6458212*
X8893552Y6456300*
X8872368Y6450624*
X8852492Y6441356*
X8834527Y6428776*
X8819020Y6413268*
X8806442Y6395304*
X8797174Y6375428*
X8791498Y6354244*
X8789586Y6332397*
X8791498Y6310549*
X8797174Y6289366*
X8806442Y6269490*
X8819022Y6251525*
X8834529Y6236018*
X8852494Y6223440*
X8872370Y6214171*
X8893554Y6208495*
X8915401Y6206584*
X8937246Y6208495*
G37*
G36*
Y6518198D02*
G01X8958430Y6523874D01*
X8978306Y6533142*
X8996271Y6545720*
X9011778Y6561227*
X9024358Y6579192*
X9033626Y6599068*
X9039302Y6620252*
X9041214Y6642099*
X9039302Y6663946*
X9033626Y6685130*
X9024358Y6705006*
X9011780Y6722971*
X8996273Y6738478*
X8978308Y6751058*
X8958432Y6760326*
X8937248Y6766002*
X8915401Y6767914*
X8893552Y6766002*
X8872368Y6760326*
X8852492Y6751058*
X8834527Y6738478*
X8819020Y6722971*
X8806442Y6705006*
X8797174Y6685130*
X8791498Y6663946*
X8789586Y6642099*
X8791498Y6620252*
X8797174Y6599068*
X8806442Y6579192*
X8819022Y6561227*
X8834529Y6545720*
X8852494Y6533142*
X8872370Y6523874*
X8893554Y6518198*
X8915401Y6516286*
X8937246Y6518198*
G37*
G36*
X7940558Y6783266D02*
G01X7965095Y6789156D01*
X7988409Y6798813*
X8009925Y6811998*
X8029113Y6828386*
X8045502Y6847574*
X8058688Y6869090*
X8068345Y6892404*
X8074236Y6916942*
X8076216Y6942098*
X8074236Y6967255*
X8068345Y6991793*
X8058688Y7015106*
X8045503Y7036622*
X8029115Y7055811*
X8009927Y7072199*
X7988411Y7085386*
X7965097Y7095042*
X7940560Y7100933*
X7915403Y7102913*
X7890244Y7100933*
X7865707Y7095042*
X7842393Y7085386*
X7820877Y7072199*
X7801689Y7055811*
X7785301Y7036622*
X7772116Y7015106*
X7762459Y6991793*
X7756568Y6967255*
X7754588Y6942098*
X7756568Y6916942*
X7762459Y6892404*
X7772116Y6869090*
X7785302Y6847574*
X7801691Y6828386*
X7820879Y6811998*
X7842395Y6798813*
X7865709Y6789156*
X7890246Y6783266*
X7915403Y6781286*
X7940558Y6783266*
G37*
G36*
X4620914Y7177356D02*
G01X4635070Y7184784D01*
X4647036Y7195385*
X4656117Y7208542*
X4661787Y7223490*
X4663714Y7239360*
X4661787Y7255230*
X4656118Y7270177*
X4647038Y7283334*
X4635072Y7293935*
X4620916Y7301364*
X4605394Y7305191*
X4589406*
X4573884Y7301364*
X4559728Y7293935*
X4547762Y7283334*
X4538682Y7270177*
X4533013Y7255230*
X4531086Y7239360*
X4533013Y7223490*
X4538683Y7208542*
X4547764Y7195385*
X4559730Y7184784*
X4573886Y7177356*
X4589408Y7173530*
X4605392*
X4620914Y7177356*
G37*
G36*
X7940558Y7283265D02*
G01X7965095Y7289155D01*
X7988409Y7298812*
X8009925Y7311997*
X8029113Y7328385*
X8045502Y7347573*
X8058688Y7369089*
X8068345Y7392403*
X8074236Y7416941*
X8076216Y7442097*
X8074236Y7467254*
X8068345Y7491792*
X8058688Y7515105*
X8045503Y7536621*
X8029115Y7555810*
X8009927Y7572198*
X7988411Y7585385*
X7965097Y7595041*
X7940560Y7600932*
X7915403Y7602912*
X7890244Y7600932*
X7865707Y7595041*
X7842393Y7585385*
X7820877Y7572198*
X7801689Y7555810*
X7785301Y7536621*
X7772116Y7515105*
X7762459Y7491792*
X7756568Y7467254*
X7754588Y7442097*
X7756568Y7416941*
X7762459Y7392403*
X7772116Y7369089*
X7785302Y7347573*
X7801691Y7328385*
X7820879Y7311997*
X7842395Y7298812*
X7865709Y7289155*
X7890246Y7283265*
X7915403Y7281285*
X7940558Y7283265*
G37*
G36*
X3935114Y7430990D02*
G01X3949270Y7438419D01*
X3953423Y7442098*
X3961236Y7449020*
X3970317Y7462176*
X3975987Y7477124*
X3977914Y7492994*
X3975987Y7508864*
X3970318Y7523812*
X3961238Y7536968*
X3949272Y7547569*
X3935116Y7554999*
X3919594Y7558825*
X3903606*
X3888084Y7554999*
X3873928Y7547569*
X3861962Y7536968*
X3852882Y7523812*
X3847213Y7508864*
X3845286Y7492994*
X3847213Y7477124*
X3852883Y7462176*
X3861964Y7449020*
X3873930Y7438419*
X3888086Y7430990*
X3903608Y7427164*
X3919592*
X3935114Y7430990*
G37*
G36*
Y7608790D02*
G01X3949270Y7616219D01*
X3961236Y7626820*
X3970317Y7639976*
X3975987Y7654924*
X3977914Y7670794*
X3975987Y7686664*
X3970318Y7701612*
X3961238Y7714768*
X3949272Y7725369*
X3935116Y7732799*
X3919594Y7736625*
X3903606*
X3888084Y7732799*
X3873928Y7725369*
X3861962Y7714768*
X3852882Y7701612*
X3847213Y7686664*
X3845286Y7670794*
X3847213Y7654924*
X3852883Y7639976*
X3861964Y7626820*
X3873930Y7616219*
X3888086Y7608790*
X3903608Y7604964*
X3919592*
X3935114Y7608790*
G37*
G36*
X8937246Y7618195D02*
G01X8958430Y7623871D01*
X8978306Y7633140*
X8996271Y7645718*
X9011778Y7661225*
X9024358Y7679190*
X9033626Y7699066*
X9039302Y7720249*
X9041214Y7742097*
X9039302Y7763944*
X9033626Y7785128*
X9024358Y7805004*
X9011780Y7822968*
X8996273Y7838476*
X8978308Y7851056*
X8958432Y7860324*
X8937248Y7866000*
X8915401Y7867912*
X8893552Y7866000*
X8872368Y7860324*
X8852492Y7851056*
X8834527Y7838476*
X8819020Y7822968*
X8806442Y7805004*
X8797174Y7785128*
X8791498Y7763944*
X8789586Y7742097*
X8791498Y7720249*
X8797174Y7699066*
X8806442Y7679190*
X8819022Y7661225*
X8834529Y7645718*
X8852494Y7633140*
X8872370Y7623871*
X8893554Y7618195*
X8915401Y7616284*
X8937246Y7618195*
G37*
G36*
X1179214Y407895D02*
G01X1193370Y415324D01*
X1205336Y425925*
X1214417Y439081*
X1220087Y454029*
X1222014Y469899*
X1220087Y485769*
X1214418Y500717*
X1205338Y513873*
X1193372Y524474*
X1179216Y531904*
X1163694Y535731*
X1147706*
X1132184Y531904*
X1118028Y524474*
X1106062Y513873*
X1096982Y500717*
X1091313Y485769*
X1089386Y469899*
X1091313Y454029*
X1096983Y439081*
X1106064Y425925*
X1118030Y415324*
X1132186Y407895*
X1147708Y404069*
X1163692*
X1179214Y407895*
G37*
%LPD*%
G54D14*
X7915402Y6942099D03*
Y7442098D03*
G54D15*
X8915400Y7742098D03*
Y6642100D03*
G54D14*
X7915402Y5532399D03*
Y6032398D03*
G54D15*
X8915400Y6332398D03*
Y5232400D03*
Y3814902D03*
Y4914900D03*
G54D14*
X8415401Y4614901D03*
Y4114902D03*
G54D16*
X8242300Y3149600D03*
X8496300D03*
X8242300Y2895600D03*
X8496300D03*
X8242300Y2641600D03*
X8496300D03*
X8242300Y2387600D03*
X8496300D03*
X8242300Y2133600D03*
X8496300D03*
X8242300Y1879600D03*
X8496300D03*
X8242300Y1625600D03*
X8496300D03*
X8242300Y1371600D03*
X8496300D03*
X8242300Y1117600D03*
X8496300D03*
X8242300Y863600D03*
X8496300D03*
X8242300Y609600D03*
X8496300D03*
X8242300Y355600D03*
G54D18*
X8496300D03*
G54D16*
X6210300Y3149600D03*
X6464300D03*
X6210300Y2895600D03*
X6464300D03*
X6210300Y2641600D03*
X6464300D03*
X6210300Y2387600D03*
X6464300D03*
X6210300Y2133600D03*
X6464300D03*
X6210300Y1879600D03*
X6464300D03*
X6210300Y1625600D03*
X6464300D03*
X6210300Y1371600D03*
X6464300D03*
X6210300Y1117600D03*
X6464300D03*
X6210300Y863600D03*
X6464300D03*
X6210300Y609600D03*
X6464300D03*
X6210300Y355600D03*
G54D18*
X6464300D03*
G54D19*
X825500Y3606800D03*
G54D70*
X1079500D03*
X1333500D03*
G54D19*
X825500Y1828800D03*
G54D70*
X1079500D03*
X1333500D03*
G54D20*
X4025851Y5981700D03*
X4154601D03*
X3911600Y7670795D03*
Y7492995D03*
X2971800Y5854700D03*
X3459270Y6116396D03*
X3458931Y6883552D03*
X2964433Y5085003D03*
X3937000Y4448880D03*
Y4313596D03*
X4597400Y7239361D03*
X4610100Y4724039D03*
X7721600Y4448570D03*
Y4314087D03*
G54D21*
X3543300Y3440509D03*
X3695700D03*
X3848100D03*
X4000500D03*
G54D20*
X4622102Y1993876D03*
X4623474Y1513542D03*
X5156196Y4016127D03*
Y3442409D03*
X6350709Y3987828D03*
X6272403Y3768929D03*
X7162828Y3936291D03*
X7162776Y3353499D03*
X8890000Y1879600D03*
X8768093Y2776921D03*
X8445500Y3517900D03*
X7708872Y191209D03*
X7847891Y1701772D03*
X7772400Y1536700D03*
X7910339Y2006600D03*
X7518428Y2120191D03*
X7899400Y765289D03*
X5435604Y2468763D03*
X5765796Y2465824D03*
X5598034Y2163605D03*
X5412801Y2983103D03*
X5156196Y3087762D03*
X5809804Y3797296D03*
X5810130Y3467104D03*
X6932394Y977904D03*
Y1143000D03*
X6933895Y1308104D03*
X6935426Y1473200D03*
X6938503Y657099D03*
X5168900Y749300D03*
X3954800Y863600D03*
X4025697D03*
X3683000D03*
X3759369D03*
X3429000Y749300D03*
X3531135D03*
X3708400Y394891D03*
X3873504Y403473D03*
X4038600D03*
X4203704Y407823D03*
X4051300Y2654300D03*
Y2578100D03*
X4203700Y2653109D03*
X4506488Y2286000D03*
X4660202Y2285976D03*
X5155009Y2400300D03*
X5130102Y2806676D03*
X5121027Y2641600D03*
X5232396Y1801967D03*
X5112249Y1841504D03*
X5115189Y1663704D03*
X5121986Y1498600D03*
X2578100Y2819400D03*
Y2742851D03*
Y2552700D03*
Y2476500D03*
X2910312Y1866211D03*
X2764703Y1876602D03*
X2775436Y800100D03*
X3629660Y1711960D03*
Y1788160D03*
Y1864360D03*
Y1940560D03*
Y2016760D03*
Y2092960D03*
X3705860Y1711960D03*
Y1788160D03*
Y1864360D03*
Y1940560D03*
Y2016760D03*
Y2092960D03*
X3782060Y1711960D03*
Y1788160D03*
Y1864360D03*
Y1940560D03*
Y2016760D03*
Y2092960D03*
X3365500Y2197100D03*
G54D22*
X3571020Y2405186D03*
G54D20*
X3721100Y2387600D03*
X3848100D03*
X3543300Y3146984D03*
X3695700D03*
X3848100Y3145867D03*
X4000500Y3146562D03*
X3784600Y1371600D03*
X3848100Y1295400D03*
X3708400Y671909D03*
X4038600D03*
X4620301Y1828800D03*
X4622721Y1676400D03*
X7528601Y3721097D03*
X7529909Y3568700D03*
X4601191Y3698299D03*
Y3774499D03*
G54D23*
X3896360Y6804660D03*
Y6893560D03*
X3985260Y6804660D03*
Y6893560D03*
X4074160Y6804660D03*
Y6893560D03*
X4163060Y6804660D03*
X4429760D03*
Y6893560D03*
X4518660Y6804660D03*
Y6893560D03*
X4607560Y6804660D03*
Y6893560D03*
X4696460Y6804660D03*
Y6893560D03*
X4785360Y6804660D03*
Y6893560D03*
X3883914Y5090160D03*
Y5179060D03*
X3972814Y5090160D03*
Y5179060D03*
X4061714Y5090160D03*
Y5179060D03*
X4150614Y5090160D03*
Y5179060D03*
X4366514Y5090160D03*
Y5179060D03*
X4455414Y5090160D03*
Y5179060D03*
X4544314Y5090160D03*
Y5179060D03*
X4633214Y5090160D03*
Y5179060D03*
X5496560Y6283960D03*
Y6372860D03*
Y6461760D03*
Y6550660D03*
X5763260Y6283960D03*
Y6372860D03*
Y6461760D03*
Y6550660D03*
X6715760Y6278474D03*
Y6367374D03*
Y6456274D03*
Y6545174D03*
X6982460Y6278474D03*
Y6367374D03*
Y6456274D03*
Y6545174D03*
X5496560Y5438546D03*
Y5527446D03*
Y5616346D03*
Y5705246D03*
X5763260Y5438546D03*
Y5527446D03*
Y5616346D03*
Y5705246D03*
X6715760Y5438546D03*
Y5527446D03*
Y5616346D03*
Y5705246D03*
X6982460Y5438546D03*
Y5527446D03*
Y5616346D03*
Y5705246D03*
G54D20*
X2321293Y5077460D03*
Y5153660D03*
Y5763260D03*
Y5839460D03*
Y5915660D03*
X2397493Y5077460D03*
Y5153660D03*
Y5763260D03*
Y5839460D03*
Y5915660D03*
X2473693Y5077460D03*
Y5153660D03*
Y5763260D03*
Y5839460D03*
Y5915660D03*
X2549893Y5077460D03*
Y5153660D03*
Y5763260D03*
Y5839460D03*
Y5915660D03*
X2626093Y5077460D03*
Y5153660D03*
Y5763260D03*
Y5839460D03*
Y5915660D03*
X2702293Y5077460D03*
Y5153660D03*
Y5763260D03*
Y5839460D03*
Y5915660D03*
X2321560Y6080760D03*
Y6156960D03*
Y6842760D03*
Y6918960D03*
X2397760Y6080760D03*
Y6156960D03*
Y6842760D03*
Y6918960D03*
X2473960Y6080760D03*
Y6156960D03*
Y6842760D03*
Y6918960D03*
X2550160Y6080760D03*
Y6156960D03*
Y6842760D03*
Y6918960D03*
X2626360Y6080760D03*
Y6156960D03*
Y6842760D03*
Y6918960D03*
X2702560Y6080760D03*
Y6156960D03*
Y6842760D03*
Y6918960D03*
X2321560Y7097014D03*
Y7173214D03*
Y7249414D03*
Y7325614D03*
Y7401814D03*
Y7478014D03*
X2397760Y7097014D03*
Y7173214D03*
Y7249414D03*
Y7325614D03*
Y7401814D03*
Y7478014D03*
X2473960Y7097014D03*
Y7173214D03*
Y7249414D03*
Y7325614D03*
Y7401814D03*
Y7478014D03*
X2550160Y7097014D03*
Y7173214D03*
Y7249414D03*
Y7325614D03*
Y7401814D03*
Y7478014D03*
X2626360Y7097014D03*
Y7173214D03*
Y7249414D03*
Y7325614D03*
Y7401814D03*
Y7478014D03*
X2702560Y7097014D03*
Y7173214D03*
Y7249414D03*
Y7325614D03*
Y7401814D03*
Y7478014D03*
X2321560Y4480560D03*
Y4556760D03*
Y4632960D03*
Y4709160D03*
Y4785360D03*
Y4861560D03*
X2397760Y4480560D03*
Y4556760D03*
Y4632960D03*
Y4709160D03*
Y4785360D03*
Y4861560D03*
X2473960Y4480560D03*
Y4556760D03*
Y4632960D03*
Y4709160D03*
Y4785360D03*
Y4861560D03*
X2550160Y4480560D03*
Y4556760D03*
Y4632960D03*
Y4709160D03*
Y4785360D03*
Y4861560D03*
X2626360Y4480560D03*
Y4556760D03*
Y4632960D03*
Y4709160D03*
Y4785360D03*
Y4861560D03*
X2702560Y4480560D03*
Y4556760D03*
Y4632960D03*
Y4709160D03*
Y4785360D03*
Y4861560D03*
X3069448Y7077067D03*
Y7153267D03*
Y7229467D03*
Y7305667D03*
X3145648Y7077067D03*
Y7153267D03*
Y7229467D03*
Y7305667D03*
X3221848Y7077067D03*
Y7153267D03*
Y7229467D03*
Y7305667D03*
X3298048Y7077067D03*
Y7153267D03*
Y7229467D03*
Y7305667D03*
X3374248Y7077067D03*
Y7153267D03*
Y7229467D03*
Y7305667D03*
X3058160Y6322060D03*
Y6398260D03*
Y6474460D03*
Y6550660D03*
X3134360Y6322060D03*
Y6398260D03*
Y6474460D03*
Y6550660D03*
X3210560Y6322060D03*
Y6398260D03*
Y6474460D03*
Y6550660D03*
X3286760Y6322060D03*
Y6398260D03*
Y6474460D03*
Y6550660D03*
X3362960Y6322060D03*
Y6398260D03*
Y6474460D03*
Y6550660D03*
X3058160Y5407660D03*
Y5483860D03*
Y5560060D03*
Y5636260D03*
X3134360Y5407660D03*
Y5483860D03*
Y5560060D03*
Y5636260D03*
X3210560Y5407660D03*
Y5483860D03*
Y5560060D03*
Y5636260D03*
X3286760Y5407660D03*
Y5483860D03*
Y5560060D03*
Y5636260D03*
X3362960Y5407660D03*
Y5483860D03*
Y5560060D03*
Y5636260D03*
X3058160Y4645660D03*
Y4721860D03*
Y4798060D03*
Y4874260D03*
X3134360Y4645660D03*
Y4721860D03*
Y4798060D03*
Y4874260D03*
X3210560Y4645660D03*
Y4721860D03*
Y4798060D03*
Y4874260D03*
X3286760Y4645660D03*
Y4721860D03*
Y4798060D03*
Y4874260D03*
X3362960Y4645660D03*
Y4721860D03*
Y4798060D03*
Y4874260D03*
X3619500Y1422400D03*
G54D22*
X3783406Y2468495D03*
G54D20*
X7899400Y1536700D03*
X7518400D03*
X7810500Y2716609D03*
X7924800Y2717800D03*
X4051300Y1612900D03*
X4114155Y1670655D03*
X4852109Y1663728D03*
X3203743Y1991888D03*
X4194725Y1155700D03*
X3695700Y1358900D03*
X6642100Y660400D03*
X6388100Y3657600D03*
X6933656Y2679700D03*
X5435600Y2717153D03*
X5582412Y2882969D03*
X5129609Y2971799D03*
X5159539Y2247900D03*
X5779691Y1625600D03*
X3479800Y1253687D03*
X2769791Y952500D03*
X3048773D03*
X3384398Y2502091D03*
X2247900Y2654300D03*
X2768600Y1739900D03*
X3055388Y1519475D03*
G54D23*
X4163060Y6893560D03*
G54D20*
X2514600Y3238500D03*
X4025900Y2120900D03*
Y2044700D03*
X4089400Y1981200D03*
X4025900Y1917700D03*
X3352800Y1612900D03*
X3336895Y1956460D03*
X2146300Y3238500D03*
X2768600Y1193800D03*
X4965700Y1422400D03*
X4973899Y2006600D03*
X4999111Y2247900D03*
X4356809Y2705128D03*
X1155700Y469900D03*
X8890000Y2006600D03*
X7645400Y1535122D03*
X6616002Y3987776D03*
X5226202Y3283102D03*
X5651500Y3771900D03*
X8544560Y4785360D03*
X8620760Y4480560D03*
Y4556760D03*
Y4632960D03*
Y4709160D03*
Y4785360D03*
X8696960Y4480560D03*
Y4556760D03*
Y4632960D03*
Y4709160D03*
Y4785360D03*
X8773160Y4480560D03*
Y4556760D03*
Y4632960D03*
Y4709160D03*
Y4785360D03*
X8849360Y4480560D03*
Y4556760D03*
Y4632960D03*
Y4709160D03*
X8925560Y4480560D03*
Y4556760D03*
Y4632960D03*
Y4709160D03*
X9001760Y4480560D03*
Y4556760D03*
Y4632960D03*
Y4709160D03*
X9077960Y4480560D03*
Y4556760D03*
Y4632960D03*
Y4709160D03*
Y4785360D03*
X9154160Y4480560D03*
Y4556760D03*
Y4632960D03*
Y4709160D03*
Y4785360D03*
X3949700Y4584700D03*
X3149628Y2454403D03*
X2984500Y1351334D03*
X4420464Y2363906D03*
X3932456Y1386050D03*
X3059509Y1117600D03*
X3187700Y939800D03*
X3397677Y1899077D03*
X3416300Y1333500D03*
X4194815Y1018500D03*
X4013200Y3924300D03*
Y3708400D03*
X3340100Y3568700D03*
Y3759200D03*
X6667500Y2870200D03*
X6968606Y3243665D03*
X5478961Y1124868D03*
G54D12*
X35814Y4137660D02*
G01Y4948942D01*
X3478869*
Y4676514*
X2939894Y4137660*
X35814*
Y5007616D02*
G01Y5958586D01*
X3479241*
Y5007616*
X35814*
X2898119Y5085003D02*
G75*
G03X3030748Y5085003I66315D01*
Y5085003D02*
G03X2898119Y5085003I-66314D01*
X2905486Y5854700D02*
G03X3038114Y5854700I66314D01*
Y5854700D02*
G03X2905486Y5854700I-66314D01*
X35814Y4994916D02*
G01Y5952484D01*
X3479241*
Y4994916*
X35814*
X2898119Y5085003D02*
G03X3030748Y5085003I66315D01*
Y5085003D02*
G03X2898119Y5085003I-66314D01*
X2905486Y5854700D02*
G03X3038114Y5854700I66314D01*
Y5854700D02*
G03X2905486Y5854700I-66314D01*
X3488690Y6824291D02*
G01Y6175827D01*
Y6175827D02*
G03X3392956Y6116396I-29420J-59431D01*
Y6116396D02*
G03X3488690Y6056965I66314D01*
Y6056965D02*
G01Y6004560D01*
X41910*
Y6974840*
X3488690*
Y6942814*
Y6942814D02*
G03X3392617Y6883552I-29759J-59262D01*
Y6883552D02*
G03X3488690Y6824291I66313J0D01*
X3520440Y7020560D02*
G01X3503108D01*
Y7020560D02*
G03X3498850Y7020814I-4258J-35560D01*
Y7020814D02*
G01X35814D01*
Y7874000*
X127000Y7965186D02*
G03X35814Y7874000J-91186D01*
X127000Y7965186D02*
G01X3520440D01*
Y7020560*
X9156700Y35814D02*
G01X7302640D01*
Y3267475*
X7820774*
Y3267475D02*
G03X7856588Y3303289J35814D01*
Y3303289D02*
G01Y3799840D01*
X8790491*
Y3799840D02*
G03X8915400Y3689088I124909J15062D01*
Y3689088D02*
G03X9040309Y3799840J125814D01*
Y3799840D02*
G01X9247886D01*
Y127000*
X9156700Y35814D02*
G03X9247886Y127000J91186D01*
X7452091Y1537524D02*
G03X7581663Y1516816I66309J-824D01*
Y1516816D02*
G03X7711709Y1534298I63737J18306D01*
Y1534298D02*
G03X7582137Y1555006I-66309J824D01*
Y1555006D02*
G03X7452091Y1537524I-63737J-18306D01*
X7867300Y2750834D02*
G03X7744190Y2715918I-56800J-34225D01*
Y2715918D02*
G03X7868000Y2683575I66310J691D01*
Y2683575D02*
G03X7991111Y2718491I56800J34225D01*
X7991110D02*
G03X7867300Y2750834I-66310J-691D01*
X7833086Y1536700D02*
G03X7965714Y1536700I66314D01*
Y1536700D02*
G03X7833086Y1536700I-66314D01*
X8242300Y2525786D02*
G03X8242300Y2757414J115814D01*
Y2757414D02*
G03X8242300Y2525786J-115814D01*
Y2271786D02*
G03X8242300Y2503414J115814D01*
Y2503414D02*
G03X8242300Y2271786J-115814D01*
Y2779786D02*
G03X8242300Y3011414J115814D01*
Y3011414D02*
G03X8242300Y2779786J-115814D01*
Y2017786D02*
G03X8242300Y2249414J115814D01*
Y2249414D02*
G03X8242300Y2017786J-115814D01*
Y1763786D02*
G03X8242300Y1995414J115814D01*
Y1995414D02*
G03X8242300Y1763786J-115814D01*
Y1001786D02*
G03X8242300Y1233414J115814D01*
Y1233414D02*
G03X8242300Y1001786J-115814D01*
Y1509786D02*
G03X8242300Y1741414J115814D01*
Y1741414D02*
G03X8242300Y1509786J-115814D01*
Y1255786D02*
G03X8242300Y1487414J115814D01*
Y1487414D02*
G03X8242300Y1255786J-115814D01*
Y747786D02*
G03X8242300Y979414J115814D01*
Y979414D02*
G03X8242300Y747786J-115814D01*
Y493786D02*
G03X8242300Y725414J115814D01*
Y725414D02*
G03X8242300Y493786J-115814D01*
Y239786D02*
G03X8242300Y471414J115814D01*
Y471414D02*
G03X8242300Y239786J-115814D01*
Y3033786D02*
G03X8242300Y3265414J115814D01*
Y3265414D02*
G03X8242300Y3033786J-115814D01*
X8612114Y435600D02*
G03X8576300Y471414I-35814D01*
Y471414D02*
G01X8416300D01*
Y471414D02*
G03X8380486Y435600J-35814D01*
Y435600D02*
G01Y275600D01*
Y275600D02*
G03X8416300Y239786I35814D01*
Y239786D02*
G01X8576300D01*
Y239786D02*
G03X8612114Y275600J35814D01*
Y275600D02*
G01Y435600D01*
X8496300Y2525786D02*
G03X8496300Y2757414J115814D01*
Y2757414D02*
G03X8496300Y2525786J-115814D01*
Y2271786D02*
G03X8496300Y2503414J115814D01*
Y2503414D02*
G03X8496300Y2271786J-115814D01*
Y2779786D02*
G03X8496300Y3011414J115814D01*
Y3011414D02*
G03X8496300Y2779786J-115814D01*
Y2017786D02*
G03X8496300Y2249414J115814D01*
Y2249414D02*
G03X8496300Y2017786J-115814D01*
Y1763786D02*
G03X8496300Y1995414J115814D01*
Y1995414D02*
G03X8496300Y1763786J-115814D01*
Y1001786D02*
G03X8496300Y1233414J115814D01*
Y1233414D02*
G03X8496300Y1001786J-115814D01*
Y1509786D02*
G03X8496300Y1741414J115814D01*
Y1741414D02*
G03X8496300Y1509786J-115814D01*
Y1255786D02*
G03X8496300Y1487414J115814D01*
Y1487414D02*
G03X8496300Y1255786J-115814D01*
Y747786D02*
G03X8496300Y979414J115814D01*
Y979414D02*
G03X8496300Y747786J-115814D01*
Y493786D02*
G03X8496300Y725414J115814D01*
Y725414D02*
G03X8496300Y493786J-115814D01*
Y3033786D02*
G03X8496300Y3265414J115814D01*
Y3265414D02*
G03X8496300Y3033786J-115814D01*
X8823686Y2006600D02*
G03X8956314Y2006600I66314D01*
Y2006600D02*
G03X8823686Y2006600I-66314D01*
X35814Y127000D02*
G01Y4091686D01*
X2944102*
Y4091686D02*
G03X2969423Y4102173J35814D01*
Y4102173D02*
G01X3514350Y4646978D01*
Y4646978D02*
G03X3524843Y4672305I-25322J25328D01*
Y4672305D02*
G01Y4965700D01*
Y4965700D02*
G03X3523732Y4974553I-35814D01*
X3523731D02*
G03X3525215Y4984756I-34330J10203D01*
Y4984756D02*
G01Y4997456D01*
Y5970161*
Y5970161D02*
G03X3534664Y5994400I-26365J24239D01*
Y5994400D02*
G01Y6974817D01*
Y6974817D02*
G03X3566414Y7010400I-4064J35583D01*
Y7010400D02*
G01Y7965186D01*
X9156700*
X9235440Y7919988D02*
G03X9156700Y7965186I-78740J-45988D01*
X9235440Y7919988D02*
G01Y3845814D01*
X9037357*
Y3845814D02*
G03X8915400Y3940716I-121957J-30912D01*
Y3940716D02*
G03X8793443Y3845814I0J-125814D01*
Y3845814D02*
G01X7829705D01*
X7350717Y4124029*
Y4124029D02*
G03X7332729Y4128874I-17988J-30969D01*
Y4128874D02*
G01X4448015D01*
Y4128874D02*
G03X4412203Y4092685J-35814D01*
Y4092685D02*
G01X4420220Y3327806D01*
X2161426*
Y3327806D02*
G03X2127024Y3301951I0J-35814D01*
Y3301951D02*
G03X2079990Y3239241I19276J-63451D01*
Y3239241D02*
G03X2125612Y3175496I66310J-741D01*
Y3175496D02*
G01Y48260D01*
X81012*
X35814Y127000D02*
G03X81012Y48260I91186D01*
X910500Y3485986D02*
G03X946314Y3521800J35814D01*
Y3521800D02*
G01Y3691800D01*
Y3691800D02*
G03X910500Y3727614I-35814D01*
Y3727614D02*
G01X740500D01*
Y3727614D02*
G03X704686Y3691800J-35814D01*
Y3691800D02*
G01Y3521800D01*
Y3521800D02*
G03X740500Y3485986I35814D01*
Y3485986D02*
G01X910500D01*
Y1707986D02*
G03X946314Y1743800J35814D01*
Y1743800D02*
G01Y1913800D01*
Y1913800D02*
G03X910500Y1949614I-35814D01*
Y1949614D02*
G01X740500D01*
Y1949614D02*
G03X704686Y1913800J-35814D01*
Y1913800D02*
G01Y1743800D01*
Y1743800D02*
G03X740500Y1707986I35814D01*
Y1707986D02*
G01X910500D01*
X958686Y3606800D02*
G03X1200314Y3606800I120814D01*
Y3606800D02*
G03X958686Y3606800I-120814D01*
Y1828800D02*
G03X1200314Y1828800I120814D01*
Y1828800D02*
G03X958686Y1828800I-120814D01*
X1089386Y469900D02*
G03X1222014Y469900I66314D01*
Y469900D02*
G03X1089386Y469900I-66314D01*
X1212686Y3606800D02*
G03X1454314Y3606800I120814D01*
Y3606800D02*
G03X1212686Y3606800I-120814D01*
Y1828800D02*
G03X1454314Y1828800I120814D01*
Y1828800D02*
G03X1212686Y1828800I-120814D01*
X3470656Y3440509D02*
G03X3615944Y3440509I72644D01*
Y3440509D02*
G03X3470656Y3440509I-72644D01*
X3623056D02*
G03X3768344Y3440509I72644D01*
Y3440509D02*
G03X3623056Y3440509I-72644D01*
X3775456D02*
G03X3920744Y3440509I72644D01*
Y3440509D02*
G03X3775456Y3440509I-72644D01*
X3845286Y7670795D02*
G03X3977914Y7670795I66314D01*
Y7670795D02*
G03X3845286Y7670795I-66314D01*
Y7492995D02*
G03X3977914Y7492995I66314D01*
Y7492995D02*
G03X3845286Y7492995I-66314D01*
X3870686Y4313596D02*
G03X4003314Y4313596I66314D01*
Y4313596D02*
G03X3870686Y4313596I-66314D01*
Y4448880D02*
G03X4003314Y4448880I66314D01*
Y4448880D02*
G03X3870686Y4448880I-66314D01*
X3883386Y4584700D02*
G03X4016014Y4584700I66314D01*
Y4584700D02*
G03X3883386Y4584700I-66314D01*
X3927856Y3440509D02*
G03X4073144Y3440509I72644D01*
Y3440509D02*
G03X3927856Y3440509I-72644D01*
X3959537Y5981700D02*
G03X4090226Y5965781I66314D01*
Y5965781D02*
G03X4220915Y5981700I64375J15919D01*
Y5981700D02*
G03X4090226Y5997619I-66314D01*
Y5997619D02*
G03X3959537Y5981700I-64375J-15919D01*
X4531086Y7239361D02*
G03X4663714Y7239361I66314D01*
Y7239361D02*
G03X4531086Y7239361I-66314D01*
X4543786Y4724039D02*
G03X4676414Y4724039I66314D01*
Y4724039D02*
G03X4543786Y4724039I-66314D01*
X7655286Y4314087D02*
G03X7787914Y4314087I66314D01*
Y4314087D02*
G03X7655286Y4314087I-66314D01*
Y4448570D02*
G03X7787914Y4448570I66314D01*
Y4448570D02*
G03X7655286Y4448570I-66314D01*
X7915402Y7281285D02*
G03X7915402Y7602912J160814D01*
Y7602912D02*
G03X7915402Y7281285J-160813D01*
Y6781286D02*
G03X7915402Y7102913J160814D01*
Y7102913D02*
G03X7915402Y6781286J-160813D01*
Y5371586D02*
G03X7915402Y5693213J160814D01*
Y5693213D02*
G03X7915402Y5371586J-160813D01*
Y5871585D02*
G03X7915402Y6193212J160814D01*
Y6193212D02*
G03X7915402Y5871585J-160813D01*
X8415401Y4454087D02*
G03X8415401Y4775714J160814D01*
Y4775714D02*
G03X8415401Y4454087J-160813D01*
Y3954088D02*
G03X8415401Y4275715J160814D01*
Y4275715D02*
G03X8415401Y3954088J-160813D01*
X8915400Y7616284D02*
G03X8915400Y7867912J125814D01*
Y7867912D02*
G03X8915400Y7616284J-125814D01*
Y6516286D02*
G03X8915400Y6767914J125814D01*
Y6767914D02*
G03X8915400Y6516286J-125814D01*
Y6206584D02*
G03X8915400Y6458212J125814D01*
Y6458212D02*
G03X8915400Y6206584J-125814D01*
Y5106586D02*
G03X8915400Y5358214J125814D01*
Y5358214D02*
G03X8915400Y5106586J-125814D01*
Y4789086D02*
G03X8915400Y5040714J125814D01*
Y5040714D02*
G03X8915400Y4789086J-125814D01*
X2210811Y3223141D02*
G03X2196499Y3281832I-64511J15359D01*
Y3281832D02*
G01X2464401D01*
Y3281832D02*
G03X2514600Y3172186I50199J-43332D01*
Y3172186D02*
G03X2564799Y3281832J66314D01*
Y3281832D02*
G01X4456412D01*
Y3281832D02*
G03X4466571Y3292098I0J10160D01*
Y3292098D02*
G01X4458282Y4082900D01*
X7329993*
X7810614Y3803736*
Y3313449*
X7266826*
Y3313449D02*
G03X7256666Y3303289J-10160D01*
Y3303289D02*
G01Y35814D01*
X2171586*
Y3177196*
Y3177196D02*
G03X2210811Y3223141I-25286J61304D01*
X2181586Y2654300D02*
G03X2314214Y2654300I66314D01*
Y2654300D02*
G03X2181586Y2654300I-66314D01*
X2702286Y1739900D02*
G03X2834914Y1739900I66314D01*
Y1739900D02*
G03X2702286Y1739900I-66314D01*
Y1193800D02*
G03X2834914Y1193800I66314D01*
Y1193800D02*
G03X2702286Y1193800I-66314D01*
X2703477Y952500D02*
G03X2836105Y952500I66314D01*
Y952500D02*
G03X2703477Y952500I-66314D01*
X2918186Y1351334D02*
G03X3050814Y1351334I66314D01*
Y1351334D02*
G03X2918186Y1351334I-66314D01*
X2982459Y952500D02*
G03X3115087Y952500I66314D01*
Y952500D02*
G03X2982459Y952500I-66314D01*
X2989074Y1519475D02*
G03X3121702Y1519475I66314D01*
Y1519475D02*
G03X2989074Y1519475I-66314D01*
X2993195Y1117600D02*
G03X3125823Y1117600I66314D01*
Y1117600D02*
G03X2993195Y1117600I-66314D01*
X3083314Y2454403D02*
G03X3215942Y2454403I66314D01*
Y2454403D02*
G03X3083314Y2454403I-66314D01*
X3121386Y939800D02*
G03X3254014Y939800I66314D01*
Y939800D02*
G03X3121386Y939800I-66314D01*
X3137429Y1991888D02*
G03X3270057Y1991888I66314D01*
Y1991888D02*
G03X3137429Y1991888I-66314D01*
X3288676Y2001984D02*
G03X3331942Y1890331I48220J-45524D01*
Y1890331D02*
G03X3445896Y1853553I65735J8746D01*
Y1853553D02*
G03X3402630Y1965206I-48220J45524D01*
Y1965206D02*
G03X3288676Y2001984I-65735J-8746D01*
X3286486Y1612900D02*
G03X3419114Y1612900I66314D01*
Y1612900D02*
G03X3286486Y1612900I-66314D01*
X3299186Y2197100D02*
G03X3431814Y2197100I66314D01*
Y2197100D02*
G03X3299186Y2197100I-66314D01*
X3318084Y2502091D02*
G03X3450712Y2502091I66314D01*
Y2502091D02*
G03X3318084Y2502091I-66314D01*
X3521087Y1201794D02*
G03X3481222Y1319986I-41287J51893D01*
Y1319986D02*
G03X3375013Y1385394I-64922J13514D01*
Y1385394D02*
G03X3414878Y1267201I41287J-51894D01*
Y1267201D02*
G03X3521087Y1201794I64922J-13514D01*
X3476986Y3146984D02*
G03X3609614Y3146984I66314D01*
Y3146984D02*
G03X3476986Y3146984I-66314D01*
X3504726Y2405186D02*
G03X3637314Y2405186I66294D01*
Y2405186D02*
G03X3504726Y2405186I-66294D01*
X3858170Y1229855D02*
G03X3907667Y1324544I-10070J65545D01*
Y1324544D02*
G03X3977631Y1434597I24789J61507D01*
Y1434597D02*
G03X3872889Y1356907I-45175J-48546D01*
Y1356907D02*
G03X3850168Y1361682I-24789J-61507D01*
Y1361682D02*
G03X3811495Y1432215I-65568J9918D01*
Y1432215D02*
G03X3733249Y1413559I-26895J-60615D01*
Y1413559D02*
G03X3685782Y1424468I-37549J-54659D01*
Y1424468D02*
G03X3568556Y1464853I-66282J-2068D01*
Y1464853D02*
G03X3629418Y1356832I50944J-42453D01*
Y1356832D02*
G03X3674403Y1296099I66282J2068D01*
Y1296099D02*
G03X3747051Y1316941I21297J62801D01*
Y1316941D02*
G03X3782532Y1305318I37549J54659D01*
Y1305318D02*
G03X3858170Y1229855I65568J-9918D01*
X3629386Y3146984D02*
G03X3762014Y3146984I66314D01*
Y3146984D02*
G03X3629386Y3146984I-66314D01*
X3642086Y671909D02*
G03X3774714Y671909I66314D01*
Y671909D02*
G03X3642086Y671909I-66314D01*
X3783385Y2534789D02*
G03X3718745Y2453872I21J-66294D01*
Y2453872D02*
G03X3668590Y2347100I2355J-66272D01*
Y2347100D02*
G03X3784600Y2368487I52510J40500D01*
Y2368487D02*
G03X3901328Y2348049I63500J19113D01*
Y2348049D02*
G03X3848077Y2453914I-53228J39551D01*
Y2453914D02*
G03X3783385Y2534789I-64671J14581D01*
X3781786Y3145867D02*
G03X3914414Y3145867I66314D01*
Y3145867D02*
G03X3781786Y3145867I-66314D01*
X3934186Y3146562D02*
G03X4066814Y3146562I66314D01*
Y3146562D02*
G03X3934186Y3146562I-66314D01*
X3985241Y1865313D02*
G03X4092157Y1914943I40659J52387D01*
Y1914943D02*
G03X4155714Y1981200I-2757J66257D01*
Y1981200D02*
G03X4092157Y2047457I-66314D01*
Y2047457D02*
G03X4080177Y2082800I-66257J-2757D01*
Y2082800D02*
G03X4025900Y2187214I-54277J38100D01*
Y2187214D02*
G03X3971623Y2082800J-66314D01*
Y2082800D02*
G03X4006787Y1981200I54277J-38100D01*
Y1981200D02*
G03X3985241Y1865313I19113J-63500D01*
X3972286Y671909D02*
G03X4104914Y671909I66314D01*
Y671909D02*
G03X3972286Y671909I-66314D01*
X4002470Y1568032D02*
G03X4117068Y1604405I48830J44868D01*
Y1604405D02*
G03X4162985Y1715523I-2913J66250D01*
Y1715523D02*
G03X4048387Y1679150I-48830J-44868D01*
Y1679150D02*
G03X4002470Y1568032I2913J-66250D01*
X4128411Y1155700D02*
G03X4261039Y1155700I66314D01*
Y1155700D02*
G03X4128411Y1155700I-66314D01*
X4128501Y1018500D02*
G03X4261129Y1018500I66314D01*
Y1018500D02*
G03X4128501Y1018500I-66314D01*
X4290495Y2705128D02*
G03X4423123Y2705128I66314D01*
Y2705128D02*
G03X4290495Y2705128I-66314D01*
X4354150Y2363906D02*
G03X4486778Y2363906I66314D01*
Y2363906D02*
G03X4354150Y2363906I-66314D01*
X4601191Y3631985D02*
G03X4655467Y3736399J66314D01*
Y3736399D02*
G03X4601191Y3840814I-54277J38100D01*
Y3840814D02*
G03X4546914Y3736399I0J-66314D01*
Y3736399D02*
G03X4601191Y3631985I54277J-38100D01*
X4553987Y1828800D02*
G03X4686615Y1828800I66314D01*
Y1828800D02*
G03X4553987Y1828800I-66314D01*
X4556407Y1676400D02*
G03X4689035Y1676400I66314D01*
Y1676400D02*
G03X4556407Y1676400I-66314D01*
X4785795Y1663728D02*
G03X4918423Y1663728I66314D01*
Y1663728D02*
G03X4785795Y1663728I-66314D01*
X4899386Y1422400D02*
G03X5032014Y1422400I66314D01*
Y1422400D02*
G03X4899386Y1422400I-66314D01*
X4907585Y2006600D02*
G03X5040213Y2006600I66314D01*
Y2006600D02*
G03X4907585Y2006600I-66314D01*
X4932797Y2247900D02*
G03X5065425Y2247900I66314D01*
Y2247900D02*
G03X4932797Y2247900I-66314D01*
X5063295Y2971799D02*
G03X5195923Y2971799I66314D01*
Y2971799D02*
G03X5063295Y2971799I-66314D01*
X5093225Y2247900D02*
G03X5225853Y2247900I66314D01*
Y2247900D02*
G03X5093225Y2247900I-66314D01*
X5159888Y3283102D02*
G03X5292516Y3283102I66314D01*
Y3283102D02*
G03X5159888Y3283102I-66314D01*
X5369286Y2717153D02*
G03X5501914Y2717153I66314D01*
Y2717153D02*
G03X5369286Y2717153I-66314D01*
X5412647Y1124868D02*
G03X5545275Y1124868I66314D01*
Y1124868D02*
G03X5412647Y1124868I-66314D01*
X5516098Y2882969D02*
G03X5648726Y2882969I66314D01*
Y2882969D02*
G03X5516098Y2882969I-66314D01*
X5585186Y3771900D02*
G03X5717814Y3771900I66314D01*
Y3771900D02*
G03X5585186Y3771900I-66314D01*
X5713377Y1625600D02*
G03X5846005Y1625600I66314D01*
Y1625600D02*
G03X5713377Y1625600I-66314D01*
X6210300Y2525786D02*
G03X6210300Y2757414J115814D01*
Y2757414D02*
G03X6210300Y2525786J-115814D01*
Y2271786D02*
G03X6210300Y2503414J115814D01*
Y2503414D02*
G03X6210300Y2271786J-115814D01*
Y2779786D02*
G03X6210300Y3011414J115814D01*
Y3011414D02*
G03X6210300Y2779786J-115814D01*
Y3033786D02*
G03X6210300Y3265414J115814D01*
Y3265414D02*
G03X6210300Y3033786J-115814D01*
Y1763786D02*
G03X6210300Y1995414J115814D01*
Y1995414D02*
G03X6210300Y1763786J-115814D01*
Y1255786D02*
G03X6210300Y1487414J115814D01*
Y1487414D02*
G03X6210300Y1255786J-115814D01*
Y1509786D02*
G03X6210300Y1741414J115814D01*
Y1741414D02*
G03X6210300Y1509786J-115814D01*
Y747786D02*
G03X6210300Y979414J115814D01*
Y979414D02*
G03X6210300Y747786J-115814D01*
Y493786D02*
G03X6210300Y725414J115814D01*
Y725414D02*
G03X6210300Y493786J-115814D01*
Y239786D02*
G03X6210300Y471414J115814D01*
Y471414D02*
G03X6210300Y239786J-115814D01*
Y1001786D02*
G03X6210300Y1233414J115814D01*
Y1233414D02*
G03X6210300Y1001786J-115814D01*
Y2017786D02*
G03X6210300Y2249414J115814D01*
Y2249414D02*
G03X6210300Y2017786J-115814D01*
X6321786Y3657600D02*
G03X6454414Y3657600I66314D01*
Y3657600D02*
G03X6321786Y3657600I-66314D01*
X6464300Y2271786D02*
G03X6464300Y2503414J115814D01*
Y2503414D02*
G03X6464300Y2271786J-115814D01*
Y2525786D02*
G03X6464300Y2757414J115814D01*
Y2757414D02*
G03X6464300Y2525786J-115814D01*
Y2779786D02*
G03X6464300Y3011414J115814D01*
Y3011414D02*
G03X6464300Y2779786J-115814D01*
Y3033786D02*
G03X6464300Y3265414J115814D01*
Y3265414D02*
G03X6464300Y3033786J-115814D01*
Y1255786D02*
G03X6464300Y1487414J115814D01*
Y1487414D02*
G03X6464300Y1255786J-115814D01*
Y1509786D02*
G03X6464300Y1741414J115814D01*
Y1741414D02*
G03X6464300Y1509786J-115814D01*
Y1763786D02*
G03X6464300Y1995414J115814D01*
Y1995414D02*
G03X6464300Y1763786J-115814D01*
Y747786D02*
G03X6464300Y979414J115814D01*
Y979414D02*
G03X6464300Y747786J-115814D01*
X6580114Y435600D02*
G03X6544300Y471414I-35814D01*
Y471414D02*
G01X6384300D01*
Y471414D02*
G03X6348486Y435600J-35814D01*
Y435600D02*
G01Y275600D01*
Y275600D02*
G03X6384300Y239786I35814D01*
Y239786D02*
G01X6544300D01*
Y239786D02*
G03X6580114Y275600J35814D01*
Y275600D02*
G01Y435600D01*
X6464300Y493786D02*
G03X6464300Y725414J115814D01*
Y725414D02*
G03X6464300Y493786J-115814D01*
Y1001786D02*
G03X6464300Y1233414J115814D01*
Y1233414D02*
G03X6464300Y1001786J-115814D01*
Y2017786D02*
G03X6464300Y2249414J115814D01*
Y2249414D02*
G03X6464300Y2017786J-115814D01*
X6549687Y3987776D02*
G03X6682316Y3987776I66315D01*
Y3987776D02*
G03X6549687Y3987776I-66314D01*
X6575786Y660400D02*
G03X6708414Y660400I66314D01*
Y660400D02*
G03X6575786Y660400I-66314D01*
X6601186Y2870200D02*
G03X6733814Y2870200I66314D01*
Y2870200D02*
G03X6601186Y2870200I-66314D01*
X6867342Y2679700D02*
G03X6999971Y2679700I66315D01*
Y2679700D02*
G03X6867342Y2679700I-66314D01*
X6902292Y3243665D02*
G03X7034920Y3243665I66314D01*
Y3243665D02*
G03X6902292Y3243665I-66314D01*
X7462287Y3721097D02*
G03X7594915Y3721097I66314D01*
Y3721097D02*
G03X7462287Y3721097I-66314D01*
X7463595Y3568700D02*
G03X7596223Y3568700I66314D01*
Y3568700D02*
G03X7463595Y3568700I-66314D01*
G54D10*
X8496300Y529854D02*
G01Y503946D01*
Y689346D02*
G01Y715254D01*
X8416554Y609600D02*
G01X8390646D01*
X8576046D02*
G01X8601954D01*
X8242300Y529854D02*
G01Y503946D01*
Y689346D02*
G01Y715254D01*
X8162554Y609600D02*
G01X8136646D01*
X8322046D02*
G01X8347954D01*
G54D13*
X1418246Y3606800D02*
G01X1444154D01*
X1333500Y3691546D02*
G01Y3717454D01*
Y3522054D02*
G01Y3496146D01*
X1418246Y1828800D02*
G01X1444154D01*
X1333500Y1913546D02*
G01Y1939454D01*
Y1744054D02*
G01Y1718146D01*
X8415401Y4490155D02*
G01Y4464247D01*
Y4739646D02*
G01Y4765554D01*
X8290655Y4614901D02*
G01X8264747D01*
X8540147D02*
G01X8566055D01*
X7915402Y5407654D02*
G01Y5381746D01*
Y5657145D02*
G01Y5683053D01*
X7790656Y5532399D02*
G01X7764748D01*
X8040148D02*
G01X8066056D01*
X7915402Y6817354D02*
G01Y6791446D01*
Y7066845D02*
G01Y7092753D01*
X7790656Y6942099D02*
G01X7764748D01*
X8040148D02*
G01X8066056D01*
G54D10*
X6210300Y529854D02*
G01Y503946D01*
Y689346D02*
G01Y715254D01*
X6130554Y609600D02*
G01X6104646D01*
X6290046D02*
G01X6315954D01*
X6464300Y529854D02*
G01Y503946D01*
Y689346D02*
G01Y715254D01*
X6384554Y609600D02*
G01X6358646D01*
X6544046D02*
G01X6569954D01*
M02*
