G04 Layer: TopPasteMaskLayer*
G04 EasyEDA Pro v2.2.39.2, 2025-06-05 07:06:46*
G04 Gerber Generator version 0.3*
G04 Scale: 100 percent, Rotated: No, Reflected: No*
G04 Dimensions in millimeters*
G04 Leading zeros omitted, absolute positions, 4 integers and 5 decimals*
G04 Generated by one-click*
%FSLAX45Y45*%
%MOMM*%
%ADD10R,1.65001X4.49999*%
%ADD11R,0.8X0.9*%
%ADD12R,0.9X0.8*%
%ADD13R,1.2X3.49999*%
%ADD14R,0.95001X1.15001*%
%ADD15R,1.15001X0.95001*%
%ADD16R,1.25001X0.7*%
%ADD17R,5.5947X5.33001*%
%ADD18R,5.59001X5.33001*%
%ADD19R,5.28X6.35*%
%ADD20R,6.99999X1.5*%
%ADD21R,1.6X1.5*%
%ADD22R,1.2X1.2*%
%ADD23R,1.5X6.99999*%
%ADD24C,0.5*%
%ADD25R,0.7X0.25001*%
%ADD26R,0.25001X0.7*%
%ADD27R,3.09999X5.85*%
%ADD28R,0.40599X1.397*%
%ADD29R,1.397X0.40599*%
%ADD30O,0.63X1.865*%
%ADD31R,1.7X0.6*%
%ADD32R,2.89999X1.3*%
%ADD33R,2.69999X1.0*%
%ADD34R,2.2X1.0*%
%ADD35R,1.2X1.4*%
%ADD36R,1.0X0.6*%
G75*


G04 PolygonModel Start*
G36*
G01X4870099Y5262900D02*
G01X4711901Y5262900D01*
G01X4701901Y5272900D01*
G01X4701901Y5321239D01*
G01X4691901Y5331239D01*
G01X4528299Y5331239D01*
G01X4518299Y5321239D01*
G01X4518299Y5272900D01*
G01X4508299Y5262900D01*
G01X4350101Y5262900D01*
G01X4340101Y5272900D01*
G01X4340101Y5453901D01*
G01X4350101Y5463901D01*
G01X4870099Y5463901D01*
G01X4880099Y5453901D01*
G01X4880099Y5272900D01*
G01X4870099Y5262900D01*
G37*
G36*
G01X4870099Y4947900D02*
G01X4711901Y4947900D01*
G01X4701901Y4937900D01*
G01X4701901Y4889561D01*
G01X4691901Y4879561D01*
G01X4528299Y4879561D01*
G01X4518299Y4889561D01*
G01X4518299Y4937900D01*
G01X4508299Y4947900D01*
G01X4350101Y4947900D01*
G01X4340101Y4937900D01*
G01X4340101Y4756899D01*
G01X4350101Y4746899D01*
G01X4870099Y4746899D01*
G01X4880099Y4756899D01*
G01X4880099Y4937900D01*
G01X4870099Y4947900D01*
G37*
G36*
G01X4146199Y5262900D02*
G01X3988001Y5262900D01*
G01X3978001Y5272900D01*
G01X3978001Y5321239D01*
G01X3968001Y5331239D01*
G01X3804399Y5331239D01*
G01X3794399Y5321239D01*
G01X3794399Y5272900D01*
G01X3784399Y5262900D01*
G01X3626201Y5262900D01*
G01X3616201Y5272900D01*
G01X3616201Y5453901D01*
G01X3626201Y5463901D01*
G01X4146199Y5463901D01*
G01X4156199Y5453901D01*
G01X4156199Y5272900D01*
G01X4146199Y5262900D01*
G37*
G36*
G01X4146199Y4947900D02*
G01X3988001Y4947900D01*
G01X3978001Y4937900D01*
G01X3978001Y4889561D01*
G01X3968001Y4879561D01*
G01X3804399Y4879561D01*
G01X3794399Y4889561D01*
G01X3794399Y4937900D01*
G01X3784399Y4947900D01*
G01X3626201Y4947900D01*
G01X3616201Y4937900D01*
G01X3616201Y4756899D01*
G01X3626201Y4746899D01*
G01X4146199Y4746899D01*
G01X4156199Y4756899D01*
G01X4156199Y4937900D01*
G01X4146199Y4947900D01*
G37*
G36*
G01X3613501Y6700500D02*
G01X3771699Y6700500D01*
G01X3781699Y6690500D01*
G01X3781699Y6642161D01*
G01X3791699Y6632161D01*
G01X3955301Y6632161D01*
G01X3965301Y6642161D01*
G01X3965301Y6690500D01*
G01X3975301Y6700500D01*
G01X4133499Y6700500D01*
G01X4143499Y6690500D01*
G01X4143499Y6509499D01*
G01X4133499Y6499499D01*
G01X3613501Y6499499D01*
G01X3603501Y6509499D01*
G01X3603501Y6690500D01*
G01X3613501Y6700500D01*
G37*
G36*
G01X3613501Y7015500D02*
G01X3771699Y7015500D01*
G01X3781699Y7025500D01*
G01X3781699Y7073839D01*
G01X3791699Y7083839D01*
G01X3955301Y7083839D01*
G01X3965301Y7073839D01*
G01X3965301Y7025500D01*
G01X3975301Y7015500D01*
G01X4133499Y7015500D01*
G01X4143499Y7025500D01*
G01X4143499Y7206501D01*
G01X4133499Y7216501D01*
G01X3613501Y7216501D01*
G01X3603501Y7206501D01*
G01X3603501Y7025500D01*
G01X3613501Y7015500D01*
G37*
G36*
G01X4337401Y6700500D02*
G01X4495599Y6700500D01*
G01X4505599Y6690500D01*
G01X4505599Y6642161D01*
G01X4515599Y6632161D01*
G01X4679201Y6632161D01*
G01X4689201Y6642161D01*
G01X4689201Y6690500D01*
G01X4699201Y6700500D01*
G01X4857399Y6700500D01*
G01X4867399Y6690500D01*
G01X4867399Y6509499D01*
G01X4857399Y6499499D01*
G01X4337401Y6499499D01*
G01X4327401Y6509499D01*
G01X4327401Y6690500D01*
G01X4337401Y6700500D01*
G37*
G36*
G01X4337401Y7015500D02*
G01X4495599Y7015500D01*
G01X4505599Y7025500D01*
G01X4505599Y7073839D01*
G01X4515599Y7083839D01*
G01X4679201Y7083839D01*
G01X4689201Y7073839D01*
G01X4689201Y7025500D01*
G01X4699201Y7015500D01*
G01X4857399Y7015500D01*
G01X4867399Y7025500D01*
G01X4867399Y7206501D01*
G01X4857399Y7216501D01*
G01X4337401Y7216501D01*
G01X4327401Y7206501D01*
G01X4327401Y7025500D01*
G01X4337401Y7015500D01*
G37*
G36*
G01X3403399Y918299D02*
G01X3440425Y918299D01*
G01X3450425Y908299D01*
G01X3450425Y877809D01*
G01X3460425Y867809D01*
G01X3499175Y867809D01*
G01X3509175Y877809D01*
G01X3509175Y908299D01*
G01X3519175Y918299D01*
G01X3556201Y918299D01*
G01X3566201Y908299D01*
G01X3566201Y779800D01*
G01X3556201Y769800D01*
G01X3403399Y769800D01*
G01X3393399Y779800D01*
G01X3393399Y908299D01*
G01X3403399Y918299D01*
G37*
G36*
G01X3403399Y1088301D02*
G01X3440425Y1088301D01*
G01X3450425Y1098301D01*
G01X3450425Y1128791D01*
G01X3460425Y1138791D01*
G01X3499175Y1138791D01*
G01X3509175Y1128791D01*
G01X3509175Y1098301D01*
G01X3519175Y1088301D01*
G01X3556201Y1088301D01*
G01X3566201Y1098301D01*
G01X3566201Y1226800D01*
G01X3556201Y1236800D01*
G01X3403399Y1236800D01*
G01X3393399Y1226800D01*
G01X3393399Y1098301D01*
G01X3403399Y1088301D01*
G37*
G36*
G01X4051800Y883603D02*
G01X3923802Y883603D01*
G01X3918801Y888604D01*
G01X3918801Y1003605D01*
G01X3923802Y1008604D01*
G01X3964805Y1009106D01*
G01X3964805Y964105D01*
G01X4009804Y964105D01*
G01X4009804Y1008106D01*
G01X4051800Y1008604D01*
G01X4056802Y1003605D01*
G01X4056802Y888604D01*
G01X4051800Y883603D01*
G37*
G36*
G01X3923800Y1224598D02*
G01X4051798Y1224598D01*
G01X4056799Y1219596D01*
G01X4056799Y1104595D01*
G01X4051798Y1099596D01*
G01X4010795Y1099094D01*
G01X4010795Y1144095D01*
G01X3965796Y1144095D01*
G01X3965796Y1100094D01*
G01X3923800Y1099596D01*
G01X3918798Y1104595D01*
G01X3918798Y1219596D01*
G01X3923800Y1224598D01*
G37*
G36*
G01X4043998Y2680200D02*
G01X4043998Y2552202D01*
G01X4038996Y2547201D01*
G01X3923995Y2547201D01*
G01X3918996Y2552202D01*
G01X3918494Y2593205D01*
G01X3963495Y2593205D01*
G01X3963495Y2638204D01*
G01X3919494Y2638204D01*
G01X3918996Y2680200D01*
G01X3923995Y2685202D01*
G01X4038996Y2685202D01*
G01X4043998Y2680200D01*
G37*
G36*
G01X3703003Y2552200D02*
G01X3703003Y2680198D01*
G01X3708004Y2685199D01*
G01X3823005Y2685199D01*
G01X3828004Y2680198D01*
G01X3828506Y2639195D01*
G01X3783505Y2639195D01*
G01X3783505Y2594196D01*
G01X3827506Y2594196D01*
G01X3828004Y2552200D01*
G01X3823005Y2547198D01*
G01X3708004Y2547198D01*
G01X3703003Y2552200D01*
G37*
G36*
G01X3785100Y883603D02*
G01X3657102Y883603D01*
G01X3652101Y888604D01*
G01X3652101Y1003605D01*
G01X3657102Y1008604D01*
G01X3698105Y1009106D01*
G01X3698105Y964105D01*
G01X3743104Y964105D01*
G01X3743104Y1008106D01*
G01X3785100Y1008604D01*
G01X3790102Y1003605D01*
G01X3790102Y888604D01*
G01X3785100Y883603D01*
G37*
G36*
G01X3657100Y1224598D02*
G01X3785098Y1224598D01*
G01X3790099Y1219596D01*
G01X3790099Y1104595D01*
G01X3785098Y1099596D01*
G01X3744095Y1099094D01*
G01X3744095Y1144095D01*
G01X3699096Y1144095D01*
G01X3699096Y1100094D01*
G01X3657100Y1099596D01*
G01X3652098Y1104595D01*
G01X3652098Y1219596D01*
G01X3657100Y1224598D01*
G37*
G36*
G01X1164501Y1307899D02*
G01X1164501Y1344925D01*
G01X1174501Y1354925D01*
G01X1204991Y1354925D01*
G01X1214991Y1364925D01*
G01X1214991Y1403675D01*
G01X1204991Y1413675D01*
G01X1174501Y1413675D01*
G01X1164501Y1423675D01*
G01X1164501Y1460701D01*
G01X1174501Y1470701D01*
G01X1303000Y1470701D01*
G01X1313000Y1460701D01*
G01X1313000Y1307899D01*
G01X1303000Y1297899D01*
G01X1174501Y1297899D01*
G01X1164501Y1307899D01*
G37*
G36*
G01X994499Y1307899D02*
G01X994499Y1344925D01*
G01X984499Y1354925D01*
G01X954009Y1354925D01*
G01X944009Y1364925D01*
G01X944009Y1403675D01*
G01X954009Y1413675D01*
G01X984499Y1413675D01*
G01X994499Y1423675D01*
G01X994499Y1460701D01*
G01X984499Y1470701D01*
G01X856000Y1470701D01*
G01X846000Y1460701D01*
G01X846000Y1307899D01*
G01X856000Y1297899D01*
G01X984499Y1297899D01*
G01X994499Y1307899D01*
G37*
G36*
G01X2987586Y6943560D02*
G01X3057589Y6943560D01*
G01X3057589Y6823558D01*
G01X2987586Y6823558D01*
G01X2987586Y6943560D01*
G37*
G36*
G01X3114586Y6943560D02*
G01X3184589Y6943560D01*
G01X3184589Y6823558D01*
G01X3114586Y6823558D01*
G01X3114586Y6943560D01*
G37*
G36*
G01X3241591Y6943557D02*
G01X3311594Y6943557D01*
G01X3311594Y6823553D01*
G01X3241591Y6823553D01*
G01X3241591Y6943557D01*
G37*
G36*
G01X3368591Y6943555D02*
G01X3438591Y6943555D01*
G01X3438591Y6823553D01*
G01X3368591Y6823553D01*
G01X3368591Y6943555D01*
G37*
G36*
G01X2983088Y7396008D02*
G01X2983088Y7016107D01*
G01X3443087Y7016107D01*
G01X3443087Y7396008D01*
G01X3438088Y7396008D01*
G01X3438088Y7502106D01*
G01X3368088Y7502106D01*
G01X3368088Y7396008D01*
G01X3312086Y7396008D01*
G01X3312086Y7502007D01*
G01X3242188Y7502007D01*
G01X3242188Y7396008D01*
G01X3185086Y7396008D01*
G01X3185086Y7502007D01*
G01X3115188Y7502007D01*
G01X3115188Y7396008D01*
G01X3057987Y7396008D01*
G01X3057987Y7502007D01*
G01X2988086Y7502007D01*
G01X2988086Y7396107D01*
G01X2987987Y7396008D01*
G01X2983088Y7396008D01*
G37*
G36*
G01X3438614Y5024996D02*
G01X3368612Y5024996D01*
G01X3368612Y5144999D01*
G01X3438614Y5144999D01*
G01X3438614Y5024996D01*
G37*
G36*
G01X3311614Y5024996D02*
G01X3241612Y5024996D01*
G01X3241612Y5144999D01*
G01X3311614Y5144999D01*
G01X3311614Y5024996D01*
G37*
G36*
G01X3184609Y5024999D02*
G01X3114606Y5024999D01*
G01X3114606Y5145004D01*
G01X3184609Y5145004D01*
G01X3184609Y5024999D01*
G37*
G36*
G01X3057609Y5025001D02*
G01X2987609Y5025001D01*
G01X2987609Y5145004D01*
G01X3057609Y5145004D01*
G01X3057609Y5025001D01*
G37*
G36*
G01X3443112Y4572549D02*
G01X3443112Y4952449D01*
G01X2983113Y4952449D01*
G01X2983113Y4572549D01*
G01X2988112Y4572549D01*
G01X2988112Y4466450D01*
G01X3058112Y4466450D01*
G01X3058112Y4572549D01*
G01X3114114Y4572549D01*
G01X3114114Y4466549D01*
G01X3184012Y4466549D01*
G01X3184012Y4572549D01*
G01X3241114Y4572549D01*
G01X3241114Y4466549D01*
G01X3311012Y4466549D01*
G01X3311012Y4572549D01*
G01X3368213Y4572549D01*
G01X3368213Y4466549D01*
G01X3438114Y4466549D01*
G01X3438114Y4572450D01*
G01X3438213Y4572549D01*
G01X3443112Y4572549D01*
G37*
G36*
G01X2987586Y6176404D02*
G01X3057589Y6176404D01*
G01X3057589Y6056401D01*
G01X2987586Y6056401D01*
G01X2987586Y6176404D01*
G37*
G36*
G01X3114586Y6176404D02*
G01X3184589Y6176404D01*
G01X3184589Y6056401D01*
G01X3114586Y6056401D01*
G01X3114586Y6176404D01*
G37*
G36*
G01X3241591Y6176401D02*
G01X3311594Y6176401D01*
G01X3311594Y6056396D01*
G01X3241591Y6056396D01*
G01X3241591Y6176401D01*
G37*
G36*
G01X3368591Y6176399D02*
G01X3438591Y6176399D01*
G01X3438591Y6056396D01*
G01X3368591Y6056396D01*
G01X3368591Y6176399D01*
G37*
G36*
G01X2983088Y6628851D02*
G01X2983088Y6248951D01*
G01X3443087Y6248951D01*
G01X3443087Y6628851D01*
G01X3438088Y6628851D01*
G01X3438088Y6734950D01*
G01X3368088Y6734950D01*
G01X3368088Y6628851D01*
G01X3312086Y6628851D01*
G01X3312086Y6734851D01*
G01X3242188Y6734851D01*
G01X3242188Y6628851D01*
G01X3185086Y6628851D01*
G01X3185086Y6734851D01*
G01X3115188Y6734851D01*
G01X3115188Y6628851D01*
G01X3057987Y6628851D01*
G01X3057987Y6734851D01*
G01X2988086Y6734851D01*
G01X2988086Y6628950D01*
G01X2987987Y6628851D01*
G01X2983088Y6628851D01*
G37*
G36*
G01X3438614Y5786996D02*
G01X3368612Y5786996D01*
G01X3368612Y5906999D01*
G01X3438614Y5906999D01*
G01X3438614Y5786996D01*
G37*
G36*
G01X3311614Y5786996D02*
G01X3241612Y5786996D01*
G01X3241612Y5906999D01*
G01X3311614Y5906999D01*
G01X3311614Y5786996D01*
G37*
G36*
G01X3184609Y5786999D02*
G01X3114606Y5786999D01*
G01X3114606Y5907004D01*
G01X3184609Y5907004D01*
G01X3184609Y5786999D01*
G37*
G36*
G01X3057609Y5787001D02*
G01X2987609Y5787001D01*
G01X2987609Y5907004D01*
G01X3057609Y5907004D01*
G01X3057609Y5787001D01*
G37*
G36*
G01X3443112Y5334549D02*
G01X3443112Y5714449D01*
G01X2983113Y5714449D01*
G01X2983113Y5334549D01*
G01X2988112Y5334549D01*
G01X2988112Y5228450D01*
G01X3058112Y5228450D01*
G01X3058112Y5334549D01*
G01X3114114Y5334549D01*
G01X3114114Y5228549D01*
G01X3184012Y5228549D01*
G01X3184012Y5334549D01*
G01X3241114Y5334549D01*
G01X3241114Y5228549D01*
G01X3311012Y5228549D01*
G01X3311012Y5334549D01*
G01X3368213Y5334549D01*
G01X3368213Y5228549D01*
G01X3438114Y5228549D01*
G01X3438114Y5334450D01*
G01X3438213Y5334549D01*
G01X3443112Y5334549D01*
G37*
G36*
G01X3027802Y1314999D02*
G01X2947802Y1314999D01*
G01X2942801Y1309997D01*
G01X2942801Y1287201D01*
G01X2979801Y1287201D01*
G01X2979801Y1254201D01*
G01X2942801Y1254201D01*
G01X2942801Y1229998D01*
G01X2947802Y1224999D01*
G01X3027802Y1224999D01*
G01X3032801Y1229998D01*
G01X3032801Y1309997D01*
G01X3027802Y1314999D01*
G37*
G36*
G01X2788798Y1225001D02*
G01X2868798Y1225001D01*
G01X2873799Y1230003D01*
G01X2873799Y1252799D01*
G01X2836799Y1252799D01*
G01X2836799Y1285799D01*
G01X2873799Y1285799D01*
G01X2873799Y1310002D01*
G01X2868798Y1315001D01*
G01X2788798Y1315001D01*
G01X2783799Y1310002D01*
G01X2783799Y1230003D01*
G01X2788798Y1225001D01*
G37*
G36*
G01X5110602Y1543599D02*
G01X5030602Y1543599D01*
G01X5025601Y1538597D01*
G01X5025601Y1515801D01*
G01X5062601Y1515801D01*
G01X5062601Y1482801D01*
G01X5025601Y1482801D01*
G01X5025601Y1458598D01*
G01X5030602Y1453599D01*
G01X5110602Y1453599D01*
G01X5115601Y1458598D01*
G01X5115601Y1538597D01*
G01X5110602Y1543599D01*
G37*
G36*
G01X4871598Y1453601D02*
G01X4951598Y1453601D01*
G01X4956599Y1458603D01*
G01X4956599Y1481399D01*
G01X4919599Y1481399D01*
G01X4919599Y1514399D01*
G01X4956599Y1514399D01*
G01X4956599Y1538602D01*
G01X4951598Y1543601D01*
G01X4871598Y1543601D01*
G01X4866599Y1538602D01*
G01X4866599Y1458603D01*
G01X4871598Y1453601D01*
G37*
G36*
G01X3588299Y3182498D02*
G01X3588299Y3262498D01*
G01X3583297Y3267499D01*
G01X3560501Y3267499D01*
G01X3560501Y3230499D01*
G01X3527501Y3230499D01*
G01X3527501Y3267499D01*
G01X3503298Y3267499D01*
G01X3498299Y3262498D01*
G01X3498299Y3182498D01*
G01X3503298Y3177499D01*
G01X3583297Y3177499D01*
G01X3588299Y3182498D01*
G37*
G36*
G01X3498301Y3421502D02*
G01X3498301Y3341502D01*
G01X3503303Y3336501D01*
G01X3526099Y3336501D01*
G01X3526099Y3373501D01*
G01X3559099Y3373501D01*
G01X3559099Y3336501D01*
G01X3583302Y3336501D01*
G01X3588301Y3341502D01*
G01X3588301Y3421502D01*
G01X3583302Y3426501D01*
G01X3503303Y3426501D01*
G01X3498301Y3421502D01*
G37*
G36*
G01X3740699Y3182498D02*
G01X3740699Y3262498D01*
G01X3735697Y3267499D01*
G01X3712901Y3267499D01*
G01X3712901Y3230499D01*
G01X3679901Y3230499D01*
G01X3679901Y3267499D01*
G01X3655698Y3267499D01*
G01X3650699Y3262498D01*
G01X3650699Y3182498D01*
G01X3655698Y3177499D01*
G01X3735697Y3177499D01*
G01X3740699Y3182498D01*
G37*
G36*
G01X3650701Y3421502D02*
G01X3650701Y3341502D01*
G01X3655703Y3336501D01*
G01X3678499Y3336501D01*
G01X3678499Y3373501D01*
G01X3711499Y3373501D01*
G01X3711499Y3336501D01*
G01X3735702Y3336501D01*
G01X3740701Y3341502D01*
G01X3740701Y3421502D01*
G01X3735702Y3426501D01*
G01X3655703Y3426501D01*
G01X3650701Y3421502D01*
G37*
G36*
G01X3893099Y3182498D02*
G01X3893099Y3262498D01*
G01X3888097Y3267499D01*
G01X3865301Y3267499D01*
G01X3865301Y3230499D01*
G01X3832301Y3230499D01*
G01X3832301Y3267499D01*
G01X3808098Y3267499D01*
G01X3803099Y3262498D01*
G01X3803099Y3182498D01*
G01X3808098Y3177499D01*
G01X3888097Y3177499D01*
G01X3893099Y3182498D01*
G37*
G36*
G01X3803101Y3421502D02*
G01X3803101Y3341502D01*
G01X3808103Y3336501D01*
G01X3830899Y3336501D01*
G01X3830899Y3373501D01*
G01X3863899Y3373501D01*
G01X3863899Y3336501D01*
G01X3888102Y3336501D01*
G01X3893101Y3341502D01*
G01X3893101Y3421502D01*
G01X3888102Y3426501D01*
G01X3808103Y3426501D01*
G01X3803101Y3421502D01*
G37*
G36*
G01X4045499Y3182498D02*
G01X4045499Y3262498D01*
G01X4040497Y3267499D01*
G01X4017701Y3267499D01*
G01X4017701Y3230499D01*
G01X3984701Y3230499D01*
G01X3984701Y3267499D01*
G01X3960498Y3267499D01*
G01X3955499Y3262498D01*
G01X3955499Y3182498D01*
G01X3960498Y3177499D01*
G01X4040497Y3177499D01*
G01X4045499Y3182498D01*
G37*
G36*
G01X3955501Y3421502D02*
G01X3955501Y3341502D01*
G01X3960503Y3336501D01*
G01X3983299Y3336501D01*
G01X3983299Y3373501D01*
G01X4016299Y3373501D01*
G01X4016299Y3336501D01*
G01X4040502Y3336501D01*
G01X4045501Y3341502D01*
G01X4045501Y3421502D01*
G01X4040502Y3426501D01*
G01X3960503Y3426501D01*
G01X3955501Y3421502D01*
G37*
G36*
G01X5136002Y2445299D02*
G01X5056002Y2445299D01*
G01X5051001Y2440297D01*
G01X5051001Y2417501D01*
G01X5088001Y2417501D01*
G01X5088001Y2384501D01*
G01X5051001Y2384501D01*
G01X5051001Y2360298D01*
G01X5056002Y2355299D01*
G01X5136002Y2355299D01*
G01X5141001Y2360298D01*
G01X5141001Y2440297D01*
G01X5136002Y2445299D01*
G37*
G36*
G01X4896998Y2355301D02*
G01X4976998Y2355301D01*
G01X4981999Y2360303D01*
G01X4981999Y2383099D01*
G01X4944999Y2383099D01*
G01X4944999Y2416099D01*
G01X4981999Y2416099D01*
G01X4981999Y2440302D01*
G01X4976998Y2445301D01*
G01X4896998Y2445301D01*
G01X4891999Y2440302D01*
G01X4891999Y2360303D01*
G01X4896998Y2355301D01*
G37*
G36*
G01X4376298Y1783801D02*
G01X4456298Y1783801D01*
G01X4461299Y1788803D01*
G01X4461299Y1811599D01*
G01X4424299Y1811599D01*
G01X4424299Y1844599D01*
G01X4461299Y1844599D01*
G01X4461299Y1868802D01*
G01X4456298Y1873801D01*
G01X4376298Y1873801D01*
G01X4371299Y1868802D01*
G01X4371299Y1788803D01*
G01X4376298Y1783801D01*
G37*
G36*
G01X4615302Y1873799D02*
G01X4535302Y1873799D01*
G01X4530301Y1868797D01*
G01X4530301Y1846001D01*
G01X4567301Y1846001D01*
G01X4567301Y1813001D01*
G01X4530301Y1813001D01*
G01X4530301Y1788798D01*
G01X4535302Y1783799D01*
G01X4615302Y1783799D01*
G01X4620301Y1788798D01*
G01X4620301Y1868797D01*
G01X4615302Y1873799D01*
G37*
G36*
G01X4376298Y1631401D02*
G01X4456298Y1631401D01*
G01X4461299Y1636403D01*
G01X4461299Y1659199D01*
G01X4424299Y1659199D01*
G01X4424299Y1692199D01*
G01X4461299Y1692199D01*
G01X4461299Y1716402D01*
G01X4456298Y1721401D01*
G01X4376298Y1721401D01*
G01X4371299Y1716402D01*
G01X4371299Y1636403D01*
G01X4376298Y1631401D01*
G37*
G36*
G01X4615302Y1721399D02*
G01X4535302Y1721399D01*
G01X4530301Y1716397D01*
G01X4530301Y1693601D01*
G01X4567301Y1693601D01*
G01X4567301Y1660601D01*
G01X4530301Y1660601D01*
G01X4530301Y1636398D01*
G01X4535302Y1631399D01*
G01X4615302Y1631399D01*
G01X4620301Y1636398D01*
G01X4620301Y1716397D01*
G01X4615302Y1721399D01*
G37*
G36*
G01X7284598Y3676101D02*
G01X7364598Y3676101D01*
G01X7369599Y3681103D01*
G01X7369599Y3703899D01*
G01X7332599Y3703899D01*
G01X7332599Y3736899D01*
G01X7369599Y3736899D01*
G01X7369599Y3761102D01*
G01X7364598Y3766101D01*
G01X7284598Y3766101D01*
G01X7279599Y3761102D01*
G01X7279599Y3681103D01*
G01X7284598Y3676101D01*
G37*
G36*
G01X7523602Y3766099D02*
G01X7443602Y3766099D01*
G01X7438601Y3761097D01*
G01X7438601Y3738301D01*
G01X7475601Y3738301D01*
G01X7475601Y3705301D01*
G01X7438601Y3705301D01*
G01X7438601Y3681098D01*
G01X7443602Y3676099D01*
G01X7523602Y3676099D01*
G01X7528601Y3681098D01*
G01X7528601Y3761097D01*
G01X7523602Y3766099D01*
G37*
G36*
G01X7284598Y3523701D02*
G01X7364598Y3523701D01*
G01X7369599Y3528703D01*
G01X7369599Y3551499D01*
G01X7332599Y3551499D01*
G01X7332599Y3584499D01*
G01X7369599Y3584499D01*
G01X7369599Y3608702D01*
G01X7364598Y3613701D01*
G01X7284598Y3613701D01*
G01X7279599Y3608702D01*
G01X7279599Y3528703D01*
G01X7284598Y3523701D01*
G37*
G36*
G01X7523602Y3613699D02*
G01X7443602Y3613699D01*
G01X7438601Y3608697D01*
G01X7438601Y3585901D01*
G01X7475601Y3585901D01*
G01X7475601Y3552901D01*
G01X7438601Y3552901D01*
G01X7438601Y3528698D01*
G01X7443602Y3523699D01*
G01X7523602Y3523699D01*
G01X7528601Y3528698D01*
G01X7528601Y3608697D01*
G01X7523602Y3613699D01*
G37*
G36*
G01X5034402Y3702599D02*
G01X4954402Y3702599D01*
G01X4949401Y3697597D01*
G01X4949401Y3674801D01*
G01X4986401Y3674801D01*
G01X4986401Y3641801D01*
G01X4949401Y3641801D01*
G01X4949401Y3617598D01*
G01X4954402Y3612599D01*
G01X5034402Y3612599D01*
G01X5039401Y3617598D01*
G01X5039401Y3697597D01*
G01X5034402Y3702599D01*
G37*
G36*
G01X4795398Y3612601D02*
G01X4875398Y3612601D01*
G01X4880399Y3617603D01*
G01X4880399Y3640399D01*
G01X4843399Y3640399D01*
G01X4843399Y3673399D01*
G01X4880399Y3673399D01*
G01X4880399Y3697602D01*
G01X4875398Y3702601D01*
G01X4795398Y3702601D01*
G01X4790399Y3697602D01*
G01X4790399Y3617603D01*
G01X4795398Y3612601D01*
G37*
G36*
G01X5034402Y3854999D02*
G01X4954402Y3854999D01*
G01X4949401Y3849997D01*
G01X4949401Y3827201D01*
G01X4986401Y3827201D01*
G01X4986401Y3794201D01*
G01X4949401Y3794201D01*
G01X4949401Y3769998D01*
G01X4954402Y3764999D01*
G01X5034402Y3764999D01*
G01X5039401Y3769998D01*
G01X5039401Y3849997D01*
G01X5034402Y3854999D01*
G37*
G36*
G01X4795398Y3765001D02*
G01X4875398Y3765001D01*
G01X4880399Y3770003D01*
G01X4880399Y3792799D01*
G01X4843399Y3792799D01*
G01X4843399Y3825799D01*
G01X4880399Y3825799D01*
G01X4880399Y3850002D01*
G01X4875398Y3855001D01*
G01X4795398Y3855001D01*
G01X4790399Y3850002D01*
G01X4790399Y3770003D01*
G01X4795398Y3765001D01*
G37*
G36*
G01X3027802Y1708699D02*
G01X2947802Y1708699D01*
G01X2942801Y1703697D01*
G01X2942801Y1680901D01*
G01X2979801Y1680901D01*
G01X2979801Y1647901D01*
G01X2942801Y1647901D01*
G01X2942801Y1623698D01*
G01X2947802Y1618699D01*
G01X3027802Y1618699D01*
G01X3032801Y1623698D01*
G01X3032801Y1703697D01*
G01X3027802Y1708699D01*
G37*
G36*
G01X2788798Y1618701D02*
G01X2868798Y1618701D01*
G01X2873799Y1623703D01*
G01X2873799Y1646499D01*
G01X2836799Y1646499D01*
G01X2836799Y1679499D01*
G01X2873799Y1679499D01*
G01X2873799Y1703702D01*
G01X2868798Y1708701D01*
G01X2788798Y1708701D01*
G01X2783799Y1703702D01*
G01X2783799Y1623703D01*
G01X2788798Y1618701D01*
G37*
G36*
G01X3027802Y997499D02*
G01X2947802Y997499D01*
G01X2942801Y992497D01*
G01X2942801Y969701D01*
G01X2979801Y969701D01*
G01X2979801Y936701D01*
G01X2942801Y936701D01*
G01X2942801Y912498D01*
G01X2947802Y907499D01*
G01X3027802Y907499D01*
G01X3032801Y912498D01*
G01X3032801Y992497D01*
G01X3027802Y997499D01*
G37*
G36*
G01X2788798Y907501D02*
G01X2868798Y907501D01*
G01X2873799Y912503D01*
G01X2873799Y935299D01*
G01X2836799Y935299D01*
G01X2836799Y968299D01*
G01X2873799Y968299D01*
G01X2873799Y992502D01*
G01X2868798Y997501D01*
G01X2788798Y997501D01*
G01X2783799Y992502D01*
G01X2783799Y912503D01*
G01X2788798Y907501D01*
G37*
G36*
G01X2788798Y755101D02*
G01X2868798Y755101D01*
G01X2873799Y760103D01*
G01X2873799Y782899D01*
G01X2836799Y782899D01*
G01X2836799Y815899D01*
G01X2873799Y815899D01*
G01X2873799Y840102D01*
G01X2868798Y845101D01*
G01X2788798Y845101D01*
G01X2783799Y840102D01*
G01X2783799Y760103D01*
G01X2788798Y755101D01*
G37*
G36*
G01X3027802Y845099D02*
G01X2947802Y845099D01*
G01X2942801Y840097D01*
G01X2942801Y817301D01*
G01X2979801Y817301D01*
G01X2979801Y784301D01*
G01X2942801Y784301D01*
G01X2942801Y760098D01*
G01X2947802Y755099D01*
G01X3027802Y755099D01*
G01X3032801Y760098D01*
G01X3032801Y840097D01*
G01X3027802Y845099D01*
G37*
G36*
G01X3155401Y2100702D02*
G01X3155401Y2020702D01*
G01X3160403Y2015701D01*
G01X3183199Y2015701D01*
G01X3183199Y2052701D01*
G01X3216199Y2052701D01*
G01X3216199Y2015701D01*
G01X3240402Y2015701D01*
G01X3245401Y2020702D01*
G01X3245401Y2100702D01*
G01X3240402Y2105701D01*
G01X3160403Y2105701D01*
G01X3155401Y2100702D01*
G37*
G36*
G01X3245399Y1861698D02*
G01X3245399Y1941698D01*
G01X3240397Y1946699D01*
G01X3217601Y1946699D01*
G01X3217601Y1909699D01*
G01X3184601Y1909699D01*
G01X3184601Y1946699D01*
G01X3160398Y1946699D01*
G01X3155399Y1941698D01*
G01X3155399Y1861698D01*
G01X3160398Y1856699D01*
G01X3240397Y1856699D01*
G01X3245399Y1861698D01*
G37*
G36*
G01X6838401Y856102D02*
G01X6838401Y776102D01*
G01X6843403Y771101D01*
G01X6866199Y771101D01*
G01X6866199Y808101D01*
G01X6899199Y808101D01*
G01X6899199Y771101D01*
G01X6923402Y771101D01*
G01X6928401Y776102D01*
G01X6928401Y856102D01*
G01X6923402Y861101D01*
G01X6843403Y861101D01*
G01X6838401Y856102D01*
G37*
G36*
G01X6928399Y617098D02*
G01X6928399Y697098D01*
G01X6923397Y702099D01*
G01X6900601Y702099D01*
G01X6900601Y665099D01*
G01X6867601Y665099D01*
G01X6867601Y702099D01*
G01X6843398Y702099D01*
G01X6838399Y697098D01*
G01X6838399Y617098D01*
G01X6843398Y612099D01*
G01X6923397Y612099D01*
G01X6928399Y617098D01*
G37*
G36*
G01X6775999Y617098D02*
G01X6775999Y697098D01*
G01X6770997Y702099D01*
G01X6748201Y702099D01*
G01X6748201Y665099D01*
G01X6715201Y665099D01*
G01X6715201Y702099D01*
G01X6690998Y702099D01*
G01X6685999Y697098D01*
G01X6685999Y617098D01*
G01X6690998Y612099D01*
G01X6770997Y612099D01*
G01X6775999Y617098D01*
G37*
G36*
G01X6686001Y856102D02*
G01X6686001Y776102D01*
G01X6691003Y771101D01*
G01X6713799Y771101D01*
G01X6713799Y808101D01*
G01X6746799Y808101D01*
G01X6746799Y771101D01*
G01X6771002Y771101D01*
G01X6776001Y776102D01*
G01X6776001Y856102D01*
G01X6771002Y861101D01*
G01X6691003Y861101D01*
G01X6686001Y856102D01*
G37*
G36*
G01X4083599Y413898D02*
G01X4083599Y493898D01*
G01X4078597Y498899D01*
G01X4055801Y498899D01*
G01X4055801Y461899D01*
G01X4022801Y461899D01*
G01X4022801Y498899D01*
G01X3998598Y498899D01*
G01X3993599Y493898D01*
G01X3993599Y413898D01*
G01X3998598Y408899D01*
G01X4078597Y408899D01*
G01X4083599Y413898D01*
G37*
G36*
G01X3993601Y652902D02*
G01X3993601Y572902D01*
G01X3998603Y567901D01*
G01X4021399Y567901D01*
G01X4021399Y604901D01*
G01X4054399Y604901D01*
G01X4054399Y567901D01*
G01X4078602Y567901D01*
G01X4083601Y572902D01*
G01X4083601Y652902D01*
G01X4078602Y657901D01*
G01X3998603Y657901D01*
G01X3993601Y652902D01*
G37*
G36*
G01X3753399Y413898D02*
G01X3753399Y493898D01*
G01X3748397Y498899D01*
G01X3725601Y498899D01*
G01X3725601Y461899D01*
G01X3692601Y461899D01*
G01X3692601Y498899D01*
G01X3668398Y498899D01*
G01X3663399Y493898D01*
G01X3663399Y413898D01*
G01X3668398Y408899D01*
G01X3748397Y408899D01*
G01X3753399Y413898D01*
G37*
G36*
G01X3663401Y652902D02*
G01X3663401Y572902D01*
G01X3668403Y567901D01*
G01X3691199Y567901D01*
G01X3691199Y604901D01*
G01X3724199Y604901D01*
G01X3724199Y567901D01*
G01X3748402Y567901D01*
G01X3753401Y572902D01*
G01X3753401Y652902D01*
G01X3748402Y657901D01*
G01X3668403Y657901D01*
G01X3663401Y652902D01*
G37*
G36*
G01X4615302Y2330999D02*
G01X4535302Y2330999D01*
G01X4530301Y2325997D01*
G01X4530301Y2303201D01*
G01X4567301Y2303201D01*
G01X4567301Y2270201D01*
G01X4530301Y2270201D01*
G01X4530301Y2245998D01*
G01X4535302Y2240999D01*
G01X4615302Y2240999D01*
G01X4620301Y2245998D01*
G01X4620301Y2325997D01*
G01X4615302Y2330999D01*
G37*
G36*
G01X4376298Y2241001D02*
G01X4456298Y2241001D01*
G01X4461299Y2246003D01*
G01X4461299Y2268799D01*
G01X4424299Y2268799D01*
G01X4424299Y2301799D01*
G01X4461299Y2301799D01*
G01X4461299Y2326002D01*
G01X4456298Y2331001D01*
G01X4376298Y2331001D01*
G01X4371299Y2326002D01*
G01X4371299Y2246003D01*
G01X4376298Y2241001D01*
G37*
G36*
G01X2801498Y1821901D02*
G01X2881498Y1821901D01*
G01X2886499Y1826903D01*
G01X2886499Y1849699D01*
G01X2849499Y1849699D01*
G01X2849499Y1882699D01*
G01X2886499Y1882699D01*
G01X2886499Y1906902D01*
G01X2881498Y1911901D01*
G01X2801498Y1911901D01*
G01X2796499Y1906902D01*
G01X2796499Y1826903D01*
G01X2801498Y1821901D01*
G37*
G36*
G01X3040502Y1911899D02*
G01X2960502Y1911899D01*
G01X2955501Y1906897D01*
G01X2955501Y1884101D01*
G01X2992501Y1884101D01*
G01X2992501Y1851101D01*
G01X2955501Y1851101D01*
G01X2955501Y1826898D01*
G01X2960502Y1821899D01*
G01X3040502Y1821899D01*
G01X3045501Y1826898D01*
G01X3045501Y1906897D01*
G01X3040502Y1911899D01*
G37*
G36*
G01X2737998Y3168101D02*
G01X2817998Y3168101D01*
G01X2822999Y3173103D01*
G01X2822999Y3195899D01*
G01X2785999Y3195899D01*
G01X2785999Y3228899D01*
G01X2822999Y3228899D01*
G01X2822999Y3253102D01*
G01X2817998Y3258101D01*
G01X2737998Y3258101D01*
G01X2732999Y3253102D01*
G01X2732999Y3173103D01*
G01X2737998Y3168101D01*
G37*
G36*
G01X2977002Y3258099D02*
G01X2897002Y3258099D01*
G01X2892001Y3253097D01*
G01X2892001Y3230301D01*
G01X2929001Y3230301D01*
G01X2929001Y3197301D01*
G01X2892001Y3197301D01*
G01X2892001Y3173098D01*
G01X2897002Y3168099D01*
G01X2977002Y3168099D01*
G01X2982001Y3173098D01*
G01X2982001Y3253097D01*
G01X2977002Y3258099D01*
G37*
G36*
G01X6037702Y1670599D02*
G01X5957702Y1670599D01*
G01X5952701Y1665597D01*
G01X5952701Y1642801D01*
G01X5989701Y1642801D01*
G01X5989701Y1609801D01*
G01X5952701Y1609801D01*
G01X5952701Y1585598D01*
G01X5957702Y1580599D01*
G01X6037702Y1580599D01*
G01X6042701Y1585598D01*
G01X6042701Y1665597D01*
G01X6037702Y1670599D01*
G37*
G36*
G01X5798698Y1580601D02*
G01X5878698Y1580601D01*
G01X5883699Y1585603D01*
G01X5883699Y1608399D01*
G01X5846699Y1608399D01*
G01X5846699Y1641399D01*
G01X5883699Y1641399D01*
G01X5883699Y1665602D01*
G01X5878698Y1670601D01*
G01X5798698Y1670601D01*
G01X5793699Y1665602D01*
G01X5793699Y1585603D01*
G01X5798698Y1580601D01*
G37*
G36*
G01X6926702Y1518199D02*
G01X6846702Y1518199D01*
G01X6841701Y1513197D01*
G01X6841701Y1490401D01*
G01X6878701Y1490401D01*
G01X6878701Y1457401D01*
G01X6841701Y1457401D01*
G01X6841701Y1433198D01*
G01X6846702Y1428199D01*
G01X6926702Y1428199D01*
G01X6931701Y1433198D01*
G01X6931701Y1513197D01*
G01X6926702Y1518199D01*
G37*
G36*
G01X6687698Y1428201D02*
G01X6767698Y1428201D01*
G01X6772699Y1433203D01*
G01X6772699Y1455999D01*
G01X6735699Y1455999D01*
G01X6735699Y1488999D01*
G01X6772699Y1488999D01*
G01X6772699Y1513202D01*
G01X6767698Y1518201D01*
G01X6687698Y1518201D01*
G01X6682699Y1513202D01*
G01X6682699Y1433203D01*
G01X6687698Y1428201D01*
G37*
G36*
G01X3027802Y1162599D02*
G01X2947802Y1162599D01*
G01X2942801Y1157597D01*
G01X2942801Y1134801D01*
G01X2979801Y1134801D01*
G01X2979801Y1101801D01*
G01X2942801Y1101801D01*
G01X2942801Y1077598D01*
G01X2947802Y1072599D01*
G01X3027802Y1072599D01*
G01X3032801Y1077598D01*
G01X3032801Y1157597D01*
G01X3027802Y1162599D01*
G37*
G36*
G01X2788798Y1072601D02*
G01X2868798Y1072601D01*
G01X2873799Y1077603D01*
G01X2873799Y1100399D01*
G01X2836799Y1100399D01*
G01X2836799Y1133399D01*
G01X2873799Y1133399D01*
G01X2873799Y1157602D01*
G01X2868798Y1162601D01*
G01X2788798Y1162601D01*
G01X2783799Y1157602D01*
G01X2783799Y1077603D01*
G01X2788798Y1072601D01*
G37*
G36*
G01X6926702Y1187999D02*
G01X6846702Y1187999D01*
G01X6841701Y1182997D01*
G01X6841701Y1160201D01*
G01X6878701Y1160201D01*
G01X6878701Y1127201D01*
G01X6841701Y1127201D01*
G01X6841701Y1102998D01*
G01X6846702Y1097999D01*
G01X6926702Y1097999D01*
G01X6931701Y1102998D01*
G01X6931701Y1182997D01*
G01X6926702Y1187999D01*
G37*
G36*
G01X6687698Y1098001D02*
G01X6767698Y1098001D01*
G01X6772699Y1103003D01*
G01X6772699Y1125799D01*
G01X6735699Y1125799D01*
G01X6735699Y1158799D01*
G01X6772699Y1158799D01*
G01X6772699Y1183002D01*
G01X6767698Y1188001D01*
G01X6687698Y1188001D01*
G01X6682699Y1183002D01*
G01X6682699Y1103003D01*
G01X6687698Y1098001D01*
G37*
G36*
G01X6037702Y1835699D02*
G01X5957702Y1835699D01*
G01X5952701Y1830697D01*
G01X5952701Y1807901D01*
G01X5989701Y1807901D01*
G01X5989701Y1774901D01*
G01X5952701Y1774901D01*
G01X5952701Y1750698D01*
G01X5957702Y1745699D01*
G01X6037702Y1745699D01*
G01X6042701Y1750698D01*
G01X6042701Y1830697D01*
G01X6037702Y1835699D01*
G37*
G36*
G01X5798698Y1745701D02*
G01X5878698Y1745701D01*
G01X5883699Y1750703D01*
G01X5883699Y1773499D01*
G01X5846699Y1773499D01*
G01X5846699Y1806499D01*
G01X5883699Y1806499D01*
G01X5883699Y1830702D01*
G01X5878698Y1835701D01*
G01X5798698Y1835701D01*
G01X5793699Y1830702D01*
G01X5793699Y1750703D01*
G01X5798698Y1745701D01*
G37*
G36*
G01X5798698Y1898101D02*
G01X5878698Y1898101D01*
G01X5883699Y1903103D01*
G01X5883699Y1925899D01*
G01X5846699Y1925899D01*
G01X5846699Y1958899D01*
G01X5883699Y1958899D01*
G01X5883699Y1983102D01*
G01X5878698Y1988101D01*
G01X5798698Y1988101D01*
G01X5793699Y1983102D01*
G01X5793699Y1903103D01*
G01X5798698Y1898101D01*
G37*
G36*
G01X6037702Y1988099D02*
G01X5957702Y1988099D01*
G01X5952701Y1983097D01*
G01X5952701Y1960301D01*
G01X5989701Y1960301D01*
G01X5989701Y1927301D01*
G01X5952701Y1927301D01*
G01X5952701Y1903098D01*
G01X5957702Y1898099D01*
G01X6037702Y1898099D01*
G01X6042701Y1903098D01*
G01X6042701Y1983097D01*
G01X6037702Y1988099D01*
G37*
G36*
G01X5811398Y3587201D02*
G01X5891398Y3587201D01*
G01X5896399Y3592203D01*
G01X5896399Y3614999D01*
G01X5859399Y3614999D01*
G01X5859399Y3647999D01*
G01X5896399Y3647999D01*
G01X5896399Y3672202D01*
G01X5891398Y3677201D01*
G01X5811398Y3677201D01*
G01X5806399Y3672202D01*
G01X5806399Y3592203D01*
G01X5811398Y3587201D01*
G37*
G36*
G01X6050402Y3677199D02*
G01X5970402Y3677199D01*
G01X5965401Y3672197D01*
G01X5965401Y3649401D01*
G01X6002401Y3649401D01*
G01X6002401Y3616401D01*
G01X5965401Y3616401D01*
G01X5965401Y3592198D01*
G01X5970402Y3587199D01*
G01X6050402Y3587199D01*
G01X6055401Y3592198D01*
G01X6055401Y3672197D01*
G01X6050402Y3677199D01*
G37*
G36*
G01X4871598Y2926801D02*
G01X4951598Y2926801D01*
G01X4956599Y2931803D01*
G01X4956599Y2954599D01*
G01X4919599Y2954599D01*
G01X4919599Y2987599D01*
G01X4956599Y2987599D01*
G01X4956599Y3011802D01*
G01X4951598Y3016801D01*
G01X4871598Y3016801D01*
G01X4866599Y3011802D01*
G01X4866599Y2931803D01*
G01X4871598Y2926801D01*
G37*
G36*
G01X5110602Y3016799D02*
G01X5030602Y3016799D01*
G01X5025601Y3011797D01*
G01X5025601Y2989001D01*
G01X5062601Y2989001D01*
G01X5062601Y2956001D01*
G01X5025601Y2956001D01*
G01X5025601Y2931798D01*
G01X5030602Y2926799D01*
G01X5110602Y2926799D01*
G01X5115601Y2931798D01*
G01X5115601Y3011797D01*
G01X5110602Y3016799D01*
G37*
G36*
G01X5110602Y2686599D02*
G01X5030602Y2686599D01*
G01X5025601Y2681597D01*
G01X5025601Y2658801D01*
G01X5062601Y2658801D01*
G01X5062601Y2625801D01*
G01X5025601Y2625801D01*
G01X5025601Y2601598D01*
G01X5030602Y2596599D01*
G01X5110602Y2596599D01*
G01X5115601Y2601598D01*
G01X5115601Y2681597D01*
G01X5110602Y2686599D01*
G37*
G36*
G01X4871598Y2596601D02*
G01X4951598Y2596601D01*
G01X4956599Y2601603D01*
G01X4956599Y2624399D01*
G01X4919599Y2624399D01*
G01X4919599Y2657399D01*
G01X4956599Y2657399D01*
G01X4956599Y2681602D01*
G01X4951598Y2686601D01*
G01X4871598Y2686601D01*
G01X4866599Y2681602D01*
G01X4866599Y2601603D01*
G01X4871598Y2596601D01*
G37*
G36*
G01X4871598Y1301201D02*
G01X4951598Y1301201D01*
G01X4956599Y1306203D01*
G01X4956599Y1328999D01*
G01X4919599Y1328999D01*
G01X4919599Y1361999D01*
G01X4956599Y1361999D01*
G01X4956599Y1386202D01*
G01X4951598Y1391201D01*
G01X4871598Y1391201D01*
G01X4866599Y1386202D01*
G01X4866599Y1306203D01*
G01X4871598Y1301201D01*
G37*
G36*
G01X5110602Y1391199D02*
G01X5030602Y1391199D01*
G01X5025601Y1386197D01*
G01X5025601Y1363401D01*
G01X5062601Y1363401D01*
G01X5062601Y1330401D01*
G01X5025601Y1330401D01*
G01X5025601Y1306198D01*
G01X5030602Y1301199D01*
G01X5110602Y1301199D01*
G01X5115601Y1306198D01*
G01X5115601Y1386197D01*
G01X5110602Y1391199D01*
G37*
G36*
G01X5110602Y2051599D02*
G01X5030602Y2051599D01*
G01X5025601Y2046597D01*
G01X5025601Y2023801D01*
G01X5062601Y2023801D01*
G01X5062601Y1990801D01*
G01X5025601Y1990801D01*
G01X5025601Y1966598D01*
G01X5030602Y1961599D01*
G01X5110602Y1961599D01*
G01X5115601Y1966598D01*
G01X5115601Y2046597D01*
G01X5110602Y2051599D01*
G37*
G36*
G01X4871598Y1961601D02*
G01X4951598Y1961601D01*
G01X4956599Y1966603D01*
G01X4956599Y1989399D01*
G01X4919599Y1989399D01*
G01X4919599Y2022399D01*
G01X4956599Y2022399D01*
G01X4956599Y2046602D01*
G01X4951598Y2051601D01*
G01X4871598Y2051601D01*
G01X4866599Y2046602D01*
G01X4866599Y1966603D01*
G01X4871598Y1961601D01*
G37*
G36*
G01X6926702Y2724699D02*
G01X6846702Y2724699D01*
G01X6841701Y2719697D01*
G01X6841701Y2696901D01*
G01X6878701Y2696901D01*
G01X6878701Y2663901D01*
G01X6841701Y2663901D01*
G01X6841701Y2639698D01*
G01X6846702Y2634699D01*
G01X6926702Y2634699D01*
G01X6931701Y2639698D01*
G01X6931701Y2719697D01*
G01X6926702Y2724699D01*
G37*
G36*
G01X6687698Y2634701D02*
G01X6767698Y2634701D01*
G01X6772699Y2639703D01*
G01X6772699Y2662499D01*
G01X6735699Y2662499D01*
G01X6735699Y2695499D01*
G01X6772699Y2695499D01*
G01X6772699Y2719702D01*
G01X6767698Y2724701D01*
G01X6687698Y2724701D01*
G01X6682699Y2719702D01*
G01X6682699Y2639703D01*
G01X6687698Y2634701D01*
G37*
G36*
G01X5643029Y2471288D02*
G01X5643029Y2551288D01*
G01X5638028Y2556289D01*
G01X5615231Y2556289D01*
G01X5615231Y2519289D01*
G01X5582232Y2519289D01*
G01X5582232Y2556289D01*
G01X5558028Y2556289D01*
G01X5553029Y2551288D01*
G01X5553029Y2471288D01*
G01X5558028Y2466289D01*
G01X5638028Y2466289D01*
G01X5643029Y2471288D01*
G37*
G36*
G01X5553032Y2710292D02*
G01X5553032Y2630292D01*
G01X5558033Y2625291D01*
G01X5580830Y2625291D01*
G01X5580830Y2662291D01*
G01X5613829Y2662291D01*
G01X5613829Y2625291D01*
G01X5638033Y2625291D01*
G01X5643032Y2630292D01*
G01X5643032Y2710292D01*
G01X5638033Y2715290D01*
G01X5558033Y2715290D01*
G01X5553032Y2710292D01*
G37*
G36*
G01X7741798Y513801D02*
G01X7821798Y513801D01*
G01X7826799Y518803D01*
G01X7826799Y541599D01*
G01X7789799Y541599D01*
G01X7789799Y574599D01*
G01X7826799Y574599D01*
G01X7826799Y598802D01*
G01X7821798Y603801D01*
G01X7741798Y603801D01*
G01X7736799Y598802D01*
G01X7736799Y518803D01*
G01X7741798Y513801D01*
G37*
G36*
G01X7980802Y603799D02*
G01X7900802Y603799D01*
G01X7895801Y598797D01*
G01X7895801Y576001D01*
G01X7932801Y576001D01*
G01X7932801Y543001D01*
G01X7895801Y543001D01*
G01X7895801Y518798D01*
G01X7900802Y513799D01*
G01X7980802Y513799D01*
G01X7985801Y518798D01*
G01X7985801Y598797D01*
G01X7980802Y603799D01*
G37*
G36*
G01X7436998Y513801D02*
G01X7516998Y513801D01*
G01X7521999Y518803D01*
G01X7521999Y541599D01*
G01X7484999Y541599D01*
G01X7484999Y574599D01*
G01X7521999Y574599D01*
G01X7521999Y598802D01*
G01X7516998Y603801D01*
G01X7436998Y603801D01*
G01X7431999Y598802D01*
G01X7431999Y518803D01*
G01X7436998Y513801D01*
G37*
G36*
G01X7676002Y603799D02*
G01X7596002Y603799D01*
G01X7591001Y598797D01*
G01X7591001Y576001D01*
G01X7628001Y576001D01*
G01X7628001Y543001D01*
G01X7591001Y543001D01*
G01X7591001Y518798D01*
G01X7596002Y513799D01*
G01X7676002Y513799D01*
G01X7681001Y518798D01*
G01X7681001Y598797D01*
G01X7676002Y603799D01*
G37*
G36*
G01X7817399Y2445898D02*
G01X7817399Y2525898D01*
G01X7812397Y2530899D01*
G01X7789601Y2530899D01*
G01X7789601Y2493899D01*
G01X7756601Y2493899D01*
G01X7756601Y2530899D01*
G01X7732398Y2530899D01*
G01X7727399Y2525898D01*
G01X7727399Y2445898D01*
G01X7732398Y2440899D01*
G01X7812397Y2440899D01*
G01X7817399Y2445898D01*
G37*
G36*
G01X7727401Y2684902D02*
G01X7727401Y2604902D01*
G01X7732403Y2599901D01*
G01X7755199Y2599901D01*
G01X7755199Y2636901D01*
G01X7788199Y2636901D01*
G01X7788199Y2599901D01*
G01X7812402Y2599901D01*
G01X7817401Y2604902D01*
G01X7817401Y2684902D01*
G01X7812402Y2689901D01*
G01X7732403Y2689901D01*
G01X7727401Y2684902D01*
G37*
G36*
G01X7969799Y2445898D02*
G01X7969799Y2525898D01*
G01X7964797Y2530899D01*
G01X7942001Y2530899D01*
G01X7942001Y2493899D01*
G01X7909001Y2493899D01*
G01X7909001Y2530899D01*
G01X7884798Y2530899D01*
G01X7879799Y2525898D01*
G01X7879799Y2445898D01*
G01X7884798Y2440899D01*
G01X7964797Y2440899D01*
G01X7969799Y2445898D01*
G37*
G36*
G01X7879801Y2684902D02*
G01X7879801Y2604902D01*
G01X7884803Y2599901D01*
G01X7907599Y2599901D01*
G01X7907599Y2636901D01*
G01X7940599Y2636901D01*
G01X7940599Y2599901D01*
G01X7964802Y2599901D01*
G01X7969801Y2604902D01*
G01X7969801Y2684902D01*
G01X7964802Y2689901D01*
G01X7884803Y2689901D01*
G01X7879801Y2684902D01*
G37*
G36*
G01X4158701Y2634102D02*
G01X4158701Y2554102D01*
G01X4163703Y2549101D01*
G01X4186499Y2549101D01*
G01X4186499Y2586101D01*
G01X4219499Y2586101D01*
G01X4219499Y2549101D01*
G01X4243702Y2549101D01*
G01X4248701Y2554102D01*
G01X4248701Y2634102D01*
G01X4243702Y2639101D01*
G01X4163703Y2639101D01*
G01X4158701Y2634102D01*
G37*
G36*
G01X4248699Y2395098D02*
G01X4248699Y2475098D01*
G01X4243697Y2480099D01*
G01X4220901Y2480099D01*
G01X4220901Y2443099D01*
G01X4187901Y2443099D01*
G01X4187901Y2480099D01*
G01X4163698Y2480099D01*
G01X4158699Y2475098D01*
G01X4158699Y2395098D01*
G01X4163698Y2390099D01*
G01X4243697Y2390099D01*
G01X4248699Y2395098D01*
G37*
G36*
G01X4615302Y2483399D02*
G01X4535302Y2483399D01*
G01X4530301Y2478397D01*
G01X4530301Y2455601D01*
G01X4567301Y2455601D01*
G01X4567301Y2422601D01*
G01X4530301Y2422601D01*
G01X4530301Y2398398D01*
G01X4535302Y2393399D01*
G01X4615302Y2393399D01*
G01X4620301Y2398398D01*
G01X4620301Y2478397D01*
G01X4615302Y2483399D01*
G37*
G36*
G01X4376298Y2393401D02*
G01X4456298Y2393401D01*
G01X4461299Y2398403D01*
G01X4461299Y2421199D01*
G01X4424299Y2421199D01*
G01X4424299Y2454199D01*
G01X4461299Y2454199D01*
G01X4461299Y2478402D01*
G01X4456298Y2483401D01*
G01X4376298Y2483401D01*
G01X4371299Y2478402D01*
G01X4371299Y2398403D01*
G01X4376298Y2393401D01*
G37*
G36*
G01X2801498Y1974301D02*
G01X2881498Y1974301D01*
G01X2886499Y1979303D01*
G01X2886499Y2002099D01*
G01X2849499Y2002099D01*
G01X2849499Y2035099D01*
G01X2886499Y2035099D01*
G01X2886499Y2059302D01*
G01X2881498Y2064301D01*
G01X2801498Y2064301D01*
G01X2796499Y2059302D01*
G01X2796499Y1979303D01*
G01X2801498Y1974301D01*
G37*
G36*
G01X3040502Y2064299D02*
G01X2960502Y2064299D01*
G01X2955501Y2059297D01*
G01X2955501Y2036501D01*
G01X2992501Y2036501D01*
G01X2992501Y2003501D01*
G01X2955501Y2003501D01*
G01X2955501Y1979298D01*
G01X2960502Y1974299D01*
G01X3040502Y1974299D01*
G01X3045501Y1979298D01*
G01X3045501Y2059297D01*
G01X3040502Y2064299D01*
G37*
G36*
G01X4896998Y2202901D02*
G01X4976998Y2202901D01*
G01X4981999Y2207903D01*
G01X4981999Y2230699D01*
G01X4944999Y2230699D01*
G01X4944999Y2263699D01*
G01X4981999Y2263699D01*
G01X4981999Y2287902D01*
G01X4976998Y2292901D01*
G01X4896998Y2292901D01*
G01X4891999Y2287902D01*
G01X4891999Y2207903D01*
G01X4896998Y2202901D01*
G37*
G36*
G01X5136002Y2292899D02*
G01X5056002Y2292899D01*
G01X5051001Y2287897D01*
G01X5051001Y2265101D01*
G01X5088001Y2265101D01*
G01X5088001Y2232101D01*
G01X5051001Y2232101D01*
G01X5051001Y2207898D01*
G01X5056002Y2202899D01*
G01X5136002Y2202899D01*
G01X5141001Y2207898D01*
G01X5141001Y2287897D01*
G01X5136002Y2292899D01*
G37*

G04 Pad Start*
G54D10*
G01X6845300Y4668114D03*
G01X6845300Y5568086D03*
G01X5626100Y4668114D03*
G01X5626100Y5568086D03*
G01X5626100Y7307986D03*
G01X5626100Y6408014D03*
G01X6845300Y7307986D03*
G01X6845300Y6408014D03*
G54D11*
G01X4565802Y1993900D03*
G01X4425798Y1993900D03*
G01X4423552Y1513545D03*
G01X4563557Y1513545D03*
G54D12*
G01X4241800Y1682598D03*
G01X4241800Y1822602D03*
G01X5156200Y3651402D03*
G01X5156200Y3511398D03*
G01X5156200Y3956202D03*
G01X5156200Y3816198D03*
G01X5334000Y3803802D03*
G01X5334000Y3663798D03*
G01X7162800Y3727298D03*
G01X7162800Y3867302D03*
G01X7162800Y3422498D03*
G01X7162800Y3562502D03*
G01X6985000Y3574898D03*
G01X6985000Y3714902D03*
G01X3162300Y1517498D03*
G01X3162300Y1657502D03*
G01X3873500Y463398D03*
G01X3873500Y603402D03*
G01X4203700Y463398D03*
G01X4203700Y603402D03*
G54D11*
G01X5061102Y1663700D03*
G01X4921098Y1663700D03*
G54D12*
G01X3149600Y2241398D03*
G01X3149600Y2381402D03*
G54D11*
G01X3537102Y2590800D03*
G01X3397098Y2590800D03*
G01X6877202Y1308100D03*
G01X6737198Y1308100D03*
G01X6877202Y977900D03*
G01X6737198Y977900D03*
G01X6547002Y3987800D03*
G01X6406998Y3987800D03*
G54D12*
G01X5156200Y3283102D03*
G01X5156200Y3143098D03*
G01X5435600Y2520798D03*
G01X5435600Y2660802D03*
G54D11*
G01X5061102Y2806700D03*
G01X4921098Y2806700D03*
G01X4565802Y2705100D03*
G01X4425798Y2705100D03*
G01X5061102Y1841500D03*
G01X4921098Y1841500D03*
G54D12*
G01X5232400Y2000402D03*
G01X5232400Y1860398D03*
G01X5765800Y2660802D03*
G01X5765800Y2520798D03*
G54D11*
G01X6000902Y3467100D03*
G01X5860898Y3467100D03*
G01X5860898Y3797300D03*
G01X6000902Y3797300D03*
G54D12*
G01X5598030Y2215987D03*
G01X5598030Y2355992D03*
G01X6731000Y2203602D03*
G01X6731000Y2063598D03*
G01X6731000Y2381098D03*
G01X6731000Y2521102D03*
G54D13*
G01X1079500Y469595D03*
G01X1079500Y1003605D03*
G54D11*
G01X7638898Y1701800D03*
G01X7778902Y1701800D03*
G54D12*
G01X7518400Y1911198D03*
G01X7518400Y2051202D03*
G01X7708900Y400202D03*
G01X7708900Y260198D03*
G54D14*
G01X2650160Y3022600D03*
G01X2988640Y3022600D03*
G54D15*
G01X2451100Y2899740D03*
G01X2451100Y2561260D03*
G54D16*
G01X8723300Y3422904D03*
G01X8723300Y3612896D03*
G01X8523300Y3517900D03*
G01X7786700Y2101596D03*
G01X7786700Y1911604D03*
G01X7986700Y2006600D03*
G54D18*
G01X2513454Y5460200D03*
G54D19*
G01X305940Y5981687D03*
G54D18*
G01X2513454Y6503200D03*
G54D20*
G01X7721600Y4541495D03*
G01X7721600Y4221505D03*
G01X3937000Y4541495D03*
G01X3937000Y4221505D03*
G01X3911600Y7741895D03*
G01X3911600Y7421905D03*
G54D21*
G01X5067300Y1153097D03*
G54D22*
G01X4967300Y828104D03*
G01X5167300Y828104D03*
G54D23*
G01X4249395Y5981700D03*
G01X3929405Y5981700D03*
G54D24*
G01X4786878Y1421239D03*
G01X4940300Y2501900D03*
G01X2982700Y673539D03*
G01X4800600Y2006600D03*
G01X3543300Y3086100D03*
G01X3695700Y3086100D03*
G01X3848100Y3086100D03*
G01X4000500Y3086100D03*
G01X4114800Y1155700D03*
G01X4800600Y2806700D03*
G01X4241800Y1943100D03*
G01X4241800Y1562100D03*
G01X3060694Y3213249D03*
G01X3693155Y1423425D03*
G01X3771900Y1422400D03*
G01X3860800Y1371600D03*
G54D25*
G01X3948405Y1580007D03*
G01X3948405Y1630020D03*
G01X3948405Y1680007D03*
G01X3948405Y1730019D03*
G01X3948405Y1780007D03*
G01X3948405Y1829994D03*
G01X3948405Y1880006D03*
G01X3948405Y1930019D03*
G01X3948405Y1980006D03*
G01X3948405Y2030019D03*
G01X3948405Y2080006D03*
G01X3948405Y2130019D03*
G01X3948405Y2180006D03*
G01X3948405Y2230018D03*
G01X3468395Y2230018D03*
G01X3468395Y2180006D03*
G01X3468395Y2130019D03*
G01X3468395Y2055012D03*
G01X3468395Y2005000D03*
G01X3468395Y1955013D03*
G01X3468395Y1905000D03*
G01X3468395Y1829994D03*
G01X3468395Y1755013D03*
G01X3468395Y1705000D03*
G01X3468395Y1630020D03*
G01X3468395Y1580007D03*
G54D26*
G01X3883406Y1515008D03*
G01X3833393Y1515008D03*
G01X3783406Y1515008D03*
G01X3733394Y1515008D03*
G01X3683406Y1515008D03*
G01X3633394Y1515008D03*
G01X3533394Y1515008D03*
G01X3533394Y2295017D03*
G01X3583407Y2295017D03*
G01X3633394Y2295017D03*
G01X3733394Y2295017D03*
G01X3783406Y2295017D03*
G01X3833393Y2295017D03*
G01X3883406Y2295017D03*
G54D27*
G01X3708400Y1905000D03*
G54D28*
G01X5647411Y3443097D03*
G01X5582412Y3443097D03*
G01X5517388Y3443097D03*
G01X5452389Y3443097D03*
G01X5452389Y2983103D03*
G01X5517388Y2983103D03*
G01X5582412Y2983103D03*
G01X5647411Y2983103D03*
G54D29*
G01X6732397Y3534689D03*
G01X6732397Y3599688D03*
G01X6732397Y3664712D03*
G01X6732397Y3729711D03*
G01X6272403Y3729711D03*
G01X6272403Y3664712D03*
G01X6272403Y3599688D03*
G01X6272403Y3534689D03*
G54D30*
G01X7899400Y1411249D03*
G01X7772400Y1411249D03*
G01X7645400Y1411249D03*
G01X7518400Y1411249D03*
G01X7899400Y874751D03*
G01X7772400Y874751D03*
G01X7645400Y874751D03*
G01X7518400Y874751D03*
G54D31*
G01X8780805Y1169391D03*
G01X8780805Y1294409D03*
G54D32*
G01X9100795Y1479398D03*
G01X9100795Y984402D03*
G54D31*
G01X8780805Y445491D03*
G01X8780805Y570509D03*
G54D32*
G01X9100795Y755498D03*
G01X9100795Y260502D03*
G54D33*
G01X9113457Y1697634D03*
G01X9113457Y2442566D03*
G54D31*
G01X8793544Y2257552D03*
G01X8793544Y2132559D03*
G01X8793544Y2007540D03*
G01X8793544Y1882546D03*
G54D34*
G01X9138907Y2636393D03*
G01X9138892Y3256407D03*
G54D31*
G01X8768093Y3071406D03*
G01X8768093Y2946387D03*
G01X8768093Y2821394D03*
G54D35*
G01X2652801Y2517501D03*
G01X2992806Y2517501D03*
G01X2652801Y2780200D03*
G01X2992806Y2780200D03*
G54D12*
G01X2679700Y1873098D03*
G01X2679700Y2013102D03*
G01X4737100Y2292198D03*
G01X4737100Y2432202D03*
G54D11*
G01X6899606Y3243689D03*
G01X6759602Y3243689D03*
G54D36*
G01X6952311Y3059285D03*
G01X6952311Y2869293D03*
G01X6732297Y3059285D03*
G01X6732297Y2869293D03*
G01X6732297Y2964289D03*
G04 Pad End*

M02*

