G04 Layer: DrillDrawingLayer*
G04 EasyEDA Pro v2.2.39.2, 2025-06-05 07:06:46*
G04 Gerber Generator version 0.3*
G04 Scale: 100 percent, Rotated: No, Reflected: No*
G04 Dimensions in millimeters*
G04 Leading zeros omitted, absolute positions, 4 integers and 5 decimals*
G04 Generated by one-click*
%FSLAX45Y45*%
%MOMM*%
%AMIconRect*4,1,4,0.2,-0.2,-0.2,-0.2,-0.2,0.2,0.2,0.2,0.2,-0.2,0*4,0,4,0.166667,-0.166667,0.166667,0.166667,-0.166667,0.166667,-0.166667,-0.166667,0.166667,-0.166667,0*%
%AMIconTriangle*4,1,3,-0.242567,0.171767,0.242567,0.171767,0,-0.2706,-0.242567,0.171767,0*4,0,3,-0.189767,0.1386,0,-0.1953,0.190167,0.1386,-0.189767,0.1386,0*%
%AMIconStar6*4,1,12,0.0862,0.1492,0.213233,0.123367,0.172367,0,0.213233,-0.1229,0.0862,-0.148733,0,-0.245767,-0.085767,-0.148733,-0.213267,-0.1229,-0.171933,0,-0.213267,0.1229,-0.085767,0.1492,0,0.245767,0.0862,0.1492,0*4,0,12,-0.000333,0.195333,-0.064333,0.122667,-0.169667,0.097667,-0.138333,-0.005333,-0.169667,-0.098,-0.064333,-0.122667,-0.000333,-0.195667,0.064333,-0.122667,0.169667,-0.098,0.138667,0.005,0.169667,0.098,0.064333,0.122333,-0.000333,0.195333,0*%
%AMIconStar4*4,1,8,-0.222667,0.222667,0,0.144667,0.222667,0.222667,0.144667,0,0.222667,-0.222667,0,-0.144667,-0.217433,-0.222667,-0.144667,0,-0.222667,0.222667,0*4,0,8,0.166667,-0.166667,0.108,0,0.166667,0.166667,0,0.108,-0.166667,0.166667,-0.108,0,-0.166667,-0.166667,0,-0.108,0.166667,-0.166667,0*%
%AMIconPlus*4,1,12,0.124,-0.2,-0.124,-0.2,-0.124,-0.124,-0.2,-0.124,-0.2,0.124,-0.124,0.124,-0.124,0.2,0.124,0.2,0.124,0.124,0.2,0.124,0.2,-0.124,0.124,-0.124,0.124,-0.2,0*4,0,12,0.090667,-0.166667,0.090667,-0.090667,0.166667,-0.090667,0.166667,0.090667,0.090667,0.090667,0.090667,0.166667,-0.090667,0.166667,-0.090667,0.090667,-0.166667,0.090667,-0.166667,-0.090667,-0.090667,-0.090667,-0.090667,-0.166667,0.090667,-0.166667,0*%
%AMIconX*4,1,16,0.2,-0.2,0.054533,-0.2,0,-0.145467,-0.054533,-0.2,-0.2,-0.2,-0.2,-0.054533,-0.145467,0,-0.2,0.054533,-0.2,0.2,-0.054533,0.2,0,0.145467,0.054533,0.2,0.2,0.2,0.2,0.054533,0.145467,0,0.2,-0.054533,0.2,-0.2,0*4,0,16,0.1668,-0.1664,0.1668,-0.068467,0.097933,0.000067,0.1668,0.068467,0.1668,0.1665,0.068467,0.1665,0,0.097933,-0.068467,0.1665,-0.1668,0.1665,-0.1668,0.068467,-0.097933,0.000067,-0.1668,-0.068467,-0.1668,-0.1664,-0.068467,-0.1664,0,-0.097933,0.068467,-0.1664,0.1668,-0.1664,0*%
%AMIconDiamond*4,1,4,0,-0.26,-0.26,0,0,0.26,0.26,0,0,-0.26,0*4,0,4,0,-0.203433,0.203433,0,0,0.2036,-0.203433,0,0,-0.203433,0*%
%ADD10IconRect*%
%ADD11C,0.44X0.373333*%
%ADD12IconTriangle*%
%ADD13IconStar6*%
%ADD14IconStar4*%
%ADD15IconPlus*%
%ADD16IconX*%
%ADD17IconDiamond*%
G75*


G04 Drill Drawing Start*
G54D10*
G01X8915413Y3814884D03*
G01X8915413Y4914882D03*
G54D11*
G01X8415411Y4114884D03*
G01X8415421Y4614883D03*
G54D12*
G01X7915402Y5532387D03*
G01X7915402Y6032386D03*
G01X7915402Y6942087D03*
G01X7915402Y7442086D03*
G54D13*
G01X825500Y1828800D03*
G01X825500Y3606800D03*
G01X1079500Y1828800D03*
G01X1079500Y3606800D03*
G01X1333500Y1828800D03*
G01X1333500Y3606800D03*
G01X8915403Y5232387D03*
G01X8915403Y6332385D03*
G01X8915403Y6642087D03*
G01X8915403Y7742085D03*
G54D14*
G01X2964433Y5085003D03*
G01X2971800Y5854700D03*
G01X3458931Y6883552D03*
G01X3459270Y6116396D03*
G01X3543300Y3440509D03*
G01X3695700Y3440509D03*
G01X3848100Y3440509D03*
G01X3911600Y7492995D03*
G01X3911600Y7670795D03*
G01X4000500Y3440509D03*
G01X4597400Y7239361D03*
G01X4610100Y4724039D03*
G01X7721600Y4314087D03*
G01X7721600Y4448570D03*
G54D15*
G01X6210300Y355600D03*
G01X6210300Y609600D03*
G01X6210300Y863600D03*
G01X6210300Y1117600D03*
G01X6210300Y1371600D03*
G01X6210300Y1625600D03*
G01X6210300Y1879600D03*
G01X6210300Y2133600D03*
G01X6210300Y2387600D03*
G01X6210300Y2641600D03*
G01X6210300Y2895600D03*
G01X6210300Y3149600D03*
G01X6464300Y355600D03*
G01X6464300Y609600D03*
G01X6464300Y863600D03*
G01X6464300Y1117600D03*
G01X6464300Y1371600D03*
G01X6464300Y1625600D03*
G01X6464300Y1879600D03*
G01X6464300Y2133600D03*
G01X6464300Y2387600D03*
G01X6464300Y2641600D03*
G01X6464300Y2895600D03*
G01X6464300Y3149600D03*
G01X8242300Y355600D03*
G01X8242300Y609600D03*
G01X8242300Y863600D03*
G01X8242300Y1117600D03*
G01X8242300Y1371600D03*
G01X8242300Y1625600D03*
G01X8242300Y1879600D03*
G01X8242300Y2133600D03*
G01X8242300Y2387600D03*
G01X8242300Y2641600D03*
G01X8242300Y2895600D03*
G01X8242300Y3149600D03*
G01X8496300Y355600D03*
G01X8496300Y609600D03*
G01X8496300Y863600D03*
G01X8496300Y1117600D03*
G01X8496300Y1371600D03*
G01X8496300Y1625600D03*
G01X8496300Y1879600D03*
G01X8496300Y2133600D03*
G01X8496300Y2387600D03*
G01X8496300Y2641600D03*
G01X8496300Y2895600D03*
G01X8496300Y3149600D03*
G54D16*
G01X3883914Y5090160D03*
G01X3883914Y5179060D03*
G01X3896360Y6804660D03*
G01X3896360Y6893560D03*
G01X3972814Y5090160D03*
G01X3972814Y5179060D03*
G01X3985260Y6804660D03*
G01X3985260Y6893560D03*
G01X4061714Y5090160D03*
G01X4061714Y5179060D03*
G01X4074160Y6804660D03*
G01X4074160Y6893560D03*
G01X4150614Y5090160D03*
G01X4150614Y5179060D03*
G01X4163060Y6804660D03*
G01X4163060Y6893560D03*
G01X4366514Y5090160D03*
G01X4366514Y5179060D03*
G01X4429760Y6804660D03*
G01X4429760Y6893560D03*
G01X4455414Y5090160D03*
G01X4455414Y5179060D03*
G01X4518660Y6804660D03*
G01X4518660Y6893560D03*
G01X4544314Y5090160D03*
G01X4544314Y5179060D03*
G01X4607560Y6804660D03*
G01X4607560Y6893560D03*
G01X4633214Y5090160D03*
G01X4633214Y5179060D03*
G01X4696460Y6804660D03*
G01X4696460Y6893560D03*
G01X4785360Y6804660D03*
G01X4785360Y6893560D03*
G01X5496560Y5438546D03*
G01X5496560Y5527446D03*
G01X5496560Y5616346D03*
G01X5496560Y5705246D03*
G01X5496560Y6283960D03*
G01X5496560Y6372860D03*
G01X5496560Y6461760D03*
G01X5496560Y6550660D03*
G01X5763260Y5438546D03*
G01X5763260Y5527446D03*
G01X5763260Y5616346D03*
G01X5763260Y5705246D03*
G01X5763260Y6283960D03*
G01X5763260Y6372860D03*
G01X5763260Y6461760D03*
G01X5763260Y6550660D03*
G01X6715760Y5438546D03*
G01X6715760Y5527446D03*
G01X6715760Y5616346D03*
G01X6715760Y5705246D03*
G01X6715760Y6278474D03*
G01X6715760Y6367374D03*
G01X6715760Y6456274D03*
G01X6715760Y6545174D03*
G01X6982460Y5438546D03*
G01X6982460Y5527446D03*
G01X6982460Y5616346D03*
G01X6982460Y5705246D03*
G01X6982460Y6278474D03*
G01X6982460Y6367374D03*
G01X6982460Y6456274D03*
G01X6982460Y6545174D03*
G54D17*
G01X1155700Y469900D03*
G01X2146300Y3238500D03*
G01X2247900Y2654300D03*
G01X2321293Y5077460D03*
G01X2321293Y5153660D03*
G01X2321293Y5763260D03*
G01X2321293Y5839460D03*
G01X2321293Y5915660D03*
G01X2321560Y4480560D03*
G01X2321560Y4556760D03*
G01X2321560Y4632960D03*
G01X2321560Y4709160D03*
G01X2321560Y4785360D03*
G01X2321560Y4861560D03*
G01X2321560Y6080760D03*
G01X2321560Y6156960D03*
G01X2321560Y6842760D03*
G01X2321560Y6918960D03*
G01X2321560Y7097014D03*
G01X2321560Y7173214D03*
G01X2321560Y7249414D03*
G01X2321560Y7325614D03*
G01X2321560Y7401814D03*
G01X2321560Y7478014D03*
G01X2397493Y5077460D03*
G01X2397493Y5153660D03*
G01X2397493Y5763260D03*
G01X2397493Y5839460D03*
G01X2397493Y5915660D03*
G01X2397760Y4480560D03*
G01X2397760Y4556760D03*
G01X2397760Y4632960D03*
G01X2397760Y4709160D03*
G01X2397760Y4785360D03*
G01X2397760Y4861560D03*
G01X2397760Y6080760D03*
G01X2397760Y6156960D03*
G01X2397760Y6842760D03*
G01X2397760Y6918960D03*
G01X2397760Y7097014D03*
G01X2397760Y7173214D03*
G01X2397760Y7249414D03*
G01X2397760Y7325614D03*
G01X2397760Y7401814D03*
G01X2397760Y7478014D03*
G01X2473693Y5077460D03*
G01X2473693Y5153660D03*
G01X2473693Y5763260D03*
G01X2473693Y5839460D03*
G01X2473693Y5915660D03*
G01X2473960Y4480560D03*
G01X2473960Y4556760D03*
G01X2473960Y4632960D03*
G01X2473960Y4709160D03*
G01X2473960Y4785360D03*
G01X2473960Y4861560D03*
G01X2473960Y6080760D03*
G01X2473960Y6156960D03*
G01X2473960Y6842760D03*
G01X2473960Y6918960D03*
G01X2473960Y7097014D03*
G01X2473960Y7173214D03*
G01X2473960Y7249414D03*
G01X2473960Y7325614D03*
G01X2473960Y7401814D03*
G01X2473960Y7478014D03*
G01X2514600Y3238500D03*
G01X2549893Y5077460D03*
G01X2549893Y5153660D03*
G01X2549893Y5763260D03*
G01X2549893Y5839460D03*
G01X2549893Y5915660D03*
G01X2550160Y4480560D03*
G01X2550160Y4556760D03*
G01X2550160Y4632960D03*
G01X2550160Y4709160D03*
G01X2550160Y4785360D03*
G01X2550160Y4861560D03*
G01X2550160Y6080760D03*
G01X2550160Y6156960D03*
G01X2550160Y6842760D03*
G01X2550160Y6918960D03*
G01X2550160Y7097014D03*
G01X2550160Y7173214D03*
G01X2550160Y7249414D03*
G01X2550160Y7325614D03*
G01X2550160Y7401814D03*
G01X2550160Y7478014D03*
G01X2578100Y2476500D03*
G01X2578100Y2552700D03*
G01X2578100Y2742851D03*
G01X2578100Y2819400D03*
G01X2626093Y5077460D03*
G01X2626093Y5153660D03*
G01X2626093Y5763260D03*
G01X2626093Y5839460D03*
G01X2626093Y5915660D03*
G01X2626360Y4480560D03*
G01X2626360Y4556760D03*
G01X2626360Y4632960D03*
G01X2626360Y4709160D03*
G01X2626360Y4785360D03*
G01X2626360Y4861560D03*
G01X2626360Y6080760D03*
G01X2626360Y6156960D03*
G01X2626360Y6842760D03*
G01X2626360Y6918960D03*
G01X2626360Y7097014D03*
G01X2626360Y7173214D03*
G01X2626360Y7249414D03*
G01X2626360Y7325614D03*
G01X2626360Y7401814D03*
G01X2626360Y7478014D03*
G01X2702293Y5077460D03*
G01X2702293Y5153660D03*
G01X2702293Y5763260D03*
G01X2702293Y5839460D03*
G01X2702293Y5915660D03*
G01X2702560Y4480560D03*
G01X2702560Y4556760D03*
G01X2702560Y4632960D03*
G01X2702560Y4709160D03*
G01X2702560Y4785360D03*
G01X2702560Y4861560D03*
G01X2702560Y6080760D03*
G01X2702560Y6156960D03*
G01X2702560Y6842760D03*
G01X2702560Y6918960D03*
G01X2702560Y7097014D03*
G01X2702560Y7173214D03*
G01X2702560Y7249414D03*
G01X2702560Y7325614D03*
G01X2702560Y7401814D03*
G01X2702560Y7478014D03*
G01X2764703Y1876602D03*
G01X2768600Y1193800D03*
G01X2768600Y1739900D03*
G01X2769791Y952500D03*
G01X2775436Y800100D03*
G01X2910312Y1866211D03*
G01X2984500Y1351334D03*
G01X3048773Y952500D03*
G01X3055388Y1519475D03*
G01X3058160Y4645660D03*
G01X3058160Y4721860D03*
G01X3058160Y4798060D03*
G01X3058160Y4874260D03*
G01X3058160Y5407660D03*
G01X3058160Y5483860D03*
G01X3058160Y5560060D03*
G01X3058160Y5636260D03*
G01X3058160Y6322060D03*
G01X3058160Y6398260D03*
G01X3058160Y6474460D03*
G01X3058160Y6550660D03*
G01X3059509Y1117600D03*
G01X3069448Y7077067D03*
G01X3069448Y7153267D03*
G01X3069448Y7229467D03*
G01X3069448Y7305667D03*
G01X3134360Y4645660D03*
G01X3134360Y4721860D03*
G01X3134360Y4798060D03*
G01X3134360Y4874260D03*
G01X3134360Y5407660D03*
G01X3134360Y5483860D03*
G01X3134360Y5560060D03*
G01X3134360Y5636260D03*
G01X3134360Y6322060D03*
G01X3134360Y6398260D03*
G01X3134360Y6474460D03*
G01X3134360Y6550660D03*
G01X3145648Y7077067D03*
G01X3145648Y7153267D03*
G01X3145648Y7229467D03*
G01X3145648Y7305667D03*
G01X3149628Y2454403D03*
G01X3187700Y939800D03*
G01X3203743Y1991888D03*
G01X3210560Y4645660D03*
G01X3210560Y4721860D03*
G01X3210560Y4798060D03*
G01X3210560Y4874260D03*
G01X3210560Y5407660D03*
G01X3210560Y5483860D03*
G01X3210560Y5560060D03*
G01X3210560Y5636260D03*
G01X3210560Y6322060D03*
G01X3210560Y6398260D03*
G01X3210560Y6474460D03*
G01X3210560Y6550660D03*
G01X3221848Y7077067D03*
G01X3221848Y7153267D03*
G01X3221848Y7229467D03*
G01X3221848Y7305667D03*
G01X3286760Y4645660D03*
G01X3286760Y4721860D03*
G01X3286760Y4798060D03*
G01X3286760Y4874260D03*
G01X3286760Y5407660D03*
G01X3286760Y5483860D03*
G01X3286760Y5560060D03*
G01X3286760Y5636260D03*
G01X3286760Y6322060D03*
G01X3286760Y6398260D03*
G01X3286760Y6474460D03*
G01X3286760Y6550660D03*
G01X3298048Y7077067D03*
G01X3298048Y7153267D03*
G01X3298048Y7229467D03*
G01X3298048Y7305667D03*
G01X3336895Y1956460D03*
G01X3340100Y3568700D03*
G01X3340100Y3759200D03*
G01X3352800Y1612900D03*
G01X3362960Y4645660D03*
G01X3362960Y4721860D03*
G01X3362960Y4798060D03*
G01X3362960Y4874260D03*
G01X3362960Y5407660D03*
G01X3362960Y5483860D03*
G01X3362960Y5560060D03*
G01X3362960Y5636260D03*
G01X3362960Y6322060D03*
G01X3362960Y6398260D03*
G01X3362960Y6474460D03*
G01X3362960Y6550660D03*
G01X3365500Y2197100D03*
G01X3374248Y7077067D03*
G01X3374248Y7153267D03*
G01X3374248Y7229467D03*
G01X3374248Y7305667D03*
G01X3384398Y2502091D03*
G01X3397677Y1899077D03*
G01X3416300Y1333500D03*
G01X3429000Y749300D03*
G01X3479800Y1253687D03*
G01X3531135Y749300D03*
G01X3543300Y3146984D03*
G01X3571020Y2405186D03*
G01X3619500Y1422400D03*
G01X3629660Y1711960D03*
G01X3629660Y1788160D03*
G01X3629660Y1864360D03*
G01X3629660Y1940560D03*
G01X3629660Y2016760D03*
G01X3629660Y2092960D03*
G01X3683000Y863600D03*
G01X3695700Y1358900D03*
G01X3695700Y3146984D03*
G01X3705860Y1711960D03*
G01X3705860Y1788160D03*
G01X3705860Y1864360D03*
G01X3705860Y1940560D03*
G01X3705860Y2016760D03*
G01X3705860Y2092960D03*
G01X3708400Y394891D03*
G01X3708400Y671909D03*
G01X3721100Y2387600D03*
G01X3759369Y863600D03*
G01X3782060Y1711960D03*
G01X3782060Y1788160D03*
G01X3782060Y1864360D03*
G01X3782060Y1940560D03*
G01X3782060Y2016760D03*
G01X3782060Y2092960D03*
G01X3783406Y2468495D03*
G01X3784600Y1371600D03*
G01X3848100Y1295400D03*
G01X3848100Y2387600D03*
G01X3848100Y3145867D03*
G01X3873504Y403473D03*
G01X3932456Y1386050D03*
G01X3937000Y4313596D03*
G01X3937000Y4448880D03*
G01X3949700Y4584700D03*
G01X3954800Y863600D03*
G01X4000500Y3146562D03*
G01X4013200Y3708400D03*
G01X4013200Y3924300D03*
G01X4025697Y863600D03*
G01X4025851Y5981700D03*
G01X4025900Y1917700D03*
G01X4025900Y2044700D03*
G01X4025900Y2120900D03*
G01X4038600Y403473D03*
G01X4038600Y671909D03*
G01X4051300Y1612900D03*
G01X4051300Y2578100D03*
G01X4051300Y2654300D03*
G01X4089400Y1981200D03*
G01X4114155Y1670655D03*
G01X4154601Y5981700D03*
G01X4194725Y1155700D03*
G01X4194815Y1018500D03*
G01X4203700Y2653109D03*
G01X4203704Y407823D03*
G01X4356809Y2705128D03*
G01X4420464Y2363906D03*
G01X4506488Y2286000D03*
G01X4601191Y3698299D03*
G01X4601191Y3774499D03*
G01X4620301Y1828800D03*
G01X4622102Y1993876D03*
G01X4622721Y1676400D03*
G01X4623474Y1513542D03*
G01X4660202Y2285976D03*
G01X4852109Y1663728D03*
G01X4965700Y1422400D03*
G01X4973899Y2006600D03*
G01X4999111Y2247900D03*
G01X5112249Y1841504D03*
G01X5115189Y1663704D03*
G01X5121027Y2641600D03*
G01X5121986Y1498600D03*
G01X5129609Y2971799D03*
G01X5130102Y2806676D03*
G01X5155009Y2400300D03*
G01X5156196Y3087762D03*
G01X5156196Y3442409D03*
G01X5156196Y4016127D03*
G01X5159539Y2247900D03*
G01X5168900Y749300D03*
G01X5226202Y3283102D03*
G01X5232396Y1801967D03*
G01X5412801Y2983103D03*
G01X5435600Y2717153D03*
G01X5435604Y2468763D03*
G01X5478961Y1124868D03*
G01X5582412Y2882969D03*
G01X5598034Y2163605D03*
G01X5651500Y3771900D03*
G01X5765796Y2465824D03*
G01X5779691Y1625600D03*
G01X5809804Y3797296D03*
G01X5810130Y3467104D03*
G01X6272403Y3768929D03*
G01X6350709Y3987828D03*
G01X6388100Y3657600D03*
G01X6616002Y3987776D03*
G01X6642100Y660400D03*
G01X6667500Y2870200D03*
G01X6932394Y977904D03*
G01X6932394Y1143000D03*
G01X6933656Y2679700D03*
G01X6933895Y1308104D03*
G01X6935426Y1473200D03*
G01X6938503Y657099D03*
G01X6968606Y3243665D03*
G01X7162776Y3353499D03*
G01X7162828Y3936291D03*
G01X7518400Y1536700D03*
G01X7518428Y2120191D03*
G01X7528601Y3721097D03*
G01X7529909Y3568700D03*
G01X7645400Y1535122D03*
G01X7708872Y191209D03*
G01X7772400Y1536700D03*
G01X7810500Y2716609D03*
G01X7847891Y1701772D03*
G01X7899400Y765289D03*
G01X7899400Y1536700D03*
G01X7910339Y2006600D03*
G01X7924800Y2717800D03*
G01X8445500Y3517900D03*
G01X8544560Y4785360D03*
G01X8620760Y4480560D03*
G01X8620760Y4556760D03*
G01X8620760Y4632960D03*
G01X8620760Y4709160D03*
G01X8620760Y4785360D03*
G01X8696960Y4480560D03*
G01X8696960Y4556760D03*
G01X8696960Y4632960D03*
G01X8696960Y4709160D03*
G01X8696960Y4785360D03*
G01X8768093Y2776921D03*
G01X8773160Y4480560D03*
G01X8773160Y4556760D03*
G01X8773160Y4632960D03*
G01X8773160Y4709160D03*
G01X8773160Y4785360D03*
G01X8849360Y4480560D03*
G01X8849360Y4556760D03*
G01X8849360Y4632960D03*
G01X8849360Y4709160D03*
G01X8890000Y1879600D03*
G01X8890000Y2006600D03*
G01X8925560Y4480560D03*
G01X8925560Y4556760D03*
G01X8925560Y4632960D03*
G01X8925560Y4709160D03*
G01X9001760Y4480560D03*
G01X9001760Y4556760D03*
G01X9001760Y4632960D03*
G01X9001760Y4709160D03*
G01X9077960Y4480560D03*
G01X9077960Y4556760D03*
G01X9077960Y4632960D03*
G01X9077960Y4709160D03*
G01X9077960Y4785360D03*
G01X9154160Y4480560D03*
G01X9154160Y4556760D03*
G01X9154160Y4632960D03*
G01X9154160Y4709160D03*
G01X9154160Y4785360D03*
G04 Drill Drawing End*

M02*

