G04 Layer: TopSolderMaskLayer*
G04 EasyEDA Pro v2.2.39.2, 2025-06-05 07:27:08*
G04 Gerber Generator version 0.3*
G04 Scale: 100 percent, Rotated: No, Reflected: No*
G04 Dimensions in millimeters*
G04 Leading zeros omitted, absolute positions, 4 integers and 5 decimals*
G04 Generated by one-click*
%FSLAX45Y45*%
%MOMM*%
%AMRoundRect*1,1,$1,$2,$3*1,1,$1,$4,$5*1,1,$1,0-$2,0-$3*1,1,$1,0-$4,0-$5*20,1,$1,$2,$3,$4,$5,0*20,1,$1,$4,$5,0-$2,0-$3,0*20,1,$1,0-$2,0-$3,0-$4,0-$5,0*20,1,$1,0-$4,0-$5,$2,$3,0*4,1,4,$2,$3,$4,$5,0-$2,0-$3,0-$4,0-$5,$2,$3,0*%
%ADD10RoundRect,0.09639X-0.82781X-2.2528X-0.82781X2.2528*%
%ADD11RoundRect,0.09694X-2.70233X-1.00733X-2.70233X1.00733*%
%ADD12RoundRect,0.09164X-0.40518X0.45518X0.40518X0.45518*%
%ADD13RoundRect,0.09164X-0.45518X-0.40518X-0.45518X0.40518*%
%ADD14RoundRect,0.09549X-0.86705X-0.74556X-0.86705X0.74556*%
%ADD15RoundRect,0.0967X-0.67833X-0.70833X-0.67833X0.70833*%
%ADD16RoundRect,0.09495X-0.67833X-0.70833X-0.67833X0.70833*%
%ADD17RoundRect,0.09495X-0.70833X0.67833X0.70833X0.67833*%
%ADD18RoundRect,0.09549X-0.74556X0.86705X0.74556X0.86705*%
%ADD19RoundRect,0.09459X-0.6037X-1.7537X-0.6037X1.7537*%
%ADD20C,2.602*%
%ADD21C,1.902*%
%ADD22RoundRect,0.09299X-0.47951X0.57951X0.47951X0.57951*%
%ADD23RoundRect,0.09299X-0.57951X-0.47951X-0.57951X0.47951*%
%ADD24RoundRect,0.09049X-0.63076X0.35575X0.63076X0.35575*%
%ADD25RoundRect,0.10012X-2.79594X-2.66595X-2.79594X2.66595*%
%ADD26RoundRect,0.1001X-2.64095X-3.17595X-2.64095X3.17595*%
%ADD27RoundRect,0.08891X-0.35556X0.60556X0.35556X0.60556*%
%ADD28RoundRect,0.09752X-2.30125X1.90125X2.30125X1.90125*%
%ADD29RoundRect,0.0959X-3.50305X-0.75305X-3.50305X0.75305*%
%ADD30RoundRect,0.0959X-0.80305X0.75305X0.80305X0.75305*%
%ADD31RoundRect,0.09459X-0.6037X0.6037X0.6037X0.6037*%
%ADD32RoundRect,0.09138X-0.40835X0.43712X0.40835X0.43712*%
%ADD33RoundRect,0.09138X-0.43712X-0.40835X-0.43712X0.40835*%
%ADD34RoundRect,0.0959X-0.75305X3.50305X0.75305X3.50305*%
%ADD35C,0.602*%
%ADD36RoundRect,0.07779X-0.36111X-0.13612X-0.36111X0.13612*%
%ADD37RoundRect,0.07779X-0.13612X0.36111X0.13612X0.36111*%
%ADD38RoundRect,0.09699X-1.55151X2.92652X1.55151X2.92652*%
%ADD39RoundRect,0.08495X-0.21152X0.70703X0.21152X0.70703*%
%ADD40RoundRect,0.08495X-0.70703X-0.21152X-0.70703X0.21152*%
%ADD41C,1.702*%
%ADD42RoundRect,0.09623X-0.80288X-0.80288X-0.80288X0.80288*%
%ADD43O,0.732X1.967*%
%ADD44RoundRect,0.08906X-0.85647X-0.30647X-0.85647X0.30647*%
%ADD45RoundRect,0.09508X-1.45346X-0.65346X-1.45346X0.65346*%
%ADD46RoundRect,0.09336X-1.35432X-0.50432X-1.35432X0.50432*%
%ADD47RoundRect,0.09336X-1.10432X-0.50432X-1.10432X0.50432*%
%ADD48RoundRect,0.08906X-0.85647X0.30647X0.85647X0.30647*%
%ADD49RoundRect,0.09654X-0.85273X0.85273X0.85273X0.85273*%
%ADD50C,1.802*%
%ADD51RoundRect,0.09459X-0.6037X0.7037X0.6037X0.7037*%
%ADD52RoundRect,0.08752X-0.50625X-0.30625X-0.50625X0.30625*%
G75*


G04 Pad Start*
G54D10*
G01X6845300Y4668114D03*
G01X6845300Y5568086D03*
G01X5626100Y4668114D03*
G01X5626100Y5568086D03*
G01X5626100Y7307986D03*
G01X5626100Y6408014D03*
G01X6845300Y7307986D03*
G01X6845300Y6408014D03*
G54D11*
G01X4610100Y5363413D03*
G01X4610100Y4847387D03*
G01X3886200Y5363413D03*
G01X3886200Y4847387D03*
G01X3873500Y6599987D03*
G01X3873500Y7116013D03*
G01X4597400Y6599987D03*
G01X4597400Y7116013D03*
G54D12*
G01X4565802Y1993900D03*
G01X4425798Y1993900D03*
G01X4423552Y1513545D03*
G01X4563557Y1513545D03*
G54D13*
G01X4241800Y1682598D03*
G01X4241800Y1822602D03*
G01X5156200Y3651402D03*
G01X5156200Y3511398D03*
G01X5156200Y3956202D03*
G01X5156200Y3816198D03*
G01X5334000Y3803802D03*
G01X5334000Y3663798D03*
G01X7162800Y3727298D03*
G01X7162800Y3867302D03*
G01X7162800Y3422498D03*
G01X7162800Y3562502D03*
G01X6985000Y3574898D03*
G01X6985000Y3714902D03*
G01X3162300Y1517498D03*
G01X3162300Y1657502D03*
G54D14*
G01X3479800Y844042D03*
G01X3479800Y1162558D03*
G54D16*
G01X3987800Y1154100D03*
G01X3987800Y954100D03*
G54D13*
G01X3873500Y463398D03*
G01X3873500Y603402D03*
G01X4203700Y463398D03*
G01X4203700Y603402D03*
G54D12*
G01X5061102Y1663700D03*
G01X4921098Y1663700D03*
G54D17*
G01X3773500Y2616200D03*
G01X3973500Y2616200D03*
G54D16*
G01X3721100Y1154100D03*
G01X3721100Y954100D03*
G54D13*
G01X3149600Y2241398D03*
G01X3149600Y2381402D03*
G54D12*
G01X3537102Y2590800D03*
G01X3397098Y2590800D03*
G01X6877202Y1308100D03*
G01X6737198Y1308100D03*
G01X6877202Y977900D03*
G01X6737198Y977900D03*
G01X6547002Y3987800D03*
G01X6406998Y3987800D03*
G54D13*
G01X5156200Y3283102D03*
G01X5156200Y3143098D03*
G01X5435600Y2520798D03*
G01X5435600Y2660802D03*
G54D12*
G01X5061102Y2806700D03*
G01X4921098Y2806700D03*
G01X4565802Y2705100D03*
G01X4425798Y2705100D03*
G01X5061102Y1841500D03*
G01X4921098Y1841500D03*
G54D13*
G01X5232400Y2000402D03*
G01X5232400Y1860398D03*
G01X5765800Y2660802D03*
G01X5765800Y2520798D03*
G54D12*
G01X6000902Y3467100D03*
G01X5860898Y3467100D03*
G01X5860898Y3797300D03*
G01X6000902Y3797300D03*
G54D13*
G01X5598030Y2215987D03*
G01X5598030Y2355992D03*
G01X6731000Y2203602D03*
G01X6731000Y2063598D03*
G01X6731000Y2381098D03*
G01X6731000Y2521102D03*
G54D18*
G01X1238758Y1384300D03*
G01X920242Y1384300D03*
G54D19*
G01X1079500Y469595D03*
G01X1079500Y1003605D03*
G54D12*
G01X7638898Y1701800D03*
G01X7778902Y1701800D03*
G54D13*
G01X7518400Y1911198D03*
G01X7518400Y2051202D03*
G01X7708900Y400202D03*
G01X7708900Y260198D03*
G54D20*
G01X7915402Y6942099D03*
G01X7915402Y7442098D03*
G54D21*
G01X8915400Y7742098D03*
G01X8915400Y6642100D03*
G54D20*
G01X7915402Y5532399D03*
G01X7915402Y6032398D03*
G54D21*
G01X8915400Y6332398D03*
G01X8915400Y5232400D03*
G54D22*
G01X2650160Y3022600D03*
G01X2988640Y3022600D03*
G54D23*
G01X2451100Y2899740D03*
G01X2451100Y2561260D03*
G54D24*
G01X8723300Y3422904D03*
G01X8723300Y3612896D03*
G01X8523300Y3517900D03*
G01X7786700Y2101596D03*
G01X7786700Y1911604D03*
G01X7986700Y2006600D03*
G54D25*
G01X2513454Y5460200D03*
G54D26*
G01X305940Y5981687D03*
G54D25*
G01X2513454Y6503200D03*
G54D27*
G01X3403600Y6883552D03*
G01X3276600Y6883552D03*
G01X3149600Y6883552D03*
G01X3022600Y6883552D03*
G01X3023108Y7442048D03*
G01X3150108Y7442048D03*
G01X3277108Y7442048D03*
G01X3403092Y7442048D03*
G54D28*
G01X3213100Y7206056D03*
G54D27*
G01X3022600Y5085004D03*
G01X3149600Y5085004D03*
G01X3276600Y5085004D03*
G01X3403600Y5085004D03*
G01X3403092Y4526509D03*
G01X3276092Y4526509D03*
G01X3149092Y4526509D03*
G01X3023108Y4526509D03*
G54D28*
G01X3213100Y4762500D03*
G54D27*
G01X3403600Y6116396D03*
G01X3276600Y6116396D03*
G01X3149600Y6116396D03*
G01X3022600Y6116396D03*
G01X3023108Y6674891D03*
G01X3150108Y6674891D03*
G01X3277108Y6674891D03*
G01X3403092Y6674891D03*
G54D28*
G01X3213100Y6438900D03*
G54D27*
G01X3022600Y5847004D03*
G01X3149600Y5847004D03*
G01X3276600Y5847004D03*
G01X3403600Y5847004D03*
G01X3403092Y5288509D03*
G01X3276092Y5288509D03*
G01X3149092Y5288509D03*
G01X3023108Y5288509D03*
G54D28*
G01X3213100Y5524500D03*
G54D29*
G01X7721600Y4541495D03*
G01X7721600Y4221505D03*
G01X3937000Y4541495D03*
G01X3937000Y4221505D03*
G01X3911600Y7741895D03*
G01X3911600Y7421905D03*
G54D30*
G01X5067300Y1153097D03*
G54D31*
G01X4967300Y828104D03*
G01X5167300Y828104D03*
G54D32*
G01X2983636Y1270000D03*
G01X2832964Y1270000D03*
G01X5066436Y1498600D03*
G01X4915764Y1498600D03*
G54D33*
G01X3543300Y3226664D03*
G01X3543300Y3377336D03*
G01X3695700Y3226664D03*
G01X3695700Y3377336D03*
G01X3848100Y3226664D03*
G01X3848100Y3377336D03*
G01X4000500Y3226664D03*
G01X4000500Y3377336D03*
G54D32*
G01X5091836Y2400300D03*
G01X4941164Y2400300D03*
G54D34*
G01X4249395Y5981700D03*
G01X3929405Y5981700D03*
G54D32*
G01X4420464Y1828800D03*
G01X4571136Y1828800D03*
G01X4420464Y1676400D03*
G01X4571136Y1676400D03*
G01X7328764Y3721100D03*
G01X7479436Y3721100D03*
G01X7328764Y3568700D03*
G01X7479436Y3568700D03*
G01X4990236Y3657600D03*
G01X4839564Y3657600D03*
G01X4990236Y3810000D03*
G01X4839564Y3810000D03*
G01X2983636Y1663700D03*
G01X2832964Y1663700D03*
G01X2983636Y952500D03*
G01X2832964Y952500D03*
G01X2832964Y800100D03*
G01X2983636Y800100D03*
G54D33*
G01X3200400Y2056536D03*
G01X3200400Y1905864D03*
G01X6883400Y811936D03*
G01X6883400Y661264D03*
G01X6731000Y661264D03*
G01X6731000Y811936D03*
G01X4038600Y458064D03*
G01X4038600Y608736D03*
G01X3708400Y458064D03*
G01X3708400Y608736D03*
G54D32*
G01X4571136Y2286000D03*
G01X4420464Y2286000D03*
G01X2845664Y1866900D03*
G01X2996336Y1866900D03*
G01X2782164Y3213100D03*
G01X2932836Y3213100D03*
G01X5993536Y1625600D03*
G01X5842864Y1625600D03*
G01X6882536Y1473200D03*
G01X6731864Y1473200D03*
G01X2983636Y1117600D03*
G01X2832964Y1117600D03*
G01X6882536Y1143000D03*
G01X6731864Y1143000D03*
G01X5993536Y1790700D03*
G01X5842864Y1790700D03*
G01X5842864Y1943100D03*
G01X5993536Y1943100D03*
G01X5855564Y3632200D03*
G01X6006236Y3632200D03*
G01X4915764Y2971800D03*
G01X5066436Y2971800D03*
G01X5066436Y2641600D03*
G01X4915764Y2641600D03*
G01X4915764Y1346200D03*
G01X5066436Y1346200D03*
G01X5066436Y2006600D03*
G01X4915764Y2006600D03*
G01X6882536Y2679700D03*
G01X6731864Y2679700D03*
G54D33*
G01X5598030Y2515453D03*
G01X5598030Y2666126D03*
G54D32*
G01X7785964Y558800D03*
G01X7936636Y558800D03*
G01X7481164Y558800D03*
G01X7631836Y558800D03*
G54D33*
G01X7772400Y2490064D03*
G01X7772400Y2640736D03*
G01X7924800Y2490064D03*
G01X7924800Y2640736D03*
G54D35*
G01X4786878Y1421239D03*
G01X4940300Y2501900D03*
G01X2982700Y673539D03*
G01X4800600Y2006600D03*
G01X3543300Y3086100D03*
G01X3695700Y3086100D03*
G01X3848100Y3086100D03*
G01X4000500Y3086100D03*
G01X4114800Y1155700D03*
G01X4800600Y2806700D03*
G01X4241800Y1943100D03*
G01X4241800Y1562100D03*
G01X3060694Y3213249D03*
G01X3693155Y1423425D03*
G01X3771900Y1422400D03*
G01X3860800Y1371600D03*
G54D21*
G01X8915400Y3814902D03*
G01X8915400Y4914900D03*
G54D20*
G01X8415401Y4614901D03*
G01X8415401Y4114902D03*
G54D36*
G01X3948405Y1580007D03*
G01X3948405Y1630020D03*
G01X3948405Y1680007D03*
G01X3948405Y1730019D03*
G01X3948405Y1780007D03*
G01X3948405Y1829994D03*
G01X3948405Y1880006D03*
G01X3948405Y1930019D03*
G01X3948405Y1980006D03*
G01X3948405Y2030019D03*
G01X3948405Y2080006D03*
G01X3948405Y2130019D03*
G01X3948405Y2180006D03*
G01X3948405Y2230018D03*
G01X3468395Y2230018D03*
G01X3468395Y2180006D03*
G01X3468395Y2130019D03*
G01X3468395Y2055012D03*
G01X3468395Y2005000D03*
G01X3468395Y1955013D03*
G01X3468395Y1905000D03*
G01X3468395Y1829994D03*
G01X3468395Y1755013D03*
G01X3468395Y1705000D03*
G01X3468395Y1630020D03*
G01X3468395Y1580007D03*
G54D37*
G01X3883406Y1515008D03*
G01X3833393Y1515008D03*
G01X3783406Y1515008D03*
G01X3733394Y1515008D03*
G01X3683406Y1515008D03*
G01X3633394Y1515008D03*
G01X3533394Y1515008D03*
G01X3533394Y2295017D03*
G01X3583407Y2295017D03*
G01X3633394Y2295017D03*
G01X3733394Y2295017D03*
G01X3783406Y2295017D03*
G01X3833393Y2295017D03*
G01X3883406Y2295017D03*
G54D38*
G01X3708400Y1905000D03*
G54D33*
G01X4203700Y2589936D03*
G01X4203700Y2439264D03*
G54D39*
G01X5647411Y3443097D03*
G01X5582412Y3443097D03*
G01X5517388Y3443097D03*
G01X5452389Y3443097D03*
G01X5452389Y2983103D03*
G01X5517388Y2983103D03*
G01X5582412Y2983103D03*
G01X5647411Y2983103D03*
G54D40*
G01X6732397Y3534689D03*
G01X6732397Y3599688D03*
G01X6732397Y3664712D03*
G01X6732397Y3729711D03*
G01X6272403Y3729711D03*
G01X6272403Y3664712D03*
G01X6272403Y3599688D03*
G01X6272403Y3534689D03*
G54D41*
G01X8242300Y3149600D03*
G01X8496300Y3149600D03*
G01X8242300Y2895600D03*
G01X8496300Y2895600D03*
G01X8242300Y2641600D03*
G01X8496300Y2641600D03*
G01X8242300Y2387600D03*
G01X8496300Y2387600D03*
G01X8242300Y2133600D03*
G01X8496300Y2133600D03*
G01X8242300Y1879600D03*
G01X8496300Y1879600D03*
G01X8242300Y1625600D03*
G01X8496300Y1625600D03*
G01X8242300Y1371600D03*
G01X8496300Y1371600D03*
G01X8242300Y1117600D03*
G01X8496300Y1117600D03*
G01X8242300Y863600D03*
G01X8496300Y863600D03*
G01X8242300Y609600D03*
G01X8496300Y609600D03*
G01X8242300Y355600D03*
G54D42*
G01X8496300Y355600D03*
G54D41*
G01X6210300Y3149600D03*
G01X6464300Y3149600D03*
G01X6210300Y2895600D03*
G01X6464300Y2895600D03*
G01X6210300Y2641600D03*
G01X6464300Y2641600D03*
G01X6210300Y2387600D03*
G01X6464300Y2387600D03*
G01X6210300Y2133600D03*
G01X6464300Y2133600D03*
G01X6210300Y1879600D03*
G01X6464300Y1879600D03*
G01X6210300Y1625600D03*
G01X6464300Y1625600D03*
G01X6210300Y1371600D03*
G01X6464300Y1371600D03*
G01X6210300Y1117600D03*
G01X6464300Y1117600D03*
G01X6210300Y863600D03*
G01X6464300Y863600D03*
G01X6210300Y609600D03*
G01X6464300Y609600D03*
G01X6210300Y355600D03*
G54D42*
G01X6464300Y355600D03*
G54D43*
G01X7899400Y1411249D03*
G01X7772400Y1411249D03*
G01X7645400Y1411249D03*
G01X7518400Y1411249D03*
G01X7899400Y874751D03*
G01X7772400Y874751D03*
G01X7645400Y874751D03*
G01X7518400Y874751D03*
G54D44*
G01X8780805Y1169391D03*
G01X8780805Y1294409D03*
G54D45*
G01X9100795Y1479398D03*
G01X9100795Y984402D03*
G54D44*
G01X8780805Y445491D03*
G01X8780805Y570509D03*
G54D45*
G01X9100795Y755498D03*
G01X9100795Y260502D03*
G54D46*
G01X9113457Y1697634D03*
G01X9113457Y2442566D03*
G54D44*
G01X8793544Y2257552D03*
G01X8793544Y2132559D03*
G01X8793544Y2007540D03*
G01X8793544Y1882546D03*
G54D47*
G01X9138907Y2636393D03*
G01X9138892Y3256407D03*
G54D48*
G01X8768093Y3071406D03*
G01X8768093Y2946387D03*
G01X8768093Y2821394D03*
G54D49*
G01X825500Y3606800D03*
G54D50*
G01X1079500Y3606800D03*
G01X1333500Y3606800D03*
G54D49*
G01X825500Y1828800D03*
G54D50*
G01X1079500Y1828800D03*
G01X1333500Y1828800D03*
G54D51*
G01X2652801Y2517501D03*
G01X2992806Y2517501D03*
G01X2652801Y2780200D03*
G01X2992806Y2780200D03*
G54D13*
G01X2679700Y1873098D03*
G01X2679700Y2013102D03*
G01X4737100Y2292198D03*
G01X4737100Y2432202D03*
G54D32*
G01X4571136Y2438400D03*
G01X4420464Y2438400D03*
G01X2845664Y2019300D03*
G01X2996336Y2019300D03*
G54D12*
G01X6899606Y3243689D03*
G01X6759602Y3243689D03*
G54D32*
G01X4941164Y2247900D03*
G01X5091836Y2247900D03*
G54D52*
G01X6952311Y3059285D03*
G01X6952311Y2869293D03*
G01X6732297Y3059285D03*
G01X6732297Y2869293D03*
G01X6732297Y2964289D03*
G04 Pad End*

M02*

