G04 Layer: InnerLayer4*
G04 EasyEDA Pro v2.2.39.2, 2025-06-05 07:27:08*
G04 Gerber Generator version 0.3*
G04 Scale: 100 percent, Rotated: No, Reflected: No*
G04 Dimensions in millimeters*
G04 Leading zeros omitted, absolute positions, 4 integers and 5 decimals*
G04 Generated by one-click*
%FSLAX45Y45*%
%MOMM*%
%ADD10C,0.2032*%
%ADD11C,0.254*%
%ADD12C,1.016*%
%ADD13C,2.49999*%
%ADD14C,1.8*%
%ADD15C,1.6021*%
%ADD16C,1.6*%
%ADD17R,1.6X1.6*%
%ADD18R,1.7X1.7*%
%ADD19C,1.7*%
%ADD20C,0.61*%
%ADD21C,0.7366*%
%ADD22C,0.6096*%
%ADD23C,0.762*%
%ADD24C,0.508*%
G75*


G04 Copper Start*
G36*
G01X3815185Y6723485D02*
G01X3807460Y6731210D01*
G01X3807460Y6974840D01*
G01X4879340Y6974840D01*
G01X4879340Y6715760D01*
G01X3821726Y6715760D01*
G01X3815185Y6723485D01*
G37*
G36*
G01X3833114Y5001260D02*
G01X3833114Y5260340D01*
G01X4892040Y5260340D01*
G01X4892040Y5001260D01*
G01X3833114Y5001260D01*
G37*
G36*
G01X5407660Y6195060D02*
G01X5407660Y6631940D01*
G01X5844540Y6631940D01*
G01X5844540Y6195060D01*
G01X5407660Y6195060D01*
G37*
G36*
G01X6626860Y6189574D02*
G01X6626860Y6626454D01*
G01X7063740Y6626454D01*
G01X7063740Y6189574D01*
G01X6626860Y6189574D01*
G37*
G36*
G01X5407660Y5349646D02*
G01X5407660Y5786526D01*
G01X5844540Y5786526D01*
G01X5844540Y5349646D01*
G01X5407660Y5349646D01*
G37*
G36*
G01X6626860Y5349646D02*
G01X6626860Y5786526D01*
G01X7063740Y5786526D01*
G01X7063740Y5349646D01*
G01X6626860Y5349646D01*
G37*
G36*
G01X2783840Y7020814D02*
G01X2245360Y7020814D01*
G01X2245360Y7559040D01*
G01X2783840Y7559040D01*
G01X2783840Y7020814D01*
G37*
G36*
G01X3520440Y7020560D02*
G01X2798258Y7020560D01*
G01X2794000Y7020814D01*
G01X2235200Y7020814D01*
G01X2230942Y7020560D01*
G01X35814Y7020560D01*
G01X35814Y7874000D01*
G01X37566Y7891790D01*
G01X42755Y7908895D01*
G01X51182Y7924660D01*
G01X62522Y7938478D01*
G01X76340Y7949818D01*
G01X92105Y7958245D01*
G01X109210Y7963434D01*
G01X127000Y7965186D01*
G01X3520440Y7965186D01*
G01X3520440Y7020560D01*
G37*
G36*
G01X2245360Y6004560D02*
G01X2245360Y6974840D01*
G01X2783840Y6974840D01*
G01X2783840Y6004560D01*
G01X2245360Y6004560D01*
G37*
G36*
G01X2245093Y5013960D02*
G01X2245093Y5958825D01*
G01X2783840Y5958825D01*
G01X2783840Y5013960D01*
G01X2245093Y5013960D01*
G37*
G36*
G01X2245360Y4404360D02*
G01X2245360Y4955540D01*
G01X2783840Y4955540D01*
G01X2783840Y4404360D01*
G01X2245360Y4404360D01*
G37*
G36*
G01X41910Y6004560D02*
G01X41910Y6974586D01*
G01X3488690Y6974586D01*
G01X3488690Y6944766D01*
G01X3484434Y6944766D01*
G01X3468779Y6949131D01*
G01X3452533Y6949557D01*
G01X3436670Y6946019D01*
G01X3422145Y6938728D01*
G01X3409830Y6928124D01*
G01X3400463Y6914843D01*
G01X3394608Y6899682D01*
G01X3392617Y6883552D01*
G01X3394608Y6867423D01*
G01X3400463Y6852262D01*
G01X3409830Y6838981D01*
G01X3422145Y6828376D01*
G01X3436670Y6821086D01*
G01X3452533Y6817548D01*
G01X3468779Y6817974D01*
G01X3484434Y6822338D01*
G01X3488690Y6822338D01*
G01X3488690Y6177610D01*
G01X3484773Y6177610D01*
G01X3469118Y6181975D01*
G01X3452872Y6182401D01*
G01X3437010Y6178862D01*
G01X3422484Y6171572D01*
G01X3410169Y6160968D01*
G01X3400802Y6147686D01*
G01X3394947Y6132526D01*
G01X3392956Y6116396D01*
G01X3394947Y6100267D01*
G01X3400802Y6085106D01*
G01X3410169Y6071825D01*
G01X3422484Y6061220D01*
G01X3437010Y6053930D01*
G01X3452872Y6050392D01*
G01X3469118Y6050817D01*
G01X3484773Y6055182D01*
G01X3488690Y6055182D01*
G01X3488690Y6004560D01*
G01X41910Y6004560D01*
G37*
G36*
G01X35814Y5007616D02*
G01X35814Y5958586D01*
G01X3479241Y5958586D01*
G01X3479241Y5825798D01*
G01X3467100Y5827014D01*
G01X3149556Y5827014D01*
G01X3078585Y5897985D01*
G01X3069309Y5905598D01*
G01X3058726Y5911254D01*
G01X3047242Y5914738D01*
G01X3035300Y5915914D01*
G01X2997303Y5915914D01*
G01X2981648Y5920279D01*
G01X2965402Y5920705D01*
G01X2949540Y5917166D01*
G01X2935014Y5909876D01*
G01X2922699Y5899272D01*
G01X2913332Y5885990D01*
G01X2907477Y5870830D01*
G01X2905486Y5854700D01*
G01X2907477Y5838570D01*
G01X2913332Y5823410D01*
G01X2922699Y5810128D01*
G01X2935014Y5799524D01*
G01X2949540Y5792234D01*
G01X2965402Y5788695D01*
G01X2981648Y5789121D01*
G01X2997303Y5793486D01*
G01X3009944Y5793486D01*
G01X3080915Y5722515D01*
G01X3090191Y5714902D01*
G01X3100774Y5709246D01*
G01X3112258Y5705762D01*
G01X3124200Y5704586D01*
G01X3441744Y5704586D01*
G01X3479241Y5667089D01*
G01X3479241Y5038398D01*
G01X3467100Y5039614D01*
G01X3098756Y5039614D01*
G01X3023782Y5114587D01*
G01X3014833Y5128100D01*
G01X3002873Y5139039D01*
G01X2988617Y5146750D01*
G01X2972916Y5150772D01*
G01X2956708Y5150865D01*
G01X2940962Y5147024D01*
G01X2926617Y5139477D01*
G01X2914532Y5128677D01*
G01X2905428Y5115267D01*
G01X2899849Y5100050D01*
G01X2898128Y5083933D01*
G01X2900368Y5067881D01*
G01X2906435Y5052851D01*
G01X2915967Y5039742D01*
G01X2928394Y5029337D01*
G01X2942974Y5022257D01*
G01X2957614Y5007616D01*
G01X35814Y5007616D01*
G37*
G36*
G01X3482086Y4876844D02*
G01X3482086Y4137660D01*
G01X35814Y4137660D01*
G01X35814Y4955540D01*
G01X3009690Y4955540D01*
G01X3030115Y4935115D01*
G01X3039391Y4927502D01*
G01X3049974Y4921846D01*
G01X3061458Y4918362D01*
G01X3073400Y4917186D01*
G01X3441744Y4917186D01*
G01X3482086Y4876844D01*
G37*
G36*
G01X7649195Y3158505D02*
G01X7641486Y3148457D01*
G01X7636639Y3136756D01*
G01X7634986Y3124200D01*
G01X7634986Y1721895D01*
G01X7516064Y1602973D01*
G01X7500191Y1600465D01*
G01X7485388Y1594213D01*
G01X7472523Y1584583D01*
G01X7462352Y1572142D01*
G01X7455472Y1557620D01*
G01X7452288Y1541869D01*
G01X7452986Y1525814D01*
G01X7457525Y1510399D01*
G01X7465638Y1496528D01*
G01X7476851Y1485016D01*
G01X7490503Y1476539D01*
G01X7505793Y1471595D01*
G01X7521823Y1470474D01*
G01X7537653Y1473242D01*
G01X7552352Y1479736D01*
G01X7565057Y1489576D01*
G01X7575022Y1502182D01*
G01X7581663Y1516816D01*
G01X7587685Y1502464D01*
G01X7596886Y1489912D01*
G01X7596886Y1371600D01*
G01X7598539Y1359044D01*
G01X7603386Y1347343D01*
G01X7611095Y1337295D01*
G01X7661895Y1286495D01*
G01X7671943Y1278786D01*
G01X7683644Y1273939D01*
G01X7696200Y1272286D01*
G01X7993605Y1272286D01*
G01X8003286Y1262605D01*
G01X8003286Y546100D01*
G01X8004939Y533544D01*
G01X8009786Y521843D01*
G01X8017495Y511795D01*
G01X8133634Y395657D01*
G01X8128537Y377300D01*
G01X8126519Y358356D01*
G01X8127634Y339337D01*
G01X8131851Y320759D01*
G01X8139058Y303123D01*
G01X8149058Y286907D01*
G01X8161581Y272550D01*
G01X8051844Y162814D01*
G01X7302640Y162814D01*
G01X7302640Y3272065D01*
G01X7762755Y3272065D01*
G01X7649195Y3158505D01*
G37*
G36*
G01X7782814Y2656351D02*
G01X7797682Y2651545D01*
G01X7813261Y2650352D01*
G01X7828687Y2652837D01*
G01X7843104Y2658863D01*
G01X7855710Y2668095D01*
G01X7880903Y2668095D01*
G01X7894043Y2659050D01*
G01X7908963Y2653405D01*
G01X7924800Y2651486D01*
G01X7940637Y2653405D01*
G01X7955557Y2659050D01*
G01X7968697Y2668095D01*
G01X7969396Y2668095D01*
G01X8003286Y2634205D01*
G01X8003286Y1378995D01*
G01X7993605Y1369314D01*
G01X7716295Y1369314D01*
G01X7693914Y1391695D01*
G01X7693914Y1489912D01*
G01X7702709Y1501756D01*
G01X7708668Y1515253D01*
G01X7711495Y1529732D01*
G01X7711051Y1544479D01*
G01X7707357Y1558762D01*
G01X7700597Y1571875D01*
G01X7691105Y1583169D01*
G01X7679351Y1592085D01*
G01X7665917Y1598182D01*
G01X7651467Y1601158D01*
G01X7708900Y1658591D01*
G01X7833127Y1534364D01*
G01X7835441Y1519182D01*
G01X7841186Y1504941D01*
G01X7850052Y1492402D01*
G01X7861564Y1482239D01*
G01X7875106Y1474996D01*
G01X7889950Y1471063D01*
G01X7905301Y1470649D01*
G01X7920336Y1473778D01*
G01X7934248Y1480280D01*
G01X7946291Y1489809D01*
G01X7955820Y1501852D01*
G01X7962322Y1515764D01*
G01X7965451Y1530799D01*
G01X7965037Y1546150D01*
G01X7961104Y1560994D01*
G01X7953861Y1574536D01*
G01X7943698Y1586048D01*
G01X7931159Y1594914D01*
G01X7916918Y1600659D01*
G01X7901736Y1602973D01*
G01X7782814Y1721895D01*
G01X7782814Y2656351D01*
G37*
G36*
G01X8712244Y3736086D02*
G01X8930386Y3517944D01*
G01X8930386Y2133556D01*
G01X8864748Y2067918D01*
G01X8851110Y2060313D01*
G01X8839627Y2049730D01*
G01X8830938Y2036754D01*
G01X8825525Y2022107D01*
G01X8823686Y2006600D01*
G01X8825525Y1991093D01*
G01X8830938Y1976446D01*
G01X8839627Y1963470D01*
G01X8851110Y1952887D01*
G01X8864748Y1945282D01*
G01X8930386Y1879644D01*
G01X8930386Y533356D01*
G01X8813844Y416814D01*
G01X8612114Y416814D01*
G01X8612114Y435600D01*
G01X8610361Y446667D01*
G01X8605274Y456651D01*
G01X8597351Y464574D01*
G01X8587367Y469661D01*
G01X8576300Y471414D01*
G01X8416300Y471414D01*
G01X8405233Y469661D01*
G01X8395249Y464574D01*
G01X8387326Y456651D01*
G01X8382239Y446667D01*
G01X8380486Y435600D01*
G01X8380486Y416814D01*
G01X8340614Y416814D01*
G01X8328773Y432641D01*
G01X8314412Y446224D01*
G01X8297951Y457167D01*
G01X8279869Y465151D01*
G01X8260692Y469944D01*
G01X8240980Y471406D01*
G01X8221306Y469495D01*
G01X8202243Y464266D01*
G01X8100314Y566195D01*
G01X8100314Y620286D01*
G01X8126980Y620286D01*
G01X8126980Y598914D01*
G01X8130907Y577906D01*
G01X8138628Y557977D01*
G01X8149879Y539807D01*
G01X8164277Y524013D01*
G01X8181332Y511133D01*
G01X8200463Y501607D01*
G01X8221019Y495758D01*
G01X8242300Y493786D01*
G01X8242300Y493786D01*
G01X8263581Y495758D01*
G01X8284137Y501607D01*
G01X8303268Y511133D01*
G01X8320323Y524013D01*
G01X8334721Y539807D01*
G01X8345972Y557977D01*
G01X8353693Y577906D01*
G01X8357620Y598914D01*
G01X8357620Y620286D01*
G01X8357620Y620286D01*
G01X8380980Y620286D01*
G01X8380980Y598914D01*
G01X8384907Y577906D01*
G01X8392628Y557977D01*
G01X8403879Y539807D01*
G01X8418277Y524013D01*
G01X8435332Y511133D01*
G01X8454463Y501607D01*
G01X8475019Y495758D01*
G01X8496300Y493786D01*
G01X8496300Y493786D01*
G01X8517581Y495758D01*
G01X8538137Y501607D01*
G01X8557268Y511133D01*
G01X8574323Y524013D01*
G01X8588721Y539807D01*
G01X8599972Y557977D01*
G01X8607693Y577906D01*
G01X8611620Y598914D01*
G01X8611620Y620286D01*
G01X8607693Y641294D01*
G01X8599972Y661223D01*
G01X8588721Y679393D01*
G01X8574323Y695187D01*
G01X8557268Y708067D01*
G01X8538137Y717593D01*
G01X8517581Y723442D01*
G01X8496300Y725414D01*
G01X8475019Y723442D01*
G01X8454463Y717593D01*
G01X8435332Y708067D01*
G01X8418277Y695187D01*
G01X8403879Y679393D01*
G01X8392628Y661223D01*
G01X8384907Y641294D01*
G01X8380980Y620286D01*
G01X8357620Y620286D01*
G01X8353693Y641294D01*
G01X8345972Y661223D01*
G01X8334721Y679393D01*
G01X8320323Y695187D01*
G01X8303268Y708067D01*
G01X8284137Y717593D01*
G01X8263581Y723442D01*
G01X8242300Y725414D01*
G01X8221019Y723442D01*
G01X8200463Y717593D01*
G01X8181332Y708067D01*
G01X8164277Y695187D01*
G01X8149879Y679393D01*
G01X8138628Y661223D01*
G01X8130907Y641294D01*
G01X8126980Y620286D01*
G01X8100314Y620286D01*
G01X8100314Y874286D01*
G01X8126980Y874286D01*
G01X8126980Y852914D01*
G01X8130907Y831906D01*
G01X8138628Y811977D01*
G01X8149879Y793807D01*
G01X8164277Y778013D01*
G01X8181332Y765133D01*
G01X8200463Y755607D01*
G01X8221019Y749758D01*
G01X8242300Y747786D01*
G01X8242300Y747786D01*
G01X8263581Y749758D01*
G01X8284137Y755607D01*
G01X8303268Y765133D01*
G01X8320323Y778013D01*
G01X8334721Y793807D01*
G01X8345972Y811977D01*
G01X8353693Y831906D01*
G01X8357620Y852914D01*
G01X8357620Y874286D01*
G01X8357620Y874286D01*
G01X8380980Y874286D01*
G01X8380980Y852914D01*
G01X8384907Y831906D01*
G01X8392628Y811977D01*
G01X8403879Y793807D01*
G01X8418277Y778013D01*
G01X8435332Y765133D01*
G01X8454463Y755607D01*
G01X8475019Y749758D01*
G01X8496300Y747786D01*
G01X8496300Y747786D01*
G01X8517581Y749758D01*
G01X8538137Y755607D01*
G01X8557268Y765133D01*
G01X8574323Y778013D01*
G01X8588721Y793807D01*
G01X8599972Y811977D01*
G01X8607693Y831906D01*
G01X8611620Y852914D01*
G01X8611620Y874286D01*
G01X8607693Y895294D01*
G01X8599972Y915223D01*
G01X8588721Y933393D01*
G01X8574323Y949187D01*
G01X8557268Y962067D01*
G01X8538137Y971593D01*
G01X8517581Y977442D01*
G01X8496300Y979414D01*
G01X8475019Y977442D01*
G01X8454463Y971593D01*
G01X8435332Y962067D01*
G01X8418277Y949187D01*
G01X8403879Y933393D01*
G01X8392628Y915223D01*
G01X8384907Y895294D01*
G01X8380980Y874286D01*
G01X8357620Y874286D01*
G01X8353693Y895294D01*
G01X8345972Y915223D01*
G01X8334721Y933393D01*
G01X8320323Y949187D01*
G01X8303268Y962067D01*
G01X8284137Y971593D01*
G01X8263581Y977442D01*
G01X8242300Y979414D01*
G01X8221019Y977442D01*
G01X8200463Y971593D01*
G01X8181332Y962067D01*
G01X8164277Y949187D01*
G01X8149879Y933393D01*
G01X8138628Y915223D01*
G01X8130907Y895294D01*
G01X8126980Y874286D01*
G01X8100314Y874286D01*
G01X8100314Y1128286D01*
G01X8126980Y1128286D01*
G01X8126980Y1106914D01*
G01X8130907Y1085906D01*
G01X8138628Y1065977D01*
G01X8149879Y1047807D01*
G01X8164277Y1032013D01*
G01X8181332Y1019133D01*
G01X8200463Y1009607D01*
G01X8221019Y1003758D01*
G01X8242300Y1001786D01*
G01X8242300Y1001786D01*
G01X8263581Y1003758D01*
G01X8284137Y1009607D01*
G01X8303268Y1019133D01*
G01X8320323Y1032013D01*
G01X8334721Y1047807D01*
G01X8345972Y1065977D01*
G01X8353693Y1085906D01*
G01X8357620Y1106914D01*
G01X8357620Y1128286D01*
G01X8357620Y1128286D01*
G01X8380980Y1128286D01*
G01X8380980Y1106914D01*
G01X8384907Y1085906D01*
G01X8392628Y1065977D01*
G01X8403879Y1047807D01*
G01X8418277Y1032013D01*
G01X8435332Y1019133D01*
G01X8454463Y1009607D01*
G01X8475019Y1003758D01*
G01X8496300Y1001786D01*
G01X8496300Y1001786D01*
G01X8517581Y1003758D01*
G01X8538137Y1009607D01*
G01X8557268Y1019133D01*
G01X8574323Y1032013D01*
G01X8588721Y1047807D01*
G01X8599972Y1065977D01*
G01X8607693Y1085906D01*
G01X8611620Y1106914D01*
G01X8611620Y1128286D01*
G01X8607693Y1149294D01*
G01X8599972Y1169223D01*
G01X8588721Y1187393D01*
G01X8574323Y1203187D01*
G01X8557268Y1216067D01*
G01X8538137Y1225593D01*
G01X8517581Y1231442D01*
G01X8496300Y1233414D01*
G01X8475019Y1231442D01*
G01X8454463Y1225593D01*
G01X8435332Y1216067D01*
G01X8418277Y1203187D01*
G01X8403879Y1187393D01*
G01X8392628Y1169223D01*
G01X8384907Y1149294D01*
G01X8380980Y1128286D01*
G01X8357620Y1128286D01*
G01X8353693Y1149294D01*
G01X8345972Y1169223D01*
G01X8334721Y1187393D01*
G01X8320323Y1203187D01*
G01X8303268Y1216067D01*
G01X8284137Y1225593D01*
G01X8263581Y1231442D01*
G01X8242300Y1233414D01*
G01X8221019Y1231442D01*
G01X8200463Y1225593D01*
G01X8181332Y1216067D01*
G01X8164277Y1203187D01*
G01X8149879Y1187393D01*
G01X8138628Y1169223D01*
G01X8130907Y1149294D01*
G01X8126980Y1128286D01*
G01X8100314Y1128286D01*
G01X8100314Y1282700D01*
G01X8098661Y1295256D01*
G01X8093814Y1306957D01*
G01X8086105Y1317005D01*
G01X8082309Y1320800D01*
G01X8086105Y1324595D01*
G01X8093814Y1334643D01*
G01X8098661Y1346344D01*
G01X8100314Y1358900D01*
G01X8100314Y1382286D01*
G01X8126980Y1382286D01*
G01X8126980Y1360914D01*
G01X8130907Y1339906D01*
G01X8138628Y1319977D01*
G01X8149879Y1301807D01*
G01X8164277Y1286013D01*
G01X8181332Y1273133D01*
G01X8200463Y1263607D01*
G01X8221019Y1257758D01*
G01X8242300Y1255786D01*
G01X8242300Y1255786D01*
G01X8263581Y1257758D01*
G01X8284137Y1263607D01*
G01X8303268Y1273133D01*
G01X8320323Y1286013D01*
G01X8334721Y1301807D01*
G01X8345972Y1319977D01*
G01X8353693Y1339906D01*
G01X8357620Y1360914D01*
G01X8357620Y1382286D01*
G01X8357620Y1382286D01*
G01X8380980Y1382286D01*
G01X8380980Y1360914D01*
G01X8384907Y1339906D01*
G01X8392628Y1319977D01*
G01X8403879Y1301807D01*
G01X8418277Y1286013D01*
G01X8435332Y1273133D01*
G01X8454463Y1263607D01*
G01X8475019Y1257758D01*
G01X8496300Y1255786D01*
G01X8496300Y1255786D01*
G01X8517581Y1257758D01*
G01X8538137Y1263607D01*
G01X8557268Y1273133D01*
G01X8574323Y1286013D01*
G01X8588721Y1301807D01*
G01X8599972Y1319977D01*
G01X8607693Y1339906D01*
G01X8611620Y1360914D01*
G01X8611620Y1382286D01*
G01X8607693Y1403294D01*
G01X8599972Y1423223D01*
G01X8588721Y1441393D01*
G01X8574323Y1457187D01*
G01X8557268Y1470067D01*
G01X8538137Y1479593D01*
G01X8517581Y1485442D01*
G01X8496300Y1487414D01*
G01X8475019Y1485442D01*
G01X8454463Y1479593D01*
G01X8435332Y1470067D01*
G01X8418277Y1457187D01*
G01X8403879Y1441393D01*
G01X8392628Y1423223D01*
G01X8384907Y1403294D01*
G01X8380980Y1382286D01*
G01X8357620Y1382286D01*
G01X8353693Y1403294D01*
G01X8345972Y1423223D01*
G01X8334721Y1441393D01*
G01X8320323Y1457187D01*
G01X8303268Y1470067D01*
G01X8284137Y1479593D01*
G01X8263581Y1485442D01*
G01X8242300Y1487414D01*
G01X8221019Y1485442D01*
G01X8200463Y1479593D01*
G01X8181332Y1470067D01*
G01X8164277Y1457187D01*
G01X8149879Y1441393D01*
G01X8138628Y1423223D01*
G01X8130907Y1403294D01*
G01X8126980Y1382286D01*
G01X8100314Y1382286D01*
G01X8100314Y1636286D01*
G01X8126980Y1636286D01*
G01X8126980Y1614914D01*
G01X8130907Y1593906D01*
G01X8138628Y1573977D01*
G01X8149879Y1555807D01*
G01X8164277Y1540013D01*
G01X8181332Y1527133D01*
G01X8200463Y1517607D01*
G01X8221019Y1511758D01*
G01X8242300Y1509786D01*
G01X8242300Y1509786D01*
G01X8263581Y1511758D01*
G01X8284137Y1517607D01*
G01X8303268Y1527133D01*
G01X8320323Y1540013D01*
G01X8334721Y1555807D01*
G01X8345972Y1573977D01*
G01X8353693Y1593906D01*
G01X8357620Y1614914D01*
G01X8357620Y1636286D01*
G01X8357620Y1636286D01*
G01X8380980Y1636286D01*
G01X8380980Y1614914D01*
G01X8384907Y1593906D01*
G01X8392628Y1573977D01*
G01X8403879Y1555807D01*
G01X8418277Y1540013D01*
G01X8435332Y1527133D01*
G01X8454463Y1517607D01*
G01X8475019Y1511758D01*
G01X8496300Y1509786D01*
G01X8496300Y1509786D01*
G01X8517581Y1511758D01*
G01X8538137Y1517607D01*
G01X8557268Y1527133D01*
G01X8574323Y1540013D01*
G01X8588721Y1555807D01*
G01X8599972Y1573977D01*
G01X8607693Y1593906D01*
G01X8611620Y1614914D01*
G01X8611620Y1636286D01*
G01X8607693Y1657294D01*
G01X8599972Y1677223D01*
G01X8588721Y1695393D01*
G01X8574323Y1711187D01*
G01X8557268Y1724067D01*
G01X8538137Y1733593D01*
G01X8517581Y1739442D01*
G01X8496300Y1741414D01*
G01X8475019Y1739442D01*
G01X8454463Y1733593D01*
G01X8435332Y1724067D01*
G01X8418277Y1711187D01*
G01X8403879Y1695393D01*
G01X8392628Y1677223D01*
G01X8384907Y1657294D01*
G01X8380980Y1636286D01*
G01X8357620Y1636286D01*
G01X8353693Y1657294D01*
G01X8345972Y1677223D01*
G01X8334721Y1695393D01*
G01X8320323Y1711187D01*
G01X8303268Y1724067D01*
G01X8284137Y1733593D01*
G01X8263581Y1739442D01*
G01X8242300Y1741414D01*
G01X8221019Y1739442D01*
G01X8200463Y1733593D01*
G01X8181332Y1724067D01*
G01X8164277Y1711187D01*
G01X8149879Y1695393D01*
G01X8138628Y1677223D01*
G01X8130907Y1657294D01*
G01X8126980Y1636286D01*
G01X8100314Y1636286D01*
G01X8100314Y1890286D01*
G01X8126980Y1890286D01*
G01X8126980Y1868914D01*
G01X8130907Y1847906D01*
G01X8138628Y1827977D01*
G01X8149879Y1809807D01*
G01X8164277Y1794013D01*
G01X8181332Y1781133D01*
G01X8200463Y1771607D01*
G01X8221019Y1765758D01*
G01X8242300Y1763786D01*
G01X8242300Y1763786D01*
G01X8263581Y1765758D01*
G01X8284137Y1771607D01*
G01X8303268Y1781133D01*
G01X8320323Y1794013D01*
G01X8334721Y1809807D01*
G01X8345972Y1827977D01*
G01X8353693Y1847906D01*
G01X8357620Y1868914D01*
G01X8357620Y1890286D01*
G01X8357620Y1890286D01*
G01X8380980Y1890286D01*
G01X8380980Y1868914D01*
G01X8384907Y1847906D01*
G01X8392628Y1827977D01*
G01X8403879Y1809807D01*
G01X8418277Y1794013D01*
G01X8435332Y1781133D01*
G01X8454463Y1771607D01*
G01X8475019Y1765758D01*
G01X8496300Y1763786D01*
G01X8496300Y1763786D01*
G01X8517581Y1765758D01*
G01X8538137Y1771607D01*
G01X8557268Y1781133D01*
G01X8574323Y1794013D01*
G01X8588721Y1809807D01*
G01X8599972Y1827977D01*
G01X8607693Y1847906D01*
G01X8611620Y1868914D01*
G01X8611620Y1890286D01*
G01X8607693Y1911294D01*
G01X8599972Y1931223D01*
G01X8588721Y1949393D01*
G01X8574323Y1965187D01*
G01X8557268Y1978067D01*
G01X8538137Y1987593D01*
G01X8517581Y1993442D01*
G01X8496300Y1995414D01*
G01X8475019Y1993442D01*
G01X8454463Y1987593D01*
G01X8435332Y1978067D01*
G01X8418277Y1965187D01*
G01X8403879Y1949393D01*
G01X8392628Y1931223D01*
G01X8384907Y1911294D01*
G01X8380980Y1890286D01*
G01X8357620Y1890286D01*
G01X8353693Y1911294D01*
G01X8345972Y1931223D01*
G01X8334721Y1949393D01*
G01X8320323Y1965187D01*
G01X8303268Y1978067D01*
G01X8284137Y1987593D01*
G01X8263581Y1993442D01*
G01X8242300Y1995414D01*
G01X8221019Y1993442D01*
G01X8200463Y1987593D01*
G01X8181332Y1978067D01*
G01X8164277Y1965187D01*
G01X8149879Y1949393D01*
G01X8138628Y1931223D01*
G01X8130907Y1911294D01*
G01X8126980Y1890286D01*
G01X8100314Y1890286D01*
G01X8100314Y2144286D01*
G01X8126980Y2144286D01*
G01X8126980Y2122914D01*
G01X8130907Y2101906D01*
G01X8138628Y2081977D01*
G01X8149879Y2063807D01*
G01X8164277Y2048013D01*
G01X8181332Y2035133D01*
G01X8200463Y2025607D01*
G01X8221019Y2019758D01*
G01X8242300Y2017786D01*
G01X8242300Y2017786D01*
G01X8263581Y2019758D01*
G01X8284137Y2025607D01*
G01X8303268Y2035133D01*
G01X8320323Y2048013D01*
G01X8334721Y2063807D01*
G01X8345972Y2081977D01*
G01X8353693Y2101906D01*
G01X8357620Y2122914D01*
G01X8357620Y2144286D01*
G01X8357620Y2144286D01*
G01X8380980Y2144286D01*
G01X8380980Y2122914D01*
G01X8384907Y2101906D01*
G01X8392628Y2081977D01*
G01X8403879Y2063807D01*
G01X8418277Y2048013D01*
G01X8435332Y2035133D01*
G01X8454463Y2025607D01*
G01X8475019Y2019758D01*
G01X8496300Y2017786D01*
G01X8496300Y2017786D01*
G01X8517581Y2019758D01*
G01X8538137Y2025607D01*
G01X8557268Y2035133D01*
G01X8574323Y2048013D01*
G01X8588721Y2063807D01*
G01X8599972Y2081977D01*
G01X8607693Y2101906D01*
G01X8611620Y2122914D01*
G01X8611620Y2144286D01*
G01X8607693Y2165294D01*
G01X8599972Y2185223D01*
G01X8588721Y2203393D01*
G01X8574323Y2219187D01*
G01X8557268Y2232067D01*
G01X8538137Y2241593D01*
G01X8517581Y2247442D01*
G01X8496300Y2249414D01*
G01X8475019Y2247442D01*
G01X8454463Y2241593D01*
G01X8435332Y2232067D01*
G01X8418277Y2219187D01*
G01X8403879Y2203393D01*
G01X8392628Y2185223D01*
G01X8384907Y2165294D01*
G01X8380980Y2144286D01*
G01X8357620Y2144286D01*
G01X8353693Y2165294D01*
G01X8345972Y2185223D01*
G01X8334721Y2203393D01*
G01X8320323Y2219187D01*
G01X8303268Y2232067D01*
G01X8284137Y2241593D01*
G01X8263581Y2247442D01*
G01X8242300Y2249414D01*
G01X8221019Y2247442D01*
G01X8200463Y2241593D01*
G01X8181332Y2232067D01*
G01X8164277Y2219187D01*
G01X8149879Y2203393D01*
G01X8138628Y2185223D01*
G01X8130907Y2165294D01*
G01X8126980Y2144286D01*
G01X8100314Y2144286D01*
G01X8100314Y2398286D01*
G01X8126980Y2398286D01*
G01X8126980Y2376914D01*
G01X8130907Y2355906D01*
G01X8138628Y2335977D01*
G01X8149879Y2317807D01*
G01X8164277Y2302013D01*
G01X8181332Y2289133D01*
G01X8200463Y2279607D01*
G01X8221019Y2273758D01*
G01X8242300Y2271786D01*
G01X8242300Y2271786D01*
G01X8263581Y2273758D01*
G01X8284137Y2279607D01*
G01X8303268Y2289133D01*
G01X8320323Y2302013D01*
G01X8334721Y2317807D01*
G01X8345972Y2335977D01*
G01X8353693Y2355906D01*
G01X8357620Y2376914D01*
G01X8357620Y2398286D01*
G01X8357620Y2398286D01*
G01X8380980Y2398286D01*
G01X8380980Y2376914D01*
G01X8384907Y2355906D01*
G01X8392628Y2335977D01*
G01X8403879Y2317807D01*
G01X8418277Y2302013D01*
G01X8435332Y2289133D01*
G01X8454463Y2279607D01*
G01X8475019Y2273758D01*
G01X8496300Y2271786D01*
G01X8496300Y2271786D01*
G01X8517581Y2273758D01*
G01X8538137Y2279607D01*
G01X8557268Y2289133D01*
G01X8574323Y2302013D01*
G01X8588721Y2317807D01*
G01X8599972Y2335977D01*
G01X8607693Y2355906D01*
G01X8611620Y2376914D01*
G01X8611620Y2398286D01*
G01X8607693Y2419294D01*
G01X8599972Y2439223D01*
G01X8588721Y2457393D01*
G01X8574323Y2473187D01*
G01X8557268Y2486067D01*
G01X8538137Y2495593D01*
G01X8517581Y2501442D01*
G01X8496300Y2503414D01*
G01X8475019Y2501442D01*
G01X8454463Y2495593D01*
G01X8435332Y2486067D01*
G01X8418277Y2473187D01*
G01X8403879Y2457393D01*
G01X8392628Y2439223D01*
G01X8384907Y2419294D01*
G01X8380980Y2398286D01*
G01X8357620Y2398286D01*
G01X8353693Y2419294D01*
G01X8345972Y2439223D01*
G01X8334721Y2457393D01*
G01X8320323Y2473187D01*
G01X8303268Y2486067D01*
G01X8284137Y2495593D01*
G01X8263581Y2501442D01*
G01X8242300Y2503414D01*
G01X8221019Y2501442D01*
G01X8200463Y2495593D01*
G01X8181332Y2486067D01*
G01X8164277Y2473187D01*
G01X8149879Y2457393D01*
G01X8138628Y2439223D01*
G01X8130907Y2419294D01*
G01X8126980Y2398286D01*
G01X8100314Y2398286D01*
G01X8100314Y2652286D01*
G01X8126980Y2652286D01*
G01X8126980Y2630914D01*
G01X8130907Y2609906D01*
G01X8138628Y2589977D01*
G01X8149879Y2571807D01*
G01X8164277Y2556013D01*
G01X8181332Y2543133D01*
G01X8200463Y2533607D01*
G01X8221019Y2527758D01*
G01X8242300Y2525786D01*
G01X8242300Y2525786D01*
G01X8263581Y2527758D01*
G01X8284137Y2533607D01*
G01X8303268Y2543133D01*
G01X8320323Y2556013D01*
G01X8334721Y2571807D01*
G01X8345972Y2589977D01*
G01X8353693Y2609906D01*
G01X8357620Y2630914D01*
G01X8357620Y2652286D01*
G01X8357620Y2652286D01*
G01X8380980Y2652286D01*
G01X8380980Y2630914D01*
G01X8384907Y2609906D01*
G01X8392628Y2589977D01*
G01X8403879Y2571807D01*
G01X8418277Y2556013D01*
G01X8435332Y2543133D01*
G01X8454463Y2533607D01*
G01X8475019Y2527758D01*
G01X8496300Y2525786D01*
G01X8496300Y2525786D01*
G01X8517581Y2527758D01*
G01X8538137Y2533607D01*
G01X8557268Y2543133D01*
G01X8574323Y2556013D01*
G01X8588721Y2571807D01*
G01X8599972Y2589977D01*
G01X8607693Y2609906D01*
G01X8611620Y2630914D01*
G01X8611620Y2652286D01*
G01X8607693Y2673294D01*
G01X8599972Y2693223D01*
G01X8588721Y2711393D01*
G01X8574323Y2727187D01*
G01X8557268Y2740067D01*
G01X8538137Y2749593D01*
G01X8517581Y2755442D01*
G01X8496300Y2757414D01*
G01X8475019Y2755442D01*
G01X8454463Y2749593D01*
G01X8435332Y2740067D01*
G01X8418277Y2727187D01*
G01X8403879Y2711393D01*
G01X8392628Y2693223D01*
G01X8384907Y2673294D01*
G01X8380980Y2652286D01*
G01X8357620Y2652286D01*
G01X8353693Y2673294D01*
G01X8345972Y2693223D01*
G01X8334721Y2711393D01*
G01X8320323Y2727187D01*
G01X8303268Y2740067D01*
G01X8284137Y2749593D01*
G01X8263581Y2755442D01*
G01X8242300Y2757414D01*
G01X8221019Y2755442D01*
G01X8200463Y2749593D01*
G01X8181332Y2740067D01*
G01X8164277Y2727187D01*
G01X8149879Y2711393D01*
G01X8138628Y2693223D01*
G01X8130907Y2673294D01*
G01X8126980Y2652286D01*
G01X8100314Y2652286D01*
G01X8100314Y2654300D01*
G01X8098661Y2666856D01*
G01X8093814Y2678557D01*
G01X8086105Y2688605D01*
G01X8023796Y2750913D01*
G01X8013748Y2758623D01*
G01X8002048Y2763470D01*
G01X7989491Y2765123D01*
G01X7971256Y2765123D01*
G01X7959710Y2774182D01*
G01X7946454Y2780479D01*
G01X7932138Y2783707D01*
G01X7917462Y2783707D01*
G01X7903146Y2780479D01*
G01X7889890Y2774182D01*
G01X7878344Y2765123D01*
G01X7855710Y2765123D01*
G01X7843104Y2774354D01*
G01X7828687Y2780380D01*
G01X7813261Y2782865D01*
G01X7797682Y2781672D01*
G01X7782814Y2776867D01*
G01X7782814Y2906286D01*
G01X8126980Y2906286D01*
G01X8126980Y2884914D01*
G01X8130907Y2863906D01*
G01X8138628Y2843977D01*
G01X8149879Y2825807D01*
G01X8164277Y2810013D01*
G01X8181332Y2797133D01*
G01X8200463Y2787607D01*
G01X8221019Y2781758D01*
G01X8242300Y2779786D01*
G01X8242300Y2779786D01*
G01X8263581Y2781758D01*
G01X8284137Y2787607D01*
G01X8303268Y2797133D01*
G01X8320323Y2810013D01*
G01X8334721Y2825807D01*
G01X8345972Y2843977D01*
G01X8353693Y2863906D01*
G01X8357620Y2884914D01*
G01X8357620Y2906286D01*
G01X8357620Y2906286D01*
G01X8380980Y2906286D01*
G01X8380980Y2884914D01*
G01X8384907Y2863906D01*
G01X8392628Y2843977D01*
G01X8403879Y2825807D01*
G01X8418277Y2810013D01*
G01X8435332Y2797133D01*
G01X8454463Y2787607D01*
G01X8475019Y2781758D01*
G01X8496300Y2779786D01*
G01X8496300Y2779786D01*
G01X8517581Y2781758D01*
G01X8538137Y2787607D01*
G01X8557268Y2797133D01*
G01X8574323Y2810013D01*
G01X8588721Y2825807D01*
G01X8599972Y2843977D01*
G01X8607693Y2863906D01*
G01X8611620Y2884914D01*
G01X8611620Y2906286D01*
G01X8607693Y2927294D01*
G01X8599972Y2947223D01*
G01X8588721Y2965393D01*
G01X8574323Y2981187D01*
G01X8557268Y2994067D01*
G01X8538137Y3003593D01*
G01X8517581Y3009442D01*
G01X8496300Y3011414D01*
G01X8475019Y3009442D01*
G01X8454463Y3003593D01*
G01X8435332Y2994067D01*
G01X8418277Y2981187D01*
G01X8403879Y2965393D01*
G01X8392628Y2947223D01*
G01X8384907Y2927294D01*
G01X8380980Y2906286D01*
G01X8357620Y2906286D01*
G01X8353693Y2927294D01*
G01X8345972Y2947223D01*
G01X8334721Y2965393D01*
G01X8320323Y2981187D01*
G01X8303268Y2994067D01*
G01X8284137Y3003593D01*
G01X8263581Y3009442D01*
G01X8242300Y3011414D01*
G01X8221019Y3009442D01*
G01X8200463Y3003593D01*
G01X8181332Y2994067D01*
G01X8164277Y2981187D01*
G01X8149879Y2965393D01*
G01X8138628Y2947223D01*
G01X8130907Y2927294D01*
G01X8126980Y2906286D01*
G01X7782814Y2906286D01*
G01X7782814Y3091405D01*
G01X7976645Y3285236D01*
G01X8279355Y3285236D01*
G01X8294341Y3270250D01*
G01X8282357Y3258266D01*
G01X8262184Y3263694D01*
G01X8241364Y3265410D01*
G01X8220575Y3263358D01*
G01X8200492Y3257605D01*
G01X8181770Y3248337D01*
G01X8165018Y3235857D01*
G01X8150779Y3220570D01*
G01X8139519Y3202975D01*
G01X8131602Y3183642D01*
G01X8127288Y3163202D01*
G01X8126715Y3142320D01*
G01X8129903Y3121674D01*
G01X8136749Y3101937D01*
G01X8147028Y3083751D01*
G01X8160407Y3067707D01*
G01X8176451Y3054328D01*
G01X8194637Y3044049D01*
G01X8214374Y3037203D01*
G01X8235020Y3034015D01*
G01X8255902Y3034588D01*
G01X8276342Y3038902D01*
G01X8295675Y3046819D01*
G01X8313270Y3058079D01*
G01X8328557Y3072318D01*
G01X8341037Y3089070D01*
G01X8350305Y3107792D01*
G01X8356058Y3127875D01*
G01X8358110Y3148664D01*
G01X8356394Y3169484D01*
G01X8350966Y3189657D01*
G01X8369300Y3207991D01*
G01X8387634Y3189657D01*
G01X8382206Y3169484D01*
G01X8380490Y3148664D01*
G01X8382542Y3127875D01*
G01X8388295Y3107792D01*
G01X8397563Y3089070D01*
G01X8410043Y3072318D01*
G01X8425330Y3058079D01*
G01X8442925Y3046819D01*
G01X8462258Y3038902D01*
G01X8482698Y3034588D01*
G01X8503580Y3034015D01*
G01X8524226Y3037203D01*
G01X8543963Y3044049D01*
G01X8562149Y3054328D01*
G01X8578193Y3067707D01*
G01X8591572Y3083751D01*
G01X8601851Y3101937D01*
G01X8608697Y3121674D01*
G01X8611885Y3142320D01*
G01X8611312Y3163202D01*
G01X8606998Y3183642D01*
G01X8599081Y3202975D01*
G01X8587821Y3220570D01*
G01X8573582Y3235857D01*
G01X8556830Y3248337D01*
G01X8538108Y3257605D01*
G01X8518025Y3263358D01*
G01X8497236Y3265410D01*
G01X8476416Y3263694D01*
G01X8456243Y3258266D01*
G01X8443214Y3271295D01*
G01X8443214Y3302000D01*
G01X8441561Y3314556D01*
G01X8436714Y3326257D01*
G01X8429005Y3336305D01*
G01X8352805Y3412505D01*
G01X8342757Y3420214D01*
G01X8331056Y3425061D01*
G01X8318500Y3426714D01*
G01X7937500Y3426714D01*
G01X7924944Y3425061D01*
G01X7913243Y3420214D01*
G01X7903195Y3412505D01*
G01X7856588Y3365897D01*
G01X7856588Y3736086D01*
G01X8712244Y3736086D01*
G37*
G36*
G01X35814Y127000D02*
G01X35814Y1913800D01*
G01X704686Y1913800D01*
G01X704686Y1743800D01*
G01X706439Y1732733D01*
G01X711526Y1722749D01*
G01X719449Y1714826D01*
G01X729433Y1709739D01*
G01X740500Y1707986D01*
G01X910500Y1707986D01*
G01X910500Y1707986D01*
G01X921567Y1709739D01*
G01X931551Y1714826D01*
G01X939474Y1722749D01*
G01X944561Y1732733D01*
G01X946314Y1743800D01*
G01X946314Y1828800D01*
G01X958686Y1828800D01*
G01X960522Y1807821D01*
G01X965972Y1787479D01*
G01X974872Y1768393D01*
G01X986951Y1751142D01*
G01X1001842Y1736251D01*
G01X1019093Y1724172D01*
G01X1038179Y1715272D01*
G01X1058521Y1709822D01*
G01X1079500Y1707986D01*
G01X1100479Y1709822D01*
G01X1120821Y1715272D01*
G01X1139907Y1724172D01*
G01X1157158Y1736251D01*
G01X1172049Y1751142D01*
G01X1184128Y1768393D01*
G01X1193028Y1787479D01*
G01X1198478Y1807821D01*
G01X1200314Y1828800D01*
G01X1212686Y1828800D01*
G01X1214522Y1807821D01*
G01X1219972Y1787479D01*
G01X1228872Y1768393D01*
G01X1240951Y1751142D01*
G01X1255842Y1736251D01*
G01X1273093Y1724172D01*
G01X1292179Y1715272D01*
G01X1312521Y1709822D01*
G01X1333500Y1707986D01*
G01X1354479Y1709822D01*
G01X1374821Y1715272D01*
G01X1393907Y1724172D01*
G01X1411158Y1736251D01*
G01X1426049Y1751142D01*
G01X1438128Y1768393D01*
G01X1447028Y1787479D01*
G01X1452478Y1807821D01*
G01X1454314Y1828800D01*
G01X1452478Y1849779D01*
G01X1447028Y1870121D01*
G01X1438128Y1889207D01*
G01X1426049Y1906458D01*
G01X1411158Y1921349D01*
G01X1393907Y1933428D01*
G01X1374821Y1942328D01*
G01X1354479Y1947778D01*
G01X1333500Y1949614D01*
G01X1312521Y1947778D01*
G01X1292179Y1942328D01*
G01X1273093Y1933428D01*
G01X1255842Y1921349D01*
G01X1240951Y1906458D01*
G01X1228872Y1889207D01*
G01X1219972Y1870121D01*
G01X1214522Y1849779D01*
G01X1212686Y1828800D01*
G01X1212686Y1828800D01*
G01X1200314Y1828800D01*
G01X1198478Y1849779D01*
G01X1193028Y1870121D01*
G01X1184128Y1889207D01*
G01X1172049Y1906458D01*
G01X1157158Y1921349D01*
G01X1139907Y1933428D01*
G01X1120821Y1942328D01*
G01X1100479Y1947778D01*
G01X1079500Y1949614D01*
G01X1058521Y1947778D01*
G01X1038179Y1942328D01*
G01X1019093Y1933428D01*
G01X1001842Y1921349D01*
G01X986951Y1906458D01*
G01X974872Y1889207D01*
G01X965972Y1870121D01*
G01X960522Y1849779D01*
G01X958686Y1828800D01*
G01X958686Y1828800D01*
G01X946314Y1828800D01*
G01X946314Y1913800D01*
G01X944561Y1924867D01*
G01X939474Y1934851D01*
G01X931551Y1942774D01*
G01X921567Y1947861D01*
G01X910500Y1949614D01*
G01X740500Y1949614D01*
G01X729433Y1947861D01*
G01X719449Y1942774D01*
G01X711526Y1934851D01*
G01X706439Y1924867D01*
G01X704686Y1913800D01*
G01X35814Y1913800D01*
G01X35814Y4091686D01*
G01X3482086Y4091686D01*
G01X3482086Y3479624D01*
G01X3475576Y3466789D01*
G01X3471725Y3452923D01*
G01X3470682Y3438570D01*
G01X3472489Y3424293D01*
G01X1953415Y3424293D01*
G01X1940226Y3429019D01*
G01X1926307Y3430623D01*
G01X1075547Y3430623D01*
G01X946314Y3559856D01*
G01X946314Y3606800D01*
G01X958686Y3606800D01*
G01X960522Y3585821D01*
G01X965972Y3565479D01*
G01X974872Y3546393D01*
G01X986951Y3529142D01*
G01X1001842Y3514251D01*
G01X1019093Y3502172D01*
G01X1038179Y3493272D01*
G01X1058521Y3487822D01*
G01X1079500Y3485986D01*
G01X1100479Y3487822D01*
G01X1120821Y3493272D01*
G01X1139907Y3502172D01*
G01X1157158Y3514251D01*
G01X1172049Y3529142D01*
G01X1184128Y3546393D01*
G01X1193028Y3565479D01*
G01X1198478Y3585821D01*
G01X1200314Y3606800D01*
G01X1212686Y3606800D01*
G01X1214522Y3585821D01*
G01X1219972Y3565479D01*
G01X1228872Y3546393D01*
G01X1240951Y3529142D01*
G01X1255842Y3514251D01*
G01X1273093Y3502172D01*
G01X1292179Y3493272D01*
G01X1312521Y3487822D01*
G01X1333500Y3485986D01*
G01X1354479Y3487822D01*
G01X1374821Y3493272D01*
G01X1393907Y3502172D01*
G01X1411158Y3514251D01*
G01X1426049Y3529142D01*
G01X1438128Y3546393D01*
G01X1447028Y3565479D01*
G01X1452478Y3585821D01*
G01X1454314Y3606800D01*
G01X1452478Y3627779D01*
G01X1447028Y3648121D01*
G01X1438128Y3667207D01*
G01X1426049Y3684458D01*
G01X1411158Y3699349D01*
G01X1393907Y3711428D01*
G01X1374821Y3720328D01*
G01X1354479Y3725778D01*
G01X1333500Y3727614D01*
G01X1312521Y3725778D01*
G01X1292179Y3720328D01*
G01X1273093Y3711428D01*
G01X1255842Y3699349D01*
G01X1240951Y3684458D01*
G01X1228872Y3667207D01*
G01X1219972Y3648121D01*
G01X1214522Y3627779D01*
G01X1212686Y3606800D01*
G01X1212686Y3606800D01*
G01X1200314Y3606800D01*
G01X1198478Y3627779D01*
G01X1193028Y3648121D01*
G01X1184128Y3667207D01*
G01X1172049Y3684458D01*
G01X1157158Y3699349D01*
G01X1139907Y3711428D01*
G01X1120821Y3720328D01*
G01X1100479Y3725778D01*
G01X1079500Y3727614D01*
G01X1058521Y3725778D01*
G01X1038179Y3720328D01*
G01X1019093Y3711428D01*
G01X1001842Y3699349D01*
G01X986951Y3684458D01*
G01X974872Y3667207D01*
G01X965972Y3648121D01*
G01X960522Y3627779D01*
G01X958686Y3606800D01*
G01X958686Y3606800D01*
G01X946314Y3606800D01*
G01X946314Y3691800D01*
G01X944561Y3702867D01*
G01X939474Y3712851D01*
G01X931551Y3720774D01*
G01X921567Y3725861D01*
G01X910500Y3727614D01*
G01X740500Y3727614D01*
G01X729433Y3725861D01*
G01X719449Y3720774D01*
G01X711526Y3712851D01*
G01X706439Y3702867D01*
G01X704686Y3691800D01*
G01X704686Y3521800D01*
G01X706439Y3510733D01*
G01X711526Y3500749D01*
G01X719449Y3492826D01*
G01X729433Y3487739D01*
G01X740500Y3485986D01*
G01X847044Y3485986D01*
G01X1006907Y3326124D01*
G01X1016183Y3318511D01*
G01X1026766Y3312854D01*
G01X1038249Y3309371D01*
G01X1050191Y3308195D01*
G01X1900951Y3308195D01*
G01X1919986Y3289159D01*
G01X1919986Y1741091D01*
G01X1921162Y1729149D01*
G01X1924646Y1717666D01*
G01X1930302Y1707083D01*
G01X1937915Y1697806D01*
G01X2125612Y1510110D01*
G01X2125612Y162814D01*
G01X1549356Y162814D01*
G01X1217018Y495152D01*
G01X1209035Y509308D01*
G01X1197848Y521097D01*
G01X1184130Y529811D01*
G01X1168704Y534927D01*
G01X1152497Y536137D01*
G01X1136483Y533368D01*
G01X1121622Y526788D01*
G01X1108809Y516791D01*
G01X1098812Y503978D01*
G01X1092232Y489117D01*
G01X1089463Y473103D01*
G01X1090673Y456896D01*
G01X1095789Y441470D01*
G01X1104503Y427752D01*
G01X1116292Y416565D01*
G01X1130448Y408582D01*
G01X1480715Y58315D01*
G01X1489991Y50702D01*
G01X1500574Y45046D01*
G01X1512058Y41562D01*
G01X1524000Y40386D01*
G01X2125612Y40386D01*
G01X2125612Y35814D01*
G01X127000Y35814D01*
G01X109210Y37566D01*
G01X92105Y42755D01*
G01X76340Y51182D01*
G01X62522Y62522D01*
G01X51182Y76340D01*
G01X42755Y92105D01*
G01X37566Y109210D01*
G01X35814Y127000D01*
G37*
G36*
G01X3566414Y7010400D02*
G01X3566414Y7239361D01*
G01X4531086Y7239361D01*
G01X4533013Y7223491D01*
G01X4538682Y7208543D01*
G01X4547763Y7195386D01*
G01X4559729Y7184785D01*
G01X4573885Y7177356D01*
G01X4589407Y7173530D01*
G01X4605393Y7173530D01*
G01X4620915Y7177356D01*
G01X4635071Y7184785D01*
G01X4647037Y7195386D01*
G01X4656118Y7208543D01*
G01X4661787Y7223491D01*
G01X4663714Y7239361D01*
G01X4661787Y7255231D01*
G01X4656118Y7270178D01*
G01X4647037Y7283335D01*
G01X4635071Y7293936D01*
G01X4620915Y7301365D01*
G01X4605393Y7305191D01*
G01X4589407Y7305191D01*
G01X4573885Y7301365D01*
G01X4559729Y7293936D01*
G01X4547763Y7283335D01*
G01X4538682Y7270178D01*
G01X4533013Y7255231D01*
G01X4531086Y7239361D01*
G01X4531086Y7239361D01*
G01X3566414Y7239361D01*
G01X3566414Y7492995D01*
G01X3845286Y7492995D01*
G01X3847213Y7477125D01*
G01X3852882Y7462177D01*
G01X3861963Y7449021D01*
G01X3873929Y7438420D01*
G01X3888085Y7430990D01*
G01X3903607Y7427164D01*
G01X3919593Y7427164D01*
G01X3935115Y7430990D01*
G01X3949271Y7438420D01*
G01X3953423Y7442098D01*
G01X7754588Y7442098D01*
G01X7756568Y7416942D01*
G01X7762459Y7392404D01*
G01X7772116Y7369090D01*
G01X7785301Y7347574D01*
G01X7801690Y7328386D01*
G01X7820878Y7311997D01*
G01X7842394Y7298812D01*
G01X7865708Y7289155D01*
G01X7890245Y7283265D01*
G01X7915402Y7281285D01*
G01X7915402Y7281285D01*
G01X7940559Y7283265D01*
G01X7965096Y7289155D01*
G01X7988410Y7298812D01*
G01X8009926Y7311997D01*
G01X8029114Y7328386D01*
G01X8045503Y7347574D01*
G01X8058688Y7369090D01*
G01X8068345Y7392404D01*
G01X8074236Y7416942D01*
G01X8076216Y7442098D01*
G01X8074236Y7467255D01*
G01X8068345Y7491793D01*
G01X8058688Y7515106D01*
G01X8045503Y7536622D01*
G01X8029114Y7555811D01*
G01X8009926Y7572199D01*
G01X7988410Y7585385D01*
G01X7965096Y7595041D01*
G01X7940559Y7600932D01*
G01X7915402Y7602912D01*
G01X7890245Y7600932D01*
G01X7865708Y7595041D01*
G01X7842394Y7585385D01*
G01X7820878Y7572199D01*
G01X7801690Y7555811D01*
G01X7785301Y7536622D01*
G01X7772116Y7515106D01*
G01X7762459Y7491793D01*
G01X7756568Y7467255D01*
G01X7754588Y7442098D01*
G01X3953423Y7442098D01*
G01X3961237Y7449021D01*
G01X3970318Y7462177D01*
G01X3975987Y7477125D01*
G01X3977914Y7492995D01*
G01X3975987Y7508865D01*
G01X3970318Y7523813D01*
G01X3961237Y7536969D01*
G01X3949271Y7547570D01*
G01X3935115Y7555000D01*
G01X3919593Y7558825D01*
G01X3903607Y7558825D01*
G01X3888085Y7555000D01*
G01X3873929Y7547570D01*
G01X3861963Y7536969D01*
G01X3852882Y7523813D01*
G01X3847213Y7508865D01*
G01X3845286Y7492995D01*
G01X3845286Y7492995D01*
G01X3566414Y7492995D01*
G01X3566414Y7670795D01*
G01X3845286Y7670795D01*
G01X3847213Y7654925D01*
G01X3852882Y7639977D01*
G01X3861963Y7626821D01*
G01X3873929Y7616220D01*
G01X3888085Y7608790D01*
G01X3903607Y7604964D01*
G01X3919593Y7604964D01*
G01X3935115Y7608790D01*
G01X3949271Y7616220D01*
G01X3961237Y7626821D01*
G01X3970318Y7639977D01*
G01X3975987Y7654925D01*
G01X3977914Y7670795D01*
G01X3975987Y7686665D01*
G01X3970318Y7701613D01*
G01X3961237Y7714769D01*
G01X3949271Y7725370D01*
G01X3935115Y7732800D01*
G01X3919593Y7736625D01*
G01X3903607Y7736625D01*
G01X3888085Y7732800D01*
G01X3873929Y7725370D01*
G01X3861963Y7714769D01*
G01X3852882Y7701613D01*
G01X3847213Y7686665D01*
G01X3845286Y7670795D01*
G01X3845286Y7670795D01*
G01X3566414Y7670795D01*
G01X3566414Y7742098D01*
G01X8789586Y7742098D01*
G01X8791498Y7720250D01*
G01X8797174Y7699067D01*
G01X8806442Y7679191D01*
G01X8819021Y7661226D01*
G01X8834528Y7645719D01*
G01X8852493Y7633140D01*
G01X8872369Y7623871D01*
G01X8893553Y7618195D01*
G01X8915400Y7616284D01*
G01X8915400Y7616284D01*
G01X8937247Y7618195D01*
G01X8958431Y7623871D01*
G01X8978307Y7633140D01*
G01X8996272Y7645719D01*
G01X9011779Y7661226D01*
G01X9024358Y7679191D01*
G01X9033626Y7699067D01*
G01X9039302Y7720250D01*
G01X9041214Y7742098D01*
G01X9039302Y7763945D01*
G01X9033626Y7785129D01*
G01X9024358Y7805005D01*
G01X9011779Y7822969D01*
G01X8996272Y7838477D01*
G01X8978307Y7851056D01*
G01X8958431Y7860324D01*
G01X8937247Y7866000D01*
G01X8915400Y7867912D01*
G01X8893553Y7866000D01*
G01X8872369Y7860324D01*
G01X8852493Y7851056D01*
G01X8834528Y7838477D01*
G01X8819021Y7822969D01*
G01X8806442Y7805005D01*
G01X8797174Y7785129D01*
G01X8791498Y7763945D01*
G01X8789586Y7742098D01*
G01X3566414Y7742098D01*
G01X3566414Y7965186D01*
G01X9156700Y7965186D01*
G01X9174490Y7963434D01*
G01X9191595Y7958245D01*
G01X9207360Y7949818D01*
G01X9221178Y7938478D01*
G01X9232518Y7924660D01*
G01X9240945Y7908895D01*
G01X9246134Y7891790D01*
G01X9247886Y7874000D01*
G01X9247886Y3845814D01*
G01X9037357Y3845814D01*
G01X9030607Y3865463D01*
G01X9020716Y3883733D01*
G01X9007953Y3900126D01*
G01X8992666Y3914195D01*
G01X8975272Y3925557D01*
G01X8956245Y3933901D01*
G01X8936105Y3939001D01*
G01X8915400Y3940716D01*
G01X8894695Y3939001D01*
G01X8874555Y3933901D01*
G01X8855528Y3925557D01*
G01X8838134Y3914195D01*
G01X8822847Y3900126D01*
G01X8810084Y3883733D01*
G01X8800193Y3865463D01*
G01X8793443Y3845814D01*
G01X8774930Y3845814D01*
G01X8763520Y3852755D01*
G01X8750876Y3857057D01*
G01X8737600Y3858514D01*
G01X7815743Y3858514D01*
G01X7376048Y4113906D01*
G01X7374334Y4114902D01*
G01X8254587Y4114902D01*
G01X8256567Y4089745D01*
G01X8262458Y4065207D01*
G01X8272115Y4041894D01*
G01X8285300Y4020378D01*
G01X8301689Y4001189D01*
G01X8320877Y3984801D01*
G01X8342393Y3971615D01*
G01X8365707Y3961959D01*
G01X8390244Y3956068D01*
G01X8415401Y3954088D01*
G01X8415401Y3954088D01*
G01X8440558Y3956068D01*
G01X8465095Y3961959D01*
G01X8488409Y3971615D01*
G01X8509925Y3984801D01*
G01X8529113Y4001189D01*
G01X8545502Y4020378D01*
G01X8558687Y4041894D01*
G01X8568344Y4065207D01*
G01X8574235Y4089745D01*
G01X8576215Y4114902D01*
G01X8574235Y4140058D01*
G01X8568344Y4164596D01*
G01X8558687Y4187910D01*
G01X8545502Y4209426D01*
G01X8529113Y4228614D01*
G01X8509925Y4245003D01*
G01X8488409Y4258188D01*
G01X8465095Y4267845D01*
G01X8440558Y4273735D01*
G01X8415401Y4275715D01*
G01X8390244Y4273735D01*
G01X8365707Y4267845D01*
G01X8342393Y4258188D01*
G01X8320877Y4245003D01*
G01X8301689Y4228614D01*
G01X8285300Y4209426D01*
G01X8272115Y4187910D01*
G01X8262458Y4164596D01*
G01X8256567Y4140058D01*
G01X8254587Y4114902D01*
G01X7374334Y4114902D01*
G01X7366386Y4119518D01*
G01X7350717Y4128619D01*
G01X7342044Y4132231D01*
G01X7332729Y4133464D01*
G01X4448015Y4133464D01*
G01X4442714Y4133069D01*
G01X4442714Y4314087D01*
G01X7655286Y4314087D01*
G01X7657213Y4298217D01*
G01X7662882Y4283269D01*
G01X7671963Y4270113D01*
G01X7683929Y4259512D01*
G01X7698085Y4252082D01*
G01X7713607Y4248257D01*
G01X7729593Y4248257D01*
G01X7745115Y4252082D01*
G01X7759271Y4259512D01*
G01X7771237Y4270113D01*
G01X7780318Y4283269D01*
G01X7785987Y4298217D01*
G01X7787914Y4314087D01*
G01X7785987Y4329957D01*
G01X7780318Y4344905D01*
G01X7771237Y4358061D01*
G01X7759271Y4368663D01*
G01X7745115Y4376092D01*
G01X7729593Y4379918D01*
G01X7713607Y4379918D01*
G01X7698085Y4376092D01*
G01X7683929Y4368663D01*
G01X7671963Y4358061D01*
G01X7662882Y4344905D01*
G01X7657213Y4329957D01*
G01X7655286Y4314087D01*
G01X7655286Y4314087D01*
G01X4442714Y4314087D01*
G01X4442714Y4448570D01*
G01X7655286Y4448570D01*
G01X7657213Y4432700D01*
G01X7662882Y4417752D01*
G01X7671963Y4404596D01*
G01X7683929Y4393995D01*
G01X7698085Y4386565D01*
G01X7713607Y4382739D01*
G01X7729593Y4382739D01*
G01X7745115Y4386565D01*
G01X7759271Y4393995D01*
G01X7771237Y4404596D01*
G01X7780318Y4417752D01*
G01X7785987Y4432700D01*
G01X7787914Y4448570D01*
G01X7785987Y4464440D01*
G01X7780318Y4479388D01*
G01X7771237Y4492544D01*
G01X7759271Y4503145D01*
G01X7745115Y4510575D01*
G01X7729593Y4514401D01*
G01X7713607Y4514401D01*
G01X7698085Y4510575D01*
G01X7683929Y4503145D01*
G01X7671963Y4492544D01*
G01X7662882Y4479388D01*
G01X7657213Y4464440D01*
G01X7655286Y4448570D01*
G01X7655286Y4448570D01*
G01X4442714Y4448570D01*
G01X4442714Y4457384D01*
G01X4600231Y4614901D01*
G01X8254587Y4614901D01*
G01X8256567Y4589744D01*
G01X8262458Y4565206D01*
G01X8272115Y4541893D01*
G01X8285300Y4520377D01*
G01X8301689Y4501188D01*
G01X8320877Y4484800D01*
G01X8342393Y4471614D01*
G01X8365707Y4461958D01*
G01X8390244Y4456067D01*
G01X8415401Y4454087D01*
G01X8415401Y4454087D01*
G01X8440558Y4456067D01*
G01X8465095Y4461958D01*
G01X8488409Y4471614D01*
G01X8509925Y4484800D01*
G01X8529113Y4501188D01*
G01X8545502Y4520377D01*
G01X8558687Y4541893D01*
G01X8568344Y4565206D01*
G01X8574235Y4589744D01*
G01X8576215Y4614901D01*
G01X8574235Y4640057D01*
G01X8568344Y4664595D01*
G01X8558687Y4687909D01*
G01X8545502Y4709425D01*
G01X8529113Y4728613D01*
G01X8509925Y4745002D01*
G01X8488409Y4758187D01*
G01X8465095Y4767844D01*
G01X8440558Y4773734D01*
G01X8415401Y4775714D01*
G01X8390244Y4773734D01*
G01X8365707Y4767844D01*
G01X8342393Y4758187D01*
G01X8320877Y4745002D01*
G01X8301689Y4728613D01*
G01X8285300Y4709425D01*
G01X8272115Y4687909D01*
G01X8262458Y4664595D01*
G01X8256567Y4640057D01*
G01X8254587Y4614901D01*
G01X4600231Y4614901D01*
G01X4653385Y4668054D01*
G01X4662200Y4679203D01*
G01X4668206Y4692083D01*
G01X4673783Y4705545D01*
G01X4676285Y4719900D01*
G01X4675591Y4734454D01*
G01X4671736Y4748506D01*
G01X4664904Y4761377D01*
G01X4655427Y4772444D01*
G01X4643761Y4781175D01*
G01X4630470Y4787147D01*
G01X4616195Y4790073D01*
G01X4601626Y4789810D01*
G01X4587467Y4786371D01*
G01X4574400Y4779924D01*
G01X4563057Y4770778D01*
G01X4553985Y4759375D01*
G01X4547622Y4746267D01*
G01X4544276Y4732085D01*
G01X4338215Y4526024D01*
G01X4330602Y4516748D01*
G01X4324946Y4506165D01*
G01X4321462Y4494682D01*
G01X4320286Y4482739D01*
G01X4320286Y3594056D01*
G01X4150523Y3424293D01*
G01X4071311Y3424293D01*
G01X4073144Y3440542D01*
G01X4071296Y3456791D01*
G01X4065860Y3472214D01*
G01X4057112Y3486030D01*
G01X4045496Y3497540D01*
G01X4031599Y3506159D01*
G01X4016126Y3511452D01*
G01X3833114Y3694464D01*
G01X3833114Y4313596D01*
G01X3870686Y4313596D01*
G01X3872613Y4297726D01*
G01X3878282Y4282778D01*
G01X3887363Y4269622D01*
G01X3899329Y4259021D01*
G01X3913485Y4251591D01*
G01X3929007Y4247766D01*
G01X3944993Y4247766D01*
G01X3960515Y4251591D01*
G01X3974671Y4259021D01*
G01X3986637Y4269622D01*
G01X3995718Y4282778D01*
G01X4001387Y4297726D01*
G01X4003314Y4313596D01*
G01X4001387Y4329466D01*
G01X3995718Y4344414D01*
G01X3986637Y4357571D01*
G01X3974671Y4368172D01*
G01X3960515Y4375601D01*
G01X3944993Y4379427D01*
G01X3929007Y4379427D01*
G01X3913485Y4375601D01*
G01X3899329Y4368172D01*
G01X3887363Y4357571D01*
G01X3878282Y4344414D01*
G01X3872613Y4329466D01*
G01X3870686Y4313596D01*
G01X3870686Y4313596D01*
G01X3833114Y4313596D01*
G01X3833114Y4448880D01*
G01X3870686Y4448880D01*
G01X3872613Y4433010D01*
G01X3878282Y4418062D01*
G01X3887363Y4404905D01*
G01X3899329Y4394304D01*
G01X3913485Y4386875D01*
G01X3929007Y4383049D01*
G01X3944993Y4383049D01*
G01X3960515Y4386875D01*
G01X3974671Y4394304D01*
G01X3986637Y4404905D01*
G01X3995718Y4418062D01*
G01X4001387Y4433010D01*
G01X4003314Y4448880D01*
G01X4001387Y4464750D01*
G01X3995718Y4479698D01*
G01X3986637Y4492854D01*
G01X3974671Y4503455D01*
G01X3960515Y4510885D01*
G01X3944993Y4514710D01*
G01X3929007Y4514710D01*
G01X3913485Y4510885D01*
G01X3899329Y4503455D01*
G01X3887363Y4492854D01*
G01X3878282Y4479698D01*
G01X3872613Y4464750D01*
G01X3870686Y4448880D01*
G01X3870686Y4448880D01*
G01X3833114Y4448880D01*
G01X3833114Y4584700D01*
G01X3883386Y4584700D01*
G01X3885313Y4568830D01*
G01X3890982Y4553882D01*
G01X3900063Y4540726D01*
G01X3912029Y4530125D01*
G01X3926185Y4522695D01*
G01X3941707Y4518869D01*
G01X3957693Y4518869D01*
G01X3973215Y4522695D01*
G01X3987371Y4530125D01*
G01X3999337Y4540726D01*
G01X4008418Y4553882D01*
G01X4014087Y4568830D01*
G01X4016014Y4584700D01*
G01X4014087Y4600570D01*
G01X4008418Y4615518D01*
G01X3999337Y4628674D01*
G01X3987371Y4639275D01*
G01X3973215Y4646705D01*
G01X3957693Y4650531D01*
G01X3941707Y4650531D01*
G01X3926185Y4646705D01*
G01X3912029Y4639275D01*
G01X3900063Y4628674D01*
G01X3890982Y4615518D01*
G01X3885313Y4600570D01*
G01X3883386Y4584700D01*
G01X3883386Y4584700D01*
G01X3833114Y4584700D01*
G01X3833114Y4914900D01*
G01X8789586Y4914900D01*
G01X8791498Y4893053D01*
G01X8797174Y4871869D01*
G01X8806442Y4851993D01*
G01X8819021Y4834028D01*
G01X8834528Y4818521D01*
G01X8852493Y4805942D01*
G01X8872369Y4796674D01*
G01X8893553Y4790998D01*
G01X8915400Y4789086D01*
G01X8915400Y4789086D01*
G01X8937247Y4790998D01*
G01X8958431Y4796674D01*
G01X8978307Y4805942D01*
G01X8996272Y4818521D01*
G01X9011779Y4834028D01*
G01X9024358Y4851993D01*
G01X9033626Y4871869D01*
G01X9039302Y4893053D01*
G01X9041214Y4914900D01*
G01X9039302Y4936747D01*
G01X9033626Y4957931D01*
G01X9024358Y4977807D01*
G01X9011779Y4995772D01*
G01X8996272Y5011279D01*
G01X8978307Y5023858D01*
G01X8958431Y5033126D01*
G01X8937247Y5038802D01*
G01X8915400Y5040714D01*
G01X8893553Y5038802D01*
G01X8872369Y5033126D01*
G01X8852493Y5023858D01*
G01X8834528Y5011279D01*
G01X8819021Y4995772D01*
G01X8806442Y4977807D01*
G01X8797174Y4957931D01*
G01X8791498Y4936747D01*
G01X8789586Y4914900D01*
G01X3833114Y4914900D01*
G01X3833114Y5232400D01*
G01X8789586Y5232400D01*
G01X8791498Y5210553D01*
G01X8797174Y5189369D01*
G01X8806442Y5169493D01*
G01X8819021Y5151528D01*
G01X8834528Y5136021D01*
G01X8852493Y5123442D01*
G01X8872369Y5114174D01*
G01X8893553Y5108498D01*
G01X8915400Y5106586D01*
G01X8915400Y5106586D01*
G01X8937247Y5108498D01*
G01X8958431Y5114174D01*
G01X8978307Y5123442D01*
G01X8996272Y5136021D01*
G01X9011779Y5151528D01*
G01X9024358Y5169493D01*
G01X9033626Y5189369D01*
G01X9039302Y5210553D01*
G01X9041214Y5232400D01*
G01X9039302Y5254247D01*
G01X9033626Y5275431D01*
G01X9024358Y5295307D01*
G01X9011779Y5313272D01*
G01X8996272Y5328779D01*
G01X8978307Y5341358D01*
G01X8958431Y5350626D01*
G01X8937247Y5356302D01*
G01X8915400Y5358214D01*
G01X8893553Y5356302D01*
G01X8872369Y5350626D01*
G01X8852493Y5341358D01*
G01X8834528Y5328779D01*
G01X8819021Y5313272D01*
G01X8806442Y5295307D01*
G01X8797174Y5275431D01*
G01X8791498Y5254247D01*
G01X8789586Y5232400D01*
G01X3833114Y5232400D01*
G01X3833114Y5532399D01*
G01X7754588Y5532399D01*
G01X7756568Y5507243D01*
G01X7762459Y5482705D01*
G01X7772116Y5459391D01*
G01X7785301Y5437875D01*
G01X7801690Y5418687D01*
G01X7820878Y5402298D01*
G01X7842394Y5389113D01*
G01X7865708Y5379456D01*
G01X7890245Y5373566D01*
G01X7915402Y5371586D01*
G01X7915402Y5371586D01*
G01X7940559Y5373566D01*
G01X7965096Y5379456D01*
G01X7988410Y5389113D01*
G01X8009926Y5402298D01*
G01X8029114Y5418687D01*
G01X8045503Y5437875D01*
G01X8058688Y5459391D01*
G01X8068345Y5482705D01*
G01X8074236Y5507243D01*
G01X8076216Y5532399D01*
G01X8074236Y5557556D01*
G01X8068345Y5582094D01*
G01X8058688Y5605407D01*
G01X8045503Y5626923D01*
G01X8029114Y5646112D01*
G01X8009926Y5662500D01*
G01X7988410Y5675686D01*
G01X7965096Y5685342D01*
G01X7940559Y5691233D01*
G01X7915402Y5693213D01*
G01X7890245Y5691233D01*
G01X7865708Y5685342D01*
G01X7842394Y5675686D01*
G01X7820878Y5662500D01*
G01X7801690Y5646112D01*
G01X7785301Y5626923D01*
G01X7772116Y5605407D01*
G01X7762459Y5582094D01*
G01X7756568Y5557556D01*
G01X7754588Y5532399D01*
G01X3833114Y5532399D01*
G01X3833114Y5981700D01*
G01X3959537Y5981700D01*
G01X3961463Y5965834D01*
G01X3967129Y5950890D01*
G01X3976206Y5937735D01*
G01X3988166Y5927134D01*
G01X4002316Y5919703D01*
G01X4017832Y5915873D01*
G01X4033815Y5915866D01*
G01X4049335Y5919683D01*
G01X4063490Y5927103D01*
G01X4075460Y5937694D01*
G01X4084547Y5950841D01*
G01X4090226Y5965781D01*
G01X4095904Y5950841D01*
G01X4104992Y5937694D01*
G01X4116962Y5927103D01*
G01X4131117Y5919683D01*
G01X4146637Y5915866D01*
G01X4162619Y5915873D01*
G01X4178136Y5919703D01*
G01X4192285Y5927134D01*
G01X4204246Y5937735D01*
G01X4213323Y5950890D01*
G01X4218989Y5965834D01*
G01X4220915Y5981700D01*
G01X4218989Y5997566D01*
G01X4213323Y6012510D01*
G01X4204246Y6025665D01*
G01X4196649Y6032398D01*
G01X7754588Y6032398D01*
G01X7756568Y6007242D01*
G01X7762459Y5982704D01*
G01X7772116Y5959390D01*
G01X7785301Y5937874D01*
G01X7801690Y5918686D01*
G01X7820878Y5902297D01*
G01X7842394Y5889112D01*
G01X7865708Y5879455D01*
G01X7890245Y5873565D01*
G01X7915402Y5871585D01*
G01X7915402Y5871585D01*
G01X7940559Y5873565D01*
G01X7965096Y5879455D01*
G01X7988410Y5889112D01*
G01X8009926Y5902297D01*
G01X8029114Y5918686D01*
G01X8045503Y5937874D01*
G01X8058688Y5959390D01*
G01X8068345Y5982704D01*
G01X8074236Y6007242D01*
G01X8076216Y6032398D01*
G01X8074236Y6057555D01*
G01X8068345Y6082093D01*
G01X8058688Y6105406D01*
G01X8045503Y6126922D01*
G01X8029114Y6146111D01*
G01X8009926Y6162499D01*
G01X7988410Y6175685D01*
G01X7965096Y6185341D01*
G01X7940559Y6191232D01*
G01X7915402Y6193212D01*
G01X7890245Y6191232D01*
G01X7865708Y6185341D01*
G01X7842394Y6175685D01*
G01X7820878Y6162499D01*
G01X7801690Y6146111D01*
G01X7785301Y6126922D01*
G01X7772116Y6105406D01*
G01X7762459Y6082093D01*
G01X7756568Y6057555D01*
G01X7754588Y6032398D01*
G01X4196649Y6032398D01*
G01X4192285Y6036266D01*
G01X4178136Y6043697D01*
G01X4162619Y6047527D01*
G01X4146637Y6047534D01*
G01X4131117Y6043717D01*
G01X4116962Y6036297D01*
G01X4104992Y6025706D01*
G01X4095904Y6012559D01*
G01X4090226Y5997619D01*
G01X4084547Y6012559D01*
G01X4075460Y6025706D01*
G01X4063490Y6036297D01*
G01X4049335Y6043717D01*
G01X4033815Y6047534D01*
G01X4017832Y6047527D01*
G01X4002316Y6043697D01*
G01X3988166Y6036266D01*
G01X3976206Y6025665D01*
G01X3967129Y6012510D01*
G01X3961463Y5997566D01*
G01X3959537Y5981700D01*
G01X3959537Y5981700D01*
G01X3833114Y5981700D01*
G01X3833114Y6332398D01*
G01X8789586Y6332398D01*
G01X8791498Y6310550D01*
G01X8797174Y6289367D01*
G01X8806442Y6269491D01*
G01X8819021Y6251526D01*
G01X8834528Y6236019D01*
G01X8852493Y6223440D01*
G01X8872369Y6214171D01*
G01X8893553Y6208495D01*
G01X8915400Y6206584D01*
G01X8915400Y6206584D01*
G01X8937247Y6208495D01*
G01X8958431Y6214171D01*
G01X8978307Y6223440D01*
G01X8996272Y6236019D01*
G01X9011779Y6251526D01*
G01X9024358Y6269491D01*
G01X9033626Y6289367D01*
G01X9039302Y6310550D01*
G01X9041214Y6332398D01*
G01X9039302Y6354245D01*
G01X9033626Y6375429D01*
G01X9024358Y6395305D01*
G01X9011779Y6413269D01*
G01X8996272Y6428777D01*
G01X8978307Y6441356D01*
G01X8958431Y6450624D01*
G01X8937247Y6456300D01*
G01X8915400Y6458212D01*
G01X8893553Y6456300D01*
G01X8872369Y6450624D01*
G01X8852493Y6441356D01*
G01X8834528Y6428777D01*
G01X8819021Y6413269D01*
G01X8806442Y6395305D01*
G01X8797174Y6375429D01*
G01X8791498Y6354245D01*
G01X8789586Y6332398D01*
G01X3833114Y6332398D01*
G01X3833114Y6642100D01*
G01X8789586Y6642100D01*
G01X8791498Y6620253D01*
G01X8797174Y6599069D01*
G01X8806442Y6579193D01*
G01X8819021Y6561228D01*
G01X8834528Y6545721D01*
G01X8852493Y6533142D01*
G01X8872369Y6523874D01*
G01X8893553Y6518198D01*
G01X8915400Y6516286D01*
G01X8915400Y6516286D01*
G01X8937247Y6518198D01*
G01X8958431Y6523874D01*
G01X8978307Y6533142D01*
G01X8996272Y6545721D01*
G01X9011779Y6561228D01*
G01X9024358Y6579193D01*
G01X9033626Y6599069D01*
G01X9039302Y6620253D01*
G01X9041214Y6642100D01*
G01X9039302Y6663947D01*
G01X9033626Y6685131D01*
G01X9024358Y6705007D01*
G01X9011779Y6722972D01*
G01X8996272Y6738479D01*
G01X8978307Y6751058D01*
G01X8958431Y6760326D01*
G01X8937247Y6766002D01*
G01X8915400Y6767914D01*
G01X8893553Y6766002D01*
G01X8872369Y6760326D01*
G01X8852493Y6751058D01*
G01X8834528Y6738479D01*
G01X8819021Y6722972D01*
G01X8806442Y6705007D01*
G01X8797174Y6685131D01*
G01X8791498Y6663947D01*
G01X8789586Y6642100D01*
G01X3833114Y6642100D01*
G01X3833114Y6680200D01*
G01X3831938Y6692142D01*
G01X3828454Y6703626D01*
G01X3822798Y6714209D01*
G01X3815185Y6723485D01*
G01X3611832Y6926837D01*
G01X3602556Y6934450D01*
G01X3591973Y6940107D01*
G01X3585404Y6942099D01*
G01X7754588Y6942099D01*
G01X7756568Y6916943D01*
G01X7762459Y6892405D01*
G01X7772116Y6869091D01*
G01X7785301Y6847575D01*
G01X7801690Y6828387D01*
G01X7820878Y6811998D01*
G01X7842394Y6798813D01*
G01X7865708Y6789156D01*
G01X7890245Y6783266D01*
G01X7915402Y6781286D01*
G01X7915402Y6781286D01*
G01X7940559Y6783266D01*
G01X7965096Y6789156D01*
G01X7988410Y6798813D01*
G01X8009926Y6811998D01*
G01X8029114Y6828387D01*
G01X8045503Y6847575D01*
G01X8058688Y6869091D01*
G01X8068345Y6892405D01*
G01X8074236Y6916943D01*
G01X8076216Y6942099D01*
G01X8074236Y6967256D01*
G01X8068345Y6991794D01*
G01X8058688Y7015107D01*
G01X8045503Y7036623D01*
G01X8029114Y7055812D01*
G01X8009926Y7072200D01*
G01X7988410Y7085386D01*
G01X7965096Y7095042D01*
G01X7940559Y7100933D01*
G01X7915402Y7102913D01*
G01X7890245Y7100933D01*
G01X7865708Y7095042D01*
G01X7842394Y7085386D01*
G01X7820878Y7072200D01*
G01X7801690Y7055812D01*
G01X7785301Y7036623D01*
G01X7772116Y7015107D01*
G01X7762459Y6991794D01*
G01X7756568Y6967256D01*
G01X7754588Y6942099D01*
G01X3585404Y6942099D01*
G01X3580490Y6943590D01*
G01X3568548Y6944766D01*
G01X3534664Y6944766D01*
G01X3534664Y6974817D01*
G01X3544716Y6977485D01*
G01X3553577Y6982929D01*
G01X3560501Y6990688D01*
G01X3564904Y7000110D01*
G01X3566414Y7010400D01*
G37*
G36*
G01X7256666Y162814D02*
G01X2171586Y162814D01*
G01X2171586Y366286D01*
G01X6094980Y366286D01*
G01X6094980Y344914D01*
G01X6098907Y323906D01*
G01X6106628Y303977D01*
G01X6117879Y285807D01*
G01X6132277Y270013D01*
G01X6149332Y257133D01*
G01X6168463Y247607D01*
G01X6189019Y241758D01*
G01X6210300Y239786D01*
G01X6210300Y239786D01*
G01X6231581Y241758D01*
G01X6252137Y247607D01*
G01X6271268Y257133D01*
G01X6288323Y270013D01*
G01X6302721Y285807D01*
G01X6313972Y303977D01*
G01X6321693Y323906D01*
G01X6325620Y344914D01*
G01X6325620Y366286D01*
G01X6321693Y387294D01*
G01X6313972Y407223D01*
G01X6302721Y425393D01*
G01X6293417Y435600D01*
G01X6348486Y435600D01*
G01X6348486Y275600D01*
G01X6350239Y264533D01*
G01X6355326Y254549D01*
G01X6363249Y246626D01*
G01X6373233Y241539D01*
G01X6384300Y239786D01*
G01X6544300Y239786D01*
G01X6555367Y241539D01*
G01X6565351Y246626D01*
G01X6573274Y254549D01*
G01X6578361Y264533D01*
G01X6580114Y275600D01*
G01X6580114Y435600D01*
G01X6580114Y435600D01*
G01X6578361Y446667D01*
G01X6573274Y456651D01*
G01X6565351Y464574D01*
G01X6555367Y469661D01*
G01X6544300Y471414D01*
G01X6384300Y471414D01*
G01X6373233Y469661D01*
G01X6363249Y464574D01*
G01X6355326Y456651D01*
G01X6350239Y446667D01*
G01X6348486Y435600D01*
G01X6293417Y435600D01*
G01X6288323Y441187D01*
G01X6271268Y454067D01*
G01X6252137Y463593D01*
G01X6231581Y469442D01*
G01X6210300Y471414D01*
G01X6189019Y469442D01*
G01X6168463Y463593D01*
G01X6149332Y454067D01*
G01X6132277Y441187D01*
G01X6117879Y425393D01*
G01X6106628Y407223D01*
G01X6098907Y387294D01*
G01X6094980Y366286D01*
G01X2171586Y366286D01*
G01X2171586Y671909D01*
G01X3642086Y671909D01*
G01X3644013Y656039D01*
G01X3649682Y641091D01*
G01X3658763Y627934D01*
G01X3670729Y617333D01*
G01X3684885Y609904D01*
G01X3700407Y606078D01*
G01X3716393Y606078D01*
G01X3731915Y609904D01*
G01X3746071Y617333D01*
G01X3758037Y627934D01*
G01X3767118Y641091D01*
G01X3772787Y656039D01*
G01X3774714Y671909D01*
G01X3972286Y671909D01*
G01X3974213Y656039D01*
G01X3979882Y641091D01*
G01X3988963Y627934D01*
G01X4000929Y617333D01*
G01X4015085Y609904D01*
G01X4030607Y606078D01*
G01X4046593Y606078D01*
G01X4062115Y609904D01*
G01X4076271Y617333D01*
G01X4088237Y627934D01*
G01X4097318Y641091D01*
G01X4102987Y656039D01*
G01X4104914Y671909D01*
G01X4102987Y687779D01*
G01X4097318Y702726D01*
G01X4088237Y715883D01*
G01X4076271Y726484D01*
G01X4062115Y733913D01*
G01X4046593Y737739D01*
G01X4030607Y737739D01*
G01X4015085Y733913D01*
G01X4000929Y726484D01*
G01X3988963Y715883D01*
G01X3979882Y702726D01*
G01X3974213Y687779D01*
G01X3972286Y671909D01*
G01X3972286Y671909D01*
G01X3774714Y671909D01*
G01X3774714Y671909D01*
G01X3772787Y687779D01*
G01X3767118Y702726D01*
G01X3758037Y715883D01*
G01X3746071Y726484D01*
G01X3731915Y733913D01*
G01X3716393Y737739D01*
G01X3700407Y737739D01*
G01X3684885Y733913D01*
G01X3670729Y726484D01*
G01X3658763Y715883D01*
G01X3649682Y702726D01*
G01X3644013Y687779D01*
G01X3642086Y671909D01*
G01X3642086Y671909D01*
G01X2171586Y671909D01*
G01X2171586Y1464136D01*
G01X2708473Y927248D01*
G01X2716456Y913092D01*
G01X2727643Y901303D01*
G01X2741361Y892589D01*
G01X2756787Y887473D01*
G01X2772994Y886263D01*
G01X2789009Y889032D01*
G01X2803869Y895612D01*
G01X2816682Y905609D01*
G01X2826679Y918422D01*
G01X2833260Y933283D01*
G01X2836028Y949297D01*
G01X2834818Y965504D01*
G01X2829702Y980930D01*
G01X2820988Y994648D01*
G01X2809199Y1005835D01*
G01X2795043Y1013818D01*
G01X2615061Y1193800D01*
G01X2702286Y1193800D01*
G01X2704213Y1177930D01*
G01X2709882Y1162982D01*
G01X2718963Y1149826D01*
G01X2730929Y1139225D01*
G01X2745085Y1131795D01*
G01X2760607Y1127969D01*
G01X2776593Y1127969D01*
G01X2792115Y1131795D01*
G01X2806271Y1139225D01*
G01X2818237Y1149826D01*
G01X2827318Y1162982D01*
G01X2832987Y1177930D01*
G01X2834914Y1193800D01*
G01X2832987Y1209670D01*
G01X2827318Y1224618D01*
G01X2818237Y1237774D01*
G01X2806271Y1248375D01*
G01X2792115Y1255805D01*
G01X2776593Y1259631D01*
G01X2760607Y1259631D01*
G01X2745085Y1255805D01*
G01X2730929Y1248375D01*
G01X2718963Y1237774D01*
G01X2709882Y1224618D01*
G01X2704213Y1209670D01*
G01X2702286Y1193800D01*
G01X2702286Y1193800D01*
G01X2615061Y1193800D01*
G01X2457527Y1351334D01*
G01X2918186Y1351334D01*
G01X2920113Y1335464D01*
G01X2925782Y1320517D01*
G01X2934863Y1307360D01*
G01X2946829Y1296759D01*
G01X2960985Y1289330D01*
G01X2976507Y1285504D01*
G01X2992493Y1285504D01*
G01X3008015Y1289330D01*
G01X3022171Y1296759D01*
G01X3034137Y1307360D01*
G01X3043218Y1320517D01*
G01X3048887Y1335464D01*
G01X3050814Y1351334D01*
G01X3048887Y1367204D01*
G01X3043218Y1382152D01*
G01X3034137Y1395309D01*
G01X3022171Y1405910D01*
G01X3008015Y1413339D01*
G01X2992493Y1417165D01*
G01X2976507Y1417165D01*
G01X2960985Y1413339D01*
G01X2946829Y1405910D01*
G01X2934863Y1395309D01*
G01X2925782Y1382152D01*
G01X2920113Y1367204D01*
G01X2918186Y1351334D01*
G01X2918186Y1351334D01*
G01X2457527Y1351334D01*
G01X2289386Y1519475D01*
G01X2989074Y1519475D01*
G01X2991001Y1503605D01*
G01X2996670Y1488657D01*
G01X3005751Y1475501D01*
G01X3017717Y1464900D01*
G01X3031873Y1457470D01*
G01X3047395Y1453644D01*
G01X3063381Y1453644D01*
G01X3078903Y1457470D01*
G01X3093059Y1464900D01*
G01X3105025Y1475501D01*
G01X3114106Y1488657D01*
G01X3119775Y1503605D01*
G01X3121702Y1519475D01*
G01X3119775Y1535345D01*
G01X3114106Y1550293D01*
G01X3105025Y1563449D01*
G01X3093059Y1574050D01*
G01X3078903Y1581480D01*
G01X3063381Y1585306D01*
G01X3047395Y1585306D01*
G01X3031873Y1581480D01*
G01X3017717Y1574050D01*
G01X3005751Y1563449D01*
G01X2996670Y1550293D01*
G01X2991001Y1535345D01*
G01X2989074Y1519475D01*
G01X2989074Y1519475D01*
G01X2289386Y1519475D01*
G01X2195961Y1612900D01*
G01X3286486Y1612900D01*
G01X3288413Y1597030D01*
G01X3294082Y1582082D01*
G01X3303163Y1568926D01*
G01X3315129Y1558325D01*
G01X3329285Y1550895D01*
G01X3344807Y1547069D01*
G01X3360793Y1547069D01*
G01X3376315Y1550895D01*
G01X3390471Y1558325D01*
G01X3402437Y1568926D01*
G01X3411518Y1582082D01*
G01X3417187Y1597030D01*
G01X3419114Y1612900D01*
G01X3417187Y1628770D01*
G01X3411518Y1643718D01*
G01X3402437Y1656874D01*
G01X3390471Y1667475D01*
G01X3376315Y1674905D01*
G01X3360793Y1678731D01*
G01X3344807Y1678731D01*
G01X3329285Y1674905D01*
G01X3315129Y1667475D01*
G01X3303163Y1656874D01*
G01X3294082Y1643718D01*
G01X3288413Y1628770D01*
G01X3286486Y1612900D01*
G01X3286486Y1612900D01*
G01X2195961Y1612900D01*
G01X2171586Y1637275D01*
G01X2171584Y1739900D01*
G01X2702286Y1739900D01*
G01X2704213Y1724030D01*
G01X2709882Y1709082D01*
G01X2718963Y1695926D01*
G01X2730929Y1685325D01*
G01X2745085Y1677895D01*
G01X2760607Y1674069D01*
G01X2776593Y1674069D01*
G01X2792115Y1677895D01*
G01X2806271Y1685325D01*
G01X2818237Y1695926D01*
G01X2827318Y1709082D01*
G01X2832987Y1724030D01*
G01X2834914Y1739900D01*
G01X2832987Y1755770D01*
G01X2827318Y1770718D01*
G01X2818237Y1783874D01*
G01X2806271Y1794475D01*
G01X2792115Y1801905D01*
G01X2776593Y1805731D01*
G01X2760607Y1805731D01*
G01X2745085Y1801905D01*
G01X2730929Y1794475D01*
G01X2718963Y1783874D01*
G01X2709882Y1770718D01*
G01X2704213Y1755770D01*
G01X2702286Y1739900D01*
G01X2702286Y1739900D01*
G01X2171584Y1739900D01*
G01X2171581Y1991888D01*
G01X3137429Y1991888D01*
G01X3139356Y1976018D01*
G01X3145025Y1961070D01*
G01X3154107Y1947913D01*
G01X3166073Y1937312D01*
G01X3180228Y1929883D01*
G01X3195750Y1926057D01*
G01X3211737Y1926057D01*
G01X3227259Y1929883D01*
G01X3241414Y1937312D01*
G01X3253380Y1947913D01*
G01X3262462Y1961070D01*
G01X3262744Y1961815D01*
G01X3270798Y1961815D01*
G01X3271272Y1946916D01*
G01X3275061Y1932499D01*
G01X3281976Y1919293D01*
G01X3291665Y1907964D01*
G01X3303641Y1899087D01*
G01X3317296Y1893108D01*
G01X3331942Y1890331D01*
G01X3335556Y1875869D01*
G01X3342310Y1862580D01*
G01X3351861Y1851135D01*
G01X3363727Y1842112D01*
G01X3377309Y1835968D01*
G01X3391920Y1833013D01*
G01X3406822Y1833396D01*
G01X3421262Y1837098D01*
G01X3434510Y1843932D01*
G01X3445896Y1853553D01*
G01X3454847Y1865474D01*
G01X3460908Y1879093D01*
G01X3463774Y1893721D01*
G01X3463300Y1908621D01*
G01X3459511Y1923038D01*
G01X3452596Y1936244D01*
G01X3442907Y1947572D01*
G01X3430931Y1956450D01*
G01X3417276Y1962428D01*
G01X3402630Y1965206D01*
G01X3399016Y1979668D01*
G01X3392262Y1992957D01*
G01X3382711Y2004402D01*
G01X3370845Y2013425D01*
G01X3357263Y2019569D01*
G01X3342652Y2022524D01*
G01X3327750Y2022140D01*
G01X3313310Y2018438D01*
G01X3300062Y2011604D01*
G01X3288676Y2001984D01*
G01X3288676Y2001984D01*
G01X3279725Y1990063D01*
G01X3273664Y1976444D01*
G01X3270798Y1961815D01*
G01X3262744Y1961815D01*
G01X3268131Y1976018D01*
G01X3270057Y1991888D01*
G01X3268131Y2007758D01*
G01X3262462Y2022705D01*
G01X3253380Y2035862D01*
G01X3241414Y2046463D01*
G01X3227259Y2053892D01*
G01X3211737Y2057718D01*
G01X3195750Y2057718D01*
G01X3180228Y2053892D01*
G01X3166073Y2046463D01*
G01X3154107Y2035862D01*
G01X3145025Y2022705D01*
G01X3139356Y2007758D01*
G01X3137429Y1991888D01*
G01X3137429Y1991888D01*
G01X2171581Y1991888D01*
G01X2171574Y2454403D01*
G01X3083314Y2454403D01*
G01X3085241Y2438533D01*
G01X3090910Y2423585D01*
G01X3099991Y2410428D01*
G01X3111957Y2399827D01*
G01X3126113Y2392398D01*
G01X3141635Y2388572D01*
G01X3157621Y2388572D01*
G01X3173143Y2392398D01*
G01X3187299Y2399827D01*
G01X3199265Y2410428D01*
G01X3208346Y2423585D01*
G01X3214015Y2438533D01*
G01X3215942Y2454403D01*
G01X3214015Y2470273D01*
G01X3208346Y2485220D01*
G01X3199265Y2498377D01*
G01X3187299Y2508978D01*
G01X3173143Y2516407D01*
G01X3157621Y2520233D01*
G01X3141635Y2520233D01*
G01X3126113Y2516407D01*
G01X3111957Y2508978D01*
G01X3099991Y2498377D01*
G01X3090910Y2485220D01*
G01X3085241Y2470273D01*
G01X3083314Y2454403D01*
G01X3083314Y2454403D01*
G01X2171574Y2454403D01*
G01X2171562Y3177186D01*
G01X2171803Y3177286D01*
G01X2489097Y3177286D01*
G01X2503796Y3173072D01*
G01X2519069Y3172337D01*
G01X2534105Y3175119D01*
G01X2548103Y3181272D01*
G01X2560321Y3190467D01*
G01X2570107Y3202216D01*
G01X2576942Y3215894D01*
G01X2580463Y3230775D01*
G01X2580481Y3246066D01*
G01X2576997Y3260954D01*
G01X2570195Y3274649D01*
G01X2560437Y3286422D01*
G01X3653565Y3286422D01*
G01X3648928Y3281785D01*
G01X3641315Y3272509D01*
G01X3635658Y3261926D01*
G01X3632175Y3250442D01*
G01X3630999Y3238500D01*
G01X3630999Y3161520D01*
G01X3629398Y3148245D01*
G01X3630493Y3134919D01*
G01X3634238Y3122083D01*
G01X3640483Y3110260D01*
G01X3648972Y3099930D01*
G01X3659361Y3091512D01*
G01X3671228Y3085350D01*
G01X3684089Y3081694D01*
G01X3697423Y3080692D01*
G01X3710686Y3082385D01*
G01X3710686Y2971756D01*
G01X3604514Y2865584D01*
G01X3604514Y3121481D01*
G01X3608879Y3137135D01*
G01X3609305Y3153382D01*
G01X3605766Y3169244D01*
G01X3598476Y3183769D01*
G01X3587872Y3196085D01*
G01X3574590Y3205451D01*
G01X3559430Y3211306D01*
G01X3543300Y3213298D01*
G01X3527170Y3211306D01*
G01X3512010Y3205451D01*
G01X3498728Y3196085D01*
G01X3488124Y3183769D01*
G01X3480834Y3169244D01*
G01X3477295Y3153382D01*
G01X3477721Y3137135D01*
G01X3482086Y3121481D01*
G01X3482086Y2882856D01*
G01X3423815Y2824585D01*
G01X3416202Y2815309D01*
G01X3410546Y2804726D01*
G01X3407062Y2793242D01*
G01X3405886Y2781300D01*
G01X3405886Y2567172D01*
G01X3275473Y2697585D01*
G01X3266197Y2705198D01*
G01X3255614Y2710854D01*
G01X3244130Y2714338D01*
G01X3232188Y2715514D01*
G01X2273403Y2715514D01*
G01X2257748Y2719879D01*
G01X2241502Y2720305D01*
G01X2225640Y2716766D01*
G01X2211114Y2709476D01*
G01X2198799Y2698872D01*
G01X2189432Y2685590D01*
G01X2183577Y2670430D01*
G01X2181586Y2654300D01*
G01X2183577Y2638170D01*
G01X2189432Y2623010D01*
G01X2198799Y2609728D01*
G01X2211114Y2599124D01*
G01X2225640Y2591834D01*
G01X2241502Y2588295D01*
G01X2257748Y2588721D01*
G01X2273403Y2593086D01*
G01X3206832Y2593086D01*
G01X3323079Y2476839D01*
G01X3329906Y2464298D01*
G01X3339259Y2453510D01*
G01X3350705Y2444973D01*
G01X3363713Y2439085D01*
G01X3377680Y2436118D01*
G01X3391958Y2436209D01*
G01X3405886Y2439355D01*
G01X3405886Y2324056D01*
G01X3340248Y2258418D01*
G01X3326092Y2250435D01*
G01X3314303Y2239248D01*
G01X3305589Y2225530D01*
G01X3300473Y2210104D01*
G01X3299263Y2193897D01*
G01X3302032Y2177883D01*
G01X3308612Y2163022D01*
G01X3318609Y2150209D01*
G01X3331422Y2140212D01*
G01X3346283Y2133632D01*
G01X3362297Y2130863D01*
G01X3378504Y2132073D01*
G01X3393930Y2137189D01*
G01X3407648Y2145903D01*
G01X3418835Y2157692D01*
G01X3426818Y2171848D01*
G01X3510385Y2255415D01*
G01X3517998Y2264691D01*
G01X3523654Y2275274D01*
G01X3527138Y2286758D01*
G01X3528314Y2298700D01*
G01X3528314Y2354480D01*
G01X3540530Y2346320D01*
G01X3554244Y2341050D01*
G01X3568782Y2338930D01*
G01X3583429Y2340064D01*
G01X3597467Y2344397D01*
G01X3610206Y2351714D01*
G01X3621021Y2361658D01*
G01X3629380Y2373739D01*
G01X3634873Y2387365D01*
G01X3637230Y2401866D01*
G01X3636336Y2416530D01*
G01X3632234Y2430637D01*
G01X3632234Y2720164D01*
G01X3647186Y2735116D01*
G01X3647186Y2400300D01*
G01X3648555Y2387425D01*
G01X3652602Y2375125D01*
G01X3659146Y2363952D01*
G01X3665330Y2351721D01*
G01X3673897Y2341023D01*
G01X3684481Y2332314D01*
G01X3696628Y2325967D01*
G01X3709821Y2322252D01*
G01X3723496Y2321329D01*
G01X3737068Y2323237D01*
G01X3749958Y2327894D01*
G01X3761616Y2335102D01*
G01X3771543Y2344552D01*
G01X3779315Y2355841D01*
G01X3784600Y2368487D01*
G01X3791161Y2353607D01*
G01X3801147Y2340771D01*
G01X3813957Y2330751D01*
G01X3828820Y2324151D01*
G01X3844843Y2321366D01*
G01X3861061Y2322565D01*
G01X3876500Y2327675D01*
G01X3890231Y2336389D01*
G01X3901428Y2348184D01*
G01X3909418Y2362348D01*
G01X3910976Y2363906D01*
G01X4354150Y2363906D01*
G01X4356077Y2348036D01*
G01X4361745Y2333088D01*
G01X4370827Y2319932D01*
G01X4382793Y2309330D01*
G01X4396948Y2301901D01*
G01X4412470Y2298075D01*
G01X4428457Y2298075D01*
G01X4443979Y2301901D01*
G01X4458134Y2309330D01*
G01X4470100Y2319932D01*
G01X4479182Y2333088D01*
G01X4484851Y2348036D01*
G01X4486778Y2363906D01*
G01X4484851Y2379776D01*
G01X4479182Y2394724D01*
G01X4470100Y2407880D01*
G01X4458134Y2418481D01*
G01X4443979Y2425911D01*
G01X4428457Y2429736D01*
G01X4412470Y2429736D01*
G01X4396948Y2425911D01*
G01X4382793Y2418481D01*
G01X4370827Y2407880D01*
G01X4361745Y2394724D01*
G01X4356077Y2379776D01*
G01X4354150Y2363906D01*
G01X4354150Y2363906D01*
G01X3910976Y2363906D01*
G01X3916785Y2369715D01*
G01X3924398Y2378991D01*
G01X3930054Y2389574D01*
G01X3933538Y2401058D01*
G01X3934714Y2413000D01*
G01X3934714Y2705128D01*
G01X4290495Y2705128D01*
G01X4292422Y2689258D01*
G01X4298090Y2674310D01*
G01X4307172Y2661154D01*
G01X4319138Y2650553D01*
G01X4333293Y2643123D01*
G01X4348815Y2639297D01*
G01X4364802Y2639297D01*
G01X4380324Y2643123D01*
G01X4394479Y2650553D01*
G01X4406445Y2661154D01*
G01X4415527Y2674310D01*
G01X4421196Y2689258D01*
G01X4423123Y2705128D01*
G01X4421196Y2720998D01*
G01X4415527Y2735946D01*
G01X4406445Y2749102D01*
G01X4394479Y2759703D01*
G01X4380324Y2767133D01*
G01X4364802Y2770959D01*
G01X4348815Y2770959D01*
G01X4333293Y2767133D01*
G01X4319138Y2759703D01*
G01X4307172Y2749102D01*
G01X4298090Y2735946D01*
G01X4292422Y2720998D01*
G01X4290495Y2705128D01*
G01X4290495Y2705128D01*
G01X3934714Y2705128D01*
G01X3934714Y2768644D01*
G01X4129198Y2963128D01*
G01X4136810Y2972404D01*
G01X4142467Y2982987D01*
G01X4145951Y2994471D01*
G01X4147127Y3006413D01*
G01X4147127Y3191187D01*
G01X4145951Y3203129D01*
G01X4142467Y3214613D01*
G01X4136810Y3225196D01*
G01X4129198Y3234472D01*
G01X4077248Y3286422D01*
G01X4456412Y3286422D01*
G01X4461522Y3287801D01*
G01X4465246Y3291564D01*
G01X4466571Y3296688D01*
G01X4465508Y3398122D01*
G01X4663186Y3200444D01*
G01X4663186Y2683039D01*
G01X4664362Y2671097D01*
G01X4667846Y2659613D01*
G01X4673502Y2649030D01*
G01X4681115Y2639754D01*
G01X5007143Y2313726D01*
G01X4991483Y2313774D01*
G01X4976248Y2310148D01*
G01X4962288Y2303050D01*
G01X4950381Y2292877D01*
G01X4941193Y2280195D01*
G01X4935234Y2265713D01*
G01X4932838Y2250236D01*
G01X4852016Y2169414D01*
G01X4071110Y2169414D01*
G01X4058026Y2178912D01*
G01X4043033Y2184963D01*
G01X4027021Y2187205D01*
G01X4010943Y2185505D01*
G01X3995754Y2179966D01*
G01X3982356Y2170915D01*
G01X3971547Y2158891D01*
G01X3963969Y2144609D01*
G01X3960072Y2128918D01*
G01X3960089Y2112750D01*
G01X3964017Y2097067D01*
G01X3971623Y2082800D01*
G01X3964212Y2069034D01*
G01X3960229Y2053916D01*
G01X3959897Y2038285D01*
G01X3963233Y2023011D01*
G01X3970052Y2008943D01*
G01X3979976Y1996861D01*
G01X3992452Y1987439D01*
G01X4006787Y1981200D01*
G01X3992283Y1974862D01*
G01X3979694Y1965266D01*
G01X3969738Y1952961D01*
G01X3962981Y1938647D01*
G01X3959809Y1923140D01*
G01X3960403Y1907322D01*
G01X3964728Y1892096D01*
G01X3972539Y1878329D01*
G01X3983389Y1866804D01*
G01X3996662Y1858180D01*
G01X4011600Y1852946D01*
G01X4027353Y1851402D01*
G01X4043023Y1853635D01*
G01X4057718Y1859518D01*
G01X4070600Y1868716D01*
G01X4080935Y1880704D01*
G01X4088135Y1894801D01*
G01X4091789Y1910202D01*
G01X4105895Y1896095D01*
G01X4115943Y1888386D01*
G01X4127644Y1883539D01*
G01X4140200Y1881886D01*
G01X4580559Y1881886D01*
G01X4569623Y1871571D01*
G01X4561292Y1859058D01*
G01X4555993Y1844990D01*
G01X4553999Y1830090D01*
G01X4555412Y1815124D01*
G01X4560160Y1800860D01*
G01X4567998Y1788033D01*
G01X4578524Y1777300D01*
G01X4591196Y1769214D01*
G01X4605365Y1764190D01*
G01X4620301Y1762486D01*
G01X4635237Y1764190D01*
G01X4649405Y1769214D01*
G01X4662078Y1777300D01*
G01X4672603Y1788033D01*
G01X4680442Y1800860D01*
G01X4685189Y1815124D01*
G01X4686602Y1830090D01*
G01X4684608Y1844990D01*
G01X4679309Y1859058D01*
G01X4670978Y1871571D01*
G01X4660043Y1881886D01*
G01X4678905Y1881886D01*
G01X4829795Y1730995D01*
G01X4833752Y1727451D01*
G01X4821024Y1722305D01*
G01X4809628Y1714649D01*
G01X4800053Y1704811D01*
G01X4792709Y1693212D01*
G01X4787911Y1680349D01*
G01X4785865Y1666774D01*
G01X4739547Y1620456D01*
G01X4658327Y1620456D01*
G01X4670332Y1630240D01*
G01X4679740Y1642542D01*
G01X4686038Y1656690D01*
G01X4688883Y1671913D01*
G01X4688120Y1687381D01*
G01X4683789Y1702250D01*
G01X4676128Y1715710D01*
G01X4665554Y1727025D01*
G01X4652644Y1735579D01*
G01X4638102Y1740906D01*
G01X4622721Y1742714D01*
G01X4607340Y1740906D01*
G01X4592798Y1735579D01*
G01X4579888Y1727025D01*
G01X4569314Y1715710D01*
G01X4561653Y1702250D01*
G01X4557323Y1687381D01*
G01X4556559Y1671913D01*
G01X4559404Y1656690D01*
G01X4565702Y1642542D01*
G01X4575110Y1630240D01*
G01X4587115Y1620456D01*
G01X4157486Y1620456D01*
G01X4167289Y1630977D01*
G01X4174593Y1643365D01*
G01X4179055Y1657036D01*
G01X4180465Y1671348D01*
G01X4178757Y1685626D01*
G01X4174010Y1699201D01*
G01X4166449Y1711434D01*
G01X4156428Y1721748D01*
G01X4144419Y1729660D01*
G01X4130987Y1734797D01*
G01X4116764Y1736918D01*
G01X4102418Y1735922D01*
G01X4088623Y1731857D01*
G01X4076030Y1724914D01*
G01X3937000Y1724914D01*
G01X3924444Y1723261D01*
G01X3912743Y1718414D01*
G01X3902695Y1710705D01*
G01X3828005Y1636014D01*
G01X3581400Y1636014D01*
G01X3568844Y1634361D01*
G01X3557143Y1629514D01*
G01X3547095Y1621805D01*
G01X3191495Y1266205D01*
G01X3183786Y1256157D01*
G01X3178939Y1244456D01*
G01X3177286Y1231900D01*
G01X3177286Y1149622D01*
G01X3121368Y1093704D01*
G01X3125339Y1109601D01*
G01X3125290Y1125985D01*
G01X3121227Y1141858D01*
G01X3113395Y1156250D01*
G01X3102274Y1168283D01*
G01X3088542Y1177221D01*
G01X3073037Y1182519D01*
G01X3056707Y1183855D01*
G01X3040548Y1181146D01*
G01X3025546Y1174557D01*
G01X3012618Y1164491D01*
G01X3002552Y1151563D01*
G01X2995963Y1136561D01*
G01X2993254Y1120402D01*
G01X2994589Y1104072D01*
G01X2999888Y1088567D01*
G01X3008826Y1074835D01*
G01X3020859Y1063714D01*
G01X3035250Y1055882D01*
G01X3051123Y1051818D01*
G01X3067508Y1051770D01*
G01X3083404Y1055741D01*
G01X3046436Y1018773D01*
G01X3031255Y1016459D01*
G01X3017013Y1010714D01*
G01X3004475Y1001848D01*
G01X2994311Y990336D01*
G01X2987069Y976794D01*
G01X2983135Y961950D01*
G01X2982722Y946599D01*
G01X2985850Y931564D01*
G01X2992353Y917652D01*
G01X3001882Y905609D01*
G01X3013925Y896080D01*
G01X3027837Y889578D01*
G01X3042871Y886449D01*
G01X3058222Y886863D01*
G01X3073067Y890796D01*
G01X3086608Y898039D01*
G01X3098121Y908202D01*
G01X3106987Y920741D01*
G01X3112731Y934982D01*
G01X3115046Y950164D01*
G01X3124379Y959497D01*
G01X3121505Y943774D01*
G01X3122477Y927820D01*
G01X3127238Y912562D01*
G01X3135512Y898886D01*
G01X3146817Y887587D01*
G01X3160498Y879322D01*
G01X3175758Y874570D01*
G01X3191713Y873607D01*
G01X3207434Y876490D01*
G01X3222009Y883051D01*
G01X3234591Y892909D01*
G01X3244449Y905491D01*
G01X3251010Y920066D01*
G01X3253893Y935787D01*
G01X3252930Y951742D01*
G01X3248178Y967002D01*
G01X3239913Y980683D01*
G01X3228614Y991988D01*
G01X3214938Y1000262D01*
G01X3199680Y1005023D01*
G01X3183726Y1005995D01*
G01X3168003Y1003121D01*
G01X3260105Y1095223D01*
G01X3267814Y1105270D01*
G01X3272661Y1116971D01*
G01X3274314Y1129527D01*
G01X3274314Y1211805D01*
G01X3360374Y1297865D01*
G01X3370712Y1285341D01*
G01X3383784Y1275705D01*
G01X3398806Y1269535D01*
G01X3414878Y1267201D01*
G01X3413538Y1251063D01*
G01X3416150Y1235081D01*
G01X3422557Y1220209D01*
G01X3432378Y1207333D01*
G01X3445026Y1197222D01*
G01X3459749Y1190477D01*
G01X3475667Y1187502D01*
G01X3491831Y1188474D01*
G01X3507279Y1193334D01*
G01X3521087Y1201794D01*
G01X3532433Y1213348D01*
G01X3540641Y1227307D01*
G01X3545221Y1242840D01*
G01X3545899Y1259019D01*
G01X3542636Y1274881D01*
G01X3535626Y1289479D01*
G01X3525287Y1301942D01*
G01X3512235Y1311528D01*
G01X3497249Y1317664D01*
G01X3481222Y1319986D01*
G01X3482573Y1331164D01*
G01X3555705Y1404296D01*
G01X3561861Y1389608D01*
G01X3571341Y1376812D01*
G01X3583599Y1366645D01*
G01X3597927Y1359693D01*
G01X3613500Y1356358D01*
G01X3629418Y1356832D01*
G01X3631803Y1341158D01*
G01X3637841Y1326498D01*
G01X3647186Y1313690D01*
G01X3647186Y1028700D01*
G01X3648839Y1016144D01*
G01X3653686Y1004443D01*
G01X3661395Y994395D01*
G01X3768095Y887696D01*
G01X3778143Y879986D01*
G01X3789843Y875139D01*
G01X3802400Y873486D01*
G01X5801605Y873486D01*
G01X5972795Y702295D01*
G01X5982843Y694586D01*
G01X5994544Y689739D01*
G01X6007100Y688086D01*
G01X6125137Y688086D01*
G01X6112579Y671756D01*
G01X6103112Y653460D01*
G01X6097038Y633776D01*
G01X6094546Y613327D01*
G01X6095717Y592760D01*
G01X6100513Y572726D01*
G01X6108783Y553858D01*
G01X6120265Y536754D01*
G01X6134595Y521955D01*
G01X6151320Y509929D01*
G01X6169912Y501057D01*
G01X6189781Y495618D01*
G01X6210300Y493786D01*
G01X6230819Y495618D01*
G01X6250688Y501057D01*
G01X6269280Y509929D01*
G01X6286005Y521955D01*
G01X6300335Y536754D01*
G01X6311817Y553858D01*
G01X6320087Y572726D01*
G01X6324883Y592760D01*
G01X6326054Y613327D01*
G01X6323562Y633776D01*
G01X6317488Y653460D01*
G01X6308021Y671756D01*
G01X6295463Y688086D01*
G01X6379137Y688086D01*
G01X6366112Y671016D01*
G01X6356462Y651835D01*
G01X6350519Y631203D01*
G01X6348486Y609827D01*
G01X6350435Y588444D01*
G01X6356297Y567789D01*
G01X6365872Y548570D01*
G01X6378829Y531449D01*
G01X6394725Y517014D01*
G01X6413012Y505762D01*
G01X6433062Y498079D01*
G01X6454185Y494229D01*
G01X6475656Y494344D01*
G01X6496737Y498421D01*
G01X6516703Y506320D01*
G01X6534868Y517769D01*
G01X6550607Y532374D01*
G01X6563380Y549633D01*
G01X6572747Y568954D01*
G01X6578386Y589671D01*
G01X6580104Y611074D01*
G01X6577842Y632426D01*
G01X6571677Y652994D01*
G01X6561821Y672070D01*
G01X6575827Y658064D01*
G01X6578141Y642882D01*
G01X6583886Y628641D01*
G01X6592752Y616102D01*
G01X6604264Y605939D01*
G01X6617806Y598696D01*
G01X6632650Y594763D01*
G01X6648001Y594349D01*
G01X6663036Y597478D01*
G01X6676948Y603980D01*
G01X6688991Y613509D01*
G01X6698520Y625552D01*
G01X6705022Y639464D01*
G01X6708151Y654499D01*
G01X6707737Y669850D01*
G01X6703804Y684694D01*
G01X6696561Y698236D01*
G01X6686398Y709748D01*
G01X6673859Y718614D01*
G01X6659618Y724359D01*
G01X6644436Y726673D01*
G01X6600205Y770905D01*
G01X6590157Y778614D01*
G01X6578456Y783461D01*
G01X6565900Y785114D01*
G01X6549463Y785114D01*
G01X6562021Y801444D01*
G01X6571488Y819740D01*
G01X6577562Y839424D01*
G01X6580054Y859873D01*
G01X6578883Y880440D01*
G01X6574087Y900474D01*
G01X6565817Y919342D01*
G01X6554335Y936446D01*
G01X6540005Y951245D01*
G01X6523280Y963271D01*
G01X6504688Y972143D01*
G01X6484819Y977582D01*
G01X6464300Y979414D01*
G01X6443781Y977582D01*
G01X6423912Y972143D01*
G01X6405320Y963271D01*
G01X6388595Y951245D01*
G01X6374265Y936446D01*
G01X6362783Y919342D01*
G01X6354513Y900474D01*
G01X6349717Y880440D01*
G01X6348546Y859873D01*
G01X6351038Y839424D01*
G01X6357112Y819740D01*
G01X6366579Y801444D01*
G01X6379137Y785114D01*
G01X6295463Y785114D01*
G01X6308021Y801444D01*
G01X6317488Y819740D01*
G01X6323562Y839424D01*
G01X6326054Y859873D01*
G01X6324883Y880440D01*
G01X6320087Y900474D01*
G01X6311817Y919342D01*
G01X6300335Y936446D01*
G01X6286005Y951245D01*
G01X6269280Y963271D01*
G01X6250688Y972143D01*
G01X6230819Y977582D01*
G01X6210300Y979414D01*
G01X6189781Y977582D01*
G01X6169912Y972143D01*
G01X6151320Y963271D01*
G01X6134595Y951245D01*
G01X6120265Y936446D01*
G01X6108783Y919342D01*
G01X6100513Y900474D01*
G01X6095717Y880440D01*
G01X6094546Y859873D01*
G01X6097038Y839424D01*
G01X6103112Y819740D01*
G01X6112579Y801444D01*
G01X6125137Y785114D01*
G01X6027195Y785114D01*
G01X5856004Y956305D01*
G01X5847995Y962770D01*
G01X5838802Y967400D01*
G01X5828838Y969986D01*
G01X5857200Y969986D01*
G01X5869756Y971639D01*
G01X5881457Y976486D01*
G01X5891505Y984196D01*
G01X6035595Y1128286D01*
G01X6094980Y1128286D01*
G01X6094980Y1106914D01*
G01X6098907Y1085906D01*
G01X6106628Y1065977D01*
G01X6117879Y1047807D01*
G01X6132277Y1032013D01*
G01X6149332Y1019133D01*
G01X6168463Y1009607D01*
G01X6189019Y1003758D01*
G01X6210300Y1001786D01*
G01X6210300Y1001786D01*
G01X6231581Y1003758D01*
G01X6252137Y1009607D01*
G01X6271268Y1019133D01*
G01X6288323Y1032013D01*
G01X6302721Y1047807D01*
G01X6313972Y1065977D01*
G01X6321693Y1085906D01*
G01X6325620Y1106914D01*
G01X6325620Y1128286D01*
G01X6325620Y1128286D01*
G01X6348980Y1128286D01*
G01X6348980Y1106914D01*
G01X6352907Y1085906D01*
G01X6360628Y1065977D01*
G01X6371879Y1047807D01*
G01X6386277Y1032013D01*
G01X6403332Y1019133D01*
G01X6422463Y1009607D01*
G01X6443019Y1003758D01*
G01X6464300Y1001786D01*
G01X6464300Y1001786D01*
G01X6485581Y1003758D01*
G01X6506137Y1009607D01*
G01X6525268Y1019133D01*
G01X6542323Y1032013D01*
G01X6556721Y1047807D01*
G01X6567972Y1065977D01*
G01X6575693Y1085906D01*
G01X6579620Y1106914D01*
G01X6579620Y1128286D01*
G01X6575693Y1149294D01*
G01X6567972Y1169223D01*
G01X6556721Y1187393D01*
G01X6542323Y1203187D01*
G01X6525268Y1216067D01*
G01X6506137Y1225593D01*
G01X6485581Y1231442D01*
G01X6464300Y1233414D01*
G01X6443019Y1231442D01*
G01X6422463Y1225593D01*
G01X6403332Y1216067D01*
G01X6386277Y1203187D01*
G01X6371879Y1187393D01*
G01X6360628Y1169223D01*
G01X6352907Y1149294D01*
G01X6348980Y1128286D01*
G01X6325620Y1128286D01*
G01X6321693Y1149294D01*
G01X6313972Y1169223D01*
G01X6302721Y1187393D01*
G01X6288323Y1203187D01*
G01X6271268Y1216067D01*
G01X6252137Y1225593D01*
G01X6231581Y1231442D01*
G01X6210300Y1233414D01*
G01X6189019Y1231442D01*
G01X6168463Y1225593D01*
G01X6149332Y1216067D01*
G01X6132277Y1203187D01*
G01X6117879Y1187393D01*
G01X6106628Y1169223D01*
G01X6098907Y1149294D01*
G01X6094980Y1128286D01*
G01X6035595Y1128286D01*
G01X6170243Y1262934D01*
G01X6188839Y1257792D01*
G01X6208031Y1255808D01*
G01X6227285Y1257038D01*
G01X6246068Y1261448D01*
G01X6263859Y1268915D01*
G01X6280163Y1279231D01*
G01X6294528Y1292111D01*
G01X6306555Y1307197D01*
G01X6315912Y1324071D01*
G01X6322337Y1342263D01*
G01X6325652Y1361270D01*
G01X6325766Y1380563D01*
G01X6322676Y1399608D01*
G01X6316467Y1417875D01*
G01X6307311Y1434859D01*
G01X6295463Y1450086D01*
G01X6379137Y1450086D01*
G01X6366579Y1433756D01*
G01X6357112Y1415460D01*
G01X6351038Y1395776D01*
G01X6348546Y1375327D01*
G01X6349717Y1354760D01*
G01X6354513Y1334726D01*
G01X6362783Y1315858D01*
G01X6374265Y1298754D01*
G01X6388595Y1283955D01*
G01X6405320Y1271929D01*
G01X6423912Y1263057D01*
G01X6443781Y1257618D01*
G01X6464300Y1255786D01*
G01X6484819Y1257618D01*
G01X6504688Y1263057D01*
G01X6523280Y1271929D01*
G01X6540005Y1283955D01*
G01X6554335Y1298754D01*
G01X6565817Y1315858D01*
G01X6574087Y1334726D01*
G01X6578883Y1354760D01*
G01X6580054Y1375327D01*
G01X6577562Y1395776D01*
G01X6571488Y1415460D01*
G01X6562021Y1433756D01*
G01X6549463Y1450086D01*
G01X6756400Y1450086D01*
G01X6768956Y1451739D01*
G01X6780657Y1456586D01*
G01X6790705Y1464295D01*
G01X7057405Y1730995D01*
G01X7065114Y1741043D01*
G01X7069961Y1752744D01*
G01X7071614Y1765300D01*
G01X7071614Y3189171D01*
G01X7069961Y3201727D01*
G01X7065114Y3213428D01*
G01X7057405Y3223475D01*
G01X7034878Y3246001D01*
G01X7032564Y3261183D01*
G01X7026820Y3275425D01*
G01X7017954Y3287963D01*
G01X7006441Y3298126D01*
G01X6992900Y3305369D01*
G01X6978055Y3309302D01*
G01X6962704Y3309716D01*
G01X6947669Y3306588D01*
G01X6933758Y3300085D01*
G01X6921714Y3290556D01*
G01X6912186Y3278513D01*
G01X6905683Y3264601D01*
G01X6902555Y3249567D01*
G01X6902968Y3234215D01*
G01X6906902Y3219371D01*
G01X6914144Y3205830D01*
G01X6924307Y3194317D01*
G01X6936846Y3185451D01*
G01X6951088Y3179707D01*
G01X6966269Y3177392D01*
G01X6974586Y3169076D01*
G01X6974586Y2731876D01*
G01X6961998Y2739653D01*
G01X6947998Y2744445D01*
G01X6933285Y2746013D01*
G01X6918590Y2744280D01*
G01X6904645Y2739331D01*
G01X6892144Y2731414D01*
G01X6881711Y2720921D01*
G01X6873864Y2708377D01*
G01X6868993Y2694404D01*
G01X6867342Y2679700D01*
G01X6868993Y2664996D01*
G01X6873864Y2651023D01*
G01X6881711Y2638479D01*
G01X6892144Y2627986D01*
G01X6904645Y2620069D01*
G01X6918590Y2615120D01*
G01X6933285Y2613387D01*
G01X6947998Y2614955D01*
G01X6961998Y2619747D01*
G01X6974586Y2627524D01*
G01X6974586Y1785395D01*
G01X6736305Y1547114D01*
G01X6549463Y1547114D01*
G01X6562021Y1563444D01*
G01X6571488Y1581740D01*
G01X6577562Y1601424D01*
G01X6580054Y1621873D01*
G01X6578883Y1642440D01*
G01X6574087Y1662474D01*
G01X6565817Y1681342D01*
G01X6554335Y1698446D01*
G01X6540005Y1713245D01*
G01X6523280Y1725271D01*
G01X6504688Y1734143D01*
G01X6484819Y1739582D01*
G01X6464300Y1741414D01*
G01X6443781Y1739582D01*
G01X6423912Y1734143D01*
G01X6405320Y1725271D01*
G01X6388595Y1713245D01*
G01X6374265Y1698446D01*
G01X6362783Y1681342D01*
G01X6354513Y1662474D01*
G01X6349717Y1642440D01*
G01X6348546Y1621873D01*
G01X6351038Y1601424D01*
G01X6357112Y1581740D01*
G01X6366579Y1563444D01*
G01X6379137Y1547114D01*
G01X6295463Y1547114D01*
G01X6308021Y1563444D01*
G01X6317488Y1581740D01*
G01X6323562Y1601424D01*
G01X6326054Y1621873D01*
G01X6324883Y1642440D01*
G01X6320087Y1662474D01*
G01X6311817Y1681342D01*
G01X6300335Y1698446D01*
G01X6286005Y1713245D01*
G01X6269280Y1725271D01*
G01X6250688Y1734143D01*
G01X6230819Y1739582D01*
G01X6210300Y1741414D01*
G01X6189781Y1739582D01*
G01X6169912Y1734143D01*
G01X6151320Y1725271D01*
G01X6134595Y1713245D01*
G01X6120265Y1698446D01*
G01X6108783Y1681342D01*
G01X6100513Y1662474D01*
G01X6095717Y1642440D01*
G01X6094546Y1621873D01*
G01X6097038Y1601424D01*
G01X6103112Y1581740D01*
G01X6112579Y1563444D01*
G01X6125137Y1547114D01*
G01X6032500Y1547114D01*
G01X6019944Y1545461D01*
G01X6008243Y1540614D01*
G01X5998195Y1532905D01*
G01X5638672Y1173382D01*
G01X5524171Y1173382D01*
G01X5517489Y1178841D01*
G01X5510156Y1183386D01*
G01X5562600Y1183386D01*
G01X5575156Y1185039D01*
G01X5586857Y1189886D01*
G01X5596905Y1197595D01*
G01X6170243Y1770934D01*
G01X6190416Y1765506D01*
G01X6211236Y1763790D01*
G01X6232025Y1765842D01*
G01X6252108Y1771595D01*
G01X6270830Y1780863D01*
G01X6287582Y1793343D01*
G01X6301821Y1808630D01*
G01X6313081Y1826225D01*
G01X6320998Y1845558D01*
G01X6325312Y1865998D01*
G01X6325885Y1886880D01*
G01X6325359Y1890286D01*
G01X6348980Y1890286D01*
G01X6348980Y1868914D01*
G01X6352907Y1847906D01*
G01X6360628Y1827977D01*
G01X6371879Y1809807D01*
G01X6386277Y1794013D01*
G01X6403332Y1781133D01*
G01X6422463Y1771607D01*
G01X6443019Y1765758D01*
G01X6464300Y1763786D01*
G01X6464300Y1763786D01*
G01X6485581Y1765758D01*
G01X6506137Y1771607D01*
G01X6525268Y1781133D01*
G01X6542323Y1794013D01*
G01X6556721Y1809807D01*
G01X6567972Y1827977D01*
G01X6575693Y1847906D01*
G01X6579620Y1868914D01*
G01X6579620Y1890286D01*
G01X6575693Y1911294D01*
G01X6567972Y1931223D01*
G01X6556721Y1949393D01*
G01X6542323Y1965187D01*
G01X6525268Y1978067D01*
G01X6506137Y1987593D01*
G01X6485581Y1993442D01*
G01X6464300Y1995414D01*
G01X6443019Y1993442D01*
G01X6422463Y1987593D01*
G01X6403332Y1978067D01*
G01X6386277Y1965187D01*
G01X6371879Y1949393D01*
G01X6360628Y1931223D01*
G01X6352907Y1911294D01*
G01X6348980Y1890286D01*
G01X6325359Y1890286D01*
G01X6322697Y1907526D01*
G01X6315851Y1927263D01*
G01X6305572Y1945449D01*
G01X6292193Y1961493D01*
G01X6276149Y1974872D01*
G01X6257963Y1985151D01*
G01X6238226Y1991997D01*
G01X6217580Y1995185D01*
G01X6196698Y1994612D01*
G01X6176258Y1990298D01*
G01X6156925Y1982381D01*
G01X6139330Y1971121D01*
G01X6124043Y1956882D01*
G01X6111563Y1940130D01*
G01X6102295Y1921408D01*
G01X6096542Y1901325D01*
G01X6094490Y1880536D01*
G01X6096206Y1859716D01*
G01X6101634Y1839543D01*
G01X5542505Y1280414D01*
G01X4312695Y1280414D01*
G01X4047505Y1545605D01*
G01X4046293Y1546775D01*
G01X4057966Y1546922D01*
G01X4069433Y1549113D01*
G01X4080338Y1553282D01*
G01X4095996Y1537630D01*
G01X4106042Y1529924D01*
G01X4117740Y1525080D01*
G01X4130293Y1523428D01*
G01X4759642Y1523428D01*
G01X4772198Y1525081D01*
G01X4783899Y1529927D01*
G01X4793946Y1537637D01*
G01X4853743Y1597434D01*
G01X4869925Y1599852D01*
G01X4885023Y1606159D01*
G01X4898116Y1615970D01*
G01X4908409Y1628688D01*
G01X4915275Y1643540D01*
G01X4918295Y1659621D01*
G01X4917286Y1675951D01*
G01X4912310Y1691538D01*
G01X4903668Y1705431D01*
G01X4891888Y1716786D01*
G01X4920205Y1716786D01*
G01X4942586Y1694405D01*
G01X4942586Y1484555D01*
G01X4928394Y1477225D01*
G01X4916367Y1466715D01*
G01X4907202Y1453633D01*
G01X4901430Y1438739D01*
G01X4899388Y1422897D01*
G01X4901193Y1407027D01*
G01X4906740Y1392048D01*
G01X4915708Y1378830D01*
G01X4927576Y1368140D01*
G01X4941657Y1360598D01*
G01X4957132Y1356642D01*
G01X4973104Y1356501D01*
G01X4988647Y1360183D01*
G01X5002858Y1367474D01*
G01X5014914Y1377953D01*
G01X5024114Y1391010D01*
G01X5029926Y1405888D01*
G01X5032011Y1421725D01*
G01X5037674Y1434219D01*
G01X5039614Y1447800D01*
G01X5039614Y1714500D01*
G01X5037961Y1727056D01*
G01X5033114Y1738757D01*
G01X5025405Y1748805D01*
G01X4974605Y1799605D01*
G01X4964557Y1807314D01*
G01X4952856Y1812161D01*
G01X4940300Y1813814D01*
G01X4884195Y1813814D01*
G01X4733305Y1964705D01*
G01X4723257Y1972414D01*
G01X4711556Y1977261D01*
G01X4699000Y1978914D01*
G01X4160295Y1978914D01*
G01X4155673Y1983536D01*
G01X4153999Y1996186D01*
G01X4318000Y1996186D01*
G01X4329852Y1997656D01*
G01X4340985Y2001976D01*
G01X4350726Y2008886D01*
G01X4903003Y2008886D01*
G01X4907626Y2004264D01*
G01X4909940Y1989082D01*
G01X4915684Y1974841D01*
G01X4924551Y1962302D01*
G01X4936063Y1952139D01*
G01X4949605Y1944896D01*
G01X4964449Y1940963D01*
G01X4979800Y1940549D01*
G01X4994835Y1943678D01*
G01X5008747Y1950180D01*
G01X5020790Y1959709D01*
G01X5030318Y1971752D01*
G01X5036821Y1985664D01*
G01X5039950Y2000699D01*
G01X5039536Y2016050D01*
G01X5035602Y2030894D01*
G01X5028360Y2044436D01*
G01X5018197Y2055948D01*
G01X5005658Y2064814D01*
G01X4991416Y2070559D01*
G01X4976235Y2072873D01*
G01X4957403Y2091705D01*
G01X4948093Y2098980D01*
G01X4937301Y2103789D01*
G01X4925666Y2105846D01*
G01X5001447Y2181627D01*
G01X5016924Y2184023D01*
G01X5031407Y2189981D01*
G01X5044088Y2199170D01*
G01X5054262Y2211076D01*
G01X5061359Y2225036D01*
G01X5064985Y2240272D01*
G01X5064937Y2255932D01*
G01X5098221Y2222648D01*
G01X5104363Y2211114D01*
G01X5112648Y2201009D01*
G01X5122753Y2192724D01*
G01X5134287Y2186582D01*
G01X5717060Y1603810D01*
G01X5724221Y1589261D01*
G01X5734699Y1576884D01*
G01X5747867Y1567421D01*
G01X5762938Y1561437D01*
G01X5779011Y1559289D01*
G01X5795125Y1561107D01*
G01X5810316Y1566781D01*
G01X5823676Y1575972D01*
G01X5834405Y1588131D01*
G01X5841863Y1602530D01*
G01X5845603Y1618309D01*
G01X5845402Y1634523D01*
G01X5841272Y1650204D01*
G01X5833459Y1664414D01*
G01X5822432Y1676303D01*
G01X5808848Y1685160D01*
G01X5349723Y2144286D01*
G01X6094980Y2144286D01*
G01X6094980Y2122914D01*
G01X6098907Y2101906D01*
G01X6106628Y2081977D01*
G01X6117879Y2063807D01*
G01X6132277Y2048013D01*
G01X6149332Y2035133D01*
G01X6168463Y2025607D01*
G01X6189019Y2019758D01*
G01X6210300Y2017786D01*
G01X6210300Y2017786D01*
G01X6231581Y2019758D01*
G01X6252137Y2025607D01*
G01X6271268Y2035133D01*
G01X6288323Y2048013D01*
G01X6302721Y2063807D01*
G01X6313972Y2081977D01*
G01X6321693Y2101906D01*
G01X6325620Y2122914D01*
G01X6325620Y2144286D01*
G01X6325620Y2144286D01*
G01X6348980Y2144286D01*
G01X6348980Y2122914D01*
G01X6352907Y2101906D01*
G01X6360628Y2081977D01*
G01X6371879Y2063807D01*
G01X6386277Y2048013D01*
G01X6403332Y2035133D01*
G01X6422463Y2025607D01*
G01X6443019Y2019758D01*
G01X6464300Y2017786D01*
G01X6464300Y2017786D01*
G01X6485581Y2019758D01*
G01X6506137Y2025607D01*
G01X6525268Y2035133D01*
G01X6542323Y2048013D01*
G01X6556721Y2063807D01*
G01X6567972Y2081977D01*
G01X6575693Y2101906D01*
G01X6579620Y2122914D01*
G01X6579620Y2144286D01*
G01X6575693Y2165294D01*
G01X6567972Y2185223D01*
G01X6556721Y2203393D01*
G01X6542323Y2219187D01*
G01X6525268Y2232067D01*
G01X6506137Y2241593D01*
G01X6485581Y2247442D01*
G01X6464300Y2249414D01*
G01X6443019Y2247442D01*
G01X6422463Y2241593D01*
G01X6403332Y2232067D01*
G01X6386277Y2219187D01*
G01X6371879Y2203393D01*
G01X6360628Y2185223D01*
G01X6352907Y2165294D01*
G01X6348980Y2144286D01*
G01X6325620Y2144286D01*
G01X6321693Y2165294D01*
G01X6313972Y2185223D01*
G01X6302721Y2203393D01*
G01X6288323Y2219187D01*
G01X6271268Y2232067D01*
G01X6252137Y2241593D01*
G01X6231581Y2247442D01*
G01X6210300Y2249414D01*
G01X6189019Y2247442D01*
G01X6168463Y2241593D01*
G01X6149332Y2232067D01*
G01X6132277Y2219187D01*
G01X6117879Y2203393D01*
G01X6106628Y2185223D01*
G01X6098907Y2165294D01*
G01X6094980Y2144286D01*
G01X5349723Y2144286D01*
G01X5220857Y2273152D01*
G01X5214715Y2284686D01*
G01X5206430Y2294791D01*
G01X5196324Y2303076D01*
G01X5184790Y2309218D01*
G01X4785614Y2708394D01*
G01X4785614Y2716203D01*
G01X5369293Y2716203D01*
G01X5371289Y2700977D01*
G01X5376734Y2686619D01*
G01X5385335Y2673898D01*
G01X5396631Y2663496D01*
G01X5410018Y2655972D01*
G01X5424775Y2651728D01*
G01X5440114Y2650992D01*
G01X5455210Y2653804D01*
G01X5469255Y2660013D01*
G01X5481495Y2669286D01*
G01X5809205Y2669286D01*
G01X5998195Y2480295D01*
G01X6008243Y2472586D01*
G01X6019944Y2467739D01*
G01X6032500Y2466086D01*
G01X6125137Y2466086D01*
G01X6112579Y2449756D01*
G01X6103112Y2431460D01*
G01X6097038Y2411776D01*
G01X6094546Y2391327D01*
G01X6095717Y2370760D01*
G01X6100513Y2350726D01*
G01X6108783Y2331858D01*
G01X6120265Y2314754D01*
G01X6134595Y2299955D01*
G01X6151320Y2287929D01*
G01X6169912Y2279057D01*
G01X6189781Y2273618D01*
G01X6210300Y2271786D01*
G01X6230819Y2273618D01*
G01X6250688Y2279057D01*
G01X6269280Y2287929D01*
G01X6286005Y2299955D01*
G01X6300335Y2314754D01*
G01X6311817Y2331858D01*
G01X6320087Y2350726D01*
G01X6324883Y2370760D01*
G01X6326054Y2391327D01*
G01X6323562Y2411776D01*
G01X6317488Y2431460D01*
G01X6308021Y2449756D01*
G01X6295463Y2466086D01*
G01X6317205Y2466086D01*
G01X6355634Y2427657D01*
G01X6350206Y2407484D01*
G01X6348490Y2386664D01*
G01X6350542Y2365875D01*
G01X6356295Y2345792D01*
G01X6365563Y2327070D01*
G01X6378043Y2310318D01*
G01X6393330Y2296079D01*
G01X6410925Y2284819D01*
G01X6430258Y2276902D01*
G01X6450698Y2272588D01*
G01X6471580Y2272015D01*
G01X6492226Y2275203D01*
G01X6511963Y2282049D01*
G01X6530149Y2292328D01*
G01X6546193Y2305707D01*
G01X6559572Y2321751D01*
G01X6569851Y2339937D01*
G01X6576697Y2359674D01*
G01X6579885Y2380320D01*
G01X6579312Y2401202D01*
G01X6574998Y2421642D01*
G01X6567081Y2440975D01*
G01X6555821Y2458570D01*
G01X6541582Y2473857D01*
G01X6524830Y2486337D01*
G01X6506108Y2495605D01*
G01X6486025Y2501358D01*
G01X6465236Y2503410D01*
G01X6444416Y2501694D01*
G01X6424243Y2496266D01*
G01X6371605Y2548905D01*
G01X6361557Y2556614D01*
G01X6349856Y2561461D01*
G01X6337300Y2563114D01*
G01X6295463Y2563114D01*
G01X6308021Y2579444D01*
G01X6317488Y2597740D01*
G01X6323562Y2617424D01*
G01X6326054Y2637873D01*
G01X6325233Y2652286D01*
G01X6348980Y2652286D01*
G01X6348980Y2630914D01*
G01X6352907Y2609906D01*
G01X6360628Y2589977D01*
G01X6371879Y2571807D01*
G01X6386277Y2556013D01*
G01X6403332Y2543133D01*
G01X6422463Y2533607D01*
G01X6443019Y2527758D01*
G01X6464300Y2525786D01*
G01X6464300Y2525786D01*
G01X6485581Y2527758D01*
G01X6506137Y2533607D01*
G01X6525268Y2543133D01*
G01X6542323Y2556013D01*
G01X6556721Y2571807D01*
G01X6567972Y2589977D01*
G01X6575693Y2609906D01*
G01X6579620Y2630914D01*
G01X6579620Y2652286D01*
G01X6575693Y2673294D01*
G01X6567972Y2693223D01*
G01X6556721Y2711393D01*
G01X6542323Y2727187D01*
G01X6525268Y2740067D01*
G01X6506137Y2749593D01*
G01X6485581Y2755442D01*
G01X6464300Y2757414D01*
G01X6443019Y2755442D01*
G01X6422463Y2749593D01*
G01X6403332Y2740067D01*
G01X6386277Y2727187D01*
G01X6371879Y2711393D01*
G01X6360628Y2693223D01*
G01X6352907Y2673294D01*
G01X6348980Y2652286D01*
G01X6325233Y2652286D01*
G01X6324883Y2658440D01*
G01X6320087Y2678474D01*
G01X6311817Y2697342D01*
G01X6300335Y2714446D01*
G01X6286005Y2729245D01*
G01X6269280Y2741271D01*
G01X6250688Y2750143D01*
G01X6230819Y2755582D01*
G01X6210300Y2757414D01*
G01X6189781Y2755582D01*
G01X6169912Y2750143D01*
G01X6151320Y2741271D01*
G01X6134595Y2729245D01*
G01X6120265Y2714446D01*
G01X6108783Y2697342D01*
G01X6100513Y2678474D01*
G01X6095717Y2658440D01*
G01X6094546Y2637873D01*
G01X6097038Y2617424D01*
G01X6103112Y2597740D01*
G01X6112579Y2579444D01*
G01X6125137Y2563114D01*
G01X6052595Y2563114D01*
G01X5863605Y2752105D01*
G01X5863605Y2752105D01*
G01X5853557Y2759814D01*
G01X5841856Y2764661D01*
G01X5829300Y2766314D01*
G01X5480105Y2766314D01*
G01X5467604Y2775232D01*
G01X5453388Y2781036D01*
G01X5438217Y2783415D01*
G01X5422906Y2782240D01*
G01X5408276Y2777576D01*
G01X5395111Y2769671D01*
G01X5384117Y2758950D01*
G01X5375883Y2745988D01*
G01X5370852Y2731479D01*
G01X5369293Y2716203D01*
G01X4785614Y2716203D01*
G01X4785614Y2977700D01*
G01X5063558Y2977700D01*
G01X5063971Y2962349D01*
G01X5067905Y2947505D01*
G01X5075147Y2933963D01*
G01X5085311Y2922451D01*
G01X5097849Y2913585D01*
G01X5112091Y2907840D01*
G01X5127272Y2905526D01*
G01X5184203Y2848595D01*
G01X5194250Y2840886D01*
G01X5205951Y2836039D01*
G01X5218507Y2834386D01*
G01X5537276Y2834386D01*
G01X5549661Y2825307D01*
G01X5563803Y2819319D01*
G01X5578942Y2816746D01*
G01X5594268Y2817723D01*
G01X5608957Y2822200D01*
G01X5622224Y2829935D01*
G01X5633355Y2840514D01*
G01X5641754Y2853370D01*
G01X5646971Y2867814D01*
G01X5648726Y2883070D01*
G01X5646925Y2898320D01*
G01X5644020Y2906286D01*
G01X6094980Y2906286D01*
G01X6094980Y2884914D01*
G01X6098907Y2863906D01*
G01X6106628Y2843977D01*
G01X6117879Y2825807D01*
G01X6132277Y2810013D01*
G01X6149332Y2797133D01*
G01X6168463Y2787607D01*
G01X6189019Y2781758D01*
G01X6210300Y2779786D01*
G01X6210300Y2779786D01*
G01X6231581Y2781758D01*
G01X6252137Y2787607D01*
G01X6271268Y2797133D01*
G01X6288323Y2810013D01*
G01X6302721Y2825807D01*
G01X6313972Y2843977D01*
G01X6321693Y2863906D01*
G01X6325620Y2884914D01*
G01X6325620Y2906286D01*
G01X6325620Y2906286D01*
G01X6348980Y2906286D01*
G01X6348980Y2884914D01*
G01X6352907Y2863906D01*
G01X6360628Y2843977D01*
G01X6371879Y2825807D01*
G01X6386277Y2810013D01*
G01X6403332Y2797133D01*
G01X6422463Y2787607D01*
G01X6443019Y2781758D01*
G01X6464300Y2779786D01*
G01X6464300Y2779786D01*
G01X6485581Y2781758D01*
G01X6506137Y2787607D01*
G01X6525268Y2797133D01*
G01X6542323Y2810013D01*
G01X6556721Y2825807D01*
G01X6567972Y2843977D01*
G01X6575693Y2863906D01*
G01X6576869Y2870200D01*
G01X6601186Y2870200D01*
G01X6603113Y2854330D01*
G01X6608782Y2839382D01*
G01X6617863Y2826226D01*
G01X6629829Y2815625D01*
G01X6643985Y2808195D01*
G01X6659507Y2804369D01*
G01X6675493Y2804369D01*
G01X6691015Y2808195D01*
G01X6705171Y2815625D01*
G01X6717137Y2826226D01*
G01X6726218Y2839382D01*
G01X6731887Y2854330D01*
G01X6733814Y2870200D01*
G01X6731887Y2886070D01*
G01X6726218Y2901018D01*
G01X6717137Y2914174D01*
G01X6705171Y2924775D01*
G01X6691015Y2932205D01*
G01X6675493Y2936031D01*
G01X6659507Y2936031D01*
G01X6643985Y2932205D01*
G01X6629829Y2924775D01*
G01X6617863Y2914174D01*
G01X6608782Y2901018D01*
G01X6603113Y2886070D01*
G01X6601186Y2870200D01*
G01X6601186Y2870200D01*
G01X6576869Y2870200D01*
G01X6579620Y2884914D01*
G01X6579620Y2906286D01*
G01X6575693Y2927294D01*
G01X6567972Y2947223D01*
G01X6556721Y2965393D01*
G01X6542323Y2981187D01*
G01X6525268Y2994067D01*
G01X6506137Y3003593D01*
G01X6485581Y3009442D01*
G01X6464300Y3011414D01*
G01X6443019Y3009442D01*
G01X6422463Y3003593D01*
G01X6403332Y2994067D01*
G01X6386277Y2981187D01*
G01X6371879Y2965393D01*
G01X6360628Y2947223D01*
G01X6352907Y2927294D01*
G01X6348980Y2906286D01*
G01X6325620Y2906286D01*
G01X6321693Y2927294D01*
G01X6313972Y2947223D01*
G01X6302721Y2965393D01*
G01X6288323Y2981187D01*
G01X6271268Y2994067D01*
G01X6252137Y3003593D01*
G01X6231581Y3009442D01*
G01X6210300Y3011414D01*
G01X6189019Y3009442D01*
G01X6168463Y3003593D01*
G01X6149332Y2994067D01*
G01X6132277Y2981187D01*
G01X6117879Y2965393D01*
G01X6106628Y2947223D01*
G01X6098907Y2927294D01*
G01X6094980Y2906286D01*
G01X5644020Y2906286D01*
G01X5641664Y2912748D01*
G01X5633225Y2925578D01*
G01X5622062Y2936124D01*
G01X5608772Y2943819D01*
G01X5594069Y2948250D01*
G01X5578740Y2949181D01*
G01X5563609Y2946561D01*
G01X5549486Y2940531D01*
G01X5537128Y2931414D01*
G01X5238603Y2931414D01*
G01X5195882Y2974135D01*
G01X5193567Y2989316D01*
G01X5187823Y3003558D01*
G01X5178957Y3016097D01*
G01X5167444Y3026260D01*
G01X5153903Y3033503D01*
G01X5139058Y3037436D01*
G01X5123707Y3037850D01*
G01X5108673Y3034721D01*
G01X5094761Y3028218D01*
G01X5082718Y3018690D01*
G01X5082718Y3018690D01*
G01X5073189Y3006647D01*
G01X5066686Y2992735D01*
G01X5063558Y2977700D01*
G01X4785614Y2977700D01*
G01X4785614Y3160286D01*
G01X6094980Y3160286D01*
G01X6094980Y3138914D01*
G01X6098907Y3117906D01*
G01X6106628Y3097977D01*
G01X6117879Y3079807D01*
G01X6132277Y3064013D01*
G01X6149332Y3051133D01*
G01X6168463Y3041607D01*
G01X6189019Y3035758D01*
G01X6210300Y3033786D01*
G01X6210300Y3033786D01*
G01X6231581Y3035758D01*
G01X6252137Y3041607D01*
G01X6271268Y3051133D01*
G01X6288323Y3064013D01*
G01X6302721Y3079807D01*
G01X6313972Y3097977D01*
G01X6321693Y3117906D01*
G01X6325620Y3138914D01*
G01X6325620Y3160286D01*
G01X6325620Y3160286D01*
G01X6348980Y3160286D01*
G01X6348980Y3138914D01*
G01X6352907Y3117906D01*
G01X6360628Y3097977D01*
G01X6371879Y3079807D01*
G01X6386277Y3064013D01*
G01X6403332Y3051133D01*
G01X6422463Y3041607D01*
G01X6443019Y3035758D01*
G01X6464300Y3033786D01*
G01X6464300Y3033786D01*
G01X6485581Y3035758D01*
G01X6506137Y3041607D01*
G01X6525268Y3051133D01*
G01X6542323Y3064013D01*
G01X6556721Y3079807D01*
G01X6567972Y3097977D01*
G01X6575693Y3117906D01*
G01X6579620Y3138914D01*
G01X6579620Y3160286D01*
G01X6575693Y3181294D01*
G01X6567972Y3201223D01*
G01X6556721Y3219393D01*
G01X6542323Y3235187D01*
G01X6525268Y3248067D01*
G01X6506137Y3257593D01*
G01X6485581Y3263442D01*
G01X6464300Y3265414D01*
G01X6443019Y3263442D01*
G01X6422463Y3257593D01*
G01X6403332Y3248067D01*
G01X6386277Y3235187D01*
G01X6371879Y3219393D01*
G01X6360628Y3201223D01*
G01X6352907Y3181294D01*
G01X6348980Y3160286D01*
G01X6325620Y3160286D01*
G01X6321693Y3181294D01*
G01X6313972Y3201223D01*
G01X6302721Y3219393D01*
G01X6288323Y3235187D01*
G01X6271268Y3248067D01*
G01X6252137Y3257593D01*
G01X6231581Y3263442D01*
G01X6210300Y3265414D01*
G01X6189019Y3263442D01*
G01X6168463Y3257593D01*
G01X6149332Y3248067D01*
G01X6132277Y3235187D01*
G01X6117879Y3219393D01*
G01X6106628Y3201223D01*
G01X6098907Y3181294D01*
G01X6094980Y3160286D01*
G01X4785614Y3160286D01*
G01X4785614Y3225800D01*
G01X4784438Y3237742D01*
G01X4780954Y3249226D01*
G01X4775298Y3259809D01*
G01X4767685Y3269085D01*
G01X4753667Y3283102D01*
G01X5159888Y3283102D01*
G01X5161815Y3267232D01*
G01X5167484Y3252285D01*
G01X5176566Y3239128D01*
G01X5188532Y3228527D01*
G01X5202687Y3221098D01*
G01X5218209Y3217272D01*
G01X5234196Y3217272D01*
G01X5249718Y3221098D01*
G01X5263873Y3228527D01*
G01X5275839Y3239128D01*
G01X5284921Y3252285D01*
G01X5290589Y3267232D01*
G01X5292516Y3283102D01*
G01X5290589Y3298972D01*
G01X5284921Y3313920D01*
G01X5275839Y3327077D01*
G01X5263873Y3337678D01*
G01X5249718Y3345107D01*
G01X5234196Y3348933D01*
G01X5218209Y3348933D01*
G01X5202687Y3345107D01*
G01X5188532Y3337678D01*
G01X5176566Y3327077D01*
G01X5167484Y3313920D01*
G01X5161815Y3298972D01*
G01X5159888Y3283102D01*
G01X5159888Y3283102D01*
G01X4753667Y3283102D01*
G01X4468070Y3568700D01*
G01X7463595Y3568700D01*
G01X7465522Y3552830D01*
G01X7471191Y3537882D01*
G01X7480272Y3524726D01*
G01X7492238Y3514125D01*
G01X7506393Y3506695D01*
G01X7521915Y3502869D01*
G01X7537902Y3502869D01*
G01X7553424Y3506695D01*
G01X7567579Y3514125D01*
G01X7579546Y3524726D01*
G01X7588627Y3537882D01*
G01X7594296Y3552830D01*
G01X7596223Y3568700D01*
G01X7594296Y3584570D01*
G01X7588627Y3599518D01*
G01X7579546Y3612674D01*
G01X7567579Y3623275D01*
G01X7553424Y3630705D01*
G01X7537902Y3634531D01*
G01X7521915Y3634531D01*
G01X7506393Y3630705D01*
G01X7492238Y3623275D01*
G01X7480272Y3612674D01*
G01X7471191Y3599518D01*
G01X7465522Y3584570D01*
G01X7463595Y3568700D01*
G01X7463595Y3568700D01*
G01X4468070Y3568700D01*
G01X4463674Y3573096D01*
G01X4461483Y3782146D01*
G01X4535319Y3782146D01*
G01X4535410Y3766102D01*
G01X4539352Y3750550D01*
G01X4546914Y3736399D01*
G01X4539352Y3722249D01*
G01X4535410Y3706696D01*
G01X4535319Y3690652D01*
G01X4539084Y3675056D01*
G01X4546484Y3660820D01*
G01X4557086Y3648778D01*
G01X4570270Y3639635D01*
G01X4585264Y3633926D01*
G01X4601191Y3631985D01*
G01X4601191Y3631985D01*
G01X4617117Y3633926D01*
G01X4632111Y3639635D01*
G01X4645295Y3648778D01*
G01X4653062Y3657600D01*
G01X6321786Y3657600D01*
G01X6323713Y3641730D01*
G01X6329382Y3626782D01*
G01X6338463Y3613626D01*
G01X6350429Y3603025D01*
G01X6364585Y3595595D01*
G01X6380107Y3591769D01*
G01X6396093Y3591769D01*
G01X6411615Y3595595D01*
G01X6425771Y3603025D01*
G01X6437737Y3613626D01*
G01X6446818Y3626782D01*
G01X6452487Y3641730D01*
G01X6454414Y3657600D01*
G01X6452487Y3673470D01*
G01X6446818Y3688418D01*
G01X6437737Y3701574D01*
G01X6425771Y3712175D01*
G01X6411615Y3719605D01*
G01X6396093Y3723431D01*
G01X6380107Y3723431D01*
G01X6364585Y3719605D01*
G01X6350429Y3712175D01*
G01X6338463Y3701574D01*
G01X6329382Y3688418D01*
G01X6323713Y3673470D01*
G01X6321786Y3657600D01*
G01X6321786Y3657600D01*
G01X4653062Y3657600D01*
G01X4655898Y3660820D01*
G01X4663298Y3675056D01*
G01X4667062Y3690652D01*
G01X4666971Y3706696D01*
G01X4663029Y3722249D01*
G01X4655467Y3736399D01*
G01X4663029Y3750550D01*
G01X4666971Y3766102D01*
G01X4667062Y3782146D01*
G01X4663298Y3797743D01*
G01X4655898Y3811979D01*
G01X4645295Y3824020D01*
G01X4632111Y3833164D01*
G01X4617117Y3838873D01*
G01X4601191Y3840814D01*
G01X4585264Y3838873D01*
G01X4570270Y3833164D01*
G01X4557086Y3824020D01*
G01X4546484Y3811979D01*
G01X4539084Y3797743D01*
G01X4535319Y3782146D01*
G01X4461483Y3782146D01*
G01X4458282Y4087490D01*
G01X6629146Y4087490D01*
G01X6590750Y4049094D01*
G01X6579216Y4042952D01*
G01X6569110Y4034667D01*
G01X6560826Y4024561D01*
G01X6554683Y4013027D01*
G01X6501770Y3960114D01*
G01X6248356Y3960114D01*
G01X6164685Y4043785D01*
G01X6155409Y4051398D01*
G01X6144826Y4057054D01*
G01X6133342Y4060538D01*
G01X6121400Y4061714D01*
G01X5816600Y4061714D01*
G01X5804658Y4060538D01*
G01X5793174Y4057054D01*
G01X5782591Y4051398D01*
G01X5773315Y4043785D01*
G01X5608215Y3878685D01*
G01X5600602Y3869409D01*
G01X5594946Y3858826D01*
G01X5591462Y3847342D01*
G01X5590286Y3835400D01*
G01X5590286Y3797403D01*
G01X5585921Y3781748D01*
G01X5585495Y3765502D01*
G01X5589034Y3749640D01*
G01X5596324Y3735114D01*
G01X5606928Y3722799D01*
G01X5620210Y3713432D01*
G01X5635370Y3707577D01*
G01X5651500Y3705586D01*
G01X5667630Y3707577D01*
G01X5682790Y3713432D01*
G01X5696072Y3722799D01*
G01X5706676Y3735114D01*
G01X5713966Y3749640D01*
G01X5717505Y3765502D01*
G01X5717079Y3781748D01*
G01X5712714Y3797403D01*
G01X5712714Y3810044D01*
G01X5841956Y3939286D01*
G01X6096044Y3939286D01*
G01X6179715Y3855615D01*
G01X6188991Y3848002D01*
G01X6199574Y3842346D01*
G01X6211058Y3838862D01*
G01X6223000Y3837686D01*
G01X6527126Y3837686D01*
G01X6539068Y3838862D01*
G01X6550551Y3842346D01*
G01X6561134Y3848002D01*
G01X6570410Y3855615D01*
G01X6641253Y3926458D01*
G01X6652787Y3932600D01*
G01X6662893Y3940885D01*
G01X6671177Y3950990D01*
G01X6677320Y3962524D01*
G01X6717581Y4002786D01*
G01X7315244Y4002786D01*
G01X7530650Y3787380D01*
G01X7515667Y3786138D01*
G01X7501349Y3781553D01*
G01X7488432Y3773861D01*
G01X7477579Y3763457D01*
G01X7469348Y3750875D01*
G01X7464164Y3736763D01*
G01X7462291Y3721846D01*
G01X7463826Y3706890D01*
G01X7468691Y3692665D01*
G01X7476636Y3679901D01*
G01X7487251Y3669254D01*
G01X7499991Y3661272D01*
G01X7514203Y3656365D01*
G01X7529154Y3654786D01*
G01X7544077Y3656615D01*
G01X7558204Y3661758D01*
G01X7570810Y3669951D01*
G01X7581246Y3680773D01*
G01X7588976Y3693668D01*
G01X7593603Y3707973D01*
G01X7594889Y3722952D01*
G01X7592767Y3737836D01*
G01X7607300Y3736086D01*
G01X7810614Y3736086D01*
G01X7810614Y3319923D01*
G01X7808729Y3318039D01*
G01X7266826Y3318039D01*
G01X7261746Y3316677D01*
G01X7258027Y3312959D01*
G01X7256666Y3307879D01*
G01X7256666Y162814D01*
G37*
G54D10*
G01X3815185Y6723485D02*
G01X3807460Y6731210D01*
G01X3807460Y6974840D01*
G01X4879340Y6974840D01*
G01X4879340Y6715760D01*
G01X3821726Y6715760D01*
G03X3815185Y6723485I-49826J-35560D01*
G01X3833114Y5001260D02*
G01X3833114Y5260340D01*
G01X4892040Y5260340D01*
G01X4892040Y5001260D01*
G01X3833114Y5001260D01*
G01X5407660Y6195060D02*
G01X5407660Y6631940D01*
G01X5844540Y6631940D01*
G01X5844540Y6195060D01*
G01X5407660Y6195060D01*
G01X6626860Y6189574D02*
G01X6626860Y6626454D01*
G01X7063740Y6626454D01*
G01X7063740Y6189574D01*
G01X6626860Y6189574D01*
G01X5407660Y5349646D02*
G01X5407660Y5786526D01*
G01X5844540Y5786526D01*
G01X5844540Y5349646D01*
G01X5407660Y5349646D01*
G01X6626860Y5349646D02*
G01X6626860Y5786526D01*
G01X7063740Y5786526D01*
G01X7063740Y5349646D01*
G01X6626860Y5349646D01*
G01X2783840Y7020814D02*
G01X2245360Y7020814D01*
G01X2245360Y7559040D01*
G01X2783840Y7559040D01*
G01X2783840Y7020814D01*
G01X3520440Y7020560D02*
G01X2798258Y7020560D01*
G03X2794000Y7020814I-4258J-35560D01*
G01X2235200Y7020814D01*
G03X2230942Y7020560I0J-35814D01*
G01X35814Y7020560D01*
G01X35814Y7874000D01*
G02X127000Y7965186I91186J0D01*
G01X3520440Y7965186D01*
G01X3520440Y7020560D01*
G01X2245360Y6004560D02*
G01X2245360Y6974840D01*
G01X2783840Y6974840D01*
G01X2783840Y6004560D01*
G01X2245360Y6004560D01*
G01X2245093Y5013960D02*
G01X2245093Y5958825D01*
G01X2783840Y5958825D01*
G01X2783840Y5013960D01*
G01X2245093Y5013960D01*
G01X2245360Y4404360D02*
G01X2245360Y4955540D01*
G01X2783840Y4955540D01*
G01X2783840Y4404360D01*
G01X2245360Y4404360D01*
G01X41910Y6004560D02*
G01X41910Y6974586D01*
G01X3488690Y6974586D01*
G01X3488690Y6944766D01*
G01X3484434Y6944766D01*
G03X3392617Y6883552I-25503J-61214D01*
G03X3484434Y6822338I66314J0D01*
G01X3488690Y6822338D01*
G01X3488690Y6177610D01*
G01X3484773Y6177610D01*
G03X3392956Y6116396I-25503J-61214D01*
G03X3484773Y6055182I66314J0D01*
G01X3488690Y6055182D01*
G01X3488690Y6004560D01*
G01X41910Y6004560D01*
G01X35814Y5007616D02*
G01X35814Y5958586D01*
G01X3479241Y5958586D01*
G01X3479241Y5825798D01*
G03X3467100Y5827014I-12141J-59998D01*
G01X3149556Y5827014D01*
G01X3078585Y5897985D01*
G03X3035300Y5915914I-43285J-43285D01*
G01X2997303Y5915914D01*
G03X2905486Y5854700I-25503J-61214D01*
G03X2997303Y5793486I66314J0D01*
G01X3009944Y5793486D01*
G01X3080915Y5722515D01*
G03X3124200Y5704586I43285J43285D01*
G01X3441744Y5704586D01*
G01X3479241Y5667089D01*
G01X3479241Y5038398D01*
G03X3467100Y5039614I-12141J-59998D01*
G01X3098756Y5039614D01*
G01X3023782Y5114587D01*
G03X2914532Y5128677I-59349J-29585D01*
G03X2942974Y5022257I49901J-43674D01*
G01X2957614Y5007616D01*
G01X35814Y5007616D01*
G01X3482086Y4876844D02*
G01X3482086Y4137660D01*
G01X35814Y4137660D01*
G01X35814Y4955540D01*
G01X3009690Y4955540D01*
G01X3030115Y4935115D01*
G03X3073400Y4917186I43285J43285D01*
G01X3441744Y4917186D01*
G01X3482086Y4876844D01*
G01X7649195Y3158505D02*
G03X7634986Y3124200I34305J-34305D01*
G01X7634986Y1721895D01*
G01X7516064Y1602973D01*
G03X7465638Y1496528I2336J-66273D01*
G03X7581663Y1516816I52762J40172D01*
G03X7596886Y1489912I63737J18306D01*
G01X7596886Y1371600D01*
G03X7611095Y1337295I48514J0D01*
G01X7661895Y1286495D01*
G03X7696200Y1272286I34305J34305D01*
G01X7993605Y1272286D01*
G01X8003286Y1262605D01*
G01X8003286Y546100D01*
G03X8017495Y511795I48514J0D01*
G01X8133634Y395657D01*
G03X8161581Y272550I108666J-40057D01*
G01X8051844Y162814D01*
G01X7302640Y162814D01*
G01X7302640Y3272065D01*
G01X7762755Y3272065D01*
G01X7649195Y3158505D01*
G01X7782814Y2656351D02*
G03X7855710Y2668095I27686J60258D01*
G01X7880903Y2668095D01*
G03X7968697Y2668095I43897J49705D01*
G01X7969396Y2668095D01*
G01X8003286Y2634205D01*
G01X8003286Y1378995D01*
G01X7993605Y1369314D01*
G01X7716295Y1369314D01*
G01X7693914Y1391695D01*
G01X7693914Y1489912D01*
G03X7707357Y1558762I-48514J45210D01*
G03X7651467Y1601158I-61957J-23640D01*
G01X7708900Y1658591D01*
G01X7833127Y1534364D01*
G03X7946291Y1489809I66273J2336D01*
G03X7901736Y1602973I-46891J46891D01*
G01X7782814Y1721895D01*
G01X7782814Y2656351D01*
G01X8712244Y3736086D02*
G01X8930386Y3517944D01*
G01X8930386Y2133556D01*
G01X8864748Y2067918D01*
G03X8823686Y2006600I25252J-61318D01*
G03X8864748Y1945282I66314J0D01*
G01X8930386Y1879644D01*
G01X8930386Y533356D01*
G01X8813844Y416814D01*
G01X8612114Y416814D01*
G01X8612114Y435600D01*
G03X8576300Y471414I-35814J0D01*
G01X8416300Y471414D01*
G03X8380486Y435600I0J-35814D01*
G01X8380486Y416814D01*
G01X8340614Y416814D01*
G03X8202243Y464266I-98314J-61214D01*
G01X8100314Y566195D01*
G01X8100314Y1282700D01*
G03X8086105Y1317005I-48514J0D01*
G01X8082309Y1320800D01*
G01X8086105Y1324595D01*
G03X8100314Y1358900I-34305J34305D01*
G01X8100314Y2654300D01*
G03X8086105Y2688605I-48514J0D01*
G01X8023796Y2750913D01*
G03X7989491Y2765123I-34305J-34305D01*
G01X7971256Y2765123D01*
G03X7878344Y2765123I-46456J-47323D01*
G01X7855710Y2765123D01*
G03X7782814Y2776867I-45210J-48514D01*
G01X7782814Y3091405D01*
G01X7976645Y3285236D01*
G01X8279355Y3285236D01*
G01X8294341Y3270250D01*
G01X8282357Y3258266D01*
G03X8160407Y3067707I-40057J-108666D01*
G03X8350966Y3189657I81893J81893D01*
G01X8369300Y3207991D01*
G01X8387634Y3189657D01*
G03X8578193Y3067707I108666J-40057D01*
G03X8456243Y3258266I-81893J81893D01*
G01X8443214Y3271295D01*
G01X8443214Y3302000D01*
G03X8429005Y3336305I-48514J0D01*
G01X8352805Y3412505D01*
G03X8318500Y3426714I-34305J-34305D01*
G01X7937500Y3426714D01*
G03X7903195Y3412505I0J-48514D01*
G01X7856588Y3365897D01*
G01X7856588Y3736086D01*
G01X8712244Y3736086D01*
G01X8242300Y1001786D02*
G03X8242300Y1233414I0J115814D01*
G03X8242300Y1001786I0J-115814D01*
G01X8242300Y1255786D02*
G03X8242300Y1487414I0J115814D01*
G03X8242300Y1255786I0J-115814D01*
G01X8242300Y747786D02*
G03X8242300Y979414I0J115814D01*
G03X8242300Y747786I0J-115814D01*
G01X8242300Y493786D02*
G03X8242300Y725414I0J115814D01*
G03X8242300Y493786I0J-115814D01*
G01X8242300Y2779786D02*
G03X8242300Y3011414I0J115814D01*
G03X8242300Y2779786I0J-115814D01*
G01X8242300Y2525786D02*
G03X8242300Y2757414I0J115814D01*
G03X8242300Y2525786I0J-115814D01*
G01X8242300Y2271786D02*
G03X8242300Y2503414I0J115814D01*
G03X8242300Y2271786I0J-115814D01*
G01X8242300Y2017786D02*
G03X8242300Y2249414I0J115814D01*
G03X8242300Y2017786I0J-115814D01*
G01X8242300Y1763786D02*
G03X8242300Y1995414I0J115814D01*
G03X8242300Y1763786I0J-115814D01*
G01X8242300Y1509786D02*
G03X8242300Y1741414I0J115814D01*
G03X8242300Y1509786I0J-115814D01*
G01X8496300Y1001786D02*
G03X8496300Y1233414I0J115814D01*
G03X8496300Y1001786I0J-115814D01*
G01X8496300Y1255786D02*
G03X8496300Y1487414I0J115814D01*
G03X8496300Y1255786I0J-115814D01*
G01X8496300Y747786D02*
G03X8496300Y979414I0J115814D01*
G03X8496300Y747786I0J-115814D01*
G01X8496300Y493786D02*
G03X8496300Y725414I0J115814D01*
G03X8496300Y493786I0J-115814D01*
G01X8496300Y2779786D02*
G03X8496300Y3011414I0J115814D01*
G03X8496300Y2779786I0J-115814D01*
G01X8496300Y2525786D02*
G03X8496300Y2757414I0J115814D01*
G03X8496300Y2525786I0J-115814D01*
G01X8496300Y2271786D02*
G03X8496300Y2503414I0J115814D01*
G03X8496300Y2271786I0J-115814D01*
G01X8496300Y2017786D02*
G03X8496300Y2249414I0J115814D01*
G03X8496300Y2017786I0J-115814D01*
G01X8496300Y1763786D02*
G03X8496300Y1995414I0J115814D01*
G03X8496300Y1763786I0J-115814D01*
G01X8496300Y1509786D02*
G03X8496300Y1741414I0J115814D01*
G03X8496300Y1509786I0J-115814D01*
G01X35814Y127000D02*
G01X35814Y4091686D01*
G01X3482086Y4091686D01*
G01X3482086Y3479624D01*
G03X3472489Y3424293I61214J-39115D01*
G01X1953415Y3424293D01*
G03X1926307Y3430623I-27109J-54884D01*
G01X1075547Y3430623D01*
G01X946314Y3559856D01*
G01X946314Y3691800D01*
G03X910500Y3727614I-35814J0D01*
G01X740500Y3727614D01*
G03X704686Y3691800I0J-35814D01*
G01X704686Y3521800D01*
G03X740500Y3485986I35814J0D01*
G01X847044Y3485986D01*
G01X1006907Y3326124D01*
G03X1050191Y3308195I43285J43285D01*
G01X1900951Y3308195D01*
G01X1919986Y3289159D01*
G01X1919986Y1741091D01*
G03X1937915Y1697806I61214J0D01*
G01X2125612Y1510110D01*
G01X2125612Y162814D01*
G01X1549356Y162814D01*
G01X1217018Y495152D01*
G03X1108809Y516791I-61318J-25252D01*
G03X1130448Y408582I46891J-46891D01*
G01X1480715Y58315D01*
G03X1524000Y40386I43285J43285D01*
G01X2125612Y40386D01*
G01X2125612Y35814D01*
G01X127000Y35814D01*
G02X35814Y127000I0J91186D01*
G01X910500Y1707986D02*
G03X946314Y1743800I0J35814D01*
G01X946314Y1913800D01*
G03X910500Y1949614I-35814J0D01*
G01X740500Y1949614D01*
G03X704686Y1913800I0J-35814D01*
G01X704686Y1743800D01*
G03X740500Y1707986I35814J0D01*
G01X910500Y1707986D01*
G01X958686Y1828800D02*
G03X1200314Y1828800I120814J0D01*
G03X958686Y1828800I-120814J0D01*
G01X958686Y3606800D02*
G03X1200314Y3606800I120814J0D01*
G03X958686Y3606800I-120814J0D01*
G01X1212686Y1828800D02*
G03X1454314Y1828800I120814J0D01*
G03X1212686Y1828800I-120814J0D01*
G01X1212686Y3606800D02*
G03X1454314Y3606800I120814J0D01*
G03X1212686Y3606800I-120814J0D01*
G01X3566414Y7010400D02*
G01X3566414Y7965186D01*
G01X9156700Y7965186D01*
G02X9247886Y7874000I0J-91186D01*
G01X9247886Y3845814D01*
G01X9037357Y3845814D01*
G03X8915400Y3940716I-121957J-30912D01*
G03X8793443Y3845814I0J-125814D01*
G01X8774930Y3845814D01*
G03X8737600Y3858514I-37330J-48514D01*
G01X7815743Y3858514D01*
G01X7376048Y4113906D01*
G03X7366386Y4119518I-35448J-49906D01*
G01X7350717Y4128619D01*
G03X7332729Y4133464I-17988J-30969D01*
G01X4448015Y4133464D01*
G03X4442714Y4133069I0J-35814D01*
G01X4442714Y4457384D01*
G01X4653385Y4668054D01*
G03X4668206Y4692083I-43285J43285D01*
G03X4630470Y4787147I-58106J31956D01*
G03X4544276Y4732085I-20370J-63108D01*
G01X4338215Y4526024D01*
G03X4320286Y4482739I43285J-43285D01*
G01X4320286Y3594056D01*
G01X4150523Y3424293D01*
G01X4071311Y3424293D01*
G03X4016126Y3511452I-70811J16216D01*
G01X3833114Y3694464D01*
G01X3833114Y6680200D01*
G03X3815185Y6723485I-61214J0D01*
G01X3611832Y6926837D01*
G03X3568548Y6944766I-43285J-43285D01*
G01X3534664Y6944766D01*
G01X3534664Y6974817D01*
G03X3566414Y7010400I-4064J35583D01*
G01X3845286Y7670795D02*
G03X3977914Y7670795I66314J0D01*
G03X3845286Y7670795I-66314J0D01*
G01X3845286Y7492995D02*
G03X3977914Y7492995I66314J0D01*
G03X3845286Y7492995I-66314J0D01*
G01X3870686Y4448880D02*
G03X4003314Y4448880I66314J0D01*
G03X3870686Y4448880I-66314J0D01*
G01X3870686Y4313596D02*
G03X4003314Y4313596I66314J0D01*
G03X3870686Y4313596I-66314J0D01*
G01X3883386Y4584700D02*
G03X4016014Y4584700I66314J0D01*
G03X3883386Y4584700I-66314J0D01*
G01X3959537Y5981700D02*
G03X4090226Y5965781I66314J0D01*
G03X4220915Y5981700I64375J15919D01*
G03X4090226Y5997619I-66314J0D01*
G03X3959537Y5981700I-64375J-15919D01*
G01X4531086Y7239361D02*
G03X4663714Y7239361I66314J0D01*
G03X4531086Y7239361I-66314J0D01*
G01X7655286Y4314087D02*
G03X7787914Y4314087I66314J0D01*
G03X7655286Y4314087I-66314J0D01*
G01X7655286Y4448570D02*
G03X7787914Y4448570I66314J0D01*
G03X7655286Y4448570I-66314J0D01*
G01X7915402Y7281285D02*
G03X7915402Y7602912I0J160814D01*
G03X7915402Y7281285I0J-160814D01*
G01X7915402Y6781286D02*
G03X7915402Y7102913I0J160814D01*
G03X7915402Y6781286I0J-160814D01*
G01X7915402Y5371586D02*
G03X7915402Y5693213I0J160814D01*
G03X7915402Y5371586I0J-160814D01*
G01X7915402Y5871585D02*
G03X7915402Y6193212I0J160814D01*
G03X7915402Y5871585I0J-160814D01*
G01X8415401Y4454087D02*
G03X8415401Y4775714I0J160814D01*
G03X8415401Y4454087I0J-160814D01*
G01X8415401Y3954088D02*
G03X8415401Y4275715I0J160814D01*
G03X8415401Y3954088I0J-160814D01*
G01X8915400Y7616284D02*
G03X8915400Y7867912I0J125814D01*
G03X8915400Y7616284I0J-125814D01*
G01X8915400Y5106586D02*
G03X8915400Y5358214I0J125814D01*
G03X8915400Y5106586I0J-125814D01*
G01X8915400Y4789086D02*
G03X8915400Y5040714I0J125814D01*
G03X8915400Y4789086I0J-125814D01*
G01X8915400Y6516286D02*
G03X8915400Y6767914I0J125814D01*
G03X8915400Y6516286I0J-125814D01*
G01X8915400Y6206584D02*
G03X8915400Y6458212I0J125814D01*
G03X8915400Y6206584I0J-125814D01*
G01X7256666Y162814D02*
G01X2171586Y162814D01*
G01X2171586Y1464136D01*
G01X2708473Y927248D01*
G03X2816682Y905609I61318J25252D01*
G03X2795043Y1013818I-46891J46891D01*
G01X2171586Y1637275D01*
G01X2171562Y3177186D01*
G01X2171803Y3177286D01*
G01X2489097Y3177286D01*
G03X2570107Y3202216I25503J61214D01*
G03X2560437Y3286422I-55507J36284D01*
G01X3653565Y3286422D01*
G01X3648928Y3281785D01*
G03X3630999Y3238500I43285J-43285D01*
G01X3630999Y3161520D01*
G03X3648972Y3099930I64701J-14537D01*
G03X3710686Y3082385I46728J47054D01*
G01X3710686Y2971756D01*
G01X3604514Y2865584D01*
G01X3604514Y3121481D01*
G03X3543300Y3213298I-61214J25503D01*
G03X3482086Y3121481I0J-66314D01*
G01X3482086Y2882856D01*
G01X3423815Y2824585D01*
G03X3405886Y2781300I43285J-43285D01*
G01X3405886Y2567172D01*
G01X3275473Y2697585D01*
G03X3232188Y2715514I-43285J-43285D01*
G01X2273403Y2715514D01*
G03X2181586Y2654300I-25503J-61214D01*
G03X2273403Y2593086I66314J0D01*
G01X3206832Y2593086D01*
G01X3323079Y2476839D01*
G03X3405886Y2439355I61318J25252D01*
G01X3405886Y2324056D01*
G01X3340248Y2258418D01*
G03X3318609Y2150209I25252J-61318D01*
G03X3426818Y2171848I46891J46891D01*
G01X3510385Y2255415D01*
G03X3528314Y2298700I-43285J43285D01*
G01X3528314Y2354480D01*
G03X3610206Y2351714I42706J50706D01*
G03X3632234Y2430637I-39187J53472D01*
G01X3632234Y2720164D01*
G01X3647186Y2735116D01*
G01X3647186Y2400300D01*
G03X3659146Y2363952I61214J0D01*
G03X3723496Y2321329I61954J23648D01*
G03X3784600Y2368487I-2396J66271D01*
G03X3844843Y2321366I63500J19113D01*
G03X3909418Y2362348I3257J66234D01*
G01X3916785Y2369715D01*
G03X3934714Y2413000I-43285J43285D01*
G01X3934714Y2768644D01*
G01X4129198Y2963128D01*
G03X4147127Y3006413I-43285J43285D01*
G01X4147127Y3191187D01*
G03X4129198Y3234472I-61214J0D01*
G01X4077248Y3286422D01*
G01X4456412Y3286422D01*
G03X4466571Y3296688I0J10160D01*
G01X4465508Y3398122D01*
G01X4663186Y3200444D01*
G01X4663186Y2683039D01*
G03X4681115Y2639754I61214J0D01*
G01X5007143Y2313726D01*
G03X4932838Y2250236I-8032J-65826D01*
G01X4852016Y2169414D01*
G01X4071110Y2169414D01*
G03X3982356Y2170915I-45210J-48514D01*
G03X3971623Y2082800I43544J-50015D01*
G03X3963233Y2023011I54277J-38100D01*
G03X4006787Y1981200I62667J21689D01*
G03X3983389Y1866804I19113J-63500D01*
G03X4091789Y1910202I42511J50896D01*
G01X4105895Y1896095D01*
G03X4140200Y1881886I34305J34305D01*
G01X4580559Y1881886D01*
G03X4620301Y1762486I39742J-53086D01*
G03X4660043Y1881886I0J66314D01*
G01X4678905Y1881886D01*
G01X4829795Y1730995D01*
G03X4833752Y1727451I34305J34305D01*
G03X4785865Y1666774I18357J-63723D01*
G01X4739547Y1620456D01*
G01X4658327Y1620456D01*
G03X4622721Y1742714I-35606J55944D01*
G03X4587115Y1620456I0J-66314D01*
G01X4157486Y1620456D01*
G03X4166449Y1711434I-43331J50199D01*
G03X4076030Y1724914I-52294J-40779D01*
G01X3937000Y1724914D01*
G03X3902695Y1710705I0J-48514D01*
G01X3828005Y1636014D01*
G01X3581400Y1636014D01*
G03X3547095Y1621805I0J-48514D01*
G01X3191495Y1266205D01*
G03X3177286Y1231900I34305J-34305D01*
G01X3177286Y1149622D01*
G01X3121368Y1093704D01*
G03X3012618Y1164491I-61859J23896D01*
G03X3083404Y1055741I46891J-46891D01*
G01X3046436Y1018773D01*
G03X3001882Y905609I2336J-66273D01*
G03X3115046Y950164I46891J46891D01*
G01X3124379Y959497D01*
G03X3234591Y892909I63321J-19697D01*
G03X3168003Y1003121I-46891J46891D01*
G01X3260105Y1095223D01*
G03X3274314Y1129527I-34305J34305D01*
G01X3274314Y1211805D01*
G01X3360374Y1297865D01*
G03X3414878Y1267201I55926J35635D01*
G03X3521087Y1201794I64922J-13514D01*
G03X3481222Y1319986I-41287J51894D01*
G03X3482573Y1331164I-64922J13514D01*
G01X3555705Y1404296D01*
G03X3629418Y1356832I63795J18104D01*
G03X3647186Y1313690I66282J2068D01*
G01X3647186Y1028700D01*
G03X3661395Y994395I48514J0D01*
G01X3768095Y887696D01*
G03X3802400Y873486I34305J34305D01*
G01X5801605Y873486D01*
G01X5972795Y702295D01*
G03X6007100Y688086I34305J34305D01*
G01X6125137Y688086D01*
G03X6210300Y493786I85163J-78486D01*
G03X6295463Y688086I0J115814D01*
G01X6379137Y688086D01*
G03X6454185Y494229I85163J-78486D01*
G03X6561821Y672070I10115J115371D01*
G01X6575827Y658064D01*
G03X6688991Y613509I66273J2336D01*
G03X6644436Y726673I-46891J46891D01*
G01X6600205Y770905D01*
G03X6565900Y785114I-34305J-34305D01*
G01X6549463Y785114D01*
G03X6464300Y979414I-85163J78486D01*
G03X6379137Y785114I0J-115814D01*
G01X6295463Y785114D01*
G03X6210300Y979414I-85163J78486D01*
G03X6125137Y785114I0J-115814D01*
G01X6027195Y785114D01*
G01X5856004Y956305D01*
G03X5828838Y969986I-34305J-34305D01*
G01X5857200Y969986D01*
G03X5891505Y984196I0J48514D01*
G01X6170243Y1262934D01*
G03X6306555Y1307197I40057J108666D01*
G03X6295463Y1450086I-96255J64403D01*
G01X6379137Y1450086D01*
G03X6464300Y1255786I85163J-78486D01*
G03X6549463Y1450086I0J115814D01*
G01X6756400Y1450086D01*
G03X6790705Y1464295I0J48514D01*
G01X7057405Y1730995D01*
G03X7071614Y1765300I-34305J34305D01*
G01X7071614Y3189171D01*
G03X7057405Y3223475I-48514J0D01*
G01X7034878Y3246001D01*
G03X6921714Y3290556I-66273J-2336D01*
G03X6966269Y3177392I46891J-46891D01*
G01X6974586Y3169076D01*
G01X6974586Y2731876D01*
G03X6867342Y2679700I-40930J-52176D01*
G03X6974586Y2627524I66314J0D01*
G01X6974586Y1785395D01*
G01X6736305Y1547114D01*
G01X6549463Y1547114D01*
G03X6464300Y1741414I-85163J78486D01*
G03X6379137Y1547114I0J-115814D01*
G01X6295463Y1547114D01*
G03X6210300Y1741414I-85163J78486D01*
G03X6125137Y1547114I0J-115814D01*
G01X6032500Y1547114D01*
G03X5998195Y1532905I0J-48514D01*
G01X5638672Y1173382D01*
G01X5524171Y1173382D01*
G03X5510156Y1183386I-45210J-48514D01*
G01X5562600Y1183386D01*
G03X5596905Y1197595I0J48514D01*
G01X6170243Y1770934D01*
G03X6292193Y1961493I40057J108666D01*
G03X6101634Y1839543I-81893J-81893D01*
G01X5542505Y1280414D01*
G01X4312695Y1280414D01*
G01X4047505Y1545605D01*
G01X4046293Y1546775D01*
G03X4080338Y1553282I5007J66125D01*
G01X4095996Y1537630D01*
G03X4130293Y1523428I34298J34311D01*
G01X4759642Y1523428D01*
G03X4793946Y1537637I0J48514D01*
G01X4853743Y1597434D01*
G03X4915275Y1643540I-1635J66294D01*
G03X4891888Y1716786I-63166J20188D01*
G01X4920205Y1716786D01*
G01X4942586Y1694405D01*
G01X4942586Y1484555D01*
G03X4927576Y1368140I23114J-62155D01*
G03X5032011Y1421725I38124J54260D01*
G03X5039614Y1447800I-40911J26075D01*
G01X5039614Y1714500D01*
G03X5025405Y1748805I-48514J0D01*
G01X4974605Y1799605D01*
G03X4940300Y1813814I-34305J-34305D01*
G01X4884195Y1813814D01*
G01X4733305Y1964705D01*
G03X4699000Y1978914I-34305J-34305D01*
G01X4160295Y1978914D01*
G01X4155673Y1983536D01*
G03X4153999Y1996186I-66273J-2336D01*
G01X4318000Y1996186D01*
G03X4350726Y2008886I0J48514D01*
G01X4903003Y2008886D01*
G01X4907626Y2004264D01*
G03X5020790Y1959709I66273J2336D01*
G03X4976235Y2072873I-46891J46891D01*
G01X4957403Y2091705D01*
G03X4925666Y2105846I-34305J-34305D01*
G01X5001447Y2181627D01*
G03X5064937Y2255932I-2336J66273D01*
G01X5098221Y2222648D01*
G03X5134287Y2186582I61318J25252D01*
G01X5717060Y1603810D01*
G03X5823676Y1575972I62632J21790D01*
G03X5808848Y1685160I-43984J49628D01*
G01X5220857Y2273152D01*
G03X5184790Y2309218I-61318J-25252D01*
G01X4785614Y2708394D01*
G01X4785614Y3225800D01*
G03X4767685Y3269085I-61214J0D01*
G01X4463674Y3573096D01*
G01X4458282Y4087490D01*
G01X6629146Y4087490D01*
G01X6590750Y4049094D01*
G03X6554683Y4013027I25252J-61318D01*
G01X6501770Y3960114D01*
G01X6248356Y3960114D01*
G01X6164685Y4043785D01*
G03X6121400Y4061714I-43285J-43285D01*
G01X5816600Y4061714D01*
G03X5773315Y4043785I0J-61214D01*
G01X5608215Y3878685D01*
G03X5590286Y3835400I43285J-43285D01*
G01X5590286Y3797403D01*
G03X5651500Y3705586I61214J-25503D01*
G03X5712714Y3797403I0J66314D01*
G01X5712714Y3810044D01*
G01X5841956Y3939286D01*
G01X6096044Y3939286D01*
G01X6179715Y3855615D01*
G03X6223000Y3837686I43285J43285D01*
G01X6527126Y3837686D01*
G03X6570410Y3855615I0J61214D01*
G01X6641253Y3926458D01*
G03X6677320Y3962524I-25252J61318D01*
G01X6717581Y4002786D01*
G01X7315244Y4002786D01*
G01X7530650Y3787380D01*
G03X7487251Y3669254I-2050J-66282D01*
G03X7592767Y3737836I41350J51844D01*
G03X7607300Y3736086I14533J59464D01*
G01X7810614Y3736086D01*
G01X7810614Y3319923D01*
G01X7808729Y3318039D01*
G01X7266826Y3318039D01*
G03X7256666Y3307879I0J-10160D01*
G01X7256666Y162814D01*
G01X2702286Y1193800D02*
G03X2834914Y1193800I66314J0D01*
G03X2702286Y1193800I-66314J0D01*
G01X2702286Y1739900D02*
G03X2834914Y1739900I66314J0D01*
G03X2702286Y1739900I-66314J0D01*
G01X2918186Y1351334D02*
G03X3050814Y1351334I66314J0D01*
G03X2918186Y1351334I-66314J0D01*
G01X2989074Y1519475D02*
G03X3121702Y1519475I66314J0D01*
G03X2989074Y1519475I-66314J0D01*
G01X3083314Y2454403D02*
G03X3215942Y2454403I66314J0D01*
G03X3083314Y2454403I-66314J0D01*
G01X3137429Y1991888D02*
G03X3270057Y1991888I66314J0D01*
G03X3137429Y1991888I-66314J0D01*
G01X3288676Y2001984D02*
G03X3331942Y1890331I48220J-45524D01*
G03X3445896Y1853553I65735J8746D01*
G03X3402630Y1965206I-48220J45524D01*
G03X3288676Y2001984I-65735J-8746D01*
G01X3286486Y1612900D02*
G03X3419114Y1612900I66314J0D01*
G03X3286486Y1612900I-66314J0D01*
G01X3642086Y671909D02*
G03X3774714Y671909I66314J0D01*
G03X3642086Y671909I-66314J0D01*
G01X3972286Y671909D02*
G03X4104914Y671909I66314J0D01*
G03X3972286Y671909I-66314J0D01*
G01X4290495Y2705128D02*
G03X4423123Y2705128I66314J0D01*
G03X4290495Y2705128I-66314J0D01*
G01X4354150Y2363906D02*
G03X4486778Y2363906I66314J0D01*
G03X4354150Y2363906I-66314J0D01*
G01X4601191Y3631985D02*
G03X4655467Y3736399I0J66314D01*
G03X4601191Y3840814I-54277J38100D01*
G03X4546914Y3736399I0J-66314D01*
G03X4601191Y3631985I54277J-38100D01*
G01X5082718Y3018690D02*
G03X5127272Y2905526I46891J-46891D01*
G01X5184203Y2848595D01*
G03X5218507Y2834386I34305J34305D01*
G01X5537276Y2834386D01*
G03X5648726Y2883070I45136J48583D01*
G03X5537128Y2931414I-66314J-101D01*
G01X5238603Y2931414D01*
G01X5195882Y2974135D01*
G03X5082718Y3018690I-66273J-2336D01*
G01X5159888Y3283102D02*
G03X5292516Y3283102I66314J0D01*
G03X5159888Y3283102I-66314J0D01*
G01X5863605Y2752105D02*
G03X5829300Y2766314I-34305J-34305D01*
G01X5480105Y2766314D01*
G03X5369293Y2716203I-44505J-49161D01*
G03X5481495Y2669286I66307J950D01*
G01X5809205Y2669286D01*
G01X5998195Y2480295D01*
G03X6032500Y2466086I34305J34305D01*
G01X6125137Y2466086D01*
G03X6210300Y2271786I85163J-78486D01*
G03X6295463Y2466086I0J115814D01*
G01X6317205Y2466086D01*
G01X6355634Y2427657D01*
G03X6546193Y2305707I108666J-40057D01*
G03X6424243Y2496266I-81893J81893D01*
G01X6371605Y2548905D01*
G03X6337300Y2563114I-34305J-34305D01*
G01X6295463Y2563114D01*
G03X6210300Y2757414I-85163J78486D01*
G03X6125137Y2563114I0J-115814D01*
G01X6052595Y2563114D01*
G01X5863605Y2752105D01*
G01X6210300Y239786D02*
G03X6210300Y471414I0J115814D01*
G03X6210300Y239786I0J-115814D01*
G01X6210300Y1001786D02*
G03X6210300Y1233414I0J115814D01*
G03X6210300Y1001786I0J-115814D01*
G01X6210300Y3033786D02*
G03X6210300Y3265414I0J115814D01*
G03X6210300Y3033786I0J-115814D01*
G01X6210300Y2779786D02*
G03X6210300Y3011414I0J115814D01*
G03X6210300Y2779786I0J-115814D01*
G01X6210300Y2017786D02*
G03X6210300Y2249414I0J115814D01*
G03X6210300Y2017786I0J-115814D01*
G01X6321786Y3657600D02*
G03X6454414Y3657600I66314J0D01*
G03X6321786Y3657600I-66314J0D01*
G01X6580114Y435600D02*
G03X6544300Y471414I-35814J0D01*
G01X6384300Y471414D01*
G03X6348486Y435600I0J-35814D01*
G01X6348486Y275600D01*
G03X6384300Y239786I35814J0D01*
G01X6544300Y239786D01*
G03X6580114Y275600I0J35814D01*
G01X6580114Y435600D01*
G01X6464300Y1763786D02*
G03X6464300Y1995414I0J115814D01*
G03X6464300Y1763786I0J-115814D01*
G01X6464300Y1001786D02*
G03X6464300Y1233414I0J115814D01*
G03X6464300Y1001786I0J-115814D01*
G01X6464300Y3033786D02*
G03X6464300Y3265414I0J115814D01*
G03X6464300Y3033786I0J-115814D01*
G01X6464300Y2525786D02*
G03X6464300Y2757414I0J115814D01*
G03X6464300Y2525786I0J-115814D01*
G01X6464300Y2779786D02*
G03X6464300Y3011414I0J115814D01*
G03X6464300Y2779786I0J-115814D01*
G01X6464300Y2017786D02*
G03X6464300Y2249414I0J115814D01*
G03X6464300Y2017786I0J-115814D01*
G01X6601186Y2870200D02*
G03X6733814Y2870200I66314J0D01*
G03X6601186Y2870200I-66314J0D01*
G01X7463595Y3568700D02*
G03X7596223Y3568700I66314J0D01*
G03X7463595Y3568700I-66314J0D01*
G54D11*
G01X8242300Y529854D02*
G01X8242300Y503946D01*
G01X8242300Y689346D02*
G01X8242300Y715254D01*
G01X8162554Y609600D02*
G01X8136646Y609600D01*
G01X8322046Y609600D02*
G01X8347954Y609600D01*
G01X8496300Y529854D02*
G01X8496300Y503946D01*
G01X8496300Y689346D02*
G01X8496300Y715254D01*
G01X8416554Y609600D02*
G01X8390646Y609600D01*
G01X8576046Y609600D02*
G01X8601954Y609600D01*
G54D12*
G01X1418246Y3606800D02*
G01X1444154Y3606800D01*
G01X1333500Y3691546D02*
G01X1333500Y3717454D01*
G01X1333500Y3522054D02*
G01X1333500Y3496146D01*
G01X1418246Y1828800D02*
G01X1444154Y1828800D01*
G01X1333500Y1913546D02*
G01X1333500Y1939454D01*
G01X1333500Y1744054D02*
G01X1333500Y1718146D01*
G01X8415401Y4490155D02*
G01X8415401Y4464247D01*
G01X8415401Y4739646D02*
G01X8415401Y4765554D01*
G01X8290655Y4614901D02*
G01X8264747Y4614901D01*
G01X8540147Y4614901D02*
G01X8566055Y4614901D01*
G01X7915402Y5407654D02*
G01X7915402Y5381746D01*
G01X7915402Y5657145D02*
G01X7915402Y5683053D01*
G01X7790656Y5532399D02*
G01X7764748Y5532399D01*
G01X8040148Y5532399D02*
G01X8066056Y5532399D01*
G01X7915402Y6817354D02*
G01X7915402Y6791446D01*
G01X7915402Y7066845D02*
G01X7915402Y7092753D01*
G01X7790656Y6942099D02*
G01X7764748Y6942099D01*
G01X8040148Y6942099D02*
G01X8066056Y6942099D01*
G54D11*
G01X6210300Y529854D02*
G01X6210300Y503946D01*
G01X6130554Y609600D02*
G01X6104646Y609600D01*
G01X6290046Y609600D02*
G01X6315954Y609600D01*
G01X6464300Y529854D02*
G01X6464300Y503946D01*
G01X6384554Y609600D02*
G01X6358646Y609600D01*
G01X6544046Y609600D02*
G01X6569954Y609600D01*
G04 Copper End*

G04 Pad Start*
G54D13*
G01X7915402Y6942099D03*
G01X7915402Y7442098D03*
G54D14*
G01X8915400Y7742098D03*
G01X8915400Y6642100D03*
G54D13*
G01X7915402Y5532399D03*
G01X7915402Y6032398D03*
G54D14*
G01X8915400Y6332398D03*
G01X8915400Y5232400D03*
G01X8915400Y3814902D03*
G01X8915400Y4914900D03*
G54D13*
G01X8415401Y4614901D03*
G01X8415401Y4114902D03*
G54D16*
G01X8242300Y3149600D03*
G01X8496300Y3149600D03*
G01X8242300Y2895600D03*
G01X8496300Y2895600D03*
G01X8242300Y2641600D03*
G01X8496300Y2641600D03*
G01X8242300Y2387600D03*
G01X8496300Y2387600D03*
G01X8242300Y2133600D03*
G01X8496300Y2133600D03*
G01X8242300Y1879600D03*
G01X8496300Y1879600D03*
G01X8242300Y1625600D03*
G01X8496300Y1625600D03*
G01X8242300Y1371600D03*
G01X8496300Y1371600D03*
G01X8242300Y1117600D03*
G01X8496300Y1117600D03*
G01X8242300Y863600D03*
G01X8496300Y863600D03*
G01X8242300Y609600D03*
G01X8496300Y609600D03*
G01X8242300Y355600D03*
G54D17*
G01X8496300Y355600D03*
G54D16*
G01X6210300Y3149600D03*
G01X6464300Y3149600D03*
G01X6210300Y2895600D03*
G01X6464300Y2895600D03*
G01X6210300Y2641600D03*
G01X6464300Y2641600D03*
G01X6210300Y2387600D03*
G01X6464300Y2387600D03*
G01X6210300Y2133600D03*
G01X6464300Y2133600D03*
G01X6210300Y1879600D03*
G01X6464300Y1879600D03*
G01X6210300Y1625600D03*
G01X6464300Y1625600D03*
G01X6210300Y1371600D03*
G01X6464300Y1371600D03*
G01X6210300Y1117600D03*
G01X6464300Y1117600D03*
G01X6210300Y863600D03*
G01X6464300Y863600D03*
G01X6210300Y609600D03*
G01X6464300Y609600D03*
G01X6210300Y355600D03*
G54D17*
G01X6464300Y355600D03*
G54D18*
G01X825500Y3606800D03*
G54D19*
G01X1079500Y3606800D03*
G01X1333500Y3606800D03*
G54D18*
G01X825500Y1828800D03*
G54D19*
G01X1079500Y1828800D03*
G01X1333500Y1828800D03*
G04 Pad End*

G04 Via Start*
G54D20*
G01X4025851Y5981700D03*
G01X4154601Y5981700D03*
G01X3911600Y7670795D03*
G01X3911600Y7492995D03*
G01X2971800Y5854700D03*
G01X3459270Y6116396D03*
G01X3458931Y6883552D03*
G01X2964433Y5085003D03*
G01X3937000Y4448880D03*
G01X3937000Y4313596D03*
G01X4597400Y7239361D03*
G01X4610100Y4724039D03*
G01X7721600Y4448570D03*
G01X7721600Y4314087D03*
G54D21*
G01X3543300Y3440509D03*
G01X3695700Y3440509D03*
G01X3848100Y3440509D03*
G01X4000500Y3440509D03*
G54D20*
G01X4622102Y1993876D03*
G01X4623474Y1513542D03*
G01X5156196Y4016127D03*
G01X5156196Y3442409D03*
G01X6350709Y3987828D03*
G01X6272403Y3768929D03*
G01X7162828Y3936291D03*
G01X7162776Y3353499D03*
G01X8890000Y1879600D03*
G01X8768093Y2776921D03*
G01X8445500Y3517900D03*
G01X7708872Y191209D03*
G01X7847891Y1701772D03*
G01X7772400Y1536700D03*
G01X7910339Y2006600D03*
G01X7518428Y2120191D03*
G01X7899400Y765289D03*
G01X5435604Y2468763D03*
G01X5765796Y2465824D03*
G01X5598034Y2163605D03*
G01X5412801Y2983103D03*
G01X5156196Y3087762D03*
G01X5809804Y3797296D03*
G01X5810130Y3467104D03*
G01X6932394Y977904D03*
G01X6932394Y1143000D03*
G01X6933895Y1308104D03*
G01X6935426Y1473200D03*
G01X6938503Y657099D03*
G01X5168900Y749300D03*
G01X3954800Y863600D03*
G01X4025697Y863600D03*
G01X3683000Y863600D03*
G01X3759369Y863600D03*
G01X3429000Y749300D03*
G01X3531135Y749300D03*
G01X3708400Y394891D03*
G01X3873504Y403473D03*
G01X4038600Y403473D03*
G01X4203704Y407823D03*
G01X4051300Y2654300D03*
G01X4051300Y2578100D03*
G01X4203700Y2653109D03*
G01X4506488Y2286000D03*
G01X4660202Y2285976D03*
G01X5155009Y2400300D03*
G01X5130102Y2806676D03*
G01X5121027Y2641600D03*
G01X5232396Y1801967D03*
G01X5112249Y1841504D03*
G01X5115189Y1663704D03*
G01X5121986Y1498600D03*
G01X2578100Y2819400D03*
G01X2578100Y2742851D03*
G01X2578100Y2552700D03*
G01X2578100Y2476500D03*
G01X2910312Y1866211D03*
G01X2764703Y1876602D03*
G01X2775436Y800100D03*
G01X3629660Y1711960D03*
G01X3629660Y1788160D03*
G01X3629660Y1864360D03*
G01X3629660Y1940560D03*
G01X3629660Y2016760D03*
G01X3629660Y2092960D03*
G01X3705860Y1711960D03*
G01X3705860Y1788160D03*
G01X3705860Y1864360D03*
G01X3705860Y1940560D03*
G01X3705860Y2016760D03*
G01X3705860Y2092960D03*
G01X3782060Y1711960D03*
G01X3782060Y1788160D03*
G01X3782060Y1864360D03*
G01X3782060Y1940560D03*
G01X3782060Y2016760D03*
G01X3782060Y2092960D03*
G01X3365500Y2197100D03*
G54D22*
G01X3571020Y2405186D03*
G54D20*
G01X3721100Y2387600D03*
G01X3848100Y2387600D03*
G01X3543300Y3146984D03*
G01X3695700Y3146984D03*
G01X3848100Y3145867D03*
G01X4000500Y3146562D03*
G01X3784600Y1371600D03*
G01X3848100Y1295400D03*
G01X3708400Y671909D03*
G01X4038600Y671909D03*
G01X4620301Y1828800D03*
G01X4622721Y1676400D03*
G01X7528601Y3721097D03*
G01X7529909Y3568700D03*
G01X4601191Y3698299D03*
G01X4601191Y3774499D03*
G54D23*
G01X3896360Y6804660D03*
G01X3896360Y6893560D03*
G01X3985260Y6804660D03*
G01X3985260Y6893560D03*
G01X4074160Y6804660D03*
G01X4074160Y6893560D03*
G01X4163060Y6804660D03*
G01X4429760Y6804660D03*
G01X4429760Y6893560D03*
G01X4518660Y6804660D03*
G01X4518660Y6893560D03*
G01X4607560Y6804660D03*
G01X4607560Y6893560D03*
G01X4696460Y6804660D03*
G01X4696460Y6893560D03*
G01X4785360Y6804660D03*
G01X4785360Y6893560D03*
G01X3883914Y5090160D03*
G01X3883914Y5179060D03*
G01X3972814Y5090160D03*
G01X3972814Y5179060D03*
G01X4061714Y5090160D03*
G01X4061714Y5179060D03*
G01X4150614Y5090160D03*
G01X4150614Y5179060D03*
G01X4366514Y5090160D03*
G01X4366514Y5179060D03*
G01X4455414Y5090160D03*
G01X4455414Y5179060D03*
G01X4544314Y5090160D03*
G01X4544314Y5179060D03*
G01X4633214Y5090160D03*
G01X4633214Y5179060D03*
G01X5496560Y6283960D03*
G01X5496560Y6372860D03*
G01X5496560Y6461760D03*
G01X5496560Y6550660D03*
G01X5763260Y6283960D03*
G01X5763260Y6372860D03*
G01X5763260Y6461760D03*
G01X5763260Y6550660D03*
G01X6715760Y6278474D03*
G01X6715760Y6367374D03*
G01X6715760Y6456274D03*
G01X6715760Y6545174D03*
G01X6982460Y6278474D03*
G01X6982460Y6367374D03*
G01X6982460Y6456274D03*
G01X6982460Y6545174D03*
G01X5496560Y5438546D03*
G01X5496560Y5527446D03*
G01X5496560Y5616346D03*
G01X5496560Y5705246D03*
G01X5763260Y5438546D03*
G01X5763260Y5527446D03*
G01X5763260Y5616346D03*
G01X5763260Y5705246D03*
G01X6715760Y5438546D03*
G01X6715760Y5527446D03*
G01X6715760Y5616346D03*
G01X6715760Y5705246D03*
G01X6982460Y5438546D03*
G01X6982460Y5527446D03*
G01X6982460Y5616346D03*
G01X6982460Y5705246D03*
G54D20*
G01X2321293Y5077460D03*
G01X2321293Y5153660D03*
G01X2321293Y5763260D03*
G01X2321293Y5839460D03*
G01X2321293Y5915660D03*
G01X2397493Y5077460D03*
G01X2397493Y5153660D03*
G01X2397493Y5763260D03*
G01X2397493Y5839460D03*
G01X2397493Y5915660D03*
G01X2473693Y5077460D03*
G01X2473693Y5153660D03*
G01X2473693Y5763260D03*
G01X2473693Y5839460D03*
G01X2473693Y5915660D03*
G01X2549893Y5077460D03*
G01X2549893Y5153660D03*
G01X2549893Y5763260D03*
G01X2549893Y5839460D03*
G01X2549893Y5915660D03*
G01X2626093Y5077460D03*
G01X2626093Y5153660D03*
G01X2626093Y5763260D03*
G01X2626093Y5839460D03*
G01X2626093Y5915660D03*
G01X2702293Y5077460D03*
G01X2702293Y5153660D03*
G01X2702293Y5763260D03*
G01X2702293Y5839460D03*
G01X2702293Y5915660D03*
G01X2321560Y6080760D03*
G01X2321560Y6156960D03*
G01X2321560Y6842760D03*
G01X2321560Y6918960D03*
G01X2397760Y6080760D03*
G01X2397760Y6156960D03*
G01X2397760Y6842760D03*
G01X2397760Y6918960D03*
G01X2473960Y6080760D03*
G01X2473960Y6156960D03*
G01X2473960Y6842760D03*
G01X2473960Y6918960D03*
G01X2550160Y6080760D03*
G01X2550160Y6156960D03*
G01X2550160Y6842760D03*
G01X2550160Y6918960D03*
G01X2626360Y6080760D03*
G01X2626360Y6156960D03*
G01X2626360Y6842760D03*
G01X2626360Y6918960D03*
G01X2702560Y6080760D03*
G01X2702560Y6156960D03*
G01X2702560Y6842760D03*
G01X2702560Y6918960D03*
G01X2321560Y7097014D03*
G01X2321560Y7173214D03*
G01X2321560Y7249414D03*
G01X2321560Y7325614D03*
G01X2321560Y7401814D03*
G01X2321560Y7478014D03*
G01X2397760Y7097014D03*
G01X2397760Y7173214D03*
G01X2397760Y7249414D03*
G01X2397760Y7325614D03*
G01X2397760Y7401814D03*
G01X2397760Y7478014D03*
G01X2473960Y7097014D03*
G01X2473960Y7173214D03*
G01X2473960Y7249414D03*
G01X2473960Y7325614D03*
G01X2473960Y7401814D03*
G01X2473960Y7478014D03*
G01X2550160Y7097014D03*
G01X2550160Y7173214D03*
G01X2550160Y7249414D03*
G01X2550160Y7325614D03*
G01X2550160Y7401814D03*
G01X2550160Y7478014D03*
G01X2626360Y7097014D03*
G01X2626360Y7173214D03*
G01X2626360Y7249414D03*
G01X2626360Y7325614D03*
G01X2626360Y7401814D03*
G01X2626360Y7478014D03*
G01X2702560Y7097014D03*
G01X2702560Y7173214D03*
G01X2702560Y7249414D03*
G01X2702560Y7325614D03*
G01X2702560Y7401814D03*
G01X2702560Y7478014D03*
G01X2321560Y4480560D03*
G01X2321560Y4556760D03*
G01X2321560Y4632960D03*
G01X2321560Y4709160D03*
G01X2321560Y4785360D03*
G01X2321560Y4861560D03*
G01X2397760Y4480560D03*
G01X2397760Y4556760D03*
G01X2397760Y4632960D03*
G01X2397760Y4709160D03*
G01X2397760Y4785360D03*
G01X2397760Y4861560D03*
G01X2473960Y4480560D03*
G01X2473960Y4556760D03*
G01X2473960Y4632960D03*
G01X2473960Y4709160D03*
G01X2473960Y4785360D03*
G01X2473960Y4861560D03*
G01X2550160Y4480560D03*
G01X2550160Y4556760D03*
G01X2550160Y4632960D03*
G01X2550160Y4709160D03*
G01X2550160Y4785360D03*
G01X2550160Y4861560D03*
G01X2626360Y4480560D03*
G01X2626360Y4556760D03*
G01X2626360Y4632960D03*
G01X2626360Y4709160D03*
G01X2626360Y4785360D03*
G01X2626360Y4861560D03*
G01X2702560Y4480560D03*
G01X2702560Y4556760D03*
G01X2702560Y4632960D03*
G01X2702560Y4709160D03*
G01X2702560Y4785360D03*
G01X2702560Y4861560D03*
G01X3069448Y7077067D03*
G01X3069448Y7153267D03*
G01X3069448Y7229467D03*
G01X3069448Y7305667D03*
G01X3145648Y7077067D03*
G01X3145648Y7153267D03*
G01X3145648Y7229467D03*
G01X3145648Y7305667D03*
G01X3221848Y7077067D03*
G01X3221848Y7153267D03*
G01X3221848Y7229467D03*
G01X3221848Y7305667D03*
G01X3298048Y7077067D03*
G01X3298048Y7153267D03*
G01X3298048Y7229467D03*
G01X3298048Y7305667D03*
G01X3374248Y7077067D03*
G01X3374248Y7153267D03*
G01X3374248Y7229467D03*
G01X3374248Y7305667D03*
G01X3058160Y6322060D03*
G01X3058160Y6398260D03*
G01X3058160Y6474460D03*
G01X3058160Y6550660D03*
G01X3134360Y6322060D03*
G01X3134360Y6398260D03*
G01X3134360Y6474460D03*
G01X3134360Y6550660D03*
G01X3210560Y6322060D03*
G01X3210560Y6398260D03*
G01X3210560Y6474460D03*
G01X3210560Y6550660D03*
G01X3286760Y6322060D03*
G01X3286760Y6398260D03*
G01X3286760Y6474460D03*
G01X3286760Y6550660D03*
G01X3362960Y6322060D03*
G01X3362960Y6398260D03*
G01X3362960Y6474460D03*
G01X3362960Y6550660D03*
G01X3058160Y5407660D03*
G01X3058160Y5483860D03*
G01X3058160Y5560060D03*
G01X3058160Y5636260D03*
G01X3134360Y5407660D03*
G01X3134360Y5483860D03*
G01X3134360Y5560060D03*
G01X3134360Y5636260D03*
G01X3210560Y5407660D03*
G01X3210560Y5483860D03*
G01X3210560Y5560060D03*
G01X3210560Y5636260D03*
G01X3286760Y5407660D03*
G01X3286760Y5483860D03*
G01X3286760Y5560060D03*
G01X3286760Y5636260D03*
G01X3362960Y5407660D03*
G01X3362960Y5483860D03*
G01X3362960Y5560060D03*
G01X3362960Y5636260D03*
G01X3058160Y4645660D03*
G01X3058160Y4721860D03*
G01X3058160Y4798060D03*
G01X3058160Y4874260D03*
G01X3134360Y4645660D03*
G01X3134360Y4721860D03*
G01X3134360Y4798060D03*
G01X3134360Y4874260D03*
G01X3210560Y4645660D03*
G01X3210560Y4721860D03*
G01X3210560Y4798060D03*
G01X3210560Y4874260D03*
G01X3286760Y4645660D03*
G01X3286760Y4721860D03*
G01X3286760Y4798060D03*
G01X3286760Y4874260D03*
G01X3362960Y4645660D03*
G01X3362960Y4721860D03*
G01X3362960Y4798060D03*
G01X3362960Y4874260D03*
G01X3619500Y1422400D03*
G54D22*
G01X3783406Y2468495D03*
G54D20*
G01X7899400Y1536700D03*
G01X7518400Y1536700D03*
G01X7810500Y2716609D03*
G01X7924800Y2717800D03*
G01X4051300Y1612900D03*
G01X4114155Y1670655D03*
G01X4852109Y1663728D03*
G01X3203743Y1991888D03*
G01X4194725Y1155700D03*
G01X3695700Y1358900D03*
G01X6642100Y660400D03*
G01X6388100Y3657600D03*
G01X6933656Y2679700D03*
G01X5435600Y2717153D03*
G01X5582412Y2882969D03*
G01X5129609Y2971799D03*
G01X5159539Y2247900D03*
G01X5779691Y1625600D03*
G01X3479800Y1253687D03*
G01X2769791Y952500D03*
G01X3048773Y952500D03*
G01X3384398Y2502091D03*
G01X2247900Y2654300D03*
G01X2768600Y1739900D03*
G01X3055388Y1519475D03*
G54D23*
G01X4163060Y6893560D03*
G54D20*
G01X2514600Y3238500D03*
G01X4025900Y2120900D03*
G01X4025900Y2044700D03*
G01X4089400Y1981200D03*
G01X4025900Y1917700D03*
G01X3352800Y1612900D03*
G01X3336895Y1956460D03*
G01X2146300Y3238500D03*
G01X2768600Y1193800D03*
G01X4965700Y1422400D03*
G01X4973899Y2006600D03*
G01X4999111Y2247900D03*
G01X4356809Y2705128D03*
G01X1155700Y469900D03*
G01X8890000Y2006600D03*
G01X7645400Y1535122D03*
G01X6616002Y3987776D03*
G01X5226202Y3283102D03*
G01X5651500Y3771900D03*
G01X8544560Y4785360D03*
G01X8620760Y4480560D03*
G01X8620760Y4556760D03*
G01X8620760Y4632960D03*
G01X8620760Y4709160D03*
G01X8620760Y4785360D03*
G01X8696960Y4480560D03*
G01X8696960Y4556760D03*
G01X8696960Y4632960D03*
G01X8696960Y4709160D03*
G01X8696960Y4785360D03*
G01X8773160Y4480560D03*
G01X8773160Y4556760D03*
G01X8773160Y4632960D03*
G01X8773160Y4709160D03*
G01X8773160Y4785360D03*
G01X8849360Y4480560D03*
G01X8849360Y4556760D03*
G01X8849360Y4632960D03*
G01X8849360Y4709160D03*
G01X8925560Y4480560D03*
G01X8925560Y4556760D03*
G01X8925560Y4632960D03*
G01X8925560Y4709160D03*
G01X9001760Y4480560D03*
G01X9001760Y4556760D03*
G01X9001760Y4632960D03*
G01X9001760Y4709160D03*
G01X9077960Y4480560D03*
G01X9077960Y4556760D03*
G01X9077960Y4632960D03*
G01X9077960Y4709160D03*
G01X9077960Y4785360D03*
G01X9154160Y4480560D03*
G01X9154160Y4556760D03*
G01X9154160Y4632960D03*
G01X9154160Y4709160D03*
G01X9154160Y4785360D03*
G01X3949700Y4584700D03*
G01X3149628Y2454403D03*
G01X2984500Y1351334D03*
G01X4420464Y2363906D03*
G01X3932456Y1386050D03*
G01X3059509Y1117600D03*
G01X3187700Y939800D03*
G01X3397677Y1899077D03*
G01X3416300Y1333500D03*
G01X4194815Y1018500D03*
G01X4013200Y3924300D03*
G01X4013200Y3708400D03*
G01X3340100Y3568700D03*
G01X3340100Y3759200D03*
G01X6667500Y2870200D03*
G01X6968606Y3243665D03*
G01X5478961Y1124868D03*
G04 Via End*

G04 Track Start*
G54D24*
G01X3365500Y2197100D02*
G01X3467100Y2298700D01*
G01X3467100Y4978400D02*
G01X3073400Y4978400D01*
G01X2966797Y5085003D01*
G01X2964433Y5085003D01*
G01X3543300Y3440509D02*
G01X3543300Y4902200D01*
G01X3467100Y4978400D01*
G01X3035300Y5854700D02*
G01X2971800Y5854700D01*
G01X3467100Y5765800D02*
G01X3124200Y5765800D01*
G01X3035300Y5854700D01*
G01X4000500Y3440509D02*
G01X3771900Y3669109D01*
G01X3459270Y6116396D02*
G01X3619500Y6116396D01*
G01X3695700Y3440509D02*
G01X3619500Y3516709D01*
G01X3619500Y5613400D01*
G01X3467100Y5765800D01*
G01X3619500Y6116396D02*
G01X3695700Y6040196D01*
G01X3695700Y3592909D01*
G01X3848100Y3440509D01*
G01X3467100Y2298700D02*
G01X3467100Y2781300D01*
G01X4085913Y3006413D02*
G01X4085913Y3191187D01*
G01X3771900Y3669109D02*
G01X3771900Y6680200D01*
G01X3568548Y6883552D01*
G01X3458931Y6883552D01*
G01X3848100Y2387600D02*
G01X3873500Y2413000D01*
G01X3873500Y2794000D01*
G01X4085913Y3006413D01*
G01X3721100Y2387600D02*
G01X3708400Y2400300D01*
G01X3708400Y2755900D01*
G01X3571020Y2745520D02*
G01X3571020Y2405186D01*
G01X3771900Y2946400D02*
G01X3571020Y2745520D01*
G54D11*
G01X7683500Y1701800D02*
G01X7518400Y1536700D01*
G01X7734300Y1701800D02*
G01X7899400Y1536700D01*
G01X8242300Y3149600D02*
G01X8343900Y3251200D01*
G01X8343900Y3289300D01*
G01X8496300Y3149600D02*
G01X8394700Y3251200D01*
G01X8343900Y3289300D02*
G01X8299450Y3333750D01*
G01X7956550Y3333750D01*
G01X7734300Y3111500D01*
G01X7734300Y1701800D01*
G01X8394700Y3251200D02*
G01X8394700Y3302000D01*
G01X8318500Y3378200D01*
G01X7937500Y3378200D01*
G01X7683500Y3124200D01*
G01X7683500Y1701800D01*
G01X4051300Y1612900D02*
G01X4089319Y1612900D01*
G01X4130293Y1571942D01*
G01X4759642Y1571942D01*
G01X4851428Y1663728D01*
G01X4852109Y1663728D01*
G01X6007100Y736600D02*
G01X6565900Y736600D01*
G01X6642100Y660400D01*
G01X6464300Y2387600D02*
G01X6337300Y2514600D01*
G01X6032500Y2514600D02*
G01X5829300Y2717800D01*
G01X5436247Y2717800D01*
G01X5435600Y2717153D01*
G01X6337300Y2514600D02*
G01X6032500Y2514600D01*
G54D24*
G01X3708400Y2755900D02*
G01X3848100Y2895600D01*
G01X3848100Y3145867D01*
G01X3692213Y3150471D02*
G01X3695700Y3146984D01*
G01X3467100Y2781300D02*
G01X3543300Y2857500D01*
G01X3543300Y3146984D01*
G01X825500Y3594100D02*
G01X1050191Y3369409D01*
G01X4381500Y3568700D02*
G01X4381500Y4482739D01*
G01X4610100Y4711339D01*
G01X825500Y3606800D02*
G01X825500Y3594100D01*
G01X4610100Y4711339D02*
G01X4610100Y4724039D01*
G54D11*
G01X3937000Y1676400D02*
G01X4108410Y1676400D01*
G01X4114155Y1670655D01*
G54D24*
G01X1050191Y3369409D02*
G01X1926307Y3369409D01*
G01X3384398Y2502091D02*
G01X3232188Y2654300D01*
G01X2247900Y2654300D01*
G01X1981200Y3314515D02*
G01X1981200Y1741091D01*
G01X2769791Y952500D01*
G01X2146300Y3238500D02*
G01X2514600Y3238500D01*
G54D11*
G01X4991100Y1714500D02*
G01X4940300Y1765300D01*
G01X4140200Y1930400D02*
G01X4089400Y1981200D01*
G01X4699000Y1930400D02*
G01X4140200Y1930400D01*
G01X4864100Y1765300D02*
G01X4699000Y1930400D01*
G01X4940300Y1765300D02*
G01X4864100Y1765300D01*
G01X4965700Y1422400D02*
G01X4991100Y1447800D01*
G01X4991100Y1714500D01*
G01X4025900Y2044700D02*
G01X4318000Y2044700D01*
G01X4330700Y2057400D01*
G01X4923099Y2057400D02*
G01X4973899Y2006600D01*
G01X4330700Y2057400D02*
G01X4923099Y2057400D01*
G54D24*
G01X4381500Y3568700D02*
G01X4724400Y3225800D01*
G01X1155700Y469900D02*
G01X1524000Y101600D01*
G01X8077200Y101600D01*
G01X8242300Y266700D01*
G01X8242300Y355600D01*
G01X8496300Y355600D01*
G54D11*
G01X8242300Y355600D02*
G01X8051800Y546100D01*
G01X8051800Y1282700D02*
G01X8013700Y1320800D01*
G01X7696200Y1320800D01*
G01X7645400Y1371600D01*
G01X7645400Y1535122D01*
G01X8051800Y546100D02*
G01X8051800Y1282700D01*
G54D24*
G01X8890000Y2006600D02*
G01X8991600Y1905000D01*
G01X8991600Y508000D01*
G01X8839200Y355600D01*
G01X8496300Y355600D01*
G54D11*
G01X8013700Y1320800D02*
G01X8051800Y1358900D01*
G01X8051800Y2654300D01*
G01X7989491Y2716609D01*
G54D24*
G01X8890000Y2006600D02*
G01X8991600Y2108200D01*
G01X8991600Y3543300D01*
G01X8737600Y3797300D01*
G01X6692226Y4064000D02*
G01X6616002Y3987776D01*
G01X8737600Y3797300D02*
G01X7607300Y3797300D01*
G01X7340600Y4064000D01*
G01X6692226Y4064000D01*
G01X6616002Y3987776D02*
G01X6527126Y3898900D01*
G01X6223000Y3898900D01*
G01X6121400Y4000500D01*
G01X5816600Y4000500D01*
G01X5651500Y3835400D01*
G01X5651500Y3771900D01*
G54D11*
G01X7989491Y2716609D02*
G01X7810500Y2716609D01*
G01X3695700Y1358900D02*
G01X3695700Y1028700D01*
G01X5129609Y2971799D02*
G01X5218507Y2882900D01*
G01X5582343Y2882900D01*
G01X3048773Y952500D02*
G01X3225800Y1129527D01*
G01X3225800Y1231900D01*
G01X4025900Y2120900D02*
G01X4872111Y2120900D01*
G01X4999111Y2247900D01*
G54D24*
G01X5159539Y2247900D02*
G01X5779691Y1627748D01*
G01X5779691Y1625600D01*
G01X4724400Y3225800D02*
G01X4724400Y2683039D01*
G01X5159539Y2247900D01*
G54D11*
G01X3225800Y1231900D02*
G01X3581400Y1587500D01*
G01X3848100Y1587500D01*
G01X3937000Y1676400D01*
G01X3695700Y1028700D02*
G01X3802400Y922000D01*
G01X5821700Y922000D01*
G01X6007100Y736600D01*
G01X3416300Y1333500D02*
G01X3594100Y1511300D01*
G01X5562600Y1231900D02*
G01X6210300Y1879600D01*
G01X3594100Y1511300D02*
G01X4013200Y1511300D01*
G01X4292600Y1231900D01*
G01X5562600Y1231900D01*
G01X4194815Y1018500D02*
G01X5857200Y1018500D01*
G01X6210300Y1371600D01*
G54D24*
G01X1932636Y3363079D02*
G01X4175879Y3363079D01*
G01X4381500Y3568700D01*
G01X1932636Y3363079D02*
G01X1981200Y3314515D01*
G01X1926307Y3369409D02*
G01X1932636Y3363079D01*
G01X4085913Y3191187D02*
G01X3987800Y3289300D01*
G01X3743013Y3289300D01*
G01X3692213Y3238500D01*
G01X3692213Y3150471D01*
G01X4000500Y3146562D02*
G01X3930094Y3216968D01*
G01X3801065Y3216968D01*
G01X3771900Y3187803D01*
G01X3771900Y2946400D01*
G54D11*
G01X6968606Y3243665D02*
G01X7023100Y3189171D01*
G01X6756400Y1498600D02*
G01X6032500Y1498600D01*
G01X5658768Y1124868D01*
G01X5478961Y1124868D01*
G01X7023100Y3189171D02*
G01X7023100Y1765300D01*
G01X6756400Y1498600D01*
G04 Track End*

M02*

