G04*
G04 #@! TF.GenerationSoftware,Altium Limited,Altium Designer,22.10.1 (41)*
G04*
G04 Layer_Color=128*
%FSLAX43Y43*%
%MOMM*%
G71*
G04*
G04 #@! TF.SameCoordinates,4C0F9513-60CD-4D5F-B6EC-70163B4A845F*
G04*
G04*
G04 #@! TF.FilePolarity,Positive*
G04*
G01*
G75*
%ADD10R,1.000X0.640*%
%ADD11R,0.640X1.000*%
%ADD12C,0.100*%
D10*
X23175Y37225D02*
D03*
X23175Y35825D02*
D03*
X15325Y38500D02*
D03*
X15325Y37100D02*
D03*
X22575Y17050D02*
D03*
X22575Y18450D02*
D03*
X32420Y17065D02*
D03*
X32420Y18465D02*
D03*
X21250Y5250D02*
D03*
X21250Y3850D02*
D03*
X15525Y4825D02*
D03*
X15525Y6225D02*
D03*
X15525Y1875D02*
D03*
X15525Y3275D02*
D03*
X28370Y17065D02*
D03*
X28370Y18465D02*
D03*
X22225Y27025D02*
D03*
X22225Y28425D02*
D03*
X38360Y27040D02*
D03*
X38360Y25640D02*
D03*
X23795Y28415D02*
D03*
X23795Y27015D02*
D03*
X33770Y17065D02*
D03*
X33770Y18465D02*
D03*
X47995Y54365D02*
D03*
X47995Y52965D02*
D03*
X52225Y45925D02*
D03*
X52225Y44525D02*
D03*
X53900Y14425D02*
D03*
X53900Y15825D02*
D03*
X15275Y43100D02*
D03*
X15275Y44500D02*
D03*
X37845Y18465D02*
D03*
X37845Y17065D02*
D03*
X35220Y22240D02*
D03*
X35220Y20840D02*
D03*
X23350Y21275D02*
D03*
X23350Y22675D02*
D03*
X35120Y17065D02*
D03*
X35120Y18465D02*
D03*
X25670Y17065D02*
D03*
X25670Y18465D02*
D03*
X29720Y17065D02*
D03*
X29720Y18465D02*
D03*
X31070Y17065D02*
D03*
X31070Y18465D02*
D03*
X36470Y17065D02*
D03*
X36470Y18465D02*
D03*
X21250Y8900D02*
D03*
X21250Y7500D02*
D03*
X37970Y42540D02*
D03*
X37970Y41140D02*
D03*
X33870Y24990D02*
D03*
X33870Y23590D02*
D03*
X33870Y20840D02*
D03*
X33870Y22240D02*
D03*
X39195Y17065D02*
D03*
X39195Y18465D02*
D03*
Y21215D02*
D03*
X39195Y19815D02*
D03*
X27020Y17065D02*
D03*
X27020Y18465D02*
D03*
X37845Y19815D02*
D03*
X37845Y21215D02*
D03*
X35220Y23590D02*
D03*
X35220Y24990D02*
D03*
X20300Y18450D02*
D03*
X20300Y17050D02*
D03*
X48595Y24890D02*
D03*
X48595Y23490D02*
D03*
X17675Y37225D02*
D03*
X17675Y35825D02*
D03*
D11*
X44345Y27065D02*
D03*
X42945D02*
D03*
X54125Y39575D02*
D03*
X52725D02*
D03*
X54275Y49750D02*
D03*
X52875D02*
D03*
X26845Y24340D02*
D03*
X25445D02*
D03*
X44345Y28565D02*
D03*
X42945D02*
D03*
D12*
X0Y4000D02*
G03*
X2000Y2000I2000J0D01*
G01*
X2000Y82500D02*
G03*
X0Y80500I0J-2000D01*
G01*
X70000D02*
G03*
X68000Y82500I-2000J0D01*
G01*
X68000Y2000D02*
G03*
X70000Y4000I0J2000D01*
G01*
X11500Y2000D02*
X13500Y0D01*
X46500D01*
X48500Y2000D01*
Y2000D01*
X68000D01*
X2000Y82500D02*
X68000D01*
X2000Y2000D02*
X11500D01*
X0Y4000D02*
Y58000D01*
Y80500D01*
X70000Y4000D02*
Y58000D01*
Y80500D01*
X70000Y80500D02*
X70000Y80500D01*
M02*
