;TYPE=PLATED
;Layer: PTH_Through_Via
;EasyEDA Pro Client v2.2.39.2, 2025-06-01 18:17:37
;Gerber Generator version 0.3
M48
METRIC,LZ,0000.00000
;Hole size 1 = 0.30500 METRIC
T01C0.30500
;Hole size 2 = 0.48260 METRIC
T02C0.48260
%
G05
G90
T01
X46.22101Y19.93876
X46.23474Y15.13542
X51.56196Y40.16127
X51.56196Y34.42409
X63.50709Y39.87828
X62.72403Y37.6893
X71.62828Y39.36291
X71.62776Y33.53499
X88.9Y18.796
X87.68093Y27.76921
X84.455Y35.179
X77.08872Y1.91209
X78.47891Y17.01772
X77.724Y15.16907
X79.10339Y20.066
X75.18428Y21.20191
X78.994Y7.65289
X54.35604Y24.68763
X57.65796Y24.65824
X55.98034Y21.63604
X54.12801Y29.83103
X51.56196Y30.87762
X58.09804Y37.97296
X58.1013Y34.67104
X69.31701Y30.35297
X69.32394Y9.77904
X69.32394Y11.43
X69.33895Y13.08104
X69.35426Y14.732
X69.38503Y6.57099
X51.689Y7.493
X39.116Y8.636
X39.87597Y8.636
X36.83Y8.636
X37.59369Y8.636
X34.29Y7.493
X35.31135Y7.493
X37.084Y3.94891
X38.73504Y4.03473
X40.386Y4.03473
X42.03704Y4.07823
X40.513Y26.543
X40.513Y25.781
X42.037Y26.53109
X46.34309Y24.511
X46.34802Y22.85976
X51.29609Y24.003
X51.30102Y28.06676
X51.21027Y26.416
X52.32396Y18.01967
X51.12249Y18.41504
X51.15189Y16.63704
X51.21986Y14.986
X25.781Y28.194
X25.781Y27.42851
X25.781Y25.527
X25.781Y24.765
X27.77403Y20.32
X27.77403Y18.66896
X27.75436Y8.001
X36.2966Y17.1196
X36.2966Y17.8816
X36.2966Y18.6436
X36.2966Y19.4056
X36.2966Y20.1676
X36.2966Y20.9296
X37.0586Y17.1196
X37.0586Y17.8816
X37.0586Y18.6436
X37.0586Y19.4056
X37.0586Y20.1676
X37.0586Y20.9296
X37.8206Y17.1196
X37.8206Y17.8816
X37.8206Y18.6436
X37.8206Y19.4056
X37.8206Y20.1676
X37.8206Y20.9296
X82.2706Y44.6786
X82.2706Y45.3136
X82.2706Y46.5836
X82.2706Y47.2186
X82.9056Y44.6786
X82.9056Y47.8536
X85.4456Y44.6786
X85.4456Y47.8536
X86.0806Y44.6786
X86.0806Y45.3136
X86.0806Y45.9486
X86.0806Y46.5836
X86.0806Y47.2186
X86.0806Y47.8536
T02
X40.25851Y59.817
X41.54601Y59.817
X39.116Y76.70795
X39.116Y74.92995
X29.718Y58.547
X34.5927Y61.16396
X34.58931Y68.83552
X29.64434Y50.85003
X39.37Y44.4888
X39.37Y43.13596
X45.974Y72.39361
X46.101Y47.24039
X77.216Y44.4857
X77.216Y43.14087
X35.433Y34.40509
X36.957Y34.40509
X38.481Y34.40509
X40.005Y34.40509
M30