G04 CAM350/DFMSTREAM V15.1 (Build 2145) Date:  Sun Jun  1 19:27:06 2025 *
G04 Database: (Untitled) *
G04 Layer 1: Gerber_InnerLayer1.G1 *
%FSLAX45Y45*%
%MOMM*%
%SFA1.000B1.000*%

%MIA0B0*%
%IPPOS*%
%ADD10C,0.20320*%
%ADD11C,0.25400*%
%ADD12C,1.01600*%
%ADD13C,2.49999*%
%ADD14C,1.80000*%
%ADD15C,1.60000*%
%ADD16R,1.60000X1.60000*%
%ADD17C,1.70000*%
%ADD19R,1.57480X1.70000*%
%ADD20R,1.70000X1.70000*%
%ADD21R,1.80000X1.80000*%
%ADD22C,0.61000*%
%LNGerber_InnerLayer1.G1*%
%LPD*%
G36*
X3488000Y3291992D02*
G01Y3317646D01*
X4089000*
Y3291992*
X3488000*
G37*
G36*
X35814Y4137660D02*
G01Y4955540D01*
X3551597*
Y4137660*
X35814*
G37*
G36*
Y5085003D02*
G01Y5854700D01*
Y5958586*
X3479241*
Y5007616*
X35814*
Y5085003*
G37*
G36*
Y7874000D02*
G01X37566Y7891789D01*
X42755Y7908894*
X51182Y7924659*
X62521Y7938477*
X76339Y7949817*
X92104Y7958245*
X109209Y7963434*
X127000Y7965186*
X3520440*
Y7020560*
X3503108*
X3498850Y7020814*
X35814*
Y7874000*
G37*
G36*
X41910Y6004560D02*
G01Y6974840D01*
X3488690*
Y6942814*
X3474637Y6947979*
X3459785Y6949861*
X3444889Y6948363*
X3430709Y6943561*
X3417967Y6935701*
X3407313Y6925183*
X3399290Y6912544*
X3394307Y6898427*
X3392617Y6883551*
X3394307Y6868678*
X3399290Y6854561*
X3407313Y6841921*
X3417967Y6831404*
X3430709Y6823544*
X3444889Y6818742*
X3459785Y6817244*
X3474637Y6819125*
X3488690Y6824291*
Y6175827*
X3474649Y6180902*
X3459829Y6182708*
X3444981Y6181153*
X3430858Y6176315*
X3418174Y6168441*
X3407573Y6157929*
X3399593Y6145312*
X3394636Y6131229*
X3392956Y6116395*
X3394636Y6101563*
X3399593Y6087480*
X3407573Y6074864*
X3418174Y6064352*
X3430858Y6056478*
X3444981Y6051640*
X3459829Y6050085*
X3474649Y6051890*
X3488690Y6056965*
Y6004560*
X41910*
G37*
G36*
X7302640Y35814D02*
G01Y366286D01*
Y620286*
Y874286*
Y1128286*
Y1382286*
Y1636286*
Y1890286*
Y2144286*
Y2398286*
Y2652286*
Y2906286*
Y3160286*
Y3267475*
X7820773*
X7831839Y3269228*
X7841823Y3274314*
X7849747Y3282237*
X7854834Y3292221*
X7856588Y3303288*
Y3799840*
X8790491*
X8794528Y3779988*
X8801699Y3761041*
X8811818Y3743490*
X8824622Y3727790*
X8839780Y3714350*
X8856900Y3703516*
X8875536Y3695571*
X8895206Y3690719*
X8915399Y3689088*
X8935592Y3690719*
X8955262Y3695571*
X8973898Y3703516*
X8991018Y3714349*
X9006176Y3727789*
X9018982Y3743488*
X9029101Y3761039*
X9036272Y3779986*
X9040309Y3799840*
X9247886*
Y126999*
X9246134Y109209*
X9240945Y92104*
X9232517Y76339*
X9221177Y62521*
X9207359Y51182*
X9191594Y42755*
X9174489Y37566*
X9156700Y35814*
X7302640*
G37*
G36*
X2171586D02*
G01Y366286D01*
Y620286*
Y874286*
Y1128286*
Y1382286*
Y1636286*
Y1890286*
Y2144286*
Y2398286*
Y2652286*
Y2906286*
Y3160286*
Y3281832*
X4456411*
X4461520Y3283210*
X4461525Y3283213*
X4465244Y3286972*
X4465247Y3286977*
X4466571Y3292098*
X4458282Y4082899*
X7329992Y4082900*
X7810612Y3803737*
X7810614Y3313449*
X7266825*
X7261749Y3312088*
X7261744Y3312085*
X7258029Y3308371*
X7258026Y3308367*
X7256666Y3303288*
Y35814*
X2171586*
G37*
G36*
X35814Y126999D02*
G01Y1913800D01*
Y3440509*
Y3691800*
Y4091686*
X3561756*
X3572822Y4093439*
X3582806Y4098525*
X3590730Y4106448*
X3595817Y4116432*
X3597571Y4127499*
Y4313596*
Y4448880*
Y4614901*
Y4724039*
Y4914900*
Y4965699*
X3595818Y4976765*
X3590732Y4986749*
X3582809Y4994673*
X3572825Y4999760*
X3561758Y5001514*
X3525215*
Y5232400*
Y5532399*
Y5970159*
X3530354Y5977367*
X3532044Y5981700*
X3533570Y5985615*
X3534664Y5994399*
Y6332398*
Y6642100*
Y6942099*
Y6974817*
X3544715Y6977485*
X3553576Y6982928*
X3560500Y6990687*
X3564903Y7000109*
X3566414Y7010399*
Y7239361*
Y7492995*
Y7670795*
Y7742098*
Y7965186*
X9156701*
X9174491Y7963434*
X9191596Y7958245*
X9207361Y7949817*
X9221179Y7938477*
X9232518Y7924659*
X9240945Y7908894*
X9246134Y7891789*
X9247886Y7874000*
Y3845814*
X9037360*
X9037356Y3845817*
X9030607Y3865462*
X9020716Y3883732*
X9007953Y3900125*
X8992667Y3914194*
X8975273Y3925557*
X8956246Y3933901*
X8936106Y3939001*
X8915401Y3940716*
X8894694Y3939001*
X8874554Y3933901*
X8855527Y3925557*
X8838133Y3914194*
X8822847Y3900125*
X8810084Y3883732*
X8800193Y3865462*
X8793440Y3845814*
X7829706*
X7366431Y4114902*
X7350718Y4124029*
X7342045Y4127640*
X7332730Y4128874*
X4448014*
X4436876Y4127097*
X4426842Y4121945*
X4418908Y4113926*
X4413862Y4103839*
X4412203Y4092684*
X4420220Y3327806*
X2161425*
X2150358Y3326052*
X2140374Y3320965*
X2132451Y3313042*
X2127365Y3303057*
X2125612Y3291991*
Y35814*
X127000*
X109211Y37566*
X92106Y42755*
X76341Y51182*
X62523Y62521*
X51183Y76339*
X42755Y92104*
X37566Y109209*
X35814Y126999*
G37*
%LPC*%
G36*
X2907413Y5838829D02*
G01X2913083Y5823881D01*
X2922164Y5810725*
X2934130Y5800124*
X2948286Y5792695*
X2963808Y5788869*
X2979792*
X2995314Y5792695*
X3009470Y5800124*
X3021436Y5810725*
X3030517Y5823881*
X3036187Y5838829*
X3038114Y5854699*
X3036187Y5870569*
X3030518Y5885517*
X3021438Y5898673*
X3009472Y5909274*
X2995316Y5916704*
X2979794Y5920531*
X2963806*
X2948284Y5916704*
X2934128Y5909274*
X2922162Y5898673*
X2913082Y5885517*
X2907413Y5870569*
X2905486Y5854699*
X2907413Y5838829*
G37*
G36*
X2900046Y5069132D02*
G01X2905716Y5054184D01*
X2914798Y5041027*
X2926764Y5030426*
X2940919Y5022998*
X2956441Y5019172*
X2972426*
X2987948Y5022998*
X3002103Y5030426*
X3014069Y5041027*
X3023151Y5054184*
X3028821Y5069132*
X3030748Y5085002*
X3028821Y5100872*
X3023152Y5115819*
X3014071Y5128976*
X3002105Y5139577*
X2987950Y5147006*
X2972428Y5150833*
X2956439*
X2940917Y5147006*
X2926762Y5139577*
X2914796Y5128976*
X2905715Y5115819*
X2900046Y5100872*
X2898119Y5085002*
X2900046Y5069132*
G37*
G36*
X8130907Y577907D02*
G01X8138628Y557978D01*
X8149878Y539808*
X8164276Y524014*
X8181331Y511134*
X8200462Y501607*
X8221018Y495758*
X8242299Y493786*
X8263580Y495758*
X8284136Y501607*
X8303267Y511133*
X8320322Y524012*
X8334720Y539806*
X8345972Y557976*
X8353693Y577905*
X8357620Y598913*
Y620287*
X8353693Y641295*
X8345972Y661224*
X8334720Y679394*
X8320322Y695188*
X8303267Y708067*
X8284136Y717593*
X8263580Y723442*
X8242299Y725414*
X8221018Y723442*
X8200462Y717593*
X8181331Y708066*
X8164276Y695186*
X8149878Y679392*
X8138628Y661222*
X8130907Y641293*
X8126980Y620285*
Y598915*
X8130907Y577907*
G37*
G36*
Y831907D02*
G01X8138628Y811978D01*
X8149878Y793808*
X8164276Y778014*
X8181331Y765134*
X8200462Y755607*
X8221018Y749758*
X8242299Y747786*
X8263580Y749758*
X8284136Y755607*
X8303267Y765133*
X8320322Y778012*
X8334720Y793806*
X8345972Y811976*
X8353693Y831905*
X8357620Y852913*
Y874287*
X8353693Y895295*
X8345972Y915224*
X8334720Y933394*
X8320322Y949188*
X8303267Y962067*
X8284136Y971593*
X8263580Y977442*
X8242299Y979414*
X8221018Y977442*
X8200462Y971593*
X8181331Y962066*
X8164276Y949186*
X8149878Y933392*
X8138628Y915222*
X8130907Y895293*
X8126980Y874285*
Y852915*
X8130907Y831907*
G37*
G36*
Y1085907D02*
G01X8138628Y1065978D01*
X8149878Y1047808*
X8164276Y1032014*
X8181331Y1019134*
X8200462Y1009607*
X8221018Y1003758*
X8242299Y1001786*
X8263580Y1003758*
X8284136Y1009607*
X8303267Y1019133*
X8320322Y1032012*
X8334720Y1047806*
X8345972Y1065976*
X8353693Y1085905*
X8357620Y1106913*
Y1128287*
X8353693Y1149295*
X8345972Y1169224*
X8334720Y1187394*
X8320322Y1203188*
X8303267Y1216067*
X8284136Y1225593*
X8263580Y1231442*
X8242299Y1233414*
X8221018Y1231442*
X8200462Y1225593*
X8181331Y1216066*
X8164276Y1203186*
X8149878Y1187392*
X8138628Y1169222*
X8130907Y1149293*
X8126980Y1128285*
Y1106915*
X8130907Y1085907*
G37*
G36*
Y1339907D02*
G01X8138628Y1319978D01*
X8149878Y1301808*
X8164276Y1286014*
X8181331Y1273134*
X8200462Y1263607*
X8221018Y1257758*
X8242299Y1255786*
X8263580Y1257758*
X8284136Y1263607*
X8303267Y1273133*
X8320322Y1286012*
X8334720Y1301806*
X8345972Y1319976*
X8353693Y1339905*
X8357620Y1360913*
Y1382287*
X8353693Y1403295*
X8345972Y1423224*
X8334720Y1441394*
X8320322Y1457188*
X8303267Y1470067*
X8284136Y1479593*
X8263580Y1485442*
X8242299Y1487414*
X8221018Y1485442*
X8200462Y1479593*
X8181331Y1470066*
X8164276Y1457186*
X8149878Y1441392*
X8138628Y1423222*
X8130907Y1403293*
X8126980Y1382285*
Y1360915*
X8130907Y1339907*
G37*
G36*
Y1593907D02*
G01X8138628Y1573978D01*
X8149878Y1555808*
X8164276Y1540014*
X8181331Y1527134*
X8200462Y1517607*
X8221018Y1511758*
X8242299Y1509786*
X8263580Y1511758*
X8284136Y1517607*
X8303267Y1527133*
X8320322Y1540012*
X8334720Y1555806*
X8345972Y1573976*
X8353693Y1593905*
X8357620Y1614913*
Y1636287*
X8353693Y1657295*
X8345972Y1677224*
X8334720Y1695394*
X8320322Y1711188*
X8303267Y1724067*
X8284136Y1733593*
X8263580Y1739442*
X8242299Y1741414*
X8221018Y1739442*
X8200462Y1733593*
X8181331Y1724066*
X8164276Y1711186*
X8149878Y1695392*
X8138628Y1677222*
X8130907Y1657293*
X8126980Y1636285*
Y1614915*
X8130907Y1593907*
G37*
G36*
Y1847907D02*
G01X8138628Y1827978D01*
X8149878Y1809808*
X8164276Y1794014*
X8181331Y1781134*
X8200462Y1771607*
X8221018Y1765758*
X8242299Y1763786*
X8263580Y1765758*
X8284136Y1771607*
X8303267Y1781133*
X8320322Y1794012*
X8334720Y1809806*
X8345972Y1827976*
X8353693Y1847905*
X8357620Y1868913*
Y1890287*
X8353693Y1911295*
X8345972Y1931224*
X8334720Y1949394*
X8320322Y1965188*
X8303267Y1978067*
X8284136Y1987593*
X8263580Y1993442*
X8242299Y1995414*
X8221018Y1993442*
X8200462Y1987593*
X8181331Y1978066*
X8164276Y1965186*
X8149878Y1949392*
X8138628Y1931222*
X8130907Y1911293*
X8126980Y1890285*
Y1868915*
X8130907Y1847907*
G37*
G36*
Y2101907D02*
G01X8138628Y2081978D01*
X8149878Y2063808*
X8164276Y2048014*
X8181331Y2035134*
X8200462Y2025607*
X8221018Y2019758*
X8242299Y2017786*
X8263580Y2019758*
X8284136Y2025607*
X8303267Y2035133*
X8320322Y2048012*
X8334720Y2063806*
X8345972Y2081976*
X8353693Y2101905*
X8357620Y2122913*
Y2144287*
X8353693Y2165295*
X8345972Y2185224*
X8334720Y2203394*
X8320322Y2219188*
X8303267Y2232067*
X8284136Y2241593*
X8263580Y2247442*
X8242299Y2249414*
X8221018Y2247442*
X8200462Y2241593*
X8181331Y2232066*
X8164276Y2219186*
X8149878Y2203392*
X8138628Y2185222*
X8130907Y2165293*
X8126980Y2144285*
Y2122915*
X8130907Y2101907*
G37*
G36*
Y2355907D02*
G01X8138628Y2335978D01*
X8149878Y2317808*
X8164276Y2302014*
X8181331Y2289134*
X8200462Y2279607*
X8221018Y2273758*
X8242299Y2271786*
X8263580Y2273758*
X8284136Y2279607*
X8303267Y2289133*
X8320322Y2302012*
X8334720Y2317806*
X8345972Y2335976*
X8353693Y2355905*
X8357620Y2376913*
Y2398287*
X8353693Y2419295*
X8345972Y2439224*
X8334720Y2457394*
X8320322Y2473188*
X8303267Y2486067*
X8284136Y2495593*
X8263580Y2501442*
X8242299Y2503414*
X8221018Y2501442*
X8200462Y2495593*
X8181331Y2486066*
X8164276Y2473186*
X8149878Y2457392*
X8138628Y2439222*
X8130907Y2419293*
X8126980Y2398285*
Y2376915*
X8130907Y2355907*
G37*
G36*
Y2609907D02*
G01X8138628Y2589978D01*
X8149878Y2571808*
X8164276Y2556014*
X8181331Y2543134*
X8200462Y2533607*
X8221018Y2527758*
X8242299Y2525786*
X8263580Y2527758*
X8284136Y2533607*
X8303267Y2543133*
X8320322Y2556012*
X8334720Y2571806*
X8345972Y2589976*
X8353693Y2609905*
X8357620Y2630913*
Y2652287*
X8353693Y2673295*
X8345972Y2693224*
X8334720Y2711394*
X8320322Y2727188*
X8303267Y2740067*
X8284136Y2749593*
X8263580Y2755442*
X8242299Y2757414*
X8221018Y2755442*
X8200462Y2749593*
X8181331Y2740066*
X8164276Y2727186*
X8149878Y2711392*
X8138628Y2693222*
X8130907Y2673293*
X8126980Y2652285*
Y2630915*
X8130907Y2609907*
G37*
G36*
Y2863907D02*
G01X8138628Y2843978D01*
X8149878Y2825808*
X8164276Y2810014*
X8181331Y2797134*
X8200462Y2787607*
X8221018Y2781758*
X8242299Y2779786*
X8263580Y2781758*
X8284136Y2787607*
X8303267Y2797133*
X8320322Y2810012*
X8334720Y2825806*
X8345972Y2843976*
X8353693Y2863905*
X8357620Y2884913*
Y2906287*
X8353693Y2927295*
X8345972Y2947224*
X8334720Y2965394*
X8320322Y2981188*
X8303267Y2994067*
X8284136Y3003593*
X8263580Y3009442*
X8242299Y3011414*
X8221018Y3009442*
X8200462Y3003593*
X8181331Y2994066*
X8164276Y2981186*
X8149878Y2965392*
X8138628Y2947222*
X8130907Y2927293*
X8126980Y2906285*
Y2884915*
X8130907Y2863907*
G37*
G36*
Y3117907D02*
G01X8138628Y3097978D01*
X8149878Y3079808*
X8164276Y3064014*
X8181331Y3051134*
X8200462Y3041607*
X8221018Y3035758*
X8242299Y3033786*
X8263580Y3035758*
X8284136Y3041607*
X8303267Y3051133*
X8320322Y3064012*
X8334720Y3079806*
X8345972Y3097976*
X8353693Y3117905*
X8357620Y3138913*
Y3160287*
X8353693Y3181295*
X8345972Y3201224*
X8334720Y3219394*
X8320322Y3235188*
X8303267Y3248067*
X8284136Y3257593*
X8263580Y3263442*
X8242299Y3265414*
X8221018Y3263442*
X8200462Y3257593*
X8181331Y3248066*
X8164276Y3235186*
X8149878Y3219392*
X8138628Y3201222*
X8130907Y3181293*
X8126980Y3160285*
Y3138915*
X8130907Y3117907*
G37*
G36*
X8382239Y264535D02*
G01X8387325Y254551D01*
X8395248Y246627*
X8405232Y241540*
X8416299Y239786*
X8576299*
X8587365Y241539*
X8597349Y246625*
X8605273Y254548*
X8610360Y264532*
X8612114Y275599*
Y435601*
X8610360Y446668*
X8605273Y456652*
X8597350Y464575*
X8587365Y469661*
X8576299Y471414*
X8416299*
X8405232Y469660*
X8395248Y464573*
X8387325Y456650*
X8382239Y446665*
X8380486Y435599*
Y275601*
X8382239Y264535*
G37*
G36*
X8384907Y577907D02*
G01X8392628Y557978D01*
X8403878Y539808*
X8418276Y524014*
X8435331Y511134*
X8454462Y501607*
X8475018Y495758*
X8496299Y493786*
X8517580Y495758*
X8538136Y501607*
X8557267Y511133*
X8574322Y524012*
X8588720Y539806*
X8599972Y557976*
X8607693Y577905*
X8611620Y598913*
Y620287*
X8607693Y641295*
X8599972Y661224*
X8588720Y679394*
X8574322Y695188*
X8557267Y708067*
X8538136Y717593*
X8517580Y723442*
X8496299Y725414*
X8475018Y723442*
X8454462Y717593*
X8435331Y708066*
X8418276Y695186*
X8403878Y679392*
X8392628Y661222*
X8384907Y641293*
X8380980Y620285*
Y598915*
X8384907Y577907*
G37*
G36*
Y831907D02*
G01X8392628Y811978D01*
X8403878Y793808*
X8418276Y778014*
X8435331Y765134*
X8454462Y755607*
X8475018Y749758*
X8496299Y747786*
X8517580Y749758*
X8538136Y755607*
X8557267Y765133*
X8574322Y778012*
X8588720Y793806*
X8599972Y811976*
X8607693Y831905*
X8611620Y852913*
Y874287*
X8607693Y895295*
X8599972Y915224*
X8588720Y933394*
X8574322Y949188*
X8557267Y962067*
X8538136Y971593*
X8517580Y977442*
X8496299Y979414*
X8475018Y977442*
X8454462Y971593*
X8435331Y962066*
X8418276Y949186*
X8403878Y933392*
X8392628Y915222*
X8384907Y895293*
X8380980Y874285*
Y852915*
X8384907Y831907*
G37*
G36*
Y1085907D02*
G01X8392628Y1065978D01*
X8403878Y1047808*
X8418276Y1032014*
X8435331Y1019134*
X8454462Y1009607*
X8475018Y1003758*
X8496299Y1001786*
X8517580Y1003758*
X8538136Y1009607*
X8557267Y1019133*
X8574322Y1032012*
X8588720Y1047806*
X8599972Y1065976*
X8607693Y1085905*
X8611620Y1106913*
Y1128287*
X8607693Y1149295*
X8599972Y1169224*
X8588720Y1187394*
X8574322Y1203188*
X8557267Y1216067*
X8538136Y1225593*
X8517580Y1231442*
X8496299Y1233414*
X8475018Y1231442*
X8454462Y1225593*
X8435331Y1216066*
X8418276Y1203186*
X8403878Y1187392*
X8392628Y1169222*
X8384907Y1149293*
X8380980Y1128285*
Y1106915*
X8384907Y1085907*
G37*
G36*
Y1339907D02*
G01X8392628Y1319978D01*
X8403878Y1301808*
X8418276Y1286014*
X8435331Y1273134*
X8454462Y1263607*
X8475018Y1257758*
X8496299Y1255786*
X8517580Y1257758*
X8538136Y1263607*
X8557267Y1273133*
X8574322Y1286012*
X8588720Y1301806*
X8599972Y1319976*
X8607693Y1339905*
X8611620Y1360913*
Y1382287*
X8607693Y1403295*
X8599972Y1423224*
X8588720Y1441394*
X8574322Y1457188*
X8557267Y1470067*
X8538136Y1479593*
X8517580Y1485442*
X8496299Y1487414*
X8475018Y1485442*
X8454462Y1479593*
X8435331Y1470066*
X8418276Y1457186*
X8403878Y1441392*
X8392628Y1423222*
X8384907Y1403293*
X8380980Y1382285*
Y1360915*
X8384907Y1339907*
G37*
G36*
Y1593907D02*
G01X8392628Y1573978D01*
X8403878Y1555808*
X8418276Y1540014*
X8435331Y1527134*
X8454462Y1517607*
X8475018Y1511758*
X8496299Y1509786*
X8517580Y1511758*
X8538136Y1517607*
X8557267Y1527133*
X8574322Y1540012*
X8588720Y1555806*
X8599972Y1573976*
X8607693Y1593905*
X8611620Y1614913*
Y1636287*
X8607693Y1657295*
X8599972Y1677224*
X8588720Y1695394*
X8574322Y1711188*
X8557267Y1724067*
X8538136Y1733593*
X8517580Y1739442*
X8496299Y1741414*
X8475018Y1739442*
X8454462Y1733593*
X8435331Y1724066*
X8418276Y1711186*
X8403878Y1695392*
X8392628Y1677222*
X8384907Y1657293*
X8380980Y1636285*
Y1614915*
X8384907Y1593907*
G37*
G36*
Y1847907D02*
G01X8392628Y1827978D01*
X8403878Y1809808*
X8418276Y1794014*
X8435331Y1781134*
X8454462Y1771607*
X8475018Y1765758*
X8496299Y1763786*
X8517580Y1765758*
X8538136Y1771607*
X8557267Y1781133*
X8574322Y1794012*
X8588720Y1809806*
X8599972Y1827976*
X8607693Y1847905*
X8611620Y1868913*
Y1890287*
X8607693Y1911295*
X8599972Y1931224*
X8588720Y1949394*
X8574322Y1965188*
X8557267Y1978067*
X8538136Y1987593*
X8517580Y1993442*
X8496299Y1995414*
X8475018Y1993442*
X8454462Y1987593*
X8435331Y1978066*
X8418276Y1965186*
X8403878Y1949392*
X8392628Y1931222*
X8384907Y1911293*
X8380980Y1890285*
Y1868915*
X8384907Y1847907*
G37*
G36*
Y2101907D02*
G01X8392628Y2081978D01*
X8403878Y2063808*
X8418276Y2048014*
X8435331Y2035134*
X8454462Y2025607*
X8475018Y2019758*
X8496299Y2017786*
X8517580Y2019758*
X8538136Y2025607*
X8557267Y2035133*
X8574322Y2048012*
X8588720Y2063806*
X8599972Y2081976*
X8607693Y2101905*
X8611620Y2122913*
Y2144287*
X8607693Y2165295*
X8599972Y2185224*
X8588720Y2203394*
X8574322Y2219188*
X8557267Y2232067*
X8538136Y2241593*
X8517580Y2247442*
X8496299Y2249414*
X8475018Y2247442*
X8454462Y2241593*
X8435331Y2232066*
X8418276Y2219186*
X8403878Y2203392*
X8392628Y2185222*
X8384907Y2165293*
X8380980Y2144285*
Y2122915*
X8384907Y2101907*
G37*
G36*
Y2355907D02*
G01X8392628Y2335978D01*
X8403878Y2317808*
X8418276Y2302014*
X8435331Y2289134*
X8454462Y2279607*
X8475018Y2273758*
X8496299Y2271786*
X8517580Y2273758*
X8538136Y2279607*
X8557267Y2289133*
X8574322Y2302012*
X8588720Y2317806*
X8599972Y2335976*
X8607693Y2355905*
X8611620Y2376913*
Y2398287*
X8607693Y2419295*
X8599972Y2439224*
X8588720Y2457394*
X8574322Y2473188*
X8557267Y2486067*
X8538136Y2495593*
X8517580Y2501442*
X8496299Y2503414*
X8475018Y2501442*
X8454462Y2495593*
X8435331Y2486066*
X8418276Y2473186*
X8403878Y2457392*
X8392628Y2439222*
X8384907Y2419293*
X8380980Y2398285*
Y2376915*
X8384907Y2355907*
G37*
G36*
Y2609907D02*
G01X8392628Y2589978D01*
X8403878Y2571808*
X8418276Y2556014*
X8435331Y2543134*
X8454462Y2533607*
X8475018Y2527758*
X8496299Y2525786*
X8517580Y2527758*
X8538136Y2533607*
X8557267Y2543133*
X8574322Y2556012*
X8588720Y2571806*
X8599972Y2589976*
X8607693Y2609905*
X8611620Y2630913*
Y2652287*
X8607693Y2673295*
X8599972Y2693224*
X8588720Y2711394*
X8574322Y2727188*
X8557267Y2740067*
X8538136Y2749593*
X8517580Y2755442*
X8496299Y2757414*
X8475018Y2755442*
X8454462Y2749593*
X8435331Y2740066*
X8418276Y2727186*
X8403878Y2711392*
X8392628Y2693222*
X8384907Y2673293*
X8380980Y2652285*
Y2630915*
X8384907Y2609907*
G37*
G36*
Y2863907D02*
G01X8392628Y2843978D01*
X8403878Y2825808*
X8418276Y2810014*
X8435331Y2797134*
X8454462Y2787607*
X8475018Y2781758*
X8496299Y2779786*
X8517580Y2781758*
X8538136Y2787607*
X8557267Y2797133*
X8574322Y2810012*
X8588720Y2825806*
X8599972Y2843976*
X8607693Y2863905*
X8611620Y2884913*
Y2906287*
X8607693Y2927295*
X8599972Y2947224*
X8588720Y2965394*
X8574322Y2981188*
X8557267Y2994067*
X8538136Y3003593*
X8517580Y3009442*
X8496299Y3011414*
X8475018Y3009442*
X8454462Y3003593*
X8435331Y2994066*
X8418276Y2981186*
X8403878Y2965392*
X8392628Y2947222*
X8384907Y2927293*
X8380980Y2906285*
Y2884915*
X8384907Y2863907*
G37*
G36*
Y3117907D02*
G01X8392628Y3097978D01*
X8403878Y3079808*
X8418276Y3064014*
X8435331Y3051134*
X8454462Y3041607*
X8475018Y3035758*
X8496299Y3033786*
X8517580Y3035758*
X8538136Y3041607*
X8557267Y3051133*
X8574322Y3064012*
X8588720Y3079806*
X8599972Y3097976*
X8607693Y3117905*
X8611620Y3138913*
Y3160287*
X8607693Y3181295*
X8599972Y3201224*
X8588720Y3219394*
X8574322Y3235188*
X8557267Y3248067*
X8538136Y3257593*
X8517580Y3263442*
X8496299Y3265414*
X8475018Y3263442*
X8454462Y3257593*
X8435331Y3248066*
X8418276Y3235186*
X8403878Y3219392*
X8392628Y3201222*
X8384907Y3181293*
X8380980Y3160285*
Y3138915*
X8384907Y3117907*
G37*
G36*
X8130907Y323907D02*
G01X8138628Y303978D01*
X8149878Y285808*
X8164276Y270014*
X8181331Y257134*
X8200462Y247607*
X8221018Y241758*
X8242299Y239786*
X8263580Y241758*
X8284136Y247607*
X8303267Y257133*
X8320322Y270012*
X8325417Y275600*
X8334720Y285806*
X8345972Y303976*
X8353693Y323905*
X8357620Y344913*
Y366287*
X8353693Y387295*
X8345972Y407224*
X8334720Y425394*
X8320322Y441188*
X8303267Y454067*
X8284136Y463593*
X8263580Y469442*
X8242299Y471414*
X8221018Y469442*
X8200462Y463593*
X8181331Y454066*
X8164276Y441186*
X8149878Y425392*
X8138628Y407222*
X8130907Y387293*
X8126980Y366285*
Y344915*
X8130907Y323907*
G37*
G36*
X6098907Y577907D02*
G01X6106628Y557978D01*
X6117878Y539808*
X6132276Y524014*
X6149331Y511134*
X6168462Y501607*
X6189018Y495758*
X6210299Y493786*
X6231580Y495758*
X6252136Y501607*
X6271267Y511133*
X6288322Y524012*
X6302720Y539806*
X6313972Y557976*
X6321693Y577905*
X6325620Y598913*
Y620287*
X6321693Y641295*
X6313972Y661224*
X6302720Y679394*
X6288322Y695188*
X6271267Y708067*
X6252136Y717593*
X6231580Y723442*
X6210299Y725414*
X6189018Y723442*
X6168462Y717593*
X6149331Y708066*
X6132276Y695186*
X6117878Y679392*
X6106628Y661222*
X6098907Y641293*
X6094980Y620285*
Y598915*
X6098907Y577907*
G37*
G36*
Y831907D02*
G01X6106628Y811978D01*
X6117878Y793808*
X6132276Y778014*
X6149331Y765134*
X6168462Y755607*
X6189018Y749758*
X6210299Y747786*
X6231580Y749758*
X6252136Y755607*
X6271267Y765133*
X6288322Y778012*
X6302720Y793806*
X6313972Y811976*
X6321693Y831905*
X6325620Y852913*
Y874287*
X6321693Y895295*
X6313972Y915224*
X6302720Y933394*
X6288322Y949188*
X6271267Y962067*
X6252136Y971593*
X6231580Y977442*
X6210299Y979414*
X6189018Y977442*
X6168462Y971593*
X6149331Y962066*
X6132276Y949186*
X6117878Y933392*
X6106628Y915222*
X6098907Y895293*
X6094980Y874285*
Y852915*
X6098907Y831907*
G37*
G36*
Y1085907D02*
G01X6106628Y1065978D01*
X6117878Y1047808*
X6132276Y1032014*
X6149331Y1019134*
X6168462Y1009607*
X6189018Y1003758*
X6210299Y1001786*
X6231580Y1003758*
X6252136Y1009607*
X6271267Y1019133*
X6288322Y1032012*
X6302720Y1047806*
X6313972Y1065976*
X6321693Y1085905*
X6325620Y1106913*
Y1128287*
X6321693Y1149295*
X6313972Y1169224*
X6302720Y1187394*
X6288322Y1203188*
X6271267Y1216067*
X6252136Y1225593*
X6231580Y1231442*
X6210299Y1233414*
X6189018Y1231442*
X6168462Y1225593*
X6149331Y1216066*
X6132276Y1203186*
X6117878Y1187392*
X6106628Y1169222*
X6098907Y1149293*
X6094980Y1128285*
Y1106915*
X6098907Y1085907*
G37*
G36*
Y1339907D02*
G01X6106628Y1319978D01*
X6117878Y1301808*
X6132276Y1286014*
X6149331Y1273134*
X6168462Y1263607*
X6189018Y1257758*
X6210299Y1255786*
X6231580Y1257758*
X6252136Y1263607*
X6271267Y1273133*
X6288322Y1286012*
X6302720Y1301806*
X6313972Y1319976*
X6321693Y1339905*
X6325620Y1360913*
Y1382287*
X6321693Y1403295*
X6313972Y1423224*
X6302720Y1441394*
X6288322Y1457188*
X6271267Y1470067*
X6252136Y1479593*
X6231580Y1485442*
X6210299Y1487414*
X6189018Y1485442*
X6168462Y1479593*
X6149331Y1470066*
X6132276Y1457186*
X6117878Y1441392*
X6106628Y1423222*
X6098907Y1403293*
X6094980Y1382285*
Y1360915*
X6098907Y1339907*
G37*
G36*
Y1593907D02*
G01X6106628Y1573978D01*
X6117878Y1555808*
X6132276Y1540014*
X6149331Y1527134*
X6168462Y1517607*
X6189018Y1511758*
X6210299Y1509786*
X6231580Y1511758*
X6252136Y1517607*
X6271267Y1527133*
X6288322Y1540012*
X6302720Y1555806*
X6313972Y1573976*
X6321693Y1593905*
X6325620Y1614913*
Y1636287*
X6321693Y1657295*
X6313972Y1677224*
X6302720Y1695394*
X6288322Y1711188*
X6271267Y1724067*
X6252136Y1733593*
X6231580Y1739442*
X6210299Y1741414*
X6189018Y1739442*
X6168462Y1733593*
X6149331Y1724066*
X6132276Y1711186*
X6117878Y1695392*
X6106628Y1677222*
X6098907Y1657293*
X6094980Y1636285*
Y1614915*
X6098907Y1593907*
G37*
G36*
Y1847907D02*
G01X6106628Y1827978D01*
X6117878Y1809808*
X6132276Y1794014*
X6149331Y1781134*
X6168462Y1771607*
X6189018Y1765758*
X6210299Y1763786*
X6231580Y1765758*
X6252136Y1771607*
X6271267Y1781133*
X6288322Y1794012*
X6302720Y1809806*
X6313972Y1827976*
X6321693Y1847905*
X6325620Y1868913*
Y1890287*
X6321693Y1911295*
X6313972Y1931224*
X6302720Y1949394*
X6288322Y1965188*
X6271267Y1978067*
X6252136Y1987593*
X6231580Y1993442*
X6210299Y1995414*
X6189018Y1993442*
X6168462Y1987593*
X6149331Y1978066*
X6132276Y1965186*
X6117878Y1949392*
X6106628Y1931222*
X6098907Y1911293*
X6094980Y1890285*
Y1868915*
X6098907Y1847907*
G37*
G36*
Y2101907D02*
G01X6106628Y2081978D01*
X6117878Y2063808*
X6132276Y2048014*
X6149331Y2035134*
X6168462Y2025607*
X6189018Y2019758*
X6210299Y2017786*
X6231580Y2019758*
X6252136Y2025607*
X6271267Y2035133*
X6288322Y2048012*
X6302720Y2063806*
X6313972Y2081976*
X6321693Y2101905*
X6325620Y2122913*
Y2144287*
X6321693Y2165295*
X6313972Y2185224*
X6302720Y2203394*
X6288322Y2219188*
X6271267Y2232067*
X6252136Y2241593*
X6231580Y2247442*
X6210299Y2249414*
X6189018Y2247442*
X6168462Y2241593*
X6149331Y2232066*
X6132276Y2219186*
X6117878Y2203392*
X6106628Y2185222*
X6098907Y2165293*
X6094980Y2144285*
Y2122915*
X6098907Y2101907*
G37*
G36*
Y2355907D02*
G01X6106628Y2335978D01*
X6117878Y2317808*
X6132276Y2302014*
X6149331Y2289134*
X6168462Y2279607*
X6189018Y2273758*
X6210299Y2271786*
X6231580Y2273758*
X6252136Y2279607*
X6271267Y2289133*
X6288322Y2302012*
X6302720Y2317806*
X6313972Y2335976*
X6321693Y2355905*
X6325620Y2376913*
Y2398287*
X6321693Y2419295*
X6313972Y2439224*
X6302720Y2457394*
X6288322Y2473188*
X6271267Y2486067*
X6252136Y2495593*
X6231580Y2501442*
X6210299Y2503414*
X6189018Y2501442*
X6168462Y2495593*
X6149331Y2486066*
X6132276Y2473186*
X6117878Y2457392*
X6106628Y2439222*
X6098907Y2419293*
X6094980Y2398285*
Y2376915*
X6098907Y2355907*
G37*
G36*
Y2609907D02*
G01X6106628Y2589978D01*
X6117878Y2571808*
X6132276Y2556014*
X6149331Y2543134*
X6168462Y2533607*
X6189018Y2527758*
X6210299Y2525786*
X6231580Y2527758*
X6252136Y2533607*
X6271267Y2543133*
X6288322Y2556012*
X6302720Y2571806*
X6313972Y2589976*
X6321693Y2609905*
X6325620Y2630913*
Y2652287*
X6321693Y2673295*
X6313972Y2693224*
X6302720Y2711394*
X6288322Y2727188*
X6271267Y2740067*
X6252136Y2749593*
X6231580Y2755442*
X6210299Y2757414*
X6189018Y2755442*
X6168462Y2749593*
X6149331Y2740066*
X6132276Y2727186*
X6117878Y2711392*
X6106628Y2693222*
X6098907Y2673293*
X6094980Y2652285*
Y2630915*
X6098907Y2609907*
G37*
G36*
Y2863907D02*
G01X6106628Y2843978D01*
X6117878Y2825808*
X6132276Y2810014*
X6149331Y2797134*
X6168462Y2787607*
X6189018Y2781758*
X6210299Y2779786*
X6231580Y2781758*
X6252136Y2787607*
X6271267Y2797133*
X6288322Y2810012*
X6302720Y2825806*
X6313972Y2843976*
X6321693Y2863905*
X6325620Y2884913*
Y2906287*
X6321693Y2927295*
X6313972Y2947224*
X6302720Y2965394*
X6288322Y2981188*
X6271267Y2994067*
X6252136Y3003593*
X6231580Y3009442*
X6210299Y3011414*
X6189018Y3009442*
X6168462Y3003593*
X6149331Y2994066*
X6132276Y2981186*
X6117878Y2965392*
X6106628Y2947222*
X6098907Y2927293*
X6094980Y2906285*
Y2884915*
X6098907Y2863907*
G37*
G36*
Y3117907D02*
G01X6106628Y3097978D01*
X6117878Y3079808*
X6132276Y3064014*
X6149331Y3051134*
X6168462Y3041607*
X6189018Y3035758*
X6210299Y3033786*
X6231580Y3035758*
X6252136Y3041607*
X6271267Y3051133*
X6288322Y3064012*
X6302720Y3079806*
X6313972Y3097976*
X6321693Y3117905*
X6325620Y3138913*
Y3160287*
X6321693Y3181295*
X6313972Y3201224*
X6302720Y3219394*
X6288322Y3235188*
X6271267Y3248067*
X6252136Y3257593*
X6231580Y3263442*
X6210299Y3265414*
X6189018Y3263442*
X6168462Y3257593*
X6149331Y3248066*
X6132276Y3235186*
X6117878Y3219392*
X6106628Y3201222*
X6098907Y3181293*
X6094980Y3160285*
Y3138915*
X6098907Y3117907*
G37*
G36*
X6350239Y264535D02*
G01X6355325Y254551D01*
X6363248Y246627*
X6373232Y241540*
X6384299Y239786*
X6544299*
X6555365Y241539*
X6565349Y246625*
X6573273Y254548*
X6578360Y264532*
X6580114Y275599*
Y435601*
X6578360Y446668*
X6573273Y456652*
X6565350Y464575*
X6555365Y469661*
X6544299Y471414*
X6384299*
X6373232Y469660*
X6363248Y464573*
X6355325Y456650*
X6350239Y446665*
X6348486Y435599*
Y275601*
X6350239Y264535*
G37*
G36*
X6352907Y577907D02*
G01X6360628Y557978D01*
X6371878Y539808*
X6386276Y524014*
X6403331Y511134*
X6422462Y501607*
X6443018Y495758*
X6464299Y493786*
X6485580Y495758*
X6506136Y501607*
X6525267Y511133*
X6542322Y524012*
X6556720Y539806*
X6567972Y557976*
X6575693Y577905*
X6579620Y598913*
Y620287*
X6575693Y641295*
X6567972Y661224*
X6556720Y679394*
X6542322Y695188*
X6525267Y708067*
X6506136Y717593*
X6485580Y723442*
X6464299Y725414*
X6443018Y723442*
X6422462Y717593*
X6403331Y708066*
X6386276Y695186*
X6371878Y679392*
X6360628Y661222*
X6352907Y641293*
X6348980Y620285*
Y598915*
X6352907Y577907*
G37*
G36*
Y831907D02*
G01X6360628Y811978D01*
X6371878Y793808*
X6386276Y778014*
X6403331Y765134*
X6422462Y755607*
X6443018Y749758*
X6464299Y747786*
X6485580Y749758*
X6506136Y755607*
X6525267Y765133*
X6542322Y778012*
X6556720Y793806*
X6567972Y811976*
X6575693Y831905*
X6579620Y852913*
Y874287*
X6575693Y895295*
X6567972Y915224*
X6556720Y933394*
X6542322Y949188*
X6525267Y962067*
X6506136Y971593*
X6485580Y977442*
X6464299Y979414*
X6443018Y977442*
X6422462Y971593*
X6403331Y962066*
X6386276Y949186*
X6371878Y933392*
X6360628Y915222*
X6352907Y895293*
X6348980Y874285*
Y852915*
X6352907Y831907*
G37*
G36*
Y1085907D02*
G01X6360628Y1065978D01*
X6371878Y1047808*
X6386276Y1032014*
X6403331Y1019134*
X6422462Y1009607*
X6443018Y1003758*
X6464299Y1001786*
X6485580Y1003758*
X6506136Y1009607*
X6525267Y1019133*
X6542322Y1032012*
X6556720Y1047806*
X6567972Y1065976*
X6575693Y1085905*
X6579620Y1106913*
Y1128287*
X6575693Y1149295*
X6567972Y1169224*
X6556720Y1187394*
X6542322Y1203188*
X6525267Y1216067*
X6506136Y1225593*
X6485580Y1231442*
X6464299Y1233414*
X6443018Y1231442*
X6422462Y1225593*
X6403331Y1216066*
X6386276Y1203186*
X6371878Y1187392*
X6360628Y1169222*
X6352907Y1149293*
X6348980Y1128285*
Y1106915*
X6352907Y1085907*
G37*
G36*
Y1339907D02*
G01X6360628Y1319978D01*
X6371878Y1301808*
X6386276Y1286014*
X6403331Y1273134*
X6422462Y1263607*
X6443018Y1257758*
X6464299Y1255786*
X6485580Y1257758*
X6506136Y1263607*
X6525267Y1273133*
X6542322Y1286012*
X6556720Y1301806*
X6567972Y1319976*
X6575693Y1339905*
X6579620Y1360913*
Y1382287*
X6575693Y1403295*
X6567972Y1423224*
X6556720Y1441394*
X6542322Y1457188*
X6525267Y1470067*
X6506136Y1479593*
X6485580Y1485442*
X6464299Y1487414*
X6443018Y1485442*
X6422462Y1479593*
X6403331Y1470066*
X6386276Y1457186*
X6371878Y1441392*
X6360628Y1423222*
X6352907Y1403293*
X6348980Y1382285*
Y1360915*
X6352907Y1339907*
G37*
G36*
Y1593907D02*
G01X6360628Y1573978D01*
X6371878Y1555808*
X6386276Y1540014*
X6403331Y1527134*
X6422462Y1517607*
X6443018Y1511758*
X6464299Y1509786*
X6485580Y1511758*
X6506136Y1517607*
X6525267Y1527133*
X6542322Y1540012*
X6556720Y1555806*
X6567972Y1573976*
X6575693Y1593905*
X6579620Y1614913*
Y1636287*
X6575693Y1657295*
X6567972Y1677224*
X6556720Y1695394*
X6542322Y1711188*
X6525267Y1724067*
X6506136Y1733593*
X6485580Y1739442*
X6464299Y1741414*
X6443018Y1739442*
X6422462Y1733593*
X6403331Y1724066*
X6386276Y1711186*
X6371878Y1695392*
X6360628Y1677222*
X6352907Y1657293*
X6348980Y1636285*
Y1614915*
X6352907Y1593907*
G37*
G36*
Y1847907D02*
G01X6360628Y1827978D01*
X6371878Y1809808*
X6386276Y1794014*
X6403331Y1781134*
X6422462Y1771607*
X6443018Y1765758*
X6464299Y1763786*
X6485580Y1765758*
X6506136Y1771607*
X6525267Y1781133*
X6542322Y1794012*
X6556720Y1809806*
X6567972Y1827976*
X6575693Y1847905*
X6579620Y1868913*
Y1890287*
X6575693Y1911295*
X6567972Y1931224*
X6556720Y1949394*
X6542322Y1965188*
X6525267Y1978067*
X6506136Y1987593*
X6485580Y1993442*
X6464299Y1995414*
X6443018Y1993442*
X6422462Y1987593*
X6403331Y1978066*
X6386276Y1965186*
X6371878Y1949392*
X6360628Y1931222*
X6352907Y1911293*
X6348980Y1890285*
Y1868915*
X6352907Y1847907*
G37*
G36*
Y2101907D02*
G01X6360628Y2081978D01*
X6371878Y2063808*
X6386276Y2048014*
X6403331Y2035134*
X6422462Y2025607*
X6443018Y2019758*
X6464299Y2017786*
X6485580Y2019758*
X6506136Y2025607*
X6525267Y2035133*
X6542322Y2048012*
X6556720Y2063806*
X6567972Y2081976*
X6575693Y2101905*
X6579620Y2122913*
Y2144287*
X6575693Y2165295*
X6567972Y2185224*
X6556720Y2203394*
X6542322Y2219188*
X6525267Y2232067*
X6506136Y2241593*
X6485580Y2247442*
X6464299Y2249414*
X6443018Y2247442*
X6422462Y2241593*
X6403331Y2232066*
X6386276Y2219186*
X6371878Y2203392*
X6360628Y2185222*
X6352907Y2165293*
X6348980Y2144285*
Y2122915*
X6352907Y2101907*
G37*
G36*
Y2355907D02*
G01X6360628Y2335978D01*
X6371878Y2317808*
X6386276Y2302014*
X6403331Y2289134*
X6422462Y2279607*
X6443018Y2273758*
X6464299Y2271786*
X6485580Y2273758*
X6506136Y2279607*
X6525267Y2289133*
X6542322Y2302012*
X6556720Y2317806*
X6567972Y2335976*
X6575693Y2355905*
X6579620Y2376913*
Y2398287*
X6575693Y2419295*
X6567972Y2439224*
X6556720Y2457394*
X6542322Y2473188*
X6525267Y2486067*
X6506136Y2495593*
X6485580Y2501442*
X6464299Y2503414*
X6443018Y2501442*
X6422462Y2495593*
X6403331Y2486066*
X6386276Y2473186*
X6371878Y2457392*
X6360628Y2439222*
X6352907Y2419293*
X6348980Y2398285*
Y2376915*
X6352907Y2355907*
G37*
G36*
Y2609907D02*
G01X6360628Y2589978D01*
X6371878Y2571808*
X6386276Y2556014*
X6403331Y2543134*
X6422462Y2533607*
X6443018Y2527758*
X6464299Y2525786*
X6485580Y2527758*
X6506136Y2533607*
X6525267Y2543133*
X6542322Y2556012*
X6556720Y2571806*
X6567972Y2589976*
X6575693Y2609905*
X6579620Y2630913*
Y2652287*
X6575693Y2673295*
X6567972Y2693224*
X6556720Y2711394*
X6542322Y2727188*
X6525267Y2740067*
X6506136Y2749593*
X6485580Y2755442*
X6464299Y2757414*
X6443018Y2755442*
X6422462Y2749593*
X6403331Y2740066*
X6386276Y2727186*
X6371878Y2711392*
X6360628Y2693222*
X6352907Y2673293*
X6348980Y2652285*
Y2630915*
X6352907Y2609907*
G37*
G36*
Y2863907D02*
G01X6360628Y2843978D01*
X6371878Y2825808*
X6386276Y2810014*
X6403331Y2797134*
X6422462Y2787607*
X6443018Y2781758*
X6464299Y2779786*
X6485580Y2781758*
X6506136Y2787607*
X6525267Y2797133*
X6542322Y2810012*
X6556720Y2825806*
X6567972Y2843976*
X6575693Y2863905*
X6579620Y2884913*
Y2906287*
X6575693Y2927295*
X6567972Y2947224*
X6556720Y2965394*
X6542322Y2981188*
X6525267Y2994067*
X6506136Y3003593*
X6485580Y3009442*
X6464299Y3011414*
X6443018Y3009442*
X6422462Y3003593*
X6403331Y2994066*
X6386276Y2981186*
X6371878Y2965392*
X6360628Y2947222*
X6352907Y2927293*
X6348980Y2906285*
Y2884915*
X6352907Y2863907*
G37*
G36*
Y3117907D02*
G01X6360628Y3097978D01*
X6371878Y3079808*
X6386276Y3064014*
X6403331Y3051134*
X6422462Y3041607*
X6443018Y3035758*
X6464299Y3033786*
X6485580Y3035758*
X6506136Y3041607*
X6525267Y3051133*
X6542322Y3064012*
X6556720Y3079806*
X6567972Y3097976*
X6575693Y3117905*
X6579620Y3138913*
Y3160287*
X6575693Y3181295*
X6567972Y3201224*
X6556720Y3219394*
X6542322Y3235188*
X6525267Y3248067*
X6506136Y3257593*
X6485580Y3263442*
X6464299Y3265414*
X6443018Y3263442*
X6422462Y3257593*
X6403331Y3248066*
X6386276Y3235186*
X6371878Y3219392*
X6360628Y3201222*
X6352907Y3181293*
X6348980Y3160285*
Y3138915*
X6352907Y3117907*
G37*
G36*
X6098907Y323907D02*
G01X6106628Y303978D01*
X6117878Y285808*
X6132276Y270014*
X6149331Y257134*
X6168462Y247607*
X6189018Y241758*
X6210299Y239786*
X6231580Y241758*
X6252136Y247607*
X6271267Y257133*
X6288322Y270012*
X6302720Y285806*
X6313972Y303976*
X6321693Y323905*
X6325620Y344913*
Y366287*
X6321693Y387295*
X6313972Y407224*
X6302720Y425394*
X6293417Y435600*
X6288322Y441188*
X6271267Y454067*
X6252136Y463593*
X6231580Y469442*
X6210299Y471414*
X6189018Y469442*
X6168462Y463593*
X6149331Y454066*
X6132276Y441186*
X6117878Y425392*
X6106628Y407222*
X6098907Y387293*
X6094980Y366285*
Y344915*
X6098907Y323907*
G37*
G36*
X704686Y3521799D02*
G01X706440Y3510732D01*
X711527Y3500748*
X719450Y3492825*
X729435Y3487739*
X740501Y3485986*
X910499*
X921565Y3487739*
X931549Y3492825*
X939473Y3500748*
X944560Y3510732*
X946314Y3521799*
Y3606800*
Y3691799*
X944561Y3702865*
X939475Y3712849*
X931552Y3720773*
X921568Y3725860*
X910501Y3727614*
X740499*
X729432Y3725860*
X719448Y3720773*
X711525Y3712850*
X706439Y3702865*
X704686Y3691799*
Y3521799*
G37*
G36*
X960522Y1807820D02*
G01X965972Y1787478D01*
X974872Y1768392*
X986952Y1751141*
X1001843Y1736250*
X1019094Y1724172*
X1038180Y1715272*
X1058522Y1709822*
X1079501Y1707986*
X1100478Y1709822*
X1120820Y1715272*
X1139906Y1724172*
X1157157Y1736250*
X1172048Y1751141*
X1184128Y1768392*
X1193028Y1787478*
X1198478Y1807820*
X1200314Y1828799*
X1198478Y1849778*
X1193028Y1870120*
X1184128Y1889206*
X1172050Y1906457*
X1157159Y1921348*
X1139908Y1933428*
X1120822Y1942328*
X1100480Y1947778*
X1079501Y1949614*
X1058520Y1947778*
X1038178Y1942328*
X1019092Y1933428*
X1001841Y1921348*
X986950Y1906457*
X974872Y1889206*
X965972Y1870120*
X960522Y1849778*
X958686Y1828799*
X960522Y1807820*
G37*
G36*
Y3585820D02*
G01X965972Y3565478D01*
X974872Y3546392*
X986952Y3529141*
X1001843Y3514250*
X1019094Y3502172*
X1038180Y3493272*
X1058522Y3487822*
X1079501Y3485986*
X1100478Y3487822*
X1120820Y3493272*
X1139906Y3502172*
X1157157Y3514250*
X1172048Y3529141*
X1184128Y3546392*
X1193028Y3565478*
X1198478Y3585820*
X1200314Y3606799*
X1198478Y3627778*
X1193028Y3648120*
X1184128Y3667206*
X1172050Y3684457*
X1157159Y3699348*
X1139908Y3711428*
X1120822Y3720328*
X1100480Y3725778*
X1079501Y3727614*
X1058520Y3725778*
X1038178Y3720328*
X1019092Y3711428*
X1001841Y3699348*
X986950Y3684457*
X974872Y3667206*
X965972Y3648120*
X960522Y3627778*
X958686Y3606799*
X960522Y3585820*
G37*
G36*
X1214522Y1807820D02*
G01X1219972Y1787478D01*
X1228872Y1768392*
X1240952Y1751141*
X1255843Y1736250*
X1273094Y1724172*
X1292180Y1715272*
X1312522Y1709822*
X1333501Y1707986*
X1354478Y1709822*
X1374820Y1715272*
X1393906Y1724172*
X1411157Y1736250*
X1426048Y1751141*
X1438128Y1768392*
X1447028Y1787478*
X1452478Y1807820*
X1454314Y1828799*
X1452478Y1849778*
X1447028Y1870120*
X1438128Y1889206*
X1426050Y1906457*
X1411159Y1921348*
X1393908Y1933428*
X1374822Y1942328*
X1354480Y1947778*
X1333501Y1949614*
X1312520Y1947778*
X1292178Y1942328*
X1273092Y1933428*
X1255841Y1921348*
X1240950Y1906457*
X1228872Y1889206*
X1219972Y1870120*
X1214522Y1849778*
X1212686Y1828799*
X1214522Y1807820*
G37*
G36*
Y3585820D02*
G01X1219972Y3565478D01*
X1228872Y3546392*
X1240952Y3529141*
X1255843Y3514250*
X1273094Y3502172*
X1292180Y3493272*
X1312522Y3487822*
X1333501Y3485986*
X1354478Y3487822*
X1374820Y3493272*
X1393906Y3502172*
X1411157Y3514250*
X1426048Y3529141*
X1438128Y3546392*
X1447028Y3565478*
X1452478Y3585820*
X1454314Y3606799*
X1452478Y3627778*
X1447028Y3648120*
X1438128Y3667206*
X1426050Y3684457*
X1411159Y3699348*
X1393908Y3711428*
X1374822Y3720328*
X1354480Y3725778*
X1333501Y3727614*
X1312520Y3725778*
X1292178Y3720328*
X1273092Y3711428*
X1255841Y3699348*
X1240950Y3684457*
X1228872Y3667206*
X1219972Y3648120*
X1214522Y3627778*
X1212686Y3606799*
X1214522Y3585820*
G37*
G36*
X3478913Y3424638D02*
G01X3484583Y3409690D01*
X3493664Y3396533*
X3505630Y3385932*
X3519786Y3378504*
X3535308Y3374678*
X3551292*
X3566814Y3378504*
X3580970Y3385932*
X3592936Y3396533*
X3602017Y3409690*
X3607687Y3424638*
X3609614Y3440508*
X3607687Y3456378*
X3602018Y3471325*
X3592938Y3484482*
X3580972Y3495083*
X3566816Y3502512*
X3551294Y3506339*
X3535306*
X3519784Y3502512*
X3505628Y3495083*
X3493662Y3484482*
X3484582Y3471325*
X3478913Y3456378*
X3476986Y3440508*
X3478913Y3424638*
G37*
G36*
X3631313D02*
G01X3636983Y3409690D01*
X3646064Y3396533*
X3658030Y3385932*
X3672186Y3378504*
X3687708Y3374678*
X3703692*
X3719214Y3378504*
X3733370Y3385932*
X3745336Y3396533*
X3754417Y3409690*
X3760087Y3424638*
X3762014Y3440508*
X3760087Y3456378*
X3754418Y3471325*
X3745338Y3484482*
X3733372Y3495083*
X3719216Y3502512*
X3703694Y3506339*
X3687706*
X3672184Y3502512*
X3658028Y3495083*
X3646062Y3484482*
X3636982Y3471325*
X3631313Y3456378*
X3629386Y3440508*
X3631313Y3424638*
G37*
G36*
X3783713D02*
G01X3789383Y3409690D01*
X3798464Y3396533*
X3810430Y3385932*
X3824586Y3378504*
X3840108Y3374678*
X3856092*
X3871614Y3378504*
X3885770Y3385932*
X3897736Y3396533*
X3906817Y3409690*
X3912487Y3424638*
X3914414Y3440508*
X3912487Y3456378*
X3906818Y3471325*
X3897738Y3484482*
X3885772Y3495083*
X3871616Y3502512*
X3856094Y3506339*
X3840106*
X3824584Y3502512*
X3810428Y3495083*
X3798462Y3484482*
X3789382Y3471325*
X3783713Y3456378*
X3781786Y3440508*
X3783713Y3424638*
G37*
G36*
X3847213Y7477124D02*
G01X3852883Y7462176D01*
X3861964Y7449020*
X3873930Y7438419*
X3888086Y7430990*
X3903608Y7427164*
X3919592*
X3935114Y7430990*
X3949270Y7438419*
X3953423Y7442098*
X3961236Y7449020*
X3970317Y7462176*
X3975987Y7477124*
X3977914Y7492994*
X3975987Y7508864*
X3970318Y7523812*
X3961238Y7536968*
X3949272Y7547569*
X3935116Y7554999*
X3919594Y7558825*
X3903606*
X3888084Y7554999*
X3873928Y7547569*
X3861962Y7536968*
X3852882Y7523812*
X3847213Y7508864*
X3845286Y7492994*
X3847213Y7477124*
G37*
G36*
Y7654924D02*
G01X3852883Y7639976D01*
X3861964Y7626820*
X3873930Y7616219*
X3888086Y7608790*
X3903608Y7604964*
X3919592*
X3935114Y7608790*
X3949270Y7616219*
X3961236Y7626820*
X3970317Y7639976*
X3975987Y7654924*
X3977914Y7670794*
X3975987Y7686664*
X3970318Y7701612*
X3961238Y7714768*
X3949272Y7725369*
X3935116Y7732799*
X3919594Y7736625*
X3903606*
X3888084Y7732799*
X3873928Y7725369*
X3861962Y7714768*
X3852882Y7701612*
X3847213Y7686664*
X3845286Y7670794*
X3847213Y7654924*
G37*
G36*
X3872613Y4297725D02*
G01X3878283Y4282777D01*
X3887364Y4269621*
X3899330Y4259020*
X3913486Y4251591*
X3929008Y4247766*
X3944992*
X3960514Y4251591*
X3974670Y4259020*
X3986636Y4269621*
X3995717Y4282777*
X4001387Y4297725*
X4003314Y4313595*
X4003254Y4314087*
X4001387Y4329465*
X3995718Y4344413*
X3986638Y4357569*
X3974672Y4368170*
X3960516Y4375600*
X3944994Y4379427*
X3929006*
X3913484Y4375600*
X3899328Y4368170*
X3887362Y4357569*
X3878282Y4344413*
X3872613Y4329465*
X3870686Y4313595*
X3872613Y4297725*
G37*
G36*
Y4433009D02*
G01X3878283Y4418061D01*
X3887364Y4404904*
X3899330Y4394303*
X3913486Y4386875*
X3929008Y4383049*
X3944992*
X3960514Y4386875*
X3974670Y4394303*
X3986636Y4404904*
X3995717Y4418061*
X4001387Y4433009*
X4003276Y4448570*
X4003314Y4448879*
X4001387Y4464749*
X3995718Y4479696*
X3986638Y4492853*
X3974672Y4503454*
X3960516Y4510883*
X3944994Y4514710*
X3929006*
X3913484Y4510883*
X3899328Y4503454*
X3887362Y4492853*
X3878282Y4479696*
X3872613Y4464749*
X3870686Y4448879*
X3872613Y4433009*
G37*
G36*
X3936113Y3424638D02*
G01X3941783Y3409690D01*
X3950864Y3396533*
X3962830Y3385932*
X3976986Y3378504*
X3992508Y3374678*
X4008492*
X4024014Y3378504*
X4038170Y3385932*
X4050136Y3396533*
X4059217Y3409690*
X4064887Y3424638*
X4066814Y3440508*
X4064887Y3456378*
X4059218Y3471325*
X4050138Y3484482*
X4038172Y3495083*
X4024016Y3502512*
X4008494Y3506339*
X3992506*
X3976984Y3502512*
X3962828Y3495083*
X3950862Y3484482*
X3941782Y3471325*
X3936113Y3456378*
X3934186Y3440508*
X3936113Y3424638*
G37*
G36*
X3961463Y5965833D02*
G01X3967130Y5950889D01*
X3976207Y5937734*
X3988167Y5927133*
X4002317Y5919703*
X4017833Y5915873*
X4033814Y5915866*
X4049334Y5919683*
X4063489Y5927102*
X4075459Y5937693*
X4084546Y5950840*
X4090227Y5965778*
X4095905Y5950840*
X4104993Y5937693*
X4116962Y5927102*
X4131118Y5919683*
X4146638Y5915866*
X4162618Y5915873*
X4178135Y5919703*
X4192284Y5927133*
X4204245Y5937734*
X4213322Y5950889*
X4218989Y5965833*
X4220915Y5981699*
X4218989Y5997565*
X4213323Y6012509*
X4204247Y6025664*
X4196649Y6032398*
X4192286Y6036265*
X4178137Y6043696*
X4162620Y6047527*
X4146636Y6047534*
X4131116Y6043716*
X4116960Y6036296*
X4104991Y6025705*
X4095904Y6012558*
X4090226Y5997622*
X4084547Y6012558*
X4075461Y6025705*
X4063491Y6036296*
X4049336Y6043716*
X4033816Y6047534*
X4017831Y6047527*
X4002315Y6043696*
X3988165Y6036265*
X3976205Y6025664*
X3967129Y6012509*
X3961463Y5997565*
X3959537Y5981699*
X3961463Y5965833*
G37*
G36*
X4533013Y7223490D02*
G01X4538683Y7208542D01*
X4547764Y7195385*
X4559730Y7184784*
X4573886Y7177356*
X4589408Y7173530*
X4605392*
X4620914Y7177356*
X4635070Y7184784*
X4647036Y7195385*
X4656117Y7208542*
X4661787Y7223490*
X4663714Y7239360*
X4661787Y7255230*
X4656118Y7270177*
X4647038Y7283334*
X4635072Y7293935*
X4620916Y7301364*
X4605394Y7305191*
X4589406*
X4573884Y7301364*
X4559728Y7293935*
X4547762Y7283334*
X4538682Y7270177*
X4533013Y7255230*
X4531086Y7239360*
X4533013Y7223490*
G37*
G36*
X4545713Y4708168D02*
G01X4551383Y4693221D01*
X4560464Y4680064*
X4572430Y4669463*
X4586586Y4662035*
X4602108Y4658209*
X4618092*
X4633614Y4662035*
X4647770Y4669463*
X4659736Y4680064*
X4668817Y4693221*
X4674487Y4708168*
X4676414Y4724038*
X4674487Y4739908*
X4668818Y4754856*
X4659738Y4768013*
X4647772Y4778614*
X4633616Y4786043*
X4618094Y4789870*
X4602106*
X4586584Y4786043*
X4572428Y4778614*
X4560462Y4768013*
X4551382Y4754856*
X4545713Y4739908*
X4543786Y4724038*
X4545713Y4708168*
G37*
G36*
X7657213Y4298216D02*
G01X7662883Y4283268D01*
X7671964Y4270112*
X7683930Y4259511*
X7698086Y4252082*
X7713608Y4248256*
X7729592*
X7745114Y4252082*
X7759270Y4259511*
X7771236Y4270112*
X7780317Y4283268*
X7785987Y4298216*
X7787914Y4314086*
X7785987Y4329956*
X7780318Y4344904*
X7771238Y4358060*
X7759272Y4368661*
X7745116Y4376091*
X7729594Y4379918*
X7713606*
X7698084Y4376091*
X7683928Y4368661*
X7671962Y4358060*
X7662882Y4344904*
X7657213Y4329956*
X7655286Y4314086*
X7657213Y4298216*
G37*
G36*
Y4432699D02*
G01X7662883Y4417751D01*
X7671964Y4404595*
X7683930Y4393994*
X7698086Y4386565*
X7713608Y4382740*
X7729592*
X7745114Y4386565*
X7759270Y4393994*
X7771236Y4404595*
X7780317Y4417751*
X7785987Y4432699*
X7787914Y4448569*
X7785987Y4464439*
X7780318Y4479387*
X7771238Y4492543*
X7759272Y4503144*
X7745116Y4510574*
X7729594Y4514401*
X7713606*
X7698084Y4510574*
X7683928Y4503144*
X7671962Y4492543*
X7662882Y4479387*
X7657213Y4464439*
X7655286Y4448569*
X7657213Y4432699*
G37*
G36*
X7756568Y5507242D02*
G01X7762459Y5482704D01*
X7772116Y5459390*
X7785302Y5437874*
X7801691Y5418686*
X7820879Y5402298*
X7842395Y5389113*
X7865709Y5379456*
X7890246Y5373566*
X7915403Y5371586*
X7940558Y5373566*
X7965095Y5379456*
X7988409Y5389113*
X8009925Y5402298*
X8029113Y5418686*
X8045502Y5437874*
X8058688Y5459390*
X8068345Y5482704*
X8074236Y5507242*
X8076216Y5532398*
X8074236Y5557555*
X8068345Y5582093*
X8058688Y5605406*
X8045503Y5626922*
X8029115Y5646111*
X8009927Y5662499*
X7988411Y5675686*
X7965097Y5685342*
X7940560Y5691233*
X7915403Y5693213*
X7890244Y5691233*
X7865707Y5685342*
X7842393Y5675686*
X7820877Y5662499*
X7801689Y5646111*
X7785301Y5626922*
X7772116Y5605406*
X7762459Y5582093*
X7756568Y5557555*
X7754588Y5532398*
X7756568Y5507242*
G37*
G36*
Y6007241D02*
G01X7762459Y5982703D01*
X7772116Y5959389*
X7785302Y5937873*
X7801691Y5918685*
X7820879Y5902297*
X7842395Y5889112*
X7865709Y5879455*
X7890246Y5873565*
X7915403Y5871585*
X7940558Y5873565*
X7965095Y5879455*
X7988409Y5889112*
X8009925Y5902297*
X8029113Y5918685*
X8045502Y5937873*
X8058688Y5959389*
X8068345Y5982703*
X8074236Y6007241*
X8076216Y6032397*
X8074236Y6057554*
X8068345Y6082092*
X8058688Y6105405*
X8045503Y6126921*
X8029115Y6146110*
X8009927Y6162498*
X7988411Y6175685*
X7965097Y6185341*
X7940560Y6191232*
X7915403Y6193212*
X7890244Y6191232*
X7865707Y6185341*
X7842393Y6175685*
X7820877Y6162498*
X7801689Y6146110*
X7785301Y6126921*
X7772116Y6105405*
X7762459Y6082092*
X7756568Y6057554*
X7754588Y6032397*
X7756568Y6007241*
G37*
G36*
Y6916942D02*
G01X7762459Y6892404D01*
X7772116Y6869090*
X7785302Y6847574*
X7801691Y6828386*
X7820879Y6811998*
X7842395Y6798813*
X7865709Y6789156*
X7890246Y6783266*
X7915403Y6781286*
X7940558Y6783266*
X7965095Y6789156*
X7988409Y6798813*
X8009925Y6811998*
X8029113Y6828386*
X8045502Y6847574*
X8058688Y6869090*
X8068345Y6892404*
X8074236Y6916942*
X8076216Y6942098*
X8074236Y6967255*
X8068345Y6991793*
X8058688Y7015106*
X8045503Y7036622*
X8029115Y7055811*
X8009927Y7072199*
X7988411Y7085386*
X7965097Y7095042*
X7940560Y7100933*
X7915403Y7102913*
X7890244Y7100933*
X7865707Y7095042*
X7842393Y7085386*
X7820877Y7072199*
X7801689Y7055811*
X7785301Y7036622*
X7772116Y7015106*
X7762459Y6991793*
X7756568Y6967255*
X7754588Y6942098*
X7756568Y6916942*
G37*
G36*
Y7416941D02*
G01X7762459Y7392403D01*
X7772116Y7369089*
X7785302Y7347573*
X7801691Y7328385*
X7820879Y7311997*
X7842395Y7298812*
X7865709Y7289155*
X7890246Y7283265*
X7915403Y7281285*
X7940558Y7283265*
X7965095Y7289155*
X7988409Y7298812*
X8009925Y7311997*
X8029113Y7328385*
X8045502Y7347573*
X8058688Y7369089*
X8068345Y7392403*
X8074236Y7416941*
X8076216Y7442097*
X8074236Y7467254*
X8068345Y7491792*
X8058688Y7515105*
X8045503Y7536621*
X8029115Y7555810*
X8009927Y7572198*
X7988411Y7585385*
X7965097Y7595041*
X7940560Y7600932*
X7915403Y7602912*
X7890244Y7600932*
X7865707Y7595041*
X7842393Y7585385*
X7820877Y7572198*
X7801689Y7555810*
X7785301Y7536621*
X7772116Y7515105*
X7762459Y7491792*
X7756568Y7467254*
X7754588Y7442097*
X7756568Y7416941*
G37*
G36*
X8256567Y4089744D02*
G01X8262458Y4065206D01*
X8272115Y4041893*
X8285301Y4020377*
X8301690Y4001188*
X8320878Y3984801*
X8342394Y3971615*
X8365708Y3961959*
X8390245Y3956068*
X8415402Y3954088*
X8440557Y3956068*
X8465094Y3961959*
X8488408Y3971615*
X8509924Y3984801*
X8529112Y4001188*
X8545501Y4020377*
X8558687Y4041893*
X8568344Y4065206*
X8574235Y4089744*
X8576215Y4114901*
X8574235Y4140057*
X8568344Y4164595*
X8558687Y4187909*
X8545502Y4209425*
X8529114Y4228613*
X8509926Y4245002*
X8488410Y4258188*
X8465096Y4267845*
X8440559Y4273735*
X8415402Y4275715*
X8390243Y4273735*
X8365706Y4267845*
X8342392Y4258188*
X8320876Y4245002*
X8301688Y4228613*
X8285300Y4209425*
X8272115Y4187909*
X8262458Y4164595*
X8256567Y4140057*
X8254587Y4114901*
X8256567Y4089744*
G37*
G36*
Y4589743D02*
G01X8262458Y4565205D01*
X8272115Y4541892*
X8285301Y4520376*
X8301690Y4501187*
X8320878Y4484800*
X8342394Y4471614*
X8365708Y4461958*
X8390245Y4456067*
X8415402Y4454087*
X8440557Y4456067*
X8465094Y4461958*
X8488408Y4471614*
X8509924Y4484800*
X8529112Y4501187*
X8545501Y4520376*
X8558687Y4541892*
X8568344Y4565205*
X8574235Y4589743*
X8576215Y4614900*
X8574235Y4640056*
X8568344Y4664594*
X8558687Y4687908*
X8545502Y4709424*
X8529114Y4728612*
X8509926Y4745001*
X8488410Y4758187*
X8465096Y4767844*
X8440559Y4773734*
X8415402Y4775714*
X8390243Y4773734*
X8365706Y4767844*
X8342392Y4758187*
X8320876Y4745001*
X8301688Y4728612*
X8285300Y4709424*
X8272115Y4687908*
X8262458Y4664594*
X8256567Y4640056*
X8254587Y4614900*
X8256567Y4589743*
G37*
G36*
X8791498Y4893052D02*
G01X8797174Y4871868D01*
X8806442Y4851992*
X8819022Y4834027*
X8834529Y4818520*
X8852494Y4805942*
X8872370Y4796674*
X8893554Y4790998*
X8915401Y4789086*
X8937246Y4790998*
X8958430Y4796674*
X8978306Y4805942*
X8996271Y4818520*
X9011778Y4834027*
X9024358Y4851992*
X9033626Y4871868*
X9039302Y4893052*
X9041214Y4914899*
X9039302Y4936746*
X9033626Y4957930*
X9024358Y4977806*
X9011780Y4995771*
X8996273Y5011278*
X8978308Y5023858*
X8958432Y5033126*
X8937248Y5038802*
X8915401Y5040714*
X8893552Y5038802*
X8872368Y5033126*
X8852492Y5023858*
X8834527Y5011278*
X8819020Y4995771*
X8806442Y4977806*
X8797174Y4957930*
X8791498Y4936746*
X8789586Y4914899*
X8791498Y4893052*
G37*
G36*
Y5210552D02*
G01X8797174Y5189368D01*
X8806442Y5169492*
X8819022Y5151527*
X8834529Y5136020*
X8852494Y5123442*
X8872370Y5114174*
X8893554Y5108498*
X8915401Y5106586*
X8937246Y5108498*
X8958430Y5114174*
X8978306Y5123442*
X8996271Y5136020*
X9011778Y5151527*
X9024358Y5169492*
X9033626Y5189368*
X9039302Y5210552*
X9041214Y5232399*
X9039302Y5254246*
X9033626Y5275430*
X9024358Y5295306*
X9011780Y5313271*
X8996273Y5328778*
X8978308Y5341358*
X8958432Y5350626*
X8937248Y5356302*
X8915401Y5358214*
X8893552Y5356302*
X8872368Y5350626*
X8852492Y5341358*
X8834527Y5328778*
X8819020Y5313271*
X8806442Y5295306*
X8797174Y5275430*
X8791498Y5254246*
X8789586Y5232399*
X8791498Y5210552*
G37*
G36*
Y6310549D02*
G01X8797174Y6289366D01*
X8806442Y6269490*
X8819022Y6251525*
X8834529Y6236018*
X8852494Y6223440*
X8872370Y6214171*
X8893554Y6208495*
X8915401Y6206584*
X8937246Y6208495*
X8958430Y6214171*
X8978306Y6223440*
X8996271Y6236018*
X9011778Y6251525*
X9024358Y6269490*
X9033626Y6289366*
X9039302Y6310549*
X9041214Y6332397*
X9039302Y6354244*
X9033626Y6375428*
X9024358Y6395304*
X9011780Y6413268*
X8996273Y6428776*
X8978308Y6441356*
X8958432Y6450624*
X8937248Y6456300*
X8915401Y6458212*
X8893552Y6456300*
X8872368Y6450624*
X8852492Y6441356*
X8834527Y6428776*
X8819020Y6413268*
X8806442Y6395304*
X8797174Y6375428*
X8791498Y6354244*
X8789586Y6332397*
X8791498Y6310549*
G37*
G36*
Y6620252D02*
G01X8797174Y6599068D01*
X8806442Y6579192*
X8819022Y6561227*
X8834529Y6545720*
X8852494Y6533142*
X8872370Y6523874*
X8893554Y6518198*
X8915401Y6516286*
X8937246Y6518198*
X8958430Y6523874*
X8978306Y6533142*
X8996271Y6545720*
X9011778Y6561227*
X9024358Y6579192*
X9033626Y6599068*
X9039302Y6620252*
X9041214Y6642099*
X9039302Y6663946*
X9033626Y6685130*
X9024358Y6705006*
X9011780Y6722971*
X8996273Y6738478*
X8978308Y6751058*
X8958432Y6760326*
X8937248Y6766002*
X8915401Y6767914*
X8893552Y6766002*
X8872368Y6760326*
X8852492Y6751058*
X8834527Y6738478*
X8819020Y6722971*
X8806442Y6705006*
X8797174Y6685130*
X8791498Y6663946*
X8789586Y6642099*
X8791498Y6620252*
G37*
G36*
Y7720249D02*
G01X8797174Y7699066D01*
X8806442Y7679190*
X8819022Y7661225*
X8834529Y7645718*
X8852494Y7633140*
X8872370Y7623871*
X8893554Y7618195*
X8915401Y7616284*
X8937246Y7618195*
X8958430Y7623871*
X8978306Y7633140*
X8996271Y7645718*
X9011778Y7661225*
X9024358Y7679190*
X9033626Y7699066*
X9039302Y7720249*
X9041214Y7742097*
X9039302Y7763944*
X9033626Y7785128*
X9024358Y7805004*
X9011780Y7822968*
X8996273Y7838476*
X8978308Y7851056*
X8958432Y7860324*
X8937248Y7866000*
X8915401Y7867912*
X8893552Y7866000*
X8872368Y7860324*
X8852492Y7851056*
X8834527Y7838476*
X8819020Y7822968*
X8806442Y7805004*
X8797174Y7785128*
X8791498Y7763944*
X8789586Y7742097*
X8791498Y7720249*
G37*
G36*
X704686Y1743799D02*
G01X706440Y1732732D01*
X711527Y1722748*
X719450Y1714825*
X729435Y1709739*
X740501Y1707986*
X910499*
X921565Y1709739*
X931549Y1714825*
X939473Y1722748*
X944560Y1732732*
X946314Y1743799*
Y1828800*
Y1913799*
X944561Y1924865*
X939475Y1934849*
X931552Y1942773*
X921568Y1947860*
X910501Y1949614*
X740499*
X729432Y1947860*
X719448Y1942773*
X711525Y1934850*
X706439Y1924865*
X704686Y1913799*
Y1743799*
G37*
%LPD*%
G54D13*
X7915402Y6942099D03*
Y7442098D03*
G54D14*
X8915400Y7742098D03*
Y6642100D03*
G54D13*
X7915402Y5532399D03*
Y6032398D03*
G54D14*
X8915400Y6332398D03*
Y5232400D03*
Y3814902D03*
Y4914900D03*
G54D13*
X8415401Y4614901D03*
Y4114902D03*
G54D15*
X8242300Y3149600D03*
X8496300D03*
X8242300Y2895600D03*
X8496300D03*
X8242300Y2641600D03*
X8496300D03*
X8242300Y2387600D03*
X8496300D03*
X8242300Y2133600D03*
X8496300D03*
X8242300Y1879600D03*
X8496300D03*
X8242300Y1625600D03*
X8496300D03*
X8242300Y1371600D03*
X8496300D03*
X8242300Y1117600D03*
X8496300D03*
X8242300Y863600D03*
X8496300D03*
X8242300Y609600D03*
X8496300D03*
X8242300Y355600D03*
G54D16*
X8496300D03*
G54D15*
X6210300Y3149600D03*
X6464300D03*
X6210300Y2895600D03*
X6464300D03*
X6210300Y2641600D03*
X6464300D03*
X6210300Y2387600D03*
X6464300D03*
X6210300Y2133600D03*
X6464300D03*
X6210300Y1879600D03*
X6464300D03*
X6210300Y1625600D03*
X6464300D03*
X6210300Y1371600D03*
X6464300D03*
X6210300Y1117600D03*
X6464300D03*
X6210300Y863600D03*
X6464300D03*
X6210300Y609600D03*
X6464300D03*
X6210300Y355600D03*
G54D16*
X6464300D03*
G54D17*
X9448800Y-1054100D03*
X9194800D03*
X8940800D03*
X8686800D03*
X8432800D03*
X8178800D03*
X7924800D03*
X7670800D03*
X7416800D03*
G54D19*
X7162800D03*
G54D20*
X825500Y3606800D03*
G54D17*
X1079500D03*
X1333500D03*
G54D20*
X825500Y1828800D03*
G54D17*
X1079500D03*
X1333500D03*
G54D21*
X-749300Y2082800D03*
G54D14*
Y2336800D03*
Y2590800D03*
Y2844800D03*
Y3098800D03*
Y3352800D03*
Y3606800D03*
Y3860800D03*
G54D22*
X4025851Y5981700D03*
X4154601D03*
X3911600Y7670795D03*
Y7492995D03*
X2971800Y5854700D03*
X3459270Y6116396D03*
X3458931Y6883552D03*
X2964434Y5085003D03*
X3937000Y4448880D03*
Y4313596D03*
X4597400Y7239361D03*
X4610100Y4724039D03*
X7721600Y4448570D03*
Y4314087D03*
X3543300Y3440509D03*
X3695700D03*
X3848100D03*
X4000500D03*
X4622102Y1993876D03*
X4623474Y1513542D03*
X5156196Y4016127D03*
Y3442409D03*
X6350709Y3987828D03*
X6272403Y3768930D03*
X7162828Y3936291D03*
X7162776Y3353499D03*
X8890000Y1879600D03*
X8768093Y2776921D03*
X8445500Y3517900D03*
X7708872Y191209D03*
X7847891Y1701772D03*
X7772400Y1516907D03*
X7910339Y2006600D03*
X7518428Y2120191D03*
X7899400Y765289D03*
X5435604Y2468763D03*
X5765796Y2465824D03*
X5598034Y2163604D03*
X5412801Y2983103D03*
X5156196Y3087762D03*
X5809804Y3797296D03*
X5810130Y3467104D03*
X6931701Y3035297D03*
X6932394Y977904D03*
Y1143000D03*
X6933895Y1308104D03*
X6935426Y1473200D03*
X6938503Y657099D03*
X5168900Y749300D03*
X3911600Y863600D03*
X3987597D03*
X3683000D03*
X3759369D03*
X3429000Y749300D03*
X3531135D03*
X3708400Y394891D03*
X3873504Y403473D03*
X4038600D03*
X4203704Y407823D03*
X4051300Y2654300D03*
Y2578100D03*
X4203700Y2653109D03*
X4634309Y2451100D03*
X4634802Y2285976D03*
X5129609Y2400300D03*
X5130102Y2806676D03*
X5121027Y2641600D03*
X5232396Y1801967D03*
X5112249Y1841504D03*
X5115189Y1663704D03*
X5121986Y1498600D03*
X2578100Y2819400D03*
Y2742851D03*
Y2552700D03*
Y2476500D03*
X2777403Y2032000D03*
Y1866896D03*
X2775436Y800100D03*
X3629660Y1711960D03*
Y1788160D03*
Y1864360D03*
Y1940560D03*
Y2016760D03*
Y2092960D03*
X3705860Y1711960D03*
Y1788160D03*
Y1864360D03*
Y1940560D03*
Y2016760D03*
Y2092960D03*
X3782060Y1711960D03*
Y1788160D03*
Y1864360D03*
Y1940560D03*
Y2016760D03*
Y2092960D03*
X8227060Y4467860D03*
Y4531360D03*
Y4658360D03*
Y4721860D03*
X8290560Y4467860D03*
Y4785360D03*
X8544560Y4467860D03*
Y4785360D03*
X8608060Y4467860D03*
Y4531360D03*
Y4594860D03*
Y4658360D03*
Y4721860D03*
Y4785360D03*
G54D10*
X7256666Y35814D02*
G01X2171586D01*
Y3281832*
X4456412*
Y3281832D02*
G75*
G03X4466571Y3292099I0J10160D01*
Y3292099D02*
G01X4458282Y4082900D01*
X7329993*
X7810614Y3803736*
Y3313449*
X7266826*
Y3313449D02*
G03X7256666Y3303289J-10160D01*
Y3303289D02*
G01Y35814D01*
X6210300Y3033786D02*
G03X6210300Y3265414J115814D01*
Y3265414D02*
G03X6210300Y3033786J-115814D01*
Y2779786D02*
G03X6210300Y3011414J115814D01*
Y3011414D02*
G03X6210300Y2779786J-115814D01*
Y2525786D02*
G03X6210300Y2757414J115814D01*
Y2757414D02*
G03X6210300Y2525786J-115814D01*
Y2271786D02*
G03X6210300Y2503414J115814D01*
Y2503414D02*
G03X6210300Y2271786J-115814D01*
Y2017786D02*
G03X6210300Y2249414J115814D01*
Y2249414D02*
G03X6210300Y2017786J-115814D01*
Y1763786D02*
G03X6210300Y1995414J115814D01*
Y1995414D02*
G03X6210300Y1763786J-115814D01*
Y1001786D02*
G03X6210300Y1233414J115814D01*
Y1233414D02*
G03X6210300Y1001786J-115814D01*
Y1255786D02*
G03X6210300Y1487414J115814D01*
Y1487414D02*
G03X6210300Y1255786J-115814D01*
Y1509786D02*
G03X6210300Y1741414J115814D01*
Y1741414D02*
G03X6210300Y1509786J-115814D01*
Y239786D02*
G03X6210300Y471414J115814D01*
Y471414D02*
G03X6210300Y239786J-115814D01*
Y493786D02*
G03X6210300Y725414J115814D01*
Y725414D02*
G03X6210300Y493786J-115814D01*
Y747786D02*
G03X6210300Y979414J115814D01*
Y979414D02*
G03X6210300Y747786J-115814D01*
X6464300Y3033786D02*
G03X6464300Y3265414J115814D01*
Y3265414D02*
G03X6464300Y3033786J-115814D01*
Y2779786D02*
G03X6464300Y3011414J115814D01*
Y3011414D02*
G03X6464300Y2779786J-115814D01*
Y2525786D02*
G03X6464300Y2757414J115814D01*
Y2757414D02*
G03X6464300Y2525786J-115814D01*
Y2271786D02*
G03X6464300Y2503414J115814D01*
Y2503414D02*
G03X6464300Y2271786J-115814D01*
Y2017786D02*
G03X6464300Y2249414J115814D01*
Y2249414D02*
G03X6464300Y2017786J-115814D01*
Y1763786D02*
G03X6464300Y1995414J115814D01*
Y1995414D02*
G03X6464300Y1763786J-115814D01*
Y1001786D02*
G03X6464300Y1233414J115814D01*
Y1233414D02*
G03X6464300Y1001786J-115814D01*
Y1255786D02*
G03X6464300Y1487414J115814D01*
Y1487414D02*
G03X6464300Y1255786J-115814D01*
Y1509786D02*
G03X6464300Y1741414J115814D01*
Y1741414D02*
G03X6464300Y1509786J-115814D01*
X6580114Y435600D02*
G03X6544300Y471414I-35814D01*
Y471414D02*
G01X6384300D01*
Y471414D02*
G03X6348486Y435600J-35814D01*
Y435600D02*
G01Y275600D01*
Y275600D02*
G03X6384300Y239786I35814D01*
Y239786D02*
G01X6544300D01*
Y239786D02*
G03X6580114Y275600J35814D01*
Y275600D02*
G01Y435600D01*
X6464300Y493786D02*
G03X6464300Y725414J115814D01*
Y725414D02*
G03X6464300Y493786J-115814D01*
Y747786D02*
G03X6464300Y979414J115814D01*
Y979414D02*
G03X6464300Y747786J-115814D01*
X9156700Y35814D02*
G01X7302640D01*
Y3267475*
X7820774*
Y3267475D02*
G03X7856588Y3303289J35814D01*
Y3303289D02*
G01Y3799840D01*
X8790491*
Y3799840D02*
G03X8915400Y3689088I124909J15062D01*
Y3689088D02*
G03X9040309Y3799840J125814D01*
Y3799840D02*
G01X9247886D01*
Y127000*
X9156700Y35814D02*
G03X9247886Y127000J91186D01*
X8242300Y2779786D02*
G03X8242300Y3011414J115814D01*
Y3011414D02*
G03X8242300Y2779786J-115814D01*
Y2525786D02*
G03X8242300Y2757414J115814D01*
Y2757414D02*
G03X8242300Y2525786J-115814D01*
Y2271786D02*
G03X8242300Y2503414J115814D01*
Y2503414D02*
G03X8242300Y2271786J-115814D01*
Y2017786D02*
G03X8242300Y2249414J115814D01*
Y2249414D02*
G03X8242300Y2017786J-115814D01*
Y1763786D02*
G03X8242300Y1995414J115814D01*
Y1995414D02*
G03X8242300Y1763786J-115814D01*
Y1509786D02*
G03X8242300Y1741414J115814D01*
Y1741414D02*
G03X8242300Y1509786J-115814D01*
Y1255786D02*
G03X8242300Y1487414J115814D01*
Y1487414D02*
G03X8242300Y1255786J-115814D01*
Y1001786D02*
G03X8242300Y1233414J115814D01*
Y1233414D02*
G03X8242300Y1001786J-115814D01*
Y747786D02*
G03X8242300Y979414J115814D01*
Y979414D02*
G03X8242300Y747786J-115814D01*
Y493786D02*
G03X8242300Y725414J115814D01*
Y725414D02*
G03X8242300Y493786J-115814D01*
Y239786D02*
G03X8242300Y471414J115814D01*
Y471414D02*
G03X8242300Y239786J-115814D01*
Y3033786D02*
G03X8242300Y3265414J115814D01*
Y3265414D02*
G03X8242300Y3033786J-115814D01*
X8612114Y435600D02*
G03X8576300Y471414I-35814D01*
Y471414D02*
G01X8416300D01*
Y471414D02*
G03X8380486Y435600J-35814D01*
Y435600D02*
G01Y275600D01*
Y275600D02*
G03X8416300Y239786I35814D01*
Y239786D02*
G01X8576300D01*
Y239786D02*
G03X8612114Y275600J35814D01*
Y275600D02*
G01Y435600D01*
X8496300Y2779786D02*
G03X8496300Y3011414J115814D01*
Y3011414D02*
G03X8496300Y2779786J-115814D01*
Y2525786D02*
G03X8496300Y2757414J115814D01*
Y2757414D02*
G03X8496300Y2525786J-115814D01*
Y2271786D02*
G03X8496300Y2503414J115814D01*
Y2503414D02*
G03X8496300Y2271786J-115814D01*
Y2017786D02*
G03X8496300Y2249414J115814D01*
Y2249414D02*
G03X8496300Y2017786J-115814D01*
Y1763786D02*
G03X8496300Y1995414J115814D01*
Y1995414D02*
G03X8496300Y1763786J-115814D01*
Y1509786D02*
G03X8496300Y1741414J115814D01*
Y1741414D02*
G03X8496300Y1509786J-115814D01*
Y1255786D02*
G03X8496300Y1487414J115814D01*
Y1487414D02*
G03X8496300Y1255786J-115814D01*
Y1001786D02*
G03X8496300Y1233414J115814D01*
Y1233414D02*
G03X8496300Y1001786J-115814D01*
Y747786D02*
G03X8496300Y979414J115814D01*
Y979414D02*
G03X8496300Y747786J-115814D01*
Y493786D02*
G03X8496300Y725414J115814D01*
Y725414D02*
G03X8496300Y493786J-115814D01*
Y3033786D02*
G03X8496300Y3265414J115814D01*
Y3265414D02*
G03X8496300Y3033786J-115814D01*
X35814Y5007616D02*
G01Y5958586D01*
X3479241*
Y5007616*
X35814*
X2898119Y5085003D02*
G03X3030748Y5085003I66315D01*
Y5085003D02*
G03X2898119Y5085003I-66314D01*
X2905486Y5854700D02*
G03X3038114Y5854700I66314D01*
Y5854700D02*
G03X2905486Y5854700I-66314D01*
X3520440Y7020560D02*
G01X3503108D01*
Y7020560D02*
G03X3498850Y7020814I-4258J-35560D01*
Y7020814D02*
G01X35814D01*
Y7874000*
X127000Y7965186D02*
G03X35814Y7874000J-91186D01*
X127000Y7965186D02*
G01X3520440D01*
Y7020560*
X3551597Y4137660D02*
G01X35814D01*
Y4955540*
X3551597*
Y4137660*
X35814Y127000D02*
G01Y4091686D01*
X3561757*
Y4091686D02*
G03X3597571Y4127500J35814D01*
Y4127500D02*
G01Y4965700D01*
Y4965700D02*
G03X3561757Y5001514I-35814D01*
Y5001514D02*
G01X3525215D01*
Y5970161*
Y5970161D02*
G03X3534664Y5994400I-26365J24239D01*
Y5994400D02*
G01Y6974817D01*
Y6974817D02*
G03X3566414Y7010400I-4064J35583D01*
Y7010400D02*
G01Y7965186D01*
X9156700*
X9247886Y7874000D02*
G03X9156700Y7965186I-91186D01*
X9247886Y7874000D02*
G01Y3845814D01*
X9037357*
Y3845814D02*
G03X8915400Y3940716I-121957J-30912D01*
Y3940716D02*
G03X8793443Y3845814I0J-125814D01*
Y3845814D02*
G01X7829705D01*
X7350717Y4124029*
Y4124029D02*
G03X7332729Y4128874I-17988J-30969D01*
Y4128874D02*
G01X4448015D01*
Y4128874D02*
G03X4412203Y4092685J-35814D01*
Y4092685D02*
G01X4420220Y3327806D01*
X2161426*
Y3327806D02*
G03X2125612Y3291992J-35814D01*
Y3291992D02*
G01Y35814D01*
X127000*
X35814Y127000D02*
G03X127000Y35814I91186D01*
X910500Y3485986D02*
G03X946314Y3521800J35814D01*
Y3521800D02*
G01Y3691800D01*
Y3691800D02*
G03X910500Y3727614I-35814D01*
Y3727614D02*
G01X740500D01*
Y3727614D02*
G03X704686Y3691800J-35814D01*
Y3691800D02*
G01Y3521800D01*
Y3521800D02*
G03X740500Y3485986I35814D01*
Y3485986D02*
G01X910500D01*
Y1707986D02*
G03X946314Y1743800J35814D01*
Y1743800D02*
G01Y1913800D01*
Y1913800D02*
G03X910500Y1949614I-35814D01*
Y1949614D02*
G01X740500D01*
Y1949614D02*
G03X704686Y1913800J-35814D01*
Y1913800D02*
G01Y1743800D01*
Y1743800D02*
G03X740500Y1707986I35814D01*
Y1707986D02*
G01X910500D01*
X958686Y3606800D02*
G03X1200314Y3606800I120814D01*
Y3606800D02*
G03X958686Y3606800I-120814D01*
Y1828800D02*
G03X1200314Y1828800I120814D01*
Y1828800D02*
G03X958686Y1828800I-120814D01*
X1212686Y3606800D02*
G03X1454314Y3606800I120814D01*
Y3606800D02*
G03X1212686Y3606800I-120814D01*
Y1828800D02*
G03X1454314Y1828800I120814D01*
Y1828800D02*
G03X1212686Y1828800I-120814D01*
X3476986Y3440509D02*
G03X3609614Y3440509I66314D01*
Y3440509D02*
G03X3476986Y3440509I-66314D01*
X3629386D02*
G03X3762014Y3440509I66314D01*
Y3440509D02*
G03X3629386Y3440509I-66314D01*
X3781786D02*
G03X3914414Y3440509I66314D01*
Y3440509D02*
G03X3781786Y3440509I-66314D01*
X3845286Y7670795D02*
G03X3977914Y7670795I66314D01*
Y7670795D02*
G03X3845286Y7670795I-66314D01*
Y7492995D02*
G03X3977914Y7492995I66314D01*
Y7492995D02*
G03X3845286Y7492995I-66314D01*
X3870686Y4313596D02*
G03X4003314Y4313596I66314D01*
Y4313596D02*
G03X3870686Y4313596I-66314D01*
Y4448880D02*
G03X4003314Y4448880I66314D01*
Y4448880D02*
G03X3870686Y4448880I-66314D01*
X3934186Y3440509D02*
G03X4066814Y3440509I66314D01*
Y3440509D02*
G03X3934186Y3440509I-66314D01*
X3959537Y5981700D02*
G03X4090226Y5965781I66314D01*
Y5965781D02*
G03X4220915Y5981700I64375J15919D01*
Y5981700D02*
G03X4090226Y5997619I-66314D01*
Y5997619D02*
G03X3959537Y5981700I-64375J-15919D01*
X4531086Y7239361D02*
G03X4663714Y7239361I66314D01*
Y7239361D02*
G03X4531086Y7239361I-66314D01*
X4543786Y4724039D02*
G03X4676414Y4724039I66314D01*
Y4724039D02*
G03X4543786Y4724039I-66314D01*
X7655286Y4314087D02*
G03X7787914Y4314087I66314D01*
Y4314087D02*
G03X7655286Y4314087I-66314D01*
Y4448570D02*
G03X7787914Y4448570I66314D01*
Y4448570D02*
G03X7655286Y4448570I-66314D01*
X7915402Y7281285D02*
G03X7915402Y7602912J160814D01*
Y7602912D02*
G03X7915402Y7281285J-160813D01*
Y6781286D02*
G03X7915402Y7102913J160814D01*
Y7102913D02*
G03X7915402Y6781286J-160813D01*
Y5371586D02*
G03X7915402Y5693213J160814D01*
Y5693213D02*
G03X7915402Y5371586J-160813D01*
Y5871585D02*
G03X7915402Y6193212J160814D01*
Y6193212D02*
G03X7915402Y5871585J-160813D01*
X8415401Y4454087D02*
G03X8415401Y4775714J160814D01*
Y4775714D02*
G03X8415401Y4454087J-160813D01*
Y3954088D02*
G03X8415401Y4275715J160814D01*
Y4275715D02*
G03X8415401Y3954088J-160813D01*
X8915400Y7616284D02*
G03X8915400Y7867912J125814D01*
Y7867912D02*
G03X8915400Y7616284J-125814D01*
Y6516286D02*
G03X8915400Y6767914J125814D01*
Y6767914D02*
G03X8915400Y6516286J-125814D01*
Y6206584D02*
G03X8915400Y6458212J125814D01*
Y6458212D02*
G03X8915400Y6206584J-125814D01*
Y5106586D02*
G03X8915400Y5358214J125814D01*
Y5358214D02*
G03X8915400Y5106586J-125814D01*
Y4789086D02*
G03X8915400Y5040714J125814D01*
Y5040714D02*
G03X8915400Y4789086J-125814D01*
X3488690Y6824291D02*
G01Y6175827D01*
Y6175827D02*
G03X3392956Y6116396I-29420J-59431D01*
Y6116396D02*
G03X3488690Y6056965I66314D01*
Y6056965D02*
G01Y6004560D01*
X41910*
Y6974840*
X3488690*
Y6942814*
Y6942814D02*
G03X3392617Y6883552I-29759J-59262D01*
Y6883552D02*
G03X3488690Y6824291I66313J0D01*
G54D11*
X6210300Y529854D02*
G01Y503946D01*
Y689346D02*
G01Y715254D01*
X6130554Y609600D02*
G01X6104646D01*
X6290046D02*
G01X6315954D01*
X6464300Y529854D02*
G01Y503946D01*
Y689346D02*
G01Y715254D01*
X6384554Y609600D02*
G01X6358646D01*
X6544046D02*
G01X6569954D01*
X8242300Y529854D02*
G01Y503946D01*
Y689346D02*
G01Y715254D01*
X8162554Y609600D02*
G01X8136646D01*
X8322046D02*
G01X8347954D01*
X8496300Y529854D02*
G01Y503946D01*
Y689346D02*
G01Y715254D01*
X8416554Y609600D02*
G01X8390646D01*
X8576046D02*
G01X8601954D01*
G54D12*
X1418246Y1828800D02*
G01X1444154D01*
X1333500Y1913546D02*
G01Y1939454D01*
Y1744054D02*
G01Y1718146D01*
X1418246Y3606800D02*
G01X1444154D01*
X1333500Y3691546D02*
G01Y3717454D01*
Y3522054D02*
G01Y3496146D01*
X7915402Y6817354D02*
G01Y6791446D01*
Y7066845D02*
G01Y7092753D01*
X7790656Y6942099D02*
G01X7764748D01*
X8040148D02*
G01X8066056D01*
X7915402Y5407654D02*
G01Y5381746D01*
Y5657145D02*
G01Y5683053D01*
X7790656Y5532399D02*
G01X7764748D01*
X8040148D02*
G01X8066056D01*
X8415401Y4490155D02*
G01Y4464247D01*
Y4739646D02*
G01Y4765554D01*
X8290655Y4614901D02*
G01X8264747D01*
X8540147D02*
G01X8566055D01*
M02*
