M48
INCH,LZ
;FILE_FORMAT=2:4
;TYPE=PLATED
;Layer: PTH_Through_Via
;EasyEDA v6.5.37, 2024-09-25 03:55:15
;7e8e10f67f6b4ae2816efe54b0c62c6c,10
;Gerber Generator version 0.2
;Holesize 1 = 0.0120 inch
T01C0.0120
;Holesize 2 = 0.0180 inch
T02C0.0180
%
G05
G90
T01
X020000Y-012950
X020000Y-013450
X006250Y-016000
X005750Y-016000
X011700Y-016000
X012300Y-016000
X012500Y-012050
X012400Y-012300
X012500Y-012550
X012400Y-012800
X012500Y-013050
X012400Y-013300
X012500Y-013550
X012400Y-013800
X012500Y-014050
X027700Y-016000
X028300Y-016000
X027550Y-012000
X027650Y-012250
X027550Y-012500
X027650Y-012750
X027550Y-013000
X027650Y-013250
X027550Y-013500
X027650Y-013750
X027550Y-014000
X019750Y-014950
X020250Y-014950
X019750Y-015250
X020250Y-015250
X019750Y-015550
X020250Y-015550
X020250Y-015850
X019750Y-015850
X019750Y-016150
X020250Y-016150
X019750Y-016450
X020250Y-016450
X020250Y-016750
X019750Y-016750
X019750Y-017050
X020250Y-017050
X018400Y-017050
X018400Y-016750
X018400Y-016450
X018400Y-016150
X018400Y-015850
X018400Y-015550
X018400Y-015250
X018400Y-014950
X021650Y-017050
X021650Y-016750
X021650Y-016450
X021650Y-016150
X021650Y-015850
X021650Y-015550
X021650Y-015250
X021650Y-014950
X002650Y-015100
X002950Y-015100
X003250Y-015100
X003550Y-015100
X003850Y-015100
X035350Y-013450
X035100Y-013450
X034850Y-013450
X034600Y-013450
X034350Y-013450
X034100Y-013450
X033850Y-013450
X033850Y-014550
X034100Y-014550
X034350Y-014550
X034600Y-014550
X034850Y-014550
X035100Y-014550
X035350Y-014550
X035600Y-014550
X035600Y-013450
X031900Y-009550
X032150Y-009550
X032400Y-009550
X032650Y-009550
X032900Y-009550
X033150Y-009550
X033400Y-009550
X033650Y-009550
X031900Y-008450
X032150Y-008450
X032400Y-008450
X032650Y-008450
X032900Y-008450
X033150Y-008450
X033400Y-008450
X033650Y-008450
X031900Y-003450
X032150Y-003450
X032400Y-003450
X032650Y-003450
X032900Y-003450
X033150Y-003450
X033400Y-003450
X033650Y-003450
X031900Y-004550
X032150Y-004550
X032400Y-004550
X032650Y-004550
X032900Y-004550
X033150Y-004550
X033400Y-004550
X033650Y-004550
X012600Y-004050
X012600Y-004300
X012600Y-004550
X012600Y-004800
X012600Y-005050
X012600Y-005300
X012600Y-005550
X012600Y-005800
X011500Y-004050
X011500Y-004300
X011500Y-004550
X011500Y-004800
X011500Y-005050
X011500Y-005300
X011500Y-005550
X011500Y-005800
X004600Y-003450
X004850Y-003450
X005100Y-003450
X005350Y-003450
X005600Y-003450
X005850Y-003450
X006100Y-003450
X006350Y-003450
X004600Y-004550
X004850Y-004550
X005100Y-004550
X005350Y-004550
X005600Y-004550
X005850Y-004550
X006100Y-004550
X006350Y-004550
X004600Y-008450
X004850Y-008450
X005100Y-008450
X005350Y-008450
X005600Y-008450
X005850Y-008450
X006100Y-008450
X006350Y-008450
X004600Y-009550
X004850Y-009550
X005100Y-009550
X005350Y-009550
X005600Y-009550
X005850Y-009550
X006100Y-009550
X006350Y-009550
X003250Y-016500
X003550Y-016500
X003850Y-016500
X002950Y-016500
X002650Y-016500
X010500Y-013000
X029500Y-012900
X017550Y-026800
X017250Y-026650
X025250Y-026500
X025250Y-026850
X025050Y-027550
X025050Y-025850
X026550Y-025550
X025000Y-024950
X021850Y-023950
X017000Y-023100
X022250Y-025600
X022700Y-025750
X013600Y-026100
X014300Y-027200
X014650Y-026650
X015850Y-026300
X020850Y-028550
X020700Y-030850
X014550Y-025650
X025050Y-028150
X019700Y-027900
X025600Y-023400
X022950Y-031250
X022050Y-030650
X023950Y-022800
X023250Y-022800
X023350Y-030050
X016150Y-025650
X025950Y-024050
X022050Y-024200
X020200Y-029800
X026550Y-026200
X011700Y-017750
X012300Y-017750
X005800Y-017800
X006250Y-017800
X012200Y-019350
X019250Y-025600
X019450Y-026900
X011800Y-019350
X010900Y-020950
X011400Y-020950
X007950Y-022200
X005300Y-022950
X004300Y-023750
X005850Y-022250
X012850Y-022000
X009750Y-023500
X023450Y-021350
X016950Y-018250
T02
X021900Y-013150
X018100Y-011150
X014000Y-013900
X024050Y-013900
X015250Y-013550
X025250Y-013550
X019200Y-024550
X020300Y-023700
X020800Y-023850
X021300Y-023600
X019350Y-030450
X016150Y-025050
X020550Y-027750
X021024Y-023393
X023100Y-028250
X022300Y-029800
X019350Y-024200
X019750Y-030450
X023700Y-024950
X025050Y-024450
X019800Y-022800
X019000Y-021400
X020350Y-021500
X021150Y-022350
X021250Y-021900
X018700Y-020550
X020050Y-020450
X020800Y-020450
X021500Y-020450
X017550Y-022650
X017550Y-023550
X016100Y-027100
X022350Y-022750
X021953Y-023050
X025050Y-028700
X025050Y-029300
X022700Y-029850
X013450Y-020700
X013450Y-022600
X013950Y-020300
X013950Y-022200
X005350Y-020950
X005350Y-022100
X006550Y-020950
X008400Y-021550
X004800Y-018000
X007250Y-018000
X002950Y-021200
X005300Y-024300
X005500Y-022600
X012650Y-021350
X012850Y-023250
X010800Y-017950
X013250Y-018000
X008200Y-018100
X008700Y-018600
X008200Y-018600
M30
