G04 Layer: TopSilkscreenLayer*
G04 EasyEDA v6.5.37, 2024-09-25 03:55:15*
G04 7e8e10f67f6b4ae2816efe54b0c62c6c,10*
G04 Gerber Generator version 0.2*
G04 Scale: 100 percent, Rotated: No, Reflected: No *
G04 Dimensions in inches *
G04 leading zeros omitted , absolute positions ,3 integer and 6 decimal *
%FSLAX36Y36*%
%MOIN*%

%ADD10C,0.0080*%
%ADD11C,0.0080*%
%ADD12C,0.0060*%
%ADD13C,0.0060*%
%ADD14C,0.0080*%
%ADD15C,0.0080*%
%ADD16C,0.0100*%
%ADD17C,0.0039*%
%ADD18C,0.0059*%
%ADD19C,0.0060*%
%ADD20C,0.0197*%
%ADD21C,0.0118*%
%ADD22C,0.0094*%
%ADD23C,0.0079*%
%ADD24C,0.0170*%

%LPD*%
D10*
X2790000Y-3070399D02*
G01*
X2790000Y-3126799D01*
X2790000Y-3070399D02*
G01*
X2814200Y-3070399D01*
X2822200Y-3073099D01*
X2824899Y-3075799D01*
X2827600Y-3081100D01*
X2827600Y-3086500D01*
X2824899Y-3091900D01*
X2822200Y-3094600D01*
X2814200Y-3097300D01*
X2790000Y-3097300D02*
G01*
X2814200Y-3097300D01*
X2822200Y-3099899D01*
X2824899Y-3102600D01*
X2827600Y-3108000D01*
X2827600Y-3115999D01*
X2824899Y-3121399D01*
X2822200Y-3124099D01*
X2814200Y-3126799D01*
X2790000Y-3126799D01*
X2845299Y-3070399D02*
G01*
X2848000Y-3073099D01*
X2850699Y-3070399D01*
X2848000Y-3067700D01*
X2845299Y-3070399D01*
X2848000Y-3089200D02*
G01*
X2848000Y-3126799D01*
X2900600Y-3070399D02*
G01*
X2900600Y-3126799D01*
X2900600Y-3097300D02*
G01*
X2895200Y-3091900D01*
X2889899Y-3089200D01*
X2881800Y-3089200D01*
X2876400Y-3091900D01*
X2871099Y-3097300D01*
X2868400Y-3105300D01*
X2868400Y-3110700D01*
X2871099Y-3118699D01*
X2876400Y-3124099D01*
X2881800Y-3126799D01*
X2889899Y-3126799D01*
X2895200Y-3124099D01*
X2900600Y-3118699D01*
X2918299Y-3070399D02*
G01*
X2921000Y-3073099D01*
X2923699Y-3070399D01*
X2921000Y-3067700D01*
X2918299Y-3070399D01*
X2921000Y-3089200D02*
G01*
X2921000Y-3126799D01*
X2941400Y-3089200D02*
G01*
X2941400Y-3126799D01*
X2941400Y-3105300D02*
G01*
X2944099Y-3097300D01*
X2949399Y-3091900D01*
X2954799Y-3089200D01*
X2962899Y-3089200D01*
X2980600Y-3105300D02*
G01*
X3012799Y-3105300D01*
X3012799Y-3099899D01*
X3010100Y-3094600D01*
X3007399Y-3091900D01*
X3002100Y-3089200D01*
X2993999Y-3089200D01*
X2988599Y-3091900D01*
X2983299Y-3097300D01*
X2980600Y-3105300D01*
X2980600Y-3110700D01*
X2983299Y-3118699D01*
X2988599Y-3124099D01*
X2993999Y-3126799D01*
X3002100Y-3126799D01*
X3007399Y-3124099D01*
X3012799Y-3118699D01*
X3062700Y-3097300D02*
G01*
X3057399Y-3091900D01*
X3051999Y-3089200D01*
X3043900Y-3089200D01*
X3038599Y-3091900D01*
X3033199Y-3097300D01*
X3030500Y-3105300D01*
X3030500Y-3110700D01*
X3033199Y-3118699D01*
X3038599Y-3124099D01*
X3043900Y-3126799D01*
X3051999Y-3126799D01*
X3057399Y-3124099D01*
X3062700Y-3118699D01*
X3088500Y-3070399D02*
G01*
X3088500Y-3115999D01*
X3091199Y-3124099D01*
X3096499Y-3126799D01*
X3101899Y-3126799D01*
X3080399Y-3089200D02*
G01*
X3099200Y-3089200D01*
X3119600Y-3070399D02*
G01*
X3122299Y-3073099D01*
X3125000Y-3070399D01*
X3122299Y-3067700D01*
X3119600Y-3070399D01*
X3122299Y-3089200D02*
G01*
X3122299Y-3126799D01*
X3156099Y-3089200D02*
G01*
X3150799Y-3091900D01*
X3145399Y-3097300D01*
X3142700Y-3105300D01*
X3142700Y-3110700D01*
X3145399Y-3118699D01*
X3150799Y-3124099D01*
X3156099Y-3126799D01*
X3164200Y-3126799D01*
X3169600Y-3124099D01*
X3174899Y-3118699D01*
X3177600Y-3110700D01*
X3177600Y-3105300D01*
X3174899Y-3097300D01*
X3169600Y-3091900D01*
X3164200Y-3089200D01*
X3156099Y-3089200D01*
X3195299Y-3089200D02*
G01*
X3195299Y-3126799D01*
X3195299Y-3099899D02*
G01*
X3203400Y-3091900D01*
X3208800Y-3089200D01*
X3216800Y-3089200D01*
X3222200Y-3091900D01*
X3224899Y-3099899D01*
X3224899Y-3126799D01*
X3274799Y-3089200D02*
G01*
X3274799Y-3126799D01*
X3274799Y-3097300D02*
G01*
X3269399Y-3091900D01*
X3264099Y-3089200D01*
X3256000Y-3089200D01*
X3250600Y-3091900D01*
X3245299Y-3097300D01*
X3242600Y-3105300D01*
X3242600Y-3110700D01*
X3245299Y-3118699D01*
X3250600Y-3124099D01*
X3256000Y-3126799D01*
X3264099Y-3126799D01*
X3269399Y-3124099D01*
X3274799Y-3118699D01*
X3292500Y-3070399D02*
G01*
X3292500Y-3126799D01*
X3351599Y-3070399D02*
G01*
X3351599Y-3126799D01*
X3351599Y-3070399D02*
G01*
X3370299Y-3070399D01*
X3378400Y-3073099D01*
X3383800Y-3078499D01*
X3386499Y-3083800D01*
X3389099Y-3091900D01*
X3389099Y-3105300D01*
X3386499Y-3113400D01*
X3383800Y-3118699D01*
X3378400Y-3124099D01*
X3370299Y-3126799D01*
X3351599Y-3126799D01*
X3447100Y-3083800D02*
G01*
X3444399Y-3078499D01*
X3439099Y-3073099D01*
X3433699Y-3070399D01*
X3423000Y-3070399D01*
X3417600Y-3073099D01*
X3412200Y-3078499D01*
X3409499Y-3083800D01*
X3406899Y-3091900D01*
X3406899Y-3105300D01*
X3409499Y-3113400D01*
X3412200Y-3118699D01*
X3417600Y-3124099D01*
X3423000Y-3126799D01*
X3433699Y-3126799D01*
X3439099Y-3124099D01*
X3444399Y-3118699D01*
X3447100Y-3113400D01*
X3464799Y-3102600D02*
G01*
X3513199Y-3102600D01*
X3530900Y-3070399D02*
G01*
X3530900Y-3126799D01*
X3530900Y-3070399D02*
G01*
X3549700Y-3070399D01*
X3557700Y-3073099D01*
X3563100Y-3078499D01*
X3565799Y-3083800D01*
X3568500Y-3091900D01*
X3568500Y-3105300D01*
X3565799Y-3113400D01*
X3563100Y-3118699D01*
X3557700Y-3124099D01*
X3549700Y-3126799D01*
X3530900Y-3126799D01*
X3626400Y-3083800D02*
G01*
X3623699Y-3078499D01*
X3618400Y-3073099D01*
X3613000Y-3070399D01*
X3602299Y-3070399D01*
X3596899Y-3073099D01*
X3591499Y-3078499D01*
X3588900Y-3083800D01*
X3586199Y-3091900D01*
X3586199Y-3105300D01*
X3588900Y-3113400D01*
X3591499Y-3118699D01*
X3596899Y-3124099D01*
X3602299Y-3126799D01*
X3613000Y-3126799D01*
X3618400Y-3124099D01*
X3623699Y-3118699D01*
X3626400Y-3113400D01*
X2816800Y-3149200D02*
G01*
X2815100Y-3145599D01*
X2811499Y-3142100D01*
X2807899Y-3140300D01*
X2800699Y-3140300D01*
X2797200Y-3142100D01*
X2793599Y-3145599D01*
X2791800Y-3149200D01*
X2790000Y-3154600D01*
X2790000Y-3163499D01*
X2791800Y-3168899D01*
X2793599Y-3172500D01*
X2797200Y-3176100D01*
X2800699Y-3177899D01*
X2807899Y-3177899D01*
X2811499Y-3176100D01*
X2815100Y-3172500D01*
X2816800Y-3168899D01*
X2837600Y-3152800D02*
G01*
X2833999Y-3154600D01*
X2830399Y-3158200D01*
X2828699Y-3163499D01*
X2828699Y-3167100D01*
X2830399Y-3172500D01*
X2833999Y-3176100D01*
X2837600Y-3177899D01*
X2843000Y-3177899D01*
X2846499Y-3176100D01*
X2850100Y-3172500D01*
X2851899Y-3167100D01*
X2851899Y-3163499D01*
X2850100Y-3158200D01*
X2846499Y-3154600D01*
X2843000Y-3152800D01*
X2837600Y-3152800D01*
X2872700Y-3152800D02*
G01*
X2869099Y-3154600D01*
X2865500Y-3158200D01*
X2863699Y-3163499D01*
X2863699Y-3167100D01*
X2865500Y-3172500D01*
X2869099Y-3176100D01*
X2872700Y-3177899D01*
X2878000Y-3177899D01*
X2881599Y-3176100D01*
X2885200Y-3172500D01*
X2886999Y-3167100D01*
X2886999Y-3163499D01*
X2885200Y-3158200D01*
X2881599Y-3154600D01*
X2878000Y-3152800D01*
X2872700Y-3152800D01*
X2898800Y-3140300D02*
G01*
X2898800Y-3177899D01*
X2916700Y-3152800D02*
G01*
X2898800Y-3170700D01*
X2906000Y-3163499D02*
G01*
X2918500Y-3177899D01*
X2930299Y-3163499D02*
G01*
X2951800Y-3163499D01*
X2951800Y-3160000D01*
X2950000Y-3156399D01*
X2948199Y-3154600D01*
X2944600Y-3152800D01*
X2939200Y-3152800D01*
X2935699Y-3154600D01*
X2932100Y-3158200D01*
X2930299Y-3163499D01*
X2930299Y-3167100D01*
X2932100Y-3172500D01*
X2935699Y-3176100D01*
X2939200Y-3177899D01*
X2944600Y-3177899D01*
X2948199Y-3176100D01*
X2951800Y-3172500D01*
X2985100Y-3140300D02*
G01*
X2985100Y-3177899D01*
X2985100Y-3158200D02*
G01*
X2981499Y-3154600D01*
X2977899Y-3152800D01*
X2972500Y-3152800D01*
X2968999Y-3154600D01*
X2965399Y-3158200D01*
X2963599Y-3163499D01*
X2963599Y-3167100D01*
X2965399Y-3172500D01*
X2968999Y-3176100D01*
X2972500Y-3177899D01*
X2977899Y-3177899D01*
X2981499Y-3176100D01*
X2985100Y-3172500D01*
X3024399Y-3140300D02*
G01*
X3024399Y-3177899D01*
X3024399Y-3158200D02*
G01*
X3028000Y-3154600D01*
X3031599Y-3152800D01*
X3036999Y-3152800D01*
X3040500Y-3154600D01*
X3044099Y-3158200D01*
X3045900Y-3163499D01*
X3045900Y-3167100D01*
X3044099Y-3172500D01*
X3040500Y-3176100D01*
X3036999Y-3177899D01*
X3031599Y-3177899D01*
X3028000Y-3176100D01*
X3024399Y-3172500D01*
X3059499Y-3152800D02*
G01*
X3070200Y-3177899D01*
X3081000Y-3152800D02*
G01*
X3070200Y-3177899D01*
X3066700Y-3185000D01*
X3063100Y-3188600D01*
X3059499Y-3190399D01*
X3057700Y-3190399D01*
X3094600Y-3156399D02*
G01*
X3092799Y-3158200D01*
X3094600Y-3160000D01*
X3096400Y-3158200D01*
X3094600Y-3156399D01*
X3094600Y-3168899D02*
G01*
X3092799Y-3170700D01*
X3094600Y-3172500D01*
X3096400Y-3170700D01*
X3094600Y-3168899D01*
X3135699Y-3140300D02*
G01*
X3144700Y-3177899D01*
X3153599Y-3140300D02*
G01*
X3144700Y-3177899D01*
X3153599Y-3140300D02*
G01*
X3162600Y-3177899D01*
X3171499Y-3140300D02*
G01*
X3162600Y-3177899D01*
X3183299Y-3140300D02*
G01*
X3183299Y-3177899D01*
X3183299Y-3140300D02*
G01*
X3206599Y-3140300D01*
X3183299Y-3158200D02*
G01*
X3197700Y-3158200D01*
X3183299Y-3177899D02*
G01*
X3206599Y-3177899D01*
X3218400Y-3140300D02*
G01*
X3218400Y-3177899D01*
X2790000Y-3200300D02*
G01*
X2790000Y-3237899D01*
X2790000Y-3200300D02*
G01*
X2815100Y-3237899D01*
X2815100Y-3200300D02*
G01*
X2815100Y-3237899D01*
X2826899Y-3200300D02*
G01*
X2826899Y-3227100D01*
X2828699Y-3232500D01*
X2832200Y-3236100D01*
X2837600Y-3237899D01*
X2841199Y-3237899D01*
X2846499Y-3236100D01*
X2850100Y-3232500D01*
X2851899Y-3227100D01*
X2851899Y-3200300D01*
X2888800Y-3205599D02*
G01*
X2885200Y-3202100D01*
X2879799Y-3200300D01*
X2872700Y-3200300D01*
X2867299Y-3202100D01*
X2863699Y-3205599D01*
X2863699Y-3209200D01*
X2865500Y-3212800D01*
X2867299Y-3214600D01*
X2870900Y-3216399D01*
X2881599Y-3220000D01*
X2885200Y-3221700D01*
X2886999Y-3223499D01*
X2888800Y-3227100D01*
X2888800Y-3232500D01*
X2885200Y-3236100D01*
X2879799Y-3237899D01*
X2872700Y-3237899D01*
X2867299Y-3236100D01*
X2863699Y-3232500D01*
X2955000Y-3209200D02*
G01*
X2953199Y-3205599D01*
X2949600Y-3202100D01*
X2946000Y-3200300D01*
X2938900Y-3200300D01*
X2935299Y-3202100D01*
X2931700Y-3205599D01*
X2929899Y-3209200D01*
X2928199Y-3214600D01*
X2928199Y-3223499D01*
X2929899Y-3228899D01*
X2931700Y-3232500D01*
X2935299Y-3236100D01*
X2938900Y-3237899D01*
X2946000Y-3237899D01*
X2949600Y-3236100D01*
X2953199Y-3232500D01*
X2955000Y-3228899D01*
X2988299Y-3212800D02*
G01*
X2988299Y-3237899D01*
X2988299Y-3218200D02*
G01*
X2984700Y-3214600D01*
X2981099Y-3212800D01*
X2975799Y-3212800D01*
X2972200Y-3214600D01*
X2968599Y-3218200D01*
X2966800Y-3223499D01*
X2966800Y-3227100D01*
X2968599Y-3232500D01*
X2972200Y-3236100D01*
X2975799Y-3237899D01*
X2981099Y-3237899D01*
X2984700Y-3236100D01*
X2988299Y-3232500D01*
X3000100Y-3200300D02*
G01*
X3000100Y-3237899D01*
X3011899Y-3200300D02*
G01*
X3013699Y-3202100D01*
X3015500Y-3200300D01*
X3013699Y-3198499D01*
X3011899Y-3200300D01*
X3013699Y-3212800D02*
G01*
X3013699Y-3237899D01*
X3027299Y-3200300D02*
G01*
X3027299Y-3237899D01*
X3027299Y-3218200D02*
G01*
X3030900Y-3214600D01*
X3034499Y-3212800D01*
X3039799Y-3212800D01*
X3043400Y-3214600D01*
X3046999Y-3218200D01*
X3048800Y-3223499D01*
X3048800Y-3227100D01*
X3046999Y-3232500D01*
X3043400Y-3236100D01*
X3039799Y-3237899D01*
X3034499Y-3237899D01*
X3030900Y-3236100D01*
X3027299Y-3232500D01*
X3060600Y-3212800D02*
G01*
X3060600Y-3230700D01*
X3062399Y-3236100D01*
X3065900Y-3237899D01*
X3071300Y-3237899D01*
X3074899Y-3236100D01*
X3080299Y-3230700D01*
X3080299Y-3212800D02*
G01*
X3080299Y-3237899D01*
X3092100Y-3212800D02*
G01*
X3092100Y-3237899D01*
X3092100Y-3223499D02*
G01*
X3093900Y-3218200D01*
X3097399Y-3214600D01*
X3101000Y-3212800D01*
X3106400Y-3212800D01*
X3145799Y-3200300D02*
G01*
X3145799Y-3237899D01*
X3145799Y-3200300D02*
G01*
X3161899Y-3200300D01*
X3167200Y-3202100D01*
X3168999Y-3203899D01*
X3170799Y-3207399D01*
X3170799Y-3210999D01*
X3168999Y-3214600D01*
X3167200Y-3216399D01*
X3161899Y-3218200D01*
X3145799Y-3218200D01*
X3158299Y-3218200D02*
G01*
X3170799Y-3237899D01*
X3191599Y-3212800D02*
G01*
X3188000Y-3214600D01*
X3184399Y-3218200D01*
X3182600Y-3223499D01*
X3182600Y-3227100D01*
X3184399Y-3232500D01*
X3188000Y-3236100D01*
X3191599Y-3237899D01*
X3196899Y-3237899D01*
X3200500Y-3236100D01*
X3204099Y-3232500D01*
X3205900Y-3227100D01*
X3205900Y-3223499D01*
X3204099Y-3218200D01*
X3200500Y-3214600D01*
X3196899Y-3212800D01*
X3191599Y-3212800D01*
X3217700Y-3200300D02*
G01*
X3217700Y-3237899D01*
X3217700Y-3218200D02*
G01*
X3221300Y-3214600D01*
X3224899Y-3212800D01*
X3230200Y-3212800D01*
X3233800Y-3214600D01*
X3237399Y-3218200D01*
X3239200Y-3223499D01*
X3239200Y-3227100D01*
X3237399Y-3232500D01*
X3233800Y-3236100D01*
X3230200Y-3237899D01*
X3224899Y-3237899D01*
X3221300Y-3236100D01*
X3217700Y-3232500D01*
X3259899Y-3212800D02*
G01*
X3256400Y-3214600D01*
X3252799Y-3218200D01*
X3251000Y-3223499D01*
X3251000Y-3227100D01*
X3252799Y-3232500D01*
X3256400Y-3236100D01*
X3259899Y-3237899D01*
X3265299Y-3237899D01*
X3268900Y-3236100D01*
X3272500Y-3232500D01*
X3274300Y-3227100D01*
X3274300Y-3223499D01*
X3272500Y-3218200D01*
X3268900Y-3214600D01*
X3265299Y-3212800D01*
X3259899Y-3212800D01*
X3291400Y-3200300D02*
G01*
X3291400Y-3230700D01*
X3293199Y-3236100D01*
X3296800Y-3237899D01*
X3300399Y-3237899D01*
X3286099Y-3212800D02*
G01*
X3298599Y-3212800D01*
X3312200Y-3200300D02*
G01*
X3313999Y-3202100D01*
X3315799Y-3200300D01*
X3313999Y-3198499D01*
X3312200Y-3200300D01*
X3313999Y-3212800D02*
G01*
X3313999Y-3237899D01*
X3349099Y-3218200D02*
G01*
X3345500Y-3214600D01*
X3341899Y-3212800D01*
X3336499Y-3212800D01*
X3332899Y-3214600D01*
X3329399Y-3218200D01*
X3327600Y-3223499D01*
X3327600Y-3227100D01*
X3329399Y-3232500D01*
X3332899Y-3236100D01*
X3336499Y-3237899D01*
X3341899Y-3237899D01*
X3345500Y-3236100D01*
X3349099Y-3232500D01*
X3380600Y-3218200D02*
G01*
X3378800Y-3214600D01*
X3373400Y-3212800D01*
X3368000Y-3212800D01*
X3362700Y-3214600D01*
X3360900Y-3218200D01*
X3362700Y-3221700D01*
X3366199Y-3223499D01*
X3375200Y-3225300D01*
X3378800Y-3227100D01*
X3380600Y-3230700D01*
X3380600Y-3232500D01*
X3378800Y-3236100D01*
X3373400Y-3237899D01*
X3368000Y-3237899D01*
X3362700Y-3236100D01*
X3360900Y-3232500D01*
X339200Y-2793499D02*
G01*
X339200Y-2841799D01*
X315000Y-2817600D02*
G01*
X363299Y-2817600D01*
X413200Y-2785399D02*
G01*
X386399Y-2785399D01*
X383699Y-2809600D01*
X386399Y-2806900D01*
X394499Y-2804200D01*
X402500Y-2804200D01*
X410599Y-2806900D01*
X415900Y-2812300D01*
X418600Y-2820300D01*
X418600Y-2825700D01*
X415900Y-2833699D01*
X410599Y-2839099D01*
X402500Y-2841799D01*
X394499Y-2841799D01*
X386399Y-2839099D01*
X383699Y-2836399D01*
X380999Y-2830999D01*
X436300Y-2785399D02*
G01*
X457800Y-2841799D01*
X479299Y-2785399D02*
G01*
X457800Y-2841799D01*
X559800Y-2785399D02*
G01*
X538299Y-2841799D01*
X559800Y-2785399D02*
G01*
X581300Y-2841799D01*
X546399Y-2823000D02*
G01*
X573200Y-2823000D01*
X599000Y-2785399D02*
G01*
X601700Y-2788099D01*
X604400Y-2785399D01*
X601700Y-2782700D01*
X599000Y-2785399D01*
X601700Y-2804200D02*
G01*
X601700Y-2841799D01*
X622100Y-2804200D02*
G01*
X622100Y-2841799D01*
X622100Y-2814899D02*
G01*
X630100Y-2806900D01*
X635500Y-2804200D01*
X643600Y-2804200D01*
X648899Y-2806900D01*
X651599Y-2814899D01*
X651599Y-2841799D01*
X750900Y-2798800D02*
G01*
X748200Y-2793499D01*
X742899Y-2788099D01*
X737500Y-2785399D01*
X726799Y-2785399D01*
X721399Y-2788099D01*
X715999Y-2793499D01*
X713400Y-2798800D01*
X710700Y-2806900D01*
X710700Y-2820300D01*
X713400Y-2828400D01*
X715999Y-2833699D01*
X721399Y-2839099D01*
X726799Y-2841799D01*
X737500Y-2841799D01*
X742899Y-2839099D01*
X748200Y-2833699D01*
X750900Y-2828400D01*
X750900Y-2820300D01*
X737500Y-2820300D02*
G01*
X750900Y-2820300D01*
X768599Y-2785399D02*
G01*
X768599Y-2841799D01*
X768599Y-2785399D02*
G01*
X806199Y-2841799D01*
X806199Y-2785399D02*
G01*
X806199Y-2841799D01*
X823900Y-2785399D02*
G01*
X823900Y-2841799D01*
X823900Y-2785399D02*
G01*
X842700Y-2785399D01*
X850799Y-2788099D01*
X856199Y-2793499D01*
X858800Y-2798800D01*
X861499Y-2806900D01*
X861499Y-2820300D01*
X858800Y-2828400D01*
X856199Y-2833699D01*
X850799Y-2839099D01*
X842700Y-2841799D01*
X823900Y-2841799D01*
X477699Y-2923800D02*
G01*
X477699Y-2921100D01*
X480399Y-2915799D01*
X483099Y-2913099D01*
X488400Y-2910399D01*
X499200Y-2910399D01*
X504499Y-2913099D01*
X507199Y-2915799D01*
X509899Y-2921100D01*
X509899Y-2926500D01*
X507199Y-2931900D01*
X501799Y-2939899D01*
X475000Y-2966799D01*
X512600Y-2966799D01*
X533000Y-2953400D02*
G01*
X530300Y-2955999D01*
X533000Y-2958699D01*
X535700Y-2955999D01*
X533000Y-2953400D01*
X585599Y-2910399D02*
G01*
X558800Y-2910399D01*
X556100Y-2934600D01*
X558800Y-2931900D01*
X566799Y-2929200D01*
X574899Y-2929200D01*
X582899Y-2931900D01*
X588299Y-2937300D01*
X590999Y-2945300D01*
X590999Y-2950700D01*
X588299Y-2958699D01*
X582899Y-2964099D01*
X574899Y-2966799D01*
X566799Y-2966799D01*
X558800Y-2964099D01*
X556100Y-2961399D01*
X553400Y-2955999D01*
X608699Y-2929200D02*
G01*
X624800Y-2966799D01*
X640900Y-2929200D02*
G01*
X624800Y-2966799D01*
X658600Y-2942600D02*
G01*
X706900Y-2942600D01*
X724600Y-2921100D02*
G01*
X730000Y-2918499D01*
X738099Y-2910399D01*
X738099Y-2966799D01*
X755799Y-2929200D02*
G01*
X771899Y-2966799D01*
X788000Y-2929200D02*
G01*
X771899Y-2966799D01*
X491100Y-2990399D02*
G01*
X483099Y-2993099D01*
X477699Y-3001100D01*
X475000Y-3014600D01*
X475000Y-3022600D01*
X477699Y-3035999D01*
X483099Y-3044099D01*
X491100Y-3046799D01*
X496500Y-3046799D01*
X504499Y-3044099D01*
X509899Y-3035999D01*
X512600Y-3022600D01*
X512600Y-3014600D01*
X509899Y-3001100D01*
X504499Y-2993099D01*
X496500Y-2990399D01*
X491100Y-2990399D01*
X551799Y-2990399D02*
G01*
X530300Y-3046799D01*
X551799Y-2990399D02*
G01*
X573200Y-3046799D01*
X538299Y-3028000D02*
G01*
X565199Y-3028000D01*
X632300Y-3022600D02*
G01*
X680599Y-3022600D01*
X739699Y-3001100D02*
G01*
X745000Y-2998499D01*
X753099Y-2990399D01*
X753099Y-3046799D01*
X786899Y-2990399D02*
G01*
X778900Y-2993099D01*
X773500Y-3001100D01*
X770799Y-3014600D01*
X770799Y-3022600D01*
X773500Y-3035999D01*
X778900Y-3044099D01*
X786899Y-3046799D01*
X792299Y-3046799D01*
X800299Y-3044099D01*
X805699Y-3035999D01*
X808400Y-3022600D01*
X808400Y-3014600D01*
X805699Y-3001100D01*
X800299Y-2993099D01*
X792299Y-2990399D01*
X786899Y-2990399D01*
X847600Y-2990399D02*
G01*
X826099Y-3046799D01*
X847600Y-2990399D02*
G01*
X869099Y-3046799D01*
X834200Y-3028000D02*
G01*
X861000Y-3028000D01*
D11*
X1106000Y-3190900D02*
G01*
X1106000Y-3222899D01*
X1090000Y-3206900D02*
G01*
X1121999Y-3206900D01*
X1155000Y-3185599D02*
G01*
X1137200Y-3185599D01*
X1135399Y-3201599D01*
X1137200Y-3199800D01*
X1142500Y-3198000D01*
X1147899Y-3198000D01*
X1153199Y-3199800D01*
X1156700Y-3203299D01*
X1158500Y-3208699D01*
X1158500Y-3212199D01*
X1156700Y-3217500D01*
X1153199Y-3221100D01*
X1147899Y-3222899D01*
X1142500Y-3222899D01*
X1137200Y-3221100D01*
X1135399Y-3219299D01*
X1133699Y-3215799D01*
X1170200Y-3185599D02*
G01*
X1184399Y-3222899D01*
X1198599Y-3185599D02*
G01*
X1184399Y-3222899D01*
X1237700Y-3185599D02*
G01*
X1251899Y-3222899D01*
X1266099Y-3185599D02*
G01*
X1251899Y-3222899D01*
X1277799Y-3185599D02*
G01*
X1277799Y-3222899D01*
X1277799Y-3203299D02*
G01*
X1281400Y-3199800D01*
X1284899Y-3198000D01*
X1290200Y-3198000D01*
X1293800Y-3199800D01*
X1297299Y-3203299D01*
X1299099Y-3208699D01*
X1299099Y-3212199D01*
X1297299Y-3217500D01*
X1293800Y-3221100D01*
X1290200Y-3222899D01*
X1284899Y-3222899D01*
X1281400Y-3221100D01*
X1277799Y-3217500D01*
X1332100Y-3198000D02*
G01*
X1332100Y-3222899D01*
X1332100Y-3203299D02*
G01*
X1328599Y-3199800D01*
X1325000Y-3198000D01*
X1319700Y-3198000D01*
X1316199Y-3199800D01*
X1312600Y-3203299D01*
X1310799Y-3208699D01*
X1310799Y-3212199D01*
X1312600Y-3217500D01*
X1316199Y-3221100D01*
X1319700Y-3222899D01*
X1325000Y-3222899D01*
X1328599Y-3221100D01*
X1332100Y-3217500D01*
X1349200Y-3185599D02*
G01*
X1349200Y-3215799D01*
X1351000Y-3221100D01*
X1354499Y-3222899D01*
X1358100Y-3222899D01*
X1343900Y-3198000D02*
G01*
X1356300Y-3198000D01*
X1397100Y-3185599D02*
G01*
X1397100Y-3222899D01*
X1397100Y-3185599D02*
G01*
X1420200Y-3185599D01*
X1397100Y-3203299D02*
G01*
X1411300Y-3203299D01*
X1397100Y-3222899D02*
G01*
X1420200Y-3222899D01*
X1431899Y-3185599D02*
G01*
X1431899Y-3222899D01*
X1431899Y-3185599D02*
G01*
X1456800Y-3222899D01*
X1456800Y-3185599D02*
G01*
X1456800Y-3222899D01*
X1510000Y-3185599D02*
G01*
X1495799Y-3222899D01*
X1510000Y-3185599D02*
G01*
X1524200Y-3222899D01*
X1501099Y-3210399D02*
G01*
X1518900Y-3210399D01*
X1557200Y-3185599D02*
G01*
X1557200Y-3222899D01*
X1557200Y-3203299D02*
G01*
X1553699Y-3199800D01*
X1550100Y-3198000D01*
X1544799Y-3198000D01*
X1541300Y-3199800D01*
X1537700Y-3203299D01*
X1535900Y-3208699D01*
X1535900Y-3212199D01*
X1537700Y-3217500D01*
X1541300Y-3221100D01*
X1544799Y-3222899D01*
X1550100Y-3222899D01*
X1553699Y-3221100D01*
X1557200Y-3217500D01*
X1576099Y-3185599D02*
G01*
X1577799Y-3187399D01*
X1579600Y-3185599D01*
X1577799Y-3183800D01*
X1576099Y-3185599D01*
X1577799Y-3198000D02*
G01*
X1577799Y-3228200D01*
X1576099Y-3233499D01*
X1572500Y-3235300D01*
X1568999Y-3235300D01*
X1618699Y-3185599D02*
G01*
X1632899Y-3222899D01*
X1647100Y-3185599D02*
G01*
X1632899Y-3222899D01*
X1680100Y-3203299D02*
G01*
X1676499Y-3199800D01*
X1673000Y-3198000D01*
X1667700Y-3198000D01*
X1664099Y-3199800D01*
X1660600Y-3203299D01*
X1658800Y-3208699D01*
X1658800Y-3212199D01*
X1660600Y-3217500D01*
X1664099Y-3221100D01*
X1667700Y-3222899D01*
X1673000Y-3222899D01*
X1676499Y-3221100D01*
X1680100Y-3217500D01*
X1713100Y-3198000D02*
G01*
X1713100Y-3222899D01*
X1713100Y-3203299D02*
G01*
X1709600Y-3199800D01*
X1706000Y-3198000D01*
X1700699Y-3198000D01*
X1697100Y-3199800D01*
X1693599Y-3203299D01*
X1691800Y-3208699D01*
X1691800Y-3212199D01*
X1693599Y-3217500D01*
X1697100Y-3221100D01*
X1700699Y-3222899D01*
X1706000Y-3222899D01*
X1709600Y-3221100D01*
X1713100Y-3217500D01*
X1724799Y-3198000D02*
G01*
X1724799Y-3235300D01*
X1724799Y-3203299D02*
G01*
X1728400Y-3199800D01*
X1731899Y-3198000D01*
X1737200Y-3198000D01*
X1740799Y-3199800D01*
X1744300Y-3203299D01*
X1746099Y-3208699D01*
X1746099Y-3212199D01*
X1744300Y-3217500D01*
X1740799Y-3221100D01*
X1737200Y-3222899D01*
X1731899Y-3222899D01*
X1728400Y-3221100D01*
X1724799Y-3217500D01*
X1811800Y-3194499D02*
G01*
X1810000Y-3190900D01*
X1806499Y-3187399D01*
X1802899Y-3185599D01*
X1795799Y-3185599D01*
X1792299Y-3187399D01*
X1788699Y-3190900D01*
X1786999Y-3194499D01*
X1785200Y-3199800D01*
X1785200Y-3208699D01*
X1786999Y-3214000D01*
X1788699Y-3217500D01*
X1792299Y-3221100D01*
X1795799Y-3222899D01*
X1802899Y-3222899D01*
X1806499Y-3221100D01*
X1810000Y-3217500D01*
X1811800Y-3214000D01*
X1811800Y-3208699D01*
X1802899Y-3208699D02*
G01*
X1811800Y-3208699D01*
X1823500Y-3185599D02*
G01*
X1823500Y-3222899D01*
X1823500Y-3185599D02*
G01*
X1848400Y-3222899D01*
X1848400Y-3185599D02*
G01*
X1848400Y-3222899D01*
X1860100Y-3185599D02*
G01*
X1860100Y-3222899D01*
X1860100Y-3185599D02*
G01*
X1872500Y-3185599D01*
X1877799Y-3187399D01*
X1881400Y-3190900D01*
X1883199Y-3194499D01*
X1884899Y-3199800D01*
X1884899Y-3208699D01*
X1883199Y-3214000D01*
X1881400Y-3217500D01*
X1877799Y-3221100D01*
X1872500Y-3222899D01*
X1860100Y-3222899D01*
D12*
X869997Y-2379594D02*
G01*
X869997Y-2422494D01*
X869997Y-2379594D02*
G01*
X884297Y-2379594D01*
X890497Y-2381595D01*
X894498Y-2385695D01*
X896598Y-2389794D01*
X898598Y-2395994D01*
X898598Y-2406194D01*
X896598Y-2412294D01*
X894498Y-2416395D01*
X890497Y-2420495D01*
X884297Y-2422494D01*
X869997Y-2422494D01*
X916198Y-2379594D02*
G01*
X938698Y-2379594D01*
X926498Y-2395994D01*
X932597Y-2395994D01*
X936697Y-2397995D01*
X938698Y-2399994D01*
X940798Y-2406194D01*
X940798Y-2410295D01*
X938698Y-2416395D01*
X934597Y-2420495D01*
X928497Y-2422494D01*
X922398Y-2422494D01*
X916198Y-2420495D01*
X914197Y-2418494D01*
X912097Y-2414394D01*
X365399Y-2359994D02*
G01*
X322498Y-2359994D01*
X365399Y-2359994D02*
G01*
X365399Y-2374295D01*
X363398Y-2380495D01*
X359299Y-2384495D01*
X355198Y-2386595D01*
X348998Y-2388595D01*
X338798Y-2388595D01*
X332698Y-2386595D01*
X328598Y-2384495D01*
X324499Y-2380495D01*
X322498Y-2374295D01*
X322498Y-2359994D01*
X359299Y-2426694D02*
G01*
X363398Y-2424594D01*
X365399Y-2418494D01*
X365399Y-2414394D01*
X363398Y-2408294D01*
X357199Y-2404194D01*
X346999Y-2402094D01*
X336799Y-2402094D01*
X328598Y-2404194D01*
X324499Y-2408294D01*
X322498Y-2414394D01*
X322498Y-2416495D01*
X324499Y-2422595D01*
X328598Y-2426694D01*
X334699Y-2428694D01*
X336799Y-2428694D01*
X342899Y-2426694D01*
X346999Y-2422595D01*
X348998Y-2416495D01*
X348998Y-2414394D01*
X346999Y-2408294D01*
X342899Y-2404194D01*
X336799Y-2402094D01*
X2210496Y-3094594D02*
G01*
X2210496Y-3127294D01*
X2208396Y-3133494D01*
X2206396Y-3135493D01*
X2202295Y-3137494D01*
X2198195Y-3137494D01*
X2194095Y-3135493D01*
X2191995Y-3133494D01*
X2189996Y-3127294D01*
X2189996Y-3123193D01*
X2223995Y-3102793D02*
G01*
X2227996Y-3100693D01*
X2234196Y-3094594D01*
X2234196Y-3137494D01*
X610498Y-2594594D02*
G01*
X610498Y-2627294D01*
X608398Y-2633494D01*
X606399Y-2635495D01*
X602298Y-2637494D01*
X598198Y-2637494D01*
X594099Y-2635495D01*
X591999Y-2633494D01*
X589998Y-2627294D01*
X589998Y-2623195D01*
X627998Y-2594594D02*
G01*
X650498Y-2594594D01*
X638299Y-2610994D01*
X644398Y-2610994D01*
X648499Y-2612995D01*
X650498Y-2614994D01*
X652599Y-2621194D01*
X652599Y-2625295D01*
X650498Y-2631395D01*
X646498Y-2635495D01*
X640299Y-2637494D01*
X634198Y-2637494D01*
X627998Y-2635495D01*
X625999Y-2633494D01*
X623998Y-2629394D01*
X910698Y-1869796D02*
G01*
X908598Y-1865695D01*
X904498Y-1861595D01*
X900497Y-1859596D01*
X892298Y-1859596D01*
X888198Y-1861595D01*
X884098Y-1865695D01*
X881998Y-1869796D01*
X879997Y-1875996D01*
X879997Y-1886196D01*
X881998Y-1892296D01*
X884098Y-1896395D01*
X888198Y-1900495D01*
X892298Y-1902496D01*
X900497Y-1902496D01*
X904498Y-1900495D01*
X908598Y-1896395D01*
X910698Y-1892296D01*
X944597Y-1859596D02*
G01*
X924197Y-1888195D01*
X954898Y-1888195D01*
X944597Y-1859596D02*
G01*
X944597Y-1902496D01*
X980598Y-1859596D02*
G01*
X974498Y-1861595D01*
X970397Y-1867795D01*
X968397Y-1877995D01*
X968397Y-1884095D01*
X970397Y-1894396D01*
X974498Y-1900495D01*
X980598Y-1902496D01*
X984697Y-1902496D01*
X990897Y-1900495D01*
X994997Y-1894396D01*
X996998Y-1884095D01*
X996998Y-1877995D01*
X994997Y-1867795D01*
X990897Y-1861595D01*
X984697Y-1859596D01*
X980598Y-1859596D01*
X1450698Y-1879796D02*
G01*
X1448598Y-1875695D01*
X1444498Y-1871595D01*
X1440497Y-1869596D01*
X1432298Y-1869596D01*
X1428198Y-1871595D01*
X1424098Y-1875695D01*
X1421998Y-1879796D01*
X1419997Y-1885996D01*
X1419997Y-1896196D01*
X1421998Y-1902296D01*
X1424098Y-1906395D01*
X1428198Y-1910495D01*
X1432298Y-1912496D01*
X1440497Y-1912496D01*
X1444498Y-1910495D01*
X1448598Y-1906395D01*
X1450698Y-1902296D01*
X1474398Y-1869596D02*
G01*
X1468298Y-1871595D01*
X1466198Y-1875695D01*
X1466198Y-1879796D01*
X1468298Y-1883895D01*
X1472398Y-1885996D01*
X1480497Y-1887995D01*
X1486697Y-1889996D01*
X1490798Y-1894095D01*
X1492798Y-1898195D01*
X1492798Y-1904396D01*
X1490798Y-1908496D01*
X1488698Y-1910495D01*
X1482597Y-1912496D01*
X1474398Y-1912496D01*
X1468298Y-1910495D01*
X1466198Y-1908496D01*
X1464197Y-1904396D01*
X1464197Y-1898195D01*
X1466198Y-1894095D01*
X1470298Y-1889996D01*
X1476498Y-1887995D01*
X1484597Y-1885996D01*
X1488698Y-1883895D01*
X1490798Y-1879796D01*
X1490798Y-1875695D01*
X1488698Y-1871595D01*
X1482597Y-1869596D01*
X1474398Y-1869596D01*
X1540196Y-1805695D02*
G01*
X1544296Y-1803595D01*
X1548397Y-1799495D01*
X1550397Y-1795495D01*
X1550397Y-1787296D01*
X1548397Y-1783195D01*
X1544296Y-1779095D01*
X1540196Y-1776995D01*
X1533996Y-1774996D01*
X1523797Y-1774996D01*
X1517696Y-1776995D01*
X1513596Y-1779095D01*
X1509497Y-1783195D01*
X1507497Y-1787296D01*
X1507497Y-1795495D01*
X1509497Y-1799495D01*
X1513596Y-1803595D01*
X1517696Y-1805695D01*
X1536096Y-1845796D02*
G01*
X1529997Y-1843696D01*
X1525897Y-1839596D01*
X1523797Y-1833496D01*
X1523797Y-1831496D01*
X1525897Y-1825295D01*
X1529997Y-1821196D01*
X1536096Y-1819196D01*
X1538096Y-1819196D01*
X1544296Y-1821196D01*
X1548397Y-1825295D01*
X1550397Y-1831496D01*
X1550397Y-1833496D01*
X1548397Y-1839596D01*
X1544296Y-1843696D01*
X1536096Y-1845796D01*
X1525897Y-1845796D01*
X1515596Y-1843696D01*
X1509497Y-1839596D01*
X1507497Y-1833496D01*
X1507497Y-1829396D01*
X1509497Y-1823296D01*
X1513596Y-1821196D01*
X1354798Y-1829295D02*
G01*
X1350698Y-1831395D01*
X1346598Y-1835495D01*
X1344597Y-1839495D01*
X1344597Y-1847696D01*
X1346598Y-1851795D01*
X1350698Y-1855895D01*
X1354798Y-1857995D01*
X1360997Y-1859996D01*
X1371198Y-1859996D01*
X1377298Y-1857995D01*
X1381397Y-1855895D01*
X1385497Y-1851795D01*
X1387497Y-1847696D01*
X1387497Y-1839495D01*
X1385497Y-1835495D01*
X1381397Y-1831395D01*
X1377298Y-1829295D01*
X1352798Y-1815796D02*
G01*
X1350698Y-1811696D01*
X1344597Y-1805596D01*
X1387497Y-1805596D01*
X1344597Y-1767496D02*
G01*
X1344597Y-1787995D01*
X1362997Y-1789996D01*
X1360997Y-1787995D01*
X1358897Y-1781896D01*
X1358897Y-1775695D01*
X1360997Y-1769596D01*
X1364997Y-1765495D01*
X1371198Y-1763496D01*
X1375298Y-1763496D01*
X1381397Y-1765495D01*
X1385497Y-1769596D01*
X1387497Y-1775695D01*
X1387497Y-1781896D01*
X1385497Y-1787995D01*
X1383497Y-1789996D01*
X1379398Y-1792096D01*
X280700Y-1909796D02*
G01*
X278600Y-1905695D01*
X274499Y-1901595D01*
X270500Y-1899596D01*
X262300Y-1899596D01*
X258200Y-1901595D01*
X254099Y-1905695D01*
X251999Y-1909796D01*
X250000Y-1915996D01*
X250000Y-1926196D01*
X251999Y-1932296D01*
X254099Y-1936395D01*
X258200Y-1940495D01*
X262300Y-1942496D01*
X270500Y-1942496D01*
X274499Y-1940495D01*
X278600Y-1936395D01*
X280700Y-1932296D01*
X296199Y-1909796D02*
G01*
X296199Y-1907795D01*
X298299Y-1903696D01*
X300300Y-1901595D01*
X304400Y-1899596D01*
X312600Y-1899596D01*
X316700Y-1901595D01*
X318699Y-1903696D01*
X320799Y-1907795D01*
X320799Y-1911896D01*
X318699Y-1915996D01*
X314600Y-1922096D01*
X294200Y-1942496D01*
X322800Y-1942496D01*
X348600Y-1899596D02*
G01*
X342500Y-1901595D01*
X338400Y-1907795D01*
X336300Y-1917995D01*
X336300Y-1924095D01*
X338400Y-1934396D01*
X342500Y-1940495D01*
X348600Y-1942496D01*
X352699Y-1942496D01*
X358800Y-1940495D01*
X362899Y-1934396D01*
X365000Y-1924095D01*
X365000Y-1917995D01*
X362899Y-1907795D01*
X358800Y-1901595D01*
X352699Y-1899596D01*
X348600Y-1899596D01*
X230199Y-1815695D02*
G01*
X234299Y-1813595D01*
X238400Y-1809495D01*
X240399Y-1805495D01*
X240399Y-1797296D01*
X238400Y-1793195D01*
X234299Y-1789095D01*
X230199Y-1786995D01*
X224000Y-1784996D01*
X213800Y-1784996D01*
X207699Y-1786995D01*
X203600Y-1789095D01*
X199499Y-1793195D01*
X197500Y-1797296D01*
X197500Y-1805495D01*
X199499Y-1809495D01*
X203600Y-1813595D01*
X207699Y-1815695D01*
X230199Y-1831196D02*
G01*
X232199Y-1831196D01*
X236300Y-1833296D01*
X238400Y-1835295D01*
X240399Y-1839396D01*
X240399Y-1847595D01*
X238400Y-1851696D01*
X236300Y-1853696D01*
X232199Y-1855796D01*
X228099Y-1855796D01*
X224000Y-1853696D01*
X217899Y-1849596D01*
X197500Y-1829196D01*
X197500Y-1857795D01*
X240399Y-1895895D02*
G01*
X240399Y-1875396D01*
X221999Y-1873395D01*
X224000Y-1875396D01*
X226100Y-1881496D01*
X226100Y-1887696D01*
X224000Y-1893796D01*
X220000Y-1897896D01*
X213800Y-1899996D01*
X209699Y-1899996D01*
X203600Y-1897896D01*
X199499Y-1893796D01*
X197500Y-1887696D01*
X197500Y-1881496D01*
X199499Y-1875396D01*
X201500Y-1873395D01*
X205599Y-1871296D01*
X405198Y-1815695D02*
G01*
X409299Y-1813595D01*
X413398Y-1809495D01*
X415399Y-1805495D01*
X415399Y-1797296D01*
X413398Y-1793195D01*
X409299Y-1789095D01*
X405198Y-1786995D01*
X398998Y-1784996D01*
X388798Y-1784996D01*
X382698Y-1786995D01*
X378598Y-1789095D01*
X374499Y-1793195D01*
X372498Y-1797296D01*
X372498Y-1805495D01*
X374499Y-1809495D01*
X378598Y-1813595D01*
X382698Y-1815695D01*
X405198Y-1831196D02*
G01*
X407199Y-1831196D01*
X411298Y-1833296D01*
X413398Y-1835295D01*
X415399Y-1839396D01*
X415399Y-1847595D01*
X413398Y-1851696D01*
X411298Y-1853696D01*
X407199Y-1855796D01*
X403099Y-1855796D01*
X398998Y-1853696D01*
X392899Y-1849596D01*
X372498Y-1829196D01*
X372498Y-1857795D01*
X409299Y-1895895D02*
G01*
X413398Y-1893796D01*
X415399Y-1887696D01*
X415399Y-1883595D01*
X413398Y-1877496D01*
X407199Y-1873395D01*
X396999Y-1871296D01*
X386799Y-1871296D01*
X378598Y-1873395D01*
X374499Y-1877496D01*
X372498Y-1883595D01*
X372498Y-1885596D01*
X374499Y-1891795D01*
X378598Y-1895895D01*
X384699Y-1897896D01*
X386799Y-1897896D01*
X392899Y-1895895D01*
X396999Y-1891795D01*
X398998Y-1885596D01*
X398998Y-1883595D01*
X396999Y-1877496D01*
X392899Y-1873395D01*
X386799Y-1871296D01*
X1430699Y-2294800D02*
G01*
X1428599Y-2290700D01*
X1424499Y-2286599D01*
X1420500Y-2284600D01*
X1412299Y-2284600D01*
X1408199Y-2286599D01*
X1404099Y-2290700D01*
X1401999Y-2294800D01*
X1400000Y-2300999D01*
X1400000Y-2311199D01*
X1401999Y-2317300D01*
X1404099Y-2321399D01*
X1408199Y-2325500D01*
X1412299Y-2327500D01*
X1420500Y-2327500D01*
X1424499Y-2325500D01*
X1428599Y-2321399D01*
X1430699Y-2317300D01*
X1446199Y-2294800D02*
G01*
X1446199Y-2292800D01*
X1448299Y-2288699D01*
X1450299Y-2286599D01*
X1454399Y-2284600D01*
X1462600Y-2284600D01*
X1466700Y-2286599D01*
X1468699Y-2288699D01*
X1470799Y-2292800D01*
X1470799Y-2296900D01*
X1468699Y-2300999D01*
X1464600Y-2307100D01*
X1444200Y-2327500D01*
X1472799Y-2327500D01*
X1515000Y-2284600D02*
G01*
X1494499Y-2327500D01*
X1486300Y-2284600D02*
G01*
X1515000Y-2284600D01*
X1550699Y-2034800D02*
G01*
X1548599Y-2030700D01*
X1544499Y-2026599D01*
X1540500Y-2024600D01*
X1532299Y-2024600D01*
X1528199Y-2026599D01*
X1524099Y-2030700D01*
X1521999Y-2034800D01*
X1520000Y-2040999D01*
X1520000Y-2051199D01*
X1521999Y-2057300D01*
X1524099Y-2061399D01*
X1528199Y-2065500D01*
X1532299Y-2067500D01*
X1540500Y-2067500D01*
X1544499Y-2065500D01*
X1548599Y-2061399D01*
X1550699Y-2057300D01*
X1568299Y-2024600D02*
G01*
X1590799Y-2024600D01*
X1578500Y-2040999D01*
X1584600Y-2040999D01*
X1588699Y-2043000D01*
X1590799Y-2045000D01*
X1592799Y-2051199D01*
X1592799Y-2055300D01*
X1590799Y-2061399D01*
X1586700Y-2065500D01*
X1580500Y-2067500D01*
X1574399Y-2067500D01*
X1568299Y-2065500D01*
X1566199Y-2063499D01*
X1564200Y-2059400D01*
X1618599Y-2024600D02*
G01*
X1612500Y-2026599D01*
X1608400Y-2032800D01*
X1606300Y-2043000D01*
X1606300Y-2049099D01*
X1608400Y-2059400D01*
X1612500Y-2065500D01*
X1618599Y-2067500D01*
X1622700Y-2067500D01*
X1628800Y-2065500D01*
X1632899Y-2059400D01*
X1635000Y-2049099D01*
X1635000Y-2043000D01*
X1632899Y-2032800D01*
X1628800Y-2026599D01*
X1622700Y-2024600D01*
X1618599Y-2024600D01*
X1134297Y-2110196D02*
G01*
X1136397Y-2114295D01*
X1140497Y-2118395D01*
X1144498Y-2120396D01*
X1152698Y-2120396D01*
X1156797Y-2118395D01*
X1160897Y-2114295D01*
X1162997Y-2110196D01*
X1164997Y-2103996D01*
X1164997Y-2093796D01*
X1162997Y-2087696D01*
X1160897Y-2083595D01*
X1156797Y-2079495D01*
X1152698Y-2077496D01*
X1144498Y-2077496D01*
X1140497Y-2079495D01*
X1136397Y-2083595D01*
X1134297Y-2087696D01*
X1116697Y-2120396D02*
G01*
X1094197Y-2120396D01*
X1106498Y-2103996D01*
X1100397Y-2103996D01*
X1096297Y-2101995D01*
X1094197Y-2099996D01*
X1092197Y-2093796D01*
X1092197Y-2089695D01*
X1094197Y-2083595D01*
X1098298Y-2079495D01*
X1104498Y-2077496D01*
X1110598Y-2077496D01*
X1116697Y-2079495D01*
X1118797Y-2081496D01*
X1120798Y-2085596D01*
X1054098Y-2120396D02*
G01*
X1074597Y-2120396D01*
X1076598Y-2101995D01*
X1074597Y-2103996D01*
X1068497Y-2106095D01*
X1062298Y-2106095D01*
X1056198Y-2103996D01*
X1052097Y-2099996D01*
X1049997Y-2093796D01*
X1049997Y-2089695D01*
X1052097Y-2083595D01*
X1056198Y-2079495D01*
X1062298Y-2077496D01*
X1068497Y-2077496D01*
X1074597Y-2079495D01*
X1076598Y-2081496D01*
X1078698Y-2085596D01*
X1284296Y-2360194D02*
G01*
X1286396Y-2364295D01*
X1290496Y-2368395D01*
X1294497Y-2370394D01*
X1302696Y-2370394D01*
X1306796Y-2368395D01*
X1310897Y-2364295D01*
X1312996Y-2360194D01*
X1314997Y-2353995D01*
X1314997Y-2343795D01*
X1312996Y-2337694D01*
X1310897Y-2333595D01*
X1306796Y-2329495D01*
X1302696Y-2327494D01*
X1294497Y-2327494D01*
X1290496Y-2329495D01*
X1286396Y-2333595D01*
X1284296Y-2337694D01*
X1266697Y-2370394D02*
G01*
X1244197Y-2370394D01*
X1256496Y-2353995D01*
X1250397Y-2353995D01*
X1246297Y-2351995D01*
X1244197Y-2349994D01*
X1242196Y-2343795D01*
X1242196Y-2339695D01*
X1244197Y-2333595D01*
X1248297Y-2329495D01*
X1254497Y-2327494D01*
X1260596Y-2327494D01*
X1266697Y-2329495D01*
X1268797Y-2331495D01*
X1270797Y-2335594D01*
X1204097Y-2364295D02*
G01*
X1206197Y-2368395D01*
X1212296Y-2370394D01*
X1216396Y-2370394D01*
X1222497Y-2368395D01*
X1226597Y-2362195D01*
X1228697Y-2351995D01*
X1228697Y-2341795D01*
X1226597Y-2333595D01*
X1222497Y-2329495D01*
X1216396Y-2327494D01*
X1214396Y-2327494D01*
X1208197Y-2329495D01*
X1204097Y-2333595D01*
X1202097Y-2339695D01*
X1202097Y-2341795D01*
X1204097Y-2347894D01*
X1208197Y-2351995D01*
X1214396Y-2353995D01*
X1216396Y-2353995D01*
X1222497Y-2351995D01*
X1226597Y-2347894D01*
X1228697Y-2341795D01*
X484800Y-1989299D02*
G01*
X480700Y-1991399D01*
X476599Y-1995500D01*
X474600Y-1999499D01*
X474600Y-2007699D01*
X476599Y-2011799D01*
X480700Y-2015900D01*
X484800Y-2018000D01*
X490999Y-2020000D01*
X501199Y-2020000D01*
X507300Y-2018000D01*
X511399Y-2015900D01*
X515500Y-2011799D01*
X517500Y-2007699D01*
X517500Y-1999499D01*
X515500Y-1995500D01*
X511399Y-1991399D01*
X507300Y-1989299D01*
X474600Y-1971700D02*
G01*
X474600Y-1949200D01*
X490999Y-1961500D01*
X490999Y-1955399D01*
X493000Y-1951300D01*
X495000Y-1949200D01*
X501199Y-1947199D01*
X505300Y-1947199D01*
X511399Y-1949200D01*
X515500Y-1953299D01*
X517500Y-1959499D01*
X517500Y-1965599D01*
X515500Y-1971700D01*
X513499Y-1973800D01*
X509400Y-1975799D01*
X474600Y-1905000D02*
G01*
X517500Y-1925500D01*
X474600Y-1933699D02*
G01*
X474600Y-1905000D01*
X710702Y-2249791D02*
G01*
X708602Y-2245691D01*
X704502Y-2241590D01*
X700502Y-2239591D01*
X692301Y-2239591D01*
X688202Y-2241590D01*
X684101Y-2245691D01*
X682002Y-2249791D01*
X680001Y-2255990D01*
X680001Y-2266190D01*
X682002Y-2272291D01*
X684101Y-2276390D01*
X688202Y-2280491D01*
X692301Y-2282491D01*
X700502Y-2282491D01*
X704502Y-2280491D01*
X708602Y-2276390D01*
X710702Y-2272291D01*
X728301Y-2239591D02*
G01*
X750801Y-2239591D01*
X738501Y-2255990D01*
X744601Y-2255990D01*
X748701Y-2257991D01*
X750801Y-2259991D01*
X752802Y-2266190D01*
X752802Y-2270291D01*
X750801Y-2276390D01*
X746702Y-2280491D01*
X740502Y-2282491D01*
X734402Y-2282491D01*
X728301Y-2280491D01*
X726201Y-2278490D01*
X724202Y-2274391D01*
X776502Y-2239591D02*
G01*
X770402Y-2241590D01*
X768401Y-2245691D01*
X768401Y-2249791D01*
X770402Y-2253890D01*
X774502Y-2255990D01*
X782701Y-2257991D01*
X788801Y-2259991D01*
X792902Y-2264090D01*
X795002Y-2268191D01*
X795002Y-2274391D01*
X792902Y-2278490D01*
X790901Y-2280491D01*
X784701Y-2282491D01*
X776502Y-2282491D01*
X770402Y-2280491D01*
X768401Y-2278490D01*
X766301Y-2274391D01*
X766301Y-2268191D01*
X768401Y-2264090D01*
X772502Y-2259991D01*
X778602Y-2257991D01*
X786801Y-2255990D01*
X790901Y-2253890D01*
X792902Y-2249791D01*
X792902Y-2245691D01*
X790901Y-2241590D01*
X784701Y-2239591D01*
X776502Y-2239591D01*
X894791Y-2119288D02*
G01*
X890691Y-2121388D01*
X886592Y-2125488D01*
X884592Y-2129488D01*
X884592Y-2137689D01*
X886592Y-2141788D01*
X890691Y-2145889D01*
X894791Y-2147988D01*
X900991Y-2149989D01*
X911192Y-2149989D01*
X917291Y-2147988D01*
X921391Y-2145889D01*
X925492Y-2141788D01*
X927492Y-2137689D01*
X927492Y-2129488D01*
X925492Y-2125488D01*
X921391Y-2121388D01*
X917291Y-2119288D01*
X884592Y-2101689D02*
G01*
X884592Y-2079189D01*
X900991Y-2091489D01*
X900991Y-2085389D01*
X902992Y-2081289D01*
X904992Y-2079189D01*
X911192Y-2077188D01*
X915291Y-2077188D01*
X921391Y-2079189D01*
X925492Y-2083288D01*
X927492Y-2089488D01*
X927492Y-2095589D01*
X925492Y-2101689D01*
X923491Y-2103789D01*
X919391Y-2105788D01*
X898891Y-2037089D02*
G01*
X904992Y-2039088D01*
X909092Y-2043189D01*
X911192Y-2049389D01*
X911192Y-2051388D01*
X909092Y-2057489D01*
X904992Y-2061588D01*
X898891Y-2063688D01*
X896891Y-2063688D01*
X890691Y-2061588D01*
X886592Y-2057489D01*
X884592Y-2051388D01*
X884592Y-2049389D01*
X886592Y-2043189D01*
X890691Y-2039088D01*
X898891Y-2037089D01*
X909092Y-2037089D01*
X919391Y-2039088D01*
X925492Y-2043189D01*
X927492Y-2049389D01*
X927492Y-2053488D01*
X925492Y-2059589D01*
X921391Y-2061588D01*
X910500Y-1594600D02*
G01*
X910500Y-1627300D01*
X908400Y-1633499D01*
X906400Y-1635500D01*
X902299Y-1637500D01*
X898199Y-1637500D01*
X894099Y-1635500D01*
X891999Y-1633499D01*
X890000Y-1627300D01*
X890000Y-1623200D01*
X926000Y-1604800D02*
G01*
X926000Y-1602800D01*
X928000Y-1598699D01*
X930100Y-1596599D01*
X934200Y-1594600D01*
X942399Y-1594600D01*
X946499Y-1596599D01*
X948500Y-1598699D01*
X950500Y-1602800D01*
X950500Y-1606900D01*
X948500Y-1610999D01*
X944399Y-1617100D01*
X923999Y-1637500D01*
X952600Y-1637500D01*
X1454597Y-1844996D02*
G01*
X1497497Y-1844996D01*
X1454597Y-1844996D02*
G01*
X1454597Y-1826595D01*
X1456598Y-1820495D01*
X1458698Y-1818395D01*
X1462798Y-1816395D01*
X1466898Y-1816395D01*
X1470997Y-1818395D01*
X1472997Y-1820495D01*
X1474997Y-1826595D01*
X1474997Y-1844996D01*
X1474997Y-1830695D02*
G01*
X1497497Y-1816395D01*
X1454597Y-1792595D02*
G01*
X1456598Y-1798796D01*
X1460698Y-1800796D01*
X1464798Y-1800796D01*
X1468897Y-1798796D01*
X1470997Y-1794695D01*
X1472997Y-1786496D01*
X1474997Y-1780396D01*
X1479098Y-1776296D01*
X1483198Y-1774196D01*
X1489398Y-1774196D01*
X1493497Y-1776296D01*
X1495497Y-1778296D01*
X1497497Y-1784495D01*
X1497497Y-1792595D01*
X1495497Y-1798796D01*
X1493497Y-1800796D01*
X1489398Y-1802896D01*
X1483198Y-1802896D01*
X1479098Y-1800796D01*
X1474997Y-1796696D01*
X1472997Y-1790596D01*
X1470997Y-1782395D01*
X1468897Y-1778296D01*
X1464798Y-1776296D01*
X1460698Y-1776296D01*
X1456598Y-1778296D01*
X1454597Y-1784495D01*
X1454597Y-1792595D01*
X360399Y-1789996D02*
G01*
X317498Y-1789996D01*
X360399Y-1789996D02*
G01*
X360399Y-1808395D01*
X358398Y-1814495D01*
X356298Y-1816595D01*
X352199Y-1818595D01*
X348099Y-1818595D01*
X343998Y-1816595D01*
X341999Y-1814495D01*
X339998Y-1808395D01*
X339998Y-1789996D01*
X339998Y-1804295D02*
G01*
X317498Y-1818595D01*
X352199Y-1832096D02*
G01*
X354299Y-1836196D01*
X360399Y-1842395D01*
X317498Y-1842395D01*
X360399Y-1868096D02*
G01*
X358398Y-1861995D01*
X352199Y-1857896D01*
X341999Y-1855895D01*
X335898Y-1855895D01*
X325599Y-1857896D01*
X319499Y-1861995D01*
X317498Y-1868096D01*
X317498Y-1872195D01*
X319499Y-1878395D01*
X325599Y-1882496D01*
X335898Y-1884495D01*
X341999Y-1884495D01*
X352199Y-1882496D01*
X358398Y-1878395D01*
X360399Y-1872195D01*
X360399Y-1868096D01*
X300399Y-1789996D02*
G01*
X257498Y-1789996D01*
X300399Y-1789996D02*
G01*
X300399Y-1808395D01*
X298398Y-1814495D01*
X296298Y-1816595D01*
X292199Y-1818595D01*
X288099Y-1818595D01*
X283998Y-1816595D01*
X281999Y-1814495D01*
X279998Y-1808395D01*
X279998Y-1789996D01*
X279998Y-1804295D02*
G01*
X257498Y-1818595D01*
X292199Y-1832096D02*
G01*
X294299Y-1836196D01*
X300399Y-1842395D01*
X257498Y-1842395D01*
X292199Y-1855895D02*
G01*
X294299Y-1859996D01*
X300399Y-1866095D01*
X257498Y-1866095D01*
X1399597Y-1859996D02*
G01*
X1442497Y-1859996D01*
X1399597Y-1859996D02*
G01*
X1399597Y-1841595D01*
X1401598Y-1835495D01*
X1403698Y-1833395D01*
X1407798Y-1831395D01*
X1411898Y-1831395D01*
X1415997Y-1833395D01*
X1417997Y-1835495D01*
X1419997Y-1841595D01*
X1419997Y-1859996D01*
X1419997Y-1845695D02*
G01*
X1442497Y-1831395D01*
X1407798Y-1817896D02*
G01*
X1405698Y-1813796D01*
X1399597Y-1807595D01*
X1442497Y-1807595D01*
X1399597Y-1783895D02*
G01*
X1401598Y-1789996D01*
X1405698Y-1792096D01*
X1409798Y-1792096D01*
X1413897Y-1789996D01*
X1415997Y-1785996D01*
X1417997Y-1777795D01*
X1419997Y-1771595D01*
X1424098Y-1767496D01*
X1428198Y-1765495D01*
X1434398Y-1765495D01*
X1438497Y-1767496D01*
X1440497Y-1769596D01*
X1442497Y-1775695D01*
X1442497Y-1783895D01*
X1440497Y-1789996D01*
X1438497Y-1792096D01*
X1434398Y-1794095D01*
X1428198Y-1794095D01*
X1424098Y-1792096D01*
X1419997Y-1787995D01*
X1417997Y-1781896D01*
X1415997Y-1773696D01*
X1413897Y-1769596D01*
X1409798Y-1767496D01*
X1405698Y-1767496D01*
X1401598Y-1769596D01*
X1399597Y-1775695D01*
X1399597Y-1783895D01*
X829993Y-2169594D02*
G01*
X829993Y-2212494D01*
X829993Y-2169594D02*
G01*
X848392Y-2169594D01*
X854493Y-2171595D01*
X856593Y-2173694D01*
X858593Y-2177795D01*
X858593Y-2181894D01*
X856593Y-2185994D01*
X854493Y-2187995D01*
X848392Y-2189994D01*
X829993Y-2189994D01*
X844292Y-2189994D02*
G01*
X858593Y-2212494D01*
X874192Y-2179794D02*
G01*
X874192Y-2177795D01*
X876193Y-2173694D01*
X878293Y-2171595D01*
X882393Y-2169594D01*
X890492Y-2169594D01*
X894593Y-2171595D01*
X896692Y-2173694D01*
X898693Y-2177795D01*
X898693Y-2181894D01*
X896692Y-2185994D01*
X892592Y-2192094D01*
X872093Y-2212494D01*
X900793Y-2212494D01*
X924493Y-2169594D02*
G01*
X918392Y-2171595D01*
X916292Y-2175695D01*
X916292Y-2179794D01*
X918392Y-2183895D01*
X922493Y-2185994D01*
X930592Y-2187995D01*
X936792Y-2189994D01*
X940892Y-2194095D01*
X942893Y-2198195D01*
X942893Y-2204394D01*
X940892Y-2208494D01*
X938792Y-2210495D01*
X932692Y-2212494D01*
X924493Y-2212494D01*
X918392Y-2210495D01*
X916292Y-2208494D01*
X914292Y-2204394D01*
X914292Y-2198195D01*
X916292Y-2194095D01*
X920393Y-2189994D01*
X926493Y-2187995D01*
X934692Y-2185994D01*
X938792Y-2183895D01*
X940892Y-2179794D01*
X940892Y-2175695D01*
X938792Y-2171595D01*
X932692Y-2169594D01*
X924493Y-2169594D01*
X249998Y-1954594D02*
G01*
X249998Y-1997494D01*
X249998Y-1954594D02*
G01*
X268398Y-1954594D01*
X274497Y-1956595D01*
X276597Y-1958694D01*
X278598Y-1962795D01*
X278598Y-1966894D01*
X276597Y-1970994D01*
X274497Y-1972995D01*
X268398Y-1974994D01*
X249998Y-1974994D01*
X264297Y-1974994D02*
G01*
X278598Y-1997494D01*
X294198Y-1964794D02*
G01*
X294198Y-1962795D01*
X296197Y-1958694D01*
X298297Y-1956595D01*
X302397Y-1954594D01*
X310497Y-1954594D01*
X314598Y-1956595D01*
X316698Y-1958694D01*
X318697Y-1962795D01*
X318697Y-1966894D01*
X316698Y-1970994D01*
X312597Y-1977094D01*
X292098Y-1997494D01*
X320797Y-1997494D01*
X360898Y-1968895D02*
G01*
X358798Y-1974994D01*
X354697Y-1979095D01*
X348598Y-1981194D01*
X346498Y-1981194D01*
X340398Y-1979095D01*
X336298Y-1974994D01*
X334297Y-1968895D01*
X334297Y-1966894D01*
X336298Y-1960695D01*
X340398Y-1956595D01*
X346498Y-1954594D01*
X348598Y-1954594D01*
X354697Y-1956595D01*
X358798Y-1960695D01*
X360898Y-1968895D01*
X360898Y-1979095D01*
X358798Y-1989394D01*
X354697Y-1995495D01*
X348598Y-1997494D01*
X344497Y-1997494D01*
X338398Y-1995495D01*
X336298Y-1991395D01*
X394596Y-2609998D02*
G01*
X437496Y-2609998D01*
X394596Y-2609998D02*
G01*
X394596Y-2591599D01*
X396597Y-2585499D01*
X398697Y-2583398D01*
X402797Y-2581399D01*
X406896Y-2581399D01*
X410997Y-2583398D01*
X412997Y-2585499D01*
X414996Y-2591599D01*
X414996Y-2609998D01*
X414996Y-2595698D02*
G01*
X437496Y-2581399D01*
X394596Y-2563798D02*
G01*
X394596Y-2541298D01*
X410997Y-2553499D01*
X410997Y-2547399D01*
X412997Y-2543299D01*
X414996Y-2541298D01*
X421197Y-2539198D01*
X425297Y-2539198D01*
X431397Y-2541298D01*
X435497Y-2545399D01*
X437496Y-2551498D01*
X437496Y-2557599D01*
X435497Y-2563798D01*
X433497Y-2565799D01*
X429396Y-2567899D01*
X394596Y-2513499D02*
G01*
X396597Y-2519598D01*
X402797Y-2523699D01*
X412997Y-2525698D01*
X419097Y-2525698D01*
X429396Y-2523699D01*
X435497Y-2519598D01*
X437496Y-2513499D01*
X437496Y-2509398D01*
X435497Y-2503198D01*
X429396Y-2499099D01*
X419097Y-2497098D01*
X412997Y-2497098D01*
X402797Y-2499099D01*
X396597Y-2503198D01*
X394596Y-2509398D01*
X394596Y-2513499D01*
X569994Y-2509591D02*
G01*
X569994Y-2552491D01*
X569994Y-2509591D02*
G01*
X588395Y-2509591D01*
X594495Y-2511590D01*
X596595Y-2513690D01*
X598595Y-2517791D01*
X598595Y-2521891D01*
X596595Y-2525990D01*
X594495Y-2527991D01*
X588395Y-2529991D01*
X569994Y-2529991D01*
X584295Y-2529991D02*
G01*
X598595Y-2552491D01*
X616194Y-2509591D02*
G01*
X638694Y-2509591D01*
X626494Y-2525990D01*
X632595Y-2525990D01*
X636694Y-2527991D01*
X638694Y-2529991D01*
X640794Y-2536190D01*
X640794Y-2540291D01*
X638694Y-2546390D01*
X634594Y-2550491D01*
X628494Y-2552491D01*
X622395Y-2552491D01*
X616194Y-2550491D01*
X614194Y-2548490D01*
X612094Y-2544391D01*
X654295Y-2517791D02*
G01*
X658395Y-2515691D01*
X664495Y-2509591D01*
X664495Y-2552491D01*
X754596Y-2529994D02*
G01*
X797496Y-2529994D01*
X754596Y-2529994D02*
G01*
X754596Y-2511595D01*
X756595Y-2505495D01*
X758695Y-2503395D01*
X762795Y-2501395D01*
X766895Y-2501395D01*
X770995Y-2503395D01*
X772996Y-2505495D01*
X774996Y-2511595D01*
X774996Y-2529994D01*
X774996Y-2515695D02*
G01*
X797496Y-2501395D01*
X754596Y-2483795D02*
G01*
X754596Y-2461295D01*
X770995Y-2473494D01*
X770995Y-2467395D01*
X772996Y-2463294D01*
X774996Y-2461295D01*
X781195Y-2459194D01*
X785295Y-2459194D01*
X791396Y-2461295D01*
X795496Y-2465394D01*
X797496Y-2471495D01*
X797496Y-2477595D01*
X795496Y-2483795D01*
X793495Y-2485794D01*
X789395Y-2487894D01*
X764795Y-2443694D02*
G01*
X762795Y-2443694D01*
X758695Y-2441595D01*
X756595Y-2439594D01*
X754596Y-2435495D01*
X754596Y-2427294D01*
X756595Y-2423195D01*
X758695Y-2421194D01*
X762795Y-2419095D01*
X766895Y-2419095D01*
X770995Y-2421194D01*
X777096Y-2425295D01*
X797496Y-2445695D01*
X797496Y-2417094D01*
X1519997Y-2149594D02*
G01*
X1519997Y-2192494D01*
X1519997Y-2149594D02*
G01*
X1538397Y-2149594D01*
X1544498Y-2151595D01*
X1546598Y-2153694D01*
X1548598Y-2157795D01*
X1548598Y-2161894D01*
X1546598Y-2165994D01*
X1544498Y-2167995D01*
X1538397Y-2169994D01*
X1519997Y-2169994D01*
X1534297Y-2169994D02*
G01*
X1548598Y-2192494D01*
X1566198Y-2149594D02*
G01*
X1588698Y-2149594D01*
X1576498Y-2165994D01*
X1582597Y-2165994D01*
X1586697Y-2167995D01*
X1588698Y-2169994D01*
X1590798Y-2176194D01*
X1590798Y-2180295D01*
X1588698Y-2186395D01*
X1584597Y-2190495D01*
X1578497Y-2192494D01*
X1572398Y-2192494D01*
X1566198Y-2190495D01*
X1564197Y-2188494D01*
X1562097Y-2184394D01*
X1608397Y-2149594D02*
G01*
X1630897Y-2149594D01*
X1618598Y-2165994D01*
X1624697Y-2165994D01*
X1628797Y-2167995D01*
X1630897Y-2169994D01*
X1632897Y-2176194D01*
X1632897Y-2180295D01*
X1630897Y-2186395D01*
X1626797Y-2190495D01*
X1620598Y-2192494D01*
X1614498Y-2192494D01*
X1608397Y-2190495D01*
X1606297Y-2188494D01*
X1604297Y-2184394D01*
X1520000Y-1974600D02*
G01*
X1520000Y-2017500D01*
X1520000Y-1974600D02*
G01*
X1538400Y-1974600D01*
X1544499Y-1976599D01*
X1546599Y-1978699D01*
X1548599Y-1982800D01*
X1548599Y-1986900D01*
X1546599Y-1990999D01*
X1544499Y-1993000D01*
X1538400Y-1995000D01*
X1520000Y-1995000D01*
X1534300Y-1995000D02*
G01*
X1548599Y-2017500D01*
X1566199Y-1974600D02*
G01*
X1588699Y-1974600D01*
X1576499Y-1990999D01*
X1582600Y-1990999D01*
X1586700Y-1993000D01*
X1588699Y-1995000D01*
X1590799Y-2001199D01*
X1590799Y-2005300D01*
X1588699Y-2011399D01*
X1584600Y-2015500D01*
X1578500Y-2017500D01*
X1572399Y-2017500D01*
X1566199Y-2015500D01*
X1564200Y-2013499D01*
X1562100Y-2009400D01*
X1624700Y-1974600D02*
G01*
X1604300Y-2003200D01*
X1635000Y-2003200D01*
X1624700Y-1974600D02*
G01*
X1624700Y-2017500D01*
X1520000Y-2094600D02*
G01*
X1520000Y-2137500D01*
X1520000Y-2094600D02*
G01*
X1538400Y-2094600D01*
X1544499Y-2096599D01*
X1546599Y-2098699D01*
X1548599Y-2102800D01*
X1548599Y-2106900D01*
X1546599Y-2110999D01*
X1544499Y-2113000D01*
X1538400Y-2115000D01*
X1520000Y-2115000D01*
X1534300Y-2115000D02*
G01*
X1548599Y-2137500D01*
X1566199Y-2094600D02*
G01*
X1588699Y-2094600D01*
X1576499Y-2110999D01*
X1582600Y-2110999D01*
X1586700Y-2113000D01*
X1588699Y-2115000D01*
X1590799Y-2121199D01*
X1590799Y-2125300D01*
X1588699Y-2131399D01*
X1584600Y-2135500D01*
X1578500Y-2137500D01*
X1572399Y-2137500D01*
X1566199Y-2135500D01*
X1564200Y-2133499D01*
X1562100Y-2129400D01*
X1628800Y-2094600D02*
G01*
X1608400Y-2094600D01*
X1606300Y-2113000D01*
X1608400Y-2110999D01*
X1614499Y-2108899D01*
X1620600Y-2108899D01*
X1626800Y-2110999D01*
X1630900Y-2115000D01*
X1632899Y-2121199D01*
X1632899Y-2125300D01*
X1630900Y-2131399D01*
X1626800Y-2135500D01*
X1620600Y-2137500D01*
X1614499Y-2137500D01*
X1608400Y-2135500D01*
X1606300Y-2133499D01*
X1604300Y-2129400D01*
X1519997Y-1919596D02*
G01*
X1519997Y-1962496D01*
X1519997Y-1919596D02*
G01*
X1538397Y-1919596D01*
X1544497Y-1921595D01*
X1546597Y-1923696D01*
X1548596Y-1927795D01*
X1548596Y-1931896D01*
X1546597Y-1935996D01*
X1544497Y-1937995D01*
X1538397Y-1939996D01*
X1519997Y-1939996D01*
X1534296Y-1939996D02*
G01*
X1548596Y-1962496D01*
X1566197Y-1919596D02*
G01*
X1588697Y-1919596D01*
X1576496Y-1935996D01*
X1582596Y-1935996D01*
X1586697Y-1937995D01*
X1588697Y-1939996D01*
X1590797Y-1946196D01*
X1590797Y-1950295D01*
X1588697Y-1956395D01*
X1584597Y-1960495D01*
X1578496Y-1962496D01*
X1572397Y-1962496D01*
X1566197Y-1960495D01*
X1564197Y-1958496D01*
X1562097Y-1954396D01*
X1630897Y-1933895D02*
G01*
X1628797Y-1939996D01*
X1624696Y-1944095D01*
X1618596Y-1946196D01*
X1616496Y-1946196D01*
X1610397Y-1944095D01*
X1606297Y-1939996D01*
X1604296Y-1933895D01*
X1604296Y-1931896D01*
X1606297Y-1925695D01*
X1610397Y-1921595D01*
X1616496Y-1919596D01*
X1618596Y-1919596D01*
X1624696Y-1921595D01*
X1628797Y-1925695D01*
X1630897Y-1933895D01*
X1630897Y-1944095D01*
X1628797Y-1954396D01*
X1624696Y-1960495D01*
X1618596Y-1962496D01*
X1614497Y-1962496D01*
X1608397Y-1960495D01*
X1606297Y-1956395D01*
X419596Y-2019998D02*
G01*
X462496Y-2019998D01*
X419596Y-2019998D02*
G01*
X419596Y-2001597D01*
X421597Y-1995497D01*
X423697Y-1993398D01*
X427797Y-1991397D01*
X431896Y-1991397D01*
X435997Y-1993398D01*
X437997Y-1995497D01*
X439996Y-2001597D01*
X439996Y-2019998D01*
X439996Y-2005698D02*
G01*
X462496Y-1991397D01*
X419596Y-1957397D02*
G01*
X448197Y-1977898D01*
X448197Y-1947197D01*
X419596Y-1957397D02*
G01*
X462496Y-1957397D01*
X419596Y-1921397D02*
G01*
X421597Y-1927498D01*
X427797Y-1931597D01*
X437997Y-1933697D01*
X444097Y-1933697D01*
X454396Y-1931597D01*
X460497Y-1927498D01*
X462496Y-1921397D01*
X462496Y-1917298D01*
X460497Y-1911197D01*
X454396Y-1907098D01*
X444097Y-1904998D01*
X437997Y-1904998D01*
X427797Y-1907098D01*
X421597Y-1911197D01*
X419596Y-1917298D01*
X419596Y-1921397D01*
X254603Y-2179994D02*
G01*
X285302Y-2179994D01*
X291403Y-2177995D01*
X295502Y-2173895D01*
X297503Y-2167694D01*
X297503Y-2163595D01*
X295502Y-2157494D01*
X291403Y-2153395D01*
X285302Y-2151395D01*
X254603Y-2151395D01*
X262802Y-2137894D02*
G01*
X260702Y-2133795D01*
X254603Y-2127595D01*
X297503Y-2127595D01*
X485403Y-2329991D02*
G01*
X454702Y-2329991D01*
X448602Y-2331990D01*
X444502Y-2336091D01*
X442503Y-2342291D01*
X442503Y-2346390D01*
X444502Y-2352491D01*
X448602Y-2356590D01*
X454702Y-2358591D01*
X485403Y-2358591D01*
X485403Y-2392591D02*
G01*
X456802Y-2372091D01*
X456802Y-2402791D01*
X485403Y-2392591D02*
G01*
X442503Y-2392591D01*
X760403Y-1949998D02*
G01*
X729704Y-1949998D01*
X723604Y-1951997D01*
X719504Y-1956098D01*
X717503Y-1962298D01*
X717503Y-1966397D01*
X719504Y-1972498D01*
X723604Y-1976597D01*
X729704Y-1978598D01*
X760403Y-1978598D01*
X760403Y-2016698D02*
G01*
X760403Y-1996197D01*
X742004Y-1994198D01*
X744003Y-1996197D01*
X746104Y-2002397D01*
X746104Y-2008497D01*
X744003Y-2014598D01*
X740003Y-2018697D01*
X733804Y-2020797D01*
X729704Y-2020797D01*
X723604Y-2018697D01*
X719504Y-2014598D01*
X717503Y-2008497D01*
X717503Y-2002397D01*
X719504Y-1996197D01*
X721503Y-1994198D01*
X725603Y-1992098D01*
X1120399Y-1950000D02*
G01*
X1089700Y-1950000D01*
X1083599Y-1951999D01*
X1079499Y-1956100D01*
X1077500Y-1962300D01*
X1077500Y-1966399D01*
X1079499Y-1972500D01*
X1083599Y-1976599D01*
X1089700Y-1978600D01*
X1120399Y-1978600D01*
X1112200Y-1992100D02*
G01*
X1114300Y-1996199D01*
X1120399Y-2002399D01*
X1077500Y-2002399D01*
X1120399Y-2020000D02*
G01*
X1120399Y-2042500D01*
X1103999Y-2030199D01*
X1103999Y-2036300D01*
X1101999Y-2040399D01*
X1100000Y-2042500D01*
X1093800Y-2044499D01*
X1089700Y-2044499D01*
X1083599Y-2042500D01*
X1079499Y-2038400D01*
X1077500Y-2032199D01*
X1077500Y-2026100D01*
X1079499Y-2020000D01*
X1081499Y-2017899D01*
X1085600Y-2015900D01*
X640000Y-2085399D02*
G01*
X640000Y-2054699D01*
X638000Y-2048600D01*
X633899Y-2044499D01*
X627699Y-2042500D01*
X623600Y-2042500D01*
X617500Y-2044499D01*
X613400Y-2048600D01*
X611399Y-2054699D01*
X611399Y-2085399D01*
X597899Y-2077199D02*
G01*
X593800Y-2079299D01*
X587600Y-2085399D01*
X587600Y-2042500D01*
X549600Y-2079299D02*
G01*
X551599Y-2083400D01*
X557800Y-2085399D01*
X561900Y-2085399D01*
X568000Y-2083400D01*
X572100Y-2077199D01*
X574099Y-2066999D01*
X574099Y-2056799D01*
X572100Y-2048600D01*
X568000Y-2044499D01*
X561900Y-2042500D01*
X559800Y-2042500D01*
X553699Y-2044499D01*
X549600Y-2048600D01*
X547500Y-2054699D01*
X547500Y-2056799D01*
X549600Y-2062899D01*
X553699Y-2066999D01*
X559800Y-2069000D01*
X561900Y-2069000D01*
X568000Y-2066999D01*
X572100Y-2062899D01*
X574099Y-2056799D01*
X1110399Y-2145000D02*
G01*
X1079700Y-2145000D01*
X1073599Y-2146999D01*
X1069499Y-2151100D01*
X1067500Y-2157300D01*
X1067500Y-2161399D01*
X1069499Y-2167500D01*
X1073599Y-2171599D01*
X1079700Y-2173600D01*
X1110399Y-2173600D01*
X1102200Y-2187100D02*
G01*
X1104300Y-2191199D01*
X1110399Y-2197399D01*
X1067500Y-2197399D01*
X1110399Y-2239499D02*
G01*
X1067500Y-2219000D01*
X1110399Y-2210900D02*
G01*
X1110399Y-2239499D01*
X2940000Y-1559600D02*
G01*
X2940000Y-1602500D01*
X2940000Y-1559600D02*
G01*
X2958400Y-1559600D01*
X2964499Y-1561599D01*
X2966599Y-1563699D01*
X2968599Y-1567800D01*
X2968599Y-1571900D01*
X2966599Y-1575999D01*
X2964499Y-1578000D01*
X2958400Y-1580000D01*
X2940000Y-1580000D01*
X2954300Y-1580000D02*
G01*
X2968599Y-1602500D01*
X2982100Y-1567800D02*
G01*
X2986199Y-1565700D01*
X2992399Y-1559600D01*
X2992399Y-1602500D01*
X1965000Y-1159600D02*
G01*
X1965000Y-1202500D01*
X1965000Y-1159600D02*
G01*
X1983400Y-1159600D01*
X1989499Y-1161599D01*
X1991599Y-1163699D01*
X1993599Y-1167800D01*
X1993599Y-1171900D01*
X1991599Y-1175999D01*
X1989499Y-1178000D01*
X1983400Y-1180000D01*
X1965000Y-1180000D01*
X1979300Y-1180000D02*
G01*
X1993599Y-1202500D01*
X2009200Y-1169800D02*
G01*
X2009200Y-1167800D01*
X2011199Y-1163699D01*
X2013299Y-1161599D01*
X2017399Y-1159600D01*
X2025500Y-1159600D01*
X2029600Y-1161599D01*
X2031700Y-1163699D01*
X2033699Y-1167800D01*
X2033699Y-1171900D01*
X2031700Y-1175999D01*
X2027600Y-1182100D01*
X2007100Y-1202500D01*
X2035799Y-1202500D01*
X770401Y-1555012D02*
G01*
X727501Y-1555012D01*
X770401Y-1555012D02*
G01*
X770401Y-1573413D01*
X768401Y-1579513D01*
X766301Y-1581613D01*
X762200Y-1583613D01*
X758101Y-1583613D01*
X754000Y-1581613D01*
X752001Y-1579513D01*
X750001Y-1573413D01*
X750001Y-1555012D01*
X750001Y-1569313D02*
G01*
X727501Y-1583613D01*
X770401Y-1601212D02*
G01*
X770401Y-1623712D01*
X754000Y-1611513D01*
X754000Y-1617613D01*
X752001Y-1621712D01*
X750001Y-1623712D01*
X743800Y-1625812D01*
X739701Y-1625812D01*
X733600Y-1623712D01*
X729501Y-1619612D01*
X727501Y-1613512D01*
X727501Y-1607413D01*
X729501Y-1601212D01*
X731500Y-1599212D01*
X735601Y-1597112D01*
X764300Y-1663813D02*
G01*
X768401Y-1661813D01*
X770401Y-1655612D01*
X770401Y-1651513D01*
X768401Y-1645412D01*
X762200Y-1641313D01*
X752001Y-1639313D01*
X741801Y-1639313D01*
X733600Y-1641313D01*
X729501Y-1645412D01*
X727501Y-1651513D01*
X727501Y-1653613D01*
X729501Y-1659713D01*
X733600Y-1663813D01*
X739701Y-1665913D01*
X741801Y-1665913D01*
X747901Y-1663813D01*
X752001Y-1659713D01*
X754000Y-1653613D01*
X754000Y-1651513D01*
X752001Y-1645412D01*
X747901Y-1641313D01*
X741801Y-1639313D01*
X2314803Y-2804297D02*
G01*
X2310703Y-2806397D01*
X2306602Y-2810497D01*
X2304602Y-2814497D01*
X2304602Y-2822698D01*
X2306602Y-2826797D01*
X2310703Y-2830898D01*
X2314803Y-2832997D01*
X2321003Y-2834998D01*
X2331202Y-2834998D01*
X2337303Y-2832997D01*
X2341403Y-2830898D01*
X2345502Y-2826797D01*
X2347502Y-2822698D01*
X2347502Y-2814497D01*
X2345502Y-2810497D01*
X2341403Y-2806397D01*
X2337303Y-2804297D01*
X2312803Y-2790798D02*
G01*
X2310703Y-2786698D01*
X2304602Y-2780598D01*
X2347502Y-2780598D01*
X2530699Y-2919800D02*
G01*
X2528599Y-2915700D01*
X2524499Y-2911599D01*
X2520500Y-2909600D01*
X2512299Y-2909600D01*
X2508199Y-2911599D01*
X2504099Y-2915700D01*
X2501999Y-2919800D01*
X2500000Y-2925999D01*
X2500000Y-2936199D01*
X2501999Y-2942300D01*
X2504099Y-2946399D01*
X2508199Y-2950500D01*
X2512299Y-2952500D01*
X2520500Y-2952500D01*
X2524499Y-2950500D01*
X2528599Y-2946399D01*
X2530699Y-2942300D01*
X2546199Y-2919800D02*
G01*
X2546199Y-2917800D01*
X2548299Y-2913699D01*
X2550299Y-2911599D01*
X2554399Y-2909600D01*
X2562600Y-2909600D01*
X2566700Y-2911599D01*
X2568699Y-2913699D01*
X2570799Y-2917800D01*
X2570799Y-2921900D01*
X2568699Y-2925999D01*
X2564600Y-2932100D01*
X2544200Y-2952500D01*
X2572799Y-2952500D01*
X2695697Y-2609791D02*
G01*
X2693596Y-2605691D01*
X2689497Y-2601590D01*
X2685496Y-2599591D01*
X2677296Y-2599591D01*
X2673197Y-2601590D01*
X2669097Y-2605691D01*
X2666997Y-2609791D01*
X2664997Y-2615990D01*
X2664997Y-2626190D01*
X2666997Y-2632291D01*
X2669097Y-2636390D01*
X2673197Y-2640491D01*
X2677296Y-2642491D01*
X2685496Y-2642491D01*
X2689497Y-2640491D01*
X2693596Y-2636390D01*
X2695697Y-2632291D01*
X2713297Y-2599591D02*
G01*
X2735797Y-2599591D01*
X2723496Y-2615990D01*
X2729597Y-2615990D01*
X2733697Y-2617991D01*
X2735797Y-2619991D01*
X2737797Y-2626190D01*
X2737797Y-2630291D01*
X2735797Y-2636390D01*
X2731697Y-2640491D01*
X2725496Y-2642491D01*
X2719396Y-2642491D01*
X2713297Y-2640491D01*
X2711197Y-2638490D01*
X2709197Y-2634391D01*
X2285198Y-2645700D02*
G01*
X2289297Y-2643600D01*
X2293397Y-2639501D01*
X2295397Y-2635500D01*
X2295397Y-2627301D01*
X2293397Y-2623200D01*
X2289297Y-2619101D01*
X2285198Y-2617001D01*
X2278998Y-2615001D01*
X2268797Y-2615001D01*
X2262698Y-2617001D01*
X2258598Y-2619101D01*
X2254498Y-2623200D01*
X2252497Y-2627301D01*
X2252497Y-2635500D01*
X2254498Y-2639501D01*
X2258598Y-2643600D01*
X2262698Y-2645700D01*
X2295397Y-2683701D02*
G01*
X2295397Y-2663301D01*
X2276998Y-2661201D01*
X2278998Y-2663301D01*
X2281098Y-2669400D01*
X2281098Y-2675500D01*
X2278998Y-2681700D01*
X2274997Y-2685801D01*
X2268797Y-2687800D01*
X2264697Y-2687800D01*
X2258598Y-2685801D01*
X2254498Y-2681700D01*
X2252497Y-2675500D01*
X2252497Y-2669400D01*
X2254498Y-2663301D01*
X2256498Y-2661201D01*
X2260598Y-2659200D01*
X2335700Y-2739794D02*
G01*
X2333600Y-2735695D01*
X2329501Y-2731595D01*
X2325501Y-2729594D01*
X2317300Y-2729594D01*
X2313200Y-2731595D01*
X2309101Y-2735695D01*
X2307001Y-2739794D01*
X2305001Y-2745994D01*
X2305001Y-2756194D01*
X2307001Y-2762294D01*
X2309101Y-2766395D01*
X2313200Y-2770495D01*
X2317300Y-2772494D01*
X2325501Y-2772494D01*
X2329501Y-2770495D01*
X2333600Y-2766395D01*
X2335700Y-2762294D01*
X2373701Y-2735695D02*
G01*
X2371701Y-2731595D01*
X2365501Y-2729594D01*
X2361500Y-2729594D01*
X2355300Y-2731595D01*
X2351201Y-2737795D01*
X2349201Y-2747995D01*
X2349201Y-2758195D01*
X2351201Y-2766395D01*
X2355300Y-2770495D01*
X2361500Y-2772494D01*
X2363500Y-2772494D01*
X2369601Y-2770495D01*
X2373701Y-2766395D01*
X2375801Y-2760295D01*
X2375801Y-2758195D01*
X2373701Y-2752094D01*
X2369601Y-2747995D01*
X2363500Y-2745994D01*
X2361500Y-2745994D01*
X2355300Y-2747995D01*
X2351201Y-2752094D01*
X2349201Y-2758195D01*
X2335700Y-2554798D02*
G01*
X2333600Y-2550698D01*
X2329501Y-2546599D01*
X2325501Y-2544598D01*
X2317300Y-2544598D01*
X2313200Y-2546599D01*
X2309101Y-2550698D01*
X2307001Y-2554798D01*
X2305001Y-2560999D01*
X2305001Y-2571199D01*
X2307001Y-2577298D01*
X2309101Y-2581399D01*
X2313200Y-2585499D01*
X2317300Y-2587498D01*
X2325501Y-2587498D01*
X2329501Y-2585499D01*
X2333600Y-2581399D01*
X2335700Y-2577298D01*
X2377800Y-2544598D02*
G01*
X2357401Y-2587498D01*
X2349201Y-2544598D02*
G01*
X2377800Y-2544598D01*
X2110703Y-2234801D02*
G01*
X2108603Y-2230702D01*
X2104503Y-2226601D01*
X2100504Y-2224602D01*
X2092304Y-2224602D01*
X2088203Y-2226601D01*
X2084103Y-2230702D01*
X2082003Y-2234801D01*
X2080003Y-2241001D01*
X2080003Y-2251201D01*
X2082003Y-2257301D01*
X2084103Y-2261401D01*
X2088203Y-2265502D01*
X2092304Y-2267501D01*
X2100504Y-2267501D01*
X2104503Y-2265502D01*
X2108603Y-2261401D01*
X2110703Y-2257301D01*
X2124203Y-2232802D02*
G01*
X2128303Y-2230702D01*
X2134404Y-2224602D01*
X2134404Y-2267501D01*
X2152003Y-2224602D02*
G01*
X2174503Y-2224602D01*
X2162204Y-2241001D01*
X2168404Y-2241001D01*
X2172503Y-2243002D01*
X2174503Y-2245001D01*
X2176504Y-2251201D01*
X2176504Y-2255302D01*
X2174503Y-2261401D01*
X2170403Y-2265502D01*
X2164304Y-2267501D01*
X2158104Y-2267501D01*
X2152003Y-2265502D01*
X2150003Y-2263501D01*
X2147903Y-2259402D01*
X2009798Y-2824295D02*
G01*
X2005698Y-2826395D01*
X2001598Y-2830495D01*
X1999597Y-2834495D01*
X1999597Y-2842696D01*
X2001598Y-2846795D01*
X2005698Y-2850895D01*
X2009798Y-2852995D01*
X2015997Y-2854996D01*
X2026198Y-2854996D01*
X2032298Y-2852995D01*
X2036397Y-2850895D01*
X2040497Y-2846795D01*
X2042497Y-2842696D01*
X2042497Y-2834495D01*
X2040497Y-2830495D01*
X2036397Y-2826395D01*
X2032298Y-2824295D01*
X2007798Y-2810796D02*
G01*
X2005698Y-2806696D01*
X1999597Y-2800596D01*
X2042497Y-2800596D01*
X1999597Y-2766595D02*
G01*
X2028198Y-2787096D01*
X2028198Y-2756395D01*
X1999597Y-2766595D02*
G01*
X2042497Y-2766595D01*
X1985699Y-2234800D02*
G01*
X1983599Y-2230700D01*
X1979499Y-2226599D01*
X1975500Y-2224600D01*
X1967299Y-2224600D01*
X1963199Y-2226599D01*
X1959099Y-2230700D01*
X1956999Y-2234800D01*
X1955000Y-2240999D01*
X1955000Y-2251199D01*
X1956999Y-2257300D01*
X1959099Y-2261399D01*
X1963199Y-2265500D01*
X1967299Y-2267500D01*
X1975500Y-2267500D01*
X1979499Y-2265500D01*
X1983599Y-2261399D01*
X1985699Y-2257300D01*
X1999200Y-2232800D02*
G01*
X2003299Y-2230700D01*
X2009399Y-2224600D01*
X2009399Y-2267500D01*
X2047500Y-2230700D02*
G01*
X2045399Y-2226599D01*
X2039300Y-2224600D01*
X2035200Y-2224600D01*
X2028999Y-2226599D01*
X2025000Y-2232800D01*
X2022899Y-2243000D01*
X2022899Y-2253200D01*
X2025000Y-2261399D01*
X2028999Y-2265500D01*
X2035200Y-2267500D01*
X2037200Y-2267500D01*
X2043400Y-2265500D01*
X2047500Y-2261399D01*
X2049499Y-2255300D01*
X2049499Y-2253200D01*
X2047500Y-2247100D01*
X2043400Y-2243000D01*
X2037200Y-2240999D01*
X2035200Y-2240999D01*
X2028999Y-2243000D01*
X2025000Y-2247100D01*
X2022899Y-2253200D01*
X1799799Y-2469299D02*
G01*
X1795699Y-2471399D01*
X1791599Y-2475500D01*
X1789600Y-2479499D01*
X1789600Y-2487700D01*
X1791599Y-2491799D01*
X1795699Y-2495900D01*
X1799799Y-2498000D01*
X1806000Y-2500000D01*
X1816199Y-2500000D01*
X1822299Y-2498000D01*
X1826400Y-2495900D01*
X1830500Y-2491799D01*
X1832500Y-2487700D01*
X1832500Y-2479499D01*
X1830500Y-2475500D01*
X1826400Y-2471399D01*
X1822299Y-2469299D01*
X1797799Y-2455799D02*
G01*
X1795699Y-2451700D01*
X1789600Y-2445599D01*
X1832500Y-2445599D01*
X1789600Y-2403499D02*
G01*
X1832500Y-2423899D01*
X1789600Y-2432100D02*
G01*
X1789600Y-2403499D01*
X2194799Y-2824299D02*
G01*
X2190699Y-2826399D01*
X2186599Y-2830500D01*
X2184600Y-2834499D01*
X2184600Y-2842700D01*
X2186599Y-2846799D01*
X2190699Y-2850900D01*
X2194799Y-2853000D01*
X2201000Y-2855000D01*
X2211199Y-2855000D01*
X2217299Y-2853000D01*
X2221400Y-2850900D01*
X2225500Y-2846799D01*
X2227500Y-2842700D01*
X2227500Y-2834499D01*
X2225500Y-2830500D01*
X2221400Y-2826399D01*
X2217299Y-2824299D01*
X2192799Y-2810799D02*
G01*
X2190699Y-2806700D01*
X2184600Y-2800599D01*
X2227500Y-2800599D01*
X2184600Y-2776900D02*
G01*
X2186599Y-2783000D01*
X2190699Y-2785000D01*
X2194799Y-2785000D01*
X2198900Y-2783000D01*
X2201000Y-2778899D01*
X2203000Y-2770700D01*
X2205000Y-2764600D01*
X2209099Y-2760500D01*
X2213199Y-2758499D01*
X2219399Y-2758499D01*
X2223500Y-2760500D01*
X2225500Y-2762500D01*
X2227500Y-2768699D01*
X2227500Y-2776900D01*
X2225500Y-2783000D01*
X2223500Y-2785000D01*
X2219399Y-2787100D01*
X2213199Y-2787100D01*
X2209099Y-2785000D01*
X2205000Y-2780999D01*
X2203000Y-2774800D01*
X2201000Y-2766599D01*
X2198900Y-2762500D01*
X2194799Y-2760500D01*
X2190699Y-2760500D01*
X2186599Y-2762500D01*
X2184600Y-2768699D01*
X2184600Y-2776900D01*
X2670195Y-2310702D02*
G01*
X2674296Y-2308602D01*
X2678396Y-2304502D01*
X2680396Y-2300502D01*
X2680396Y-2292301D01*
X2678396Y-2288202D01*
X2674296Y-2284101D01*
X2670195Y-2282002D01*
X2663995Y-2280001D01*
X2653796Y-2280001D01*
X2647695Y-2282002D01*
X2643595Y-2284101D01*
X2639495Y-2288202D01*
X2637496Y-2292301D01*
X2637496Y-2300502D01*
X2639495Y-2304502D01*
X2643595Y-2308602D01*
X2647695Y-2310702D01*
X2670195Y-2326201D02*
G01*
X2672196Y-2326201D01*
X2676296Y-2328301D01*
X2678396Y-2330302D01*
X2680396Y-2334402D01*
X2680396Y-2342602D01*
X2678396Y-2346702D01*
X2676296Y-2348701D01*
X2672196Y-2350801D01*
X2668095Y-2350801D01*
X2663995Y-2348701D01*
X2657896Y-2344602D01*
X2637496Y-2324202D01*
X2637496Y-2352802D01*
X2680396Y-2370401D02*
G01*
X2680396Y-2392901D01*
X2663995Y-2380601D01*
X2663995Y-2386801D01*
X2661995Y-2390902D01*
X2659996Y-2392901D01*
X2653796Y-2395001D01*
X2649696Y-2395001D01*
X2643595Y-2392901D01*
X2639495Y-2388802D01*
X2637496Y-2382701D01*
X2637496Y-2376502D01*
X2639495Y-2370401D01*
X2641495Y-2368402D01*
X2645595Y-2366302D01*
X695700Y-279800D02*
G01*
X693600Y-275700D01*
X689499Y-271599D01*
X685500Y-269600D01*
X677300Y-269600D01*
X673200Y-271599D01*
X669099Y-275700D01*
X666999Y-279800D01*
X665000Y-285999D01*
X665000Y-296199D01*
X666999Y-302300D01*
X669099Y-306399D01*
X673200Y-310500D01*
X677300Y-312500D01*
X685500Y-312500D01*
X689499Y-310500D01*
X693600Y-306399D01*
X695700Y-302300D01*
X711199Y-279800D02*
G01*
X711199Y-277800D01*
X713299Y-273699D01*
X715300Y-271599D01*
X719400Y-269600D01*
X727600Y-269600D01*
X731700Y-271599D01*
X733699Y-273699D01*
X735799Y-277800D01*
X735799Y-281900D01*
X733699Y-285999D01*
X729600Y-292100D01*
X709200Y-312500D01*
X737800Y-312500D01*
X761499Y-269600D02*
G01*
X755399Y-271599D01*
X753400Y-275700D01*
X753400Y-279800D01*
X755399Y-283899D01*
X759499Y-285999D01*
X767700Y-288000D01*
X773800Y-290000D01*
X777899Y-294099D01*
X780000Y-298200D01*
X780000Y-304400D01*
X777899Y-308499D01*
X775900Y-310500D01*
X769700Y-312500D01*
X761499Y-312500D01*
X755399Y-310500D01*
X753400Y-308499D01*
X751300Y-304400D01*
X751300Y-298200D01*
X753400Y-294099D01*
X757500Y-290000D01*
X763599Y-288000D01*
X771800Y-285999D01*
X775900Y-283899D01*
X777899Y-279800D01*
X777899Y-275700D01*
X775900Y-271599D01*
X769700Y-269600D01*
X761499Y-269600D01*
X715700Y-784800D02*
G01*
X713600Y-780700D01*
X709499Y-776599D01*
X705500Y-774600D01*
X697300Y-774600D01*
X693200Y-776599D01*
X689099Y-780700D01*
X686999Y-784800D01*
X685000Y-790999D01*
X685000Y-801199D01*
X686999Y-807300D01*
X689099Y-811399D01*
X693200Y-815500D01*
X697300Y-817500D01*
X705500Y-817500D01*
X709499Y-815500D01*
X713600Y-811399D01*
X715700Y-807300D01*
X731199Y-784800D02*
G01*
X731199Y-782800D01*
X733299Y-778699D01*
X735300Y-776599D01*
X739400Y-774600D01*
X747600Y-774600D01*
X751700Y-776599D01*
X753699Y-778699D01*
X755799Y-782800D01*
X755799Y-786900D01*
X753699Y-790999D01*
X749600Y-797100D01*
X729200Y-817500D01*
X757800Y-817500D01*
X797899Y-788899D02*
G01*
X795900Y-795000D01*
X791800Y-799099D01*
X785600Y-801199D01*
X783599Y-801199D01*
X777500Y-799099D01*
X773400Y-795000D01*
X771300Y-788899D01*
X771300Y-786900D01*
X773400Y-780700D01*
X777500Y-776599D01*
X783599Y-774600D01*
X785600Y-774600D01*
X791800Y-776599D01*
X795900Y-780700D01*
X797899Y-788899D01*
X797899Y-799099D01*
X795900Y-809400D01*
X791800Y-815500D01*
X785600Y-817500D01*
X781499Y-817500D01*
X775399Y-815500D01*
X773400Y-811399D01*
X1315200Y-645700D02*
G01*
X1319300Y-643600D01*
X1323400Y-639499D01*
X1325399Y-635500D01*
X1325399Y-627300D01*
X1323400Y-623200D01*
X1319300Y-619099D01*
X1315200Y-616999D01*
X1308999Y-615000D01*
X1298800Y-615000D01*
X1292700Y-616999D01*
X1288599Y-619099D01*
X1284499Y-623200D01*
X1282500Y-627300D01*
X1282500Y-635500D01*
X1284499Y-639499D01*
X1288599Y-643600D01*
X1292700Y-645700D01*
X1325399Y-663299D02*
G01*
X1325399Y-685799D01*
X1308999Y-673499D01*
X1308999Y-679600D01*
X1306999Y-683699D01*
X1305000Y-685799D01*
X1298800Y-687800D01*
X1294700Y-687800D01*
X1288599Y-685799D01*
X1284499Y-681700D01*
X1282500Y-675500D01*
X1282500Y-669400D01*
X1284499Y-663299D01*
X1286499Y-661199D01*
X1290600Y-659200D01*
X1317200Y-701300D02*
G01*
X1319300Y-705399D01*
X1325399Y-711500D01*
X1282500Y-711500D01*
X3075699Y-274800D02*
G01*
X3073599Y-270700D01*
X3069499Y-266599D01*
X3065500Y-264600D01*
X3057299Y-264600D01*
X3053199Y-266599D01*
X3049099Y-270700D01*
X3046999Y-274800D01*
X3045000Y-280999D01*
X3045000Y-291199D01*
X3046999Y-297300D01*
X3049099Y-301399D01*
X3053199Y-305500D01*
X3057299Y-307500D01*
X3065500Y-307500D01*
X3069499Y-305500D01*
X3073599Y-301399D01*
X3075699Y-297300D01*
X3093299Y-264600D02*
G01*
X3115799Y-264600D01*
X3103500Y-280999D01*
X3109600Y-280999D01*
X3113699Y-283000D01*
X3115799Y-285000D01*
X3117799Y-291199D01*
X3117799Y-295300D01*
X3115799Y-301399D01*
X3111700Y-305500D01*
X3105500Y-307500D01*
X3099399Y-307500D01*
X3093299Y-305500D01*
X3091199Y-303499D01*
X3089200Y-299400D01*
X3133400Y-274800D02*
G01*
X3133400Y-272800D01*
X3135399Y-268699D01*
X3137500Y-266599D01*
X3141499Y-264600D01*
X3149700Y-264600D01*
X3153800Y-266599D01*
X3155900Y-268699D01*
X3157899Y-272800D01*
X3157899Y-276900D01*
X3155900Y-280999D01*
X3151800Y-287100D01*
X3131300Y-307500D01*
X3160000Y-307500D01*
X3085699Y-779800D02*
G01*
X3083599Y-775700D01*
X3079499Y-771599D01*
X3075500Y-769600D01*
X3067299Y-769600D01*
X3063199Y-771599D01*
X3059099Y-775700D01*
X3056999Y-779800D01*
X3055000Y-785999D01*
X3055000Y-796199D01*
X3056999Y-802300D01*
X3059099Y-806399D01*
X3063199Y-810500D01*
X3067299Y-812500D01*
X3075500Y-812500D01*
X3079499Y-810500D01*
X3083599Y-806399D01*
X3085699Y-802300D01*
X3103299Y-769600D02*
G01*
X3125799Y-769600D01*
X3113500Y-785999D01*
X3119600Y-785999D01*
X3123699Y-788000D01*
X3125799Y-790000D01*
X3127799Y-796199D01*
X3127799Y-800300D01*
X3125799Y-806399D01*
X3121700Y-810500D01*
X3115500Y-812500D01*
X3109399Y-812500D01*
X3103299Y-810500D01*
X3101199Y-808499D01*
X3099200Y-804400D01*
X3145399Y-769600D02*
G01*
X3167899Y-769600D01*
X3155600Y-785999D01*
X3161800Y-785999D01*
X3165900Y-788000D01*
X3167899Y-790000D01*
X3170000Y-796199D01*
X3170000Y-800300D01*
X3167899Y-806399D01*
X3163800Y-810500D01*
X3157700Y-812500D01*
X3151499Y-812500D01*
X3145399Y-810500D01*
X3143400Y-808499D01*
X3141300Y-804400D01*
X3255699Y-1279800D02*
G01*
X3253599Y-1275700D01*
X3249499Y-1271599D01*
X3245500Y-1269600D01*
X3237299Y-1269600D01*
X3233199Y-1271599D01*
X3229099Y-1275700D01*
X3226999Y-1279800D01*
X3225000Y-1285999D01*
X3225000Y-1296199D01*
X3226999Y-1302300D01*
X3229099Y-1306399D01*
X3233199Y-1310500D01*
X3237299Y-1312500D01*
X3245500Y-1312500D01*
X3249499Y-1310500D01*
X3253599Y-1306399D01*
X3255699Y-1302300D01*
X3273299Y-1269600D02*
G01*
X3295799Y-1269600D01*
X3283500Y-1285999D01*
X3289600Y-1285999D01*
X3293699Y-1288000D01*
X3295799Y-1290000D01*
X3297799Y-1296199D01*
X3297799Y-1300300D01*
X3295799Y-1306399D01*
X3291700Y-1310500D01*
X3285500Y-1312500D01*
X3279399Y-1312500D01*
X3273299Y-1310500D01*
X3271199Y-1308499D01*
X3269200Y-1304400D01*
X3331800Y-1269600D02*
G01*
X3311300Y-1298200D01*
X3341999Y-1298200D01*
X3331800Y-1269600D02*
G01*
X3331800Y-1312500D01*
X1979994Y-394598D02*
G01*
X1979994Y-437498D01*
X1979994Y-437498D02*
G01*
X2004494Y-437498D01*
X2017995Y-402799D02*
G01*
X2022094Y-400698D01*
X2028294Y-394598D01*
X2028294Y-437498D01*
X1442299Y-1304600D02*
G01*
X1438199Y-1306599D01*
X1434099Y-1310700D01*
X1431999Y-1314800D01*
X1430000Y-1320999D01*
X1430000Y-1331199D01*
X1431999Y-1337300D01*
X1434099Y-1341399D01*
X1438199Y-1345500D01*
X1442299Y-1347500D01*
X1450500Y-1347500D01*
X1454499Y-1345500D01*
X1458599Y-1341399D01*
X1460699Y-1337300D01*
X1462700Y-1331199D01*
X1462700Y-1320999D01*
X1460699Y-1314800D01*
X1458599Y-1310700D01*
X1454499Y-1306599D01*
X1450500Y-1304600D01*
X1442299Y-1304600D01*
X1448400Y-1339400D02*
G01*
X1460699Y-1351599D01*
X1476199Y-1312800D02*
G01*
X1480299Y-1310700D01*
X1486499Y-1304600D01*
X1486499Y-1347500D01*
X1587299Y-1054600D02*
G01*
X1583199Y-1056599D01*
X1579099Y-1060700D01*
X1576999Y-1064800D01*
X1575000Y-1070999D01*
X1575000Y-1081199D01*
X1576999Y-1087300D01*
X1579099Y-1091399D01*
X1583199Y-1095500D01*
X1587299Y-1097500D01*
X1595500Y-1097500D01*
X1599499Y-1095500D01*
X1603599Y-1091399D01*
X1605699Y-1087300D01*
X1607700Y-1081199D01*
X1607700Y-1070999D01*
X1605699Y-1064800D01*
X1603599Y-1060700D01*
X1599499Y-1056599D01*
X1595500Y-1054600D01*
X1587299Y-1054600D01*
X1593400Y-1089400D02*
G01*
X1605699Y-1101599D01*
X1623299Y-1064800D02*
G01*
X1623299Y-1062800D01*
X1625299Y-1058699D01*
X1627399Y-1056599D01*
X1631499Y-1054600D01*
X1639600Y-1054600D01*
X1643699Y-1056599D01*
X1645799Y-1058699D01*
X1647799Y-1062800D01*
X1647799Y-1066900D01*
X1645799Y-1070999D01*
X1641700Y-1077100D01*
X1621199Y-1097500D01*
X1649899Y-1097500D01*
X2362299Y-1054600D02*
G01*
X2358199Y-1056599D01*
X2354099Y-1060700D01*
X2351999Y-1064800D01*
X2350000Y-1070999D01*
X2350000Y-1081199D01*
X2351999Y-1087300D01*
X2354099Y-1091399D01*
X2358199Y-1095500D01*
X2362299Y-1097500D01*
X2370500Y-1097500D01*
X2374499Y-1095500D01*
X2378599Y-1091399D01*
X2380699Y-1087300D01*
X2382700Y-1081199D01*
X2382700Y-1070999D01*
X2380699Y-1064800D01*
X2378599Y-1060700D01*
X2374499Y-1056599D01*
X2370500Y-1054600D01*
X2362299Y-1054600D01*
X2368400Y-1089400D02*
G01*
X2380699Y-1101599D01*
X2400299Y-1054600D02*
G01*
X2422799Y-1054600D01*
X2410500Y-1070999D01*
X2416700Y-1070999D01*
X2420799Y-1073000D01*
X2422799Y-1075000D01*
X2424899Y-1081199D01*
X2424899Y-1085300D01*
X2422799Y-1091399D01*
X2418699Y-1095500D01*
X2412600Y-1097500D01*
X2406499Y-1097500D01*
X2400299Y-1095500D01*
X2398299Y-1093499D01*
X2396199Y-1089400D01*
X2512299Y-1294600D02*
G01*
X2508199Y-1296599D01*
X2504099Y-1300700D01*
X2501999Y-1304800D01*
X2500000Y-1310999D01*
X2500000Y-1321199D01*
X2501999Y-1327300D01*
X2504099Y-1331399D01*
X2508199Y-1335500D01*
X2512299Y-1337500D01*
X2520500Y-1337500D01*
X2524499Y-1335500D01*
X2528599Y-1331399D01*
X2530699Y-1327300D01*
X2532700Y-1321199D01*
X2532700Y-1310999D01*
X2530699Y-1304800D01*
X2528599Y-1300700D01*
X2524499Y-1296599D01*
X2520500Y-1294600D01*
X2512299Y-1294600D01*
X2518400Y-1329400D02*
G01*
X2530699Y-1341599D01*
X2566700Y-1294600D02*
G01*
X2546199Y-1323200D01*
X2576899Y-1323200D01*
X2566700Y-1294600D02*
G01*
X2566700Y-1337500D01*
X990000Y-1574600D02*
G01*
X990000Y-1617500D01*
X990000Y-1574600D02*
G01*
X1008400Y-1574600D01*
X1014499Y-1576599D01*
X1016599Y-1578699D01*
X1018599Y-1582800D01*
X1018599Y-1586900D01*
X1016599Y-1590999D01*
X1014499Y-1593000D01*
X1008400Y-1595000D01*
X990000Y-1595000D01*
X1004300Y-1595000D02*
G01*
X1018599Y-1617500D01*
X1052600Y-1574600D02*
G01*
X1032100Y-1603200D01*
X1062799Y-1603200D01*
X1052600Y-1574600D02*
G01*
X1052600Y-1617500D01*
X1874600Y-2015000D02*
G01*
X1917500Y-2015000D01*
X1874600Y-2015000D02*
G01*
X1874600Y-1996599D01*
X1876599Y-1990500D01*
X1878699Y-1988400D01*
X1882799Y-1986399D01*
X1886899Y-1986399D01*
X1891000Y-1988400D01*
X1893000Y-1990500D01*
X1895000Y-1996599D01*
X1895000Y-2015000D01*
X1895000Y-2000700D02*
G01*
X1917500Y-1986399D01*
X1874600Y-1968800D02*
G01*
X1874600Y-1946300D01*
X1891000Y-1958499D01*
X1891000Y-1952399D01*
X1893000Y-1948299D01*
X1895000Y-1946300D01*
X1901199Y-1944200D01*
X1905299Y-1944200D01*
X1911400Y-1946300D01*
X1915500Y-1950399D01*
X1917500Y-1956500D01*
X1917500Y-1962600D01*
X1915500Y-1968800D01*
X1913500Y-1970799D01*
X1909399Y-1972899D01*
X1984600Y-2050000D02*
G01*
X2027500Y-2050000D01*
X1984600Y-2050000D02*
G01*
X1984600Y-2031599D01*
X1986599Y-2025500D01*
X1988699Y-2023400D01*
X1992799Y-2021399D01*
X1996899Y-2021399D01*
X2001000Y-2023400D01*
X2003000Y-2025500D01*
X2005000Y-2031599D01*
X2005000Y-2050000D01*
X2005000Y-2035700D02*
G01*
X2027500Y-2021399D01*
X1984600Y-1983299D02*
G01*
X1984600Y-2003800D01*
X2003000Y-2005799D01*
X2001000Y-2003800D01*
X1998900Y-1997600D01*
X1998900Y-1991500D01*
X2001000Y-1985399D01*
X2005000Y-1981300D01*
X2011199Y-1979200D01*
X2015299Y-1979200D01*
X2021400Y-1981300D01*
X2025500Y-1985399D01*
X2027500Y-1991500D01*
X2027500Y-1997600D01*
X2025500Y-2003800D01*
X2023500Y-2005799D01*
X2019399Y-2007899D01*
X2059600Y-2050000D02*
G01*
X2102500Y-2050000D01*
X2059600Y-2050000D02*
G01*
X2059600Y-2031599D01*
X2061599Y-2025500D01*
X2063699Y-2023400D01*
X2067799Y-2021399D01*
X2071899Y-2021399D01*
X2076000Y-2023400D01*
X2078000Y-2025500D01*
X2080000Y-2031599D01*
X2080000Y-2050000D01*
X2080000Y-2035700D02*
G01*
X2102500Y-2021399D01*
X2065699Y-1983299D02*
G01*
X2061599Y-1985399D01*
X2059600Y-1991500D01*
X2059600Y-1995599D01*
X2061599Y-2001700D01*
X2067799Y-2005799D01*
X2078000Y-2007899D01*
X2088199Y-2007899D01*
X2096400Y-2005799D01*
X2100500Y-2001700D01*
X2102500Y-1995599D01*
X2102500Y-1993499D01*
X2100500Y-1987399D01*
X2096400Y-1983299D01*
X2090299Y-1981300D01*
X2088199Y-1981300D01*
X2082100Y-1983299D01*
X2078000Y-1987399D01*
X2076000Y-1993499D01*
X2076000Y-1995599D01*
X2078000Y-2001700D01*
X2082100Y-2005799D01*
X2088199Y-2007899D01*
X2129600Y-2050000D02*
G01*
X2172500Y-2050000D01*
X2129600Y-2050000D02*
G01*
X2129600Y-2031599D01*
X2131599Y-2025500D01*
X2133699Y-2023400D01*
X2137799Y-2021399D01*
X2141899Y-2021399D01*
X2146000Y-2023400D01*
X2148000Y-2025500D01*
X2150000Y-2031599D01*
X2150000Y-2050000D01*
X2150000Y-2035700D02*
G01*
X2172500Y-2021399D01*
X2129600Y-1979200D02*
G01*
X2172500Y-1999699D01*
X2129600Y-2007899D02*
G01*
X2129600Y-1979200D01*
X2664997Y-2534594D02*
G01*
X2664997Y-2577494D01*
X2664997Y-2534594D02*
G01*
X2683397Y-2534594D01*
X2689497Y-2536595D01*
X2691597Y-2538694D01*
X2693596Y-2542795D01*
X2693596Y-2546894D01*
X2691597Y-2550994D01*
X2689497Y-2552995D01*
X2683397Y-2554994D01*
X2664997Y-2554994D01*
X2679296Y-2554994D02*
G01*
X2693596Y-2577494D01*
X2707097Y-2542795D02*
G01*
X2711197Y-2540695D01*
X2717397Y-2534594D01*
X2717397Y-2577494D01*
X2734997Y-2534594D02*
G01*
X2757497Y-2534594D01*
X2745196Y-2550994D01*
X2751297Y-2550994D01*
X2755397Y-2552995D01*
X2757497Y-2554994D01*
X2759497Y-2561194D01*
X2759497Y-2565295D01*
X2757497Y-2571395D01*
X2753397Y-2575495D01*
X2747196Y-2577494D01*
X2741096Y-2577494D01*
X2734997Y-2575495D01*
X2732897Y-2573494D01*
X2730897Y-2569394D01*
X2255405Y-2175003D02*
G01*
X2212505Y-2175003D01*
X2255405Y-2175003D02*
G01*
X2255405Y-2193404D01*
X2253405Y-2199504D01*
X2251305Y-2201604D01*
X2247205Y-2203604D01*
X2243104Y-2203604D01*
X2239004Y-2201604D01*
X2237004Y-2199504D01*
X2235005Y-2193404D01*
X2235005Y-2175003D01*
X2235005Y-2189304D02*
G01*
X2212505Y-2203604D01*
X2247205Y-2217103D02*
G01*
X2249305Y-2221203D01*
X2255405Y-2227404D01*
X2212505Y-2227404D01*
X2255405Y-2265403D02*
G01*
X2255405Y-2245003D01*
X2237004Y-2242903D01*
X2239004Y-2245003D01*
X2241104Y-2251104D01*
X2241104Y-2257204D01*
X2239004Y-2263404D01*
X2235005Y-2267503D01*
X2228805Y-2269504D01*
X2224705Y-2269504D01*
X2218604Y-2267503D01*
X2214504Y-2263404D01*
X2212505Y-2257204D01*
X2212505Y-2251104D01*
X2214504Y-2245003D01*
X2216504Y-2242903D01*
X2220604Y-2240904D01*
X1690000Y-2024600D02*
G01*
X1690000Y-2067500D01*
X1690000Y-2024600D02*
G01*
X1708400Y-2024600D01*
X1714499Y-2026599D01*
X1716599Y-2028699D01*
X1718599Y-2032800D01*
X1718599Y-2036900D01*
X1716599Y-2040999D01*
X1714499Y-2043000D01*
X1708400Y-2045000D01*
X1690000Y-2045000D01*
X1704300Y-2045000D02*
G01*
X1718599Y-2067500D01*
X1734200Y-2034800D02*
G01*
X1734200Y-2032800D01*
X1736199Y-2028699D01*
X1738299Y-2026599D01*
X1742399Y-2024600D01*
X1750500Y-2024600D01*
X1754600Y-2026599D01*
X1756700Y-2028699D01*
X1758699Y-2032800D01*
X1758699Y-2036900D01*
X1756700Y-2040999D01*
X1752600Y-2047100D01*
X1732100Y-2067500D01*
X1760799Y-2067500D01*
X1786499Y-2024600D02*
G01*
X1780399Y-2026599D01*
X1776300Y-2032800D01*
X1774300Y-2043000D01*
X1774300Y-2049099D01*
X1776300Y-2059400D01*
X1780399Y-2065500D01*
X1786499Y-2067500D01*
X1790600Y-2067500D01*
X1796800Y-2065500D01*
X1800900Y-2059400D01*
X1802899Y-2049099D01*
X1802899Y-2043000D01*
X1800900Y-2032800D01*
X1796800Y-2026599D01*
X1790600Y-2024600D01*
X1786499Y-2024600D01*
X2239589Y-2855000D02*
G01*
X2282489Y-2855000D01*
X2239589Y-2855000D02*
G01*
X2239589Y-2836599D01*
X2241589Y-2830500D01*
X2243689Y-2828400D01*
X2247790Y-2826399D01*
X2251890Y-2826399D01*
X2255990Y-2828400D01*
X2257990Y-2830500D01*
X2259989Y-2836599D01*
X2259989Y-2855000D01*
X2259989Y-2840700D02*
G01*
X2282489Y-2826399D01*
X2249790Y-2810799D02*
G01*
X2247790Y-2810799D01*
X2243689Y-2808800D01*
X2241589Y-2806700D01*
X2239589Y-2802600D01*
X2239589Y-2794499D01*
X2241589Y-2790399D01*
X2243689Y-2788299D01*
X2247790Y-2786300D01*
X2251890Y-2786300D01*
X2255990Y-2788299D01*
X2262089Y-2792399D01*
X2282489Y-2812899D01*
X2282489Y-2784200D01*
X2247790Y-2770700D02*
G01*
X2245690Y-2766599D01*
X2239589Y-2760500D01*
X2282489Y-2760500D01*
X2260002Y-2419603D02*
G01*
X2260002Y-2462503D01*
X2260002Y-2419603D02*
G01*
X2278402Y-2419603D01*
X2284503Y-2421603D01*
X2286602Y-2423703D01*
X2288603Y-2427802D01*
X2288603Y-2431903D01*
X2286602Y-2436003D01*
X2284503Y-2438002D01*
X2278402Y-2440003D01*
X2260002Y-2440003D01*
X2274303Y-2440003D02*
G01*
X2288603Y-2462503D01*
X2306202Y-2419603D02*
G01*
X2328702Y-2419603D01*
X2316503Y-2436003D01*
X2322602Y-2436003D01*
X2326702Y-2438002D01*
X2328702Y-2440003D01*
X2330802Y-2446203D01*
X2330802Y-2450302D01*
X2328702Y-2456403D01*
X2324602Y-2460502D01*
X2318503Y-2462503D01*
X2312403Y-2462503D01*
X2306202Y-2460502D01*
X2304202Y-2458503D01*
X2302102Y-2454403D01*
X2372902Y-2419603D02*
G01*
X2352502Y-2462503D01*
X2344303Y-2419603D02*
G01*
X2372902Y-2419603D01*
X2260001Y-2474603D02*
G01*
X2260001Y-2517503D01*
X2260001Y-2474603D02*
G01*
X2278401Y-2474603D01*
X2284501Y-2476603D01*
X2286601Y-2478703D01*
X2288600Y-2482802D01*
X2288600Y-2486903D01*
X2286601Y-2491003D01*
X2284501Y-2493002D01*
X2278401Y-2495003D01*
X2260001Y-2495003D01*
X2274300Y-2495003D02*
G01*
X2288600Y-2517503D01*
X2306201Y-2474603D02*
G01*
X2328701Y-2474603D01*
X2316500Y-2491003D01*
X2322601Y-2491003D01*
X2326701Y-2493002D01*
X2328701Y-2495003D01*
X2330801Y-2501203D01*
X2330801Y-2505302D01*
X2328701Y-2511403D01*
X2324601Y-2515502D01*
X2318500Y-2517503D01*
X2312401Y-2517503D01*
X2306201Y-2515502D01*
X2304201Y-2513503D01*
X2302101Y-2509403D01*
X2354501Y-2474603D02*
G01*
X2348401Y-2476603D01*
X2346301Y-2480702D01*
X2346301Y-2484803D01*
X2348401Y-2488903D01*
X2352501Y-2491003D01*
X2360600Y-2493002D01*
X2366800Y-2495003D01*
X2370901Y-2499103D01*
X2372901Y-2503202D01*
X2372901Y-2509403D01*
X2370901Y-2513503D01*
X2368801Y-2515502D01*
X2362700Y-2517503D01*
X2354501Y-2517503D01*
X2348401Y-2515502D01*
X2346301Y-2513503D01*
X2344300Y-2509403D01*
X2344300Y-2503202D01*
X2346301Y-2499103D01*
X2350401Y-2495003D01*
X2356500Y-2493002D01*
X2364700Y-2491003D01*
X2368801Y-2488903D01*
X2370901Y-2484803D01*
X2370901Y-2480702D01*
X2368801Y-2476603D01*
X2362700Y-2474603D01*
X2354501Y-2474603D01*
X2664295Y-2454594D02*
G01*
X2664295Y-2497494D01*
X2649994Y-2454594D02*
G01*
X2678594Y-2454594D01*
X2692094Y-2454594D02*
G01*
X2692094Y-2497494D01*
X2692094Y-2454594D02*
G01*
X2710495Y-2454594D01*
X2716694Y-2456595D01*
X2718694Y-2458694D01*
X2720794Y-2462795D01*
X2720794Y-2468895D01*
X2718694Y-2472995D01*
X2716694Y-2474994D01*
X2710495Y-2477094D01*
X2692094Y-2477094D01*
X2734295Y-2462795D02*
G01*
X2738395Y-2460695D01*
X2744494Y-2454594D01*
X2744494Y-2497494D01*
X1565697Y-2875394D02*
G01*
X1565697Y-2832494D01*
X1579997Y-2875394D02*
G01*
X1551396Y-2875394D01*
X1537897Y-2875394D02*
G01*
X1537897Y-2832494D01*
X1537897Y-2875394D02*
G01*
X1519497Y-2875394D01*
X1513297Y-2873393D01*
X1511297Y-2871293D01*
X1509197Y-2867193D01*
X1509197Y-2861093D01*
X1511297Y-2856993D01*
X1513297Y-2854994D01*
X1519497Y-2852894D01*
X1537897Y-2852894D01*
X1493697Y-2865194D02*
G01*
X1493697Y-2867193D01*
X1491597Y-2871293D01*
X1489597Y-2873393D01*
X1485496Y-2875394D01*
X1477296Y-2875394D01*
X1473197Y-2873393D01*
X1471197Y-2871293D01*
X1469097Y-2867193D01*
X1469097Y-2863094D01*
X1471197Y-2858993D01*
X1475297Y-2852894D01*
X1495697Y-2832494D01*
X1467097Y-2832494D01*
X2289594Y-2130695D02*
G01*
X2332494Y-2130695D01*
X2289594Y-2144996D02*
G01*
X2289594Y-2116395D01*
X2289594Y-2102896D02*
G01*
X2332494Y-2102896D01*
X2289594Y-2102896D02*
G01*
X2289594Y-2084495D01*
X2291594Y-2078296D01*
X2293694Y-2076296D01*
X2297794Y-2074196D01*
X2303895Y-2074196D01*
X2307995Y-2076296D01*
X2309994Y-2078296D01*
X2312094Y-2084495D01*
X2312094Y-2102896D01*
X2289594Y-2056595D02*
G01*
X2289594Y-2034095D01*
X2305995Y-2046395D01*
X2305995Y-2040295D01*
X2307995Y-2036196D01*
X2309994Y-2034095D01*
X2316194Y-2032096D01*
X2320294Y-2032096D01*
X2326395Y-2034095D01*
X2330495Y-2038195D01*
X2332494Y-2044396D01*
X2332494Y-2050495D01*
X2330495Y-2056595D01*
X2328495Y-2058696D01*
X2324395Y-2060695D01*
X2379594Y-2130695D02*
G01*
X2422494Y-2130695D01*
X2379594Y-2144996D02*
G01*
X2379594Y-2116395D01*
X2379594Y-2102896D02*
G01*
X2422494Y-2102896D01*
X2379594Y-2102896D02*
G01*
X2379594Y-2084495D01*
X2381594Y-2078296D01*
X2383694Y-2076296D01*
X2387794Y-2074196D01*
X2393895Y-2074196D01*
X2397995Y-2076296D01*
X2399994Y-2078296D01*
X2402094Y-2084495D01*
X2402094Y-2102896D01*
X2379594Y-2040295D02*
G01*
X2408194Y-2060695D01*
X2408194Y-2029996D01*
X2379594Y-2040295D02*
G01*
X2422494Y-2040295D01*
X1479300Y-2394589D02*
G01*
X1479300Y-2437489D01*
X1465000Y-2394589D02*
G01*
X1493599Y-2394589D01*
X1507100Y-2394589D02*
G01*
X1507100Y-2437489D01*
X1507100Y-2394589D02*
G01*
X1525500Y-2394589D01*
X1531700Y-2396590D01*
X1533699Y-2398690D01*
X1535799Y-2402790D01*
X1535799Y-2408890D01*
X1533699Y-2412990D01*
X1531700Y-2414989D01*
X1525500Y-2417089D01*
X1507100Y-2417089D01*
X1573800Y-2394589D02*
G01*
X1553400Y-2394589D01*
X1551300Y-2412990D01*
X1553400Y-2410990D01*
X1559499Y-2408890D01*
X1565600Y-2408890D01*
X1571800Y-2410990D01*
X1575900Y-2414989D01*
X1577899Y-2421190D01*
X1577899Y-2425290D01*
X1575900Y-2431390D01*
X1571800Y-2435490D01*
X1565600Y-2437489D01*
X1559499Y-2437489D01*
X1553400Y-2435490D01*
X1551300Y-2433490D01*
X1549300Y-2429389D01*
X2669295Y-2664594D02*
G01*
X2669295Y-2707494D01*
X2654994Y-2664594D02*
G01*
X2683594Y-2664594D01*
X2697094Y-2664594D02*
G01*
X2697094Y-2707494D01*
X2697094Y-2664594D02*
G01*
X2715495Y-2664594D01*
X2721694Y-2666595D01*
X2723694Y-2668694D01*
X2725794Y-2672795D01*
X2725794Y-2678895D01*
X2723694Y-2682995D01*
X2721694Y-2684994D01*
X2715495Y-2687094D01*
X2697094Y-2687094D01*
X2763795Y-2670695D02*
G01*
X2761795Y-2666595D01*
X2755595Y-2664594D01*
X2751495Y-2664594D01*
X2745394Y-2666595D01*
X2741295Y-2672795D01*
X2739295Y-2682995D01*
X2739295Y-2693195D01*
X2741295Y-2701395D01*
X2745394Y-2705495D01*
X2751495Y-2707494D01*
X2753594Y-2707494D01*
X2759695Y-2705495D01*
X2763795Y-2701395D01*
X2765895Y-2695295D01*
X2765895Y-2693195D01*
X2763795Y-2687094D01*
X2759695Y-2682995D01*
X2753594Y-2680994D01*
X2751495Y-2680994D01*
X2745394Y-2682995D01*
X2741295Y-2687094D01*
X2739295Y-2693195D01*
X2359300Y-3124600D02*
G01*
X2359300Y-3167500D01*
X2345000Y-3124600D02*
G01*
X2373599Y-3124600D01*
X2387100Y-3124600D02*
G01*
X2387100Y-3167500D01*
X2387100Y-3124600D02*
G01*
X2405500Y-3124600D01*
X2411700Y-3126599D01*
X2413699Y-3128699D01*
X2415799Y-3132800D01*
X2415799Y-3138899D01*
X2413699Y-3143000D01*
X2411700Y-3145000D01*
X2405500Y-3147100D01*
X2387100Y-3147100D01*
X2457899Y-3124600D02*
G01*
X2437500Y-3167500D01*
X2429300Y-3124600D02*
G01*
X2457899Y-3124600D01*
X2534594Y-3095693D02*
G01*
X2577494Y-3095693D01*
X2534594Y-3109994D02*
G01*
X2534594Y-3081394D01*
X2534594Y-3067894D02*
G01*
X2577494Y-3067894D01*
X2534594Y-3067894D02*
G01*
X2534594Y-3049493D01*
X2536594Y-3043294D01*
X2538694Y-3041293D01*
X2542794Y-3039194D01*
X2548895Y-3039194D01*
X2552995Y-3041293D01*
X2554994Y-3043294D01*
X2557094Y-3049493D01*
X2557094Y-3067894D01*
X2534594Y-3015493D02*
G01*
X2536594Y-3021594D01*
X2540694Y-3023694D01*
X2544795Y-3023694D01*
X2548895Y-3021594D01*
X2550995Y-3017494D01*
X2552995Y-3009394D01*
X2554994Y-3003193D01*
X2559094Y-2999094D01*
X2563194Y-2997094D01*
X2569395Y-2997094D01*
X2573495Y-2999094D01*
X2575495Y-3001194D01*
X2577494Y-3007294D01*
X2577494Y-3015493D01*
X2575495Y-3021594D01*
X2573495Y-3023694D01*
X2569395Y-3025693D01*
X2563194Y-3025693D01*
X2559094Y-3023694D01*
X2554994Y-3019594D01*
X2552995Y-3013494D01*
X2550995Y-3005293D01*
X2548895Y-3001194D01*
X2544795Y-2999094D01*
X2540694Y-2999094D01*
X2536594Y-3001194D01*
X2534594Y-3007294D01*
X2534594Y-3015493D01*
X2105000Y-2540405D02*
G01*
X2105000Y-2509704D01*
X2103000Y-2503604D01*
X2098900Y-2499504D01*
X2092700Y-2497505D01*
X2088599Y-2497505D01*
X2082500Y-2499504D01*
X2078400Y-2503604D01*
X2076400Y-2509704D01*
X2076400Y-2540405D01*
X2060799Y-2530205D02*
G01*
X2060799Y-2532204D01*
X2058800Y-2536305D01*
X2056700Y-2538404D01*
X2052600Y-2540405D01*
X2044499Y-2540405D01*
X2040399Y-2538404D01*
X2038299Y-2536305D01*
X2036300Y-2532204D01*
X2036300Y-2528105D01*
X2038299Y-2524005D01*
X2042399Y-2517905D01*
X2062899Y-2497505D01*
X2034200Y-2497505D01*
X2170000Y-1569600D02*
G01*
X2170000Y-1600300D01*
X2171999Y-1606399D01*
X2176099Y-1610500D01*
X2182299Y-1612500D01*
X2186400Y-1612500D01*
X2192500Y-1610500D01*
X2196599Y-1606399D01*
X2198599Y-1600300D01*
X2198599Y-1569600D01*
X2216199Y-1569600D02*
G01*
X2238699Y-1569600D01*
X2226499Y-1585999D01*
X2232600Y-1585999D01*
X2236700Y-1588000D01*
X2238699Y-1590000D01*
X2240799Y-1596199D01*
X2240799Y-1600300D01*
X2238699Y-1606399D01*
X2234600Y-1610500D01*
X2228500Y-1612500D01*
X2222399Y-1612500D01*
X2216199Y-1610500D01*
X2214200Y-1608499D01*
X2212100Y-1604400D01*
X1165000Y-1279600D02*
G01*
X1165000Y-1310300D01*
X1166999Y-1316399D01*
X1171099Y-1320500D01*
X1177299Y-1322500D01*
X1181400Y-1322500D01*
X1187500Y-1320500D01*
X1191599Y-1316399D01*
X1193599Y-1310300D01*
X1193599Y-1279600D01*
X1233699Y-1293899D02*
G01*
X1231700Y-1300000D01*
X1227600Y-1304099D01*
X1221499Y-1306199D01*
X1219399Y-1306199D01*
X1213299Y-1304099D01*
X1209200Y-1300000D01*
X1207100Y-1293899D01*
X1207100Y-1291900D01*
X1209200Y-1285700D01*
X1213299Y-1281599D01*
X1219399Y-1279600D01*
X1221499Y-1279600D01*
X1227600Y-1281599D01*
X1231700Y-1285700D01*
X1233699Y-1293899D01*
X1233699Y-1304099D01*
X1231700Y-1314400D01*
X1227600Y-1320500D01*
X1221499Y-1322500D01*
X1217399Y-1322500D01*
X1211199Y-1320500D01*
X1209200Y-1316399D01*
X1760000Y-1574600D02*
G01*
X1760000Y-1605300D01*
X1761999Y-1611399D01*
X1766099Y-1615500D01*
X1772299Y-1617500D01*
X1776400Y-1617500D01*
X1782500Y-1615500D01*
X1786599Y-1611399D01*
X1788599Y-1605300D01*
X1788599Y-1574600D01*
X1802100Y-1582800D02*
G01*
X1806199Y-1580700D01*
X1812399Y-1574600D01*
X1812399Y-1617500D01*
X1838100Y-1574600D02*
G01*
X1831999Y-1576599D01*
X1827899Y-1582800D01*
X1825900Y-1593000D01*
X1825900Y-1599099D01*
X1827899Y-1609400D01*
X1831999Y-1615500D01*
X1838100Y-1617500D01*
X1842200Y-1617500D01*
X1848400Y-1615500D01*
X1852500Y-1609400D01*
X1854499Y-1599099D01*
X1854499Y-1593000D01*
X1852500Y-1582800D01*
X1848400Y-1576599D01*
X1842200Y-1574600D01*
X1838100Y-1574600D01*
X2755000Y-1254600D02*
G01*
X2755000Y-1285300D01*
X2756999Y-1291399D01*
X2761099Y-1295500D01*
X2767299Y-1297500D01*
X2771400Y-1297500D01*
X2777500Y-1295500D01*
X2781599Y-1291399D01*
X2783599Y-1285300D01*
X2783599Y-1254600D01*
X2797100Y-1262800D02*
G01*
X2801199Y-1260700D01*
X2807399Y-1254600D01*
X2807399Y-1297500D01*
X2822899Y-1264800D02*
G01*
X2822899Y-1262800D01*
X2825000Y-1258699D01*
X2826999Y-1256599D01*
X2831099Y-1254600D01*
X2839300Y-1254600D01*
X2843400Y-1256599D01*
X2845399Y-1258699D01*
X2847500Y-1262800D01*
X2847500Y-1266900D01*
X2845399Y-1270999D01*
X2841300Y-1277100D01*
X2820900Y-1297500D01*
X2849499Y-1297500D01*
X439214Y-592044D02*
G01*
X408515Y-592044D01*
X402415Y-594045D01*
X398314Y-598144D01*
X396314Y-604344D01*
X396314Y-608445D01*
X398314Y-614544D01*
X402415Y-618645D01*
X408515Y-620644D01*
X439214Y-620644D01*
X433114Y-658744D02*
G01*
X437215Y-656644D01*
X439214Y-650545D01*
X439214Y-646444D01*
X437215Y-640345D01*
X431015Y-636244D01*
X420814Y-634144D01*
X410614Y-634144D01*
X402415Y-636244D01*
X398314Y-640345D01*
X396314Y-646444D01*
X396314Y-648544D01*
X398314Y-654645D01*
X402415Y-658744D01*
X408515Y-660745D01*
X410614Y-660745D01*
X416714Y-658744D01*
X420814Y-654645D01*
X422815Y-648544D01*
X422815Y-646444D01*
X420814Y-640345D01*
X416714Y-636244D01*
X410614Y-634144D01*
X3385784Y-607955D02*
G01*
X3416485Y-607955D01*
X3422584Y-605954D01*
X3426684Y-601855D01*
X3428684Y-595655D01*
X3428684Y-591554D01*
X3426684Y-585455D01*
X3422584Y-581354D01*
X3416485Y-579355D01*
X3385784Y-579355D01*
X3385784Y-537154D02*
G01*
X3428684Y-557654D01*
X3385784Y-565855D02*
G01*
X3385784Y-537154D01*
X455394Y-1509994D02*
G01*
X424695Y-1509994D01*
X418595Y-1511995D01*
X414495Y-1516095D01*
X412494Y-1522294D01*
X412494Y-1526395D01*
X414495Y-1532494D01*
X418595Y-1536595D01*
X424695Y-1538595D01*
X455394Y-1538595D01*
X447195Y-1552094D02*
G01*
X449295Y-1556194D01*
X455394Y-1562395D01*
X412494Y-1562395D01*
X455394Y-1596295D02*
G01*
X426795Y-1575895D01*
X426795Y-1606495D01*
X455394Y-1596295D02*
G01*
X412494Y-1596295D01*
G36*
X869380Y-2328240D02*
G01*
X869380Y-2336900D01*
X881380Y-2336900D01*
X881380Y-2328240D01*
G37*
G36*
X870960Y-2363060D02*
G01*
X870960Y-2371720D01*
X882960Y-2371720D01*
X882960Y-2363060D01*
G37*
G36*
X413080Y-2364380D02*
G01*
X413080Y-2376380D01*
X421740Y-2376380D01*
X421740Y-2364380D01*
G37*
G36*
X378260Y-2365960D02*
G01*
X378260Y-2377960D01*
X386920Y-2377960D01*
X386920Y-2365960D01*
G37*
G36*
X409580Y-2106640D02*
G01*
X407860Y-2106820D01*
X406180Y-2107280D01*
X404640Y-2108060D01*
X403260Y-2109100D01*
X402100Y-2110400D01*
X401180Y-2111860D01*
X400560Y-2113480D01*
X400240Y-2115180D01*
X400240Y-2116920D01*
X400560Y-2118620D01*
X401180Y-2120240D01*
X402100Y-2121700D01*
X402640Y-2122380D01*
X403920Y-2123540D01*
X405400Y-2124460D01*
X407020Y-2125080D01*
X408720Y-2125400D01*
X410439Y-2125420D01*
X412140Y-2125100D01*
X413760Y-2124480D01*
X415240Y-2123580D01*
X416520Y-2122420D01*
X417580Y-2121040D01*
X418360Y-2119480D01*
X418840Y-2117820D01*
X419000Y-2116100D01*
X418960Y-2115140D01*
X418640Y-2113440D01*
X418000Y-2111820D01*
X417080Y-2110360D01*
X415920Y-2109080D01*
X414520Y-2108040D01*
X412980Y-2107280D01*
X411300Y-2106800D01*
G37*
G36*
X534400Y-300660D02*
G01*
X534400Y-312820D01*
X583080Y-312820D01*
X583080Y-300660D01*
G37*
G36*
X866919Y-300660D02*
G01*
X866919Y-312820D01*
X915600Y-312820D01*
X915600Y-300660D01*
G37*
G36*
X885180Y-266180D02*
G01*
X885180Y-347280D01*
X897340Y-347280D01*
X897340Y-266180D01*
G37*
G36*
X534400Y-800660D02*
G01*
X534400Y-812820D01*
X583080Y-812820D01*
X583080Y-800660D01*
G37*
G36*
X866919Y-800660D02*
G01*
X866919Y-812820D01*
X915600Y-812820D01*
X915600Y-800660D01*
G37*
G36*
X885180Y-766180D02*
G01*
X885180Y-847280D01*
X897340Y-847280D01*
X897340Y-766180D01*
G37*
G36*
X1292180Y-479400D02*
G01*
X1292180Y-528080D01*
X1304360Y-528080D01*
X1304360Y-479400D01*
G37*
G36*
X1292180Y-811919D02*
G01*
X1292180Y-860600D01*
X1304360Y-860600D01*
X1304360Y-811919D01*
G37*
G36*
X1257720Y-830180D02*
G01*
X1257720Y-842340D01*
X1338820Y-842340D01*
X1338820Y-830180D01*
G37*
G36*
X3241920Y-487180D02*
G01*
X3241920Y-499340D01*
X3290600Y-499340D01*
X3290600Y-487180D01*
G37*
G36*
X2909400Y-487180D02*
G01*
X2909400Y-499340D01*
X2958080Y-499340D01*
X2958080Y-487180D01*
G37*
G36*
X2927660Y-452720D02*
G01*
X2927660Y-533820D01*
X2939820Y-533820D01*
X2939820Y-452720D01*
G37*
G36*
X3241920Y-987180D02*
G01*
X3241920Y-999340D01*
X3290600Y-999340D01*
X3290600Y-987180D01*
G37*
G36*
X2909400Y-987180D02*
G01*
X2909400Y-999340D01*
X2958080Y-999340D01*
X2958080Y-987180D01*
G37*
G36*
X2927660Y-952720D02*
G01*
X2927660Y-1033820D01*
X2939820Y-1033820D01*
X2939820Y-952720D01*
G37*
G36*
X3431920Y-1487180D02*
G01*
X3431920Y-1499340D01*
X3480600Y-1499340D01*
X3480600Y-1487180D01*
G37*
G36*
X3099400Y-1487180D02*
G01*
X3099400Y-1499340D01*
X3148080Y-1499340D01*
X3148080Y-1487180D01*
G37*
G36*
X3117660Y-1452720D02*
G01*
X3117660Y-1533820D01*
X3129820Y-1533820D01*
X3129820Y-1452720D01*
G37*
G36*
X1821180Y-2381860D02*
G01*
X1821180Y-2394460D01*
X1833180Y-2394460D01*
X1833180Y-2381860D01*
G37*
G36*
X1821180Y-2315540D02*
G01*
X1821180Y-2328140D01*
X1833180Y-2328140D01*
X1833180Y-2315540D01*
G37*
G36*
X1821180Y-2291860D02*
G01*
X1821180Y-2304460D01*
X1833180Y-2304460D01*
X1833180Y-2291860D01*
G37*
G36*
X1821180Y-2225540D02*
G01*
X1821180Y-2238140D01*
X1833180Y-2238140D01*
X1833180Y-2225540D01*
G37*
D13*
X869013Y-2364286D02*
G01*
X869013Y-2368730D01*
X878392Y-2368730D01*
X878377Y-2331246D02*
G01*
X868998Y-2331246D01*
X868998Y-2335994D01*
D12*
X878377Y-2331246D02*
G01*
X931619Y-2331246D01*
X878377Y-2368742D02*
G01*
X931619Y-2368742D01*
D13*
X385707Y-2364011D02*
G01*
X381264Y-2364011D01*
X381264Y-2373389D01*
X418746Y-2373373D02*
G01*
X418746Y-2363995D01*
X413998Y-2363995D01*
D12*
X418746Y-2373373D02*
G01*
X418746Y-2426615D01*
X381251Y-2373373D02*
G01*
X381251Y-2426615D01*
D14*
X1974996Y-3149994D02*
G01*
X1899996Y-3149994D01*
X1899996Y-3249994D01*
X2499996Y-3249994D01*
X2499996Y-3149994D01*
D15*
X2499996Y-3149994D02*
G01*
X1974996Y-3149994D01*
D14*
X524998Y-2649994D02*
G01*
X449998Y-2649994D01*
X449998Y-2749994D01*
X749998Y-2749994D01*
X749998Y-2649994D01*
D15*
X749998Y-2649994D02*
G01*
X524998Y-2649994D01*
D12*
X1029929Y-1761984D02*
G01*
X971464Y-1761984D01*
X971464Y-1848015D02*
G01*
X1029929Y-1848015D01*
X1035928Y-1842015D02*
G01*
X1035928Y-1767984D01*
X840070Y-1761984D02*
G01*
X898535Y-1761984D01*
X898535Y-1848015D02*
G01*
X840070Y-1848015D01*
X834071Y-1842015D02*
G01*
X834071Y-1767984D01*
D16*
X1254723Y-1894256D02*
G01*
X1254723Y-1925754D01*
X1211031Y-1882058D02*
G01*
X1242527Y-1882058D01*
X1211031Y-1937950D02*
G01*
X1242527Y-1937950D01*
X1188359Y-1881828D02*
G01*
X1156863Y-1881828D01*
X1144665Y-1894027D02*
G01*
X1144665Y-1925522D01*
X1188359Y-1937719D02*
G01*
X1156863Y-1937719D01*
X1300735Y-1879720D02*
G01*
X1269238Y-1879720D01*
X1312934Y-1836030D02*
G01*
X1312934Y-1867525D01*
X1257043Y-1836030D02*
G01*
X1257043Y-1867525D01*
X1313163Y-1813357D02*
G01*
X1313163Y-1781860D01*
X1300965Y-1769663D02*
G01*
X1269471Y-1769663D01*
X1257273Y-1813357D02*
G01*
X1257273Y-1781860D01*
X1130736Y-1879720D02*
G01*
X1099239Y-1879720D01*
X1142935Y-1836030D02*
G01*
X1142935Y-1867525D01*
X1087043Y-1836030D02*
G01*
X1087043Y-1867525D01*
X1143164Y-1813357D02*
G01*
X1143164Y-1781860D01*
X1130967Y-1769663D02*
G01*
X1099471Y-1769663D01*
X1087274Y-1813357D02*
G01*
X1087274Y-1781860D01*
X654724Y-1899261D02*
G01*
X654724Y-1930758D01*
X611033Y-1887062D02*
G01*
X642528Y-1887062D01*
X611033Y-1942953D02*
G01*
X642528Y-1942953D01*
X588360Y-1886833D02*
G01*
X556864Y-1886833D01*
X544666Y-1899031D02*
G01*
X544666Y-1930525D01*
X588360Y-1942723D02*
G01*
X556864Y-1942723D01*
X535738Y-1884724D02*
G01*
X504241Y-1884724D01*
X547937Y-1841033D02*
G01*
X547937Y-1872528D01*
X492046Y-1841033D02*
G01*
X492046Y-1872528D01*
X548166Y-1818360D02*
G01*
X548166Y-1786864D01*
X535969Y-1774666D02*
G01*
X504474Y-1774666D01*
X492276Y-1818360D02*
G01*
X492276Y-1786864D01*
X669261Y-1775275D02*
G01*
X700758Y-1775275D01*
X657062Y-1818966D02*
G01*
X657062Y-1787471D01*
X712953Y-1818966D02*
G01*
X712953Y-1787471D01*
X656833Y-1841639D02*
G01*
X656833Y-1873135D01*
X669031Y-1885333D02*
G01*
X700525Y-1885333D01*
X712723Y-1841639D02*
G01*
X712723Y-1873135D01*
X1509724Y-2229261D02*
G01*
X1509724Y-2260758D01*
X1466033Y-2217062D02*
G01*
X1497529Y-2217062D01*
X1466033Y-2272953D02*
G01*
X1497529Y-2272953D01*
X1443361Y-2216833D02*
G01*
X1411864Y-2216833D01*
X1399666Y-2229031D02*
G01*
X1399666Y-2260526D01*
X1443361Y-2272723D02*
G01*
X1411864Y-2272723D01*
X1509724Y-2039261D02*
G01*
X1509724Y-2070758D01*
X1466033Y-2027062D02*
G01*
X1497529Y-2027062D01*
X1466033Y-2082953D02*
G01*
X1497529Y-2082953D01*
X1443361Y-2026833D02*
G01*
X1411864Y-2026833D01*
X1399666Y-2039031D02*
G01*
X1399666Y-2070525D01*
X1443361Y-2082723D02*
G01*
X1411864Y-2082723D01*
X1180272Y-2110734D02*
G01*
X1180272Y-2079238D01*
X1223963Y-2122934D02*
G01*
X1192469Y-2122934D01*
X1223963Y-2067042D02*
G01*
X1192469Y-2067042D01*
X1246637Y-2123162D02*
G01*
X1278132Y-2123162D01*
X1290330Y-2110965D02*
G01*
X1290330Y-2079470D01*
X1246637Y-2067273D02*
G01*
X1278132Y-2067273D01*
X1200275Y-2300738D02*
G01*
X1200275Y-2269241D01*
X1243966Y-2312937D02*
G01*
X1212470Y-2312937D01*
X1243966Y-2257046D02*
G01*
X1212470Y-2257046D01*
X1266638Y-2313166D02*
G01*
X1298135Y-2313166D01*
X1310333Y-2300969D02*
G01*
X1310333Y-2269474D01*
X1266638Y-2257276D02*
G01*
X1298135Y-2257276D01*
X484261Y-2030275D02*
G01*
X515758Y-2030275D01*
X472062Y-2073966D02*
G01*
X472062Y-2042471D01*
X527953Y-2073966D02*
G01*
X527953Y-2042471D01*
X471833Y-2096639D02*
G01*
X471833Y-2128135D01*
X484030Y-2140333D02*
G01*
X515525Y-2140333D01*
X527723Y-2096639D02*
G01*
X527723Y-2128135D01*
X669724Y-2249256D02*
G01*
X669724Y-2280752D01*
X626033Y-2237057D02*
G01*
X657528Y-2237057D01*
X626033Y-2292948D02*
G01*
X657528Y-2292948D01*
X603359Y-2236828D02*
G01*
X571864Y-2236828D01*
X559666Y-2249025D02*
G01*
X559666Y-2280520D01*
X603359Y-2292718D02*
G01*
X571864Y-2292718D01*
X824260Y-2040275D02*
G01*
X855757Y-2040275D01*
X812061Y-2083966D02*
G01*
X812061Y-2052471D01*
X867953Y-2083966D02*
G01*
X867953Y-2052471D01*
X811832Y-2106639D02*
G01*
X811832Y-2138135D01*
X824031Y-2150333D02*
G01*
X855525Y-2150333D01*
X867722Y-2106639D02*
G01*
X867722Y-2138135D01*
D14*
X825000Y-1650000D02*
G01*
X750000Y-1650000D01*
X750000Y-1750000D01*
X1050000Y-1750000D01*
X1050000Y-1650000D01*
D15*
X1050000Y-1650000D02*
G01*
X825000Y-1650000D01*
D12*
X1256005Y-1808216D02*
G01*
X1256005Y-1770464D01*
X1203990Y-1770464D01*
X1203990Y-1808216D01*
X1256005Y-1841775D02*
G01*
X1256005Y-1879526D01*
X1203990Y-1879526D01*
X1203990Y-1841775D01*
X2111008Y-2903220D02*
G01*
X2111008Y-2865468D01*
X2058991Y-2865468D01*
X2058991Y-2903220D01*
X2111008Y-2936779D02*
G01*
X2111008Y-2974531D01*
X2058991Y-2974531D01*
X2058991Y-2936779D01*
X603991Y-1846779D02*
G01*
X603991Y-1884531D01*
X656008Y-1884531D01*
X656008Y-1846779D01*
X603991Y-1813220D02*
G01*
X603991Y-1775468D01*
X656008Y-1775468D01*
X656008Y-1813220D01*
X548991Y-1846779D02*
G01*
X548991Y-1884531D01*
X601008Y-1884531D01*
X601008Y-1846779D01*
X548991Y-1813220D02*
G01*
X548991Y-1775468D01*
X601008Y-1775468D01*
X601008Y-1813220D01*
X1196005Y-1808216D02*
G01*
X1196005Y-1770464D01*
X1143990Y-1770464D01*
X1143990Y-1808216D01*
X1196005Y-1841775D02*
G01*
X1196005Y-1879526D01*
X1143990Y-1879526D01*
X1143990Y-1841775D01*
X781778Y-2211003D02*
G01*
X819529Y-2211003D01*
X819529Y-2158987D01*
X781778Y-2158987D01*
X748218Y-2211003D02*
G01*
X710466Y-2211003D01*
X710466Y-2158987D01*
X748218Y-2158987D01*
X491779Y-2196008D02*
G01*
X529531Y-2196008D01*
X529531Y-2143991D01*
X491779Y-2143991D01*
X458220Y-2196008D02*
G01*
X420468Y-2196008D01*
X420468Y-2143991D01*
X458220Y-2143991D01*
X501006Y-2458215D02*
G01*
X501006Y-2420464D01*
X448991Y-2420464D01*
X448991Y-2458215D01*
X501006Y-2491774D02*
G01*
X501006Y-2529526D01*
X448991Y-2529526D01*
X448991Y-2491774D01*
X631779Y-2491003D02*
G01*
X669529Y-2491003D01*
X669529Y-2438987D01*
X631779Y-2438987D01*
X598218Y-2491003D02*
G01*
X560468Y-2491003D01*
X560468Y-2438987D01*
X598218Y-2438987D01*
X806006Y-2333215D02*
G01*
X806006Y-2295464D01*
X753991Y-2295464D01*
X753991Y-2333215D01*
X806006Y-2366774D02*
G01*
X806006Y-2404526D01*
X753991Y-2404526D01*
X753991Y-2366774D01*
X1471779Y-2216008D02*
G01*
X1509530Y-2216008D01*
X1509530Y-2163991D01*
X1471779Y-2163991D01*
X1438220Y-2216008D02*
G01*
X1400469Y-2216008D01*
X1400469Y-2163991D01*
X1438220Y-2163991D01*
X1471779Y-2026008D02*
G01*
X1509530Y-2026008D01*
X1509530Y-1973991D01*
X1471779Y-1973991D01*
X1438220Y-2026008D02*
G01*
X1400469Y-2026008D01*
X1400469Y-1973991D01*
X1438220Y-1973991D01*
X1471779Y-2161008D02*
G01*
X1509530Y-2161008D01*
X1509530Y-2108991D01*
X1471779Y-2108991D01*
X1438220Y-2161008D02*
G01*
X1400469Y-2161008D01*
X1400469Y-2108991D01*
X1438220Y-2108991D01*
X1471779Y-1971008D02*
G01*
X1509530Y-1971008D01*
X1509530Y-1918991D01*
X1471779Y-1918991D01*
X1438220Y-1971008D02*
G01*
X1400469Y-1971008D01*
X1400469Y-1918991D01*
X1438220Y-1918991D01*
X466008Y-2068220D02*
G01*
X466008Y-2030468D01*
X413991Y-2030468D01*
X413991Y-2068220D01*
X466008Y-2101779D02*
G01*
X466008Y-2139531D01*
X413991Y-2139531D01*
X413991Y-2101779D01*
D17*
X307759Y-2182559D02*
G01*
X307759Y-2127442D01*
X402249Y-2182559D02*
G01*
X374854Y-2182559D01*
X335154Y-2182559D02*
G01*
X308004Y-2182559D01*
X402249Y-2182559D02*
G01*
X402249Y-2128218D01*
X307759Y-2127442D02*
G01*
X309569Y-2127442D01*
X349263Y-2127442D02*
G01*
X360747Y-2127442D01*
X400443Y-2127442D02*
G01*
X402249Y-2127442D01*
D16*
X683126Y-2310340D02*
G01*
X683126Y-2298198D01*
X682337Y-2297410D01*
X682863Y-2296884D02*
G01*
X549967Y-2296884D01*
X549704Y-2297147D01*
X549704Y-2310340D01*
X549704Y-2419650D02*
G01*
X549704Y-2430304D01*
X683126Y-2430304D01*
X683126Y-2419650D01*
X767500Y-2035000D02*
G01*
X712500Y-2035000D01*
X756630Y-2150000D02*
G01*
X723371Y-2150000D01*
X775000Y-2080000D02*
G01*
X775000Y-2110000D01*
D18*
X1229499Y-1941795D02*
G01*
X1203819Y-1941795D01*
X1203819Y-2059054D01*
X1306180Y-2059054D01*
X1306180Y-1941795D01*
X1280500Y-1941795D01*
X658204Y-2059499D02*
G01*
X658204Y-2033818D01*
X540945Y-2033818D01*
X540945Y-2136181D01*
X658204Y-2136181D01*
X658204Y-2110500D01*
X1229499Y-2131795D02*
G01*
X1203819Y-2131795D01*
X1203819Y-2249054D01*
X1306180Y-2249054D01*
X1306180Y-2131795D01*
X1280500Y-2131795D01*
D16*
X2835424Y-1452361D02*
G01*
X2902353Y-1452361D01*
X2764558Y-1452361D02*
G01*
X2697629Y-1452361D01*
X2764558Y-1747638D02*
G01*
X2697629Y-1747638D01*
X2835424Y-1747638D02*
G01*
X2902353Y-1747638D01*
X2697629Y-1452361D02*
G01*
X2697629Y-1747638D01*
X2902353Y-1452361D02*
G01*
X2902353Y-1747638D01*
X1852350Y-1284564D02*
G01*
X1852350Y-1217636D01*
X1852350Y-1355430D02*
G01*
X1852350Y-1422359D01*
X2147628Y-1355430D02*
G01*
X2147628Y-1422359D01*
X2147628Y-1284564D02*
G01*
X2147628Y-1217636D01*
X1852350Y-1422359D02*
G01*
X2147628Y-1422359D01*
X1852350Y-1217636D02*
G01*
X2147628Y-1217636D01*
D12*
X2321008Y-3043220D02*
G01*
X2321008Y-3005468D01*
X2268991Y-3005468D01*
X2268991Y-3043220D01*
X2321008Y-3076779D02*
G01*
X2321008Y-3114531D01*
X2268991Y-3114531D01*
X2268991Y-3076779D01*
D16*
X635435Y-1452363D02*
G01*
X702364Y-1452363D01*
X564569Y-1452363D02*
G01*
X497640Y-1452363D01*
X564569Y-1747642D02*
G01*
X497640Y-1747642D01*
X635435Y-1747642D02*
G01*
X702364Y-1747642D01*
X497640Y-1452363D02*
G01*
X497640Y-1747642D01*
X702364Y-1452363D02*
G01*
X702364Y-1747642D01*
D12*
X1536779Y-2591008D02*
G01*
X1574530Y-2591008D01*
X1574530Y-2538991D01*
X1536779Y-2538991D01*
X1503220Y-2591008D02*
G01*
X1465469Y-2591008D01*
X1465469Y-2538991D01*
X1503220Y-2538991D01*
X1503220Y-2678991D02*
G01*
X1465469Y-2678991D01*
X1465469Y-2731008D01*
X1503220Y-2731008D01*
X1536779Y-2678991D02*
G01*
X1574530Y-2678991D01*
X1574530Y-2731008D01*
X1536779Y-2731008D01*
X1503220Y-2603991D02*
G01*
X1465469Y-2603991D01*
X1465469Y-2656008D01*
X1503220Y-2656008D01*
X1536779Y-2603991D02*
G01*
X1574530Y-2603991D01*
X1574530Y-2656008D01*
X1536779Y-2656008D01*
X2289425Y-2848692D02*
G01*
X2289425Y-2904205D01*
X2360574Y-2904205D02*
G01*
X2360574Y-2848692D01*
X2354575Y-2842692D02*
G01*
X2295424Y-2842692D01*
X2289425Y-2991307D02*
G01*
X2289425Y-2935794D01*
X2360574Y-2935794D02*
G01*
X2360574Y-2991307D01*
X2354575Y-2997307D02*
G01*
X2295424Y-2997307D01*
D16*
X2385275Y-2945738D02*
G01*
X2385275Y-2914241D01*
X2428966Y-2957937D02*
G01*
X2397470Y-2957937D01*
X2428966Y-2902046D02*
G01*
X2397470Y-2902046D01*
X2451638Y-2958166D02*
G01*
X2483135Y-2958166D01*
X2495333Y-2945969D02*
G01*
X2495333Y-2914474D01*
X2451638Y-2902276D02*
G01*
X2483135Y-2902276D01*
X2535275Y-2635738D02*
G01*
X2535275Y-2604241D01*
X2578966Y-2647937D02*
G01*
X2547470Y-2647937D01*
X2578966Y-2592046D02*
G01*
X2547470Y-2592046D01*
X2601638Y-2648166D02*
G01*
X2633135Y-2648166D01*
X2645333Y-2635969D02*
G01*
X2645333Y-2604474D01*
X2601638Y-2592276D02*
G01*
X2633135Y-2592276D01*
X1734724Y-2549261D02*
G01*
X1734724Y-2580758D01*
X1691033Y-2537062D02*
G01*
X1722529Y-2537062D01*
X1691033Y-2592953D02*
G01*
X1722529Y-2592953D01*
X1668361Y-2536833D02*
G01*
X1636864Y-2536833D01*
X1624666Y-2549031D02*
G01*
X1624666Y-2580526D01*
X1668361Y-2592723D02*
G01*
X1636864Y-2592723D01*
X2350739Y-2704724D02*
G01*
X2319242Y-2704724D01*
X2362938Y-2661033D02*
G01*
X2362938Y-2692528D01*
X2307046Y-2661033D02*
G01*
X2307046Y-2692528D01*
X2363167Y-2638361D02*
G01*
X2363167Y-2606864D01*
X2350968Y-2594666D02*
G01*
X2319474Y-2594666D01*
X2307277Y-2638361D02*
G01*
X2307277Y-2606864D01*
X2385275Y-2770738D02*
G01*
X2385275Y-2739241D01*
X2428966Y-2782937D02*
G01*
X2397470Y-2782937D01*
X2428966Y-2727046D02*
G01*
X2397470Y-2727046D01*
X2451638Y-2783166D02*
G01*
X2483135Y-2783166D01*
X2495333Y-2770969D02*
G01*
X2495333Y-2739474D01*
X2451638Y-2727276D02*
G01*
X2483135Y-2727276D01*
X2385275Y-2600738D02*
G01*
X2385275Y-2569241D01*
X2428966Y-2612937D02*
G01*
X2397470Y-2612937D01*
X2428966Y-2557046D02*
G01*
X2397470Y-2557046D01*
X2451638Y-2613166D02*
G01*
X2483135Y-2613166D01*
X2495333Y-2600969D02*
G01*
X2495333Y-2569474D01*
X2451638Y-2557276D02*
G01*
X2483135Y-2557276D01*
X1734724Y-2694261D02*
G01*
X1734724Y-2725758D01*
X1691033Y-2682062D02*
G01*
X1722529Y-2682062D01*
X1691033Y-2737953D02*
G01*
X1722529Y-2737953D01*
X1668361Y-2681833D02*
G01*
X1636864Y-2681833D01*
X1624666Y-2694031D02*
G01*
X1624666Y-2725526D01*
X1668361Y-2737723D02*
G01*
X1636864Y-2737723D01*
X1855739Y-2714724D02*
G01*
X1824242Y-2714724D01*
X1867938Y-2671033D02*
G01*
X1867938Y-2702528D01*
X1812046Y-2671033D02*
G01*
X1812046Y-2702528D01*
X1868167Y-2648361D02*
G01*
X1868167Y-2616864D01*
X1855968Y-2604666D02*
G01*
X1824474Y-2604666D01*
X1812277Y-2648361D02*
G01*
X1812277Y-2616864D01*
X2075275Y-2320738D02*
G01*
X2075275Y-2289241D01*
X2118966Y-2332937D02*
G01*
X2087470Y-2332937D01*
X2118966Y-2277046D02*
G01*
X2087470Y-2277046D01*
X2141638Y-2333166D02*
G01*
X2173135Y-2333166D01*
X2185333Y-2320969D02*
G01*
X2185333Y-2289474D01*
X2141638Y-2277276D02*
G01*
X2173135Y-2277276D01*
X2004260Y-2865275D02*
G01*
X2035757Y-2865275D01*
X1992061Y-2908966D02*
G01*
X1992061Y-2877471D01*
X2047953Y-2908966D02*
G01*
X2047953Y-2877471D01*
X1991832Y-2931639D02*
G01*
X1991832Y-2963135D01*
X2004031Y-2975333D02*
G01*
X2035525Y-2975333D01*
X2047722Y-2931639D02*
G01*
X2047722Y-2963135D01*
X2064724Y-2289261D02*
G01*
X2064724Y-2320758D01*
X2021033Y-2277062D02*
G01*
X2052529Y-2277062D01*
X2021033Y-2332953D02*
G01*
X2052529Y-2332953D01*
X1998361Y-2276833D02*
G01*
X1966864Y-2276833D01*
X1954666Y-2289031D02*
G01*
X1954666Y-2320526D01*
X1998361Y-2332723D02*
G01*
X1966864Y-2332723D01*
X1859260Y-2400275D02*
G01*
X1890757Y-2400275D01*
X1847061Y-2443966D02*
G01*
X1847061Y-2412471D01*
X1902953Y-2443966D02*
G01*
X1902953Y-2412471D01*
X1846832Y-2466639D02*
G01*
X1846832Y-2498135D01*
X1859031Y-2510333D02*
G01*
X1890525Y-2510333D01*
X1902722Y-2466639D02*
G01*
X1902722Y-2498135D01*
X2189260Y-2865275D02*
G01*
X2220757Y-2865275D01*
X2177061Y-2908966D02*
G01*
X2177061Y-2877471D01*
X2232953Y-2908966D02*
G01*
X2232953Y-2877471D01*
X2176832Y-2931639D02*
G01*
X2176832Y-2963135D01*
X2189031Y-2975333D02*
G01*
X2220526Y-2975333D01*
X2232722Y-2931639D02*
G01*
X2232722Y-2963135D01*
X2224260Y-3005275D02*
G01*
X2255757Y-3005275D01*
X2212061Y-3048966D02*
G01*
X2212061Y-3017471D01*
X2267953Y-3048966D02*
G01*
X2267953Y-3017471D01*
X2211832Y-3071639D02*
G01*
X2211832Y-3103135D01*
X2224031Y-3115333D02*
G01*
X2255526Y-3115333D01*
X2267722Y-3071639D02*
G01*
X2267722Y-3103135D01*
X2415739Y-2394724D02*
G01*
X2384242Y-2394724D01*
X2427938Y-2351033D02*
G01*
X2427938Y-2382528D01*
X2372046Y-2351033D02*
G01*
X2372046Y-2382528D01*
X2428167Y-2328361D02*
G01*
X2428167Y-2296864D01*
X2415968Y-2284666D02*
G01*
X2384474Y-2284666D01*
X2372277Y-2328361D02*
G01*
X2372277Y-2296864D01*
X2340739Y-2394724D02*
G01*
X2309242Y-2394724D01*
X2352938Y-2351033D02*
G01*
X2352938Y-2382528D01*
X2297046Y-2351033D02*
G01*
X2297046Y-2382528D01*
X2353167Y-2328361D02*
G01*
X2353167Y-2296864D01*
X2340968Y-2284666D02*
G01*
X2309474Y-2284666D01*
X2297277Y-2328361D02*
G01*
X2297277Y-2296864D01*
X2579260Y-2285275D02*
G01*
X2610757Y-2285275D01*
X2567061Y-2328966D02*
G01*
X2567061Y-2297471D01*
X2622953Y-2328966D02*
G01*
X2622953Y-2297471D01*
X2566832Y-2351639D02*
G01*
X2566832Y-2383135D01*
X2579031Y-2395333D02*
G01*
X2610526Y-2395333D01*
X2622722Y-2351639D02*
G01*
X2622722Y-2383135D01*
X2445275Y-2385738D02*
G01*
X2445275Y-2354241D01*
X2488966Y-2397937D02*
G01*
X2457470Y-2397937D01*
X2488966Y-2342046D02*
G01*
X2457470Y-2342046D01*
X2511638Y-2398166D02*
G01*
X2543135Y-2398166D01*
X2555333Y-2385969D02*
G01*
X2555333Y-2354474D01*
X2511638Y-2342276D02*
G01*
X2543135Y-2342276D01*
D12*
X1911984Y-2845070D02*
G01*
X1911984Y-2903535D01*
X1998015Y-2903535D02*
G01*
X1998015Y-2845070D01*
X1992016Y-2839070D02*
G01*
X1917983Y-2839070D01*
X1911984Y-3034929D02*
G01*
X1911984Y-2976464D01*
X1998015Y-2976464D02*
G01*
X1998015Y-3034929D01*
X1992016Y-3040929D02*
G01*
X1917983Y-3040929D01*
X519243Y-433560D02*
G01*
X519243Y-605756D01*
X846652Y-605756D01*
X930757Y-521653D01*
X930757Y-433560D01*
X519243Y-366439D02*
G01*
X519243Y-194243D01*
X846652Y-194243D01*
X930757Y-278346D01*
X930757Y-366439D01*
X519243Y-933560D02*
G01*
X519243Y-1105756D01*
X846652Y-1105756D01*
X930757Y-1021653D01*
X930757Y-933560D01*
X519243Y-866439D02*
G01*
X519243Y-694243D01*
X846652Y-694243D01*
X930757Y-778346D01*
X930757Y-866439D01*
X1171440Y-464243D02*
G01*
X999242Y-464243D01*
X999242Y-791653D01*
X1083347Y-875756D01*
X1171440Y-875756D01*
X1238559Y-464243D02*
G01*
X1410757Y-464243D01*
X1410757Y-791653D01*
X1326652Y-875756D01*
X1238559Y-875756D01*
X3305757Y-366439D02*
G01*
X3305757Y-194243D01*
X2978347Y-194243D01*
X2894242Y-278346D01*
X2894242Y-366439D01*
X3305757Y-433560D02*
G01*
X3305757Y-605756D01*
X2978347Y-605756D01*
X2894242Y-521653D01*
X2894242Y-433560D01*
X3305757Y-866439D02*
G01*
X3305757Y-694243D01*
X2978347Y-694243D01*
X2894242Y-778346D01*
X2894242Y-866439D01*
X3305757Y-933560D02*
G01*
X3305757Y-1105756D01*
X2978347Y-1105756D01*
X2894242Y-1021653D01*
X2894242Y-933560D01*
X3495757Y-1366439D02*
G01*
X3495757Y-1194243D01*
X3168347Y-1194243D01*
X3084242Y-1278346D01*
X3084242Y-1366439D01*
X3495757Y-1433560D02*
G01*
X3495757Y-1605756D01*
X3168347Y-1605756D01*
X3084242Y-1521653D01*
X3084242Y-1433560D01*
D19*
X1832205Y-2150270D02*
G01*
X1825361Y-2150270D01*
X1832205Y-2209729D02*
G01*
X1825361Y-2209729D01*
X1832205Y-2209729D02*
G01*
X1832205Y-2214101D01*
X1825361Y-2214101D01*
X1825361Y-2145898D02*
G01*
X1832205Y-2145898D01*
X1832205Y-2150270D01*
X1825361Y-2150270D02*
G01*
X1825361Y-2145898D01*
X1825361Y-2214101D02*
G01*
X1825361Y-2209729D01*
X1802564Y-2214101D02*
G01*
X1802564Y-2145898D01*
D12*
X1808189Y-2214101D02*
G01*
X1808189Y-2145898D01*
X1825361Y-2214101D02*
G01*
X1714638Y-2214101D01*
X1714638Y-2214101D02*
G01*
X1714638Y-2207487D01*
X1825361Y-2145898D02*
G01*
X1714638Y-2145898D01*
X1714638Y-2145898D02*
G01*
X1714638Y-2152512D01*
D19*
X1639729Y-2362204D02*
G01*
X1639729Y-2355360D01*
X1580270Y-2362204D02*
G01*
X1580270Y-2355360D01*
X1580270Y-2362204D02*
G01*
X1575897Y-2362204D01*
X1575897Y-2355360D01*
X1644102Y-2355360D02*
G01*
X1644102Y-2362204D01*
X1639729Y-2362204D01*
X1639729Y-2355360D02*
G01*
X1644102Y-2355360D01*
X1575897Y-2355360D02*
G01*
X1580270Y-2355360D01*
X1575897Y-2332564D02*
G01*
X1644102Y-2332564D01*
D12*
X1575897Y-2338189D02*
G01*
X1644102Y-2338189D01*
X1575897Y-2355360D02*
G01*
X1575897Y-2244639D01*
X1575897Y-2244639D02*
G01*
X1582511Y-2244639D01*
X1644102Y-2355360D02*
G01*
X1644102Y-2244639D01*
X1644102Y-2244639D02*
G01*
X1637488Y-2244639D01*
X1798218Y-2389497D02*
G01*
X1798218Y-2320502D01*
X1824182Y-2318533D02*
G01*
X1715817Y-2318533D01*
X1824182Y-2391466D02*
G01*
X1715817Y-2391466D01*
X1715817Y-2391466D02*
G01*
X1715817Y-2383865D01*
X1715817Y-2318533D02*
G01*
X1715817Y-2326134D01*
X1798218Y-2299497D02*
G01*
X1798218Y-2230502D01*
X1824182Y-2228533D02*
G01*
X1715817Y-2228533D01*
X1824182Y-2301466D02*
G01*
X1715817Y-2301466D01*
X1715817Y-2301466D02*
G01*
X1715817Y-2293865D01*
X1715817Y-2228533D02*
G01*
X1715817Y-2236134D01*
D16*
X2280623Y-866359D02*
G01*
X2280623Y-806359D01*
X2129984Y-806359D02*
G01*
X2129984Y-866359D01*
X2280623Y-866359D01*
X1719354Y-806359D02*
G01*
X1719354Y-866359D01*
X1869993Y-866359D01*
X1869993Y-866359D02*
G01*
X1869993Y-806359D01*
X2319996Y-801399D02*
G01*
X2319996Y-716399D01*
X2199996Y-646399D01*
X2099996Y-511399D01*
X1679996Y-801399D02*
G01*
X1679996Y-716399D01*
X1799996Y-646399D01*
X1899996Y-511399D01*
X1449993Y-26359D02*
G01*
X1679993Y-26359D01*
X1679993Y-111359D01*
X1799993Y-181359D01*
X1899993Y-316359D01*
X1449993Y-26359D02*
G01*
X1449993Y-806359D01*
X2549993Y-806359D01*
X2549993Y-26359D01*
X2319993Y-26359D01*
X2319993Y-111359D01*
X2199993Y-181359D01*
X2099993Y-316359D01*
D18*
X1595637Y-1612699D02*
G01*
X1601185Y-1612699D01*
X1545637Y-1612699D02*
G01*
X1553972Y-1612699D01*
X1495637Y-1612699D02*
G01*
X1503972Y-1612699D01*
X1446037Y-1612699D02*
G01*
X1453972Y-1612699D01*
X1404171Y-1378054D02*
G01*
X1398429Y-1378054D01*
X1398429Y-1611518D01*
X1398429Y-1612699D01*
X1404372Y-1612699D01*
X1454171Y-1378054D02*
G01*
X1445838Y-1378054D01*
X1504171Y-1378054D02*
G01*
X1495838Y-1378054D01*
X1554171Y-1378054D02*
G01*
X1545838Y-1378054D01*
X1601580Y-1612699D02*
G01*
X1601580Y-1378054D01*
X1595838Y-1378054D01*
X1587299Y-1310637D02*
G01*
X1587299Y-1316185D01*
X1587299Y-1260637D02*
G01*
X1587299Y-1268971D01*
X1587299Y-1210637D02*
G01*
X1587299Y-1218971D01*
X1587299Y-1161037D02*
G01*
X1587299Y-1168971D01*
X1821944Y-1119171D02*
G01*
X1821944Y-1113429D01*
X1588481Y-1113429D01*
X1587299Y-1113429D01*
X1587299Y-1119371D01*
X1821944Y-1169171D02*
G01*
X1821944Y-1160837D01*
X1821944Y-1219171D02*
G01*
X1821944Y-1210837D01*
X1821944Y-1269171D02*
G01*
X1821944Y-1260837D01*
X1587299Y-1316579D02*
G01*
X1821944Y-1316579D01*
X1821944Y-1310837D01*
X2412700Y-1119362D02*
G01*
X2412700Y-1113814D01*
X2412700Y-1169362D02*
G01*
X2412700Y-1161028D01*
X2412700Y-1219362D02*
G01*
X2412700Y-1211028D01*
X2412700Y-1268962D02*
G01*
X2412700Y-1261028D01*
X2178055Y-1310828D02*
G01*
X2178055Y-1316570D01*
X2411518Y-1316570D01*
X2412700Y-1316570D01*
X2412700Y-1310628D01*
X2178055Y-1260828D02*
G01*
X2178055Y-1269162D01*
X2178055Y-1210828D02*
G01*
X2178055Y-1219162D01*
X2178055Y-1160828D02*
G01*
X2178055Y-1169162D01*
X2412700Y-1113420D02*
G01*
X2178055Y-1113420D01*
X2178055Y-1119162D01*
X2595637Y-1612699D02*
G01*
X2601185Y-1612699D01*
X2545637Y-1612699D02*
G01*
X2553972Y-1612699D01*
X2495637Y-1612699D02*
G01*
X2503972Y-1612699D01*
X2446037Y-1612699D02*
G01*
X2453972Y-1612699D01*
X2404171Y-1378054D02*
G01*
X2398429Y-1378054D01*
X2398429Y-1611518D01*
X2398429Y-1612699D01*
X2404372Y-1612699D01*
X2454171Y-1378054D02*
G01*
X2445838Y-1378054D01*
X2504171Y-1378054D02*
G01*
X2495838Y-1378054D01*
X2554171Y-1378054D02*
G01*
X2545838Y-1378054D01*
X2601580Y-1612699D02*
G01*
X2601580Y-1378054D01*
X2595838Y-1378054D01*
D16*
X1235434Y-1452361D02*
G01*
X1302363Y-1452361D01*
X1164569Y-1452361D02*
G01*
X1097640Y-1452361D01*
X1164569Y-1747638D02*
G01*
X1097640Y-1747638D01*
X1235434Y-1747638D02*
G01*
X1302363Y-1747638D01*
X1097640Y-1452361D02*
G01*
X1097640Y-1747638D01*
X1302363Y-1452361D02*
G01*
X1302363Y-1747638D01*
D12*
X1921008Y-2068220D02*
G01*
X1921008Y-2030468D01*
X1868991Y-2030468D01*
X1868991Y-2068220D01*
X1921008Y-2101779D02*
G01*
X1921008Y-2139531D01*
X1868991Y-2139531D01*
X1868991Y-2101779D01*
X2031008Y-2103220D02*
G01*
X2031008Y-2065468D01*
X1978991Y-2065468D01*
X1978991Y-2103220D01*
X2031008Y-2136779D02*
G01*
X2031008Y-2174531D01*
X1978991Y-2174531D01*
X1978991Y-2136779D01*
X2106008Y-2103220D02*
G01*
X2106008Y-2065468D01*
X2053991Y-2065468D01*
X2053991Y-2103220D01*
X2106008Y-2136779D02*
G01*
X2106008Y-2174531D01*
X2053991Y-2174531D01*
X2053991Y-2136779D01*
X2176008Y-2103220D02*
G01*
X2176008Y-2065468D01*
X2123991Y-2065468D01*
X2123991Y-2103220D01*
X2176008Y-2136779D02*
G01*
X2176008Y-2174531D01*
X2123991Y-2174531D01*
X2123991Y-2136779D01*
X1861779Y-2561008D02*
G01*
X1899530Y-2561008D01*
X1899530Y-2508991D01*
X1861779Y-2508991D01*
X1828220Y-2561008D02*
G01*
X1790469Y-2561008D01*
X1790469Y-2508991D01*
X1828220Y-2508991D01*
X2573220Y-2528991D02*
G01*
X2535469Y-2528991D01*
X2535469Y-2581008D01*
X2573220Y-2581008D01*
X2606779Y-2528991D02*
G01*
X2644530Y-2528991D01*
X2644530Y-2581008D01*
X2606779Y-2581008D01*
X1696779Y-2531008D02*
G01*
X1734530Y-2531008D01*
X1734530Y-2478991D01*
X1696779Y-2478991D01*
X1663220Y-2531008D02*
G01*
X1625469Y-2531008D01*
X1625469Y-2478991D01*
X1663220Y-2478991D01*
X2208991Y-2356779D02*
G01*
X2208991Y-2394531D01*
X2261008Y-2394531D01*
X2261008Y-2356779D01*
X2208991Y-2323220D02*
G01*
X2208991Y-2285468D01*
X2261008Y-2285468D01*
X2261008Y-2323220D01*
X2456779Y-2666008D02*
G01*
X2494530Y-2666008D01*
X2494530Y-2613991D01*
X2456779Y-2613991D01*
X2423220Y-2666008D02*
G01*
X2385469Y-2666008D01*
X2385469Y-2613991D01*
X2423220Y-2613991D01*
X2456779Y-2721008D02*
G01*
X2494530Y-2721008D01*
X2494530Y-2668991D01*
X2456779Y-2668991D01*
X2423220Y-2721008D02*
G01*
X2385469Y-2721008D01*
X2385469Y-2668991D01*
X2423220Y-2668991D01*
X1733220Y-2603991D02*
G01*
X1695469Y-2603991D01*
X1695469Y-2656008D01*
X1733220Y-2656008D01*
X1766779Y-2603991D02*
G01*
X1804530Y-2603991D01*
X1804530Y-2656008D01*
X1766779Y-2656008D01*
X1728220Y-2078991D02*
G01*
X1690469Y-2078991D01*
X1690469Y-2131008D01*
X1728220Y-2131008D01*
X1761779Y-2078991D02*
G01*
X1799530Y-2078991D01*
X1799530Y-2131008D01*
X1761779Y-2131008D01*
X2286008Y-2903220D02*
G01*
X2286008Y-2865468D01*
X2233991Y-2865468D01*
X2233991Y-2903220D01*
X2286008Y-2936779D02*
G01*
X2286008Y-2974531D01*
X2233991Y-2974531D01*
X2233991Y-2936779D01*
X2083991Y-3076779D02*
G01*
X2083991Y-3114531D01*
X2136008Y-3114531D01*
X2136008Y-3076779D01*
X2083991Y-3043220D02*
G01*
X2083991Y-3005468D01*
X2136008Y-3005468D01*
X2136008Y-3043220D01*
X2196008Y-3043220D02*
G01*
X2196008Y-3005468D01*
X2143991Y-3005468D01*
X2143991Y-3043220D01*
X2196008Y-3076779D02*
G01*
X2196008Y-3114531D01*
X2143991Y-3114531D01*
X2143991Y-3076779D01*
X2483220Y-2283991D02*
G01*
X2445469Y-2283991D01*
X2445469Y-2336008D01*
X2483220Y-2336008D01*
X2516779Y-2283991D02*
G01*
X2554530Y-2283991D01*
X2554530Y-2336008D01*
X2516779Y-2336008D01*
X2456779Y-2471008D02*
G01*
X2494530Y-2471008D01*
X2494530Y-2418991D01*
X2456779Y-2418991D01*
X2423220Y-2471008D02*
G01*
X2385469Y-2471008D01*
X2385469Y-2418991D01*
X2423220Y-2418991D01*
X2423220Y-2468991D02*
G01*
X2385469Y-2468991D01*
X2385469Y-2521008D01*
X2423220Y-2521008D01*
X2456779Y-2468991D02*
G01*
X2494530Y-2468991D01*
X2494530Y-2521008D01*
X2456779Y-2521008D01*
X1321008Y-2608220D02*
G01*
X1321008Y-2570468D01*
X1268991Y-2570468D01*
X1268991Y-2608220D01*
X1321008Y-2641779D02*
G01*
X1321008Y-2679531D01*
X1268991Y-2679531D01*
X1268991Y-2641779D01*
X2456779Y-2841008D02*
G01*
X2494530Y-2841008D01*
X2494530Y-2788991D01*
X2456779Y-2788991D01*
X2423220Y-2841008D02*
G01*
X2385469Y-2841008D01*
X2385469Y-2788991D01*
X2423220Y-2788991D01*
X2423220Y-2843991D02*
G01*
X2385469Y-2843991D01*
X2385469Y-2896008D01*
X2423220Y-2896008D01*
X2456779Y-2843991D02*
G01*
X2494530Y-2843991D01*
X2494530Y-2896008D01*
X2456779Y-2896008D01*
D16*
X2539994Y-2444994D02*
G01*
X2639994Y-2444994D01*
X2639994Y-2524994D01*
X2539994Y-2524994D01*
X2539994Y-2444994D01*
X1569997Y-2814994D02*
G01*
X1469997Y-2814994D01*
X1469997Y-2734994D01*
X1569997Y-2734994D01*
X1569997Y-2814994D01*
X2270000Y-2255000D02*
G01*
X2270000Y-2155000D01*
X2350000Y-2155000D01*
X2350000Y-2255000D01*
X2270000Y-2255000D01*
X2355000Y-2255000D02*
G01*
X2355000Y-2155000D01*
X2435000Y-2155000D01*
X2435000Y-2255000D01*
X2355000Y-2255000D01*
X1470000Y-2455000D02*
G01*
X1570000Y-2455000D01*
X1570000Y-2535000D01*
X1470000Y-2535000D01*
X1470000Y-2455000D01*
X2545000Y-2645000D02*
G01*
X2645000Y-2645000D01*
X2645000Y-2725000D01*
X2545000Y-2725000D01*
X2545000Y-2645000D01*
X2345000Y-3110000D02*
G01*
X2345000Y-3010000D01*
X2425000Y-3010000D01*
X2425000Y-3110000D01*
X2345000Y-3110000D01*
X2445000Y-3110000D02*
G01*
X2445000Y-3010000D01*
X2525000Y-3010000D01*
X2525000Y-3110000D01*
X2445000Y-3110000D01*
X2167920Y-2727482D02*
G01*
X2183427Y-2727482D01*
X1986576Y-2664249D02*
G01*
X1986576Y-2662763D01*
X2183427Y-2711975D02*
G01*
X2183427Y-2727482D01*
X2167920Y-2412521D02*
G01*
X2183427Y-2412521D01*
X2183427Y-2428027D01*
X2069495Y-2412521D02*
G01*
X2080824Y-2412521D01*
X1986576Y-2428027D02*
G01*
X1986576Y-2412521D01*
X2002084Y-2412521D01*
X1986576Y-2496925D02*
G01*
X1986576Y-2495441D01*
X1986576Y-2585509D02*
G01*
X1986576Y-2584023D01*
X1986576Y-2615036D02*
G01*
X1986576Y-2613551D01*
X1986576Y-2727482D02*
G01*
X1986576Y-2711975D01*
X2030126Y-2727482D02*
G01*
X2041454Y-2727482D01*
X1986576Y-2727482D02*
G01*
X2002084Y-2727482D01*
D12*
X2344142Y-1484701D02*
G01*
X2265007Y-1484701D01*
X2265007Y-1715299D02*
G01*
X2344142Y-1715299D01*
X2350141Y-1709299D02*
G01*
X2350141Y-1490700D01*
X2055857Y-1484701D02*
G01*
X2134992Y-1484701D01*
X2134992Y-1715299D02*
G01*
X2055857Y-1715299D01*
X2049858Y-1709299D02*
G01*
X2049858Y-1490700D01*
X1055857Y-1415299D02*
G01*
X1134992Y-1415299D01*
X1134992Y-1184701D02*
G01*
X1055857Y-1184701D01*
X1049858Y-1190700D02*
G01*
X1049858Y-1409299D01*
X1344142Y-1415299D02*
G01*
X1265007Y-1415299D01*
X1265007Y-1184701D02*
G01*
X1344142Y-1184701D01*
X1350141Y-1190700D02*
G01*
X1350141Y-1409299D01*
X1655857Y-1715299D02*
G01*
X1734992Y-1715299D01*
X1734992Y-1484701D02*
G01*
X1655857Y-1484701D01*
X1649858Y-1490700D02*
G01*
X1649858Y-1709299D01*
X1944142Y-1715299D02*
G01*
X1865007Y-1715299D01*
X1865007Y-1484701D02*
G01*
X1944142Y-1484701D01*
X1950141Y-1490700D02*
G01*
X1950141Y-1709299D01*
X2944142Y-1184701D02*
G01*
X2865007Y-1184701D01*
X2865007Y-1415299D02*
G01*
X2944142Y-1415299D01*
X2950141Y-1409299D02*
G01*
X2950141Y-1190700D01*
X2655857Y-1184701D02*
G01*
X2734992Y-1184701D01*
X2734992Y-1415299D02*
G01*
X2655857Y-1415299D01*
X2649858Y-1409299D02*
G01*
X2649858Y-1190700D01*
D16*
X4526Y-794879D02*
G01*
X83269Y-794879D01*
X4526Y-405117D02*
G01*
X83269Y-405117D01*
X83269Y-865745D02*
G01*
X83269Y-794881D01*
X162008Y-843461D02*
G01*
X162008Y-865745D01*
X162008Y-865745D02*
G01*
X83269Y-865745D01*
X83269Y-334252D02*
G01*
X83269Y-405117D01*
X162008Y-334252D02*
G01*
X83269Y-334252D01*
X162008Y-356536D02*
G01*
X162008Y-334252D01*
X238773Y-659056D02*
G01*
X278045Y-659056D01*
X238773Y-737793D02*
G01*
X276044Y-737793D01*
X238773Y-649212D02*
G01*
X238773Y-747640D01*
X162002Y-747640D02*
G01*
X238773Y-747640D01*
X162002Y-649212D02*
G01*
X238773Y-649212D01*
X238778Y-462204D02*
G01*
X278049Y-462204D01*
X238778Y-540945D02*
G01*
X276048Y-540945D01*
X238778Y-452363D02*
G01*
X238778Y-550790D01*
X162008Y-550790D02*
G01*
X238778Y-550790D01*
X162008Y-452363D02*
G01*
X238778Y-452363D01*
X162008Y-410374D02*
G01*
X162008Y-789625D01*
X4526Y-794879D02*
G01*
X4526Y-405117D01*
X-231696Y-777163D02*
G01*
X4524Y-777163D01*
X-231696Y-422833D02*
G01*
X4526Y-422833D01*
X-231696Y-422833D02*
G01*
X-231696Y-777163D01*
X3820474Y-405120D02*
G01*
X3741731Y-405120D01*
X3820474Y-794882D02*
G01*
X3741731Y-794882D01*
X3741731Y-334254D02*
G01*
X3741731Y-405118D01*
X3662992Y-356538D02*
G01*
X3662992Y-334254D01*
X3662992Y-334254D02*
G01*
X3741731Y-334254D01*
X3741731Y-865747D02*
G01*
X3741731Y-794882D01*
X3662992Y-865747D02*
G01*
X3741731Y-865747D01*
X3662992Y-843463D02*
G01*
X3662992Y-865747D01*
X3586225Y-540943D02*
G01*
X3546953Y-540943D01*
X3586225Y-462206D02*
G01*
X3548954Y-462206D01*
X3586225Y-550787D02*
G01*
X3586225Y-452359D01*
X3662996Y-452359D02*
G01*
X3586225Y-452359D01*
X3662996Y-550787D02*
G01*
X3586225Y-550787D01*
X3586220Y-737795D02*
G01*
X3546949Y-737795D01*
X3586220Y-659054D02*
G01*
X3548951Y-659054D01*
X3586220Y-747636D02*
G01*
X3586220Y-649209D01*
X3662992Y-649209D02*
G01*
X3586220Y-649209D01*
X3662992Y-747636D02*
G01*
X3586220Y-747636D01*
X3662992Y-789625D02*
G01*
X3662992Y-410374D01*
X3820474Y-405120D02*
G01*
X3820474Y-794882D01*
X4056696Y-422836D02*
G01*
X3820474Y-422836D01*
X4056696Y-777166D02*
G01*
X3820474Y-777166D01*
X4056696Y-777166D02*
G01*
X4056696Y-422836D01*
X4526Y-1674879D02*
G01*
X83269Y-1674879D01*
X4526Y-1285117D02*
G01*
X83269Y-1285117D01*
X83269Y-1745745D02*
G01*
X83269Y-1674881D01*
X162008Y-1723461D02*
G01*
X162008Y-1745745D01*
X162008Y-1745745D02*
G01*
X83269Y-1745745D01*
X83269Y-1214252D02*
G01*
X83269Y-1285117D01*
X162008Y-1214252D02*
G01*
X83269Y-1214252D01*
X162008Y-1236536D02*
G01*
X162008Y-1214252D01*
X238773Y-1539056D02*
G01*
X278045Y-1539056D01*
X238773Y-1617793D02*
G01*
X276044Y-1617793D01*
X238773Y-1529212D02*
G01*
X238773Y-1627640D01*
X162002Y-1627640D02*
G01*
X238773Y-1627640D01*
X162002Y-1529212D02*
G01*
X238773Y-1529212D01*
X238778Y-1342204D02*
G01*
X278049Y-1342204D01*
X238778Y-1420945D02*
G01*
X276048Y-1420945D01*
X238778Y-1332363D02*
G01*
X238778Y-1430790D01*
X162008Y-1430790D02*
G01*
X238778Y-1430790D01*
X162008Y-1332363D02*
G01*
X238778Y-1332363D01*
X162008Y-1290374D02*
G01*
X162008Y-1669625D01*
X4526Y-1674879D02*
G01*
X4526Y-1285117D01*
X-231696Y-1657163D02*
G01*
X4524Y-1657163D01*
X-231696Y-1302833D02*
G01*
X4526Y-1302833D01*
X-231696Y-1302833D02*
G01*
X-231696Y-1657163D01*
D13*
X1369016Y-2704571D02*
G01*
X1369016Y-2705945D01*
X1420591Y-2625428D02*
G01*
X1420591Y-2623661D01*
X1369016Y-2623661D01*
X1369016Y-2625428D01*
X1369016Y-2706338D02*
G01*
X1420591Y-2706338D01*
X1420591Y-2704571D01*
D12*
G75*
G01*
X1029929Y-1848016D02*
G03*
X1035929Y-1842016I0J6000D01*
G75*
G01*
X1035929Y-1767984D02*
G03*
X1029929Y-1761984I-6000J0D01*
G75*
G01*
X840071Y-1848016D02*
G02*
X834071Y-1842016I0J6000D01*
G75*
G01*
X834071Y-1767984D02*
G02*
X840071Y-1761984I6000J0D01*
D16*
G75*
G01*
X1144663Y-1894027D02*
G02*
X1156861Y-1881829I12198J0D01*
G75*
G01*
X1156861Y-1937721D02*
G02*
X1144663Y-1925522I0J12198D01*
G75*
G01*
X1242525Y-1882058D02*
G02*
X1254723Y-1894257I0J-12198D01*
G75*
G01*
X1254723Y-1925752D02*
G02*
X1242525Y-1937950I-12198J0D01*
G75*
G01*
X1300966Y-1769661D02*
G02*
X1313164Y-1781859I0J-12198D01*
G75*
G01*
X1257272Y-1781859D02*
G02*
X1269471Y-1769661I12198J0D01*
G75*
G01*
X1312935Y-1867523D02*
G02*
X1300736Y-1879721I-12198J0D01*
G75*
G01*
X1269241Y-1879721D02*
G02*
X1257043Y-1867523I0J12198D01*
G75*
G01*
X1130967Y-1769661D02*
G02*
X1143165Y-1781859I0J-12198D01*
G75*
G01*
X1087273Y-1781859D02*
G02*
X1099472Y-1769661I12198J0D01*
G75*
G01*
X1142936Y-1867523D02*
G02*
X1130737Y-1879721I-12198J0D01*
G75*
G01*
X1099242Y-1879721D02*
G02*
X1087044Y-1867523I0J12198D01*
G75*
G01*
X544665Y-1899031D02*
G02*
X556863Y-1886833I12198J0D01*
G75*
G01*
X556863Y-1942725D02*
G02*
X544665Y-1930526I0J12198D01*
G75*
G01*
X642527Y-1887062D02*
G02*
X654725Y-1899261I0J-12198D01*
G75*
G01*
X654725Y-1930756D02*
G02*
X642527Y-1942954I-12198J0D01*
G75*
G01*
X535969Y-1774665D02*
G02*
X548167Y-1786863I0J-12198D01*
G75*
G01*
X492275Y-1786863D02*
G02*
X504474Y-1774665I12198J0D01*
G75*
G01*
X547938Y-1872527D02*
G02*
X535739Y-1884725I-12198J0D01*
G75*
G01*
X504244Y-1884725D02*
G02*
X492046Y-1872527I0J12198D01*
G75*
G01*
X669031Y-1885335D02*
G02*
X656833Y-1873137I0J12198D01*
G75*
G01*
X712725Y-1873137D02*
G02*
X700526Y-1885335I-12198J0D01*
G75*
G01*
X657062Y-1787473D02*
G02*
X669261Y-1775275I12198J0D01*
G75*
G01*
X700756Y-1775275D02*
G02*
X712954Y-1787473I0J-12198D01*
G75*
G01*
X1399665Y-2229031D02*
G02*
X1411863Y-2216833I12198J0D01*
G75*
G01*
X1411863Y-2272725D02*
G02*
X1399665Y-2260526I0J12198D01*
G75*
G01*
X1497527Y-2217062D02*
G02*
X1509725Y-2229261I0J-12198D01*
G75*
G01*
X1509725Y-2260756D02*
G02*
X1497527Y-2272954I-12198J0D01*
G75*
G01*
X1399665Y-2039031D02*
G02*
X1411863Y-2026833I12198J0D01*
G75*
G01*
X1411863Y-2082725D02*
G02*
X1399665Y-2070526I0J12198D01*
G75*
G01*
X1497527Y-2027062D02*
G02*
X1509725Y-2039261I0J-12198D01*
G75*
G01*
X1509725Y-2070756D02*
G02*
X1497527Y-2082954I-12198J0D01*
G75*
G01*
X1290333Y-2110965D02*
G02*
X1278135Y-2123163I-12198J0D01*
G75*
G01*
X1278135Y-2067271D02*
G02*
X1290333Y-2079470I0J-12198D01*
G75*
G01*
X1192471Y-2122934D02*
G02*
X1180273Y-2110735I0J12198D01*
G75*
G01*
X1180273Y-2079240D02*
G02*
X1192471Y-2067042I12198J0D01*
G75*
G01*
X1310335Y-2300969D02*
G02*
X1298137Y-2313167I-12198J0D01*
G75*
G01*
X1298137Y-2257275D02*
G02*
X1310335Y-2269474I0J-12198D01*
G75*
G01*
X1212473Y-2312938D02*
G02*
X1200275Y-2300739I0J12198D01*
G75*
G01*
X1200275Y-2269244D02*
G02*
X1212473Y-2257046I12198J0D01*
G75*
G01*
X484031Y-2140335D02*
G02*
X471833Y-2128137I0J12198D01*
G75*
G01*
X527725Y-2128137D02*
G02*
X515526Y-2140335I-12198J0D01*
G75*
G01*
X472062Y-2042473D02*
G02*
X484261Y-2030275I12198J0D01*
G75*
G01*
X515756Y-2030275D02*
G02*
X527954Y-2042473I0J-12198D01*
G75*
G01*
X559664Y-2249026D02*
G02*
X571862Y-2236828I12198J0D01*
G75*
G01*
X571862Y-2292720D02*
G02*
X559664Y-2280521I0J12198D01*
G75*
G01*
X657526Y-2237057D02*
G02*
X669724Y-2249256I0J-12198D01*
G75*
G01*
X669724Y-2280751D02*
G02*
X657526Y-2292949I-12198J0D01*
G75*
G01*
X824031Y-2150335D02*
G02*
X811833Y-2138137I0J12198D01*
G75*
G01*
X867725Y-2138137D02*
G02*
X855526Y-2150335I-12198J0D01*
G75*
G01*
X812062Y-2052473D02*
G02*
X824261Y-2040275I12198J0D01*
G75*
G01*
X855756Y-2040275D02*
G02*
X867954Y-2052473I0J-12198D01*
D18*
G75*
G01*
X1280500Y-1941795D02*
G02*
X1229500Y-1941795I-25500J0D01*
G75*
G01*
X658205Y-2110500D02*
G02*
X658205Y-2059500I0J25500D01*
G75*
G01*
X1280500Y-2131795D02*
G02*
X1229500Y-2131795I-25500J0D01*
D12*
G75*
G01*
X2360575Y-2848693D02*
G03*
X2354575Y-2842693I-6000J0D01*
G75*
G01*
X2295425Y-2842693D02*
G03*
X2289425Y-2848693I0J-6000D01*
G75*
G01*
X2360575Y-2991307D02*
G02*
X2354575Y-2997307I-6000J0D01*
G75*
G01*
X2295425Y-2997307D02*
G02*
X2289425Y-2991307I0J6000D01*
D16*
G75*
G01*
X2495335Y-2945969D02*
G02*
X2483137Y-2958167I-12198J0D01*
G75*
G01*
X2483137Y-2902275D02*
G02*
X2495335Y-2914474I0J-12198D01*
G75*
G01*
X2397473Y-2957938D02*
G02*
X2385275Y-2945739I0J12198D01*
G75*
G01*
X2385275Y-2914244D02*
G02*
X2397473Y-2902046I12198J0D01*
G75*
G01*
X2645335Y-2635969D02*
G02*
X2633137Y-2648167I-12198J0D01*
G75*
G01*
X2633137Y-2592275D02*
G02*
X2645335Y-2604474I0J-12198D01*
G75*
G01*
X2547473Y-2647938D02*
G02*
X2535275Y-2635739I0J12198D01*
G75*
G01*
X2535275Y-2604244D02*
G02*
X2547473Y-2592046I12198J0D01*
G75*
G01*
X1624665Y-2549031D02*
G02*
X1636863Y-2536833I12198J0D01*
G75*
G01*
X1636863Y-2592725D02*
G02*
X1624665Y-2580526I0J12198D01*
G75*
G01*
X1722527Y-2537062D02*
G02*
X1734725Y-2549261I0J-12198D01*
G75*
G01*
X1734725Y-2580756D02*
G02*
X1722527Y-2592954I-12198J0D01*
G75*
G01*
X2350969Y-2594665D02*
G02*
X2363167Y-2606863I0J-12198D01*
G75*
G01*
X2307275Y-2606863D02*
G02*
X2319474Y-2594665I12198J0D01*
G75*
G01*
X2362938Y-2692527D02*
G02*
X2350739Y-2704725I-12198J0D01*
G75*
G01*
X2319244Y-2704725D02*
G02*
X2307046Y-2692527I0J12198D01*
G75*
G01*
X2495335Y-2770969D02*
G02*
X2483137Y-2783167I-12198J0D01*
G75*
G01*
X2483137Y-2727275D02*
G02*
X2495335Y-2739474I0J-12198D01*
G75*
G01*
X2397473Y-2782938D02*
G02*
X2385275Y-2770739I0J12198D01*
G75*
G01*
X2385275Y-2739244D02*
G02*
X2397473Y-2727046I12198J0D01*
G75*
G01*
X2495335Y-2600969D02*
G02*
X2483137Y-2613167I-12198J0D01*
G75*
G01*
X2483137Y-2557275D02*
G02*
X2495335Y-2569474I0J-12198D01*
G75*
G01*
X2397473Y-2612938D02*
G02*
X2385275Y-2600739I0J12198D01*
G75*
G01*
X2385275Y-2569244D02*
G02*
X2397473Y-2557046I12198J0D01*
G75*
G01*
X1624665Y-2694031D02*
G02*
X1636863Y-2681833I12198J0D01*
G75*
G01*
X1636863Y-2737725D02*
G02*
X1624665Y-2725526I0J12198D01*
G75*
G01*
X1722527Y-2682062D02*
G02*
X1734725Y-2694261I0J-12198D01*
G75*
G01*
X1734725Y-2725756D02*
G02*
X1722527Y-2737954I-12198J0D01*
G75*
G01*
X1855969Y-2604665D02*
G02*
X1868167Y-2616863I0J-12198D01*
G75*
G01*
X1812275Y-2616863D02*
G02*
X1824474Y-2604665I12198J0D01*
G75*
G01*
X1867938Y-2702527D02*
G02*
X1855739Y-2714725I-12198J0D01*
G75*
G01*
X1824244Y-2714725D02*
G02*
X1812046Y-2702527I0J12198D01*
G75*
G01*
X2185335Y-2320969D02*
G02*
X2173137Y-2333167I-12198J0D01*
G75*
G01*
X2173137Y-2277275D02*
G02*
X2185335Y-2289474I0J-12198D01*
G75*
G01*
X2087473Y-2332938D02*
G02*
X2075275Y-2320739I0J12198D01*
G75*
G01*
X2075275Y-2289244D02*
G02*
X2087473Y-2277046I12198J0D01*
G75*
G01*
X2004031Y-2975335D02*
G02*
X1991833Y-2963137I0J12198D01*
G75*
G01*
X2047725Y-2963137D02*
G02*
X2035526Y-2975335I-12198J0D01*
G75*
G01*
X1992062Y-2877473D02*
G02*
X2004261Y-2865275I12198J0D01*
G75*
G01*
X2035756Y-2865275D02*
G02*
X2047954Y-2877473I0J-12198D01*
G75*
G01*
X1954665Y-2289031D02*
G02*
X1966863Y-2276833I12198J0D01*
G75*
G01*
X1966863Y-2332725D02*
G02*
X1954665Y-2320526I0J12198D01*
G75*
G01*
X2052527Y-2277062D02*
G02*
X2064725Y-2289261I0J-12198D01*
G75*
G01*
X2064725Y-2320756D02*
G02*
X2052527Y-2332954I-12198J0D01*
G75*
G01*
X1859031Y-2510335D02*
G02*
X1846833Y-2498137I0J12198D01*
G75*
G01*
X1902725Y-2498137D02*
G02*
X1890526Y-2510335I-12198J0D01*
G75*
G01*
X1847062Y-2412473D02*
G02*
X1859261Y-2400275I12198J0D01*
G75*
G01*
X1890756Y-2400275D02*
G02*
X1902954Y-2412473I0J-12198D01*
G75*
G01*
X2189031Y-2975335D02*
G02*
X2176833Y-2963137I0J12198D01*
G75*
G01*
X2232725Y-2963137D02*
G02*
X2220526Y-2975335I-12198J0D01*
G75*
G01*
X2177062Y-2877473D02*
G02*
X2189261Y-2865275I12198J0D01*
G75*
G01*
X2220756Y-2865275D02*
G02*
X2232954Y-2877473I0J-12198D01*
G75*
G01*
X2224031Y-3115335D02*
G02*
X2211833Y-3103137I0J12198D01*
G75*
G01*
X2267725Y-3103137D02*
G02*
X2255526Y-3115335I-12198J0D01*
G75*
G01*
X2212062Y-3017473D02*
G02*
X2224261Y-3005275I12198J0D01*
G75*
G01*
X2255756Y-3005275D02*
G02*
X2267954Y-3017473I0J-12198D01*
G75*
G01*
X2415969Y-2284665D02*
G02*
X2428167Y-2296863I0J-12198D01*
G75*
G01*
X2372275Y-2296863D02*
G02*
X2384474Y-2284665I12198J0D01*
G75*
G01*
X2427938Y-2382527D02*
G02*
X2415739Y-2394725I-12198J0D01*
G75*
G01*
X2384244Y-2394725D02*
G02*
X2372046Y-2382527I0J12198D01*
G75*
G01*
X2340969Y-2284665D02*
G02*
X2353167Y-2296863I0J-12198D01*
G75*
G01*
X2297275Y-2296863D02*
G02*
X2309474Y-2284665I12198J0D01*
G75*
G01*
X2352938Y-2382527D02*
G02*
X2340739Y-2394725I-12198J0D01*
G75*
G01*
X2309244Y-2394725D02*
G02*
X2297046Y-2382527I0J12198D01*
G75*
G01*
X2579031Y-2395335D02*
G02*
X2566833Y-2383137I0J12198D01*
G75*
G01*
X2622725Y-2383137D02*
G02*
X2610526Y-2395335I-12198J0D01*
G75*
G01*
X2567062Y-2297473D02*
G02*
X2579261Y-2285275I12198J0D01*
G75*
G01*
X2610756Y-2285275D02*
G02*
X2622954Y-2297473I0J-12198D01*
G75*
G01*
X2555335Y-2385969D02*
G02*
X2543137Y-2398167I-12198J0D01*
G75*
G01*
X2543137Y-2342275D02*
G02*
X2555335Y-2354474I0J-12198D01*
G75*
G01*
X2457473Y-2397938D02*
G02*
X2445275Y-2385739I0J12198D01*
G75*
G01*
X2445275Y-2354244D02*
G02*
X2457473Y-2342046I12198J0D01*
D12*
G75*
G01*
X1998016Y-2845071D02*
G03*
X1992016Y-2839071I-6000J0D01*
G75*
G01*
X1917984Y-2839071D02*
G03*
X1911984Y-2845071I0J-6000D01*
G75*
G01*
X1998016Y-3034929D02*
G02*
X1992016Y-3040929I-6000J0D01*
G75*
G01*
X1917984Y-3040929D02*
G02*
X1911984Y-3034929I0J6000D01*
D16*
G75*
G01*
X1753072Y-681688D02*
G03*
X2251205Y-678399I247649J216392D01*
G75*
G01*
X2251918Y-151071D02*
G03*
X2130253Y-63681I-247649J-216392D01*
G75*
G01*
X1872684Y-66066D02*
G03*
X1753785Y-154360I131585J-301398D01*
G75*
G01*
X1899995Y-511399D02*
G03*
X2100005Y-511399I100005J107564D01*
G75*
G01*
X2099995Y-316360D02*
G03*
X1899985Y-316360I-100005J-107564D01*
D20*
G75*
G01*
X1616146Y-1359945D02*
G03*
X1616146Y-1360045I-4900J-50D01*
G75*
G01*
X1840055Y-1331146D02*
G03*
X1839955Y-1331146I-50J4900D01*
G75*
G01*
X2159945Y-1098854D02*
G03*
X2160045Y-1098854I50J-4900D01*
G75*
G01*
X2616146Y-1359945D02*
G03*
X2616146Y-1360045I-4900J-50D01*
D12*
G75*
G01*
X2344142Y-1715299D02*
G03*
X2350142Y-1709299I0J6000D01*
G75*
G01*
X2350142Y-1490701D02*
G03*
X2344142Y-1484701I-6000J0D01*
G75*
G01*
X2055858Y-1715299D02*
G02*
X2049858Y-1709299I0J6000D01*
G75*
G01*
X2049858Y-1490701D02*
G02*
X2055858Y-1484701I6000J0D01*
G75*
G01*
X1055858Y-1184701D02*
G03*
X1049858Y-1190701I0J-6000D01*
G75*
G01*
X1049858Y-1409299D02*
G03*
X1055858Y-1415299I6000J0D01*
G75*
G01*
X1344142Y-1184701D02*
G02*
X1350142Y-1190701I0J-6000D01*
G75*
G01*
X1350142Y-1409299D02*
G02*
X1344142Y-1415299I-6000J0D01*
G75*
G01*
X1655858Y-1484701D02*
G03*
X1649858Y-1490701I0J-6000D01*
G75*
G01*
X1649858Y-1709299D02*
G03*
X1655858Y-1715299I6000J0D01*
G75*
G01*
X1944142Y-1484701D02*
G02*
X1950142Y-1490701I0J-6000D01*
G75*
G01*
X1950142Y-1709299D02*
G02*
X1944142Y-1715299I-6000J0D01*
G75*
G01*
X2944142Y-1415299D02*
G03*
X2950142Y-1409299I0J6000D01*
G75*
G01*
X2950142Y-1190701D02*
G03*
X2944142Y-1184701I-6000J0D01*
G75*
G01*
X2655858Y-1415299D02*
G02*
X2649858Y-1409299I0J6000D01*
G75*
G01*
X2649858Y-1190701D02*
G02*
X2655858Y-1184701I6000J0D01*
D21*
G75*
G01
X585910Y-2320000D02*
G03X585910Y-2320000I-5910J0D01*
G75*
G01
X536420Y-2301640D02*
G03X536420Y-2301640I-5910J0D01*
D22*
G75*
G01
X1173110Y-1935040D02*
G03X1173110Y-1935040I-4720J0D01*
G75*
G01
X669680Y-1998390D02*
G03X669680Y-1998390I-4720J0D01*
G75*
G01
X1173110Y-2125040D02*
G03X1173110Y-2125040I-4720J0D01*
D23*
G75*
G01
X2213940Y-2700000D02*
G03X2213940Y-2700000I-3940J0D01*
G75*
G01
X1439490Y-2712640D02*
G03X1439490Y-2712640I-3940J0D01*
M02*
