G04 Layer: BottomSilkscreenLayer*
G04 EasyEDA v6.5.37, 2024-09-25 03:55:15*
G04 7e8e10f67f6b4ae2816efe54b0c62c6c,10*
G04 Gerber Generator version 0.2*
G04 Scale: 100 percent, Rotated: No, Reflected: No *
G04 Dimensions in inches *
G04 leading zeros omitted , absolute positions ,3 integer and 6 decimal *
%FSLAX36Y36*%
%MOIN*%

%ADD10C,0.0001*%

%LPD*%
G36*
X288660Y-298580D02*
G01*
X288660Y-301340D01*
X3648220Y-302480D01*
X3648220Y-2970320D01*
X291780Y-2970320D01*
X291780Y-301340D01*
X288660Y-301340D01*
X288660Y-2975000D01*
X3651340Y-2975000D01*
X3651340Y-298580D01*
G37*
G36*
X3196700Y-440340D02*
G01*
X875879Y-442320D01*
X850920Y-457000D01*
X837660Y-481640D01*
X837660Y-483400D01*
X843720Y-483400D01*
X856360Y-461019D01*
X879380Y-448300D01*
X3197240Y-448300D01*
X3221019Y-461120D01*
X3234900Y-488800D01*
X3234760Y-2788620D01*
X3225120Y-2813580D01*
X3199820Y-2831500D01*
X879380Y-2831500D01*
X857159Y-2819160D01*
X845759Y-2801100D01*
X843720Y-483400D01*
X837660Y-483400D01*
X837660Y-2800920D01*
X853820Y-2825520D01*
X878139Y-2837740D01*
X3202500Y-2837740D01*
X3230160Y-2818260D01*
X3240840Y-2791740D01*
X3241139Y-487239D01*
X3225600Y-456260D01*
G37*
G36*
X600620Y-446580D02*
G01*
X558480Y-449460D01*
X530340Y-467800D01*
X513240Y-500300D01*
X513240Y-532620D01*
X519480Y-532620D01*
X519480Y-502500D01*
X535200Y-472480D01*
X558920Y-457000D01*
X576420Y-454799D01*
X600980Y-454540D01*
X630200Y-470340D01*
X645780Y-499000D01*
X645660Y-534860D01*
X632560Y-560460D01*
X606060Y-578900D01*
X569500Y-581180D01*
X537420Y-563960D01*
X519480Y-532620D01*
X513240Y-532620D01*
X513240Y-535240D01*
X532860Y-568980D01*
X568620Y-588440D01*
X608620Y-585280D01*
X637160Y-565400D01*
X651900Y-536420D01*
X652060Y-496500D01*
X639040Y-472480D01*
X633280Y-464099D01*
G37*
G36*
X600320Y-474820D02*
G01*
X549120Y-523740D01*
X549120Y-529140D01*
X555360Y-529140D01*
X555360Y-526840D01*
X601780Y-482720D01*
X606580Y-488080D01*
X569540Y-527060D01*
X569400Y-531920D01*
X580320Y-542500D01*
X580320Y-546560D01*
X575200Y-546560D01*
X555360Y-529140D01*
X549120Y-529140D01*
X549120Y-531340D01*
X569620Y-550960D01*
X578740Y-554740D01*
X586500Y-549640D01*
X588520Y-541640D01*
X576700Y-529560D01*
X608040Y-495880D01*
X614640Y-489920D01*
X614640Y-486640D01*
X603080Y-474820D01*
G37*
G36*
X3463460Y-504460D02*
G01*
X3434580Y-533200D01*
X3408820Y-507440D01*
X3401320Y-505560D01*
X3397120Y-511280D01*
X3397120Y-516719D01*
X3403360Y-516719D01*
X3403360Y-513800D01*
X3406460Y-513800D01*
X3432380Y-540320D01*
X3436840Y-540320D01*
X3465419Y-511860D01*
X3469120Y-514140D01*
X3438660Y-545140D01*
X3460360Y-567620D01*
X3469440Y-577760D01*
X3465320Y-577760D01*
X3436280Y-549280D01*
X3406480Y-576200D01*
X3404920Y-576200D01*
X3404920Y-572960D01*
X3431440Y-545460D01*
X3431440Y-542600D01*
X3403360Y-516719D01*
X3397120Y-516719D01*
X3397120Y-519720D01*
X3422080Y-543200D01*
X3422080Y-545900D01*
X3406300Y-561380D01*
X3397120Y-575180D01*
X3397120Y-580760D01*
X3403159Y-584000D01*
X3410820Y-581080D01*
X3435320Y-559040D01*
X3437100Y-559040D01*
X3467480Y-587540D01*
X3476660Y-578740D01*
X3476660Y-575720D01*
X3448100Y-544780D01*
X3476660Y-516079D01*
X3476660Y-512840D01*
X3467919Y-504460D01*
G37*
G36*
X1453860Y-559640D02*
G01*
X1407740Y-571140D01*
X1219000Y-616860D01*
X1133220Y-638460D01*
X1091640Y-649120D01*
X1089080Y-651840D01*
X1088066Y-763100D01*
X1093340Y-763100D01*
X1095400Y-656520D01*
X1097480Y-654220D01*
X1239280Y-618660D01*
X1298560Y-604360D01*
X1387460Y-582700D01*
X1435800Y-571280D01*
X1444840Y-568400D01*
X1449060Y-568400D01*
X1449019Y-701760D01*
X1446720Y-705320D01*
X1403060Y-725580D01*
X1371860Y-740300D01*
X1301680Y-772980D01*
X1244885Y-800800D01*
X1261380Y-800800D01*
X1263460Y-798720D01*
X1265540Y-800800D01*
X1244885Y-800800D01*
X1215120Y-815380D01*
X1215120Y-820740D01*
X1220040Y-822620D01*
X1228280Y-822620D01*
X1293880Y-795699D01*
X1374980Y-761940D01*
X1423320Y-749080D01*
X1445100Y-743080D01*
X1449060Y-743080D01*
X1449060Y-849140D01*
X1448040Y-849140D01*
X1311040Y-883259D01*
X1162860Y-919160D01*
X1109840Y-931780D01*
X1098560Y-934920D01*
X1093420Y-934920D01*
X1094240Y-804900D01*
X1139460Y-783760D01*
X1175340Y-766740D01*
X1203420Y-753640D01*
X1286080Y-714740D01*
X1306360Y-703660D01*
X1319600Y-694580D01*
X1319600Y-691860D01*
X1317720Y-686940D01*
X1312440Y-686940D01*
X1309480Y-689720D01*
X1194060Y-735680D01*
X1162860Y-746400D01*
X1096140Y-764840D01*
X1093340Y-763100D01*
X1088066Y-763100D01*
X1088000Y-770380D01*
X1097520Y-771300D01*
X1159740Y-754180D01*
X1192500Y-743460D01*
X1239380Y-724520D01*
X1268600Y-713379D01*
X1268660Y-713439D01*
X1270740Y-713439D01*
X1272820Y-711380D01*
X1274900Y-713439D01*
X1268660Y-713439D01*
X1270000Y-714800D01*
X1095200Y-797180D01*
X1087220Y-802420D01*
X1087220Y-937440D01*
X1091360Y-943120D01*
X1126980Y-934640D01*
X1306360Y-891160D01*
X1452960Y-855020D01*
X1456900Y-850060D01*
X1456080Y-737960D01*
X1450940Y-734720D01*
X1373120Y-755620D01*
X1312600Y-780819D01*
X1267640Y-799260D01*
X1266100Y-797700D01*
X1317260Y-773160D01*
X1423320Y-723580D01*
X1454520Y-708000D01*
X1456960Y-563380D01*
G37*
G36*
X1836579Y-560460D02*
G01*
X1700960Y-592560D01*
X1612060Y-613700D01*
X1530160Y-633280D01*
X1479480Y-645300D01*
X1475580Y-648319D01*
X1475580Y-785020D01*
X1478160Y-786620D01*
X1674340Y-788820D01*
X1668200Y-791200D01*
X1607380Y-794640D01*
X1564220Y-797640D01*
X1533920Y-803720D01*
X1482600Y-816440D01*
X1475580Y-819440D01*
X1475580Y-931800D01*
X1481780Y-931800D01*
X1482600Y-823640D01*
X1527820Y-811860D01*
X1566819Y-804120D01*
X1622960Y-800699D01*
X1635440Y-799419D01*
X1669760Y-797380D01*
X1704079Y-793020D01*
X1706420Y-793000D01*
X1706420Y-787320D01*
X1694300Y-780520D01*
X1481819Y-780520D01*
X1481819Y-652560D01*
X1488839Y-649700D01*
X1778940Y-580880D01*
X1832360Y-568420D01*
X1839040Y-567620D01*
X1839760Y-672940D01*
X1835080Y-674280D01*
X1769580Y-689820D01*
X1663520Y-697760D01*
X1624520Y-700879D01*
X1607480Y-704140D01*
X1604480Y-707140D01*
X1610180Y-713420D01*
X1839060Y-714220D01*
X1839760Y-846580D01*
X1835860Y-850480D01*
X1817920Y-854000D01*
X1813800Y-855380D01*
X1753980Y-869360D01*
X1655720Y-892680D01*
X1602700Y-905420D01*
X1501320Y-928680D01*
X1488839Y-931740D01*
X1475580Y-931800D01*
X1475580Y-938139D01*
X1480560Y-940060D01*
X1569940Y-919740D01*
X1651040Y-900660D01*
X1750860Y-876919D01*
X1822620Y-859960D01*
X1844220Y-855220D01*
X1846780Y-853640D01*
X1846780Y-709160D01*
X1842040Y-705220D01*
X1666639Y-707240D01*
X1655720Y-704680D01*
X1688480Y-702640D01*
X1730580Y-699440D01*
X1771140Y-696080D01*
X1838200Y-680460D01*
X1846819Y-677180D01*
X1846000Y-561380D01*
G37*
G36*
X2983020Y-560500D02*
G01*
X2816139Y-599740D01*
X2574380Y-655620D01*
X2469880Y-680420D01*
X2391900Y-697960D01*
X2343540Y-710180D01*
X2260240Y-729080D01*
X2194300Y-744640D01*
X2182120Y-744640D01*
X2182080Y-594140D01*
X2179400Y-589920D01*
X2112720Y-605720D01*
X1997300Y-632200D01*
X1945760Y-644599D01*
X1869400Y-660720D01*
X1865500Y-663920D01*
X1865500Y-1117620D01*
X1873300Y-1117620D01*
X1873300Y-666900D01*
X1894360Y-662120D01*
X1945820Y-651280D01*
X2005100Y-637240D01*
X2142340Y-605640D01*
X2172540Y-598040D01*
X2174320Y-598040D01*
X2174320Y-748700D01*
X2178060Y-752440D01*
X2189760Y-752440D01*
X2288960Y-729220D01*
X2332620Y-719520D01*
X2407500Y-701220D01*
X2505760Y-678880D01*
X2583740Y-660220D01*
X2792740Y-611960D01*
X2979900Y-568260D01*
X2983800Y-566940D01*
X2983800Y-857039D01*
X2979900Y-858460D01*
X2915960Y-873900D01*
X2727220Y-917880D01*
X2526040Y-964900D01*
X2284280Y-1022120D01*
X2225020Y-1034880D01*
X2128300Y-1058000D01*
X1948940Y-1100060D01*
X1878760Y-1115980D01*
X1873300Y-1117620D01*
X1865500Y-1117620D01*
X1865500Y-1123020D01*
X1868980Y-1126500D01*
X1881740Y-1122000D01*
X1958300Y-1104740D01*
X2023820Y-1089160D01*
X2136100Y-1063020D01*
X2220340Y-1042800D01*
X2279600Y-1029920D01*
X2529140Y-970960D01*
X2795860Y-908600D01*
X2852000Y-895720D01*
X2983020Y-864720D01*
X2990020Y-861700D01*
X2990860Y-637800D01*
X2990820Y-561380D01*
G37*
G36*
X3436880Y-688940D02*
G01*
X3423480Y-694659D01*
X3424100Y-708760D01*
X3429880Y-708760D01*
X3429880Y-699520D01*
X3435720Y-696400D01*
X3440320Y-701760D01*
X3441920Y-704880D01*
X3440520Y-708760D01*
X3424100Y-708760D01*
X3424420Y-715780D01*
X3443740Y-716720D01*
X3448460Y-708000D01*
X3448580Y-702460D01*
X3440520Y-690280D01*
G37*
G36*
X3443759Y-732020D02*
G01*
X3424420Y-732940D01*
X3424101Y-739960D01*
X3440460Y-739960D01*
X3442340Y-744900D01*
X3442340Y-747280D01*
X3436360Y-752680D01*
X3429880Y-749220D01*
X3429880Y-739960D01*
X3424101Y-739960D01*
X3423480Y-754100D01*
X3434440Y-758680D01*
X3438440Y-758660D01*
X3450340Y-747740D01*
X3448200Y-740740D01*
G37*
G36*
X3438020Y-770759D02*
G01*
X3423500Y-776320D01*
X3424124Y-788160D01*
X3429880Y-788160D01*
X3429880Y-780720D01*
X3436340Y-778680D01*
X3442340Y-784120D01*
X3442260Y-785980D01*
X3435160Y-791120D01*
X3429880Y-788160D01*
X3424124Y-788160D01*
X3424420Y-793780D01*
X3437640Y-798340D01*
X3451760Y-784500D01*
G37*
G36*
X1769280Y-890740D02*
G01*
X1716560Y-901000D01*
X1668400Y-911700D01*
X1563700Y-939539D01*
X1545540Y-944840D01*
X1523140Y-959680D01*
X1499760Y-980320D01*
X1490900Y-999659D01*
X1483640Y-1019920D01*
X1476579Y-1044880D01*
X1476594Y-1046440D01*
X1483200Y-1046440D01*
X1494259Y-1008100D01*
X1505280Y-984060D01*
X1515360Y-975300D01*
X1538340Y-956620D01*
X1552780Y-949440D01*
X1671320Y-917700D01*
X1735260Y-903960D01*
X1769580Y-897520D01*
X1782060Y-900819D01*
X1796100Y-905860D01*
X1812040Y-914700D01*
X1816620Y-920100D01*
X1831660Y-946140D01*
X1838980Y-980819D01*
X1838720Y-1044880D01*
X1833200Y-1071400D01*
X1827700Y-1087000D01*
X1819940Y-1102600D01*
X1801720Y-1132220D01*
X1780500Y-1145280D01*
X1759460Y-1154700D01*
X1737520Y-1161240D01*
X1663520Y-1179440D01*
X1602700Y-1194100D01*
X1565580Y-1203200D01*
X1555760Y-1203200D01*
X1526459Y-1196800D01*
X1498020Y-1170680D01*
X1484180Y-1133780D01*
X1483200Y-1046440D01*
X1476594Y-1046440D01*
X1477420Y-1133400D01*
X1491360Y-1172780D01*
X1522840Y-1202700D01*
X1560760Y-1211140D01*
X1665080Y-1185820D01*
X1739940Y-1167540D01*
X1766459Y-1159220D01*
X1789860Y-1147560D01*
X1807040Y-1136500D01*
X1830820Y-1096360D01*
X1838760Y-1076080D01*
X1843940Y-1054240D01*
X1846320Y-1016800D01*
X1846780Y-986100D01*
X1838500Y-945060D01*
X1819740Y-912320D01*
X1814820Y-908400D01*
X1789860Y-896020D01*
G37*
G36*
X2987220Y-894240D02*
G01*
X2908159Y-911720D01*
X2859800Y-923720D01*
X2290520Y-1056680D01*
X2192260Y-1079980D01*
X2025360Y-1118760D01*
X1872520Y-1154880D01*
X1865780Y-1157760D01*
X1867410Y-1451180D01*
X1873300Y-1451180D01*
X1873300Y-1161680D01*
X1928660Y-1148380D01*
X2220340Y-1080060D01*
X2287400Y-1064280D01*
X2362260Y-1046880D01*
X2444920Y-1027080D01*
X2585299Y-994040D01*
X2661720Y-977200D01*
X2747500Y-956580D01*
X2859800Y-930420D01*
X2933100Y-913020D01*
X2983560Y-902180D01*
X2985360Y-902180D01*
X2984620Y-1044880D01*
X2983759Y-1190200D01*
X2934660Y-1203000D01*
X2870980Y-1217400D01*
X2618060Y-1276540D01*
X2493280Y-1305920D01*
X2366940Y-1335920D01*
X2200060Y-1374580D01*
X2073720Y-1404220D01*
X1981699Y-1426399D01*
X1874620Y-1451180D01*
X1867410Y-1451180D01*
X1867440Y-1456639D01*
X1869620Y-1459040D01*
X1964540Y-1437020D01*
X2048760Y-1417020D01*
X2246840Y-1370220D01*
X2304560Y-1357440D01*
X2540060Y-1301620D01*
X2940899Y-1208080D01*
X2984580Y-1196820D01*
X2991600Y-1193900D01*
X2991600Y-897880D01*
G37*
G36*
X1363540Y-895939D02*
G01*
X1323500Y-903820D01*
X1167540Y-942740D01*
X1145700Y-954180D01*
X1135080Y-961280D01*
X1110220Y-982500D01*
X1093840Y-1016800D01*
X1085412Y-1058920D01*
X1092540Y-1058920D01*
X1100780Y-1016800D01*
X1115380Y-987320D01*
X1133040Y-971580D01*
X1146420Y-961340D01*
X1169100Y-949280D01*
X1306660Y-914720D01*
X1357820Y-903560D01*
X1382860Y-901760D01*
X1409300Y-907400D01*
X1434360Y-931720D01*
X1447380Y-970020D01*
X1450340Y-1035520D01*
X1448940Y-1041760D01*
X1442600Y-1074520D01*
X1431220Y-1108820D01*
X1409300Y-1133360D01*
X1399940Y-1143720D01*
X1371260Y-1157900D01*
X1312600Y-1172000D01*
X1247080Y-1187920D01*
X1189020Y-1203200D01*
X1146780Y-1203200D01*
X1120740Y-1187820D01*
X1107880Y-1167960D01*
X1101260Y-1154980D01*
X1094660Y-1137320D01*
X1092540Y-1058920D01*
X1085412Y-1058920D01*
X1085220Y-1059880D01*
X1088360Y-1140020D01*
X1098660Y-1164980D01*
X1110220Y-1184140D01*
X1116060Y-1192360D01*
X1144280Y-1209440D01*
X1190540Y-1209440D01*
X1251760Y-1193460D01*
X1328180Y-1175060D01*
X1370300Y-1165280D01*
X1406180Y-1147280D01*
X1436060Y-1113520D01*
X1444120Y-1091680D01*
X1448820Y-1076080D01*
X1453760Y-1052680D01*
X1456519Y-1038640D01*
X1456860Y-1028960D01*
X1453620Y-966400D01*
X1439640Y-927920D01*
X1418640Y-906680D01*
X1409300Y-900860D01*
X1388040Y-895939D01*
G37*
G36*
X1752420Y-1014900D02*
G01*
X1604259Y-1052980D01*
X1566819Y-1063660D01*
X1559160Y-1078100D01*
X1559376Y-1078360D01*
X1567600Y-1078360D01*
X1567600Y-1074340D01*
X1571500Y-1069200D01*
X1621399Y-1055240D01*
X1751740Y-1022140D01*
X1754760Y-1024020D01*
X1754760Y-1033259D01*
X1747740Y-1035920D01*
X1652600Y-1059920D01*
X1574840Y-1080180D01*
X1567600Y-1078360D01*
X1559376Y-1078360D01*
X1563700Y-1083580D01*
X1573540Y-1087700D01*
X1588660Y-1083220D01*
X1753280Y-1041280D01*
X1761000Y-1036240D01*
X1760960Y-1021480D01*
X1758660Y-1018060D01*
G37*
G36*
X1361740Y-1017580D02*
G01*
X1226800Y-1052160D01*
X1177220Y-1065780D01*
X1174880Y-1068280D01*
X1173330Y-1079960D01*
X1179680Y-1079960D01*
X1181180Y-1072140D01*
X1183420Y-1070740D01*
X1219000Y-1060980D01*
X1363860Y-1023920D01*
X1367960Y-1027320D01*
X1367860Y-1030840D01*
X1363779Y-1036220D01*
X1291560Y-1054980D01*
X1183680Y-1083280D01*
X1179680Y-1079960D01*
X1173330Y-1079960D01*
X1172780Y-1084160D01*
X1181140Y-1089640D01*
X1190940Y-1088300D01*
X1368360Y-1041860D01*
X1375580Y-1030840D01*
X1375760Y-1025980D01*
X1367000Y-1017580D01*
G37*
G36*
X1447660Y-1159520D02*
G01*
X1429560Y-1164420D01*
X1370300Y-1179580D01*
X1300120Y-1197120D01*
X1262680Y-1206160D01*
X1130100Y-1239120D01*
X1102040Y-1246500D01*
X1093680Y-1248420D01*
X1088780Y-1253320D01*
X1088780Y-1376420D01*
X1092960Y-1378020D01*
X1166900Y-1358980D01*
X1180020Y-1354220D01*
X1270480Y-1323080D01*
X1286080Y-1318260D01*
X1292680Y-1315180D01*
X1298300Y-1316260D01*
X1237720Y-1340280D01*
X1133220Y-1381160D01*
X1095800Y-1395640D01*
X1087220Y-1403420D01*
X1087220Y-1503820D01*
X1092400Y-1508120D01*
X1117620Y-1507800D01*
X1148820Y-1504199D01*
X1204980Y-1498060D01*
X1265800Y-1491699D01*
X1289440Y-1488520D01*
X1297000Y-1491540D01*
X1286080Y-1492200D01*
X1272040Y-1494840D01*
X1214340Y-1504079D01*
X1172220Y-1510600D01*
X1156620Y-1513720D01*
X1144140Y-1516579D01*
X1098920Y-1526420D01*
X1088000Y-1531519D01*
X1086469Y-1653940D01*
X1093420Y-1653940D01*
X1094240Y-1536220D01*
X1102640Y-1532200D01*
X1165980Y-1518520D01*
X1195620Y-1513680D01*
X1331300Y-1491980D01*
X1355460Y-1488200D01*
X1358839Y-1484100D01*
X1357820Y-1476920D01*
X1345180Y-1475980D01*
X1275160Y-1483880D01*
X1236068Y-1488140D01*
X1300120Y-1488140D01*
X1308700Y-1486840D01*
X1317260Y-1488140D01*
X1236068Y-1488140D01*
X1161300Y-1496240D01*
X1099640Y-1502740D01*
X1093460Y-1499420D01*
X1093460Y-1406440D01*
X1098920Y-1401540D01*
X1131660Y-1388980D01*
X1251760Y-1341720D01*
X1299040Y-1323580D01*
X1309480Y-1318720D01*
X1354700Y-1299060D01*
X1360800Y-1295520D01*
X1356360Y-1290180D01*
X1341519Y-1291940D01*
X1295440Y-1307460D01*
X1276705Y-1313940D01*
X1298820Y-1313940D01*
X1300700Y-1312040D01*
X1304640Y-1313360D01*
X1300680Y-1315800D01*
X1298820Y-1313940D01*
X1276705Y-1313940D01*
X1176900Y-1348480D01*
X1158180Y-1354600D01*
X1097720Y-1370020D01*
X1095020Y-1368340D01*
X1095020Y-1256400D01*
X1098520Y-1254240D01*
X1131660Y-1245360D01*
X1264240Y-1212400D01*
X1301680Y-1203360D01*
X1396819Y-1179680D01*
X1445020Y-1167320D01*
X1449060Y-1167320D01*
X1449060Y-1343560D01*
X1448000Y-1343560D01*
X1407740Y-1357840D01*
X1371860Y-1370220D01*
X1325060Y-1385460D01*
X1267360Y-1401440D01*
X1225828Y-1413380D01*
X1248640Y-1413380D01*
X1254160Y-1411960D01*
X1258000Y-1413500D01*
X1248640Y-1413380D01*
X1225828Y-1413380D01*
X1213140Y-1417020D01*
X1197960Y-1424720D01*
X1197960Y-1429280D01*
X1205800Y-1431260D01*
X1342220Y-1401440D01*
X1371860Y-1396740D01*
X1415520Y-1390080D01*
X1442040Y-1385680D01*
X1449060Y-1385680D01*
X1449060Y-1569319D01*
X1435800Y-1572840D01*
X1401500Y-1580820D01*
X1364060Y-1589820D01*
X1335980Y-1596399D01*
X1298560Y-1605420D01*
X1270480Y-1611980D01*
X1181580Y-1633860D01*
X1123860Y-1647520D01*
X1106720Y-1651220D01*
X1097660Y-1653940D01*
X1086469Y-1653940D01*
X1086440Y-1656279D01*
X1087540Y-1660180D01*
X1100780Y-1660180D01*
X1109840Y-1657340D01*
X1139460Y-1650680D01*
X1203420Y-1635400D01*
X1292320Y-1613580D01*
X1408120Y-1586000D01*
X1452960Y-1575400D01*
X1456860Y-1570680D01*
X1456860Y-1384379D01*
X1454960Y-1379440D01*
X1440860Y-1379440D01*
X1368740Y-1390520D01*
X1339100Y-1395280D01*
X1269060Y-1410780D01*
X1261120Y-1409540D01*
X1272820Y-1409079D01*
X1272820Y-1406200D01*
X1282960Y-1404100D01*
X1331300Y-1390480D01*
X1428000Y-1357880D01*
X1454460Y-1348060D01*
X1456819Y-1344340D01*
X1456860Y-1164460D01*
X1454960Y-1159520D01*
G37*
G36*
X1574199Y-1223300D02*
G01*
X1515360Y-1235860D01*
X1476360Y-1246400D01*
X1476360Y-1435680D01*
X1481819Y-1435680D01*
X1481819Y-1251540D01*
X1483180Y-1251540D01*
X1529379Y-1239180D01*
X1568779Y-1231400D01*
X1572720Y-1230480D01*
X1572040Y-1282060D01*
X1574060Y-1290060D01*
X1585040Y-1295300D01*
X1792980Y-1245200D01*
X1835340Y-1235420D01*
X1840540Y-1237400D01*
X1839840Y-1257000D01*
X1838200Y-1353620D01*
X1830400Y-1355820D01*
X1761780Y-1371680D01*
X1683800Y-1390480D01*
X1530940Y-1426420D01*
X1485900Y-1437260D01*
X1481819Y-1435680D01*
X1476360Y-1435680D01*
X1476360Y-1442600D01*
X1487700Y-1443560D01*
X1521579Y-1435380D01*
X1566819Y-1424880D01*
X1599580Y-1417040D01*
X1699400Y-1393620D01*
X1752420Y-1380820D01*
X1810140Y-1366620D01*
X1844440Y-1359740D01*
X1846120Y-1277280D01*
X1846000Y-1230480D01*
X1830500Y-1229500D01*
X1739940Y-1251300D01*
X1588660Y-1287540D01*
X1580860Y-1286639D01*
X1579300Y-1224280D01*
G37*
G36*
X2455140Y-1348240D02*
G01*
X2430880Y-1354340D01*
X2363820Y-1370240D01*
X2260880Y-1394820D01*
X2201620Y-1408700D01*
X2182120Y-1412620D01*
X2182120Y-1833920D01*
X2188340Y-1833920D01*
X2189140Y-1417740D01*
X2203180Y-1415180D01*
X2268680Y-1399720D01*
X2360700Y-1377740D01*
X2419980Y-1363680D01*
X2458160Y-1354280D01*
X2461300Y-1356220D01*
X2461300Y-1768980D01*
X2456980Y-1772560D01*
X2421540Y-1781840D01*
X2387220Y-1789980D01*
X2190700Y-1835900D01*
X2188340Y-1833920D01*
X2182120Y-1833920D01*
X2182120Y-1841200D01*
X2186960Y-1843060D01*
X2203180Y-1839660D01*
X2410620Y-1791240D01*
X2440240Y-1783660D01*
X2465000Y-1777000D01*
X2467540Y-1775420D01*
X2467440Y-1353700D01*
X2463300Y-1348240D01*
G37*
G36*
X1827500Y-1379259D02*
G01*
X1750860Y-1398620D01*
X1748580Y-1402060D01*
X1748520Y-1490100D01*
X1739760Y-1494640D01*
X1715080Y-1499280D01*
X1712660Y-1497780D01*
X1712660Y-1412300D01*
X1705900Y-1408680D01*
X1688480Y-1412520D01*
X1620180Y-1429180D01*
X1616920Y-1432440D01*
X1614259Y-1517460D01*
X1612920Y-1523899D01*
X1590220Y-1529120D01*
X1576960Y-1531120D01*
X1576960Y-1444840D01*
X1572300Y-1443060D01*
X1551220Y-1446579D01*
X1476360Y-1464620D01*
X1476360Y-1672480D01*
X1481819Y-1672480D01*
X1481819Y-1473240D01*
X1486459Y-1468600D01*
X1496639Y-1466459D01*
X1554100Y-1452540D01*
X1569160Y-1450740D01*
X1569160Y-1533240D01*
X1573200Y-1538779D01*
X1593340Y-1535240D01*
X1617380Y-1528860D01*
X1620160Y-1525260D01*
X1624000Y-1436360D01*
X1626080Y-1434379D01*
X1700600Y-1416459D01*
X1705640Y-1416080D01*
X1707200Y-1505000D01*
X1728820Y-1504259D01*
X1746140Y-1499240D01*
X1754760Y-1494780D01*
X1754760Y-1406339D01*
X1758660Y-1403300D01*
X1829580Y-1385680D01*
X1838980Y-1385680D01*
X1838460Y-1576740D01*
X1837240Y-1588260D01*
X1821040Y-1592760D01*
X1761780Y-1607060D01*
X1677560Y-1627220D01*
X1587100Y-1649079D01*
X1484760Y-1674300D01*
X1481819Y-1672480D01*
X1476360Y-1672480D01*
X1476360Y-1679680D01*
X1486960Y-1680680D01*
X1512240Y-1674300D01*
X1619840Y-1647960D01*
X1782060Y-1608899D01*
X1841220Y-1594500D01*
X1845180Y-1591200D01*
X1846060Y-1472240D01*
X1846000Y-1380220D01*
G37*
G36*
X1447560Y-1591560D02*
G01*
X1321940Y-1622540D01*
X1151940Y-1663420D01*
X1089560Y-1679340D01*
X1087260Y-1682800D01*
X1087220Y-1887380D01*
X1093460Y-1887380D01*
X1093460Y-1687080D01*
X1097360Y-1684000D01*
X1180020Y-1663540D01*
X1323500Y-1628959D01*
X1446120Y-1598660D01*
X1449019Y-1603260D01*
X1449019Y-1799780D01*
X1446720Y-1803200D01*
X1378100Y-1820540D01*
X1364840Y-1822660D01*
X1364840Y-1733820D01*
X1360140Y-1732020D01*
X1343779Y-1735100D01*
X1319580Y-1741639D01*
X1317640Y-1744760D01*
X1315700Y-1832520D01*
X1279840Y-1842360D01*
X1243960Y-1851759D01*
X1232260Y-1853940D01*
X1232260Y-1768180D01*
X1228060Y-1764700D01*
X1209660Y-1767960D01*
X1185920Y-1775700D01*
X1180020Y-1780020D01*
X1178460Y-1866579D01*
X1165020Y-1871060D01*
X1095100Y-1889019D01*
X1093460Y-1887380D01*
X1087220Y-1887380D01*
X1087220Y-1892040D01*
X1094700Y-1896060D01*
X1151940Y-1881360D01*
X1183140Y-1872000D01*
X1186980Y-1868839D01*
X1187820Y-1782660D01*
X1195620Y-1778940D01*
X1223020Y-1771699D01*
X1225980Y-1776380D01*
X1226020Y-1857880D01*
X1230680Y-1861740D01*
X1237720Y-1860240D01*
X1321540Y-1838140D01*
X1322760Y-1836920D01*
X1325060Y-1746800D01*
X1351579Y-1739980D01*
X1358600Y-1739720D01*
X1358600Y-1828440D01*
X1361300Y-1830120D01*
X1384760Y-1825620D01*
X1442040Y-1811320D01*
X1453740Y-1808240D01*
X1453740Y-1591560D01*
G37*
G36*
X1844300Y-1612040D02*
G01*
X1813260Y-1619379D01*
X1713440Y-1643400D01*
X1563700Y-1680180D01*
X1521579Y-1690280D01*
X1476360Y-1701540D01*
X1475540Y-1825280D01*
X1482000Y-1827340D01*
X1498200Y-1825160D01*
X1526260Y-1819240D01*
X1601140Y-1794560D01*
X1673760Y-1770920D01*
X1680680Y-1771060D01*
X1658839Y-1780000D01*
X1629199Y-1791140D01*
X1478779Y-1849319D01*
X1477400Y-1854360D01*
X1476437Y-1951060D01*
X1482600Y-1951060D01*
X1484160Y-1854520D01*
X1501320Y-1847540D01*
X1557460Y-1825800D01*
X1676000Y-1780440D01*
X1748460Y-1752000D01*
X1750380Y-1748880D01*
X1744920Y-1742840D01*
X1738540Y-1742840D01*
X1676608Y-1763120D01*
X1699660Y-1763120D01*
X1701740Y-1761040D01*
X1703820Y-1763120D01*
X1676608Y-1763120D01*
X1667770Y-1766000D01*
X1688480Y-1766000D01*
X1692380Y-1764420D01*
X1696279Y-1766000D01*
X1667770Y-1766000D01*
X1662230Y-1767800D01*
X1687700Y-1767800D01*
X1687700Y-1769019D01*
X1682500Y-1771020D01*
X1679280Y-1767800D01*
X1662230Y-1767800D01*
X1551220Y-1803860D01*
X1524660Y-1812960D01*
X1495080Y-1819000D01*
X1484160Y-1820060D01*
X1484160Y-1706339D01*
X1736819Y-1644500D01*
X1807020Y-1627500D01*
X1838860Y-1620100D01*
X1839760Y-1624840D01*
X1838200Y-1798080D01*
X1700960Y-1843000D01*
X1683800Y-1847560D01*
X1636725Y-1859780D01*
X1666639Y-1859780D01*
X1671320Y-1856759D01*
X1678340Y-1856699D01*
X1678340Y-1859820D01*
X1636725Y-1859780D01*
X1625295Y-1862700D01*
X1657280Y-1862700D01*
X1661380Y-1861060D01*
X1663260Y-1862940D01*
X1657280Y-1862700D01*
X1625295Y-1862700D01*
X1600480Y-1869060D01*
X1587680Y-1877140D01*
X1588899Y-1880880D01*
X1601699Y-1881819D01*
X1654160Y-1870720D01*
X1710320Y-1858260D01*
X1727460Y-1855140D01*
X1752420Y-1852160D01*
X1814820Y-1844240D01*
X1837600Y-1840660D01*
X1839760Y-1843440D01*
X1838959Y-2018920D01*
X1837660Y-2018920D01*
X1771140Y-2035580D01*
X1752420Y-2039580D01*
X1713440Y-2048720D01*
X1606600Y-2074460D01*
X1540300Y-2090520D01*
X1487700Y-2103140D01*
X1483380Y-2103140D01*
X1483380Y-1986519D01*
X1490400Y-1984600D01*
X1552780Y-1969280D01*
X1569940Y-1967320D01*
X1590220Y-1964400D01*
X1638560Y-1958000D01*
X1671320Y-1953520D01*
X1739940Y-1943880D01*
X1753200Y-1936120D01*
X1753200Y-1931900D01*
X1749300Y-1930620D01*
X1688480Y-1934460D01*
X1654160Y-1937840D01*
X1587100Y-1944079D01*
X1557460Y-1947020D01*
X1484880Y-1953959D01*
X1482600Y-1951060D01*
X1476437Y-1951060D01*
X1476360Y-1958860D01*
X1504440Y-1958540D01*
X1543420Y-1955020D01*
X1626080Y-1947180D01*
X1690120Y-1940920D01*
X1708500Y-1940920D01*
X1707040Y-1942380D01*
X1684180Y-1944100D01*
X1682060Y-1945420D01*
X1610500Y-1955100D01*
X1565260Y-1961020D01*
X1551220Y-1962940D01*
X1479480Y-1980360D01*
X1475580Y-1983420D01*
X1475580Y-2105660D01*
X1479860Y-2111520D01*
X1498200Y-2107480D01*
X1624520Y-2076780D01*
X1658839Y-2068660D01*
X1708760Y-2056519D01*
X1755540Y-2045500D01*
X1769580Y-2042460D01*
X1841320Y-2024800D01*
X1846780Y-2021920D01*
X1846740Y-1837200D01*
X1844040Y-1832940D01*
X1811699Y-1837840D01*
X1788300Y-1841020D01*
X1722780Y-1848980D01*
X1697840Y-1853779D01*
X1686740Y-1857000D01*
X1679120Y-1855700D01*
X1688480Y-1853320D01*
X1733700Y-1839180D01*
X1842580Y-1803660D01*
X1846780Y-1800180D01*
X1846780Y-1613580D01*
G37*
G36*
X2987120Y-1809700D02*
G01*
X2908159Y-1828860D01*
X2770899Y-1861540D01*
X2370060Y-1956759D01*
X2298320Y-1973880D01*
X2191360Y-1998640D01*
X2182120Y-1998640D01*
X2182120Y-1851819D01*
X2178880Y-1845780D01*
X2168000Y-1845780D01*
X2081220Y-1867520D01*
X2012800Y-1882980D01*
X1872520Y-1916339D01*
X1865500Y-1919019D01*
X1865500Y-2372640D01*
X1873300Y-2372640D01*
X1873300Y-1922880D01*
X2034720Y-1884740D01*
X2090880Y-1872120D01*
X2164860Y-1853580D01*
X2174300Y-1853580D01*
X2175100Y-2004100D01*
X2192540Y-2005020D01*
X2262440Y-1989100D01*
X2886320Y-1840920D01*
X2982380Y-1817720D01*
X2983800Y-1817720D01*
X2983800Y-2109160D01*
X2978340Y-2110860D01*
X2948700Y-2116980D01*
X2711640Y-2173500D01*
X2357580Y-2257700D01*
X2243720Y-2285400D01*
X2178220Y-2299900D01*
X2062800Y-2327540D01*
X1908400Y-2365060D01*
X1873300Y-2372640D01*
X1865500Y-2372640D01*
X1865500Y-2377740D01*
X1870340Y-2379600D01*
X1897480Y-2374300D01*
X1980140Y-2354440D01*
X2175100Y-2307280D01*
X2237480Y-2293640D01*
X2341980Y-2268280D01*
X2694480Y-2184420D01*
X2944020Y-2124820D01*
X2989260Y-2115200D01*
X2991540Y-2111720D01*
X2991600Y-1813420D01*
G37*
G36*
X458280Y-1809860D02*
G01*
X453980Y-1813420D01*
X453993Y-1817720D01*
X525720Y-1817720D01*
X525720Y-1820820D01*
X480300Y-1820820D01*
X481280Y-1830820D01*
X521820Y-1855120D01*
X525720Y-1860420D01*
X525720Y-1865660D01*
X462560Y-1867100D01*
X460319Y-1863720D01*
X508700Y-1862860D01*
X510439Y-1858320D01*
X504620Y-1850340D01*
X461000Y-1824660D01*
X460000Y-1817720D01*
X453993Y-1817720D01*
X454020Y-1826279D01*
X456320Y-1829740D01*
X498340Y-1854360D01*
X457239Y-1855920D01*
X453600Y-1859580D01*
X455620Y-1870420D01*
X460280Y-1874300D01*
X531180Y-1872000D01*
X533700Y-1870440D01*
X530220Y-1852260D01*
X489140Y-1827840D01*
X532120Y-1826980D01*
X531180Y-1810700D01*
G37*
G36*
X1452820Y-1824160D02*
G01*
X1398380Y-1837600D01*
X1345340Y-1850380D01*
X1190940Y-1888000D01*
X1094240Y-1911680D01*
X1087220Y-1916040D01*
X1087397Y-2098180D01*
X1093420Y-2098180D01*
X1094240Y-1918580D01*
X1225240Y-1886420D01*
X1424880Y-1837940D01*
X1445380Y-1832760D01*
X1450620Y-1834760D01*
X1450580Y-1946380D01*
X1448280Y-1950000D01*
X1389019Y-1964500D01*
X1226800Y-2004660D01*
X1194060Y-2011360D01*
X1189160Y-2012700D01*
X1182360Y-2024800D01*
X1182360Y-2083800D01*
X1155060Y-2090660D01*
X1096380Y-2105940D01*
X1093420Y-2098180D01*
X1087397Y-2098180D01*
X1087400Y-2100800D01*
X1091120Y-2111720D01*
X1097360Y-2112600D01*
X1151940Y-2098240D01*
X1187120Y-2089220D01*
X1190160Y-2087360D01*
X1190160Y-2022520D01*
X1195620Y-2017620D01*
X1212780Y-2014360D01*
X1236160Y-2009340D01*
X1384340Y-1972300D01*
X1451399Y-1956260D01*
X1455300Y-1955060D01*
X1455300Y-1825700D01*
G37*
G36*
X478360Y-1878540D02*
G01*
X453980Y-1902920D01*
X453980Y-1926660D01*
X460220Y-1926660D01*
X460220Y-1906339D01*
X479440Y-1886339D01*
X506320Y-1886339D01*
X525720Y-1905920D01*
X525640Y-1932340D01*
X514540Y-1947120D01*
X501560Y-1950460D01*
X493760Y-1952920D01*
X474360Y-1947420D01*
X471540Y-1945660D01*
X460220Y-1926660D01*
X453980Y-1926660D01*
X453980Y-1929160D01*
X468220Y-1952700D01*
X493260Y-1959720D01*
X517960Y-1953060D01*
X531940Y-1935460D01*
X531960Y-1902780D01*
X507860Y-1878540D01*
G37*
G36*
X483100Y-1891020D02*
G01*
X463100Y-1911000D01*
X464997Y-1923660D01*
X471140Y-1923660D01*
X471140Y-1911940D01*
X484520Y-1898820D01*
X505040Y-1898820D01*
X516360Y-1913360D01*
X516360Y-1922980D01*
X510900Y-1933899D01*
X494380Y-1939820D01*
X476220Y-1934319D01*
X471140Y-1923660D01*
X464997Y-1923660D01*
X465360Y-1926100D01*
X470780Y-1938779D01*
X493380Y-1947120D01*
X516100Y-1939060D01*
X522500Y-1924540D01*
X522600Y-1910460D01*
X506860Y-1891020D01*
G37*
G36*
X454760Y-1963540D02*
G01*
X455660Y-1977400D01*
X458640Y-1981000D01*
X498440Y-1979840D01*
X468020Y-1994400D01*
X468020Y-2009520D01*
X496880Y-2024360D01*
X455580Y-2025240D01*
X453720Y-2032620D01*
X453985Y-2034500D01*
X460220Y-2034500D01*
X460220Y-2031380D01*
X505540Y-2031380D01*
X507360Y-2026680D01*
X502239Y-2018880D01*
X474280Y-2005660D01*
X474260Y-1999100D01*
X505340Y-1984480D01*
X506840Y-1982040D01*
X500780Y-1972060D01*
X461780Y-1974160D01*
X461780Y-1970560D01*
X525720Y-1970560D01*
X525720Y-1979360D01*
X493760Y-1995280D01*
X486540Y-2002060D01*
X492200Y-2008340D01*
X525720Y-2025180D01*
X525720Y-2034500D01*
X453985Y-2034500D01*
X454760Y-2039960D01*
X531960Y-2040800D01*
X531960Y-2020260D01*
X504700Y-2007500D01*
X495620Y-2001980D01*
X532100Y-1983820D01*
X531180Y-1963540D01*
G37*
G36*
X457720Y-2046980D02*
G01*
X453980Y-2050720D01*
X453980Y-2054780D01*
X463340Y-2054780D01*
X463340Y-2082640D01*
X468240Y-2087540D01*
X489080Y-2087480D01*
X492740Y-2085160D01*
X495680Y-2058680D01*
X496100Y-2082640D01*
X501000Y-2087540D01*
X517680Y-2087540D01*
X522600Y-2085640D01*
X522600Y-2057900D01*
X525720Y-2057900D01*
X525720Y-2092220D01*
X460220Y-2092220D01*
X460220Y-2054780D01*
X453980Y-2054780D01*
X453980Y-2096279D01*
X457720Y-2100020D01*
X531700Y-2100020D01*
X533280Y-2096120D01*
X533480Y-2058680D01*
X529560Y-2050880D01*
X520860Y-2049880D01*
X516360Y-2053600D01*
X516360Y-2079740D01*
X503900Y-2079740D01*
X503840Y-2054000D01*
X501040Y-2049580D01*
X489099Y-2054120D01*
X488480Y-2058680D01*
X486480Y-2079740D01*
X471140Y-2079740D01*
X471140Y-2048880D01*
X466200Y-2046980D01*
G37*
G36*
X1745840Y-2064139D02*
G01*
X1591780Y-2102580D01*
X1574400Y-2105980D01*
X1537180Y-2120520D01*
X1506160Y-2143000D01*
X1489680Y-2170500D01*
X1475960Y-2219320D01*
X1476041Y-2222440D01*
X1482260Y-2222440D01*
X1495800Y-2173260D01*
X1509940Y-2148740D01*
X1540300Y-2126480D01*
X1580720Y-2110540D01*
X1593340Y-2109080D01*
X1711879Y-2079500D01*
X1746920Y-2070380D01*
X1788460Y-2070380D01*
X1803240Y-2079760D01*
X1817640Y-2094560D01*
X1829800Y-2110660D01*
X1837100Y-2135100D01*
X1838899Y-2172540D01*
X1840360Y-2206860D01*
X1834180Y-2245840D01*
X1817160Y-2281160D01*
X1803320Y-2299160D01*
X1786459Y-2314480D01*
X1766860Y-2325980D01*
X1602700Y-2366340D01*
X1580860Y-2371400D01*
X1538220Y-2371400D01*
X1513800Y-2360220D01*
X1498940Y-2342020D01*
X1483760Y-2303560D01*
X1482260Y-2222440D01*
X1476041Y-2222440D01*
X1478280Y-2308240D01*
X1493180Y-2345560D01*
X1510680Y-2366380D01*
X1539240Y-2379200D01*
X1575280Y-2379200D01*
X1618280Y-2369600D01*
X1767080Y-2332560D01*
X1780500Y-2325720D01*
X1797660Y-2313980D01*
X1812020Y-2298880D01*
X1823260Y-2283780D01*
X1839600Y-2250900D01*
X1846399Y-2209980D01*
X1846780Y-2189260D01*
X1843520Y-2134580D01*
X1836220Y-2108040D01*
X1821100Y-2088320D01*
X1807140Y-2074700D01*
X1791459Y-2064139D01*
G37*
G36*
X1359300Y-2064139D02*
G01*
X1323500Y-2073500D01*
X1217440Y-2099720D01*
X1174920Y-2109560D01*
X1131660Y-2130680D01*
X1106720Y-2158960D01*
X1092120Y-2191520D01*
X1086440Y-2222440D01*
X1086516Y-2228680D01*
X1092460Y-2228680D01*
X1098300Y-2194380D01*
X1112920Y-2161620D01*
X1135360Y-2136380D01*
X1177920Y-2115620D01*
X1233040Y-2102920D01*
X1362260Y-2070380D01*
X1392980Y-2070380D01*
X1417660Y-2082780D01*
X1436140Y-2104740D01*
X1447520Y-2142900D01*
X1447280Y-2234920D01*
X1430820Y-2280380D01*
X1407620Y-2308980D01*
X1380320Y-2326300D01*
X1270480Y-2354140D01*
X1222760Y-2365140D01*
X1170060Y-2376240D01*
X1133280Y-2368460D01*
X1104900Y-2338000D01*
X1094960Y-2308240D01*
X1092460Y-2228680D01*
X1086516Y-2228680D01*
X1087260Y-2287960D01*
X1090140Y-2316040D01*
X1100480Y-2343160D01*
X1131400Y-2374880D01*
X1170580Y-2382880D01*
X1197180Y-2377440D01*
X1247080Y-2366520D01*
X1348460Y-2341480D01*
X1382760Y-2332220D01*
X1412420Y-2313840D01*
X1437320Y-2282520D01*
X1452940Y-2239600D01*
X1454640Y-2174100D01*
X1455300Y-2144840D01*
X1442940Y-2104700D01*
X1439520Y-2098320D01*
X1420780Y-2076560D01*
X1396100Y-2064139D01*
G37*
G36*
X455640Y-2102960D02*
G01*
X454055Y-2109380D01*
X463340Y-2109380D01*
X463340Y-2136100D01*
X466560Y-2142120D01*
X525720Y-2142120D01*
X525720Y-2148360D01*
X460220Y-2148360D01*
X460220Y-2109380D01*
X454055Y-2109380D01*
X453860Y-2110160D01*
X454760Y-2153820D01*
X531960Y-2154660D01*
X531960Y-2135880D01*
X471240Y-2135880D01*
X470360Y-2103920D01*
G37*
G36*
X2986560Y-2144780D02*
G01*
X2950260Y-2153260D01*
X2833279Y-2181100D01*
X2474560Y-2267140D01*
X2379420Y-2288560D01*
X2245280Y-2321220D01*
X2165740Y-2340240D01*
X1987940Y-2382520D01*
X1883440Y-2407060D01*
X1866279Y-2412740D01*
X1866279Y-2419500D01*
X1871360Y-2419500D01*
X1874079Y-2417040D01*
X1889680Y-2411860D01*
X1964540Y-2394580D01*
X2186020Y-2341940D01*
X2293540Y-2316660D01*
X2391900Y-2292120D01*
X2452720Y-2279120D01*
X2886320Y-2175260D01*
X2981400Y-2152660D01*
X2985360Y-2151140D01*
X2983759Y-2440920D01*
X2891000Y-2463660D01*
X2290520Y-2607140D01*
X2017580Y-2672540D01*
X1913080Y-2697180D01*
X1873680Y-2706220D01*
X1871360Y-2419500D01*
X1866279Y-2419500D01*
X1866279Y-2712200D01*
X1880320Y-2711680D01*
X1983260Y-2687860D01*
X2097120Y-2660220D01*
X2315480Y-2608159D01*
X2376300Y-2593039D01*
X2561900Y-2549360D01*
X2685120Y-2519420D01*
X2870680Y-2475740D01*
X2989020Y-2446120D01*
X2991600Y-2444520D01*
X2991600Y-2146700D01*
G37*
G36*
X479780Y-2157720D02*
G01*
X453980Y-2183380D01*
X453980Y-2205840D01*
X460220Y-2205840D01*
X460220Y-2185160D01*
X480340Y-2165520D01*
X504219Y-2165520D01*
X519159Y-2173920D01*
X525720Y-2187440D01*
X525720Y-2213200D01*
X508780Y-2229940D01*
X477760Y-2228220D01*
X471580Y-2224920D01*
X460220Y-2205840D01*
X453980Y-2205840D01*
X453980Y-2208140D01*
X468200Y-2232400D01*
X485959Y-2236180D01*
X511599Y-2236480D01*
X531960Y-2216300D01*
X531960Y-2186220D01*
X525260Y-2170060D01*
X504500Y-2157720D01*
G37*
G36*
X483380Y-2170200D02*
G01*
X464900Y-2187840D01*
X464900Y-2203540D01*
X471140Y-2203540D01*
X471140Y-2191120D01*
X484520Y-2178000D01*
X505180Y-2178000D01*
X516360Y-2193240D01*
X516060Y-2202180D01*
X512980Y-2211700D01*
X495080Y-2218800D01*
X478160Y-2213860D01*
X471140Y-2203540D01*
X464900Y-2203540D01*
X464900Y-2207200D01*
X474460Y-2219320D01*
X495720Y-2225960D01*
X517680Y-2216800D01*
X522440Y-2205300D01*
X522600Y-2190340D01*
X509640Y-2173160D01*
X504099Y-2170200D01*
G37*
G36*
X1357820Y-2187320D02*
G01*
X1176900Y-2234560D01*
X1174820Y-2236480D01*
X1173130Y-2250520D01*
X1180020Y-2250520D01*
X1181100Y-2241160D01*
X1182080Y-2240140D01*
X1359379Y-2193560D01*
X1367180Y-2194380D01*
X1368100Y-2200720D01*
X1360940Y-2207260D01*
X1336200Y-2212640D01*
X1186400Y-2251440D01*
X1180020Y-2250520D01*
X1173130Y-2250520D01*
X1172760Y-2253640D01*
X1182320Y-2259260D01*
X1339100Y-2218800D01*
X1364060Y-2213140D01*
X1375960Y-2202400D01*
X1374180Y-2195300D01*
X1371160Y-2187360D01*
G37*
G36*
X1743460Y-2187360D02*
G01*
X1604259Y-2223600D01*
X1567140Y-2233360D01*
X1561620Y-2241160D01*
X1559720Y-2247760D01*
X1560062Y-2248180D01*
X1567600Y-2248180D01*
X1567600Y-2244100D01*
X1571500Y-2238980D01*
X1693160Y-2207440D01*
X1745220Y-2193600D01*
X1754760Y-2193600D01*
X1754760Y-2204020D01*
X1583800Y-2248180D01*
X1560062Y-2248180D01*
X1565380Y-2254740D01*
X1579300Y-2256260D01*
X1757100Y-2210580D01*
X1761000Y-2209300D01*
X1761000Y-2187360D01*
G37*
G36*
X458280Y-2241880D02*
G01*
X453980Y-2245440D01*
X454020Y-2259880D01*
X456320Y-2263440D01*
X492200Y-2284260D01*
X495160Y-2287180D01*
X462560Y-2287480D01*
X454760Y-2289640D01*
X454112Y-2296400D01*
X459840Y-2296400D01*
X461000Y-2295260D01*
X504680Y-2293240D01*
X511680Y-2291800D01*
X511680Y-2287620D01*
X461780Y-2258860D01*
X461780Y-2254680D01*
X459880Y-2249740D01*
X525720Y-2249740D01*
X525720Y-2255980D01*
X475580Y-2255980D01*
X476620Y-2261340D01*
X524940Y-2289600D01*
X525920Y-2301220D01*
X461680Y-2301220D01*
X459840Y-2296400D01*
X454112Y-2296400D01*
X453760Y-2300080D01*
X455600Y-2307460D01*
X531960Y-2307460D01*
X531960Y-2285900D01*
X492740Y-2263000D01*
X532120Y-2262120D01*
X531180Y-2242720D01*
G37*
G36*
X3404980Y-2273140D02*
G01*
X3395820Y-2289160D01*
X3393880Y-2299560D01*
X3394975Y-2302320D01*
X3401480Y-2302320D01*
X3401480Y-2292060D01*
X3408600Y-2279380D01*
X3418840Y-2279380D01*
X3422620Y-2286400D01*
X3424320Y-2291860D01*
X3432980Y-2291860D01*
X3432980Y-2293420D01*
X3431440Y-2293420D01*
X3431440Y-2291860D01*
X3424320Y-2291860D01*
X3427940Y-2303460D01*
X3432500Y-2306360D01*
X3441100Y-2304200D01*
X3437180Y-2281720D01*
X3442340Y-2286000D01*
X3442340Y-2306960D01*
X3436400Y-2312360D01*
X3426120Y-2311360D01*
X3414780Y-2285000D01*
X3410800Y-2283680D01*
X3408180Y-2287900D01*
X3410059Y-2312140D01*
X3406560Y-2312140D01*
X3401480Y-2302320D01*
X3394975Y-2302320D01*
X3401040Y-2317600D01*
X3415059Y-2317600D01*
X3416620Y-2305120D01*
X3421820Y-2318380D01*
X3440560Y-2318380D01*
X3450100Y-2306800D01*
X3448380Y-2284840D01*
X3447020Y-2278000D01*
X3433759Y-2275220D01*
X3429800Y-2278260D01*
X3431480Y-2289520D01*
X3428279Y-2282180D01*
X3421860Y-2273140D01*
G37*
G36*
X599480Y-2309020D02*
G01*
X597500Y-2330060D01*
X597480Y-2333940D01*
X603520Y-2333940D01*
X605680Y-2319140D01*
X606140Y-2318540D01*
X646320Y-2345020D01*
X649659Y-2341680D01*
X654740Y-2328500D01*
X668379Y-2318000D01*
X687159Y-2319560D01*
X695140Y-2323280D01*
X705100Y-2341380D01*
X705100Y-2393240D01*
X603720Y-2393240D01*
X603720Y-2381160D01*
X615400Y-2379240D01*
X640360Y-2379160D01*
X644100Y-2376780D01*
X646979Y-2363920D01*
X645040Y-2360940D01*
X603520Y-2333940D01*
X597480Y-2333940D01*
X597480Y-2338080D01*
X639580Y-2365460D01*
X639580Y-2370980D01*
X625120Y-2372960D01*
X601380Y-2373000D01*
X597320Y-2375580D01*
X598260Y-2398700D01*
X707420Y-2399520D01*
X711320Y-2398020D01*
X711320Y-2340120D01*
X700600Y-2318840D01*
X685020Y-2312140D01*
X666060Y-2312140D01*
X649400Y-2323200D01*
X645320Y-2335520D01*
X644200Y-2335520D01*
X604520Y-2309020D01*
G37*
G36*
X3390280Y-2324540D02*
G01*
X3374500Y-2340100D01*
X3375781Y-2361320D01*
X3381520Y-2361320D01*
X3381520Y-2342400D01*
X3393340Y-2330840D01*
X3442340Y-2330840D01*
X3441920Y-2362820D01*
X3440539Y-2370060D01*
X3426500Y-2376080D01*
X3418800Y-2376080D01*
X3408820Y-2370920D01*
X3400240Y-2364580D01*
X3400240Y-2352800D01*
X3406660Y-2349360D01*
X3405700Y-2337860D01*
X3398880Y-2336900D01*
X3389560Y-2341720D01*
X3383116Y-2350780D01*
X3390520Y-2350780D01*
X3396800Y-2344520D01*
X3400260Y-2345680D01*
X3394000Y-2349600D01*
X3393900Y-2356580D01*
X3390520Y-2350780D01*
X3383116Y-2350780D01*
X3382960Y-2351000D01*
X3391060Y-2366980D01*
X3390080Y-2373740D01*
X3381520Y-2361320D01*
X3375781Y-2361320D01*
X3376060Y-2365940D01*
X3385240Y-2377940D01*
X3392420Y-2380680D01*
X3397120Y-2378860D01*
X3397120Y-2371400D01*
X3398880Y-2371400D01*
X3408820Y-2378780D01*
X3423440Y-2384220D01*
X3445520Y-2375560D01*
X3448340Y-2365940D01*
X3447799Y-2325380D01*
G37*
G36*
X1843260Y-2332640D02*
G01*
X1836279Y-2335300D01*
X1721220Y-2362060D01*
X1543420Y-2404160D01*
X1487280Y-2418340D01*
X1477140Y-2421560D01*
X1477140Y-2559740D01*
X1481040Y-2562880D01*
X1689280Y-2559640D01*
X1691339Y-2561680D01*
X1689880Y-2563140D01*
X1641680Y-2566420D01*
X1564440Y-2571000D01*
X1509120Y-2583600D01*
X1493520Y-2587320D01*
X1476360Y-2593840D01*
X1476360Y-2706740D01*
X1481819Y-2706740D01*
X1481819Y-2598960D01*
X1492680Y-2594420D01*
X1565260Y-2577700D01*
X1596459Y-2575680D01*
X1677560Y-2571019D01*
X1698340Y-2567679D01*
X1703660Y-2563800D01*
X1698360Y-2553520D01*
X1483380Y-2555840D01*
X1483380Y-2426200D01*
X1488839Y-2424600D01*
X1577740Y-2402780D01*
X1729800Y-2366840D01*
X1831960Y-2342880D01*
X1840540Y-2341420D01*
X1840540Y-2447480D01*
X1833000Y-2449380D01*
X1772140Y-2463440D01*
X1707200Y-2468180D01*
X1641680Y-2472820D01*
X1608040Y-2476940D01*
X1604480Y-2480500D01*
X1610500Y-2487260D01*
X1838640Y-2485220D01*
X1840540Y-2490200D01*
X1840540Y-2620560D01*
X1836639Y-2623540D01*
X1807020Y-2630280D01*
X1655720Y-2666400D01*
X1585540Y-2683300D01*
X1546540Y-2692600D01*
X1486220Y-2706740D01*
X1476360Y-2706740D01*
X1476360Y-2712200D01*
X1487640Y-2713140D01*
X1526260Y-2703800D01*
X1562140Y-2695620D01*
X1658839Y-2672600D01*
X1822620Y-2633320D01*
X1842880Y-2628360D01*
X1846819Y-2625220D01*
X1846000Y-2479800D01*
X1651040Y-2480260D01*
X1669760Y-2477760D01*
X1736819Y-2472620D01*
X1774259Y-2469900D01*
X1842880Y-2453700D01*
X1846780Y-2450560D01*
X1846780Y-2336160D01*
G37*
G36*
X670960Y-2333520D02*
G01*
X660080Y-2342540D01*
X660050Y-2347580D01*
X665960Y-2347580D01*
X672520Y-2340580D01*
X684820Y-2343700D01*
X684400Y-2365940D01*
X683020Y-2373120D01*
X666880Y-2372180D01*
X665960Y-2347580D01*
X660050Y-2347580D01*
X659860Y-2376160D01*
X667860Y-2379200D01*
X687760Y-2379200D01*
X690240Y-2375300D01*
X692099Y-2345660D01*
X692620Y-2340580D01*
X688720Y-2337440D01*
G37*
G36*
X531960Y-2333920D02*
G01*
X454760Y-2334740D01*
X453840Y-2352360D01*
X462560Y-2358440D01*
X495319Y-2376860D01*
X456320Y-2379580D01*
X454020Y-2383100D01*
X453993Y-2391680D01*
X460000Y-2391680D01*
X461040Y-2386220D01*
X509260Y-2383800D01*
X512340Y-2380740D01*
X507800Y-2376360D01*
X460220Y-2349120D01*
X460220Y-2340200D01*
X525720Y-2340200D01*
X525720Y-2346440D01*
X500000Y-2346840D01*
X478180Y-2348780D01*
X477299Y-2353480D01*
X525660Y-2381540D01*
X525720Y-2391680D01*
X453993Y-2391680D01*
X453980Y-2396240D01*
X460020Y-2399480D01*
X527040Y-2399480D01*
X531960Y-2397580D01*
X531960Y-2377740D01*
X492200Y-2354280D01*
X508100Y-2354240D01*
X531960Y-2352220D01*
G37*
G36*
X1447820Y-2333960D02*
G01*
X1209660Y-2391820D01*
X1105160Y-2418020D01*
X1088000Y-2423640D01*
X1087180Y-2541340D01*
X1095740Y-2543480D01*
X1123860Y-2536340D01*
X1167540Y-2524380D01*
X1198740Y-2513660D01*
X1268920Y-2485280D01*
X1273600Y-2485260D01*
X1242400Y-2500300D01*
X1131660Y-2552480D01*
X1089560Y-2573380D01*
X1087620Y-2615500D01*
X1086747Y-2707160D01*
X1093460Y-2707160D01*
X1093860Y-2624860D01*
X1095800Y-2577120D01*
X1192500Y-2530980D01*
X1303240Y-2478900D01*
X1318260Y-2467920D01*
X1317020Y-2464200D01*
X1305840Y-2463240D01*
X1255072Y-2483700D01*
X1273860Y-2483700D01*
X1275940Y-2481620D01*
X1276460Y-2482140D01*
X1278540Y-2482140D01*
X1280620Y-2480060D01*
X1282700Y-2482140D01*
X1276460Y-2482140D01*
X1278020Y-2483700D01*
X1255072Y-2483700D01*
X1186260Y-2511440D01*
X1156620Y-2520860D01*
X1096260Y-2536720D01*
X1093460Y-2534980D01*
X1093460Y-2429040D01*
X1102040Y-2425660D01*
X1211220Y-2398220D01*
X1284520Y-2380480D01*
X1365620Y-2360720D01*
X1444000Y-2341760D01*
X1449060Y-2341760D01*
X1449060Y-2476820D01*
X1384340Y-2507580D01*
X1297000Y-2547720D01*
X1219900Y-2585659D01*
X1218640Y-2588980D01*
X1221240Y-2596000D01*
X1224260Y-2596000D01*
X1387460Y-2530860D01*
X1445160Y-2516180D01*
X1448280Y-2515680D01*
X1449100Y-2621840D01*
X1323500Y-2652300D01*
X1167540Y-2691000D01*
X1108280Y-2705360D01*
X1093460Y-2707160D01*
X1086747Y-2707160D01*
X1086700Y-2712200D01*
X1103540Y-2713159D01*
X1158180Y-2700140D01*
X1325060Y-2658700D01*
X1449840Y-2628540D01*
X1455300Y-2626980D01*
X1455300Y-2510120D01*
X1450400Y-2508240D01*
X1384340Y-2524780D01*
X1364060Y-2533180D01*
X1268620Y-2571040D01*
X1264240Y-2570940D01*
X1286080Y-2560360D01*
X1353140Y-2529300D01*
X1368740Y-2522260D01*
X1437360Y-2489560D01*
X1451399Y-2483480D01*
X1456080Y-2479240D01*
X1455240Y-2333960D01*
G37*
G36*
X3423540Y-2337080D02*
G01*
X3413500Y-2341340D01*
X3407600Y-2347940D01*
X3407600Y-2350840D01*
X3414040Y-2350840D01*
X3419440Y-2344880D01*
X3428240Y-2344880D01*
X3432980Y-2354080D01*
X3432940Y-2356580D01*
X3430340Y-2360680D01*
X3415059Y-2359700D01*
X3414040Y-2350840D01*
X3407600Y-2350840D01*
X3407600Y-2361040D01*
X3414620Y-2366720D01*
X3435779Y-2366720D01*
X3440620Y-2355020D01*
X3440779Y-2354200D01*
X3431139Y-2337080D01*
G37*
G36*
X3397900Y-2385360D02*
G01*
X3393420Y-2388320D01*
X3394375Y-2393240D01*
X3437180Y-2393240D01*
X3442340Y-2398940D01*
X3442340Y-2432660D01*
X3427880Y-2430660D01*
X3401800Y-2430660D01*
X3401800Y-2425980D01*
X3423340Y-2425980D01*
X3440779Y-2411780D01*
X3440779Y-2407860D01*
X3432200Y-2399760D01*
X3401800Y-2397540D01*
X3401800Y-2393240D01*
X3394375Y-2393240D01*
X3396340Y-2403360D01*
X3405700Y-2405340D01*
X3429480Y-2405720D01*
X3433039Y-2409980D01*
X3422280Y-2418200D01*
X3397900Y-2418240D01*
X3393420Y-2421060D01*
X3396340Y-2436120D01*
X3418180Y-2438080D01*
X3448580Y-2438460D01*
X3448480Y-2395580D01*
X3440280Y-2386220D01*
G37*
G36*
X480180Y-2404160D02*
G01*
X464880Y-2412740D01*
X453980Y-2433460D01*
X453980Y-2454760D01*
X460220Y-2454760D01*
X460220Y-2436960D01*
X470080Y-2416960D01*
X480600Y-2411960D01*
X509460Y-2411960D01*
X525720Y-2428420D01*
X525680Y-2454840D01*
X518700Y-2467120D01*
X504680Y-2475660D01*
X481200Y-2475900D01*
X460220Y-2454760D01*
X453980Y-2454760D01*
X453980Y-2458180D01*
X480120Y-2483700D01*
X503120Y-2483660D01*
X524740Y-2471640D01*
X531700Y-2456400D01*
X531960Y-2425280D01*
X511000Y-2404160D01*
G37*
G36*
X603340Y-2405560D02*
G01*
X598260Y-2406520D01*
X597360Y-2433300D01*
X623200Y-2444000D01*
X624080Y-2481660D01*
X597480Y-2491940D01*
X597540Y-2496740D01*
X603540Y-2496740D01*
X626320Y-2487920D01*
X630300Y-2484800D01*
X629440Y-2439320D01*
X603720Y-2428660D01*
X603720Y-2413300D01*
X610720Y-2415420D01*
X702220Y-2449100D01*
X703100Y-2450160D01*
X704960Y-2473560D01*
X606420Y-2510320D01*
X605620Y-2509440D01*
X603540Y-2496740D01*
X597540Y-2496740D01*
X597660Y-2504760D01*
X599860Y-2517200D01*
X604680Y-2518120D01*
X705440Y-2480500D01*
X711700Y-2477140D01*
X709460Y-2445480D01*
X706040Y-2443360D01*
G37*
G36*
X491560Y-2414560D02*
G01*
X471580Y-2424400D01*
X462939Y-2436880D01*
X464201Y-2450040D01*
X471140Y-2450040D01*
X471140Y-2435940D01*
X477819Y-2428760D01*
X493260Y-2421600D01*
X511440Y-2427740D01*
X516360Y-2440080D01*
X516180Y-2448600D01*
X504780Y-2463420D01*
X484260Y-2463420D01*
X471140Y-2450040D01*
X464201Y-2450040D01*
X464460Y-2452740D01*
X481180Y-2469660D01*
X508100Y-2469660D01*
X522460Y-2451720D01*
X522600Y-2436800D01*
X515080Y-2421940D01*
G37*
G36*
X3411840Y-2441580D02*
G01*
X3393540Y-2460080D01*
X3393864Y-2463200D01*
X3399800Y-2463200D01*
X3414940Y-2447820D01*
X3432380Y-2447820D01*
X3442340Y-2458120D01*
X3442340Y-2481500D01*
X3430520Y-2493060D01*
X3417860Y-2493060D01*
X3408320Y-2489720D01*
X3401820Y-2473560D01*
X3399800Y-2463200D01*
X3393864Y-2463200D01*
X3395280Y-2477000D01*
X3404820Y-2495880D01*
X3414500Y-2499300D01*
X3420520Y-2499300D01*
X3420520Y-2500860D01*
X3418960Y-2500860D01*
X3418960Y-2499300D01*
X3414500Y-2499300D01*
X3418180Y-2500600D01*
X3412480Y-2500860D01*
X3393639Y-2518800D01*
X3393941Y-2522100D01*
X3400160Y-2522100D01*
X3414940Y-2507100D01*
X3421600Y-2507100D01*
X3433759Y-2515920D01*
X3439620Y-2539060D01*
X3442720Y-2542960D01*
X3452480Y-2542920D01*
X3455940Y-2540620D01*
X3460140Y-2528900D01*
X3456600Y-2515680D01*
X3454500Y-2510220D01*
X3460940Y-2510220D01*
X3465740Y-2526380D01*
X3465620Y-2537500D01*
X3454040Y-2552240D01*
X3440000Y-2550360D01*
X3440000Y-2549980D01*
X3423460Y-2516080D01*
X3410460Y-2518160D01*
X3408440Y-2521460D01*
X3406580Y-2537040D01*
X3414320Y-2552320D01*
X3410140Y-2552320D01*
X3403440Y-2545200D01*
X3400160Y-2522100D01*
X3393941Y-2522100D01*
X3395700Y-2541580D01*
X3398880Y-2549980D01*
X3407060Y-2558560D01*
X3421880Y-2558560D01*
X3423740Y-2555560D01*
X3414280Y-2536820D01*
X3414280Y-2524260D01*
X3420580Y-2524260D01*
X3435779Y-2556740D01*
X3452860Y-2558880D01*
X3457580Y-2557780D01*
X3471820Y-2540620D01*
X3471980Y-2523180D01*
X3465700Y-2504900D01*
X3461840Y-2502460D01*
X3450920Y-2502460D01*
X3446480Y-2505280D01*
X3453140Y-2528260D01*
X3451340Y-2535160D01*
X3445580Y-2535160D01*
X3442120Y-2521900D01*
X3438880Y-2510700D01*
X3422860Y-2500860D01*
X3432520Y-2500860D01*
X3450140Y-2482380D01*
X3450140Y-2457040D01*
X3435680Y-2441580D01*
G37*
G36*
X648500Y-2444860D02*
G01*
X639580Y-2449460D01*
X639580Y-2471040D01*
X645819Y-2471040D01*
X645819Y-2453960D01*
X650400Y-2452200D01*
X677800Y-2461500D01*
X660639Y-2469220D01*
X649000Y-2473000D01*
X645819Y-2471040D01*
X639580Y-2471040D01*
X639580Y-2475540D01*
X647780Y-2480900D01*
X676060Y-2470440D01*
X684980Y-2463000D01*
X684040Y-2456460D01*
G37*
G36*
X3423360Y-2452420D02*
G01*
X3413500Y-2458680D01*
X3409260Y-2461460D01*
X3406647Y-2475420D01*
X3414280Y-2475420D01*
X3414280Y-2466760D01*
X3423740Y-2460020D01*
X3429080Y-2464040D01*
X3432980Y-2468700D01*
X3432980Y-2475420D01*
X3420500Y-2481060D01*
X3414280Y-2475420D01*
X3406647Y-2475420D01*
X3406460Y-2476420D01*
X3411940Y-2482480D01*
X3420360Y-2488480D01*
X3440880Y-2479160D01*
X3439400Y-2472000D01*
X3437660Y-2461060D01*
G37*
G36*
X457020Y-2479020D02*
G01*
X454056Y-2486820D01*
X464900Y-2486820D01*
X464900Y-2514900D01*
X525720Y-2514900D01*
X525720Y-2521120D01*
X460220Y-2521120D01*
X460220Y-2486820D01*
X454056Y-2486820D01*
X453980Y-2487020D01*
X453980Y-2527040D01*
X458920Y-2528920D01*
X529880Y-2528920D01*
X531960Y-2526840D01*
X531960Y-2508660D01*
X471140Y-2508660D01*
X471140Y-2485060D01*
X467900Y-2479020D01*
G37*
G36*
X677039Y-2522340D02*
G01*
X672340Y-2524160D01*
X672340Y-2544260D01*
X687940Y-2562919D01*
X687940Y-2582060D01*
X680320Y-2597100D01*
X664740Y-2603800D01*
X643540Y-2603800D01*
X627060Y-2595220D01*
X620860Y-2578720D01*
X620860Y-2562980D01*
X632160Y-2549200D01*
X639580Y-2549200D01*
X639580Y-2580059D01*
X644520Y-2581960D01*
X662200Y-2581900D01*
X666180Y-2579380D01*
X665320Y-2523480D01*
X598260Y-2523480D01*
X597340Y-2547900D01*
X603840Y-2549600D01*
X602920Y-2551540D01*
X593880Y-2568700D01*
X594161Y-2571100D01*
X600520Y-2571100D01*
X613060Y-2546160D01*
X613060Y-2542880D01*
X603720Y-2541020D01*
X603720Y-2528920D01*
X659860Y-2528920D01*
X659860Y-2574160D01*
X645819Y-2574160D01*
X645819Y-2543300D01*
X640879Y-2541400D01*
X631000Y-2541460D01*
X627760Y-2543740D01*
X612480Y-2563420D01*
X615720Y-2585880D01*
X622180Y-2600500D01*
X641060Y-2610040D01*
X667580Y-2610040D01*
X684659Y-2602480D01*
X695740Y-2580480D01*
X695740Y-2561860D01*
X678580Y-2541640D01*
X678580Y-2528920D01*
X680300Y-2528920D01*
X689040Y-2533440D01*
X698840Y-2544620D01*
X705100Y-2556880D01*
X704820Y-2595220D01*
X690500Y-2615179D01*
X664340Y-2627440D01*
X630240Y-2624340D01*
X617800Y-2614480D01*
X604080Y-2598800D01*
X600520Y-2571100D01*
X594161Y-2571100D01*
X597520Y-2599800D01*
X605640Y-2611500D01*
X620160Y-2625100D01*
X629240Y-2631080D01*
X665320Y-2634280D01*
X695140Y-2620179D01*
X711320Y-2596940D01*
X711300Y-2553100D01*
X702320Y-2537440D01*
X688220Y-2524440D01*
G37*
G36*
X531960Y-2535000D02*
G01*
X517140Y-2535940D01*
X516260Y-2567919D01*
X504320Y-2567919D01*
X502360Y-2551540D01*
X502340Y-2538120D01*
X487520Y-2539060D01*
X486620Y-2566360D01*
X471260Y-2566360D01*
X470360Y-2535940D01*
X454760Y-2535940D01*
X454649Y-2541400D01*
X463340Y-2541400D01*
X463340Y-2568880D01*
X467299Y-2574300D01*
X492200Y-2573380D01*
X493100Y-2544520D01*
X496100Y-2544520D01*
X496100Y-2569220D01*
X497980Y-2574160D01*
X522600Y-2574160D01*
X522600Y-2541400D01*
X525720Y-2541400D01*
X525720Y-2580400D01*
X463960Y-2580400D01*
X460220Y-2576660D01*
X460220Y-2541400D01*
X454649Y-2541400D01*
X453900Y-2579320D01*
X460760Y-2586640D01*
X531960Y-2586640D01*
G37*
G36*
X3397740Y-2580400D02*
G01*
X3394000Y-2584140D01*
X3394000Y-2588200D01*
X3465740Y-2588200D01*
X3465740Y-2594440D01*
X3440480Y-2594440D01*
X3441560Y-2609940D01*
X3424420Y-2593100D01*
X3411940Y-2599480D01*
X3406240Y-2604480D01*
X3406840Y-2601460D01*
X3406480Y-2597760D01*
X3400240Y-2595779D01*
X3400240Y-2588200D01*
X3394000Y-2588200D01*
X3394000Y-2598960D01*
X3398960Y-2601740D01*
X3394060Y-2616220D01*
X3395287Y-2619460D01*
X3401800Y-2619460D01*
X3401800Y-2610620D01*
X3406380Y-2604580D01*
X3406465Y-2615000D01*
X3414280Y-2615000D01*
X3414280Y-2605740D01*
X3423780Y-2601800D01*
X3432980Y-2610620D01*
X3432980Y-2612559D01*
X3429080Y-2617700D01*
X3421200Y-2620600D01*
X3414280Y-2615000D01*
X3406465Y-2615000D01*
X3406480Y-2616440D01*
X3418180Y-2627180D01*
X3423740Y-2627180D01*
X3434560Y-2622660D01*
X3441100Y-2611600D01*
X3442020Y-2611600D01*
X3443240Y-2624380D01*
X3430080Y-2633420D01*
X3414660Y-2633420D01*
X3401800Y-2619460D01*
X3395287Y-2619460D01*
X3397080Y-2624160D01*
X3411580Y-2639660D01*
X3433260Y-2639660D01*
X3450280Y-2627960D01*
X3448360Y-2606139D01*
X3446820Y-2600680D01*
X3471980Y-2600680D01*
X3471980Y-2582300D01*
X3467040Y-2580400D01*
G37*
G36*
X458280Y-2592820D02*
G01*
X453980Y-2596380D01*
X453980Y-2609400D01*
X457720Y-2613159D01*
X493760Y-2613380D01*
X471920Y-2624040D01*
X468260Y-2629520D01*
X467239Y-2640440D01*
X492600Y-2653320D01*
X455540Y-2655539D01*
X453760Y-2662620D01*
X454243Y-2667740D01*
X460000Y-2667740D01*
X461040Y-2662280D01*
X509360Y-2659780D01*
X512180Y-2656960D01*
X508800Y-2652919D01*
X474320Y-2637320D01*
X474300Y-2632640D01*
X476640Y-2628980D01*
X510900Y-2612380D01*
X510900Y-2607700D01*
X462560Y-2605760D01*
X460220Y-2605360D01*
X460220Y-2600680D01*
X525720Y-2600680D01*
X525720Y-2610860D01*
X486740Y-2630299D01*
X486740Y-2634440D01*
X493760Y-2641040D01*
X514020Y-2650360D01*
X525720Y-2655100D01*
X525720Y-2667740D01*
X454243Y-2667740D01*
X454760Y-2673200D01*
X532100Y-2674040D01*
X531180Y-2650140D01*
X496880Y-2635700D01*
X497380Y-2632900D01*
X531180Y-2615500D01*
X531180Y-2593660D01*
G37*
G36*
X708540Y-2642600D02*
G01*
X624760Y-2642840D01*
X603060Y-2656040D01*
X594622Y-2677880D01*
X601620Y-2677880D01*
X608560Y-2660080D01*
X625600Y-2650320D01*
X703540Y-2648540D01*
X703540Y-2656560D01*
X705420Y-2661500D01*
X637240Y-2661660D01*
X617000Y-2671640D01*
X612780Y-2689360D01*
X617700Y-2706280D01*
X636080Y-2714540D01*
X705100Y-2714540D01*
X703340Y-2728560D01*
X629340Y-2728560D01*
X608760Y-2717640D01*
X605340Y-2709080D01*
X602100Y-2694120D01*
X601620Y-2677880D01*
X594622Y-2677880D01*
X594020Y-2679440D01*
X597620Y-2707520D01*
X605020Y-2723720D01*
X627060Y-2734820D01*
X701400Y-2736860D01*
X709580Y-2734800D01*
X710800Y-2723120D01*
X711320Y-2708300D01*
X637920Y-2708300D01*
X622840Y-2700659D01*
X619640Y-2688020D01*
X622700Y-2676000D01*
X634120Y-2670080D01*
X710560Y-2668519D01*
X709780Y-2643820D01*
G37*
G36*
X3435500Y-2642880D02*
G01*
X3404960Y-2643100D01*
X3395100Y-2663140D01*
X3393863Y-2675980D01*
X3400020Y-2675980D01*
X3402220Y-2663840D01*
X3409640Y-2649020D01*
X3410700Y-2649020D01*
X3407020Y-2672500D01*
X3407331Y-2673200D01*
X3414320Y-2673200D01*
X3414580Y-2663840D01*
X3417080Y-2656040D01*
X3417340Y-2677880D01*
X3414320Y-2673200D01*
X3407331Y-2673200D01*
X3412559Y-2684900D01*
X3416700Y-2684900D01*
X3423639Y-2680040D01*
X3423639Y-2649020D01*
X3431640Y-2649020D01*
X3442340Y-2657200D01*
X3442340Y-2681160D01*
X3432060Y-2691139D01*
X3414940Y-2691139D01*
X3400020Y-2675980D01*
X3393863Y-2675980D01*
X3393580Y-2678920D01*
X3413399Y-2698940D01*
X3433680Y-2698940D01*
X3450140Y-2682660D01*
X3450140Y-2656320D01*
G37*
G36*
X3432980Y-2658180D02*
G01*
X3426760Y-2660160D01*
X3426760Y-2681780D01*
X3431280Y-2681780D01*
X3439220Y-2678159D01*
X3439220Y-2660160D01*
G37*
G36*
X485959Y-2678060D02*
G01*
X465300Y-2687980D01*
X453980Y-2709520D01*
X453980Y-2730419D01*
X460220Y-2730419D01*
X460220Y-2713039D01*
X470160Y-2692860D01*
X487900Y-2684900D01*
X499780Y-2684900D01*
X513000Y-2691300D01*
X525720Y-2705100D01*
X525580Y-2732460D01*
X509280Y-2750400D01*
X477760Y-2750400D01*
X460220Y-2730419D01*
X453980Y-2730419D01*
X453980Y-2733060D01*
X473040Y-2755160D01*
X478740Y-2758200D01*
X510660Y-2758200D01*
X531900Y-2735580D01*
X531880Y-2702840D01*
X523020Y-2691120D01*
X515580Y-2685320D01*
X501560Y-2678080D01*
G37*
G36*
X490640Y-2690020D02*
G01*
X472960Y-2699220D01*
X465780Y-2706880D01*
X464706Y-2725680D01*
X470720Y-2725680D01*
X472220Y-2709960D01*
X476400Y-2704920D01*
X491640Y-2697200D01*
X508260Y-2700659D01*
X516360Y-2712900D01*
X516360Y-2724780D01*
X501440Y-2739480D01*
X484260Y-2739480D01*
X470720Y-2725680D01*
X464706Y-2725680D01*
X464520Y-2728880D01*
X481180Y-2745720D01*
X504580Y-2745720D01*
X522600Y-2727880D01*
X522600Y-2710600D01*
X511940Y-2694740D01*
G37*
G36*
X3401240Y-2694560D02*
G01*
X3397760Y-2695899D01*
X3392600Y-2709800D01*
X3412960Y-2727080D01*
X3399460Y-2732820D01*
X3393820Y-2734780D01*
X3394426Y-2744160D01*
X3400000Y-2744160D01*
X3401019Y-2739260D01*
X3417880Y-2732460D01*
X3421300Y-2726740D01*
X3400480Y-2707300D01*
X3402840Y-2703500D01*
X3424420Y-2716600D01*
X3432620Y-2716620D01*
X3441560Y-2709560D01*
X3442660Y-2714920D01*
X3425200Y-2732559D01*
X3425200Y-2736040D01*
X3430120Y-2737919D01*
X3465740Y-2737919D01*
X3465740Y-2744160D01*
X3394426Y-2744160D01*
X3394780Y-2749620D01*
X3468020Y-2750460D01*
X3472140Y-2748880D01*
X3471200Y-2730899D01*
X3437380Y-2730020D01*
X3450140Y-2716160D01*
X3450140Y-2698840D01*
X3445520Y-2697060D01*
X3431000Y-2709860D01*
X3425920Y-2709860D01*
G37*
G36*
X616520Y-2744160D02*
G01*
X599320Y-2762760D01*
X595460Y-2774420D01*
X595682Y-2778780D01*
X601740Y-2778780D01*
X603820Y-2767679D01*
X619620Y-2750400D01*
X641320Y-2750400D01*
X653500Y-2760200D01*
X663460Y-2790179D01*
X669060Y-2803340D01*
X677800Y-2805280D01*
X683080Y-2806700D01*
X695740Y-2795280D01*
X695740Y-2775280D01*
X686380Y-2756740D01*
X686380Y-2753519D01*
X696520Y-2753600D01*
X705100Y-2765720D01*
X704960Y-2804220D01*
X688720Y-2822200D01*
X665120Y-2822160D01*
X658720Y-2813480D01*
X652320Y-2800940D01*
X644280Y-2773220D01*
X630220Y-2764180D01*
X619220Y-2770980D01*
X614520Y-2775700D01*
X616620Y-2807340D01*
X626620Y-2821380D01*
X628360Y-2824500D01*
X614660Y-2823399D01*
X603940Y-2808800D01*
X601740Y-2778780D01*
X595682Y-2778780D01*
X597320Y-2811280D01*
X611340Y-2829500D01*
X625980Y-2831500D01*
X636460Y-2831500D01*
X636460Y-2824260D01*
X622460Y-2804220D01*
X622420Y-2777000D01*
X630400Y-2771760D01*
X638500Y-2777799D01*
X648940Y-2810460D01*
X660939Y-2827600D01*
X692240Y-2828500D01*
X711320Y-2806380D01*
X711320Y-2763680D01*
X699940Y-2747160D01*
X679360Y-2748060D01*
X678360Y-2755120D01*
X687940Y-2774300D01*
X687940Y-2793039D01*
X682780Y-2798759D01*
X676240Y-2798700D01*
X672900Y-2796420D01*
X659120Y-2756320D01*
X644620Y-2744160D01*
G37*
G36*
X3453260Y-2756480D02*
G01*
X3453260Y-2762880D01*
X3465740Y-2762880D01*
X3465740Y-2769120D01*
X3459500Y-2769120D01*
X3459500Y-2762880D01*
X3453260Y-2762880D01*
X3453260Y-2775020D01*
X3458200Y-2776920D01*
X3467040Y-2776920D01*
X3472120Y-2774980D01*
X3471200Y-2757420D01*
G37*
G36*
X3447580Y-2756560D02*
G01*
X3394780Y-2757420D01*
X3394469Y-2762880D01*
X3442340Y-2762880D01*
X3442340Y-2769120D01*
X3400240Y-2769120D01*
X3400240Y-2762880D01*
X3394469Y-2762880D01*
X3393820Y-2774280D01*
X3397900Y-2776880D01*
X3446400Y-2776920D01*
X3450140Y-2773180D01*
X3450100Y-2760539D01*
G37*
G36*
X531180Y-2762100D02*
G01*
X514799Y-2762220D01*
X460820Y-2762880D01*
X455660Y-2766780D01*
X454760Y-2783380D01*
X492200Y-2805260D01*
X495160Y-2808120D01*
X466840Y-2808120D01*
X457120Y-2810059D01*
X454281Y-2820600D01*
X461780Y-2820600D01*
X461780Y-2816380D01*
X490340Y-2814360D01*
X506760Y-2814360D01*
X511680Y-2812460D01*
X511680Y-2808740D01*
X461780Y-2779800D01*
X461780Y-2771160D01*
X495020Y-2769120D01*
X525720Y-2769120D01*
X525720Y-2774900D01*
X477120Y-2776660D01*
X475140Y-2778620D01*
X478220Y-2783519D01*
X524940Y-2810580D01*
X525920Y-2820600D01*
X454281Y-2820600D01*
X453780Y-2822480D01*
X455439Y-2826820D01*
X531960Y-2826820D01*
X531960Y-2806820D01*
X492239Y-2783940D01*
X510900Y-2781940D01*
X532120Y-2781600D01*
G37*
G36*
X3408480Y-2778600D02*
G01*
X3397460Y-2781660D01*
X3393560Y-2786360D01*
X3393731Y-2789020D01*
X3400280Y-2789020D01*
X3401980Y-2786280D01*
X3406480Y-2786280D01*
X3406480Y-2811019D01*
X3411380Y-2815920D01*
X3454440Y-2815920D01*
X3464180Y-2817860D01*
X3464180Y-2823720D01*
X3402280Y-2823720D01*
X3400280Y-2789020D01*
X3393731Y-2789020D01*
X3396340Y-2829160D01*
X3466460Y-2830020D01*
X3470580Y-2828420D01*
X3469640Y-2810460D01*
X3427520Y-2808480D01*
X3414280Y-2808120D01*
X3414280Y-2781700D01*
G37*
M02*
