G04 Layer: BottomLayer*
G04 EasyEDA v6.5.37, 2024-09-25 03:55:15*
G04 7e8e10f67f6b4ae2816efe54b0c62c6c,10*
G04 Gerber Generator version 0.2*
G04 Scale: 100 percent, Rotated: No, Reflected: No *
G04 Dimensions in inches *
G04 leading zeros omitted , absolute positions ,3 integer and 6 decimal *
%FSLAX36Y36*%
%MOIN*%

%ADD10C,0.0100*%
%ADD11C,0.0620*%
%ADD12R,0.0620X0.0620*%
%ADD13C,0.0709*%
%ADD14C,0.0984*%
%ADD15C,0.0244*%
%ADD16C,0.0244*%
%ADD17C,0.0244*%
%ADD18C,0.0866*%
%ADD19C,0.0256*%
%ADD20C,0.0197*%
%ADD21C,0.0155*%

%LPD*%
G36*
X14200Y-1755000D02*
G01*
X12660Y-1754700D01*
X11379Y-1753820D01*
X10500Y-1752520D01*
X10200Y-1751000D01*
X10200Y-14200D01*
X10500Y-12660D01*
X11379Y-11379D01*
X12660Y-10500D01*
X14200Y-10200D01*
X3922799Y-10200D01*
X3924320Y-10500D01*
X3925620Y-11379D01*
X3926480Y-12680D01*
X3926800Y-14200D01*
X3925740Y-1751000D01*
X3925440Y-1752520D01*
X3924560Y-1753820D01*
X3923279Y-1754700D01*
X3921740Y-1755000D01*
X2484200Y-1755000D01*
X2482660Y-1754700D01*
X2481380Y-1753820D01*
X2480500Y-1752520D01*
X2480200Y-1751000D01*
X2480200Y-1725200D01*
X2479880Y-1722040D01*
X2479020Y-1719199D01*
X2477620Y-1716560D01*
X2475600Y-1714120D01*
X2060880Y-1299400D01*
X2058440Y-1297380D01*
X2055800Y-1295980D01*
X2052960Y-1295120D01*
X2049800Y-1294800D01*
X2026040Y-1294800D01*
X2024340Y-1294420D01*
X2022960Y-1293340D01*
X2022160Y-1291780D01*
X2021100Y-1287520D01*
X2019540Y-1284079D01*
X2017420Y-1280940D01*
X2014800Y-1278200D01*
X2011740Y-1275940D01*
X2008340Y-1274220D01*
X2004720Y-1273120D01*
X2000960Y-1272620D01*
X1997160Y-1272800D01*
X1993440Y-1273600D01*
X1989920Y-1275000D01*
X1986680Y-1277000D01*
X1983839Y-1279500D01*
X1981440Y-1282460D01*
X1979600Y-1285780D01*
X1978340Y-1289360D01*
X1977700Y-1293100D01*
X1977700Y-1296900D01*
X1978340Y-1300640D01*
X1979600Y-1304220D01*
X1981440Y-1307540D01*
X1983839Y-1310500D01*
X1986680Y-1313000D01*
X1989920Y-1315000D01*
X1993140Y-1316279D01*
X1994460Y-1317140D01*
X1995340Y-1318460D01*
X1995640Y-1320000D01*
X1995340Y-1321540D01*
X1994460Y-1322840D01*
X1993140Y-1323700D01*
X1989920Y-1325000D01*
X1986680Y-1327000D01*
X1983839Y-1329500D01*
X1981440Y-1332460D01*
X1979600Y-1335780D01*
X1978320Y-1339360D01*
X1977680Y-1343100D01*
X1977680Y-1346900D01*
X1978320Y-1350640D01*
X1979600Y-1354220D01*
X1981440Y-1357540D01*
X1983839Y-1360480D01*
X1986680Y-1363000D01*
X1989920Y-1365000D01*
X1993440Y-1366399D01*
X1997160Y-1367200D01*
X2000960Y-1367380D01*
X2004720Y-1366879D01*
X2008340Y-1365780D01*
X2011740Y-1364060D01*
X2014800Y-1361800D01*
X2017420Y-1359060D01*
X2019540Y-1355920D01*
X2021100Y-1352480D01*
X2022160Y-1348220D01*
X2022960Y-1346660D01*
X2024340Y-1345580D01*
X2026040Y-1345200D01*
X2037040Y-1345200D01*
X2038580Y-1345500D01*
X2039880Y-1346380D01*
X2428620Y-1735120D01*
X2429500Y-1736420D01*
X2429800Y-1737960D01*
X2429800Y-1751000D01*
X2429500Y-1752520D01*
X2428620Y-1753820D01*
X2427340Y-1754700D01*
X2425800Y-1755000D01*
X1240840Y-1755000D01*
X1239900Y-1754880D01*
X1238340Y-1754220D01*
X1234720Y-1753120D01*
X1230960Y-1752620D01*
X1227160Y-1752800D01*
X1223440Y-1753600D01*
X1220660Y-1754700D01*
X1219180Y-1755000D01*
X1180840Y-1755000D01*
X1179900Y-1754880D01*
X1178340Y-1754220D01*
X1174720Y-1753120D01*
X1170960Y-1752620D01*
X1167160Y-1752800D01*
X1163440Y-1753600D01*
X1160660Y-1754700D01*
X1159180Y-1755000D01*
G37*

%LPC*%
G36*
X126580Y-1742160D02*
G01*
X132280Y-1741800D01*
X137920Y-1740720D01*
X143360Y-1738940D01*
X148560Y-1736500D01*
X153380Y-1733440D01*
X157800Y-1729780D01*
X161720Y-1725620D01*
X165100Y-1720980D01*
X167860Y-1715960D01*
X169960Y-1710620D01*
X171380Y-1705080D01*
X172100Y-1699400D01*
X172100Y-1693660D01*
X171380Y-1687980D01*
X169960Y-1682420D01*
X167860Y-1677100D01*
X165100Y-1672080D01*
X161720Y-1667440D01*
X157800Y-1663260D01*
X153380Y-1659620D01*
X148560Y-1656540D01*
X143360Y-1654100D01*
X137920Y-1652340D01*
X132280Y-1651260D01*
X126580Y-1650900D01*
X120860Y-1651260D01*
X115220Y-1652340D01*
X109780Y-1654100D01*
X104580Y-1656540D01*
X99760Y-1659620D01*
X95340Y-1663260D01*
X91420Y-1667440D01*
X88040Y-1672080D01*
X85280Y-1677100D01*
X83180Y-1682420D01*
X81760Y-1687980D01*
X81039Y-1693660D01*
X81039Y-1699400D01*
X81760Y-1705080D01*
X83180Y-1710620D01*
X85280Y-1715960D01*
X88040Y-1720980D01*
X91420Y-1725620D01*
X95340Y-1729780D01*
X99760Y-1733440D01*
X104580Y-1736500D01*
X109780Y-1738940D01*
X115220Y-1740720D01*
X120860Y-1741800D01*
G37*
G36*
X1000000Y-1741200D02*
G01*
X1005380Y-1740840D01*
X1010660Y-1739780D01*
X1015759Y-1738060D01*
X1020600Y-1735680D01*
X1025080Y-1732680D01*
X1029120Y-1729120D01*
X1032680Y-1725080D01*
X1035680Y-1720600D01*
X1038060Y-1715760D01*
X1039780Y-1710660D01*
X1040840Y-1705380D01*
X1041200Y-1700000D01*
X1040840Y-1694620D01*
X1039780Y-1689340D01*
X1038060Y-1684240D01*
X1035680Y-1679400D01*
X1032680Y-1674920D01*
X1029120Y-1670880D01*
X1025080Y-1667320D01*
X1020600Y-1664319D01*
X1015759Y-1661940D01*
X1010660Y-1660220D01*
X1005380Y-1659160D01*
X1000000Y-1658800D01*
X994620Y-1659160D01*
X989340Y-1660220D01*
X984240Y-1661940D01*
X979400Y-1664319D01*
X974920Y-1667320D01*
X970879Y-1670880D01*
X967320Y-1674920D01*
X964320Y-1679400D01*
X961940Y-1684240D01*
X960220Y-1689340D01*
X959160Y-1694620D01*
X958800Y-1700000D01*
X959160Y-1705380D01*
X960220Y-1710660D01*
X961940Y-1715760D01*
X964320Y-1720600D01*
X967320Y-1725080D01*
X970879Y-1729120D01*
X974920Y-1732680D01*
X979400Y-1735680D01*
X984240Y-1738060D01*
X989340Y-1739780D01*
X994620Y-1740840D01*
G37*
G36*
X769220Y-1741200D02*
G01*
X830780Y-1741200D01*
X833259Y-1740920D01*
X835420Y-1740160D01*
X837340Y-1738959D01*
X838960Y-1737340D01*
X840160Y-1735420D01*
X840920Y-1733260D01*
X841200Y-1730780D01*
X841200Y-1669220D01*
X840920Y-1666740D01*
X840160Y-1664580D01*
X838960Y-1662660D01*
X837340Y-1661040D01*
X835420Y-1659840D01*
X833259Y-1659079D01*
X830780Y-1658800D01*
X769220Y-1658800D01*
X766740Y-1659079D01*
X764580Y-1659840D01*
X762660Y-1661040D01*
X761040Y-1662660D01*
X759840Y-1664580D01*
X759080Y-1666740D01*
X758800Y-1669220D01*
X758800Y-1730780D01*
X759080Y-1733260D01*
X759840Y-1735420D01*
X761040Y-1737340D01*
X762660Y-1738959D01*
X764580Y-1740160D01*
X766740Y-1740920D01*
G37*
G36*
X1170960Y-1622380D02*
G01*
X1174720Y-1621879D01*
X1178340Y-1620780D01*
X1181740Y-1619060D01*
X1184800Y-1616800D01*
X1187420Y-1614060D01*
X1189540Y-1610920D01*
X1191120Y-1607460D01*
X1192060Y-1603779D01*
X1192400Y-1600000D01*
X1192060Y-1596220D01*
X1191120Y-1592540D01*
X1189540Y-1589079D01*
X1187420Y-1585940D01*
X1184800Y-1583200D01*
X1181740Y-1580940D01*
X1178340Y-1579220D01*
X1174720Y-1578120D01*
X1170960Y-1577620D01*
X1167160Y-1577800D01*
X1163440Y-1578600D01*
X1159920Y-1580000D01*
X1156680Y-1582000D01*
X1153840Y-1584500D01*
X1151440Y-1587460D01*
X1149600Y-1590780D01*
X1148340Y-1594360D01*
X1147700Y-1598100D01*
X1147700Y-1601900D01*
X1148340Y-1605640D01*
X1149600Y-1609220D01*
X1151440Y-1612540D01*
X1153840Y-1615500D01*
X1156680Y-1618000D01*
X1159920Y-1620000D01*
X1163440Y-1621399D01*
X1167160Y-1622200D01*
G37*
G36*
X1230960Y-1622380D02*
G01*
X1234720Y-1621879D01*
X1238340Y-1620780D01*
X1241740Y-1619060D01*
X1244800Y-1616800D01*
X1247420Y-1614060D01*
X1249540Y-1610920D01*
X1251120Y-1607460D01*
X1252060Y-1603779D01*
X1252400Y-1600000D01*
X1252060Y-1596220D01*
X1251120Y-1592540D01*
X1249540Y-1589079D01*
X1247420Y-1585940D01*
X1244800Y-1583200D01*
X1241740Y-1580940D01*
X1238340Y-1579220D01*
X1234720Y-1578120D01*
X1230960Y-1577620D01*
X1227160Y-1577800D01*
X1223440Y-1578600D01*
X1219920Y-1580000D01*
X1216680Y-1582000D01*
X1213840Y-1584500D01*
X1211440Y-1587460D01*
X1209600Y-1590780D01*
X1208340Y-1594360D01*
X1207700Y-1598100D01*
X1207700Y-1601900D01*
X1208340Y-1605640D01*
X1209600Y-1609220D01*
X1211440Y-1612540D01*
X1213840Y-1615500D01*
X1216680Y-1618000D01*
X1219920Y-1620000D01*
X1223440Y-1621399D01*
X1227160Y-1622200D01*
G37*
G36*
X2830960Y-1622380D02*
G01*
X2834720Y-1621879D01*
X2838340Y-1620780D01*
X2841740Y-1619060D01*
X2844800Y-1616800D01*
X2847420Y-1614060D01*
X2849540Y-1610920D01*
X2851120Y-1607460D01*
X2852060Y-1603779D01*
X2852400Y-1600000D01*
X2852060Y-1596220D01*
X2851120Y-1592540D01*
X2849540Y-1589079D01*
X2847420Y-1585940D01*
X2844800Y-1583200D01*
X2841740Y-1580940D01*
X2838340Y-1579220D01*
X2834720Y-1578120D01*
X2830960Y-1577620D01*
X2827160Y-1577800D01*
X2823440Y-1578600D01*
X2819920Y-1580000D01*
X2816680Y-1582000D01*
X2813840Y-1584500D01*
X2811440Y-1587460D01*
X2809600Y-1590780D01*
X2808340Y-1594360D01*
X2807700Y-1598100D01*
X2807700Y-1601900D01*
X2808340Y-1605640D01*
X2809600Y-1609220D01*
X2811440Y-1612540D01*
X2813840Y-1615500D01*
X2816680Y-1618000D01*
X2819920Y-1620000D01*
X2823440Y-1621399D01*
X2827160Y-1622200D01*
G37*
G36*
X2770960Y-1622380D02*
G01*
X2774720Y-1621879D01*
X2778340Y-1620780D01*
X2781740Y-1619060D01*
X2784800Y-1616800D01*
X2787420Y-1614060D01*
X2789540Y-1610920D01*
X2791120Y-1607460D01*
X2792060Y-1603779D01*
X2792400Y-1600000D01*
X2792060Y-1596220D01*
X2791120Y-1592540D01*
X2789540Y-1589079D01*
X2787420Y-1585940D01*
X2784800Y-1583200D01*
X2781740Y-1580940D01*
X2778340Y-1579220D01*
X2774720Y-1578120D01*
X2770960Y-1577620D01*
X2767160Y-1577800D01*
X2763440Y-1578600D01*
X2759920Y-1580000D01*
X2756680Y-1582000D01*
X2753840Y-1584500D01*
X2751440Y-1587460D01*
X2749600Y-1590780D01*
X2748340Y-1594360D01*
X2747700Y-1598100D01*
X2747700Y-1601900D01*
X2748340Y-1605640D01*
X2749600Y-1609220D01*
X2751440Y-1612540D01*
X2753840Y-1615500D01*
X2756680Y-1618000D01*
X2759920Y-1620000D01*
X2763440Y-1621399D01*
X2767160Y-1622200D01*
G37*
G36*
X575960Y-1622380D02*
G01*
X579720Y-1621879D01*
X583340Y-1620780D01*
X586740Y-1619060D01*
X589800Y-1616800D01*
X592420Y-1614060D01*
X594540Y-1610920D01*
X596160Y-1607300D01*
X596920Y-1605780D01*
X598220Y-1604720D01*
X599860Y-1604300D01*
X601520Y-1604580D01*
X602920Y-1605540D01*
X603800Y-1606960D01*
X604600Y-1609240D01*
X606440Y-1612540D01*
X608840Y-1615500D01*
X611680Y-1618020D01*
X614920Y-1620000D01*
X618440Y-1621420D01*
X622160Y-1622220D01*
X625960Y-1622380D01*
X629720Y-1621900D01*
X633340Y-1620780D01*
X636740Y-1619079D01*
X639800Y-1616819D01*
X642420Y-1614079D01*
X644539Y-1610920D01*
X646120Y-1607460D01*
X647060Y-1603800D01*
X647400Y-1600020D01*
X647060Y-1596220D01*
X646120Y-1592560D01*
X644539Y-1589100D01*
X642420Y-1585940D01*
X639800Y-1583200D01*
X636740Y-1580940D01*
X633340Y-1579240D01*
X629720Y-1578120D01*
X625960Y-1577640D01*
X622160Y-1577800D01*
X618440Y-1578600D01*
X614920Y-1580020D01*
X611680Y-1582000D01*
X608840Y-1584520D01*
X606440Y-1587480D01*
X604600Y-1590780D01*
X603800Y-1593040D01*
X602920Y-1594480D01*
X601520Y-1595420D01*
X599860Y-1595700D01*
X598220Y-1595280D01*
X596920Y-1594220D01*
X594540Y-1589079D01*
X592420Y-1585940D01*
X589800Y-1583200D01*
X586740Y-1580940D01*
X583340Y-1579220D01*
X579720Y-1578120D01*
X575960Y-1577620D01*
X572160Y-1577800D01*
X568440Y-1578600D01*
X564920Y-1580000D01*
X561680Y-1582000D01*
X558840Y-1584500D01*
X556440Y-1587460D01*
X554600Y-1590780D01*
X553340Y-1594360D01*
X552700Y-1598100D01*
X552700Y-1601900D01*
X553340Y-1605640D01*
X554600Y-1609220D01*
X556440Y-1612540D01*
X558840Y-1615500D01*
X561680Y-1618000D01*
X564920Y-1620000D01*
X568440Y-1621399D01*
X572160Y-1622200D01*
G37*
G36*
X2540960Y-1577380D02*
G01*
X2544720Y-1576879D01*
X2548340Y-1575780D01*
X2551740Y-1574060D01*
X2554800Y-1571800D01*
X2557420Y-1569060D01*
X2559540Y-1565920D01*
X2561120Y-1562460D01*
X2562060Y-1558779D01*
X2562400Y-1555000D01*
X2562060Y-1551220D01*
X2561120Y-1547540D01*
X2559540Y-1544079D01*
X2557420Y-1540940D01*
X2554800Y-1538200D01*
X2551740Y-1535940D01*
X2548340Y-1534220D01*
X2544720Y-1533120D01*
X2540960Y-1532620D01*
X2537160Y-1532800D01*
X2533440Y-1533600D01*
X2529920Y-1535000D01*
X2526680Y-1537000D01*
X2523840Y-1539500D01*
X2521440Y-1542460D01*
X2519600Y-1545780D01*
X2518340Y-1549360D01*
X2517700Y-1553100D01*
X2517700Y-1556900D01*
X2518340Y-1560640D01*
X2519600Y-1564220D01*
X2521440Y-1567540D01*
X2523840Y-1570500D01*
X2526680Y-1573000D01*
X2529920Y-1575000D01*
X2533440Y-1576399D01*
X2537160Y-1577200D01*
G37*
G36*
X2460960Y-1577380D02*
G01*
X2464720Y-1576879D01*
X2468340Y-1575780D01*
X2471740Y-1574060D01*
X2474800Y-1571800D01*
X2477420Y-1569060D01*
X2479540Y-1565920D01*
X2481120Y-1562460D01*
X2482060Y-1558779D01*
X2482400Y-1555000D01*
X2482060Y-1551220D01*
X2481120Y-1547540D01*
X2479540Y-1544079D01*
X2477420Y-1540940D01*
X2474800Y-1538200D01*
X2471740Y-1535940D01*
X2468340Y-1534220D01*
X2464720Y-1533120D01*
X2460960Y-1532620D01*
X2457160Y-1532800D01*
X2453440Y-1533600D01*
X2449920Y-1535000D01*
X2446680Y-1537000D01*
X2443840Y-1539500D01*
X2441440Y-1542460D01*
X2439600Y-1545780D01*
X2438340Y-1549360D01*
X2437700Y-1553100D01*
X2437700Y-1556900D01*
X2438340Y-1560640D01*
X2439600Y-1564220D01*
X2441440Y-1567540D01*
X2443840Y-1570500D01*
X2446680Y-1573000D01*
X2449920Y-1575000D01*
X2453440Y-1576399D01*
X2457160Y-1577200D01*
G37*
G36*
X1545940Y-1572360D02*
G01*
X1549720Y-1571879D01*
X1553340Y-1570780D01*
X1556740Y-1569060D01*
X1559780Y-1566800D01*
X1562420Y-1564060D01*
X1564540Y-1560920D01*
X1566100Y-1557460D01*
X1567060Y-1553779D01*
X1567380Y-1550000D01*
X1567060Y-1546220D01*
X1566100Y-1542540D01*
X1564540Y-1539079D01*
X1562420Y-1535920D01*
X1559780Y-1533180D01*
X1556740Y-1530920D01*
X1553340Y-1529220D01*
X1549720Y-1528100D01*
X1545940Y-1527620D01*
X1542160Y-1527780D01*
X1538440Y-1528580D01*
X1534920Y-1530000D01*
X1531680Y-1532000D01*
X1528839Y-1534500D01*
X1526440Y-1537460D01*
X1524600Y-1540780D01*
X1523320Y-1544360D01*
X1522680Y-1548100D01*
X1522680Y-1551900D01*
X1523320Y-1555640D01*
X1524600Y-1559220D01*
X1526440Y-1562540D01*
X1528839Y-1565480D01*
X1531680Y-1568000D01*
X1534920Y-1569980D01*
X1538440Y-1571399D01*
X1542160Y-1572200D01*
G37*
G36*
X1455940Y-1572360D02*
G01*
X1459720Y-1571879D01*
X1463340Y-1570780D01*
X1466740Y-1569060D01*
X1469780Y-1566800D01*
X1472420Y-1564060D01*
X1474540Y-1560920D01*
X1476100Y-1557460D01*
X1477060Y-1553779D01*
X1477380Y-1550000D01*
X1477060Y-1546220D01*
X1476100Y-1542540D01*
X1474540Y-1539079D01*
X1472420Y-1535920D01*
X1469780Y-1533180D01*
X1466740Y-1530920D01*
X1463340Y-1529220D01*
X1459720Y-1528100D01*
X1455940Y-1527620D01*
X1452160Y-1527780D01*
X1448440Y-1528580D01*
X1444920Y-1530000D01*
X1441680Y-1532000D01*
X1438839Y-1534500D01*
X1436440Y-1537460D01*
X1434600Y-1540780D01*
X1433320Y-1544360D01*
X1432680Y-1548100D01*
X1432680Y-1551900D01*
X1433320Y-1555640D01*
X1434600Y-1559220D01*
X1436440Y-1562540D01*
X1438839Y-1565480D01*
X1441680Y-1568000D01*
X1444920Y-1569980D01*
X1448440Y-1571399D01*
X1452160Y-1572200D01*
G37*
G36*
X1500940Y-1542360D02*
G01*
X1504720Y-1541879D01*
X1508340Y-1540780D01*
X1511740Y-1539060D01*
X1514780Y-1536800D01*
X1517420Y-1534060D01*
X1519540Y-1530920D01*
X1521100Y-1527460D01*
X1522060Y-1523779D01*
X1522380Y-1520000D01*
X1522060Y-1516220D01*
X1521100Y-1512540D01*
X1519540Y-1509079D01*
X1517420Y-1505920D01*
X1514780Y-1503180D01*
X1511740Y-1500920D01*
X1508340Y-1499220D01*
X1504720Y-1498100D01*
X1500940Y-1497620D01*
X1497160Y-1497780D01*
X1493440Y-1498580D01*
X1489920Y-1500000D01*
X1486680Y-1502000D01*
X1483839Y-1504500D01*
X1481440Y-1507460D01*
X1479600Y-1510780D01*
X1478320Y-1514360D01*
X1477680Y-1518100D01*
X1477680Y-1521900D01*
X1478320Y-1525640D01*
X1479600Y-1529220D01*
X1481440Y-1532540D01*
X1483839Y-1535480D01*
X1486680Y-1538000D01*
X1489920Y-1539980D01*
X1493440Y-1541399D01*
X1497160Y-1542200D01*
G37*
G36*
X2500960Y-1537380D02*
G01*
X2504720Y-1536879D01*
X2508340Y-1535780D01*
X2511740Y-1534060D01*
X2514800Y-1531800D01*
X2517420Y-1529060D01*
X2519540Y-1525920D01*
X2521120Y-1522460D01*
X2522060Y-1518779D01*
X2522400Y-1515000D01*
X2522060Y-1511220D01*
X2521120Y-1507540D01*
X2519540Y-1504079D01*
X2517420Y-1500940D01*
X2514800Y-1498200D01*
X2511740Y-1495940D01*
X2508340Y-1494220D01*
X2504720Y-1493120D01*
X2500960Y-1492620D01*
X2497160Y-1492800D01*
X2493440Y-1493600D01*
X2489920Y-1495000D01*
X2486680Y-1497000D01*
X2483840Y-1499500D01*
X2481440Y-1502460D01*
X2479600Y-1505780D01*
X2478340Y-1509360D01*
X2477700Y-1513100D01*
X2477700Y-1516900D01*
X2478340Y-1520640D01*
X2479600Y-1524220D01*
X2481440Y-1527540D01*
X2483840Y-1530500D01*
X2486680Y-1533000D01*
X2489920Y-1535000D01*
X2493440Y-1536399D01*
X2497160Y-1537200D01*
G37*
G36*
X1455940Y-1512360D02*
G01*
X1459720Y-1511879D01*
X1463340Y-1510780D01*
X1466740Y-1509060D01*
X1469780Y-1506800D01*
X1472420Y-1504060D01*
X1474540Y-1500920D01*
X1476100Y-1497460D01*
X1477060Y-1493779D01*
X1477380Y-1490000D01*
X1477060Y-1486220D01*
X1476100Y-1482540D01*
X1474540Y-1479079D01*
X1472420Y-1475920D01*
X1469780Y-1473180D01*
X1466740Y-1470920D01*
X1463340Y-1469220D01*
X1459720Y-1468100D01*
X1455940Y-1467620D01*
X1452160Y-1467780D01*
X1448440Y-1468580D01*
X1444920Y-1470000D01*
X1441680Y-1472000D01*
X1438839Y-1474500D01*
X1436440Y-1477460D01*
X1434600Y-1480780D01*
X1433320Y-1484360D01*
X1432680Y-1488100D01*
X1432680Y-1491900D01*
X1433320Y-1495640D01*
X1434600Y-1499220D01*
X1436440Y-1502540D01*
X1438839Y-1505480D01*
X1441680Y-1508000D01*
X1444920Y-1509980D01*
X1448440Y-1511399D01*
X1452160Y-1512200D01*
G37*
G36*
X1545940Y-1512360D02*
G01*
X1549720Y-1511879D01*
X1553340Y-1510780D01*
X1556740Y-1509060D01*
X1559780Y-1506800D01*
X1562420Y-1504060D01*
X1564540Y-1500920D01*
X1566100Y-1497460D01*
X1567060Y-1493779D01*
X1567380Y-1490000D01*
X1567060Y-1486220D01*
X1566100Y-1482540D01*
X1564540Y-1479079D01*
X1562420Y-1475920D01*
X1559780Y-1473180D01*
X1556740Y-1470920D01*
X1553340Y-1469220D01*
X1549720Y-1468100D01*
X1545940Y-1467620D01*
X1542160Y-1467780D01*
X1538440Y-1468580D01*
X1534920Y-1470000D01*
X1531680Y-1472000D01*
X1528839Y-1474500D01*
X1526440Y-1477460D01*
X1524600Y-1480780D01*
X1523320Y-1484360D01*
X1522680Y-1488100D01*
X1522680Y-1491900D01*
X1523320Y-1495640D01*
X1524600Y-1499220D01*
X1526440Y-1502540D01*
X1528839Y-1505480D01*
X1531680Y-1508000D01*
X1534920Y-1509980D01*
X1538440Y-1511399D01*
X1542160Y-1512200D01*
G37*
G36*
X2460960Y-1497380D02*
G01*
X2464720Y-1496879D01*
X2468340Y-1495780D01*
X2471740Y-1494060D01*
X2474800Y-1491800D01*
X2477420Y-1489060D01*
X2479540Y-1485920D01*
X2481120Y-1482460D01*
X2482060Y-1478779D01*
X2482400Y-1475000D01*
X2482060Y-1471220D01*
X2481120Y-1467540D01*
X2479540Y-1464079D01*
X2477420Y-1460940D01*
X2474800Y-1458200D01*
X2471740Y-1455940D01*
X2468340Y-1454220D01*
X2464720Y-1453120D01*
X2460960Y-1452620D01*
X2457160Y-1452800D01*
X2453440Y-1453600D01*
X2449920Y-1455000D01*
X2446680Y-1457000D01*
X2443840Y-1459500D01*
X2441440Y-1462460D01*
X2439600Y-1465780D01*
X2438340Y-1469360D01*
X2437700Y-1473100D01*
X2437700Y-1476900D01*
X2438340Y-1480640D01*
X2439600Y-1484220D01*
X2441440Y-1487540D01*
X2443840Y-1490500D01*
X2446680Y-1493000D01*
X2449920Y-1495000D01*
X2453440Y-1496399D01*
X2457160Y-1497200D01*
G37*
G36*
X2540960Y-1497380D02*
G01*
X2544720Y-1496879D01*
X2548340Y-1495780D01*
X2551740Y-1494060D01*
X2554800Y-1491800D01*
X2557420Y-1489060D01*
X2559540Y-1485920D01*
X2561120Y-1482460D01*
X2562060Y-1478779D01*
X2562400Y-1475000D01*
X2562060Y-1471220D01*
X2561120Y-1467540D01*
X2559540Y-1464079D01*
X2557420Y-1460940D01*
X2554800Y-1458200D01*
X2551740Y-1455940D01*
X2548340Y-1454220D01*
X2544720Y-1453120D01*
X2540960Y-1452620D01*
X2537160Y-1452800D01*
X2533440Y-1453600D01*
X2529920Y-1455000D01*
X2526680Y-1457000D01*
X2523840Y-1459500D01*
X2521440Y-1462460D01*
X2519600Y-1465780D01*
X2518340Y-1469360D01*
X2517700Y-1473100D01*
X2517700Y-1476900D01*
X2518340Y-1480640D01*
X2519600Y-1484220D01*
X2521440Y-1487540D01*
X2523840Y-1490500D01*
X2526680Y-1493000D01*
X2529920Y-1495000D01*
X2533440Y-1496399D01*
X2537160Y-1497200D01*
G37*
G36*
X323420Y-1440980D02*
G01*
X330080Y-1440600D01*
X336640Y-1439480D01*
X343040Y-1437640D01*
X349200Y-1435100D01*
X355020Y-1431860D01*
X360460Y-1428020D01*
X365420Y-1423580D01*
X369860Y-1418600D01*
X373720Y-1413180D01*
X376940Y-1407340D01*
X379500Y-1401180D01*
X381340Y-1394780D01*
X382460Y-1388220D01*
X382819Y-1381560D01*
X382460Y-1374920D01*
X381340Y-1368340D01*
X379500Y-1361940D01*
X376940Y-1355800D01*
X373720Y-1349960D01*
X369860Y-1344520D01*
X365420Y-1339560D01*
X360460Y-1335120D01*
X355020Y-1331260D01*
X349200Y-1328040D01*
X343040Y-1325500D01*
X336640Y-1323660D01*
X330080Y-1322540D01*
X323420Y-1322160D01*
X316760Y-1322540D01*
X310200Y-1323660D01*
X303800Y-1325500D01*
X297640Y-1328040D01*
X291820Y-1331260D01*
X286380Y-1335120D01*
X281420Y-1339560D01*
X276980Y-1344520D01*
X273120Y-1349960D01*
X269900Y-1355800D01*
X267340Y-1361940D01*
X265500Y-1368340D01*
X264380Y-1374920D01*
X264020Y-1381560D01*
X264380Y-1388220D01*
X265500Y-1394780D01*
X267340Y-1401180D01*
X269900Y-1407340D01*
X273120Y-1413180D01*
X276980Y-1418600D01*
X281420Y-1423580D01*
X286380Y-1428020D01*
X291820Y-1431860D01*
X297640Y-1435100D01*
X303800Y-1437640D01*
X310200Y-1439480D01*
X316760Y-1440600D01*
G37*
G36*
X1400980Y-1412960D02*
G01*
X1404840Y-1412460D01*
X1408560Y-1411320D01*
X1412040Y-1409560D01*
X1415180Y-1407260D01*
X1417880Y-1404440D01*
X1420060Y-1401200D01*
X1421660Y-1397660D01*
X1422660Y-1393880D01*
X1422980Y-1390000D01*
X1422660Y-1386120D01*
X1421660Y-1382340D01*
X1420060Y-1378800D01*
X1417880Y-1375560D01*
X1415180Y-1372740D01*
X1412040Y-1370440D01*
X1408560Y-1368680D01*
X1404840Y-1367540D01*
X1400980Y-1367040D01*
X1397080Y-1367200D01*
X1393280Y-1368020D01*
X1389660Y-1369480D01*
X1386339Y-1371519D01*
X1383400Y-1374100D01*
X1380960Y-1377140D01*
X1379060Y-1380540D01*
X1377760Y-1384199D01*
X1377100Y-1388060D01*
X1377100Y-1391940D01*
X1377760Y-1395800D01*
X1379060Y-1399460D01*
X1380960Y-1402860D01*
X1383400Y-1405900D01*
X1386339Y-1408480D01*
X1389660Y-1410520D01*
X1393280Y-1411980D01*
X1397080Y-1412800D01*
G37*
G36*
X2405980Y-1412960D02*
G01*
X2409840Y-1412460D01*
X2413560Y-1411320D01*
X2417040Y-1409560D01*
X2420180Y-1407260D01*
X2422880Y-1404440D01*
X2425060Y-1401200D01*
X2426660Y-1397660D01*
X2427660Y-1393880D01*
X2427980Y-1390000D01*
X2427660Y-1386120D01*
X2426660Y-1382340D01*
X2425060Y-1378800D01*
X2422880Y-1375560D01*
X2420180Y-1372740D01*
X2417040Y-1370440D01*
X2413560Y-1368680D01*
X2409840Y-1367540D01*
X2405980Y-1367040D01*
X2402080Y-1367200D01*
X2398280Y-1368020D01*
X2394660Y-1369480D01*
X2391340Y-1371519D01*
X2388400Y-1374100D01*
X2385960Y-1377140D01*
X2384060Y-1380540D01*
X2382760Y-1384199D01*
X2382100Y-1388060D01*
X2382100Y-1391940D01*
X2382760Y-1395800D01*
X2384060Y-1399460D01*
X2385960Y-1402860D01*
X2388400Y-1405900D01*
X2391340Y-1408480D01*
X2394660Y-1410520D01*
X2398280Y-1411980D01*
X2402080Y-1412800D01*
G37*
G36*
X2525980Y-1377960D02*
G01*
X2529840Y-1377460D01*
X2533560Y-1376320D01*
X2537040Y-1374560D01*
X2540180Y-1372260D01*
X2542880Y-1369440D01*
X2545060Y-1366200D01*
X2546660Y-1362660D01*
X2547660Y-1358880D01*
X2547980Y-1355000D01*
X2547660Y-1351120D01*
X2546660Y-1347340D01*
X2545060Y-1343800D01*
X2542880Y-1340560D01*
X2540180Y-1337740D01*
X2537040Y-1335440D01*
X2533560Y-1333680D01*
X2529840Y-1332540D01*
X2525980Y-1332040D01*
X2522080Y-1332200D01*
X2518280Y-1333020D01*
X2514660Y-1334480D01*
X2511340Y-1336519D01*
X2508400Y-1339100D01*
X2505960Y-1342140D01*
X2504060Y-1345540D01*
X2502760Y-1349199D01*
X2502100Y-1353060D01*
X2502100Y-1356940D01*
X2502760Y-1360800D01*
X2504060Y-1364460D01*
X2505960Y-1367860D01*
X2508400Y-1370900D01*
X2511340Y-1373480D01*
X2514660Y-1375520D01*
X2518280Y-1376980D01*
X2522080Y-1377800D01*
G37*
G36*
X1525980Y-1377960D02*
G01*
X1529840Y-1377460D01*
X1533560Y-1376320D01*
X1537040Y-1374560D01*
X1540180Y-1372260D01*
X1542880Y-1369440D01*
X1545060Y-1366200D01*
X1546660Y-1362660D01*
X1547660Y-1358880D01*
X1547980Y-1355000D01*
X1547660Y-1351120D01*
X1546660Y-1347340D01*
X1545060Y-1343800D01*
X1542880Y-1340560D01*
X1540180Y-1337740D01*
X1537040Y-1335440D01*
X1533560Y-1333680D01*
X1529840Y-1332540D01*
X1525980Y-1332040D01*
X1522080Y-1332200D01*
X1518280Y-1333020D01*
X1514660Y-1334480D01*
X1511339Y-1336519D01*
X1508400Y-1339100D01*
X1505960Y-1342140D01*
X1504060Y-1345540D01*
X1502760Y-1349199D01*
X1502100Y-1353060D01*
X1502100Y-1356940D01*
X1502760Y-1360800D01*
X1504060Y-1364460D01*
X1505960Y-1367860D01*
X1508400Y-1370900D01*
X1511339Y-1373480D01*
X1514660Y-1375520D01*
X1518280Y-1376980D01*
X1522080Y-1377800D01*
G37*
G36*
X2190980Y-1337960D02*
G01*
X2194840Y-1337460D01*
X2198560Y-1336320D01*
X2202040Y-1334560D01*
X2205180Y-1332260D01*
X2207880Y-1329440D01*
X2210060Y-1326200D01*
X2211660Y-1322660D01*
X2212660Y-1318880D01*
X2212980Y-1315000D01*
X2212660Y-1311120D01*
X2211660Y-1307340D01*
X2210060Y-1303800D01*
X2207880Y-1300560D01*
X2205180Y-1297740D01*
X2202040Y-1295440D01*
X2198560Y-1293680D01*
X2194840Y-1292540D01*
X2190980Y-1292040D01*
X2187080Y-1292200D01*
X2183280Y-1293020D01*
X2179660Y-1294480D01*
X2176340Y-1296519D01*
X2173400Y-1299100D01*
X2170960Y-1302140D01*
X2169060Y-1305540D01*
X2167760Y-1309199D01*
X2167100Y-1313060D01*
X2167100Y-1316940D01*
X2167760Y-1320800D01*
X2169060Y-1324460D01*
X2170960Y-1327860D01*
X2173400Y-1330900D01*
X2176340Y-1333480D01*
X2179660Y-1335520D01*
X2183280Y-1336980D01*
X2187080Y-1337800D01*
G37*
G36*
X1050960Y-1322380D02*
G01*
X1054720Y-1321879D01*
X1058340Y-1320780D01*
X1061740Y-1319060D01*
X1064800Y-1316800D01*
X1067420Y-1314060D01*
X1069540Y-1310920D01*
X1071120Y-1307460D01*
X1072060Y-1303779D01*
X1072400Y-1300000D01*
X1072060Y-1296220D01*
X1071120Y-1292540D01*
X1069540Y-1289079D01*
X1067420Y-1285940D01*
X1064800Y-1283200D01*
X1061740Y-1280940D01*
X1058340Y-1279220D01*
X1054720Y-1278120D01*
X1050960Y-1277620D01*
X1047159Y-1277800D01*
X1043439Y-1278600D01*
X1039920Y-1280000D01*
X1036680Y-1282000D01*
X1033840Y-1284500D01*
X1031440Y-1287460D01*
X1029599Y-1290780D01*
X1028340Y-1294360D01*
X1027700Y-1298100D01*
X1027700Y-1301900D01*
X1028340Y-1305640D01*
X1029599Y-1309220D01*
X1031440Y-1312540D01*
X1033840Y-1315500D01*
X1036680Y-1318000D01*
X1039920Y-1320000D01*
X1043439Y-1321399D01*
X1047159Y-1322200D01*
G37*
G36*
X2950960Y-1312380D02*
G01*
X2954720Y-1311879D01*
X2958340Y-1310780D01*
X2961740Y-1309060D01*
X2964800Y-1306800D01*
X2967420Y-1304060D01*
X2969540Y-1300920D01*
X2971120Y-1297460D01*
X2972060Y-1293779D01*
X2972400Y-1290000D01*
X2972060Y-1286220D01*
X2971120Y-1282540D01*
X2969540Y-1279080D01*
X2967420Y-1275940D01*
X2964800Y-1273200D01*
X2961740Y-1270940D01*
X2958340Y-1269220D01*
X2954720Y-1268120D01*
X2950960Y-1267620D01*
X2947160Y-1267800D01*
X2943440Y-1268600D01*
X2939920Y-1270000D01*
X2936680Y-1272000D01*
X2933840Y-1274500D01*
X2931440Y-1277460D01*
X2929600Y-1280780D01*
X2928340Y-1284360D01*
X2927700Y-1288100D01*
X2927700Y-1291900D01*
X2928340Y-1295640D01*
X2929600Y-1299220D01*
X2931440Y-1302540D01*
X2933840Y-1305500D01*
X2936680Y-1308000D01*
X2939920Y-1310000D01*
X2943440Y-1311399D01*
X2947160Y-1312200D01*
G37*
G36*
X126580Y-1309079D02*
G01*
X132280Y-1308720D01*
X137920Y-1307640D01*
X143360Y-1305880D01*
X148560Y-1303440D01*
X153380Y-1300360D01*
X157800Y-1296720D01*
X161720Y-1292540D01*
X165100Y-1287900D01*
X167860Y-1282880D01*
X169960Y-1277560D01*
X171380Y-1272000D01*
X172100Y-1266320D01*
X172100Y-1260600D01*
X171380Y-1254900D01*
X169960Y-1249360D01*
X167860Y-1244040D01*
X165100Y-1239020D01*
X161720Y-1234380D01*
X157800Y-1230200D01*
X153380Y-1226540D01*
X148560Y-1223480D01*
X143360Y-1221040D01*
X137920Y-1219260D01*
X132280Y-1218200D01*
X126580Y-1217840D01*
X120860Y-1218200D01*
X115220Y-1219260D01*
X109780Y-1221040D01*
X104580Y-1223480D01*
X99760Y-1226540D01*
X95340Y-1230200D01*
X91420Y-1234380D01*
X88040Y-1239020D01*
X85280Y-1244040D01*
X83180Y-1249360D01*
X81760Y-1254900D01*
X81039Y-1260600D01*
X81039Y-1266320D01*
X81760Y-1272000D01*
X83180Y-1277560D01*
X85280Y-1282880D01*
X88040Y-1287900D01*
X91420Y-1292540D01*
X95340Y-1296720D01*
X99760Y-1300360D01*
X104580Y-1303440D01*
X109780Y-1305880D01*
X115220Y-1307640D01*
X120860Y-1308720D01*
G37*
G36*
X2355960Y-1277380D02*
G01*
X2359720Y-1276880D01*
X2363340Y-1275780D01*
X2366740Y-1274060D01*
X2369800Y-1271800D01*
X2372420Y-1269060D01*
X2374540Y-1265920D01*
X2376120Y-1262460D01*
X2377060Y-1258780D01*
X2377400Y-1255000D01*
X2377060Y-1251220D01*
X2376120Y-1247540D01*
X2374540Y-1244080D01*
X2372420Y-1240940D01*
X2369800Y-1238200D01*
X2366740Y-1235940D01*
X2363340Y-1234220D01*
X2359720Y-1233120D01*
X2355960Y-1232620D01*
X2352160Y-1232800D01*
X2348440Y-1233600D01*
X2344920Y-1235000D01*
X2341680Y-1237000D01*
X2338840Y-1239500D01*
X2336440Y-1242460D01*
X2334600Y-1245780D01*
X2333340Y-1249360D01*
X2332700Y-1253100D01*
X2332700Y-1256900D01*
X2333340Y-1260640D01*
X2334600Y-1264220D01*
X2336440Y-1267540D01*
X2338840Y-1270500D01*
X2341680Y-1273000D01*
X2344920Y-1275000D01*
X2348440Y-1276400D01*
X2352160Y-1277200D01*
G37*
G36*
X2275960Y-1277380D02*
G01*
X2279720Y-1276880D01*
X2283340Y-1275780D01*
X2286740Y-1274060D01*
X2289800Y-1271800D01*
X2292420Y-1269060D01*
X2294540Y-1265920D01*
X2296120Y-1262460D01*
X2297060Y-1258780D01*
X2297400Y-1255000D01*
X2297060Y-1251220D01*
X2296120Y-1247540D01*
X2294540Y-1244080D01*
X2292420Y-1240940D01*
X2289800Y-1238200D01*
X2286740Y-1235940D01*
X2283340Y-1234220D01*
X2279720Y-1233120D01*
X2275960Y-1232620D01*
X2272160Y-1232800D01*
X2268440Y-1233600D01*
X2264920Y-1235000D01*
X2261680Y-1237000D01*
X2258840Y-1239500D01*
X2256440Y-1242460D01*
X2254600Y-1245780D01*
X2253340Y-1249360D01*
X2252700Y-1253100D01*
X2252700Y-1256900D01*
X2253340Y-1260640D01*
X2254600Y-1264220D01*
X2256440Y-1267540D01*
X2258840Y-1270500D01*
X2261680Y-1273000D01*
X2264920Y-1275000D01*
X2268440Y-1276400D01*
X2272160Y-1277200D01*
G37*
G36*
X1645940Y-1277360D02*
G01*
X1649720Y-1276880D01*
X1653340Y-1275780D01*
X1656740Y-1274060D01*
X1659780Y-1271800D01*
X1662420Y-1269060D01*
X1664540Y-1265920D01*
X1666100Y-1262460D01*
X1667060Y-1258780D01*
X1667380Y-1255000D01*
X1667060Y-1251220D01*
X1666100Y-1247540D01*
X1664540Y-1244080D01*
X1662420Y-1240920D01*
X1659780Y-1238180D01*
X1656740Y-1235920D01*
X1653340Y-1234220D01*
X1649720Y-1233100D01*
X1645940Y-1232620D01*
X1642160Y-1232780D01*
X1638440Y-1233580D01*
X1634920Y-1235000D01*
X1631680Y-1237000D01*
X1628839Y-1239500D01*
X1626440Y-1242460D01*
X1624600Y-1245780D01*
X1623320Y-1249360D01*
X1622680Y-1253100D01*
X1622680Y-1256900D01*
X1623320Y-1260640D01*
X1624600Y-1264220D01*
X1626440Y-1267540D01*
X1628839Y-1270480D01*
X1631680Y-1273000D01*
X1634920Y-1274980D01*
X1638440Y-1276400D01*
X1642160Y-1277200D01*
G37*
G36*
X1725940Y-1277360D02*
G01*
X1729720Y-1276880D01*
X1733340Y-1275780D01*
X1736740Y-1274060D01*
X1739780Y-1271800D01*
X1742420Y-1269060D01*
X1744540Y-1265920D01*
X1746100Y-1262460D01*
X1747060Y-1258780D01*
X1747380Y-1255000D01*
X1747060Y-1251220D01*
X1746100Y-1247540D01*
X1744540Y-1244080D01*
X1742420Y-1240920D01*
X1739780Y-1238180D01*
X1736740Y-1235920D01*
X1733340Y-1234220D01*
X1729720Y-1233100D01*
X1725940Y-1232620D01*
X1722160Y-1232780D01*
X1718440Y-1233580D01*
X1714920Y-1235000D01*
X1711680Y-1237000D01*
X1708839Y-1239500D01*
X1706440Y-1242460D01*
X1704600Y-1245780D01*
X1703320Y-1249360D01*
X1702680Y-1253100D01*
X1702680Y-1256900D01*
X1703320Y-1260640D01*
X1704600Y-1264220D01*
X1706440Y-1267540D01*
X1708839Y-1270480D01*
X1711680Y-1273000D01*
X1714920Y-1274980D01*
X1718440Y-1276400D01*
X1722160Y-1277200D01*
G37*
G36*
X2315960Y-1237380D02*
G01*
X2319720Y-1236880D01*
X2323340Y-1235780D01*
X2326740Y-1234060D01*
X2329800Y-1231800D01*
X2332420Y-1229060D01*
X2334540Y-1225920D01*
X2336120Y-1222460D01*
X2337060Y-1218780D01*
X2337400Y-1215000D01*
X2337060Y-1211220D01*
X2336120Y-1207540D01*
X2334540Y-1204080D01*
X2332420Y-1200940D01*
X2329800Y-1198200D01*
X2326740Y-1195940D01*
X2323340Y-1194220D01*
X2319720Y-1193120D01*
X2315960Y-1192620D01*
X2312160Y-1192800D01*
X2308440Y-1193600D01*
X2304920Y-1195000D01*
X2301680Y-1197000D01*
X2298840Y-1199500D01*
X2296440Y-1202460D01*
X2294600Y-1205780D01*
X2293340Y-1209360D01*
X2292700Y-1213100D01*
X2292700Y-1216900D01*
X2293340Y-1220640D01*
X2294600Y-1224220D01*
X2296440Y-1227540D01*
X2298840Y-1230500D01*
X2301680Y-1233000D01*
X2304920Y-1235000D01*
X2308440Y-1236400D01*
X2312160Y-1237200D01*
G37*
G36*
X1685940Y-1237360D02*
G01*
X1689720Y-1236880D01*
X1693340Y-1235780D01*
X1696740Y-1234060D01*
X1699780Y-1231800D01*
X1702420Y-1229060D01*
X1704540Y-1225920D01*
X1706100Y-1222460D01*
X1707060Y-1218780D01*
X1707380Y-1215000D01*
X1707060Y-1211220D01*
X1706100Y-1207540D01*
X1704540Y-1204080D01*
X1702420Y-1200920D01*
X1699780Y-1198180D01*
X1696740Y-1195920D01*
X1693340Y-1194220D01*
X1689720Y-1193100D01*
X1685940Y-1192620D01*
X1682160Y-1192780D01*
X1678440Y-1193580D01*
X1674920Y-1195000D01*
X1671680Y-1197000D01*
X1668839Y-1199500D01*
X1666440Y-1202460D01*
X1664600Y-1205780D01*
X1663320Y-1209360D01*
X1662680Y-1213100D01*
X1662680Y-1216900D01*
X1663320Y-1220640D01*
X1664600Y-1224220D01*
X1666440Y-1227540D01*
X1668839Y-1230480D01*
X1671680Y-1233000D01*
X1674920Y-1234980D01*
X1678440Y-1236400D01*
X1682160Y-1237200D01*
G37*
G36*
X2275960Y-1197380D02*
G01*
X2279720Y-1196880D01*
X2283340Y-1195780D01*
X2286740Y-1194060D01*
X2289800Y-1191800D01*
X2292420Y-1189060D01*
X2294540Y-1185920D01*
X2296120Y-1182460D01*
X2297060Y-1178780D01*
X2297400Y-1175000D01*
X2297060Y-1171220D01*
X2296120Y-1167540D01*
X2294540Y-1164080D01*
X2292420Y-1160940D01*
X2289800Y-1158200D01*
X2286740Y-1155940D01*
X2283340Y-1154220D01*
X2279720Y-1153120D01*
X2275960Y-1152620D01*
X2272160Y-1152800D01*
X2268440Y-1153600D01*
X2264920Y-1155000D01*
X2261680Y-1157000D01*
X2258840Y-1159500D01*
X2256440Y-1162460D01*
X2254600Y-1165780D01*
X2253340Y-1169360D01*
X2252700Y-1173100D01*
X2252700Y-1176900D01*
X2253340Y-1180640D01*
X2254600Y-1184220D01*
X2256440Y-1187540D01*
X2258840Y-1190500D01*
X2261680Y-1193000D01*
X2264920Y-1195000D01*
X2268440Y-1196400D01*
X2272160Y-1197200D01*
G37*
G36*
X2355960Y-1197380D02*
G01*
X2359720Y-1196880D01*
X2363340Y-1195780D01*
X2366740Y-1194060D01*
X2369800Y-1191800D01*
X2372420Y-1189060D01*
X2374540Y-1185920D01*
X2376120Y-1182460D01*
X2377060Y-1178780D01*
X2377400Y-1175000D01*
X2377060Y-1171220D01*
X2376120Y-1167540D01*
X2374540Y-1164080D01*
X2372420Y-1160940D01*
X2369800Y-1158200D01*
X2366740Y-1155940D01*
X2363340Y-1154220D01*
X2359720Y-1153120D01*
X2355960Y-1152620D01*
X2352160Y-1152800D01*
X2348440Y-1153600D01*
X2344920Y-1155000D01*
X2341680Y-1157000D01*
X2338840Y-1159500D01*
X2336440Y-1162460D01*
X2334600Y-1165780D01*
X2333340Y-1169360D01*
X2332700Y-1173100D01*
X2332700Y-1176900D01*
X2333340Y-1180640D01*
X2334600Y-1184220D01*
X2336440Y-1187540D01*
X2338840Y-1190500D01*
X2341680Y-1193000D01*
X2344920Y-1195000D01*
X2348440Y-1196400D01*
X2352160Y-1197200D01*
G37*
G36*
X1725940Y-1197360D02*
G01*
X1729720Y-1196880D01*
X1733340Y-1195780D01*
X1736740Y-1194060D01*
X1739780Y-1191800D01*
X1742420Y-1189060D01*
X1744540Y-1185920D01*
X1746100Y-1182460D01*
X1747060Y-1178780D01*
X1747380Y-1175000D01*
X1747060Y-1171220D01*
X1746100Y-1167540D01*
X1744540Y-1164080D01*
X1742420Y-1160920D01*
X1739780Y-1158180D01*
X1736740Y-1155920D01*
X1733340Y-1154220D01*
X1729720Y-1153100D01*
X1725940Y-1152620D01*
X1722160Y-1152780D01*
X1718440Y-1153580D01*
X1714920Y-1155000D01*
X1711680Y-1157000D01*
X1708839Y-1159500D01*
X1706440Y-1162460D01*
X1704600Y-1165780D01*
X1703320Y-1169360D01*
X1702680Y-1173100D01*
X1702680Y-1176900D01*
X1703320Y-1180640D01*
X1704600Y-1184220D01*
X1706440Y-1187540D01*
X1708839Y-1190480D01*
X1711680Y-1193000D01*
X1714920Y-1194980D01*
X1718440Y-1196400D01*
X1722160Y-1197200D01*
G37*
G36*
X1645940Y-1197360D02*
G01*
X1649720Y-1196880D01*
X1653340Y-1195780D01*
X1656740Y-1194060D01*
X1659780Y-1191800D01*
X1662420Y-1189060D01*
X1664540Y-1185920D01*
X1666100Y-1182460D01*
X1667060Y-1178780D01*
X1667380Y-1175000D01*
X1667060Y-1171220D01*
X1666100Y-1167540D01*
X1664540Y-1164080D01*
X1662420Y-1160920D01*
X1659780Y-1158180D01*
X1656740Y-1155920D01*
X1653340Y-1154220D01*
X1649720Y-1153100D01*
X1645940Y-1152620D01*
X1642160Y-1152780D01*
X1638440Y-1153580D01*
X1634920Y-1155000D01*
X1631680Y-1157000D01*
X1628839Y-1159500D01*
X1626440Y-1162460D01*
X1624600Y-1165780D01*
X1623320Y-1169360D01*
X1622680Y-1173100D01*
X1622680Y-1176900D01*
X1623320Y-1180640D01*
X1624600Y-1184220D01*
X1626440Y-1187540D01*
X1628839Y-1190480D01*
X1631680Y-1193000D01*
X1634920Y-1194980D01*
X1638440Y-1196400D01*
X1642160Y-1197200D01*
G37*
G36*
X1810980Y-1137960D02*
G01*
X1814840Y-1137460D01*
X1818560Y-1136320D01*
X1822040Y-1134560D01*
X1825180Y-1132260D01*
X1827880Y-1129440D01*
X1830060Y-1126200D01*
X1831660Y-1122660D01*
X1832660Y-1118880D01*
X1832980Y-1115000D01*
X1832660Y-1111120D01*
X1831660Y-1107340D01*
X1830060Y-1103800D01*
X1827880Y-1100560D01*
X1825180Y-1097740D01*
X1822040Y-1095440D01*
X1818560Y-1093680D01*
X1814840Y-1092540D01*
X1810980Y-1092040D01*
X1807080Y-1092200D01*
X1803280Y-1093020D01*
X1799660Y-1094480D01*
X1796339Y-1096520D01*
X1793400Y-1099100D01*
X1790960Y-1102140D01*
X1789060Y-1105540D01*
X1787760Y-1109200D01*
X1787100Y-1113060D01*
X1787100Y-1116940D01*
X1787760Y-1120800D01*
X1789060Y-1124460D01*
X1790960Y-1127860D01*
X1793400Y-1130900D01*
X1796339Y-1133480D01*
X1799660Y-1135520D01*
X1803280Y-1136980D01*
X1807080Y-1137800D01*
G37*
G36*
X1073460Y-1133420D02*
G01*
X1079700Y-1133420D01*
X1085880Y-1132700D01*
X1091920Y-1131260D01*
X1097780Y-1129120D01*
X1103340Y-1126340D01*
X1108520Y-1122920D01*
X1113300Y-1118920D01*
X1117560Y-1114400D01*
X1121280Y-1109400D01*
X1124380Y-1104020D01*
X1126860Y-1098300D01*
X1128640Y-1092340D01*
X1129720Y-1086220D01*
X1130080Y-1080000D01*
X1129720Y-1073800D01*
X1128640Y-1067660D01*
X1126860Y-1061700D01*
X1124380Y-1056000D01*
X1121280Y-1050600D01*
X1117560Y-1045620D01*
X1113300Y-1041100D01*
X1108520Y-1037099D01*
X1103340Y-1033680D01*
X1097780Y-1030879D01*
X1091920Y-1028760D01*
X1085880Y-1027320D01*
X1079700Y-1026600D01*
X1073460Y-1026600D01*
X1067280Y-1027320D01*
X1061240Y-1028760D01*
X1055380Y-1030879D01*
X1049820Y-1033680D01*
X1044640Y-1037099D01*
X1039860Y-1041100D01*
X1035600Y-1045620D01*
X1031880Y-1050600D01*
X1028780Y-1056000D01*
X1026300Y-1061700D01*
X1024520Y-1067660D01*
X1023439Y-1073800D01*
X1023080Y-1080000D01*
X1023439Y-1086220D01*
X1024520Y-1092340D01*
X1026300Y-1098300D01*
X1028780Y-1104020D01*
X1031880Y-1109400D01*
X1035600Y-1114400D01*
X1039860Y-1118920D01*
X1044640Y-1122920D01*
X1049820Y-1126340D01*
X1055380Y-1129120D01*
X1061240Y-1131260D01*
X1067280Y-1132700D01*
G37*
G36*
X126580Y-862159D02*
G01*
X132280Y-861800D01*
X137920Y-860720D01*
X143360Y-858940D01*
X148560Y-856500D01*
X153380Y-853439D01*
X157800Y-849780D01*
X161720Y-845620D01*
X165100Y-840980D01*
X167860Y-835960D01*
X169960Y-830620D01*
X171380Y-825080D01*
X172100Y-819400D01*
X172100Y-813660D01*
X171380Y-807980D01*
X169960Y-802420D01*
X167860Y-797099D01*
X165100Y-792080D01*
X161720Y-787440D01*
X157800Y-783259D01*
X153380Y-779620D01*
X148560Y-776540D01*
X143360Y-774100D01*
X137920Y-772340D01*
X132280Y-771260D01*
X126580Y-770900D01*
X120860Y-771260D01*
X115220Y-772340D01*
X109780Y-774100D01*
X104580Y-776540D01*
X99760Y-779620D01*
X95340Y-783259D01*
X91420Y-787440D01*
X88040Y-792080D01*
X85280Y-797099D01*
X83180Y-802420D01*
X81760Y-807980D01*
X81039Y-813660D01*
X81039Y-819400D01*
X81760Y-825080D01*
X83180Y-830620D01*
X85280Y-835960D01*
X88040Y-840980D01*
X91420Y-845620D01*
X95340Y-849780D01*
X99760Y-853439D01*
X104580Y-856500D01*
X109780Y-858940D01*
X115220Y-860720D01*
X120860Y-861800D01*
G37*
G36*
X3698440Y-862159D02*
G01*
X3704140Y-861800D01*
X3709780Y-860740D01*
X3715220Y-858960D01*
X3720419Y-856520D01*
X3725240Y-853460D01*
X3729660Y-849800D01*
X3733580Y-845620D01*
X3736960Y-840980D01*
X3739720Y-835960D01*
X3741820Y-830639D01*
X3743240Y-825100D01*
X3743960Y-819400D01*
X3743960Y-813680D01*
X3743240Y-808000D01*
X3741820Y-802440D01*
X3739720Y-797120D01*
X3736960Y-792099D01*
X3733580Y-787460D01*
X3729660Y-783280D01*
X3725240Y-779640D01*
X3720419Y-776560D01*
X3715220Y-774120D01*
X3709780Y-772360D01*
X3704140Y-771280D01*
X3698440Y-770920D01*
X3692720Y-771280D01*
X3687080Y-772360D01*
X3681640Y-774120D01*
X3676440Y-776560D01*
X3671620Y-779640D01*
X3667200Y-783280D01*
X3663279Y-787460D01*
X3659900Y-792099D01*
X3657140Y-797120D01*
X3655040Y-802440D01*
X3653620Y-808000D01*
X3652900Y-813680D01*
X3652900Y-819400D01*
X3653620Y-825100D01*
X3655040Y-830639D01*
X3657140Y-835960D01*
X3659900Y-840980D01*
X3663279Y-845620D01*
X3667200Y-849800D01*
X3671620Y-853460D01*
X3676440Y-856520D01*
X3681640Y-858960D01*
X3687080Y-860740D01*
X3692720Y-861800D01*
G37*
G36*
X3501580Y-757840D02*
G01*
X3508240Y-757460D01*
X3514800Y-756340D01*
X3521200Y-754500D01*
X3527360Y-751960D01*
X3533180Y-748740D01*
X3538620Y-744880D01*
X3543580Y-740440D01*
X3548020Y-735480D01*
X3551880Y-730040D01*
X3555100Y-724200D01*
X3557660Y-718060D01*
X3559500Y-711660D01*
X3560620Y-705080D01*
X3560980Y-698439D01*
X3560620Y-691780D01*
X3559500Y-685220D01*
X3557660Y-678820D01*
X3555100Y-672660D01*
X3551880Y-666820D01*
X3548020Y-661400D01*
X3543580Y-656420D01*
X3538620Y-651979D01*
X3533180Y-648139D01*
X3527360Y-644900D01*
X3521200Y-642360D01*
X3514800Y-640520D01*
X3508240Y-639400D01*
X3501580Y-639020D01*
X3494920Y-639400D01*
X3488360Y-640520D01*
X3481960Y-642360D01*
X3475800Y-644900D01*
X3469980Y-648139D01*
X3464540Y-651979D01*
X3459580Y-656420D01*
X3455140Y-661400D01*
X3451280Y-666820D01*
X3448060Y-672660D01*
X3445500Y-678820D01*
X3443660Y-685220D01*
X3442540Y-691780D01*
X3442180Y-698439D01*
X3442540Y-705080D01*
X3443660Y-711660D01*
X3445500Y-718060D01*
X3448060Y-724200D01*
X3451280Y-730040D01*
X3455140Y-735480D01*
X3459580Y-740440D01*
X3464540Y-744880D01*
X3469980Y-748740D01*
X3475800Y-751960D01*
X3481960Y-754500D01*
X3488360Y-756340D01*
X3494920Y-757460D01*
G37*
G36*
X323420Y-560980D02*
G01*
X330080Y-560600D01*
X336640Y-559480D01*
X343040Y-557640D01*
X349200Y-555100D01*
X355020Y-551860D01*
X360460Y-548020D01*
X365420Y-543580D01*
X369860Y-538600D01*
X373720Y-533180D01*
X376940Y-527340D01*
X379500Y-521180D01*
X381340Y-514780D01*
X382460Y-508220D01*
X382819Y-501560D01*
X382460Y-494920D01*
X381340Y-488340D01*
X379500Y-481940D01*
X376940Y-475800D01*
X373720Y-469960D01*
X369860Y-464520D01*
X365420Y-459560D01*
X360460Y-455120D01*
X355020Y-451260D01*
X349200Y-448040D01*
X343040Y-445500D01*
X336640Y-443660D01*
X330080Y-442540D01*
X323420Y-442160D01*
X316760Y-442540D01*
X310200Y-443660D01*
X303800Y-445500D01*
X297640Y-448040D01*
X291820Y-451260D01*
X286380Y-455120D01*
X281420Y-459560D01*
X276980Y-464520D01*
X273120Y-469960D01*
X269900Y-475800D01*
X267340Y-481940D01*
X265500Y-488340D01*
X264380Y-494920D01*
X264020Y-501560D01*
X264380Y-508220D01*
X265500Y-514780D01*
X267340Y-521180D01*
X269900Y-527340D01*
X273120Y-533180D01*
X276980Y-538600D01*
X281420Y-543580D01*
X286380Y-548020D01*
X291820Y-551860D01*
X297640Y-555100D01*
X303800Y-557640D01*
X310200Y-559480D01*
X316760Y-560600D01*
G37*
G36*
X3698440Y-429099D02*
G01*
X3704140Y-428740D01*
X3709780Y-427660D01*
X3715220Y-425900D01*
X3720419Y-423459D01*
X3725240Y-420379D01*
X3729660Y-416740D01*
X3733580Y-412560D01*
X3736960Y-407920D01*
X3739720Y-402900D01*
X3741820Y-397580D01*
X3743240Y-392020D01*
X3743960Y-386340D01*
X3743960Y-380600D01*
X3743240Y-374920D01*
X3741820Y-369380D01*
X3739720Y-364040D01*
X3736960Y-359020D01*
X3733580Y-354380D01*
X3729660Y-350220D01*
X3725240Y-346560D01*
X3720419Y-343500D01*
X3715220Y-341060D01*
X3709780Y-339280D01*
X3704140Y-338200D01*
X3698440Y-337840D01*
X3692720Y-338200D01*
X3687080Y-339280D01*
X3681640Y-341060D01*
X3676440Y-343500D01*
X3671620Y-346560D01*
X3667200Y-350220D01*
X3663279Y-354380D01*
X3659900Y-359020D01*
X3657140Y-364040D01*
X3655040Y-369380D01*
X3653620Y-374920D01*
X3652900Y-380600D01*
X3652900Y-386340D01*
X3653620Y-392020D01*
X3655040Y-397580D01*
X3657140Y-402900D01*
X3659900Y-407920D01*
X3663279Y-412560D01*
X3667200Y-416740D01*
X3671620Y-420379D01*
X3676440Y-423459D01*
X3681640Y-425900D01*
X3687080Y-427660D01*
X3692720Y-428740D01*
G37*
G36*
X126580Y-429080D02*
G01*
X132280Y-428720D01*
X137920Y-427640D01*
X143360Y-425880D01*
X148560Y-423440D01*
X153380Y-420360D01*
X157800Y-416719D01*
X161720Y-412540D01*
X165100Y-407900D01*
X167860Y-402879D01*
X169960Y-397560D01*
X171380Y-392000D01*
X172100Y-386320D01*
X172100Y-380600D01*
X171380Y-374900D01*
X169960Y-369360D01*
X167860Y-364040D01*
X165100Y-359020D01*
X161720Y-354380D01*
X157800Y-350200D01*
X153380Y-346540D01*
X148560Y-343480D01*
X143360Y-341040D01*
X137920Y-339260D01*
X132280Y-338200D01*
X126580Y-337840D01*
X120860Y-338200D01*
X115220Y-339260D01*
X109780Y-341040D01*
X104580Y-343480D01*
X99760Y-346540D01*
X95340Y-350200D01*
X91420Y-354380D01*
X88040Y-359020D01*
X85280Y-364040D01*
X83180Y-369360D01*
X81760Y-374900D01*
X81039Y-380600D01*
X81039Y-386320D01*
X81760Y-392000D01*
X83180Y-397560D01*
X85280Y-402879D01*
X88040Y-407900D01*
X91420Y-412540D01*
X95340Y-416719D01*
X99760Y-420360D01*
X104580Y-423440D01*
X109780Y-425880D01*
X115220Y-427640D01*
X120860Y-428720D01*
G37*
G36*
X151780Y-219220D02*
G01*
X158900Y-218680D01*
X165900Y-217399D01*
X172760Y-215400D01*
X179360Y-212719D01*
X185640Y-209360D01*
X191560Y-205380D01*
X197040Y-200820D01*
X202020Y-195720D01*
X206439Y-190120D01*
X210260Y-184100D01*
X213460Y-177740D01*
X215960Y-171060D01*
X217780Y-164160D01*
X218880Y-157120D01*
X219240Y-150000D01*
X218880Y-142880D01*
X217780Y-135840D01*
X215960Y-128940D01*
X213460Y-122260D01*
X210260Y-115900D01*
X206439Y-109880D01*
X202020Y-104280D01*
X197040Y-99179D01*
X191560Y-94620D01*
X185640Y-90640D01*
X179360Y-87280D01*
X172760Y-84600D01*
X165900Y-82600D01*
X158900Y-81320D01*
X151780Y-80780D01*
X144660Y-80960D01*
X137580Y-81880D01*
X130640Y-83500D01*
X123920Y-85860D01*
X117460Y-88880D01*
X111340Y-92540D01*
X105640Y-96820D01*
X100399Y-101660D01*
X95700Y-107020D01*
X91560Y-112840D01*
X88059Y-119040D01*
X85200Y-125580D01*
X83040Y-132360D01*
X81580Y-139340D01*
X80840Y-146440D01*
X80840Y-153560D01*
X81580Y-160660D01*
X83040Y-167640D01*
X85200Y-174420D01*
X88059Y-180960D01*
X91560Y-187160D01*
X95700Y-192979D01*
X100399Y-198340D01*
X105640Y-203180D01*
X111340Y-207460D01*
X117460Y-211119D01*
X123920Y-214140D01*
X130640Y-216500D01*
X137580Y-218120D01*
X144660Y-219040D01*
G37*
G36*
X3788780Y-219220D02*
G01*
X3795899Y-218680D01*
X3802900Y-217399D01*
X3809760Y-215400D01*
X3816360Y-212719D01*
X3822640Y-209360D01*
X3828560Y-205380D01*
X3834040Y-200820D01*
X3839020Y-195720D01*
X3843440Y-190120D01*
X3847260Y-184100D01*
X3850460Y-177740D01*
X3852960Y-171060D01*
X3854780Y-164160D01*
X3855880Y-157120D01*
X3856240Y-150000D01*
X3855880Y-142880D01*
X3854780Y-135840D01*
X3852960Y-128940D01*
X3850460Y-122260D01*
X3847260Y-115900D01*
X3843440Y-109880D01*
X3839020Y-104280D01*
X3834040Y-99179D01*
X3828560Y-94620D01*
X3822640Y-90640D01*
X3816360Y-87280D01*
X3809760Y-84600D01*
X3802900Y-82600D01*
X3795899Y-81320D01*
X3788780Y-80780D01*
X3781660Y-80960D01*
X3774580Y-81880D01*
X3767640Y-83500D01*
X3760920Y-85860D01*
X3754460Y-88880D01*
X3748340Y-92540D01*
X3742640Y-96820D01*
X3737400Y-101660D01*
X3732700Y-107020D01*
X3728560Y-112840D01*
X3725059Y-119040D01*
X3722200Y-125580D01*
X3720040Y-132360D01*
X3718580Y-139340D01*
X3717840Y-146440D01*
X3717840Y-153560D01*
X3718580Y-160660D01*
X3720040Y-167640D01*
X3722200Y-174420D01*
X3725059Y-180960D01*
X3728560Y-187160D01*
X3732700Y-192979D01*
X3737400Y-198340D01*
X3742640Y-203180D01*
X3748340Y-207460D01*
X3754460Y-211119D01*
X3760920Y-214140D01*
X3767640Y-216500D01*
X3774580Y-218120D01*
X3781660Y-219040D01*
G37*

%LPD*%
G36*
X14200Y-3294800D02*
G01*
X12660Y-3294500D01*
X11379Y-3293620D01*
X10500Y-3292340D01*
X10200Y-3290800D01*
X10200Y-1769000D01*
X10500Y-1767460D01*
X11379Y-1766160D01*
X12660Y-1765300D01*
X14200Y-1765000D01*
X556020Y-1765000D01*
X557500Y-1765280D01*
X558780Y-1766120D01*
X559660Y-1767360D01*
X560000Y-1768839D01*
X559780Y-1770340D01*
X558340Y-1774360D01*
X557700Y-1778100D01*
X557700Y-1781900D01*
X558340Y-1785640D01*
X559600Y-1789220D01*
X561440Y-1792540D01*
X563840Y-1795500D01*
X566680Y-1798000D01*
X569920Y-1800000D01*
X573440Y-1801399D01*
X577160Y-1802200D01*
X580960Y-1802380D01*
X584720Y-1801879D01*
X588340Y-1800780D01*
X591740Y-1799060D01*
X594800Y-1796800D01*
X597420Y-1794060D01*
X599200Y-1791440D01*
X600360Y-1790320D01*
X601860Y-1789740D01*
X603480Y-1789800D01*
X604940Y-1790500D01*
X606000Y-1791740D01*
X606440Y-1792540D01*
X608840Y-1795500D01*
X611680Y-1798000D01*
X614920Y-1800000D01*
X618440Y-1801399D01*
X622160Y-1802200D01*
X625960Y-1802380D01*
X629720Y-1801879D01*
X633340Y-1800780D01*
X636740Y-1799060D01*
X639800Y-1796800D01*
X642420Y-1794060D01*
X644539Y-1790920D01*
X646120Y-1787460D01*
X647060Y-1783779D01*
X647400Y-1780000D01*
X647060Y-1776220D01*
X646120Y-1772540D01*
X645260Y-1770640D01*
X644900Y-1769100D01*
X645180Y-1767540D01*
X646040Y-1766200D01*
X647340Y-1765320D01*
X648900Y-1765000D01*
X1144340Y-1765000D01*
X1146020Y-1765360D01*
X1147400Y-1766420D01*
X1148200Y-1767940D01*
X1148280Y-1769680D01*
X1147680Y-1773100D01*
X1147680Y-1776900D01*
X1148320Y-1780640D01*
X1149600Y-1784220D01*
X1151440Y-1787540D01*
X1153840Y-1790480D01*
X1156680Y-1793000D01*
X1159920Y-1794980D01*
X1163440Y-1796399D01*
X1167160Y-1797200D01*
X1170940Y-1797360D01*
X1174720Y-1796879D01*
X1178340Y-1795780D01*
X1181740Y-1794060D01*
X1184800Y-1791800D01*
X1187420Y-1789060D01*
X1189540Y-1785920D01*
X1191100Y-1782460D01*
X1192060Y-1778779D01*
X1192380Y-1775000D01*
X1192060Y-1771220D01*
X1191760Y-1770000D01*
X1191640Y-1768560D01*
X1192060Y-1767160D01*
X1192960Y-1766020D01*
X1194200Y-1765260D01*
X1195620Y-1765000D01*
X1204340Y-1765000D01*
X1206020Y-1765360D01*
X1207400Y-1766420D01*
X1208200Y-1767940D01*
X1208280Y-1769680D01*
X1207680Y-1773100D01*
X1207680Y-1776900D01*
X1208320Y-1780640D01*
X1209600Y-1784220D01*
X1211440Y-1787540D01*
X1213840Y-1790480D01*
X1216680Y-1793000D01*
X1219920Y-1794980D01*
X1223440Y-1796399D01*
X1227160Y-1797200D01*
X1230940Y-1797360D01*
X1234720Y-1796879D01*
X1238340Y-1795780D01*
X1241740Y-1794060D01*
X1244800Y-1791800D01*
X1247420Y-1789060D01*
X1249540Y-1785920D01*
X1251100Y-1782460D01*
X1252060Y-1778779D01*
X1252380Y-1775000D01*
X1252060Y-1771220D01*
X1251760Y-1770000D01*
X1251640Y-1768560D01*
X1252060Y-1767160D01*
X1252960Y-1766020D01*
X1254200Y-1765260D01*
X1255620Y-1765000D01*
X2425800Y-1765000D01*
X2427340Y-1765300D01*
X2428620Y-1766160D01*
X2429500Y-1767460D01*
X2429800Y-1769000D01*
X2429800Y-2609800D01*
X2430120Y-2612960D01*
X2430980Y-2615800D01*
X2432380Y-2618440D01*
X2434400Y-2620880D01*
X2502260Y-2688759D01*
X2503220Y-2690260D01*
X2504600Y-2694220D01*
X2506440Y-2697540D01*
X2508840Y-2700500D01*
X2511680Y-2703000D01*
X2514920Y-2705000D01*
X2518440Y-2706400D01*
X2522160Y-2707200D01*
X2525960Y-2707380D01*
X2529720Y-2706880D01*
X2533340Y-2705779D01*
X2536740Y-2704060D01*
X2539800Y-2701800D01*
X2542420Y-2699060D01*
X2544540Y-2695920D01*
X2546120Y-2692460D01*
X2547060Y-2688780D01*
X2547400Y-2685000D01*
X2547060Y-2681220D01*
X2546120Y-2677540D01*
X2544540Y-2674080D01*
X2542420Y-2670940D01*
X2541780Y-2670260D01*
X2540960Y-2669000D01*
X2540680Y-2667500D01*
X2540960Y-2666000D01*
X2541780Y-2664740D01*
X2542420Y-2664060D01*
X2544540Y-2660920D01*
X2546120Y-2657460D01*
X2547060Y-2653780D01*
X2547400Y-2650000D01*
X2547060Y-2646220D01*
X2546120Y-2642540D01*
X2544540Y-2639080D01*
X2542420Y-2635940D01*
X2539800Y-2633200D01*
X2536740Y-2630940D01*
X2533340Y-2629220D01*
X2529720Y-2628120D01*
X2525960Y-2627620D01*
X2522160Y-2627799D01*
X2518440Y-2628600D01*
X2514940Y-2630000D01*
X2513420Y-2630280D01*
X2511900Y-2629980D01*
X2510620Y-2629120D01*
X2481380Y-2599880D01*
X2480500Y-2598580D01*
X2480200Y-2597040D01*
X2480200Y-2462060D01*
X2480540Y-2460460D01*
X2481480Y-2459120D01*
X2482860Y-2458280D01*
X2484480Y-2458060D01*
X2486060Y-2458500D01*
X2487320Y-2459540D01*
X2488400Y-2460900D01*
X2491340Y-2463480D01*
X2494660Y-2465520D01*
X2498280Y-2466980D01*
X2502080Y-2467800D01*
X2505980Y-2467960D01*
X2509840Y-2467460D01*
X2513560Y-2466320D01*
X2517040Y-2464560D01*
X2520180Y-2462260D01*
X2522880Y-2459440D01*
X2525060Y-2456200D01*
X2526660Y-2452660D01*
X2527660Y-2448880D01*
X2527980Y-2445000D01*
X2527660Y-2441120D01*
X2526660Y-2437340D01*
X2525060Y-2433800D01*
X2522880Y-2430560D01*
X2520180Y-2427740D01*
X2517040Y-2425440D01*
X2513560Y-2423680D01*
X2509840Y-2422540D01*
X2505980Y-2422040D01*
X2502080Y-2422200D01*
X2498280Y-2423020D01*
X2494660Y-2424480D01*
X2491340Y-2426520D01*
X2488400Y-2429100D01*
X2487320Y-2430460D01*
X2486060Y-2431500D01*
X2484480Y-2431940D01*
X2482860Y-2431720D01*
X2481480Y-2430880D01*
X2480540Y-2429540D01*
X2480200Y-2427940D01*
X2480200Y-1769000D01*
X2480500Y-1767460D01*
X2481380Y-1766160D01*
X2482660Y-1765300D01*
X2484200Y-1765000D01*
X3921740Y-1765000D01*
X3923260Y-1765300D01*
X3924560Y-1766160D01*
X3925419Y-1767460D01*
X3925740Y-1769000D01*
X3924800Y-3290800D01*
X3924500Y-3292340D01*
X3923639Y-3293620D01*
X3922340Y-3294500D01*
X3920800Y-3294800D01*
G37*

%LPC*%
G36*
X1919220Y-3241200D02*
G01*
X1980780Y-3241200D01*
X1983260Y-3240920D01*
X1985420Y-3240160D01*
X1987340Y-3238940D01*
X1988959Y-3237340D01*
X1990160Y-3235400D01*
X1990920Y-3233260D01*
X1991200Y-3230760D01*
X1991200Y-3169220D01*
X1990920Y-3166720D01*
X1990160Y-3164580D01*
X1988959Y-3162640D01*
X1987340Y-3161040D01*
X1985420Y-3159820D01*
X1983260Y-3159080D01*
X1980780Y-3158800D01*
X1919220Y-3158800D01*
X1916740Y-3159080D01*
X1914580Y-3159820D01*
X1912660Y-3161040D01*
X1911040Y-3162640D01*
X1909820Y-3164580D01*
X1909079Y-3166720D01*
X1908800Y-3169220D01*
X1908800Y-3230760D01*
X1909079Y-3233260D01*
X1909820Y-3235400D01*
X1911040Y-3237340D01*
X1912660Y-3238940D01*
X1914580Y-3240160D01*
X1916740Y-3240920D01*
G37*
G36*
X2150000Y-3241180D02*
G01*
X2155380Y-3240840D01*
X2160660Y-3239780D01*
X2165760Y-3238039D01*
X2170600Y-3235659D01*
X2175080Y-3232679D01*
X2179120Y-3229120D01*
X2182680Y-3225059D01*
X2185660Y-3220580D01*
X2188060Y-3215760D01*
X2189780Y-3210659D01*
X2190840Y-3205360D01*
X2191180Y-3200000D01*
X2190840Y-3194620D01*
X2189780Y-3189340D01*
X2188060Y-3184220D01*
X2185660Y-3179400D01*
X2182680Y-3174920D01*
X2179120Y-3170860D01*
X2175080Y-3167320D01*
X2170600Y-3164320D01*
X2165760Y-3161940D01*
X2160660Y-3160200D01*
X2155380Y-3159160D01*
X2150000Y-3158800D01*
X2144620Y-3159160D01*
X2139340Y-3160200D01*
X2134240Y-3161940D01*
X2129400Y-3164320D01*
X2124920Y-3167320D01*
X2120860Y-3170860D01*
X2117320Y-3174920D01*
X2114320Y-3179400D01*
X2111940Y-3184220D01*
X2110200Y-3189340D01*
X2109160Y-3194620D01*
X2108800Y-3200000D01*
X2109160Y-3205360D01*
X2110200Y-3210659D01*
X2111940Y-3215760D01*
X2114320Y-3220580D01*
X2117320Y-3225059D01*
X2120860Y-3229120D01*
X2124920Y-3232679D01*
X2129400Y-3235659D01*
X2134240Y-3238039D01*
X2139340Y-3239780D01*
X2144620Y-3240840D01*
G37*
G36*
X2050000Y-3241180D02*
G01*
X2055380Y-3240840D01*
X2060660Y-3239780D01*
X2065760Y-3238039D01*
X2070600Y-3235659D01*
X2075080Y-3232679D01*
X2079120Y-3229120D01*
X2082680Y-3225059D01*
X2085660Y-3220580D01*
X2088060Y-3215760D01*
X2089780Y-3210659D01*
X2090840Y-3205360D01*
X2091180Y-3200000D01*
X2090840Y-3194620D01*
X2089780Y-3189340D01*
X2088060Y-3184220D01*
X2085660Y-3179400D01*
X2082680Y-3174920D01*
X2079120Y-3170860D01*
X2075080Y-3167320D01*
X2070600Y-3164320D01*
X2065760Y-3161940D01*
X2060660Y-3160200D01*
X2055380Y-3159160D01*
X2050000Y-3158800D01*
X2044620Y-3159160D01*
X2039340Y-3160200D01*
X2034240Y-3161940D01*
X2029400Y-3164320D01*
X2024920Y-3167320D01*
X2020860Y-3170860D01*
X2017320Y-3174920D01*
X2014319Y-3179400D01*
X2011940Y-3184220D01*
X2010200Y-3189340D01*
X2009160Y-3194620D01*
X2008800Y-3200000D01*
X2009160Y-3205360D01*
X2010200Y-3210659D01*
X2011940Y-3215760D01*
X2014319Y-3220580D01*
X2017320Y-3225059D01*
X2020860Y-3229120D01*
X2024920Y-3232679D01*
X2029400Y-3235659D01*
X2034240Y-3238039D01*
X2039340Y-3239780D01*
X2044620Y-3240840D01*
G37*
G36*
X2250000Y-3241180D02*
G01*
X2255380Y-3240840D01*
X2260660Y-3239780D01*
X2265760Y-3238039D01*
X2270600Y-3235659D01*
X2275080Y-3232679D01*
X2279120Y-3229120D01*
X2282680Y-3225059D01*
X2285660Y-3220580D01*
X2288060Y-3215760D01*
X2289780Y-3210659D01*
X2290840Y-3205360D01*
X2291180Y-3200000D01*
X2291020Y-3197400D01*
X2291260Y-3195740D01*
X2292180Y-3194320D01*
X2304780Y-3181720D01*
X2306280Y-3180779D01*
X2308040Y-3180560D01*
X2309720Y-3181139D01*
X2310980Y-3182400D01*
X2311580Y-3184060D01*
X2311400Y-3185820D01*
X2310200Y-3189340D01*
X2309160Y-3194620D01*
X2308800Y-3200000D01*
X2309160Y-3205360D01*
X2310200Y-3210659D01*
X2311940Y-3215760D01*
X2314320Y-3220580D01*
X2317320Y-3225059D01*
X2320860Y-3229120D01*
X2324920Y-3232679D01*
X2329400Y-3235659D01*
X2334240Y-3238039D01*
X2339340Y-3239780D01*
X2344620Y-3240840D01*
X2350000Y-3241180D01*
X2355380Y-3240840D01*
X2360660Y-3239780D01*
X2365760Y-3238039D01*
X2370600Y-3235659D01*
X2375080Y-3232679D01*
X2379120Y-3229120D01*
X2382680Y-3225059D01*
X2385660Y-3220580D01*
X2388060Y-3215760D01*
X2389780Y-3210659D01*
X2390840Y-3205360D01*
X2391180Y-3200000D01*
X2390840Y-3194620D01*
X2389780Y-3189340D01*
X2388060Y-3184220D01*
X2385660Y-3179400D01*
X2382680Y-3174920D01*
X2379120Y-3170860D01*
X2375080Y-3167320D01*
X2370600Y-3164320D01*
X2365760Y-3161940D01*
X2360660Y-3160200D01*
X2355380Y-3159160D01*
X2350000Y-3158800D01*
X2344620Y-3159160D01*
X2339340Y-3160200D01*
X2335840Y-3161400D01*
X2334060Y-3161580D01*
X2332400Y-3160980D01*
X2331140Y-3159720D01*
X2330580Y-3158039D01*
X2330780Y-3156280D01*
X2331720Y-3154780D01*
X2370600Y-3115880D01*
X2372620Y-3113440D01*
X2374020Y-3110800D01*
X2374880Y-3107960D01*
X2375200Y-3104800D01*
X2375200Y-2520320D01*
X2375560Y-2518660D01*
X2376560Y-2517320D01*
X2378020Y-2516480D01*
X2378560Y-2516320D01*
X2382040Y-2514560D01*
X2385180Y-2512260D01*
X2387880Y-2509440D01*
X2390060Y-2506200D01*
X2391660Y-2502660D01*
X2392660Y-2498880D01*
X2392980Y-2495000D01*
X2392660Y-2491120D01*
X2391660Y-2487340D01*
X2390060Y-2483800D01*
X2387880Y-2480560D01*
X2385180Y-2477740D01*
X2382040Y-2475440D01*
X2378560Y-2473680D01*
X2374840Y-2472540D01*
X2370980Y-2472040D01*
X2367080Y-2472200D01*
X2363280Y-2473020D01*
X2359660Y-2474480D01*
X2356340Y-2476520D01*
X2353400Y-2479100D01*
X2350960Y-2482140D01*
X2349060Y-2485540D01*
X2347760Y-2489200D01*
X2347100Y-2493060D01*
X2347100Y-2496080D01*
X2346980Y-2497060D01*
X2345980Y-2499200D01*
X2345120Y-2502040D01*
X2344800Y-2505200D01*
X2344800Y-3097040D01*
X2344500Y-3098580D01*
X2343620Y-3099880D01*
X2278060Y-3165440D01*
X2276940Y-3166220D01*
X2275620Y-3166600D01*
X2274260Y-3166500D01*
X2273020Y-3165940D01*
X2270600Y-3164320D01*
X2265760Y-3161940D01*
X2260660Y-3160200D01*
X2255380Y-3159160D01*
X2250000Y-3158800D01*
X2244620Y-3159160D01*
X2239340Y-3160200D01*
X2234240Y-3161940D01*
X2229400Y-3164320D01*
X2224920Y-3167320D01*
X2220860Y-3170860D01*
X2217320Y-3174920D01*
X2214320Y-3179400D01*
X2211940Y-3184220D01*
X2210200Y-3189340D01*
X2209160Y-3194620D01*
X2208800Y-3200000D01*
X2209160Y-3205360D01*
X2210200Y-3210659D01*
X2211940Y-3215760D01*
X2214320Y-3220580D01*
X2217320Y-3225059D01*
X2220860Y-3229120D01*
X2224920Y-3232679D01*
X2229400Y-3235659D01*
X2234240Y-3238039D01*
X2239340Y-3239780D01*
X2244620Y-3240840D01*
G37*
G36*
X2432000Y-3236940D02*
G01*
X2432000Y-3218000D01*
X2413040Y-3218000D01*
X2414320Y-3220580D01*
X2417320Y-3225059D01*
X2420860Y-3229120D01*
X2424920Y-3232679D01*
X2429400Y-3235659D01*
G37*
G36*
X2468000Y-3236940D02*
G01*
X2470600Y-3235659D01*
X2475080Y-3232679D01*
X2479120Y-3229120D01*
X2482680Y-3225059D01*
X2485660Y-3220580D01*
X2486940Y-3218000D01*
X2468000Y-3218000D01*
G37*
G36*
X151780Y-3229220D02*
G01*
X158900Y-3228680D01*
X165900Y-3227400D01*
X172760Y-3225400D01*
X179360Y-3222720D01*
X185640Y-3219360D01*
X191560Y-3215380D01*
X197040Y-3210820D01*
X202020Y-3205720D01*
X206439Y-3200120D01*
X210260Y-3194100D01*
X213460Y-3187740D01*
X215960Y-3181060D01*
X217780Y-3174160D01*
X218880Y-3167120D01*
X219240Y-3160000D01*
X218880Y-3152880D01*
X217780Y-3145840D01*
X215960Y-3138940D01*
X213460Y-3132260D01*
X210260Y-3125899D01*
X206439Y-3119880D01*
X202020Y-3114280D01*
X197040Y-3109180D01*
X191560Y-3104620D01*
X185640Y-3100640D01*
X179360Y-3097280D01*
X172760Y-3094600D01*
X165900Y-3092600D01*
X158900Y-3091320D01*
X151780Y-3090779D01*
X144660Y-3090960D01*
X137580Y-3091880D01*
X130640Y-3093500D01*
X123920Y-3095860D01*
X117460Y-3098880D01*
X111340Y-3102540D01*
X105640Y-3106820D01*
X100399Y-3111660D01*
X95700Y-3117020D01*
X91560Y-3122840D01*
X88059Y-3129040D01*
X85200Y-3135580D01*
X83040Y-3142360D01*
X81580Y-3149340D01*
X80840Y-3156440D01*
X80840Y-3163560D01*
X81580Y-3170659D01*
X83040Y-3177640D01*
X85200Y-3184420D01*
X88059Y-3190960D01*
X91560Y-3197160D01*
X95700Y-3202980D01*
X100399Y-3208340D01*
X105640Y-3213180D01*
X111340Y-3217460D01*
X117460Y-3221120D01*
X123920Y-3224140D01*
X130640Y-3226500D01*
X137580Y-3228120D01*
X144660Y-3229040D01*
G37*
G36*
X3788780Y-3229220D02*
G01*
X3795899Y-3228660D01*
X3802900Y-3227380D01*
X3809760Y-3225400D01*
X3816360Y-3222700D01*
X3822640Y-3219360D01*
X3828560Y-3215380D01*
X3834040Y-3210820D01*
X3839020Y-3205700D01*
X3843440Y-3200120D01*
X3847260Y-3194100D01*
X3850460Y-3187720D01*
X3852960Y-3181040D01*
X3854780Y-3174160D01*
X3855880Y-3167120D01*
X3856240Y-3160000D01*
X3855880Y-3152860D01*
X3854780Y-3145820D01*
X3852960Y-3138940D01*
X3850460Y-3132260D01*
X3847260Y-3125880D01*
X3843440Y-3119860D01*
X3839020Y-3114280D01*
X3834040Y-3109160D01*
X3828560Y-3104600D01*
X3822640Y-3100620D01*
X3816360Y-3097280D01*
X3809760Y-3094580D01*
X3802900Y-3092600D01*
X3795899Y-3091320D01*
X3788780Y-3090760D01*
X3781660Y-3090940D01*
X3774580Y-3091860D01*
X3767640Y-3093500D01*
X3760920Y-3095840D01*
X3754460Y-3098860D01*
X3748340Y-3102540D01*
X3742640Y-3106820D01*
X3737400Y-3111660D01*
X3732700Y-3117020D01*
X3728560Y-3122820D01*
X3725059Y-3129020D01*
X3722200Y-3135560D01*
X3720040Y-3142360D01*
X3718580Y-3149340D01*
X3717840Y-3156420D01*
X3717840Y-3163560D01*
X3718580Y-3170640D01*
X3720040Y-3177620D01*
X3722200Y-3184420D01*
X3725059Y-3190960D01*
X3728560Y-3197160D01*
X3732700Y-3202960D01*
X3737400Y-3208320D01*
X3742640Y-3213159D01*
X3748340Y-3217440D01*
X3754460Y-3221120D01*
X3760920Y-3224140D01*
X3767640Y-3226480D01*
X3774580Y-3228120D01*
X3781660Y-3229040D01*
G37*
G36*
X2468000Y-3182000D02*
G01*
X2486940Y-3182000D01*
X2485660Y-3179400D01*
X2482680Y-3174920D01*
X2479120Y-3170860D01*
X2475080Y-3167320D01*
X2470600Y-3164320D01*
X2468000Y-3163039D01*
G37*
G36*
X2413040Y-3182000D02*
G01*
X2432000Y-3182000D01*
X2432000Y-3163039D01*
X2429400Y-3164320D01*
X2424920Y-3167320D01*
X2420860Y-3170860D01*
X2417320Y-3174920D01*
X2414320Y-3179400D01*
G37*
G36*
X2070960Y-3107380D02*
G01*
X2074720Y-3106880D01*
X2078340Y-3105779D01*
X2081740Y-3104060D01*
X2084800Y-3101800D01*
X2087420Y-3099060D01*
X2089540Y-3095920D01*
X2091120Y-3092460D01*
X2092060Y-3088780D01*
X2092400Y-3085000D01*
X2092060Y-3081220D01*
X2091120Y-3077540D01*
X2089540Y-3074080D01*
X2088520Y-3072559D01*
X2087960Y-3071300D01*
X2087840Y-3069940D01*
X2088220Y-3068600D01*
X2089000Y-3067480D01*
X2307400Y-2849100D01*
X2308760Y-2848200D01*
X2314840Y-2847460D01*
X2318560Y-2846320D01*
X2322040Y-2844560D01*
X2325180Y-2842240D01*
X2327880Y-2839420D01*
X2330060Y-2836200D01*
X2331660Y-2832640D01*
X2332660Y-2828880D01*
X2332980Y-2825000D01*
X2332660Y-2821100D01*
X2331660Y-2817340D01*
X2330060Y-2813780D01*
X2327880Y-2810560D01*
X2325180Y-2807740D01*
X2322040Y-2805419D01*
X2318560Y-2803660D01*
X2314840Y-2802520D01*
X2310980Y-2802040D01*
X2307080Y-2802200D01*
X2303280Y-2803020D01*
X2299660Y-2804480D01*
X2296340Y-2806520D01*
X2293400Y-2809080D01*
X2290960Y-2812120D01*
X2289060Y-2815520D01*
X2287760Y-2819200D01*
X2287100Y-2823039D01*
X2287100Y-2824740D01*
X2286800Y-2826259D01*
X2285940Y-2827559D01*
X2059400Y-3054100D01*
X2057380Y-3056560D01*
X2055980Y-3059180D01*
X2055120Y-3062020D01*
X2054800Y-3065179D01*
X2054800Y-3066900D01*
X2054580Y-3068240D01*
X2053920Y-3069420D01*
X2051440Y-3072460D01*
X2049600Y-3075779D01*
X2048340Y-3079360D01*
X2047700Y-3083100D01*
X2047700Y-3086900D01*
X2048340Y-3090640D01*
X2049600Y-3094220D01*
X2051440Y-3097540D01*
X2053839Y-3100500D01*
X2056680Y-3103000D01*
X2059920Y-3105000D01*
X2063440Y-3106400D01*
X2067160Y-3107200D01*
G37*
G36*
X2085940Y-2877360D02*
G01*
X2089720Y-2876880D01*
X2093340Y-2875760D01*
X2096740Y-2874060D01*
X2099780Y-2871800D01*
X2102420Y-2869060D01*
X2104540Y-2865920D01*
X2106100Y-2862460D01*
X2107060Y-2858780D01*
X2107380Y-2855000D01*
X2107060Y-2851220D01*
X2106100Y-2847540D01*
X2104540Y-2844080D01*
X2102420Y-2840920D01*
X2099780Y-2838180D01*
X2096740Y-2835920D01*
X2093340Y-2834220D01*
X2089720Y-2833100D01*
X2085940Y-2832620D01*
X2082160Y-2832780D01*
X2078440Y-2833580D01*
X2074920Y-2835000D01*
X2071680Y-2837000D01*
X2068839Y-2839500D01*
X2066440Y-2842460D01*
X2064600Y-2845779D01*
X2063320Y-2849360D01*
X2062680Y-2853100D01*
X2062680Y-2856900D01*
X2063320Y-2860640D01*
X2064600Y-2864220D01*
X2066440Y-2867540D01*
X2068839Y-2870480D01*
X2071680Y-2873000D01*
X2074920Y-2874980D01*
X2078440Y-2876400D01*
X2082160Y-2877200D01*
G37*
G36*
X2505940Y-2837360D02*
G01*
X2509720Y-2836880D01*
X2513340Y-2835760D01*
X2516740Y-2834060D01*
X2519780Y-2831800D01*
X2522420Y-2829060D01*
X2524540Y-2825920D01*
X2526100Y-2822460D01*
X2527060Y-2818780D01*
X2527380Y-2815000D01*
X2527060Y-2811220D01*
X2526100Y-2807540D01*
X2524540Y-2804080D01*
X2522420Y-2800920D01*
X2519780Y-2798180D01*
X2516740Y-2795920D01*
X2513340Y-2794220D01*
X2509720Y-2793100D01*
X2505940Y-2792620D01*
X2502160Y-2792780D01*
X2498440Y-2793580D01*
X2494920Y-2795000D01*
X2491680Y-2797000D01*
X2488840Y-2799500D01*
X2486440Y-2802460D01*
X2484600Y-2805779D01*
X2483320Y-2809360D01*
X2482680Y-2813100D01*
X2482680Y-2816900D01*
X2483320Y-2820640D01*
X2484600Y-2824220D01*
X2486440Y-2827540D01*
X2488840Y-2830480D01*
X2491680Y-2833000D01*
X2494920Y-2834980D01*
X2498440Y-2836400D01*
X2502160Y-2837200D01*
G37*
G36*
X1970960Y-2812380D02*
G01*
X1974720Y-2811880D01*
X1978340Y-2810779D01*
X1981740Y-2809060D01*
X1984800Y-2806800D01*
X1987420Y-2804060D01*
X1989540Y-2800920D01*
X1991120Y-2797460D01*
X1992060Y-2793780D01*
X1992400Y-2790000D01*
X1992060Y-2786220D01*
X1991120Y-2782540D01*
X1989540Y-2779080D01*
X1987420Y-2775940D01*
X1984800Y-2773200D01*
X1981740Y-2770940D01*
X1978340Y-2769220D01*
X1974720Y-2768120D01*
X1970960Y-2767620D01*
X1967160Y-2767799D01*
X1963440Y-2768600D01*
X1959920Y-2770000D01*
X1956680Y-2772000D01*
X1953839Y-2774500D01*
X1951440Y-2777460D01*
X1949600Y-2780779D01*
X1948340Y-2784360D01*
X1947700Y-2788100D01*
X1947700Y-2791900D01*
X1948340Y-2795640D01*
X1949600Y-2799220D01*
X1951440Y-2802540D01*
X1953839Y-2805500D01*
X1956680Y-2808000D01*
X1959920Y-2810000D01*
X1963440Y-2811400D01*
X1967160Y-2812200D01*
G37*
G36*
X2055980Y-2797960D02*
G01*
X2059840Y-2797460D01*
X2063560Y-2796320D01*
X2067040Y-2794560D01*
X2070180Y-2792260D01*
X2070960Y-2791440D01*
X2072280Y-2790520D01*
X2073860Y-2790200D01*
X2074800Y-2790200D01*
X2077960Y-2789880D01*
X2080800Y-2789020D01*
X2083440Y-2787620D01*
X2085880Y-2785600D01*
X2115120Y-2756380D01*
X2116420Y-2755500D01*
X2117960Y-2755200D01*
X2184800Y-2755200D01*
X2187960Y-2754880D01*
X2190800Y-2754020D01*
X2193440Y-2752620D01*
X2195880Y-2750600D01*
X2305600Y-2640880D01*
X2307620Y-2638440D01*
X2309020Y-2635800D01*
X2309880Y-2632960D01*
X2310200Y-2629800D01*
X2310200Y-2565200D01*
X2309880Y-2562040D01*
X2309020Y-2559200D01*
X2307620Y-2556560D01*
X2305600Y-2554120D01*
X2138660Y-2387160D01*
X2137800Y-2385920D01*
X2137480Y-2384440D01*
X2137720Y-2382960D01*
X2138480Y-2381660D01*
X2139680Y-2380760D01*
X2142040Y-2379560D01*
X2145180Y-2377240D01*
X2147880Y-2374420D01*
X2150060Y-2371200D01*
X2151660Y-2367640D01*
X2152660Y-2363880D01*
X2152980Y-2360000D01*
X2152660Y-2356100D01*
X2151660Y-2352340D01*
X2150060Y-2348780D01*
X2147880Y-2345560D01*
X2145180Y-2342740D01*
X2142040Y-2340420D01*
X2138560Y-2338660D01*
X2134840Y-2337520D01*
X2130980Y-2337040D01*
X2128780Y-2337120D01*
X2127440Y-2336960D01*
X2126240Y-2336340D01*
X2125300Y-2335360D01*
X2124740Y-2334140D01*
X2124100Y-2331680D01*
X2122500Y-2328120D01*
X2120320Y-2324900D01*
X2117620Y-2322080D01*
X2114480Y-2319760D01*
X2111000Y-2318000D01*
X2107280Y-2316860D01*
X2103420Y-2316380D01*
X2099520Y-2316540D01*
X2095720Y-2317360D01*
X2092100Y-2318820D01*
X2088779Y-2320860D01*
X2085840Y-2323420D01*
X2083400Y-2326460D01*
X2081500Y-2329860D01*
X2080200Y-2333540D01*
X2079540Y-2337380D01*
X2079540Y-2341280D01*
X2080200Y-2345120D01*
X2081500Y-2348800D01*
X2083400Y-2352200D01*
X2086140Y-2355580D01*
X2086980Y-2356960D01*
X2087200Y-2358560D01*
X2086759Y-2360120D01*
X2085740Y-2361380D01*
X2084300Y-2362120D01*
X2082700Y-2362260D01*
X2080980Y-2362040D01*
X2077080Y-2362200D01*
X2073280Y-2363020D01*
X2069660Y-2364480D01*
X2066339Y-2366520D01*
X2063400Y-2369080D01*
X2060960Y-2372120D01*
X2060380Y-2373160D01*
X2059379Y-2374340D01*
X2058020Y-2375040D01*
X2056480Y-2375180D01*
X2055000Y-2374720D01*
X2053820Y-2373760D01*
X2053080Y-2372400D01*
X2052900Y-2370860D01*
X2052980Y-2370000D01*
X2052660Y-2366100D01*
X2051660Y-2362340D01*
X2050060Y-2358780D01*
X2047880Y-2355560D01*
X2045180Y-2352740D01*
X2042040Y-2350420D01*
X2038560Y-2348660D01*
X2034840Y-2347520D01*
X2030980Y-2347040D01*
X2027080Y-2347200D01*
X2023280Y-2348020D01*
X2019660Y-2349480D01*
X2016339Y-2351520D01*
X2013400Y-2354080D01*
X2010960Y-2357120D01*
X2009060Y-2360520D01*
X2007760Y-2364200D01*
X2007100Y-2368040D01*
X2007100Y-2371940D01*
X2007760Y-2375780D01*
X2009060Y-2379460D01*
X2010960Y-2382860D01*
X2013400Y-2385900D01*
X2016339Y-2388460D01*
X2019660Y-2390500D01*
X2023280Y-2391960D01*
X2027080Y-2392780D01*
X2030980Y-2392940D01*
X2034840Y-2392460D01*
X2038560Y-2391320D01*
X2042040Y-2389560D01*
X2045180Y-2387240D01*
X2047880Y-2384420D01*
X2049780Y-2381600D01*
X2051000Y-2380440D01*
X2052600Y-2379880D01*
X2054280Y-2380020D01*
X2055740Y-2380840D01*
X2056740Y-2382200D01*
X2057100Y-2383840D01*
X2057100Y-2386940D01*
X2057760Y-2390780D01*
X2059060Y-2394460D01*
X2060960Y-2397860D01*
X2063400Y-2400900D01*
X2066339Y-2403460D01*
X2069660Y-2405500D01*
X2073280Y-2406960D01*
X2077080Y-2407780D01*
X2080980Y-2407940D01*
X2084840Y-2407460D01*
X2088560Y-2406320D01*
X2092040Y-2404560D01*
X2095180Y-2402240D01*
X2097880Y-2399420D01*
X2099220Y-2397440D01*
X2100500Y-2396240D01*
X2102160Y-2395700D01*
X2103880Y-2395920D01*
X2105360Y-2396860D01*
X2260260Y-2551740D01*
X2261080Y-2552980D01*
X2261420Y-2554420D01*
X2261200Y-2555880D01*
X2260460Y-2557160D01*
X2256160Y-2560520D01*
X2253620Y-2563440D01*
X2252260Y-2564440D01*
X2250600Y-2564800D01*
X2248980Y-2564800D01*
X2247360Y-2564460D01*
X2246020Y-2563500D01*
X2245180Y-2562080D01*
X2244700Y-2556420D01*
X2243740Y-2552960D01*
X2242200Y-2549720D01*
X2240080Y-2546820D01*
X2237480Y-2544340D01*
X2234500Y-2542360D01*
X2231180Y-2540960D01*
X2227680Y-2540160D01*
X2224100Y-2540000D01*
X2220540Y-2540480D01*
X2217120Y-2541580D01*
X2213960Y-2543280D01*
X2213160Y-2543920D01*
X2212000Y-2544580D01*
X2210660Y-2544800D01*
X2145200Y-2544800D01*
X2142040Y-2545120D01*
X2139200Y-2545980D01*
X2136560Y-2547380D01*
X2134120Y-2549400D01*
X2068899Y-2614620D01*
X2067600Y-2615480D01*
X2066060Y-2615779D01*
X1603060Y-2614840D01*
X1601500Y-2614520D01*
X1596740Y-2610940D01*
X1593340Y-2609220D01*
X1589720Y-2608120D01*
X1585960Y-2607620D01*
X1582160Y-2607799D01*
X1578440Y-2608600D01*
X1574920Y-2610000D01*
X1571680Y-2612000D01*
X1568839Y-2614500D01*
X1566440Y-2617460D01*
X1564600Y-2620779D01*
X1563340Y-2624360D01*
X1562700Y-2628100D01*
X1562700Y-2631900D01*
X1563340Y-2635640D01*
X1564600Y-2639220D01*
X1566440Y-2642540D01*
X1567060Y-2643279D01*
X1567760Y-2644600D01*
X1567940Y-2646080D01*
X1567560Y-2647520D01*
X1566660Y-2648720D01*
X1565400Y-2649520D01*
X1563940Y-2649800D01*
X1483040Y-2649800D01*
X1481480Y-2649480D01*
X1476740Y-2645940D01*
X1473340Y-2644220D01*
X1469720Y-2643120D01*
X1465960Y-2642620D01*
X1462160Y-2642799D01*
X1458440Y-2643600D01*
X1454920Y-2645000D01*
X1451680Y-2647000D01*
X1448839Y-2649500D01*
X1446440Y-2652460D01*
X1444600Y-2655779D01*
X1443340Y-2659360D01*
X1442700Y-2663100D01*
X1442700Y-2666900D01*
X1443340Y-2670640D01*
X1444600Y-2674220D01*
X1446440Y-2677540D01*
X1448839Y-2680500D01*
X1451680Y-2683000D01*
X1454920Y-2685000D01*
X1458440Y-2686400D01*
X1462160Y-2687200D01*
X1465960Y-2687380D01*
X1469720Y-2686880D01*
X1473340Y-2685779D01*
X1476740Y-2684060D01*
X1481480Y-2680520D01*
X1483040Y-2680200D01*
X1592040Y-2680200D01*
X1593580Y-2680500D01*
X1594880Y-2681380D01*
X1639120Y-2725600D01*
X1641560Y-2727620D01*
X1644199Y-2729020D01*
X1647040Y-2729880D01*
X1650200Y-2730200D01*
X2019800Y-2730200D01*
X2022960Y-2729880D01*
X2025800Y-2729020D01*
X2028440Y-2727620D01*
X2030880Y-2725600D01*
X2160120Y-2596380D01*
X2161420Y-2595500D01*
X2162960Y-2595200D01*
X2269800Y-2595200D01*
X2272980Y-2594880D01*
X2274700Y-2594400D01*
X2276160Y-2594260D01*
X2277580Y-2594660D01*
X2278760Y-2595539D01*
X2279520Y-2596800D01*
X2279800Y-2598240D01*
X2279800Y-2622040D01*
X2279500Y-2623580D01*
X2278620Y-2624880D01*
X2179880Y-2723620D01*
X2178580Y-2724500D01*
X2177040Y-2724800D01*
X2110200Y-2724800D01*
X2107040Y-2725120D01*
X2104200Y-2725980D01*
X2101560Y-2727380D01*
X2099120Y-2729400D01*
X2072940Y-2755560D01*
X2071780Y-2756360D01*
X2070420Y-2756720D01*
X2069000Y-2756580D01*
X2067740Y-2755940D01*
X2067040Y-2755440D01*
X2063560Y-2753680D01*
X2059840Y-2752540D01*
X2055980Y-2752040D01*
X2052080Y-2752200D01*
X2048280Y-2753020D01*
X2044660Y-2754480D01*
X2041339Y-2756520D01*
X2038400Y-2759100D01*
X2035960Y-2762140D01*
X2034060Y-2765539D01*
X2032760Y-2769200D01*
X2032100Y-2773060D01*
X2032100Y-2776940D01*
X2032760Y-2780800D01*
X2034060Y-2784460D01*
X2035960Y-2787860D01*
X2038400Y-2790899D01*
X2041339Y-2793480D01*
X2044660Y-2795520D01*
X2048280Y-2796980D01*
X2052080Y-2797799D01*
G37*
G36*
X469219Y-2741200D02*
G01*
X530780Y-2741200D01*
X533260Y-2740920D01*
X535420Y-2740160D01*
X537340Y-2738940D01*
X538960Y-2737340D01*
X540160Y-2735400D01*
X540920Y-2733260D01*
X541200Y-2730779D01*
X541200Y-2669220D01*
X540920Y-2666740D01*
X540160Y-2664580D01*
X538960Y-2662660D01*
X537340Y-2661040D01*
X535420Y-2659820D01*
X533260Y-2659080D01*
X530780Y-2658800D01*
X469219Y-2658800D01*
X466740Y-2659080D01*
X464580Y-2659820D01*
X462660Y-2661040D01*
X461040Y-2662660D01*
X459840Y-2664580D01*
X459080Y-2666740D01*
X458800Y-2669220D01*
X458800Y-2730779D01*
X459080Y-2733260D01*
X459840Y-2735400D01*
X461040Y-2737340D01*
X462660Y-2738940D01*
X464580Y-2740160D01*
X466740Y-2740920D01*
G37*
G36*
X600000Y-2741180D02*
G01*
X605380Y-2740840D01*
X610660Y-2739780D01*
X615760Y-2738060D01*
X620600Y-2735659D01*
X625080Y-2732679D01*
X629120Y-2729120D01*
X632680Y-2725080D01*
X635680Y-2720600D01*
X638060Y-2715760D01*
X639780Y-2710659D01*
X640840Y-2705380D01*
X641200Y-2700000D01*
X640840Y-2694620D01*
X639780Y-2689340D01*
X638060Y-2684240D01*
X635680Y-2679400D01*
X632680Y-2674920D01*
X629120Y-2670860D01*
X625080Y-2667320D01*
X620600Y-2664320D01*
X615760Y-2661940D01*
X610660Y-2660200D01*
X605380Y-2659160D01*
X600000Y-2658800D01*
X594620Y-2659160D01*
X589340Y-2660200D01*
X584240Y-2661940D01*
X579400Y-2664320D01*
X574920Y-2667320D01*
X570880Y-2670860D01*
X567320Y-2674920D01*
X564320Y-2679400D01*
X561940Y-2684240D01*
X560220Y-2689340D01*
X559160Y-2694620D01*
X558800Y-2700000D01*
X559160Y-2705380D01*
X560220Y-2710659D01*
X561940Y-2715760D01*
X564320Y-2720600D01*
X567320Y-2725080D01*
X570880Y-2729120D01*
X574920Y-2732679D01*
X579400Y-2735659D01*
X584240Y-2738060D01*
X589340Y-2739780D01*
X594620Y-2740840D01*
G37*
G36*
X682000Y-2736940D02*
G01*
X682000Y-2718000D01*
X663040Y-2718000D01*
X664320Y-2720600D01*
X667320Y-2725080D01*
X670879Y-2729120D01*
X674920Y-2732679D01*
X679400Y-2735659D01*
G37*
G36*
X718000Y-2736940D02*
G01*
X720600Y-2735659D01*
X725080Y-2732679D01*
X729120Y-2729120D01*
X732680Y-2725080D01*
X735680Y-2720600D01*
X736960Y-2718000D01*
X718000Y-2718000D01*
G37*
G36*
X663040Y-2682000D02*
G01*
X682000Y-2682000D01*
X682000Y-2663039D01*
X679400Y-2664320D01*
X674920Y-2667320D01*
X670879Y-2670860D01*
X667320Y-2674920D01*
X664320Y-2679400D01*
G37*
G36*
X718000Y-2682000D02*
G01*
X736960Y-2682000D01*
X735680Y-2679400D01*
X732680Y-2674920D01*
X729120Y-2670860D01*
X725080Y-2667320D01*
X720600Y-2664320D01*
X718000Y-2663039D01*
G37*
G36*
X1455960Y-2587380D02*
G01*
X1459720Y-2586880D01*
X1463340Y-2585779D01*
X1466740Y-2584060D01*
X1469800Y-2581800D01*
X1472420Y-2579060D01*
X1474540Y-2575920D01*
X1476120Y-2572460D01*
X1477060Y-2568780D01*
X1477400Y-2565000D01*
X1477060Y-2561220D01*
X1476120Y-2557540D01*
X1474540Y-2554080D01*
X1472420Y-2550940D01*
X1469800Y-2548200D01*
X1466740Y-2545940D01*
X1463340Y-2544220D01*
X1459720Y-2543120D01*
X1455960Y-2542620D01*
X1452160Y-2542800D01*
X1448440Y-2543600D01*
X1444920Y-2545000D01*
X1441680Y-2547000D01*
X1438839Y-2549500D01*
X1436440Y-2552460D01*
X1434600Y-2555780D01*
X1433340Y-2559360D01*
X1432700Y-2563100D01*
X1432700Y-2566900D01*
X1433340Y-2570640D01*
X1434600Y-2574220D01*
X1436440Y-2577540D01*
X1438839Y-2580500D01*
X1441680Y-2583000D01*
X1444920Y-2585000D01*
X1448440Y-2586400D01*
X1452160Y-2587200D01*
G37*
G36*
X1925960Y-2582380D02*
G01*
X1929720Y-2581880D01*
X1933340Y-2580779D01*
X1936740Y-2579060D01*
X1939800Y-2576800D01*
X1942420Y-2574060D01*
X1944540Y-2570920D01*
X1946120Y-2567460D01*
X1947060Y-2563780D01*
X1947400Y-2560000D01*
X1947060Y-2556220D01*
X1946120Y-2552540D01*
X1944540Y-2549080D01*
X1942420Y-2545940D01*
X1939800Y-2543200D01*
X1936740Y-2540940D01*
X1933340Y-2539220D01*
X1929720Y-2538120D01*
X1925960Y-2537620D01*
X1922160Y-2537800D01*
X1918440Y-2538600D01*
X1914920Y-2540000D01*
X1911680Y-2542000D01*
X1908839Y-2544500D01*
X1906440Y-2547460D01*
X1904600Y-2550780D01*
X1903340Y-2554360D01*
X1902700Y-2558100D01*
X1902700Y-2561900D01*
X1903340Y-2565640D01*
X1904600Y-2569220D01*
X1906440Y-2572540D01*
X1908839Y-2575500D01*
X1911680Y-2578000D01*
X1914920Y-2580000D01*
X1918440Y-2581400D01*
X1922160Y-2582200D01*
G37*
G36*
X1920980Y-2477960D02*
G01*
X1924840Y-2477460D01*
X1928560Y-2476320D01*
X1932040Y-2474560D01*
X1935180Y-2472260D01*
X1937880Y-2469440D01*
X1940060Y-2466200D01*
X1941660Y-2462660D01*
X1942660Y-2458880D01*
X1942980Y-2455000D01*
X1942660Y-2451120D01*
X1941639Y-2447260D01*
X1941360Y-2446540D01*
X1941060Y-2445100D01*
X1941320Y-2443640D01*
X1942080Y-2442380D01*
X1943260Y-2441480D01*
X1947040Y-2439560D01*
X1950180Y-2437260D01*
X1952880Y-2434440D01*
X1955060Y-2431200D01*
X1956660Y-2427660D01*
X1957660Y-2423880D01*
X1957980Y-2420000D01*
X1957660Y-2416120D01*
X1956660Y-2412340D01*
X1955060Y-2408800D01*
X1952880Y-2405560D01*
X1950180Y-2402740D01*
X1947040Y-2400440D01*
X1943560Y-2398680D01*
X1939840Y-2397540D01*
X1935980Y-2397040D01*
X1932080Y-2397200D01*
X1928280Y-2398020D01*
X1924660Y-2399480D01*
X1921339Y-2401520D01*
X1918400Y-2404100D01*
X1915960Y-2407140D01*
X1914060Y-2410540D01*
X1912760Y-2414200D01*
X1912100Y-2418060D01*
X1912100Y-2421940D01*
X1912760Y-2425800D01*
X1913779Y-2428700D01*
X1914019Y-2430200D01*
X1913660Y-2431680D01*
X1912780Y-2432920D01*
X1911500Y-2433740D01*
X1909660Y-2434480D01*
X1906339Y-2436520D01*
X1903400Y-2439100D01*
X1900960Y-2442140D01*
X1899060Y-2445540D01*
X1897760Y-2449200D01*
X1897100Y-2453060D01*
X1897100Y-2456940D01*
X1897760Y-2460800D01*
X1899060Y-2464460D01*
X1900960Y-2467860D01*
X1903400Y-2470900D01*
X1906339Y-2473480D01*
X1909660Y-2475520D01*
X1913280Y-2476980D01*
X1917080Y-2477800D01*
G37*
G36*
X430940Y-2397360D02*
G01*
X434720Y-2396880D01*
X438340Y-2395780D01*
X441740Y-2394060D01*
X444799Y-2391800D01*
X447420Y-2389060D01*
X449540Y-2385920D01*
X451120Y-2382460D01*
X452060Y-2378780D01*
X452380Y-2375000D01*
X452060Y-2371220D01*
X451120Y-2367540D01*
X449540Y-2364080D01*
X447420Y-2360920D01*
X444799Y-2358180D01*
X441740Y-2355920D01*
X438340Y-2354220D01*
X434720Y-2353100D01*
X430940Y-2352620D01*
X427160Y-2352780D01*
X423440Y-2353580D01*
X419920Y-2355000D01*
X416680Y-2357000D01*
X413840Y-2359500D01*
X411440Y-2362460D01*
X409600Y-2365780D01*
X408340Y-2369360D01*
X407680Y-2373100D01*
X407680Y-2376900D01*
X408340Y-2380640D01*
X409600Y-2384220D01*
X411440Y-2387540D01*
X413840Y-2390480D01*
X416680Y-2393000D01*
X419920Y-2394980D01*
X423440Y-2396400D01*
X427160Y-2397200D01*
G37*
G36*
X975939Y-2372360D02*
G01*
X979720Y-2371880D01*
X983340Y-2370780D01*
X986740Y-2369060D01*
X991460Y-2365520D01*
X993040Y-2365200D01*
X1109800Y-2365200D01*
X1112960Y-2364880D01*
X1115800Y-2364020D01*
X1118440Y-2362620D01*
X1120880Y-2360600D01*
X1264680Y-2216820D01*
X1265920Y-2215980D01*
X1267380Y-2215660D01*
X1268860Y-2215880D01*
X1270140Y-2216640D01*
X1271680Y-2218000D01*
X1274920Y-2219980D01*
X1278440Y-2221400D01*
X1282160Y-2222200D01*
X1285940Y-2222360D01*
X1289720Y-2221880D01*
X1293340Y-2220780D01*
X1296740Y-2219060D01*
X1299780Y-2216800D01*
X1302420Y-2214060D01*
X1304540Y-2210920D01*
X1306100Y-2207460D01*
X1307060Y-2203780D01*
X1307380Y-2200000D01*
X1307060Y-2196220D01*
X1306100Y-2192540D01*
X1304540Y-2189080D01*
X1302420Y-2185920D01*
X1299780Y-2183180D01*
X1296740Y-2180920D01*
X1293340Y-2179220D01*
X1289720Y-2178100D01*
X1285940Y-2177620D01*
X1282160Y-2177780D01*
X1278440Y-2178580D01*
X1274920Y-2180000D01*
X1271680Y-2182000D01*
X1269620Y-2183800D01*
X1268400Y-2184540D01*
X1266980Y-2184800D01*
X1260200Y-2184800D01*
X1257040Y-2185120D01*
X1254200Y-2185980D01*
X1251560Y-2187380D01*
X1249120Y-2189400D01*
X1104880Y-2333620D01*
X1103580Y-2334500D01*
X1102040Y-2334800D01*
X993040Y-2334800D01*
X991480Y-2334480D01*
X986740Y-2330920D01*
X983340Y-2329220D01*
X979720Y-2328100D01*
X975939Y-2327620D01*
X972159Y-2327780D01*
X968439Y-2328580D01*
X964920Y-2330000D01*
X961680Y-2332000D01*
X958840Y-2334500D01*
X956440Y-2337460D01*
X954599Y-2340780D01*
X953319Y-2344360D01*
X952680Y-2348100D01*
X952680Y-2351900D01*
X953319Y-2355640D01*
X954599Y-2359220D01*
X956440Y-2362540D01*
X958840Y-2365480D01*
X961680Y-2368000D01*
X964920Y-2369980D01*
X968439Y-2371400D01*
X972159Y-2372200D01*
G37*
G36*
X530940Y-2317360D02*
G01*
X534720Y-2316880D01*
X538340Y-2315780D01*
X541740Y-2314060D01*
X544800Y-2311800D01*
X547420Y-2309060D01*
X549540Y-2305920D01*
X551120Y-2302460D01*
X552060Y-2298780D01*
X552380Y-2295000D01*
X552060Y-2291220D01*
X551120Y-2287540D01*
X549540Y-2284080D01*
X547420Y-2280920D01*
X544800Y-2278180D01*
X541740Y-2275920D01*
X538340Y-2274220D01*
X534720Y-2273100D01*
X530940Y-2272620D01*
X527160Y-2272780D01*
X523440Y-2273580D01*
X519920Y-2275000D01*
X516680Y-2277000D01*
X513840Y-2279500D01*
X511440Y-2282460D01*
X509600Y-2285780D01*
X508340Y-2289360D01*
X507680Y-2293100D01*
X507680Y-2296900D01*
X508340Y-2300640D01*
X509600Y-2304220D01*
X511440Y-2307540D01*
X513840Y-2310480D01*
X516680Y-2313000D01*
X519920Y-2314980D01*
X523440Y-2316400D01*
X527160Y-2317200D01*
G37*
G36*
X1980980Y-2302960D02*
G01*
X1984840Y-2302460D01*
X1988560Y-2301320D01*
X1992040Y-2299560D01*
X1995180Y-2297260D01*
X1997880Y-2294440D01*
X2000060Y-2291200D01*
X2001660Y-2287660D01*
X2002660Y-2283880D01*
X2002980Y-2280000D01*
X2002660Y-2276120D01*
X2001660Y-2272340D01*
X2000060Y-2268800D01*
X1997880Y-2265560D01*
X1995180Y-2262740D01*
X1992040Y-2260440D01*
X1988560Y-2258680D01*
X1984840Y-2257540D01*
X1980980Y-2257040D01*
X1977080Y-2257200D01*
X1973280Y-2258020D01*
X1969660Y-2259480D01*
X1966339Y-2261520D01*
X1963400Y-2264100D01*
X1960960Y-2267140D01*
X1959060Y-2270540D01*
X1957760Y-2274200D01*
X1957100Y-2278060D01*
X1957100Y-2281940D01*
X1957760Y-2285800D01*
X1959060Y-2289460D01*
X1960960Y-2292860D01*
X1963400Y-2295900D01*
X1966339Y-2298480D01*
X1969660Y-2300520D01*
X1973280Y-2301980D01*
X1977080Y-2302800D01*
G37*
G36*
X2115980Y-2257960D02*
G01*
X2119840Y-2257460D01*
X2123560Y-2256320D01*
X2127040Y-2254560D01*
X2130180Y-2252260D01*
X2132880Y-2249440D01*
X2135060Y-2246200D01*
X2136660Y-2242660D01*
X2137660Y-2238880D01*
X2137980Y-2235000D01*
X2137660Y-2231120D01*
X2136660Y-2227340D01*
X2135060Y-2223800D01*
X2132880Y-2220560D01*
X2130680Y-2218280D01*
X2129820Y-2216900D01*
X2129580Y-2215300D01*
X2129980Y-2213740D01*
X2130980Y-2212460D01*
X2132400Y-2211680D01*
X2133560Y-2211320D01*
X2137040Y-2209560D01*
X2140180Y-2207260D01*
X2142880Y-2204440D01*
X2145060Y-2201200D01*
X2146660Y-2197660D01*
X2147660Y-2193880D01*
X2147980Y-2190000D01*
X2147660Y-2186120D01*
X2146660Y-2182340D01*
X2145060Y-2178800D01*
X2142880Y-2175560D01*
X2140180Y-2172740D01*
X2137040Y-2170440D01*
X2133560Y-2168680D01*
X2129840Y-2167540D01*
X2125980Y-2167040D01*
X2122080Y-2167200D01*
X2118280Y-2168020D01*
X2114660Y-2169480D01*
X2111340Y-2171520D01*
X2108400Y-2174100D01*
X2105960Y-2177140D01*
X2104060Y-2180540D01*
X2102760Y-2184200D01*
X2102100Y-2188060D01*
X2102100Y-2191940D01*
X2102760Y-2195800D01*
X2104060Y-2199460D01*
X2105960Y-2202860D01*
X2108400Y-2205900D01*
X2109040Y-2206460D01*
X2110020Y-2207760D01*
X2110400Y-2209320D01*
X2110120Y-2210920D01*
X2109240Y-2212280D01*
X2107900Y-2213180D01*
X2104660Y-2214480D01*
X2101340Y-2216520D01*
X2098400Y-2219100D01*
X2095960Y-2222140D01*
X2094060Y-2225540D01*
X2092760Y-2229200D01*
X2092100Y-2233060D01*
X2092100Y-2236940D01*
X2092760Y-2240800D01*
X2094060Y-2244460D01*
X2095960Y-2247860D01*
X2098400Y-2250900D01*
X2101340Y-2253480D01*
X2104660Y-2255520D01*
X2108280Y-2256980D01*
X2112080Y-2257800D01*
G37*
G36*
X585940Y-2247360D02*
G01*
X589720Y-2246880D01*
X593340Y-2245780D01*
X596740Y-2244060D01*
X599800Y-2241800D01*
X602420Y-2239060D01*
X604540Y-2235920D01*
X606120Y-2232460D01*
X607060Y-2228780D01*
X607380Y-2225000D01*
X607060Y-2221220D01*
X606120Y-2217540D01*
X604540Y-2214080D01*
X602420Y-2210920D01*
X599800Y-2208180D01*
X596740Y-2205920D01*
X593340Y-2204220D01*
X589720Y-2203100D01*
X585940Y-2202620D01*
X582160Y-2202780D01*
X578440Y-2203580D01*
X574920Y-2205000D01*
X571680Y-2207000D01*
X568840Y-2209500D01*
X566440Y-2212460D01*
X564600Y-2215780D01*
X563340Y-2219360D01*
X562680Y-2223100D01*
X562680Y-2226900D01*
X563340Y-2230640D01*
X564600Y-2234220D01*
X566440Y-2237540D01*
X568840Y-2240480D01*
X571680Y-2243000D01*
X574920Y-2244980D01*
X578440Y-2246400D01*
X582160Y-2247200D01*
G37*
G36*
X795939Y-2242360D02*
G01*
X799720Y-2241880D01*
X803340Y-2240780D01*
X806740Y-2239060D01*
X809800Y-2236800D01*
X812420Y-2234060D01*
X814539Y-2230920D01*
X816100Y-2227460D01*
X817060Y-2223780D01*
X817380Y-2220000D01*
X817060Y-2216220D01*
X816100Y-2212540D01*
X814539Y-2209080D01*
X812420Y-2205920D01*
X809800Y-2203180D01*
X806740Y-2200920D01*
X803340Y-2199220D01*
X799720Y-2198100D01*
X795939Y-2197620D01*
X792159Y-2197780D01*
X788439Y-2198580D01*
X784920Y-2200000D01*
X781680Y-2202000D01*
X778840Y-2204500D01*
X776440Y-2207460D01*
X774599Y-2210780D01*
X773319Y-2214360D01*
X772680Y-2218100D01*
X772680Y-2221900D01*
X773319Y-2225640D01*
X774599Y-2229220D01*
X776440Y-2232540D01*
X778840Y-2235480D01*
X781680Y-2238000D01*
X784920Y-2239980D01*
X788439Y-2241400D01*
X792159Y-2242200D01*
G37*
G36*
X2035980Y-2172960D02*
G01*
X2039840Y-2172460D01*
X2043560Y-2171320D01*
X2047040Y-2169560D01*
X2050180Y-2167260D01*
X2052880Y-2164440D01*
X2055060Y-2161200D01*
X2056660Y-2157660D01*
X2057660Y-2153880D01*
X2057980Y-2150000D01*
X2057660Y-2146120D01*
X2056660Y-2142340D01*
X2055060Y-2138800D01*
X2052880Y-2135560D01*
X2050180Y-2132740D01*
X2047040Y-2130440D01*
X2043560Y-2128680D01*
X2039840Y-2127540D01*
X2035980Y-2127040D01*
X2032080Y-2127200D01*
X2028280Y-2128020D01*
X2024660Y-2129480D01*
X2021339Y-2131520D01*
X2018400Y-2134100D01*
X2015960Y-2137140D01*
X2014060Y-2140540D01*
X2012760Y-2144200D01*
X2012100Y-2148060D01*
X2012100Y-2151940D01*
X2012760Y-2155800D01*
X2014060Y-2159460D01*
X2015960Y-2162860D01*
X2018400Y-2165900D01*
X2021339Y-2168480D01*
X2024660Y-2170520D01*
X2028280Y-2171980D01*
X2032080Y-2172800D01*
G37*
G36*
X1900980Y-2162960D02*
G01*
X1904840Y-2162460D01*
X1908560Y-2161320D01*
X1912040Y-2159560D01*
X1915180Y-2157260D01*
X1917880Y-2154440D01*
X1920060Y-2151200D01*
X1921660Y-2147660D01*
X1922660Y-2143880D01*
X1922980Y-2140000D01*
X1922660Y-2136120D01*
X1921660Y-2132340D01*
X1920060Y-2128800D01*
X1917880Y-2125560D01*
X1915180Y-2122740D01*
X1912040Y-2120440D01*
X1908560Y-2118680D01*
X1904840Y-2117540D01*
X1900980Y-2117040D01*
X1897080Y-2117200D01*
X1893280Y-2118020D01*
X1889660Y-2119480D01*
X1886339Y-2121520D01*
X1883400Y-2124100D01*
X1880960Y-2127140D01*
X1879060Y-2130540D01*
X1877760Y-2134200D01*
X1877100Y-2138060D01*
X1877100Y-2141940D01*
X1877760Y-2145800D01*
X1879060Y-2149460D01*
X1880960Y-2152860D01*
X1883400Y-2155900D01*
X1886339Y-2158480D01*
X1889660Y-2160520D01*
X1893280Y-2161980D01*
X1897080Y-2162800D01*
G37*
G36*
X1090940Y-2117360D02*
G01*
X1094720Y-2116880D01*
X1098340Y-2115780D01*
X1101740Y-2114060D01*
X1104800Y-2111800D01*
X1107420Y-2109060D01*
X1109540Y-2105920D01*
X1111160Y-2102280D01*
X1111920Y-2100780D01*
X1113220Y-2099720D01*
X1114860Y-2099300D01*
X1116520Y-2099580D01*
X1117920Y-2100520D01*
X1118800Y-2101960D01*
X1119600Y-2104220D01*
X1121440Y-2107540D01*
X1123840Y-2110480D01*
X1126680Y-2113000D01*
X1129920Y-2114980D01*
X1133440Y-2116400D01*
X1137160Y-2117200D01*
X1140940Y-2117360D01*
X1144720Y-2116880D01*
X1148340Y-2115780D01*
X1151740Y-2114060D01*
X1154800Y-2111800D01*
X1157420Y-2109060D01*
X1159540Y-2105920D01*
X1161100Y-2102460D01*
X1162060Y-2098780D01*
X1162380Y-2095000D01*
X1162060Y-2091220D01*
X1161100Y-2087540D01*
X1159540Y-2084079D01*
X1157420Y-2080920D01*
X1154800Y-2078180D01*
X1151740Y-2075920D01*
X1148340Y-2074220D01*
X1144720Y-2073100D01*
X1140940Y-2072620D01*
X1137160Y-2072780D01*
X1133440Y-2073580D01*
X1129920Y-2075000D01*
X1126680Y-2077000D01*
X1123840Y-2079500D01*
X1121440Y-2082460D01*
X1119600Y-2085780D01*
X1118800Y-2088040D01*
X1117920Y-2089460D01*
X1116520Y-2090420D01*
X1114860Y-2090700D01*
X1113220Y-2090280D01*
X1111920Y-2089220D01*
X1109540Y-2084079D01*
X1107420Y-2080920D01*
X1104800Y-2078180D01*
X1101740Y-2075920D01*
X1098340Y-2074220D01*
X1094720Y-2073100D01*
X1090940Y-2072620D01*
X1087160Y-2072780D01*
X1083440Y-2073580D01*
X1079920Y-2075000D01*
X1076680Y-2077000D01*
X1073840Y-2079500D01*
X1071440Y-2082460D01*
X1069600Y-2085780D01*
X1068320Y-2089360D01*
X1067680Y-2093100D01*
X1067680Y-2096900D01*
X1068320Y-2100640D01*
X1069600Y-2104220D01*
X1071440Y-2107540D01*
X1073840Y-2110480D01*
X1076680Y-2113000D01*
X1079920Y-2114980D01*
X1083440Y-2116400D01*
X1087160Y-2117200D01*
G37*
G36*
X1870980Y-2077960D02*
G01*
X1874840Y-2077460D01*
X1878560Y-2076320D01*
X1882040Y-2074560D01*
X1885180Y-2072260D01*
X1887880Y-2069440D01*
X1890060Y-2066200D01*
X1891660Y-2062660D01*
X1892660Y-2058880D01*
X1892980Y-2055000D01*
X1892660Y-2051120D01*
X1891660Y-2047340D01*
X1890060Y-2043800D01*
X1887880Y-2040560D01*
X1885180Y-2037740D01*
X1882040Y-2035440D01*
X1878560Y-2033680D01*
X1874840Y-2032540D01*
X1870980Y-2032040D01*
X1867080Y-2032200D01*
X1863280Y-2033020D01*
X1859660Y-2034480D01*
X1856339Y-2036519D01*
X1853400Y-2039100D01*
X1850960Y-2042140D01*
X1849060Y-2045540D01*
X1847760Y-2049199D01*
X1847100Y-2053060D01*
X1847100Y-2056940D01*
X1847760Y-2060800D01*
X1849060Y-2064460D01*
X1850960Y-2067860D01*
X1853400Y-2070900D01*
X1856339Y-2073480D01*
X1859660Y-2075520D01*
X1863280Y-2076980D01*
X1867080Y-2077800D01*
G37*
G36*
X2005980Y-2067960D02*
G01*
X2009840Y-2067460D01*
X2013560Y-2066320D01*
X2017040Y-2064560D01*
X2020180Y-2062260D01*
X2022880Y-2059440D01*
X2025060Y-2056200D01*
X2026660Y-2052660D01*
X2027660Y-2048880D01*
X2027980Y-2045000D01*
X2027660Y-2041120D01*
X2026660Y-2037340D01*
X2025060Y-2033800D01*
X2022880Y-2030560D01*
X2020180Y-2027740D01*
X2017040Y-2025440D01*
X2013560Y-2023680D01*
X2009840Y-2022540D01*
X2005980Y-2022040D01*
X2002080Y-2022200D01*
X1998280Y-2023020D01*
X1994660Y-2024480D01*
X1991339Y-2026519D01*
X1988400Y-2029100D01*
X1985960Y-2032140D01*
X1984060Y-2035540D01*
X1982760Y-2039199D01*
X1982100Y-2043060D01*
X1982100Y-2046940D01*
X1982760Y-2050800D01*
X1984060Y-2054460D01*
X1985960Y-2057860D01*
X1988400Y-2060900D01*
X1991339Y-2063480D01*
X1994660Y-2065520D01*
X1998280Y-2066980D01*
X2002080Y-2067800D01*
G37*
G36*
X2150980Y-2067960D02*
G01*
X2154840Y-2067460D01*
X2158560Y-2066320D01*
X2162040Y-2064560D01*
X2165180Y-2062260D01*
X2167880Y-2059440D01*
X2170060Y-2056200D01*
X2171660Y-2052660D01*
X2172660Y-2048880D01*
X2172980Y-2045000D01*
X2172660Y-2041120D01*
X2171660Y-2037340D01*
X2170060Y-2033800D01*
X2167880Y-2030560D01*
X2165180Y-2027740D01*
X2162040Y-2025440D01*
X2158560Y-2023680D01*
X2154840Y-2022540D01*
X2150980Y-2022040D01*
X2147080Y-2022200D01*
X2143280Y-2023020D01*
X2139660Y-2024480D01*
X2136340Y-2026519D01*
X2133400Y-2029100D01*
X2130960Y-2032140D01*
X2129060Y-2035540D01*
X2127760Y-2039199D01*
X2127100Y-2043060D01*
X2127100Y-2046940D01*
X2127760Y-2050800D01*
X2129060Y-2054460D01*
X2130960Y-2057860D01*
X2133400Y-2060900D01*
X2136340Y-2063480D01*
X2139660Y-2065520D01*
X2143280Y-2066980D01*
X2147080Y-2067800D01*
G37*
G36*
X2080980Y-2067960D02*
G01*
X2084840Y-2067460D01*
X2088560Y-2066320D01*
X2092040Y-2064560D01*
X2095180Y-2062260D01*
X2097880Y-2059440D01*
X2100060Y-2056200D01*
X2101660Y-2052660D01*
X2102660Y-2048880D01*
X2102980Y-2045000D01*
X2102660Y-2041120D01*
X2101660Y-2037340D01*
X2100060Y-2033800D01*
X2097880Y-2030560D01*
X2095180Y-2027740D01*
X2092040Y-2025440D01*
X2088560Y-2023680D01*
X2084840Y-2022540D01*
X2080980Y-2022040D01*
X2077080Y-2022200D01*
X2073280Y-2023020D01*
X2069660Y-2024480D01*
X2066339Y-2026519D01*
X2063400Y-2029100D01*
X2060960Y-2032140D01*
X2059060Y-2035540D01*
X2057760Y-2039199D01*
X2057100Y-2043060D01*
X2057100Y-2046940D01*
X2057760Y-2050800D01*
X2059060Y-2054460D01*
X2060960Y-2057860D01*
X2063400Y-2060900D01*
X2066339Y-2063480D01*
X2069660Y-2065520D01*
X2073280Y-2066980D01*
X2077080Y-2067800D01*
G37*
G36*
X1180940Y-1957360D02*
G01*
X1184720Y-1956879D01*
X1188340Y-1955780D01*
X1191740Y-1954060D01*
X1194800Y-1951800D01*
X1197120Y-1949360D01*
X1198520Y-1948420D01*
X1200180Y-1948140D01*
X1201820Y-1948560D01*
X1203140Y-1949620D01*
X1203840Y-1950480D01*
X1206680Y-1953000D01*
X1209920Y-1954980D01*
X1213440Y-1956399D01*
X1217160Y-1957200D01*
X1220940Y-1957360D01*
X1224720Y-1956879D01*
X1228340Y-1955780D01*
X1231740Y-1954060D01*
X1234800Y-1951800D01*
X1237420Y-1949060D01*
X1239540Y-1945920D01*
X1241100Y-1942460D01*
X1242060Y-1938779D01*
X1242380Y-1935000D01*
X1242060Y-1931220D01*
X1241100Y-1927540D01*
X1239540Y-1924079D01*
X1237420Y-1920920D01*
X1234800Y-1918180D01*
X1231740Y-1915920D01*
X1228340Y-1914220D01*
X1224720Y-1913100D01*
X1220940Y-1912620D01*
X1217160Y-1912780D01*
X1213440Y-1913580D01*
X1209920Y-1915000D01*
X1206680Y-1917000D01*
X1203840Y-1919500D01*
X1203140Y-1920380D01*
X1201820Y-1921440D01*
X1200180Y-1921860D01*
X1198520Y-1921579D01*
X1197120Y-1920620D01*
X1194800Y-1918180D01*
X1191740Y-1915920D01*
X1188340Y-1914220D01*
X1184720Y-1913100D01*
X1180940Y-1912620D01*
X1177160Y-1912780D01*
X1173440Y-1913580D01*
X1169920Y-1915000D01*
X1166680Y-1917000D01*
X1163840Y-1919500D01*
X1161440Y-1922460D01*
X1159600Y-1925780D01*
X1158320Y-1929360D01*
X1157680Y-1933100D01*
X1157680Y-1936900D01*
X1158320Y-1940640D01*
X1159600Y-1944220D01*
X1161440Y-1947540D01*
X1163840Y-1950480D01*
X1166680Y-1953000D01*
X1169920Y-1954980D01*
X1173440Y-1956399D01*
X1177160Y-1957200D01*
G37*

%LPD*%
D10*
X1465000Y-2665000D02*
G01*
X1600000Y-2665000D01*
X1650000Y-2715000D01*
X2020000Y-2715000D01*
X2155000Y-2580000D01*
X2270000Y-2580000D01*
X2270000Y-2575000D01*
X1585000Y-2630000D02*
G01*
X2073999Y-2630999D01*
X2145000Y-2560000D01*
X2225000Y-2560000D01*
X2370000Y-2495000D02*
G01*
X2360000Y-2505000D01*
X2360000Y-3105000D01*
X2265000Y-3200000D01*
X2250000Y-3200000D01*
X1285000Y-2200000D02*
G01*
X1260000Y-2200000D01*
X1110000Y-2350000D01*
X975000Y-2350000D01*
X2525000Y-2685000D02*
G01*
X2520000Y-2685000D01*
X2445000Y-2610000D01*
X2445000Y-1730000D01*
X2045000Y-1330000D01*
X2015000Y-1330000D01*
X2000000Y-1345000D01*
X2310000Y-2824989D02*
G01*
X2070000Y-3064989D01*
X2070000Y-3085000D01*
X2102402Y-2339299D02*
G01*
X2102402Y-2372399D01*
X2295000Y-2565000D01*
X2295000Y-2630000D01*
X2185000Y-2740000D01*
X2110000Y-2740000D01*
X2075000Y-2775000D01*
X2055000Y-2775000D01*
X2000000Y-1295000D02*
G01*
X2015000Y-1310000D01*
X2050000Y-1310000D01*
X2465000Y-1725000D01*
X2465000Y-2605000D01*
X2510000Y-2650000D01*
X2525000Y-2650000D01*
D11*
G01*
X2450000Y-3199989D03*
G01*
X2350000Y-3199989D03*
G01*
X2250000Y-3199989D03*
G01*
X2150000Y-3199989D03*
G01*
X2050000Y-3199989D03*
D12*
G01*
X1950000Y-3199989D03*
D11*
G01*
X700000Y-2700000D03*
G01*
X600000Y-2700000D03*
D12*
G01*
X500000Y-2700000D03*
D11*
G01*
X1000000Y-1700000D03*
G01*
X900000Y-1700000D03*
D12*
G01*
X800000Y-1700000D03*
D13*
G01*
X126579Y-383470D03*
G01*
X126579Y-816540D03*
D14*
G01*
X323429Y-698429D03*
G01*
X323429Y-501579D03*
D13*
G01*
X3698429Y-816540D03*
G01*
X3698429Y-383470D03*
D14*
G01*
X3501580Y-501579D03*
G01*
X3501580Y-698429D03*
D13*
G01*
X126579Y-1263470D03*
G01*
X126579Y-1696540D03*
D14*
G01*
X323429Y-1578429D03*
G01*
X323429Y-1381579D03*
D15*
G01*
X2000000Y-1345000D03*
D16*
G01*
X1645000Y-1175000D03*
G01*
X1685000Y-1215000D03*
G01*
X1725000Y-1175000D03*
G01*
X1645000Y-1255000D03*
G01*
X1725000Y-1255000D03*
G01*
X2275000Y-1175000D03*
G01*
X2355000Y-1175000D03*
G01*
X2315000Y-1215000D03*
G01*
X2275000Y-1255000D03*
G01*
X2355000Y-1255000D03*
G01*
X2460000Y-1475000D03*
G01*
X2540000Y-1475000D03*
G01*
X2500000Y-1515000D03*
G01*
X2460000Y-1555000D03*
G01*
X2540000Y-1555000D03*
D17*
G01*
X1455000Y-1490000D03*
G01*
X1500000Y-1520000D03*
G01*
X1545000Y-1550000D03*
G01*
X1455000Y-1550000D03*
G01*
X1545000Y-1490000D03*
D15*
G01*
X2115000Y-2670000D03*
G01*
X2040000Y-2575000D03*
D18*
G01*
X1076580Y-1080000D03*
G01*
X1273419Y-1080000D03*
D16*
G01*
X2000000Y-1295000D03*
G01*
X2000000Y-1345000D03*
D19*
G01*
X2190000Y-1315000D03*
G01*
X1810000Y-1115000D03*
G01*
X1400000Y-1390000D03*
G01*
X2405000Y-1390000D03*
D16*
G01*
X625000Y-1600010D03*
G01*
X575000Y-1600000D03*
G01*
X1170000Y-1600000D03*
G01*
X1230000Y-1600000D03*
G01*
X1250000Y-1205000D03*
G01*
X1240000Y-1230000D03*
G01*
X1250000Y-1255000D03*
G01*
X1240000Y-1280000D03*
G01*
X1250000Y-1305000D03*
G01*
X1240000Y-1330000D03*
G01*
X1250000Y-1355000D03*
G01*
X1240000Y-1380000D03*
G01*
X1250000Y-1405000D03*
G01*
X2770000Y-1600000D03*
G01*
X2830000Y-1600000D03*
G01*
X2755000Y-1200000D03*
G01*
X2765000Y-1225000D03*
G01*
X2755000Y-1250000D03*
G01*
X2765000Y-1275000D03*
G01*
X2755000Y-1300000D03*
G01*
X2765000Y-1325000D03*
G01*
X2755000Y-1350000D03*
G01*
X2765000Y-1375000D03*
G01*
X2755000Y-1400000D03*
G01*
X1975000Y-1495000D03*
G01*
X2025000Y-1495000D03*
G01*
X1975000Y-1525000D03*
G01*
X2025000Y-1525000D03*
G01*
X1975000Y-1555000D03*
G01*
X2025000Y-1555000D03*
G01*
X2025000Y-1585000D03*
G01*
X1975000Y-1585000D03*
G01*
X1975000Y-1615000D03*
G01*
X2025000Y-1615000D03*
G01*
X1975000Y-1645000D03*
G01*
X2025000Y-1645000D03*
G01*
X2025000Y-1675000D03*
G01*
X1975000Y-1675000D03*
G01*
X1975000Y-1705000D03*
G01*
X2025000Y-1705000D03*
G01*
X1840000Y-1705000D03*
G01*
X1840000Y-1675000D03*
G01*
X1840000Y-1645000D03*
G01*
X1840000Y-1615000D03*
G01*
X1840000Y-1585000D03*
G01*
X1840000Y-1555000D03*
G01*
X1840000Y-1525000D03*
G01*
X1840000Y-1495000D03*
G01*
X2165000Y-1705000D03*
G01*
X2165000Y-1675000D03*
G01*
X2165000Y-1645000D03*
G01*
X2165000Y-1615000D03*
G01*
X2165000Y-1585000D03*
G01*
X2165000Y-1555000D03*
G01*
X2165000Y-1525000D03*
G01*
X2165000Y-1495000D03*
G01*
X265000Y-1510000D03*
G01*
X295000Y-1510000D03*
G01*
X325000Y-1510000D03*
G01*
X355000Y-1510000D03*
G01*
X385000Y-1510000D03*
G01*
X3535000Y-1345000D03*
G01*
X3510000Y-1345000D03*
G01*
X3485000Y-1345000D03*
G01*
X3460000Y-1345000D03*
G01*
X3435000Y-1345000D03*
G01*
X3410000Y-1345000D03*
G01*
X3385000Y-1345000D03*
G01*
X3385000Y-1455000D03*
G01*
X3410000Y-1455000D03*
G01*
X3435000Y-1455000D03*
G01*
X3460000Y-1455000D03*
G01*
X3485000Y-1455000D03*
G01*
X3510000Y-1455000D03*
G01*
X3535000Y-1455000D03*
G01*
X3560000Y-1455000D03*
G01*
X3560000Y-1345000D03*
G01*
X3190000Y-955000D03*
G01*
X3215000Y-955000D03*
G01*
X3240000Y-955000D03*
G01*
X3265000Y-955000D03*
G01*
X3290000Y-955000D03*
G01*
X3315000Y-955000D03*
G01*
X3340000Y-955000D03*
G01*
X3365000Y-955000D03*
G01*
X3190000Y-845000D03*
G01*
X3215000Y-845000D03*
G01*
X3240000Y-845000D03*
G01*
X3265000Y-845000D03*
G01*
X3290000Y-845000D03*
G01*
X3315000Y-845000D03*
G01*
X3340000Y-845000D03*
G01*
X3365000Y-845000D03*
G01*
X3190000Y-345000D03*
G01*
X3215000Y-345000D03*
G01*
X3240000Y-345000D03*
G01*
X3265000Y-345000D03*
G01*
X3290000Y-345000D03*
G01*
X3315000Y-345000D03*
G01*
X3340000Y-345000D03*
G01*
X3365000Y-345000D03*
G01*
X3190000Y-455000D03*
G01*
X3215000Y-455000D03*
G01*
X3240000Y-455000D03*
G01*
X3265000Y-455000D03*
G01*
X3290000Y-455000D03*
G01*
X3315000Y-455000D03*
G01*
X3340000Y-455000D03*
G01*
X3365000Y-455000D03*
G01*
X1260000Y-405000D03*
G01*
X1260000Y-430000D03*
G01*
X1260000Y-455000D03*
G01*
X1260000Y-480000D03*
G01*
X1260000Y-505000D03*
G01*
X1260000Y-530000D03*
G01*
X1260000Y-555000D03*
G01*
X1260000Y-580000D03*
G01*
X1150000Y-405000D03*
G01*
X1150000Y-430000D03*
G01*
X1150000Y-455000D03*
G01*
X1150000Y-480000D03*
G01*
X1150000Y-505000D03*
G01*
X1150000Y-530000D03*
G01*
X1150000Y-555000D03*
G01*
X1150000Y-580000D03*
G01*
X460000Y-345000D03*
G01*
X485000Y-345000D03*
G01*
X510000Y-345000D03*
G01*
X535000Y-345000D03*
G01*
X560000Y-345000D03*
G01*
X585000Y-345000D03*
G01*
X610000Y-345000D03*
G01*
X635000Y-345000D03*
G01*
X460000Y-455000D03*
G01*
X485000Y-455000D03*
G01*
X510000Y-455000D03*
G01*
X535000Y-455000D03*
G01*
X560000Y-455000D03*
G01*
X585000Y-455000D03*
G01*
X610000Y-455000D03*
G01*
X635000Y-455000D03*
G01*
X460000Y-845000D03*
G01*
X485000Y-845000D03*
G01*
X510000Y-845000D03*
G01*
X535000Y-845000D03*
G01*
X560000Y-845000D03*
G01*
X585000Y-845000D03*
G01*
X610000Y-845000D03*
G01*
X635000Y-845000D03*
G01*
X460000Y-955000D03*
G01*
X485000Y-955000D03*
G01*
X510000Y-955000D03*
G01*
X535000Y-955000D03*
G01*
X560000Y-955000D03*
G01*
X585000Y-955000D03*
G01*
X610000Y-955000D03*
G01*
X635000Y-955000D03*
G01*
X325000Y-1650000D03*
G01*
X355000Y-1650000D03*
G01*
X385000Y-1650000D03*
G01*
X295000Y-1650000D03*
G01*
X265000Y-1650000D03*
G01*
X1050000Y-1300000D03*
G01*
X2950000Y-1290000D03*
D19*
G01*
X1525000Y-1355000D03*
G01*
X2525000Y-1355000D03*
D16*
G01*
X1755000Y-2680000D03*
G01*
X1725000Y-2665000D03*
D19*
G01*
X1920000Y-2455000D03*
G01*
X2030000Y-2369989D03*
G01*
X2080000Y-2384989D03*
G01*
X2130000Y-2359989D03*
D16*
G01*
X2525000Y-2650000D03*
G01*
X2525000Y-2685000D03*
G01*
X2505000Y-2754989D03*
G01*
X2505000Y-2585000D03*
G01*
X2655000Y-2555000D03*
G01*
X2500000Y-2495000D03*
G01*
X2185000Y-2395000D03*
G01*
X1700000Y-2310000D03*
D19*
G01*
X1935000Y-3045000D03*
G01*
X1615000Y-2505000D03*
G01*
X2055000Y-2775000D03*
G01*
X2102439Y-2339330D03*
G01*
X2310000Y-2824989D03*
G01*
X2230000Y-2980000D03*
G01*
X1935000Y-2420000D03*
G01*
X1975000Y-3045000D03*
G01*
X2370000Y-2495000D03*
G01*
X2505000Y-2445000D03*
D20*
G01*
X2225000Y-2560000D03*
G01*
X2270000Y-2575000D03*
D19*
G01*
X1980000Y-2280000D03*
G01*
X1900000Y-2140000D03*
G01*
X2035000Y-2150000D03*
G01*
X2115000Y-2235000D03*
G01*
X2125000Y-2190000D03*
G01*
X1870000Y-2055000D03*
G01*
X2005000Y-2045000D03*
G01*
X2080000Y-2045000D03*
G01*
X2150000Y-2045000D03*
D16*
G01*
X1360000Y-2610000D03*
G01*
X1430000Y-2720000D03*
G01*
X1465000Y-2665000D03*
G01*
X1585000Y-2630000D03*
G01*
X2085000Y-2854989D03*
G01*
X2070000Y-3085000D03*
G01*
X1455000Y-2565000D03*
G01*
X2505000Y-2814989D03*
G01*
X1970000Y-2790000D03*
G01*
X2560000Y-2340000D03*
G01*
X2295000Y-3124989D03*
G01*
X2205000Y-3065000D03*
G01*
X2395000Y-2280000D03*
G01*
X2325000Y-2280000D03*
G01*
X2335000Y-3005000D03*
G01*
X1615000Y-2565000D03*
G01*
X2595000Y-2405000D03*
G01*
X2205000Y-2420000D03*
G01*
X2020000Y-2980000D03*
D19*
G01*
X1755000Y-2265000D03*
G01*
X1755000Y-2355000D03*
G01*
X1610000Y-2710000D03*
G01*
X2235000Y-2275000D03*
G01*
X2195320Y-2305000D03*
G01*
X2505000Y-2869989D03*
G01*
X2505000Y-2930000D03*
G01*
X2270000Y-2985000D03*
D16*
G01*
X2655000Y-2620000D03*
G01*
X1170000Y-1775000D03*
G01*
X1230000Y-1775000D03*
G01*
X580000Y-1780000D03*
G01*
X625000Y-1780000D03*
G01*
X1220000Y-1935000D03*
G01*
X1925000Y-2560000D03*
G01*
X1945000Y-2690000D03*
G01*
X1180000Y-1935000D03*
D19*
G01*
X1345000Y-2070000D03*
G01*
X1345000Y-2260000D03*
G01*
X1395000Y-2030000D03*
G01*
X1395000Y-2220000D03*
G01*
X535000Y-2095000D03*
G01*
X535000Y-2210000D03*
G01*
X655000Y-2095000D03*
G01*
X840000Y-2155000D03*
D16*
G01*
X1090000Y-2095000D03*
G01*
X1140000Y-2095000D03*
G01*
X795000Y-2220000D03*
G01*
X530000Y-2295000D03*
G01*
X430000Y-2375000D03*
G01*
X585000Y-2225000D03*
G01*
X1285000Y-2200000D03*
G01*
X975000Y-2350000D03*
D19*
G01*
X480000Y-1800000D03*
G01*
X725000Y-1800000D03*
G01*
X295000Y-2120000D03*
G01*
X530000Y-2430000D03*
G01*
X550000Y-2260000D03*
G01*
X1265000Y-2135000D03*
G01*
X1285000Y-2325000D03*
G01*
X1080000Y-1795000D03*
G01*
X1325000Y-1800000D03*
G01*
X820000Y-1810000D03*
G01*
X870000Y-1860000D03*
G01*
X820000Y-1860000D03*
D16*
G01*
X2345000Y-2135000D03*
G01*
X1695000Y-1825000D03*
M02*
